<svg width="297" height="162" viewBox="0 0 297 162" fill="none" xmlns="http://www.w3.org/2000/svg">
<g clip-path="url(#clip0_102_280)">
<path d="M110.62 123.83C110.38 124.27 110.33 124.81 110.22 125.38C110.17 125.67 110.11 125.97 110.2 126.24C110.4 126.84 111.18 127.04 111.81 126.92C113 126.69 114.83 126.29 115.3 124.99C115.46 124.53 115.69 124.14 115.46 123.65C115.29 123.28 114.95 123 114.57 122.84C114.19 122.68 113.78 122.62 113.37 122.59C112.89 122.55 112.39 122.55 111.93 122.69C111.32 122.87 110.92 123.29 110.62 123.84V123.83Z" fill="#951B1E"/>
<path d="M295.6 112.91C294.76 113.74 293.65 114.21 292.56 114.64C289.79 115.75 286.99 116.79 284.18 117.77C282.62 118.31 280.57 118.63 279.16 119.46C278.07 120.09 274.16 121.9 275.43 118.92C275.75 118.17 276.37 117.56 276.92 116.98C277.99 115.85 279.44 115.14 280.81 114.45C284.04 112.82 287.42 111.5 290.89 110.5C291.95 110.2 294.88 108.9 295.9 109.5C297.24 110.29 296.48 112.04 295.61 112.91H295.6Z" fill="#468FC3"/>
<path d="M272.61 109.7C274.68 114.26 276.17 119.09 277.05 124.03C278.07 129.78 277.77 135.5 279 141.21C279.76 144.74 280.02 148.38 280.17 151.87C280.31 154.98 280.64 158.08 281.01 161.16H295.84C295.8 157.3 295.28 153.47 294.92 149.63C294.23 142.37 294.68 135.03 294.21 127.73C293.69 119.59 292.57 111.5 290.88 103.52C290.38 101.18 289.83 98.82 288.68 96.73C286.88 93.44 283.75 91.07 280.47 89.26C278.26 88.04 275.84 87.01 273.32 87C267.66 86.99 264.89 92.04 266.3 97.05C267.59 101.61 270.68 105.42 272.62 109.7H272.61Z" fill="#F7D5A7"/>
<path d="M79.08 69.5801C79.08 69.5801 78.72 73.4101 78.71 73.7301C78.67 75.2901 78.82 76.8601 79.17 78.3801C79.41 79.4501 79.74 80.4901 80.18 81.5001C80.91 83.2001 81.93 84.7801 83.17 86.1501C84.44 87.5501 86 88.3501 84.68 90.4101C83.32 92.5301 80.45 93.8501 78.45 95.2801C73.27 98.9901 66.84 100.92 60.48 100.74C51.57 100.49 42.95 96.2201 36.93 89.6401C36.22 88.8601 35.52 88.0101 35.3 86.9801C34.75 84.3401 37.45 82.2801 39.75 80.8501C44.16 78.1101 44.95 72.6601 44.16 67.7501C44.09 67.3101 43.94 66.8301 43.67 66.4801C45.69 67.0401 47.66 67.7501 49.68 68.3201C51.24 68.7501 52.81 69.1901 54.4 69.5001C62.34 71.0401 71.02 69.5601 79.11 69.5801H79.08Z" fill="#A56D35"/>
<path d="M43.6899 67.26C46.7999 70.53 50.3899 73.23 53.6299 76.38C55.4199 78.12 58.5599 79.58 60.9699 79.9C63.1999 80.2 65.4899 79.64 67.5599 78.68C69.6299 77.73 71.5299 76.39 73.4099 75.07C75.2499 73.78 77.4399 72.61 78.8899 70.87" fill="#7C5228"/>
<path d="M33.95 53.73C35 57.77 37.67 61.19 40.52 64.24C44.87 68.89 49.92 72.58 54.84 76.53C56.72 78.04 60.18 79.28 62.62 79.36C65.79 79.46 68.67 77.69 71.34 75.99C73.01 74.92 74.69 73.86 76.36 72.79C80.03 70.45 83.76 68.06 86.63 64.78C90.34 60.54 92.41 54.9 92.32 49.27C92.27 45.89 91.48 42.44 92.36 39.19C92.79 37.62 93.6 36.13 93.62 34.5C93.67 31.17 90.53 28.76 87.61 27.15C83.57 24.93 79.29 23.14 74.87 21.82C71.29 20.75 67.62 19.98 63.89 19.74C61.32 19.57 58.75 19.66 56.18 19.79C53.13 19.95 50.2 20.74 47.21 20.92C44.22 21.1 41.55 22.73 39.12 24.31C37.65 25.26 36.08 26.38 35.62 28.07C35.32 29.17 35.55 30.34 35.77 31.46C36.12 33.17 36.67 34.74 36.36 36.51C36.09 38.07 35.25 39.57 34.83 41.03C33.65 45.14 32.85 49.52 33.95 53.74V53.73Z" fill="#A56D35"/>
<path d="M32.31 34.51C30.84 34.56 29.31 35.13 28.39 36.2C26.92 37.92 26.56 42.04 27.15 44.2C27.36 44.96 27.76 45.65 28.2 46.3C29.63 48.43 31.64 50.41 34.18 50.76C33.71 46.75 34.3 42.63 35.88 38.91C37.18 35.86 34.84 34.41 32.31 34.5V34.51Z" fill="#A56D35"/>
<path d="M96.1499 41.03C97.5799 41.38 98.9599 42.24 99.6499 43.48C100.74 45.46 100.26 49.57 99.2499 51.57C98.8899 52.27 98.3599 52.87 97.7899 53.42C96.4799 54.71 95.0599 55.59 93.3599 56.29C92.7999 56.52 92.0299 56.97 91.4299 56.97C91.2399 56.97 89.6799 56.51 89.7599 56.46C91.4199 55.39 91.7499 53.15 91.9099 51.18C92.1999 47.64 89.7999 39.5 96.1499 41.04V41.03Z" fill="#A56D35"/>
<path d="M36.7499 36.1C37.3199 34.62 37.8399 33.1501 37.7999 31.5301C37.7699 30.3501 36.7099 28.64 37.1599 27.72C37.8899 26.25 41.0099 25.0701 42.4599 24.4401C44.7599 23.4401 47.2899 22.96 49.7699 22.68C51.5399 22.48 53.3499 22.4201 55.0999 22.7801C57.9699 23.3701 60.4699 25.04 62.8999 26.68C64.3399 27.65 65.7799 28.62 67.2199 29.6C67.9299 30.08 68.7299 30.58 69.5799 30.49C71.0499 30.33 71.7499 28.53 71.6299 27.06C71.5099 25.59 70.9199 24.14 71.1299 22.68C74.9399 25.8 78.8099 28.8401 82.7499 31.7901C84.3299 32.9801 86.3199 33.9501 88.3199 34.0801C89.3199 34.1401 90.3399 33.99 91.1999 33.44C91.6899 33.13 92.9499 31.81 93.3799 32.8C93.4899 33.04 93.4799 33.3201 93.4599 33.5801C93.2899 35.9201 92.2899 37.9601 91.5299 40.1501C91.2699 40.9001 91.0099 41.7501 91.1399 42.5601C91.2299 43.1301 92.2799 44.0501 92.2899 44.3301C92.2099 40.0901 96.8399 38.04 98.2899 34.1C99.3199 31.3 99.5599 28.24 99.3199 25.26C99.2299 24.16 99.0799 23.04 99.2699 21.96C99.4599 20.87 100.06 19.78 101.07 19.33C101.33 19.22 101.63 19.13 101.75 18.88C101.86 18.66 101.79 18.39 101.71 18.15C100.78 15.54 98.4299 13.63 95.8699 12.57C93.3099 11.51 90.5099 11.19 87.7499 10.88C90.7899 9.27005 92.5799 5.60005 91.9699 2.21005C90.0499 4.42005 86.6199 4.17005 83.6899 4.01005C78.4499 3.73005 73.1699 4.35005 68.1499 5.85005C66.5299 6.33005 64.8499 6.91005 63.1899 6.57005C62.9699 6.53005 62.7399 6.46005 62.5899 6.29005C62.3699 6.05005 62.3699 5.69005 62.3899 5.37005C62.4399 4.38005 62.4799 3.39005 62.5299 2.39005C58.0099 1.61005 53.1599 3.13005 49.8999 6.35005C49.8099 3.27005 47.2599 0.440049 44.1999 0.0500488C45.1899 1.94005 45.3899 4.22005 44.7499 6.26005C43.1099 5.32005 40.7899 5.74005 39.0999 6.59005C37.4099 7.44005 36.0499 8.82005 34.7499 10.2C32.9899 12.06 31.2399 14 30.1799 16.33C29.6699 17.45 29.3299 18.64 29.0099 19.83C28.1699 22.99 27.4999 26.37 28.4699 29.5C29.0199 31.27 30.1499 32.6701 30.7599 34.3801C30.7899 34.4601 30.8199 34.54 30.8799 34.59C30.9599 34.66 31.0699 34.68 31.1799 34.69C32.2499 34.8 33.6499 34.6901 34.5999 35.2201C35.0199 35.4501 35.3499 35.88 35.5999 36.28C35.7399 36.51 35.8599 36.75 35.9199 37.01C35.9599 37.17 35.9499 37.34 35.9499 37.5C35.9499 37.67 35.9299 37.8401 36.0099 37.9901C36.1299 37.8501 36.2199 37.58 36.3199 37.41C36.4299 37.21 36.6799 36.33 36.7699 36.1H36.7499Z" fill="#100C0C" stroke="#010101" stroke-width="0.08" stroke-linecap="round" stroke-linejoin="round"/>
<path d="M32.9 35.8801C33.27 35.9401 33.75 36.0201 33.98 36.3501C34.1 36.5301 34.13 36.8201 33.88 36.9001C33.64 36.9701 33.34 36.7701 33.11 36.7201C32.37 36.5401 31.56 36.6301 30.88 36.9701C30.49 37.1701 30.15 37.4501 29.92 37.8301C29.66 38.2501 29.62 38.7301 29.34 39.1401C29.29 39.2101 29.23 39.2901 29.14 39.3101C28.92 39.3601 28.92 39.0401 28.94 38.9101C29.1 37.8801 29.73 36.9401 30.62 36.4001C31.28 36.0001 32.14 35.7701 32.92 35.9001L32.9 35.8801Z" fill="#7C5228" stroke="#7C5228" stroke-width="0.06" stroke-miterlimit="10"/>
<path d="M69.14 54.22C69.27 53.82 69.28 53.37 69.16 52.98C69.09 52.73 68.93 52.52 68.83 52.29C68.71 52.02 68.76 51.61 69.05 51.9C69.32 52.16 69.44 52.58 69.57 52.92C69.88 53.73 69.79 54.67 69.14 55.28C68.65 55.73 67.98 55.91 67.32 55.91C66.63 55.91 65.97 55.67 65.3 55.73C64.63 55.79 63.98 55.9 63.32 55.97C63.05 56 62.78 56 62.51 55.97C61.99 55.93 61.47 55.8 60.98 55.63C60.67 55.52 60.33 55.46 60.01 55.38C59.38 55.21 58.96 55.07 58.32 54.99C57.68 54.91 57.06 54.76 56.6 54.31C56.16 53.88 55.94 53.25 55.96 52.62C55.96 52.16 56.08 51.65 56.3 51.24C56.41 51.04 56.56 50.84 56.77 50.77C57.1 50.66 57.25 50.8 56.97 51.06C56.81 51.21 56.69 51.37 56.6 51.57C56.45 51.92 56.4 52.3 56.38 52.68C56.36 53.02 56.36 53.39 56.56 53.66C56.85 54.04 57.4 54.04 57.86 53.97C58.67 53.84 59.31 53.96 60.04 54.35C60.72 54.72 61.23 55.41 62.01 55.54C62.66 55.65 63.52 55.79 64.1 55.37C64.49 55.08 64.79 54.88 65.28 54.78C65.83 54.67 66.41 54.65 66.95 54.82C67.54 55 68.16 55.32 68.7 54.87C68.91 54.7 69.05 54.46 69.14 54.2V54.22Z" fill="#7B5227" stroke="#7B5227" stroke-width="0.1" stroke-linecap="round" stroke-linejoin="round"/>
<path d="M61.27 42.83C61.1 43.98 60.74 45.11 60.22 46.16C60.02 46.57 59.57 46.59 59.78 46.05C59.94 45.63 60.16 45.24 60.29 44.8C60.82 43.02 60.88 41.21 60.43 39.41C60.24 38.64 59.83 37.91 59.5 37.17C59.41 36.96 59.27 36.68 59.56 36.56C60.41 36.2 61.01 38.67 61.12 39.13C61.41 40.34 61.44 41.6 61.26 42.83H61.27Z" fill="#7C5228"/>
<path d="M65.92 51.73C65.92 51.73 65.9 51.8 65.86 51.84C65.79 51.92 65.65 51.94 65.54 51.91C65.36 51.87 65.25 51.68 65.12 51.57C64.98 51.45 64.83 51.34 64.66 51.24C64.35 51.05 64 50.91 63.64 50.83C62.92 50.66 62.15 50.69 61.46 50.91C61.2 50.99 60.96 51.11 60.75 51.26C60.56 51.39 60.4 51.57 60.21 51.7C60.1 51.77 59.96 51.81 59.83 51.78C59.7 51.75 59.6 51.61 59.63 51.5C59.68 51.32 60.07 51.15 60.23 51.06C60.49 50.91 60.77 50.78 61.06 50.67C61.62 50.46 62.23 50.33 62.84 50.34C63.51 50.35 64.15 50.58 64.74 50.87C64.94 50.97 65.95 51.4 65.91 51.74L65.92 51.73Z" fill="#7B5227" stroke="#7B5227" stroke-width="0.1" stroke-linecap="round" stroke-linejoin="round"/>
<path d="M95.3 42.25C94.93 42.24 94.44 42.21 94.15 42.49C94 42.64 93.91 42.92 94.15 43.05C94.37 43.17 94.71 43.04 94.94 43.03C95.7 43 96.48 43.25 97.08 43.72C97.42 43.99 97.7 44.34 97.85 44.75C98.02 45.21 97.96 45.7 98.16 46.15C98.2 46.23 98.24 46.32 98.32 46.35C98.52 46.44 98.59 46.13 98.6 46C98.65 44.96 98.23 43.91 97.47 43.2C96.9 42.67 96.11 42.28 95.31 42.25H95.3Z" fill="#7C5228" stroke="#7C5228" stroke-width="0.06" stroke-miterlimit="10"/>
<path d="M77.4199 33.09C78.4799 33.21 79.5299 33.4 80.5599 33.67C82.3399 34.13 84.2499 34.77 85.5699 35.88C85.8199 36.09 86.0599 36.29 86.2899 36.51C86.6999 36.91 87.0299 37.36 87.3899 37.79C87.5899 38.04 88.1299 38.85 87.3899 38.86C87.1599 38.86 86.9699 38.69 86.7999 38.58C86.6699 38.49 86.5699 38.38 86.4299 38.3C86.2999 38.22 86.1499 38.14 86.0099 38.08C85.6599 37.91 85.3199 37.74 84.9599 37.58C84.6299 37.43 84.2699 37.32 83.9199 37.2C83.6999 37.12 83.4699 37.05 83.2399 36.98C81.9799 36.61 80.6799 36.38 79.3699 36.22C78.0899 36.06 76.7899 36.03 75.4999 35.96C74.7899 35.93 74.0199 35.96 73.3499 35.73C72.6599 35.51 72.1899 35.04 72.2299 34.46C72.2699 33.96 72.6099 33.48 73.1799 33.24C73.7299 33.01 74.3799 32.93 75.0099 32.93C75.8199 32.92 76.6099 32.99 77.4199 33.08V33.09Z" fill="#100C0C" stroke="#100C0C" stroke-width="0.09" stroke-miterlimit="10"/>
<path d="M85.4099 44.34C83.8899 43.84 82.6499 42.78 81.2699 42.02C79.8899 41.26 78.4299 40.78 76.8899 40.63C75.6599 40.51 74.4299 40.89 73.3499 41.49C72.7199 41.84 72.0999 42.3 71.5499 42.77C71.0999 43.15 70.2199 43.17 70.1499 43.91C70.5699 44.12 71.0899 44.17 71.5599 44.18C73.6099 44.22 75.6599 44.41 77.6799 44.74C79.0299 44.96 80.4099 45.24 81.7499 44.98C82.9199 44.75 84.2699 43.97 85.3999 44.34H85.4099Z" fill="white"/>
<path d="M76.2399 44.5501C77.6799 44.7701 79.1199 45.0801 80.1899 43.9201C80.5899 43.4901 81.1999 42.1601 80.7299 41.6401C80.4099 41.2801 79.4499 41.1101 78.9799 40.9801C78.2999 40.8001 77.5999 40.6801 76.8999 40.6501C76.3299 40.6301 75.7399 40.6701 75.1999 40.8201C74.9499 40.8901 73.9299 41.2001 73.9099 41.5001C73.3999 41.9801 73.4899 42.7001 73.7999 43.2801C74.2699 44.1701 75.2699 44.4001 76.2499 44.5501H76.2399Z" fill="#100C0C" stroke="#100C0C" stroke-width="0.1" stroke-miterlimit="10"/>
<path d="M86.1399 42.7801C84.6299 41.8701 83.0999 40.9601 81.4399 40.2601C79.7799 39.5601 77.9599 39.0701 76.1299 39.0601C74.2999 39.0501 72.4299 39.5301 71.1299 40.5801C72.1899 39.3401 73.9799 38.4801 75.8299 38.4401C78.0199 38.3901 80.0799 39.3101 82.0199 40.2101C83.5399 40.9201 85.0399 41.6501 86.1399 42.7801Z" fill="#7C5228" stroke="#7C5228" stroke-width="0.14" stroke-linecap="round" stroke-linejoin="round"/>
<path d="M76.4999 42.86C76.8313 42.86 77.0999 42.5914 77.0999 42.26C77.0999 41.9287 76.8313 41.66 76.4999 41.66C76.1685 41.66 75.8999 41.9287 75.8999 42.26C75.8999 42.5914 76.1685 42.86 76.4999 42.86Z" fill="#7C5228" stroke="#7C5228" stroke-width="0.09" stroke-linecap="round" stroke-linejoin="round"/>
<path d="M71.77 43.8C71.78 43.51 71.6 43.1101 71.44 43.0001C71.21 42.8401 71.07 42.9601 70.85 43.0901C70.75 43.1501 69.87 43.7001 70.15 43.8401C70.42 43.9701 70.76 44.0701 71.06 44.0801C71.15 44.0801 71.61 44.1 71.67 44.05C71.74 43.99 71.77 43.9 71.77 43.8V43.8Z" fill="#7C5228"/>
<path d="M83.1999 43.35C83.1099 43.38 83.0299 43.44 82.9599 43.55C82.8599 43.7 82.8399 43.89 82.8299 44.07C82.7499 44.84 83.3799 44.42 83.8299 44.31C84.3499 44.18 84.8999 44.11 85.4199 44.28C84.9699 44.13 84.5399 43.93 84.1199 43.7C83.8599 43.56 83.4999 43.26 83.2099 43.35H83.1999Z" fill="#7C5228"/>
<path d="M85.4099 44.34C83.8899 43.84 82.6499 42.78 81.2699 42.02C79.8899 41.26 78.4299 40.78 76.8899 40.63C75.6599 40.51 74.4299 40.89 73.3499 41.49C72.7199 41.84 72.0999 42.3 71.5499 42.77C71.0999 43.15 70.2199 43.17 70.1499 43.91C70.5699 44.12 71.0899 44.17 71.5599 44.18C73.6099 44.22 75.6599 44.41 77.6799 44.74C79.0299 44.96 80.4099 45.24 81.7499 44.98C82.9199 44.75 84.2699 43.97 85.3999 44.34H85.4099Z" stroke="#100C0C" stroke-width="0.4" stroke-linecap="round" stroke-linejoin="round"/>
<path d="M73.6899 41.2701C74.1699 40.9801 74.6999 40.7601 75.2399 40.6101C75.7599 40.4701 76.4699 40.3801 76.9999 40.4501C78.8099 40.7001 80.4699 41.7001 81.7299 43.0001C82.2599 43.5501 82.7899 44.1501 83.4599 44.5501C83.8299 44.7701 84.2599 44.9101 84.6799 44.8601C84.1799 44.5201 83.6999 44.1601 83.2399 43.7701C82.7799 43.3801 82.4299 42.9601 81.9999 42.5701C80.9699 41.6501 79.6099 41.2201 78.3199 40.7901" stroke="#100C0C" stroke-width="0.4" stroke-linecap="round" stroke-linejoin="round"/>
<path d="M51.42 30.81C50.36 30.74 49.29 30.75 48.23 30.83C46.4 30.97 44.41 31.27 42.91 32.14C42.63 32.3 42.35 32.46 42.1 32.64C41.63 32.97 41.22 33.34 40.8 33.71C40.56 33.92 39.89 34.62 40.61 34.77C40.84 34.82 41.05 34.67 41.24 34.6C41.39 34.54 41.51 34.44 41.66 34.38C41.8 34.32 41.97 34.27 42.11 34.23C42.48 34.12 42.85 34.02 43.23 33.92C43.58 33.83 43.96 33.79 44.32 33.73C44.55 33.69 44.79 33.66 45.03 33.64C46.33 33.5 47.66 33.5 48.97 33.56C50.26 33.62 51.54 33.82 52.82 33.98C53.53 34.07 54.27 34.23 54.98 34.13C55.7 34.03 56.25 33.65 56.3 33.07C56.35 32.57 56.09 32.04 55.58 31.71C55.07 31.39 54.45 31.2 53.83 31.08C53.03 30.93 52.24 30.87 51.43 30.81H51.42Z" fill="#100C0C" stroke="#100C0C" stroke-width="0.09" stroke-miterlimit="10"/>
<path d="M41.6 40.51C43.19 40.28 44.59 39.45 46.08 38.94C47.57 38.43 49.1 38.21 50.64 38.33C51.87 38.43 53.02 39.01 53.98 39.79C54.54 40.25 55.07 40.81 55.53 41.36C55.91 41.81 56.77 41.99 56.71 42.72C56.26 42.85 55.74 42.81 55.28 42.74C53.25 42.43 51.2 42.25 49.15 42.23C47.78 42.21 46.37 42.25 45.1 41.76C43.99 41.33 42.79 40.33 41.61 40.5L41.6 40.51Z" fill="white"/>
<path d="M50.59 42.3C49.13 42.27 47.66 42.33 46.81 40.99C46.49 40.49 46.12 39.09 46.67 38.65C47.05 38.35 48.03 38.35 48.51 38.31C49.21 38.25 49.92 38.25 50.62 38.35C51.19 38.43 51.76 38.57 52.27 38.81C52.5 38.92 53.45 39.41 53.42 39.7C53.84 40.26 53.62 40.96 53.22 41.47C52.61 42.26 51.58 42.32 50.59 42.29V42.3Z" fill="#100C0C" stroke="#100C0C" stroke-width="0.1" stroke-miterlimit="10"/>
<path d="M41.1499 38.8401C42.7999 38.2001 44.4599 37.5701 46.2099 37.1701C47.9599 36.7701 49.8399 36.6001 51.6499 36.9101C53.4599 37.2201 55.2099 38.0201 56.3099 39.2701C55.4799 37.8701 53.8699 36.7101 52.0599 36.3501C49.9199 35.9201 47.7199 36.4701 45.6599 37.0201C44.0399 37.4601 42.4399 37.9201 41.1499 38.8401V38.8401Z" fill="#7C5228" stroke="#7C5228" stroke-width="0.14" stroke-linecap="round" stroke-linejoin="round"/>
<path d="M49.68 40.5101C50.0113 40.5101 50.28 40.2414 50.28 39.9101C50.28 39.5787 50.0113 39.3101 49.68 39.3101C49.3486 39.3101 49.08 39.5787 49.08 39.9101C49.08 40.2414 49.3486 40.5101 49.68 40.5101Z" fill="#7C5228" stroke="#7C5228" stroke-width="0.09" stroke-linecap="round" stroke-linejoin="round"/>
<path d="M55.1199 42.3501C55.1599 42.0601 55.4099 41.7001 55.5799 41.6201C55.8299 41.5001 55.9499 41.6501 56.1399 41.8101C56.2299 41.8901 56.9999 42.5801 56.6999 42.6701C56.4099 42.7601 56.0599 42.7901 55.7599 42.7501C55.6699 42.7401 55.2199 42.6801 55.1699 42.6201C55.1099 42.5501 55.0999 42.4601 55.1099 42.3501H55.1199Z" fill="#7C5228"/>
<path d="M43.94 39.9101C44.02 39.9501 44.09 40.0301 44.14 40.1501C44.21 40.3201 44.2 40.5101 44.18 40.6901C44.12 41.4601 43.57 40.9401 43.15 40.7501C42.66 40.5401 42.13 40.3601 41.59 40.4401C42.06 40.3701 42.52 40.2501 42.97 40.1001C43.25 40.0101 43.66 39.7701 43.93 39.9101H43.94Z" fill="#7C5228"/>
<path d="M41.6 40.51C43.19 40.28 44.59 39.45 46.08 38.94C47.57 38.43 49.1 38.21 50.64 38.33C51.87 38.43 53.02 39.01 53.98 39.79C54.54 40.25 55.07 40.81 55.53 41.36C55.91 41.81 56.77 41.99 56.71 42.72C56.26 42.85 55.74 42.81 55.28 42.74C53.25 42.43 51.2 42.25 49.15 42.23C47.78 42.21 46.37 42.25 45.1 41.76C43.99 41.33 42.79 40.33 41.61 40.5L41.6 40.51Z" stroke="#100C0C" stroke-width="0.4" stroke-linecap="round" stroke-linejoin="round"/>
<path d="M53.67 39.5201C53.24 39.1501 52.76 38.8401 52.25 38.6001C51.77 38.3701 51.08 38.1601 50.55 38.1401C48.72 38.0701 46.91 38.7701 45.45 39.8301C44.83 40.2801 44.21 40.7801 43.48 41.0501C43.08 41.2001 42.63 41.2601 42.22 41.1501C42.77 40.9101 43.31 40.6301 43.83 40.3201C44.35 40.0101 44.77 39.6601 45.26 39.3601C46.43 38.6301 47.85 38.4501 49.19 38.2501" stroke="#100C0C" stroke-width="0.4" stroke-linecap="round" stroke-linejoin="round"/>
<path d="M72.7699 62.32C72.8499 62.3 72.9099 62.28 72.9999 62.26C73.0899 62.24 73.1999 62.21 73.2799 62.26C73.9299 62.65 72.8899 63.38 72.6899 63.57C72.0599 64.14 71.5999 64.63 71.0499 65.15C70.2899 65.88 69.5699 66.72 68.6999 67.26C67.8299 67.8 67.0799 68.22 66.0899 68.4C64.0999 68.77 62.1299 68.68 60.1399 68.33C58.9199 68.12 57.8399 67.71 56.7999 67.14C55.7499 66.57 55.0399 65.74 54.1799 64.95C53.3199 64.16 52.5199 63.41 51.5599 62.67C51.3199 62.49 50.7499 62.16 51.1099 61.79C51.1999 61.69 51.3699 61.71 51.5099 61.74C52.3799 61.87 53.2199 62.1 54.1099 62.17C54.9999 62.23 55.7099 62.06 56.6399 61.91C57.5699 61.76 58.6199 61.48 59.6599 61.49C60.6999 61.5 61.6599 61.88 62.7599 61.87C63.8599 61.86 65.0699 61.75 66.1799 62.06C67.2899 62.37 68.4199 62.62 69.5699 62.71C70.2799 62.76 70.9499 62.67 71.6399 62.57C72.0199 62.52 72.3799 62.41 72.7599 62.33L72.7699 62.32Z" fill="#B35637" stroke="#7B5227" stroke-width="0.53" stroke-miterlimit="10" stroke-linecap="round"/>
<path d="M63.43 63.71C62.68 63.73 62 63.74 61.27 63.67C60.07 63.55 58.93 63.39 57.71 63.3C56.49 63.21 55.22 63.03 53.99 62.83C53.87 62.81 53.68 62.7 53.71 62.93C53.88 64.05 56.68 65.03 57.31 65.26C58.83 65.82 59.68 65.98 60.95 66.15C62.22 66.32 63.3 66.24 64.46 66.26C65.62 66.27 66.56 66.1 67.58 65.77C68.19 65.57 68.81 65.25 69.31 65.01C69.8 64.76 70.07 64.58 70.48 64.33C70.67 64.22 70.9 64.06 71.01 63.95C71.11 63.85 71.22 63.6 71.07 63.6C70.17 63.61 69.17 63.71 68.27 63.63C67.37 63.55 66.48 63.55 65.62 63.58C65.14 63.6 64.55 63.65 64.18 63.66C63.81 63.68 63.67 63.7 63.41 63.7L63.43 63.71Z" fill="#7B5227"/>
<path d="M69.0199 64.2401C69.0799 64.1401 69.2499 63.7401 69.2099 63.6901C69.1999 63.6701 69.1699 63.6701 69.1499 63.6601C68.7599 63.6301 68.3699 63.5601 67.9899 63.5501C67.1299 63.5301 66.2899 63.4801 65.4199 63.5101C64.5999 63.5501 63.7799 63.5901 62.9599 63.5901C62.3099 63.5901 61.6599 63.5401 61.0199 63.4301C60.1199 63.2701 59.1999 63.1701 58.2899 63.1001C57.8699 63.0701 57.4599 63.0601 57.0399 63.0401C56.2899 63.0001 55.5499 63.0101 54.8099 62.9701C54.7699 62.9701 54.7299 62.9701 54.6899 62.9901C54.6399 63.0201 54.6299 63.0901 54.6499 63.1501C54.6799 63.2901 54.7999 63.4001 54.9099 63.4901C55.4799 63.9501 56.1499 64.1801 56.8599 64.3901C58.7699 64.9501 60.8699 65.2501 62.8599 65.3801C63.9799 65.4501 65.0999 65.4601 66.2099 65.4001C67.2399 65.3401 68.4899 65.1701 69.0399 64.2401H69.0199Z" fill="#FFFAF7"/>
<path d="M2.57996 161.16H18.42C18.77 158.28 19.1 155.39 19.21 152.48C19.33 149.19 19.57 145.77 20.35 142.44C21.68 136.73 22.73 130.93 23.13 125.08C23.43 120.64 22.16 116.22 26.75 113.73C28.64 112.71 30.8 112.05 32.28 110.49C34.3 108.35 34.51 105.13 34.61 102.19C34.72 98.83 34.72 95.16 32.61 92.55C30.62 90.08 27.16 89.21 24 89.43C15.47 90.02 8.61996 97.35 5.87996 105.45C4.95996 108.16 4.64996 110.51 4.68996 113.31C4.72996 116.4 3.84996 119.59 3.61996 122.69C3.12996 129.32 3.41996 136.13 3.73996 142.65C4.03996 148.71 2.57996 154.96 2.58996 161.16H2.57996Z" fill="#A56D35"/>
<path d="M93.9399 133.52C95.2699 136.79 96.9399 139.93 98.9299 142.85C101.54 146.7 105.15 152.17 110.09 152.96C113.41 153.49 117.64 152.32 120.1 150.11C122.23 148.19 123.61 145.83 125.25 143.53C126.51 141.76 127.83 140.48 128.83 138.48C131.37 133.35 133.3 127.95 134.33 122.32C134.85 119.49 135.32 116.65 135.74 113.8C136.53 108.41 136.64 102.02 140.62 97.77C141.5 96.83 142.56 96.19 143.55 95.35C144.55 94.51 145.45 93.57 146.25 92.55C146.88 91.75 147.31 91.32 148.15 90.74C149.03 90.13 149.91 89.51 150.62 88.72C151.33 87.93 153.6 85.47 152.34 84.34C152.13 84.15 151.83 84.11 151.55 84.08C149.41 83.84 148.69 85.75 147.27 86.91C146.66 87.41 146.05 87.9 145.45 88.4C145.09 88.69 144.69 89.23 144.19 89.27C144.46 88.26 145.52 87.51 146.3 86.87C146.96 86.32 147.73 85.9 148.35 85.29C149.58 84.08 150.47 82.5 151.53 81.21C152.23 80.35 152.96 79.85 153.2 78.7C153.31 78.17 153.25 77.58 152.9 77.15C151.63 75.58 149.99 77.76 149.31 78.68C148.7 79.5 147.94 80.19 147.18 80.88C146.82 81.21 146.45 81.54 146.09 81.88C145.89 82.06 145.69 82.25 145.5 82.43C144.98 82.92 144.45 83.39 143.92 83.87C143.86 83.93 143.64 84.08 143.63 84.16C143.68 83.79 144.22 83.47 144.48 83.22C144.85 82.86 145.22 82.5 145.58 82.12C146.4 81.28 147.15 80.39 147.93 79.52C148.98 78.34 149.75 76.96 150.75 75.74C151.48 74.85 152.17 73.66 151.44 72.51C150.66 71.29 149.39 71.46 148.58 72.4C147.43 73.74 146.48 75.16 145.31 76.46C144.36 77.52 143.69 78.71 142.54 79.64C141.97 80.1 141.52 80.68 140.96 81.15C140.29 81.72 138.95 82.3 139.41 80.95C139.64 80.28 140.1 79.65 140.5 79.07C141.25 78 142.11 76.99 142.75 75.86C143.26 74.96 143.69 74.01 144.3 73.17C144.81 72.47 145.17 71.68 145.05 70.79C144.98 70.23 144.65 69.67 144.13 69.41C141.61 68.14 139.89 73.37 138.96 74.71C137.2 77.22 134.79 79.18 132.66 81.38C132.02 82.04 130.61 84.44 129.71 84.58C127.23 84.98 128.82 80.25 129.11 79.14C129.5 77.64 130.09 75.96 128.14 75.24C126.03 74.46 126.34 75.99 125.66 77.22C124.83 78.74 124.14 79.85 123.96 81.6C123.83 82.83 123.33 83.84 123.05 85.02C122.66 86.71 122.63 88.48 122.89 90.19C123.13 91.82 123.13 93.59 123.64 95.17C125.2 99.97 123.67 105.57 121.27 109.78C118.85 114.02 116.92 118.53 115.3 123.13C114.91 124.24 114.57 125.36 114.18 126.46C113.84 127.42 113.41 127.61 112.92 126.65C112.36 125.54 112.63 124.19 112.31 123.03C111.52 120.2 110.37 117.47 109.23 114.76C108.37 112.7 107.37 110.43 105.51 109C103.67 107.58 102.16 108.49 99.9599 108.56C96.7099 108.67 91.3399 109.49 90.6499 113.15C89.2699 118.51 90.7699 123.49 92.2699 128.61C92.7499 130.27 93.3199 131.91 93.9799 133.51L93.9399 133.52Z" fill="#A56D35"/>
<path d="M1.58995 121.01C6.60995 123.26 11.2399 125.16 16.3999 127.63C17.8499 128.32 22.9799 130.83 24.0699 128.41C25.6999 124.78 25.9999 121.28 27.5999 117.75C27.5099 117.95 27.4899 118.15 27.4599 118.35C26.2099 125.56 25.9299 132.85 25.2899 140.13C24.6699 147.16 23.6999 154.14 22.8099 161.16H84.9299C84.6799 157.35 84.7799 153.51 84.9899 149.68C85.3499 140.97 86.6099 132.28 87.7999 123.65C87.7099 126.26 90.0899 129.19 91.0199 131.59C92.1499 134.48 98.1099 131.29 100.08 130.57C103.72 129.24 107.23 127.59 110.52 125.55C111.23 125.11 111.85 124.59 112.68 124.29C113.07 124.15 113.49 124.09 113.9 124.07C114.11 124.06 114.32 124.05 114.53 124.05C114.65 124.05 114.92 124.13 114.97 124C115.06 123.73 115.18 123.45 115.25 123.18C115.29 123.02 115.23 122.87 115.19 122.71C115.1 122.34 115 121.98 114.9 121.62C114.58 120.47 114.28 119.29 113.85 118.18C112.91 115.72 112.41 113.11 111.95 110.52C111.35 107.08 110.81 103.6 109.44 100.39C107.49 95.8201 104.15 93.5401 99.8299 91.5101C97.5599 90.4401 95.2899 89.2101 92.9999 88.1301C90.7399 87.0701 88.2299 85.8601 85.7099 85.6301C84.9499 85.5601 84.1499 85.5501 83.3899 85.6701C82.6699 85.7901 82.2299 86.3001 81.6099 86.6801C79.7699 87.7901 78.45 89.2901 76.66 90.4301C70.75 94.1901 64.89 96.6601 57.77 95.8501C50.65 95.0401 45.7299 91.2101 41.07 86.1201C39.78 84.7101 38.9399 82.8901 37.4799 81.9101C36.0199 80.9301 35.4399 81.2001 33.9399 81.5401C33.7399 81.5801 33.58 81.7001 33.38 81.7701C31.72 82.3201 29.9299 82.2101 28.2299 82.3701C24.9799 82.6901 21.7299 82.6301 18.6699 83.8701C14.2499 85.6701 10.7699 88.5201 8.05995 92.4101C5.58995 95.9601 4.69995 100.01 3.40995 104.03C1.98995 108.47 1.21995 113.01 0.179949 117.54C0.0299486 118.21 -0.120051 118.86 0.119949 119.56C0.359949 120.26 0.899949 120.71 1.57995 121.02L1.58995 121.01Z" fill="#AB1F23"/>
<path d="M259.8 4.5101C266.62 6.8801 272.12 12.4601 274.98 19.0901C275.78 20.9401 276.38 22.8701 276.95 24.8001C277.89 27.9901 278.72 31.2301 279.1 34.5301C280.13 43.7001 277.61 52.7301 276.54 61.7701C276.27 64.0501 276.08 66.3501 276.07 68.6501C276.07 70.2201 276.84 72.8101 276.39 74.2601C275.67 76.5401 272.05 75.3901 270.3 75.9701C268.8 76.4701 266.79 77.5401 266.34 75.4201C265.98 73.6901 266.06 71.6301 265.51 70.0001C265.24 71.2101 265.27 72.5501 264.97 73.8001C264.75 74.6801 264.4 75.6101 263.62 76.0701C263.06 76.4001 262.37 76.4101 261.72 76.4301C260.41 76.4501 259.02 76.5101 257.9 77.1901C257.41 77.4901 256.94 77.9101 256.37 77.9501C256.05 77.9701 255.74 77.8701 255.44 77.7901C254.26 77.4901 252.99 77.8101 251.8 77.9601C250.51 78.1201 249.22 78.3001 247.94 78.4701C245.42 78.8201 242.91 79.1901 240.4 79.5301C236.09 80.1301 231.42 80.4401 227.08 79.9401C226.04 79.8201 224.95 79.6501 223.96 79.9901C222.78 80.3901 221.84 81.4901 220.59 81.5101C219.41 81.5201 218.43 80.4801 218.1 79.3501C217.77 78.2201 217.96 77.0001 218.14 75.8401C218 77.4301 217.74 79.1401 217.04 80.5801C216.88 80.9101 216.68 81.2401 216.37 81.4301C216.1 81.5901 215.78 81.6301 215.47 81.6601C215.02 81.7101 214.56 81.7501 214.11 81.7901C213.47 81.8501 212.79 81.8901 212.21 81.6101C211.9 81.4601 211.65 81.2401 211.43 80.9801C210.73 80.1501 210.35 78.9001 209.89 77.9301C209.29 76.6601 208.7 75.3901 208.13 74.1201C206.98 71.5701 205.89 68.9901 204.89 66.3701C202.9 61.1601 201.29 55.7901 200.39 50.2701C198.72 40.0201 199.69 29.0601 204.88 20.0701C210.07 11.0801 219.94 4.4701 230.31 4.8501C232.98 4.9501 235.45 5.5901 237.76 6.9501C239.25 7.8301 239.29 7.7501 240.76 6.7801C241.84 6.0701 242.97 5.4501 244.16 4.9501C249.08 2.8901 254.77 2.7701 259.8 4.5101V4.5101Z" fill="#0B0C14" stroke="#0B0C14" stroke-width="0.34" stroke-miterlimit="10"/>
<path d="M230.14 83.66C228.05 86.25 224.66 88.07 221.94 89.94C221.37 90.33 220.77 90.75 220.48 91.38C219.38 93.69 224.61 94.34 225.94 94.97C227.05 95.49 228.47 96.55 228.94 97.75C229.5 99.18 228.98 100.9 229.68 102.41C230.24 103.61 231.28 104.58 232.52 105.05C233.85 105.55 234.9 105.05 236.2 105.14C237.39 105.22 238.66 105.71 239.87 105.87C245.03 106.51 250.38 106.7 255.3 105.05C258.64 103.93 261.79 101.86 263.86 98.98C264.62 97.92 265.13 95.52 266.07 94.79C267.41 93.75 269.53 94.06 270.1 92.3C270.81 90.12 270.65 87.16 268.79 85.62C267.63 84.67 266.16 84.21 264.73 83.77C262.03 82.94 259.16 81.95 258.09 78.97C257.73 77.95 256.64 68.01 257.68 67.87C254 68.34 250.3 68.58 246.59 68.59C244.8 68.59 243 68.54 241.21 68.64C238.77 68.77 236.36 69.17 233.95 69.57C233.32 69.67 232.69 69.78 232.09 70.01C231.85 70.11 231.65 70.28 231.42 70.38C231.17 70.48 230.87 70.46 230.66 70.64C230.61 70.68 230.57 70.74 230.51 70.78C230.44 70.83 230.37 70.85 230.29 70.87C230.02 70.95 229.74 71.02 229.47 71.1C229.77 71.5 229.87 71.89 230.01 72.33C230.15 72.77 230.42 73.12 230.62 73.53C230.84 73.99 231.04 74.47 231.2 74.96C232.47 78.74 231.84 81.52 230.11 83.67L230.14 83.66Z" fill="#F7D5A7"/>
<path d="M257.81 68.24C255.76 70.51 253.62 72.69 251.32 74.67C250.24 75.6 249.12 76.49 247.87 77.12C244.83 78.66 241.08 78.51 238.11 76.73C237.24 76.21 236.44 75.56 235.6 74.99C233.77 73.75 231.74 72.89 229.81 71.85C229.79 71.84 229.77 71.83 229.75 71.82" fill="#B99F7C"/>
<path d="M212.36 41.5901C211.02 41.9001 209.72 42.7401 209.08 43.9501C208.04 45.9001 208.46 49.9801 209.39 51.9701C209.72 52.6701 210.21 53.2701 210.73 53.8301C212.42 55.6501 214.62 57.2101 217.01 57.1001C215.85 53.2801 215.65 49.1501 216.43 45.2501C217.07 42.0501 214.66 41.0501 212.36 41.5901Z" fill="#F7D5A7"/>
<path d="M269.83 36.94C271.19 37.15 272.55 37.88 273.29 39.04C274.48 40.9 274.38 45 273.61 47.06C273.34 47.79 272.89 48.42 272.42 49.02C270.88 50.97 268.8 52.7 266.41 52.77C267.27 48.87 267.15 44.74 266.07 40.91C265.18 37.77 267.51 36.59 269.84 36.95L269.83 36.94Z" fill="#F7D5A7"/>
<path d="M265.92 28.3601C265.71 34.0101 266.85 39.61 267.18 45.25C267.52 50.89 266.95 56.87 263.74 61.5201C262.98 62.6201 262.08 63.6301 261.18 64.6201C258.08 68.0401 254.87 71.3701 251.28 74.2601C250.2 75.1301 249.07 75.97 247.82 76.57C244.77 78.02 241.02 77.9001 238.07 76.2601C237.21 75.7801 236.41 75.1801 235.57 74.6501C233.75 73.5001 231.73 72.71 229.8 71.75C222.94 68.33 216.96 62.2 215.81 54.62C215.54 52.82 215.54 51 215.54 49.18C215.54 46.8201 215.54 44.4501 215.54 42.0901C215.54 39.9001 215.54 37.6701 214.93 35.5701C213.49 30.6301 215.8 25.13 219.33 21.38C224.51 15.88 232.09 12.7301 239.64 12.9401C240.89 12.9701 242.14 13.1001 243.38 13.2201C245.63 13.4401 247.89 13.6601 250.06 14.2701C251.76 14.7501 253.39 15.4701 255 16.2001C257.66 17.4101 260.34 18.7101 262.49 20.6901C264.64 22.6701 266.02 25.4201 265.91 28.3401L265.92 28.3601Z" fill="#F7D5A7"/>
<path d="M267.22 27.84C264.52 30.27 261.04 31.71 257.49 32.48C253.94 33.26 250.28 33.41 246.65 33.57C242.95 33.73 239.31 33.97 235.62 33.58C235.46 33.56 235.29 33.54 235.18 33.43C235.1 33.34 235.06 33.22 235.04 33.1C234.39 30.2 234.66 26.76 234.7 23.82C234.74 21.07 235.77 18.04 237.28 15.77C234.34 20.44 232.37 25.71 231.52 31.15C231.37 32.14 231.19 33.24 230.38 33.83C229.9 34.18 229.27 34.28 228.67 34.31C227.17 34.4 225.65 34.19 224.22 33.71C224.44 32.2 224.66 30.7 224.89 29.19C224.04 31.01 223.19 32.84 222.34 34.66C222.09 35.2 221.81 35.77 221.3 36.09C220.85 36.37 220.29 36.41 219.77 36.4C217.56 36.39 215.35 35.85 213.38 34.83C211.69 31.43 212.38 26.82 214.19 23.48C216 20.14 218.91 17.53 221.94 15.25C223.2 14.31 224.5 13.4 225.91 12.72C228.85 11.29 232.17 10.87 235.43 10.57C239.61 10.19 243.88 9.97999 247.97 10.93C251.19 11.68 254.2 13.12 257.17 14.59C259.85 15.92 262.57 17.34 264.63 19.52C266.69 21.7 267.95 24.92 267.23 27.83L267.22 27.84Z" fill="#0B0C14"/>
<path d="M213.12 42.7101C213.54 42.7101 213.96 42.8101 214.22 43.0601C214.47 43.2901 214.31 43.5101 213.99 43.4801C213.69 43.4501 213.39 43.4601 213.09 43.4801C212.41 43.5201 211.71 43.6801 211.23 44.2101C210.69 44.8101 210.58 45.6801 210.35 46.4201C210.32 46.5301 210.26 46.6501 210.15 46.6601C210.08 46.6601 210.01 46.6001 209.98 46.5301C209.95 46.4601 209.96 46.3801 209.96 46.3101C210 45.4801 210 44.8001 210.52 44.0901C210.96 43.5001 211.6 43.0501 212.3 42.8301C212.53 42.7601 212.82 42.7101 213.11 42.7201L213.12 42.7101Z" fill="#B99F7C" stroke="#B99F7C" stroke-width="0.08" stroke-miterlimit="10"/>
<path d="M269.16 38.1401C268.75 38.1701 268.33 38.3001 268.09 38.5701C267.86 38.8201 268.04 39.0301 268.35 38.9701C268.65 38.9201 268.94 38.9101 269.24 38.9001C269.92 38.8901 270.64 39.0001 271.15 39.4801C271.73 40.0301 271.91 40.9001 272.2 41.6101C272.24 41.7101 272.31 41.8301 272.42 41.8301C272.49 41.8301 272.56 41.7601 272.58 41.6901C272.6 41.6201 272.59 41.5401 272.58 41.4701C272.47 40.6501 272.42 39.9601 271.85 39.3001C271.37 38.7401 270.7 38.3401 269.98 38.1801C269.75 38.1301 269.46 38.1101 269.17 38.1301L269.16 38.1401Z" fill="#B99F7C" stroke="#B99F7C" stroke-width="0.08" stroke-miterlimit="10"/>
<path d="M251.27 61.4801C251.14 61.5001 251 61.5801 250.88 61.6401C250.06 62.0101 249.26 62.4001 248.44 62.7701C247.88 63.0301 247.35 63.3401 246.78 63.5901C246.46 63.7301 246.13 63.8601 245.79 63.9801C245.51 64.0801 245.24 64.2501 244.95 64.3601C244.31 64.6101 243.62 64.7501 242.93 64.7601C242.19 64.7601 241.45 64.8701 240.7 64.8701C239.96 64.8701 239.29 64.7701 238.56 64.6401C238.03 64.5501 237.5 64.4401 236.98 64.3101C236.54 64.2001 235.94 64.0901 235.57 63.8401C235.51 63.8001 235.47 63.7101 235.51 63.6501C235.54 63.6001 235.61 63.5801 235.68 63.5701C236.38 63.4301 237.07 63.2901 237.77 63.1501C238.42 63.0201 238.96 62.7301 239.58 62.5201C239.99 62.3901 240.43 62.3501 240.86 62.3901C241.21 62.4201 241.57 62.5001 241.91 62.4101C242.07 62.3701 242.21 62.2901 242.36 62.2301C243.24 61.8401 244.25 61.8501 245.23 61.8701C245.92 61.8801 246.61 61.9001 247.3 61.9101C247.95 61.9201 248.6 61.9901 249.24 61.8801C249.77 61.7901 250.3 61.7001 250.82 61.5901C250.89 61.5801 251.34 61.4801 251.26 61.4901L251.27 61.4801Z" fill="#DB9D95"/>
<path d="M234.72 63.8201C235.35 64.3001 235.99 64.7801 236.68 65.1901C238.14 66.0601 239.92 66.4001 241.63 66.5101C244.27 66.6901 246.87 65.4401 248.75 63.7401C249.07 63.4501 249.4 63.1501 249.67 62.8201C249.97 62.4501 250.24 62.1101 250.67 61.8401" fill="#DB9D95"/>
<path d="M234.72 63.8201C235.35 64.3001 235.99 64.7801 236.68 65.1901C238.14 66.0601 239.92 66.4001 241.63 66.5101C244.27 66.6901 246.87 65.4401 248.75 63.7401C249.07 63.4501 249.4 63.1501 249.67 62.8201C249.97 62.4501 250.24 62.1101 250.67 61.8401" stroke="#AE847F" stroke-width="0.36" stroke-miterlimit="10" stroke-linecap="round"/>
<path d="M251.81 61.1001C251.81 61.3501 251.02 61.9101 250.91 61.9701C249.97 62.4801 248.96 62.8801 247.97 63.3001C247.35 63.5601 246.74 63.7401 246.09 63.9101C243.78 64.5101 241.38 64.8801 238.99 64.7301C238.03 64.6701 237.12 64.4601 236.17 64.3001C235.28 64.1601 234.35 64.0401 233.54 63.6501C233.36 63.5601 233.13 63.3901 233.15 63.1901C233.63 63.1501 234.17 63.2601 234.66 63.3101C235.97 63.4301 237.12 63.0201 238.4 62.7301C239.17 62.5601 240.02 61.9901 240.8 61.9701C241.21 61.9701 241.6 62.1001 242.03 62.0501C242.65 61.9801 243.16 61.6801 243.78 61.6401C244.5 61.6001 245.22 61.6701 245.93 61.7301C247.78 61.8801 249.74 61.7601 251.46 61.0301C251.55 60.9901 251.66 60.9501 251.75 60.9901C251.8 61.0101 251.82 61.0401 251.82 61.0801L251.81 61.1001ZM249.47 62.1201V62.1001C249.44 62.0601 249.37 62.0601 249.31 62.0601C248.81 62.1001 248.3 62.1701 247.79 62.1901C247.33 62.2101 246.87 62.1501 246.41 62.1201C245.5 62.0601 244.53 61.9901 243.63 62.1201C243.01 62.2101 242.44 62.5801 241.82 62.6001C241.47 62.6101 241.16 62.4401 240.82 62.4501C240.51 62.4501 240.13 62.5701 239.83 62.6501C238.92 62.9101 238.09 63.3001 237.16 63.5101C236.88 63.5701 236.6 63.6101 236.32 63.6301C236.22 63.6301 235.85 63.5801 235.97 63.7901C236 63.8501 236.17 63.8901 236.23 63.9201C236.44 64.0001 236.66 63.9901 236.87 64.0401C237.12 64.1101 237.37 64.1301 237.62 64.1701C237.84 64.2101 238.03 64.1901 238.26 64.2001C238.85 64.2301 239.44 64.2301 240.04 64.2201C241.23 64.1901 242.41 64.0901 243.58 63.9201C244.45 63.7901 245.32 63.6201 246.18 63.4001C246.61 63.2901 247.04 63.1701 247.47 63.0401C247.82 62.9301 248.18 62.7901 248.49 62.6101C248.58 62.5601 249.4 62.2301 249.46 62.1001L249.47 62.1201Z" fill="#AE847F"/>
<path d="M232.03 37.15C231.21 37.21 230.16 36.92 229.56 36.79C228.41 36.54 227.46 36.38 226.27 36.58C225.17 36.77 224.08 37.15 223.06 37.53C222.3 37.81 221.45 38.1 220.76 38.54C220.6 38.64 218.89 40.13 218.85 39.43C218.85 39.28 219.17 39.04 219.27 38.95C219.91 38.39 220.53 37.76 221.26 37.31C222.88 36.36 224.71 35.83 226.56 35.59C227.83 35.43 229.12 35.23 230.4 35.3C230.96 35.33 231.63 35.37 232.14 35.64C232.94 36.07 233.12 37.07 232.02 37.16L232.03 37.15Z" fill="#0B0C14"/>
<path d="M243.58 55.39C243.44 55.41 243.27 55.41 243.21 55.26C243.15 55.11 243.25 55 243.34 54.88C243.82 54.27 244.49 54.16 245.14 53.89C246.5 53.33 245.68 52.09 245.22 51.16C244.53 49.74 243.86 48.42 243.56 46.85C243.17 44.78 243.37 42.83 244.12 40.84C244.28 40.42 245.31 38.01 245.95 38.42C246.39 38.7 245.51 39.54 245.35 39.83C244.99 40.47 244.68 41.15 244.48 41.86C243.89 44 243.9 46.09 244.52 48.22C244.88 49.44 245.5 50.48 246.08 51.59C246.36 52.13 246.67 52.66 246.57 53.29C246.5 53.73 246.22 53.96 245.87 54.19C245.53 54.42 245.39 54.62 245.02 54.87C244.65 55.12 244.05 55.34 243.56 55.41L243.58 55.39Z" fill="#B99F7C"/>
<path d="M238.38 42.31C238.41 42.63 238.42 42.9 238.42 43C238.47 44.21 238.58 45.49 238.34 46.69C238.31 46.84 238.07 47.62 237.86 47.14C237.77 46.93 237.89 46.39 237.9 46.15C237.91 45.77 237.93 45.39 237.94 45C237.96 44.23 237.96 43.47 237.84 42.71C237.77 42.25 237.71 41.8 237.51 41.39C237.4 41.17 237.4 40.99 237.65 40.88C238.22 40.64 238.34 42 238.37 42.31H238.38Z" fill="#B99F7C" stroke="#B99F7C" stroke-width="0.15" stroke-miterlimit="10"/>
<path d="M244.21 52.37C244.21 52.37 244.21 52.39 244.2 52.4C244.16 52.49 244.05 52.54 243.96 52.53C243.87 52.52 243.77 52.49 243.68 52.46C243.13 52.25 242.53 52.19 241.94 52.26C241.64 52.3 241.35 52.37 241.07 52.47C240.88 52.54 240.51 52.83 240.31 52.76C239.83 52.57 240.37 52.16 240.61 52.06C241.61 51.64 242.85 51.67 243.87 52C243.96 52.03 244.06 52.07 244.13 52.13C244.19 52.19 244.23 52.28 244.21 52.37Z" fill="#B99F7C"/>
<path d="M238 54.4C238.54 54.44 239.07 54.58 239.56 54.8C239.73 54.88 240.14 55 240.24 55.16C240.34 55.32 240.26 55.53 240.06 55.54C239.56 55.57 239.06 55.56 238.57 55.44C238.21 55.35 237.76 55.27 237.58 54.9C237.44 54.62 237.68 54.39 237.99 54.41L238 54.4Z" fill="#B99F7C"/>
<path d="M236.58 54.1601C236.58 53.7901 236.77 53.3201 237.01 53.1501C237.13 53.0701 237.29 53.0101 237.4 53.1401C237.51 53.2801 237.14 53.5601 237.1 53.7401C237.05 53.9701 237.13 54.0901 237.24 54.2601C237.34 54.4101 237.37 54.5501 237.15 54.6101C236.74 54.7201 236.58 54.4801 236.58 54.1701V54.1601Z" fill="#B99F7C" stroke="#B99F7C" stroke-width="0.15" stroke-miterlimit="10"/>
<path d="M248.84 36.09C249.66 36.01 250.64 35.53 251.21 35.31C252.3 34.87 253.2 34.54 254.41 34.53C255.53 34.53 256.66 34.72 257.74 34.91C258.54 35.05 259.43 35.19 260.18 35.5C260.35 35.57 262.3 36.74 262.21 36.04C262.19 35.89 261.83 35.71 261.71 35.64C260.99 35.19 260.26 34.69 259.46 34.37C257.7 33.72 255.81 33.51 253.94 33.59C252.66 33.65 251.36 33.68 250.11 33.98C249.56 34.11 248.91 34.26 248.46 34.62C247.75 35.18 247.75 36.2 248.84 36.09V36.09Z" fill="#0B0C14"/>
<path d="M258.67 40.3301C257.75 39.9401 256.82 39.5401 255.83 39.4301C253.99 39.2201 251.82 39.5101 250.42 40.8101C250 41.2001 249.68 41.6701 249.47 42.2001C249.4 42.3801 249.4 42.5901 249.33 42.7801C249.24 43.0201 249.11 43.2601 249.01 43.4901C248.94 43.6401 248.88 43.8401 249 43.9701C249.05 44.0301 249.13 44.0701 249.2 44.1101C249.65 44.3601 250.1 44.6501 250.59 44.8101C250.95 44.9401 251.31 45.0701 251.66 45.2201C252.22 45.4601 252.92 45.4401 253.5 45.3401C253.99 45.2501 254.48 45.1201 254.97 45.0201C255.75 44.8501 256.52 44.6101 257.18 44.1501C257.78 43.7401 258.35 43.2501 258.84 42.7301C259.2 42.3401 259.93 41.9101 259.87 41.3001C259.82 40.7601 259.08 40.5001 258.67 40.3301Z" fill="white"/>
<path d="M254.021 45.0737C255.694 44.9282 256.944 43.5971 256.814 42.1005C256.684 40.604 255.223 39.5087 253.55 39.6541C251.877 39.7996 250.627 41.1307 250.757 42.6273C250.887 44.1238 252.349 45.2191 254.021 45.0737Z" fill="#0B0C14" stroke="#100C0C" stroke-width="0.32" stroke-miterlimit="10"/>
<path d="M257.79 43.6301C257.47 43.8701 257.15 44.1101 256.81 44.3201C255.8 44.9401 254.63 45.2601 253.47 45.4701C253.08 45.5401 252.75 45.5501 252.36 45.5001C252 45.4501 251.63 45.3801 251.3 45.2301C250.79 45.0101 250.28 44.7601 249.78 44.5101C249.44 44.3401 248.95 44.1601 248.9 43.7301C248.88 43.5501 248.92 43.3601 248.98 43.2001C249.03 43.0601 249.14 42.9701 249.2 42.8301C249.29 42.6401 249.35 42.4301 249.44 42.2401C249.64 41.8501 249.89 41.4901 250.19 41.1801C251.65 39.6401 254.19 39.3401 256.21 39.5901C256.4 39.6101 256.59 39.6401 256.78 39.6801C257.9 39.9101 259.43 40.0301 260.17 41.0301C260.22 41.1001 260.21 41.2101 260.17 41.2801C260.13 41.3501 260.05 41.4201 259.99 41.4801C259.81 41.6601 259.66 41.8601 259.51 42.0501C259.22 42.4101 258.36 43.1701 258.27 43.2301C258.1 43.3501 257.97 43.5101 257.8 43.6301H257.79Z" stroke="#0B0C14" stroke-width="0.32" stroke-linecap="round" stroke-linejoin="round"/>
<path d="M256.05 39.5701C256.36 39.5701 256.67 39.5901 256.98 39.6101C257.48 39.6501 257.97 39.7101 258.46 39.7901C258.92 39.8701 259.41 39.9701 259.83 40.1901C260.13 40.3501 260.42 40.5301 260.71 40.7001C260.9 40.8101 261.08 40.8801 261.29 40.9201C261.2 41.0201 261.06 41.1001 260.94 41.1801C260.88 41.2301 260.81 41.2701 260.74 41.3101C260.63 41.3601 260.52 41.3801 260.41 41.4101C260.15 41.4801 259.91 41.6001 259.7 41.7601C259.64 41.8001 259.5 42.0501 259.57 41.9201C259.64 41.7901 259.79 41.5301 259.81 41.3201C259.83 41.0601 259.7 40.8101 259.51 40.6301C259.32 40.4501 259.08 40.3301 258.84 40.2301C258.15 39.9301 257.42 39.7101 256.67 39.5901" fill="#0B0C14"/>
<path d="M256.05 39.5701C256.36 39.5701 256.67 39.5901 256.98 39.6101C257.48 39.6501 257.97 39.7101 258.46 39.7901C258.92 39.8701 259.41 39.9701 259.83 40.1901C260.13 40.3501 260.42 40.5301 260.71 40.7001C260.9 40.8101 261.08 40.8801 261.29 40.9201C261.2 41.0201 261.06 41.1001 260.94 41.1801C260.88 41.2301 260.81 41.2701 260.74 41.3101C260.63 41.3601 260.52 41.3801 260.41 41.4101C260.15 41.4801 259.91 41.6001 259.7 41.7601C259.64 41.8001 259.5 42.0501 259.57 41.9201C259.64 41.7901 259.79 41.5301 259.81 41.3201C259.83 41.0601 259.7 40.8101 259.51 40.6301C259.32 40.4501 259.08 40.3301 258.84 40.2301C258.15 39.9301 257.42 39.7101 256.67 39.5901" stroke="#0B0C14" stroke-width="0.32" stroke-miterlimit="10" stroke-linecap="round"/>
<path d="M248.81 44.06C248.67 43.83 248.68 43.54 248.77 43.29C248.88 43.01 249.13 42.83 249.25 42.57C249.27 42.52 249.31 42.47 249.32 42.41C249.33 42.35 249.33 42.3 249.35 42.25C248.99 42.61 248.62 42.98 248.26 43.34C248.15 43.45 248.04 43.56 247.98 43.7C247.92 43.84 247.91 44.01 248.01 44.13C248.08 44.21 248.18 44.25 248.29 44.29C248.64 44.43 249 44.56 249.35 44.7C249.89 44.9 250.47 44.93 251 45.14C251.14 45.19 251.28 45.24 251.42 45.3" fill="#0B0C14"/>
<path d="M248.81 44.06C248.67 43.83 248.68 43.54 248.77 43.29C248.88 43.01 249.13 42.83 249.25 42.57C249.27 42.52 249.31 42.47 249.32 42.41C249.33 42.35 249.33 42.3 249.35 42.25C248.99 42.61 248.62 42.98 248.26 43.34C248.15 43.45 248.04 43.56 247.98 43.7C247.92 43.84 247.91 44.01 248.01 44.13C248.08 44.21 248.18 44.25 248.29 44.29C248.64 44.43 249 44.56 249.35 44.7C249.89 44.9 250.47 44.93 251 45.14C251.14 45.19 251.28 45.24 251.42 45.3" stroke="#0B0C14" stroke-width="0.32" stroke-miterlimit="10" stroke-linecap="round"/>
<path d="M252.9 42.7301C253.292 42.7301 253.61 42.4122 253.61 42.0201C253.61 41.6279 253.292 41.3101 252.9 41.3101C252.508 41.3101 252.19 41.6279 252.19 42.0201C252.19 42.4122 252.508 42.7301 252.9 42.7301Z" fill="#D7E7F2"/>
<path d="M249.22 39.95C251.19 38.89 253.26 37.81 255.55 37.87C256.18 37.89 256.81 37.99 257.44 38.11C258.34 38.28 259.23 38.47 260.13 38.68C258.46 37.75 256.45 37.39 254.51 37.62C252.57 37.85 250.62 38.65 249.23 39.94L249.22 39.95Z" fill="#B99F7C" stroke="#B99F7C" stroke-width="0.29" stroke-linecap="round" stroke-linejoin="round"/>
<path d="M222.73 43.4801C223.56 42.9301 224.41 42.3801 225.37 42.1001C227.15 41.5701 229.34 41.4801 230.94 42.5201C231.42 42.8301 231.81 43.2401 232.11 43.7301C232.21 43.9001 232.25 44.1001 232.35 44.2801C232.48 44.5001 232.65 44.7101 232.79 44.9301C232.88 45.0601 232.98 45.2501 232.88 45.4001C232.84 45.4701 232.77 45.5201 232.71 45.5701C232.31 45.9001 231.92 46.2501 231.47 46.5001C231.14 46.6901 230.81 46.8801 230.49 47.0901C229.98 47.4201 229.29 47.5301 228.7 47.5201C228.2 47.5201 227.7 47.4801 227.2 47.4601C226.41 47.4301 225.6 47.3201 224.87 46.9901C224.2 46.6901 223.56 46.3101 222.99 45.8801C222.57 45.5601 221.78 45.2601 221.73 44.6501C221.68 44.1101 222.37 43.7301 222.74 43.4801H222.73Z" fill="white"/>
<path d="M228.143 47.3261C229.815 47.1789 231.064 45.8465 230.933 44.35C230.801 42.8536 229.338 41.7598 227.666 41.907C225.994 42.0543 224.744 43.3867 224.876 44.8831C225.008 46.3795 226.47 47.4733 228.143 47.3261Z" fill="#0B0C14" stroke="#100C0C" stroke-width="0.32" stroke-miterlimit="10"/>
<path d="M224.18 46.5701C224.54 46.7501 224.89 46.9401 225.27 47.0801C226.37 47.5201 227.58 47.63 228.76 47.64C229.16 47.64 229.48 47.5901 229.86 47.4701C230.21 47.3601 230.55 47.2301 230.86 47.0201C231.33 46.7101 231.78 46.38 232.23 46.05C232.53 45.82 232.99 45.57 232.96 45.12C232.95 44.94 232.88 44.7601 232.79 44.6101C232.72 44.4801 232.59 44.4101 232.5 44.2901C232.38 44.1201 232.29 43.9201 232.16 43.7501C231.9 43.4001 231.59 43.0901 231.24 42.8301C229.53 41.5601 226.98 41.7101 225.04 42.3101C224.86 42.3701 224.67 42.4201 224.49 42.5001C223.43 42.9201 221.94 43.3101 221.39 44.4101C221.35 44.4901 221.39 44.5901 221.44 44.6601C221.49 44.7301 221.58 44.7701 221.65 44.8201C221.86 44.9601 222.04 45.14 222.23 45.3C222.57 45.6 223.56 46.2001 223.65 46.2501C223.84 46.3401 224 46.4701 224.18 46.5601V46.5701Z" stroke="#0B0C14" stroke-width="0.32" stroke-linecap="round" stroke-linejoin="round"/>
<path d="M225.19 42.27C224.88 42.33 224.58 42.4 224.28 42.48C223.8 42.61 223.32 42.75 222.85 42.92C222.41 43.08 221.94 43.26 221.57 43.55C221.3 43.76 221.05 43.99 220.79 44.21C220.63 44.35 220.46 44.45 220.26 44.53C220.37 44.61 220.52 44.67 220.65 44.73C220.72 44.76 220.79 44.8 220.87 44.82C220.98 44.85 221.1 44.85 221.22 44.86C221.49 44.88 221.75 44.96 221.98 45.08C222.04 45.11 222.22 45.33 222.13 45.22C222.04 45.11 221.84 44.88 221.79 44.67C221.72 44.42 221.81 44.15 221.96 43.94C222.11 43.73 222.33 43.57 222.55 43.43C223.18 43.01 223.86 42.67 224.57 42.43" fill="#0B0C14"/>
<path d="M225.19 42.27C224.88 42.33 224.58 42.4 224.28 42.48C223.8 42.61 223.32 42.75 222.85 42.92C222.41 43.08 221.94 43.26 221.57 43.55C221.3 43.76 221.05 43.99 220.79 44.21C220.63 44.35 220.46 44.45 220.26 44.53C220.37 44.61 220.52 44.67 220.65 44.73C220.72 44.76 220.79 44.8 220.87 44.82C220.98 44.85 221.1 44.85 221.22 44.86C221.49 44.88 221.75 44.96 221.98 45.08C222.04 45.11 222.22 45.33 222.13 45.22C222.04 45.11 221.84 44.88 221.79 44.67C221.72 44.42 221.81 44.15 221.96 43.94C222.11 43.73 222.33 43.57 222.55 43.43C223.18 43.01 223.86 42.67 224.57 42.43" stroke="#0B0C14" stroke-width="0.32" stroke-miterlimit="10" stroke-linecap="round"/>
<path d="M233.1 45.44C233.2 45.19 233.14 44.9 233.01 44.67C232.86 44.41 232.58 44.28 232.42 44.05C232.39 44 232.35 43.96 232.32 43.91C232.29 43.86 232.29 43.8 232.26 43.75C232.68 44.04 233.1 44.34 233.53 44.63C233.66 44.72 233.79 44.81 233.87 44.93C233.95 45.05 233.99 45.22 233.92 45.35C233.87 45.44 233.77 45.5 233.68 45.56C233.35 45.75 233.03 45.95 232.7 46.14C232.21 46.43 231.64 46.56 231.15 46.86C231.02 46.94 230.89 47.01 230.77 47.09" fill="#0B0C14"/>
<path d="M233.1 45.44C233.2 45.19 233.14 44.9 233.01 44.67C232.86 44.41 232.58 44.28 232.42 44.05C232.39 44 232.35 43.96 232.32 43.91C232.29 43.86 232.29 43.8 232.26 43.75C232.68 44.04 233.1 44.34 233.53 44.63C233.66 44.72 233.79 44.81 233.87 44.93C233.95 45.05 233.99 45.22 233.92 45.35C233.87 45.44 233.77 45.5 233.68 45.56C233.35 45.75 233.03 45.95 232.7 46.14C232.21 46.43 231.64 46.56 231.15 46.86C231.02 46.94 230.89 47.01 230.77 47.09" stroke="#0B0C14" stroke-width="0.32" stroke-miterlimit="10" stroke-linecap="round"/>
<path d="M227.36 44.96C227.752 44.96 228.07 44.6422 228.07 44.25C228.07 43.8579 227.752 43.54 227.36 43.54C226.968 43.54 226.65 43.8579 226.65 44.25C226.65 44.6422 226.968 44.96 227.36 44.96Z" fill="#D7E7F2"/>
<path d="M231.98 41.46C229.85 40.76 227.63 40.06 225.39 40.51C224.77 40.64 224.17 40.85 223.57 41.07C222.71 41.39 221.87 41.73 221.02 42.1C222.5 40.89 224.42 40.19 226.38 40.08C228.34 39.97 230.39 40.42 231.98 41.45V41.46Z" fill="#B99F7C" stroke="#B99F7C" stroke-width="0.29" stroke-linecap="round" stroke-linejoin="round"/>
<path d="M251.97 60.6301C252.04 60.6101 252.11 60.5901 252.18 60.5801C252.27 60.5601 252.37 60.5301 252.46 60.5601C253.15 60.7801 251.98 61.6601 251.82 61.8201C251.31 62.2901 250.81 62.7701 250.34 63.2701C249.67 63.9801 249.08 64.7601 248.32 65.3701C247.68 65.8801 246.98 66.3501 246.21 66.6501C244.66 67.2401 242.86 67.5401 241.2 67.4401C240.18 67.3801 239.07 67.1501 238.14 66.7601C237.17 66.3501 236.44 65.7101 235.63 65.0801C234.83 64.4601 233.98 63.8801 233.1 63.3601C232.88 63.2301 232.23 62.9701 232.53 62.6001C232.61 62.5001 232.76 62.5001 232.88 62.5001C233.64 62.5201 234.42 62.5801 235.18 62.5501C235.88 62.5301 236.62 62.2101 237.28 61.9801C238.11 61.6801 238.97 61.3201 239.85 61.1901C240.73 61.0601 241.67 61.3401 242.59 61.1401C243.67 60.9101 244.57 60.5801 245.7 60.8101C246.75 61.0301 247.84 61.1001 248.91 61.1101C249.58 61.1101 250.24 61.0201 250.9 60.8901C251.26 60.8201 251.62 60.7301 251.97 60.6401V60.6301Z" fill="#DB9D95" stroke="#AE847F" stroke-width="0.35" stroke-miterlimit="10" stroke-linecap="round"/>
<path d="M243.48 62.8C242.84 62.91 242.19 63.01 241.53 63.02C240.45 63.05 239.35 63.04 238.28 63.13C237.21 63.22 236.04 63.26 234.92 63.21C234.81 63.21 234.68 63.21 234.64 63.31C234.44 63.79 238 64.93 238.44 65.03C239.49 65.27 240.57 65.36 241.64 65.32C242.46 65.29 243.28 65.2 244.09 65.04C245.67 64.74 247.38 64.34 248.68 63.27C249.01 63 249.36 62.74 249.7 62.49C249.79 62.43 250.54 62.02 250.34 61.91C250.3 61.89 250.25 61.89 250.2 61.9C249.4 62 248.6 62.1 247.79 62.12C246.98 62.14 246.21 62.26 245.43 62.4C244.99 62.48 244.56 62.57 244.13 62.65C243.91 62.69 243.68 62.74 243.46 62.78L243.48 62.8Z" fill="#AE847F"/>
<path d="M236.94 63.2201C236.75 63.2201 236.32 63.2201 236.28 63.4201C236.26 63.5301 236.43 63.7101 236.5 63.7801C236.83 64.2001 237.34 64.3201 237.86 64.3801C239.57 64.5901 241.39 64.5401 243.09 64.3501C244.05 64.2401 245 64.0801 245.93 63.8501C246.74 63.6501 247.97 63.4801 248.56 62.8901C248.65 62.8001 248.72 62.6901 248.76 62.5701C248.79 62.4701 248.84 62.2401 248.75 62.1601C248.58 62.1001 248.33 62.1301 248.15 62.1301C247.94 62.1301 247.73 62.1401 247.52 62.1601C247.1 62.1901 246.69 62.2301 246.27 62.2701C245.03 62.3701 243.82 62.7001 242.58 62.8201C242.13 62.8601 241.69 62.8801 241.24 62.8801C240.23 62.8801 239.23 62.9601 238.23 63.0801C237.82 63.1301 237.4 63.2001 236.99 63.2201C236.98 63.2201 236.96 63.2201 236.94 63.2201Z" fill="#FFFAF7"/>
<path d="M219.51 128C218.26 129.66 212.98 127.34 211.65 126.98C209.25 126.03 206.46 125.59 203.95 124.94C202.99 124.69 202.12 124.29 201.16 124.03C200.47 123.84 199.78 123.7 199.08 123.57C198.46 123.46 198 123.28 197.42 123.07C197.08 122.94 196.73 122.82 196.44 122.6C196.01 122.29 195.73 121.85 196.03 121.37C196.3 120.93 196.79 120.64 197.25 120.43C197.84 120.16 198.48 120.01 199.1 119.86C200.28 119.58 201.49 119.56 202.69 119.69C205.13 119.96 207.46 120.82 209.88 121.21C211.91 121.54 213.95 122.18 215.79 123.09C216.76 123.57 217.72 124.15 218.47 124.94C219 125.49 219.96 126.86 219.69 127.65C219.65 127.78 219.58 127.9 219.51 128V128Z" fill="#468FC3"/>
<path d="M215 135.44C214.12 138.03 212.99 140.58 211.41 142.72C209.75 144.96 208.83 148.64 206.48 150.26C203.83 152.09 200.25 153.09 197.19 151.73C195.15 150.82 193.64 149.06 192.28 147.29C187.26 140.77 183.95 133.03 182.18 125.02C181.36 121.29 181.01 117.46 180.27 113.74C179.44 109.58 179.87 105.52 178.02 101.54C177.08 99.51 175.53 98.13 174.32 96.31C173.27 94.73 172.49 93.07 171.11 91.71C170.5 91.11 165.39 85.45 168.9 85.51C170.46 85.54 171.42 87.26 172.28 88.31C172.74 88.87 173.26 89.32 173.75 89.88C174.04 90.21 174.34 90.62 174.77 90.78C174.52 89.86 173.78 89.06 173.18 88.42C172.45 87.64 171.62 86.86 171 86.01C170.26 84.99 169.71 83.82 169.01 82.77C168.44 81.92 167.91 81.31 167.71 80.32C167.62 79.86 167.7 79.27 168.06 78.98C169.39 77.93 170.42 79.6 171.11 80.48C171.8 81.36 172.39 81.92 173.03 82.68C173.34 83.04 173.63 83.4 173.85 83.69C174.07 83.98 174.16 84.11 174.31 84.32C174.72 84.88 175.08 85.34 175.52 85.87C175.57 85.93 175.71 86.05 175.73 86.16C175.61 85.74 175.35 85.54 175.08 85.18C174.81 84.83 174.54 84.42 174.29 84.02C173.71 83.12 173.13 82.23 172.47 81.36C171.57 80.19 170.71 79 169.97 77.7C169.43 76.75 168.87 75.68 169.55 74.67C170.23 73.66 171.2 73.85 171.96 74.73C173.05 75.98 173.78 77.45 174.96 78.61C176.21 79.84 177.47 81.2 178.48 82.64C178.66 82.89 179.04 83.84 179.36 83.21C179.6 82.73 178.51 81.77 178.29 81.42C177.76 80.59 176.89 79.92 176.29 79.12C175.53 78.11 174.55 77.14 174.14 75.91C173.8 74.87 173.86 73.24 175.3 73.38C175.62 73.41 175.93 73.55 176.21 73.72C178.39 74.97 179.57 77.29 181.29 79.03C182.38 80.14 183.38 81.33 184.26 82.61C185.03 83.73 185.97 84.66 186.78 85.76C187.13 86.24 187.55 86.75 188.13 86.83C189.55 87.01 188.22 83.29 188.14 82.56C188.02 81.27 187.84 78.87 189.35 78.23C190.7 77.66 191.34 79.87 191.69 80.69C192.29 82.09 192.89 83.46 193.08 85.02C193.21 86.12 193.57 87.28 193.74 88.4C193.98 90.02 193.84 91.7 193.58 93.29C193.31 94.88 192.97 96.34 192.55 97.87C191.25 102.53 191.85 106.47 193.78 110.74C195.07 113.61 196.1 116.6 196.85 119.65C197.43 122.03 197.97 124.34 198.39 126.76C197.99 124.47 198.98 121.65 199.19 119.31C199.4 116.97 199.54 114.33 201 112.37C202.72 110.07 205.18 110.08 207.8 109.9C210.56 109.71 212.95 110.72 215.4 111.9C218.65 113.46 218.31 116.36 218.15 119.42C217.94 123.42 217.29 127.4 216.24 131.26C215.87 132.63 215.46 134.03 214.99 135.43L215 135.44Z" fill="#F7D5A7"/>
<path d="M267.24 84.14C263.34 84.26 262.46 100.11 262.21 100.08C256.92 99.46 251.59 99.27 246.27 99.44C243.58 99.52 240.89 99.69 238.21 99.94C235.7 100.17 233 100.54 230.59 101.21C231.06 101.08 229.34 95.91 229.18 95.48C228.13 92.65 226.72 89.97 224.89 87.58C224.75 87.4 216.95 90.67 216.19 90.95C209.72 93.33 204.71 96.68 202.35 103.41C202.12 104.06 201.92 104.71 201.74 105.37C201.03 107.9 200.55 110.48 199.89 113.01C199.56 114.27 199.18 115.52 198.7 116.73C198.46 117.33 198.2 117.92 197.9 118.5C197.75 118.79 197.6 119.07 197.44 119.35C197.33 119.54 197.03 119.86 196.99 120.07C196.98 120.15 196.99 120.22 197.02 120.29C197.08 120.51 197.15 120.72 197.2 120.95C197.63 120.65 198.03 120.49 198.54 120.41C199.07 120.32 199.61 120.27 200.15 120.24C201.22 120.19 202.3 120.27 203.36 120.42C205.59 120.75 207.79 121.35 209.89 122.17C212.83 123.31 217.59 124.88 219.73 127.22C217.43 117.4 223.02 118.93 230.28 119.23C237.54 119.53 244.91 118.55 252.14 117.54C257.35 116.82 262.55 116 267.8 115.58C269.23 115.47 270.66 115.07 272.1 115.18C273.08 115.26 274 116.11 274.47 116.97C274.71 117.42 274.81 117.92 274.84 118.43C274.88 119.04 274.89 119.92 275.33 120.39C275.24 118.42 277.8 117.62 279.2 116.91C281.1 115.94 283.02 115.03 284.97 114.17C287.85 112.91 290.91 111.45 293.98 110.76C294.25 110.7 296.54 110.23 296.64 110.48C295.96 108.77 295.11 107.18 294.05 105.67C293.13 104.36 292.22 103.03 291.59 101.56C290.16 98.25 288.95 94.76 286.61 92.03C281.85 86.49 274.29 85.9 267.7 84.18C267.55 84.14 267.4 84.12 267.26 84.13L267.24 84.14Z" fill="#91BCDB"/>
<path d="M87.2499 85.11C86.5299 84.08 86.0599 82.61 84.5199 82.86C83.4099 83.04 82.5299 84.47 81.7699 85.22C79.1199 87.85 76.2799 90.34 73.0799 92.26C69.8699 94.18 66.2499 95.51 62.5199 95.69C57.3499 95.94 52.2499 93.94 48.0999 90.85C45.9599 89.26 44.0499 87.39 42.3299 85.36C41.4599 84.34 40.6499 83.29 39.8599 82.21C39.4399 81.63 38.4499 79.41 37.7299 79.34C36.8899 79.27 36.2199 79.73 35.5599 80.16C34.8999 80.59 34.1599 80.96 33.4599 81.35C33.2599 81.46 33.0199 81.65 33.0799 81.87C34.7299 81.99 35.4999 82.98 36.4099 84.22C37.2999 85.43 38.2299 86.61 39.2099 87.74C41.1199 89.94 43.2299 91.97 45.5599 93.72C50.0699 97.09 55.4899 99.39 61.1199 99.59C63.8999 99.69 66.6999 99.28 69.3399 98.38C73.1199 97.09 76.3299 94.62 79.2999 92.01C80.7799 90.71 82.1999 89.37 83.6699 88.05C84.9899 86.87 85.8699 85.72 87.7299 86C87.7299 85.6 87.4899 85.44 87.2599 85.1L87.2499 85.11Z" fill="#204C68"/>
<path d="M209.88 122.17C212.82 123.31 217.58 124.88 219.72 127.22C219.57 127.06 219.54 126.44 219.5 126.2C219.42 125.82 219.36 125.44 219.3 125.06C219.19 124.29 219.13 123.51 219.15 122.73C219.17 121.96 219.29 121.22 219.47 120.48C219.58 120.02 219.93 119.41 219.89 118.94C220.53 125.02 221.62 131.04 222.76 137.04C223.82 142.6 225.81 147.86 227.04 153.36C227.61 155.89 227.81 158.54 228.02 161.16H275.04C274.99 160.46 274.93 159.77 274.83 159.08C273.69 151.26 274.99 143.4 274.99 135.57C274.99 131.39 275.18 127.15 274.8 122.97C274.6 120.72 274.91 117.18 273.51 115.28C273.98 115.91 274.42 116.56 274.79 117.26C274.84 117.36 275.32 118.56 275.25 118.6C279.76 115.64 284.83 113.67 289.85 111.73C291.92 110.93 294.07 110.11 296.29 110.28C296.21 109.48 295.78 108.86 295.41 108.17C295 107.39 294.57 106.64 294.1 105.91C293.2 104.5 292.24 103.12 291.57 101.58C290.14 98.27 288.93 94.78 286.59 92.05C281.83 86.51 274.27 85.92 267.68 84.2C267.53 84.16 267.38 84.14 267.24 84.15C263.34 84.27 262.46 100.12 262.21 100.09C256.92 99.47 251.59 99.28 246.27 99.45C243.58 99.53 240.89 99.7 238.21 99.95C235.7 100.18 233 100.55 230.59 101.22C231.06 101.09 229.34 95.92 229.18 95.49C228.13 92.66 226.72 89.98 224.89 87.59C224.75 87.41 216.95 90.68 216.19 90.96C209.72 93.34 204.71 96.69 202.35 103.42C200.48 108.76 200.19 114.93 197.15 119.8C197.31 120.07 197.43 120.36 197.51 120.67C201.12 119.45 206.89 121.02 209.88 122.19V122.17Z" fill="#91BCDB"/>
</g>
<defs>
<clipPath id="clip0_102_280">
<rect width="296.63" height="161.16" fill="white"/>
</clipPath>
</defs>
</svg>
