<?xml version="1.0" encoding="UTF-8"?>
<svg id="b" data-name="Layer 2" xmlns="http://www.w3.org/2000/svg" viewBox="0 0 198.38 146.55">
  <g id="c" data-name="Layer 1">
    <g>
      <g id="d" data-name="Group 1724">
        <path id="e" data-name="Path 9601" d="m175.07,38.51c.61-4.66.83-9.36.67-14.06.11-2.52-.5-5.03-1.75-7.22-2.79-4.1-9.37-6.75-13.7-8.92-4.11-2.07-8.28-4.04-12.49-5.92" fill="none" stroke="#edf4f9" stroke-linecap="round" stroke-miterlimit="10" stroke-width="4.77"/>
        <path id="f" data-name="Path 9602" d="m173.34,22.37c.17-.6.85-.88,1.46-1.01.87-.22,1.79-.22,2.66-.01,1.22.36.95,1.38-.25,1.44l-1.94.1c-.65.03-1.73.26-2.02-.53-.46-1.26,1.38-1.98,2.16-2.44.55-.33,1.72-1.06,2.41-.66,1.02.59-.54,1.64-1.1,1.92-.79.57-1.79.78-2.75.59-1.55-.38-1.5-1.41-.79-2.64.59-1.04,1.55-1.82,2.7-2.18.4-.12.92-.14,1.15.21.26.4-.09.93-.46,1.24-1.11.89-2.49,1.38-3.92,1.39-1.21.03-1.25-1.09-.94-2.07.21-.65.57-1.25,1.03-1.75.46-.5,3.48-2.34,2.95-.63-.27.85-.82,1.57-1.56,2.07-.99.39-2.05.56-3.12.51-.15.03-.3.01-.43-.06-.12-.1-.2-.25-.21-.41,0-1.09.35-2.16,1.01-3.03.34-.68.91-1.21,1.61-1.5.32-.11.67-.09.97.07.3.18.43.54.32.87-.17.4-.56.36-.87.56-.4.27-.59.68-.9,1.01-.43.38-.88.72-1.36,1.03-.22.2-.5.34-.8.4-.49,0-.92-.32-1.06-.79-.31-1.21.01-2.5.86-3.41.6-.62,1.62-1.1,1.85.09" fill="none" stroke="#edf4f9" stroke-linecap="round" stroke-linejoin="round" stroke-width="2.39"/>
      </g>
      <g id="g" data-name="Rectangle 294">
        <path d="m188.17,142.2V35.25l8.42,1.97c0,.1.01.21.01.31v102.38c0,.1,0,.2-.02.31l-8.42,1.97Z" fill="#d52128"/>
        <path d="m189.95,37.49v102.46l4.88-1.14V38.64l-4.88-1.14m-3.55-4.48l11.39,2.67c.1.03.18.1.23.19.08.13.14.27.19.41.06.19.1.38.13.57.03.22.05.45.05.68v102.38c0,.23-.02.45-.05.68-.03.19-.07.39-.13.57-.04.14-.11.28-.19.41-.05.09-.13.15-.23.19l-11.39,2.67V33.02Z" fill="#d52128"/>
      </g>
      <path d="m186.11,143.24s-.03,0-.04,0l-65.9-2.06c-.15,0-.3-.04-.43-.11-.15-.07-.28-.18-.39-.3-.12-.14-.22-.29-.28-.47-.07-.18-.11-.38-.11-.58V37.72c0-.2.04-.39.11-.58.07-.17.16-.33.28-.46.11-.13.24-.23.39-.3.13-.07.28-.1.43-.11l65.9-2.06s.03,0,.04,0c.16,0,.31.03.46.09.16.07.3.16.42.28.13.13.23.28.3.45.07.18.11.38.11.57v106.24c0,.2-.04.4-.11.58-.07.17-.17.32-.29.45-.12.12-.26.22-.42.28-.15.06-.3.09-.46.09Z" fill="#bdd7ea"/>
      <path d="m186.11,35.4h0s0,0,0,0l-65.86,2.06s0,0,0,0c0,0,0,0,0,0-.02.03-.04.06-.06.1-.02.05-.03.1-.03.15v102.02c0,.05,0,.1.03.15.01.04.04.07.06.1,0,0,0,0,0,0l65.86,2.06s.01,0,.02,0c0,0,.02,0,.02-.01,0,0,0,0,0,0,.02-.02.03-.04.04-.06.02-.04.02-.08.02-.12h0V35.61h0s0-.09-.02-.13c-.01-.02-.02-.05-.04-.06h0s0-.01-.02-.02c0,0,0,0,0,0m0-2.39c.31,0,.62.06.91.18.3.13.58.31.81.55.24.24.42.52.55.83.13.33.2.68.2,1.03v106.23c0,.35-.07.71-.2,1.03-.13.31-.31.59-.55.83-.23.23-.51.42-.81.55-.32.13-.66.19-1,.18l-65.9-2.06c-.32-.01-.64-.09-.92-.23-.29-.14-.54-.34-.75-.57-.22-.25-.39-.53-.51-.83-.12-.32-.19-.66-.19-1V37.72c0-.34.06-.68.19-1,.12-.31.29-.59.51-.83.21-.24.47-.43.75-.57.29-.14.6-.22.92-.23l65.9-2.06s.06,0,.08,0Z" fill="#d52128"/>
      <path id="h" data-name="Rectangle 295" d="m167.34,113.63l2.04.03c.46,0,.91.11,1.32.3.41.19.77.45,1.08.78.31.33.56.72.73,1.15.18.45.27.92.27,1.4h0c0,.48-.09.95-.27,1.39-.17.42-.42.8-.73,1.12-.31.32-.67.57-1.08.75-.42.18-.87.27-1.32.26l-2.04-.04c-.45,0-.9-.11-1.31-.3-.4-.19-.77-.46-1.07-.78-.31-.33-.56-.72-.72-1.15-.17-.44-.26-.92-.26-1.39h0c0-.47.08-.94.26-1.38.17-.42.41-.8.72-1.12.3-.32.67-.57,1.07-.75.41-.18.86-.27,1.32-.26Z" fill="#1f3a1d"/>
      <g id="i" data-name="Group 1683">
        <path id="j" data-name="Path 8706" d="m169.13,133.89s.09,0,.13,0c.04,0,.07-.02.09-.05.02-.03.04-.06.05-.09,0-.05,0-.1,0-.14-.04,0-.07.02-.1.04-.03.02-.05.04-.07.07-.02.03-.04.06-.06.09-.01.03-.03.06-.05.1Z" fill="#d52128"/>
        <path id="k" data-name="Path 8707" d="m173.31,130.19s.08,0,.12-.02c.04-.01.07-.04.1-.06.03-.03.05-.06.07-.09.02-.04.04-.08.05-.13,0-.04-.02-.08-.03-.11-.01-.03-.03-.06-.06-.09-.02-.03-.05-.05-.09-.06-.04-.02-.07-.03-.11-.03-.04,0-.09,0-.13,0-.03.01-.06.03-.09.06-.02.03-.04.06-.05.09-.01.04-.02.08-.02.12,0,.04,0,.08,0,.12,0,.04.02.07.03.11.02.03.04.06.07.07.04.02.09.03.13.03Z" fill="#d52128"/>
        <path id="l" data-name="Path 8708" d="m170.98,131.6s-.08.03-.11.05c-.03.02-.07.04-.09.06-.03.02-.05.06-.07.09-.02.04-.03.08-.03.13,0,.02,0,.04,0,.06,0,.02.01.04.03.06.01.02.03.03.04.04.02,0,.04,0,.06,0,.04-.02.08-.04.11-.06.04-.02.08-.05.11-.07.03-.03.06-.06.09-.09.03-.04.05-.08.06-.12,0-.02,0-.04,0-.06-.01-.02-.03-.03-.05-.04-.02-.01-.05-.02-.07-.03l-.07-.02Z" fill="#d52128"/>
        <path id="m" data-name="Path 8709" d="m172.04,130.92s-.08.04-.1.08c-.02.03-.02.07-.02.11,0,.04.01.09.02.13.01.04.02.09.02.13.02-.03.05-.05.09-.06.03-.02.07-.03.1-.05.03-.01.06-.04.07-.06.02-.04.02-.08.01-.12,0-.02-.01-.04-.03-.06-.01-.02-.03-.04-.05-.06-.02-.02-.04-.03-.06-.04-.02,0-.04,0-.06,0Z" fill="#d52128"/>
        <path id="n" data-name="Path 8710" d="m147.58,104.95s.07.05.1.07c.03.02.07.05.11.07.04.02.07.04.11.05.04.02.08.03.13.03l.31.15c.1.05.21.1.32.14s.21.09.32.13.22.07.33.11c0,.02.02.03.03.04,0,.01.02.02.03.03.01.01.03.02.04.03.01,0,.03.01.05.01.14.03.28.07.42.11l.42.13c.14.05.28.09.42.13.14.04.29.06.43.08.32.03.64.02.95-.05.31-.06.62-.14.93-.22.3-.08.6-.15.9-.19.3-.04.61-.02.9.06.44.15.85.39,1.19.71.4.37.77.77,1.1,1.2.35.45.67.93.96,1.38s.56.88.78,1.23c.3.46.6.92.9,1.38s.61.93.9,1.39.59.94.86,1.42.55.96.8,1.46c.23.43.53.81.89,1.13.38.34.8.64,1.24.9.45.27.91.52,1.36.77s.89.47,1.27.71l10.42,6.45c.19.12.39.25.58.39.19.13.37.28.54.45.16.16.3.34.42.53.11.19.19.41.23.63.01.09.02.19.01.28,0,.09-.02.18-.04.27-.02.09-.04.17-.06.26s-.05.18-.07.27c-.02.09-.05.18-.08.27-.03.09-.07.17-.12.25-.05.08-.1.15-.17.22-.06.07-.14.13-.21.18-.06.04-.13.08-.2.11-.07.03-.14.05-.21.07-.07.02-.14.04-.22.06s-.15.03-.22.04-.14.03-.21.04l-.21.05c-.07.02-.14.04-.21.05s-.14.03-.21.04c-.16.03-.32.04-.47.06s-.32.03-.48.04l-.48.03c-.16.01-.32.03-.47.04-.32.04-.63.09-.95.17-.31.07-.62.17-.92.27-.6.22-1.18.5-1.72.84-.27.17-.52.37-.75.59-.23.22-.44.45-.65.69-.21.24-.4.49-.61.73s-.41.49-.63.72c-.2.2-.43.38-.68.52-.25.14-.52.26-.8.34-.28.09-.57.16-.86.21-.29.05-.57.09-.85.12-.6.06-1.21.07-1.81.03-.61-.04-1.22-.13-1.81-.27-.6-.14-1.19-.31-1.76-.53-.57-.21-1.13-.46-1.66-.75-.4-.21-.8-.44-1.18-.68-.38-.24-.76-.5-1.13-.77-.37-.27-.73-.55-1.08-.85-.35-.29-.7-.6-1.03-.9-.17-.16-.34-.33-.52-.49-.17-.17-.34-.33-.52-.5s-.34-.34-.5-.52-.33-.35-.5-.52c-.13-.14-.26-.3-.37-.45-.13-.17-.25-.34-.38-.52s-.26-.34-.38-.5c-.12-.14-.25-.28-.39-.39-.11-.1-.23-.18-.36-.25-.07-.04-.16-.03-.22.02-.09.08-.16.16-.22.26-.09.13-.21.28-.37.48-.13.15-.27.31-.41.45l-.41.44c-.14.14-.29.28-.44.42-.15.14-.3.27-.45.4-.32.27-.64.53-.98.77-.34.24-.68.47-1.03.68-.35.21-.71.41-1.09.58-.37.18-.75.33-1.13.47-.4.14-.8.27-1.2.38-.4.11-.81.2-1.22.28s-.82.14-1.23.19-.83.08-1.25.1c-.6.03-1.21.01-1.81-.03-.61-.05-1.22-.14-1.81-.27-.6-.13-1.19-.3-1.76-.51-.57-.21-1.13-.48-1.66-.78-.13-.08-.27-.16-.4-.24s-.26-.17-.39-.26c-.13-.09-.26-.19-.38-.29s-.24-.2-.35-.31-.21-.21-.31-.32-.19-.22-.29-.34-.19-.23-.28-.34-.19-.23-.29-.34c-.07-.08-.14-.15-.21-.23s-.13-.16-.2-.24l-.2-.24c-.07-.08-.13-.15-.21-.23l-.11-.12-.11-.13s-.06-.09-.1-.13-.06-.09-.09-.13c-.07-.12-.13-.25-.18-.39-.04-.13-.07-.27-.08-.4-.01-.14-.02-.28-.02-.42,0-.14,0-.28.02-.42,0-.12.03-.25.06-.37.03-.12.07-.24.1-.36.04-.12.07-.24.09-.36.02-.12.03-.24.02-.36-.09-.92-.16-1.84-.23-2.76-.06-.92-.11-1.84-.15-2.76s-.05-1.85-.03-2.77.05-1.84.12-2.76c.09-1.27.28-2.53.55-3.77.26-1.2.65-2.38,1.16-3.5.49-1.09,1.15-2.11,1.93-3.02.81-.93,1.78-1.71,2.86-2.31.33-.19.67-.35,1.03-.5.35-.15.71-.28,1.07-.39.72-.22,1.47-.36,2.22-.43.16-.01.32-.02.48-.01h.48c.16,0,.32.02.47,0,.16,0,.31-.02.47-.04.2-.03.4-.07.59-.11s.39-.09.59-.13.39-.09.59-.11c.2-.03.4-.05.6-.05.25,0,.5.01.74.05.25.04.49.1.72.18.24.08.46.19.68.31.22.13.42.29.59.46.19.19.35.4.48.62.14.23.25.47.34.72.09.25.17.51.23.77.06.26.11.53.15.79.02.11.02.23.03.35s.01.24.02.36c.01.12.03.24.06.35.03.11.08.21.14.31.06.08.13.15.21.21.09.07.18.13.28.18.1.06.19.11.29.17.08.04.16.09.24.14Z" fill="#d52128"/>
      </g>
      <path id="o" data-name="Path 8711" d="m173.5,132.16l.56-.13.56-.13c.19-.04.37-.09.56-.14s.37-.1.56-.16c.4-.13.79-.28,1.18-.45.4-.18.78-.39,1.15-.63.37-.23.72-.49,1.06-.77.33-.28.62-.58.89-.92-.22.14-.43.29-.65.43s-.44.28-.66.41-.45.25-.69.36c-.23.11-.47.2-.72.28-.25.08-.5.13-.76.17-.26.03-.52.05-.77.03-.26-.01-.51-.06-.76-.13-.25-.07-.49-.18-.71-.32-.1-.06-.2-.13-.3-.2s-.2-.14-.3-.21c-.1-.06-.2-.12-.31-.17-.11-.05-.22-.07-.34-.09-.16-.01-.33.01-.48.07-.15.07-.29.16-.42.27-.13.12-.25.25-.36.39-.11.14-.21.29-.31.44s-.22.32-.33.48-.23.31-.34.46-.23.31-.34.46-.23.31-.33.47c-.11.16-.23.3-.36.45-.13.15-.26.29-.39.45-.12.15-.22.31-.31.49-.08.18-.13.38-.13.58.17-.17.33-.32.49-.45.15-.13.31-.25.48-.36.16-.11.33-.21.52-.32s.38-.2.59-.31.4-.19.6-.27.41-.15.62-.21.42-.13.63-.18.42-.1.63-.15Z" fill="#dd4c52"/>
      <path id="p" data-name="Path 8712" d="m164.35,103.12l.19-.13.19-.13.2-.12c.07-.04.13-.08.2-.12.45-.26.92-.51,1.42-.75s1.01-.47,1.54-.66c.52-.19,1.05-.35,1.59-.46.52-.11,1.05-.16,1.59-.16.03,0,.06,0,.09,0,.03,0,.06,0,.09.01.03,0,.05.02.08.03.03.01.05.03.07.05.02.03.04.06.05.1,0,.04,0,.07,0,.11,0,.04-.02.07-.03.11-.02.03-.04.07-.06.09-.02.03-.05.05-.08.08-.03.02-.06.04-.09.06-.03.02-.07.03-.1.05l-.1.04c-.29.12-.56.27-.82.45-.26.18-.5.38-.72.6-.22.23-.43.47-.62.73-.19.26-.36.53-.52.81-.16.28-.3.57-.43.86s-.25.59-.36.89-.21.61-.31.92-.19.62-.29.93l-.21.68-.21.68-.21.69-.21.68c-.04.15-.1.29-.16.44-.06.13-.13.24-.21.35-.08.1-.19.18-.3.24-.14.07-.28.11-.43.12-.12.01-.24.02-.36.02s-.24,0-.36-.02-.24-.03-.36-.05-.24-.05-.35-.07c-.23-.06-.46-.14-.67-.24-.22-.1-.44-.2-.65-.32-.21-.12-.41-.25-.61-.39-.2-.14-.39-.28-.58-.44-.34-.28-.67-.57-.98-.88-.31-.31-.61-.63-.9-.98-.29-.34-.56-.69-.81-1.05-.26-.37-.5-.74-.71-1.13-.04-.07-.09-.14-.14-.22s-.11-.17-.16-.26c-.05-.08-.09-.18-.11-.27-.02-.09-.02-.18.02-.26.09-.16.23-.28.39-.34.21-.09.44-.15.67-.19.24-.05.49-.08.71-.1s.41-.04.53-.06c.3-.05.61-.09.92-.12l.92-.09c.31-.03.61-.08.92-.13.31-.05.61-.12.9-.22.09-.03.17-.06.26-.1s.17-.07.25-.11.16-.09.24-.13.15-.09.23-.13Z" fill="#d52128"/>
      <path id="q" data-name="Path 8713" d="m140.48,98.73c-.42-.02-.84-.03-1.26-.03s-.84.01-1.26.03-.83.05-1.24.1-.82.1-1.23.16c-.52.09-1.04.19-1.55.32-.51.13-1.02.28-1.52.46-.5.17-.99.37-1.48.59-.48.22-.96.46-1.42.72-.86.48-1.67,1.06-2.41,1.71-.73.65-1.39,1.37-1.96,2.16-.58.8-1.08,1.66-1.47,2.57-.41.94-.73,1.92-.95,2.93-.32,1.5-.42,3.04-.3,4.57.13,1.49.43,2.96.9,4.38.48,1.43,1.08,2.82,1.8,4.14.72,1.33,1.51,2.63,2.37,3.87.42.61.83.79,1.21.7.45-.17.82-.51,1.03-.95.3-.54.52-1.12.66-1.73.14-.53.18-1.09.13-1.63-.05-.34-.14-.67-.25-.99-.11-.32-.24-.63-.39-.94s-.29-.62-.44-.93-.29-.62-.41-.94c-.23-.58-.4-1.17-.53-1.78-.13-.61-.22-1.23-.27-1.85-.06-.62-.08-1.25-.09-1.88s0-1.26,0-1.88c0-.45,0-.98.05-1.53.03-.57.11-1.13.24-1.68.11-.52.32-1.01.6-1.46.27-.42.68-.73,1.15-.88.14-.04.28-.07.42-.1.14-.02.28-.04.42-.06s.29-.03.43-.04.29-.03.43-.05c.14-.02.28-.05.42-.1.14-.04.28-.09.41-.16.13-.06.25-.14.36-.24.11-.09.21-.2.29-.33.21-.29.29-.66.23-1.02-.08-.33-.22-.64-.42-.92-.2-.29-.38-.6-.54-.91-.16-.31-.2-.66-.13-1,.04-.27.24-.49.5-.57.28-.07.58-.06.86.01.32.07.63.17.94.29.29.11.55.21.72.26.08.02.17.04.26.06s.19.04.28.05c.09.01.19.02.28.02.09,0,.17,0,.26-.03.08-.02.15-.04.23-.07s.15-.05.23-.07c.08-.02.16-.03.24-.04.08,0,.16,0,.24.03.13.04.25.08.37.14.12.05.23.11.35.17s.23.12.35.17c.12.06.24.1.36.15l.45.15c.15.05.3.1.45.14s.31.08.46.11c.15.03.31.05.47.06.28.02.55.02.83,0,.28-.02.55-.05.83-.1.27-.05.54-.12.81-.2.27-.08.53-.18.78-.29.09-.04.19-.09.27-.14.09-.05.17-.11.25-.18.07-.07.14-.14.19-.23.1-.17.12-.38.06-.58-.03-.09-.08-.18-.14-.26-.06-.08-.13-.15-.21-.21-.08-.06-.17-.11-.26-.16-.09-.04-.18-.08-.27-.11-.09-.03-.18-.06-.28-.09s-.18-.06-.27-.09c-.09-.03-.18-.07-.26-.11-.09-.05-.18-.11-.26-.18-.07-.06-.12-.14-.16-.22-.04-.08-.07-.17-.09-.26-.02-.1-.04-.2-.05-.31,0-.09-.02-.18-.05-.27-.02-.07-.05-.13-.1-.19-.05-.05-.11-.09-.17-.12-.09-.03-.18-.05-.27-.06-.13-.02-.26-.03-.38-.04l-.39-.04-.39-.03-.38-.04Z" fill="#dd4c52"/>
      <path id="r" data-name="Path 8714" d="m163.12,108.43h.06s.06-.01.06-.01h.07s.04,0,.06,0c.06,0,.12,0,.18-.02.04-.01.07-.05.09-.08.01-.04.02-.09.01-.13,0-.06-.02-.11-.04-.17-.11-.31-.22-.62-.33-.93s-.23-.62-.34-.93-.24-.61-.37-.92-.26-.6-.41-.9c-.02-.03-.03-.07-.05-.11s-.03-.07-.05-.11c-.02-.03-.04-.07-.06-.09-.03-.03-.06-.05-.09-.07,0-.04,0-.09-.02-.13,0-.04-.02-.08-.04-.12-.02-.04-.04-.07-.06-.11-.02-.04-.05-.07-.08-.1h0l-.06-.1c-.19-.36-.38-.71-.58-1.06s-.42-.68-.65-1.01c-.23-.33-.47-.64-.73-.94-.26-.3-.54-.59-.83-.85-.08-.07-.16-.13-.24-.2s-.17-.12-.26-.18-.18-.11-.26-.17l-.26-.17s0-.07,0-.1c0-.03.02-.05.04-.07.02-.02.04-.04.07-.05.03-.01.07-.02.1-.02.06,0,.12,0,.19,0,.06.01.11.04.16.07.05.03.09.06.14.1.04.04.09.08.13.12l.36.32.36.32.36.32.36.32s.05.04.08.06c.02.02.05.03.07.03.02,0,.05,0,.08,0,.03,0,.05-.02.07-.05.02-.02.04-.05.05-.08,0-.03.01-.06.01-.09,0-.03,0-.06-.02-.09,0-.03-.02-.05-.04-.07-.08-.11-.15-.22-.22-.34-.07-.12-.13-.24-.19-.36s-.13-.24-.21-.35c-.08-.11-.16-.22-.26-.31-.04-.03-.07-.07-.1-.12-.01-.03-.02-.06,0-.1.01-.03.04-.05.07-.06.05-.02.1-.03.15-.03.09.15.19.3.28.45l.28.45.28.45c.09.15.19.3.28.45.07.12.15.24.22.37s.14.25.21.37.14.25.21.37l.21.37s.03.07.05.11c.01.04.02.09.02.13,0,.04,0,.08-.01.12,0,.04-.02.07-.04.1-.06.1-.11.21-.12.33-.01.1,0,.21.02.31.02.1.06.19.11.28.05.09.1.17.16.25.12.17.22.35.32.53.1.18.19.37.27.56s.17.38.24.57.16.39.24.57c.16.38.32.76.48,1.13s.32.76.48,1.14c.16.38.31.76.47,1.14s.31.76.47,1.14l.03.08s.02.06.03.09c0,.03.02.06.02.09,0,.03,0,.05,0,.08,0,.05,0,.09.03.13.02.04.05.08.07.12.02.03.04.07.04.1,0,.04-.03.08-.07.09-.03.02-.07.02-.1,0-.04-.02-.08-.04-.11-.07-.04-.04-.07-.07-.1-.11-.03-.03-.05-.07-.07-.1-.1-.17-.21-.34-.32-.49s-.23-.31-.36-.46-.25-.3-.37-.45-.25-.3-.37-.45v-.02s0-.01,0-.02v-.06Z" fill="#dd4c52"/>
      <path id="s" data-name="Path 8715" d="m159.65,98.21c-.05,0-.1.01-.15.03-.03.01-.06.04-.07.07-.01.03,0,.07,0,.09.02.05.06.09.09.12.1.09.18.2.26.31.08.11.14.23.21.35.06.12.13.24.19.36.07.12.14.23.22.34.02.02.03.05.04.08.01.03.02.06.02.09,0,.03,0,.06-.01.09-.01.03-.03.05-.05.07-.02.02-.05.04-.08.05-.02,0-.05,0-.07,0-.03,0-.05-.02-.08-.03-.03-.02-.05-.03-.07-.06l-.36-.32-.35-.32-.36-.32-.36-.32s-.09-.08-.13-.12c-.04-.04-.09-.07-.14-.1-.05-.03-.1-.05-.16-.06-.06-.01-.12-.02-.19,0-.03,0-.07.01-.1.02-.03,0-.05.02-.07.05-.02.02-.03.04-.03.07,0,.03,0,.07,0,.1-.04,0-.08-.02-.12-.02-.04,0-.08-.01-.13-.02-.04,0-.07-.02-.11-.05-.03-.02-.06-.05-.07-.09-.01-.03-.01-.07,0-.11.01-.04.03-.08.06-.11.03-.04.05-.07.08-.1l.09-.09c.13-.13.27-.25.43-.35.15-.1.3-.18.47-.25.16-.06.33-.11.5-.14.18-.03.36-.04.54-.03.05,0,.09,0,.14.02.04.01.09.03.13.05.04.02.08.05.12.08.04.03.07.07.1.1,0,.06-.03.12-.06.18-.03.05-.07.09-.11.13-.04.04-.08.07-.13.1-.05.03-.1.05-.15.08Z" fill="#45a98c"/>
      <path id="t" data-name="Path 8716" d="m143.43,98.04l.08-.09-.08.09Z" fill="#7b8943"/>
      <path id="u" data-name="Path 8717" d="m142.02,103.12s.02-.04.03-.06c0-.02.02-.03.04-.04.01,0,.03,0,.05,0,.02.01.04.03.06.05,0,.02-.02.04-.03.05-.01.01-.03.02-.04.02-.02,0-.03,0-.05,0-.02,0-.04-.01-.05-.02Z" fill="#be6c74"/>
      <path id="v" data-name="Path 8718" d="m165.9,135.82s0,.02-.01.02c0,0,0,0-.02,0,0,0-.01,0-.02,0,0,0-.01-.01-.02-.02h.02s.02-.01.02-.01c0,0,.01,0,.02,0h.02Z" fill="#e6d2aa"/>
      <path id="w" data-name="Path 8719" d="m141.59,100.98c-.01.11-.04.22-.07.32-.03.1-.08.19-.13.28-.05.09-.12.17-.19.25-.07.08-.15.15-.24.21-.04.03-.08.05-.12.07-.03.01-.06.01-.09,0-.03-.02-.04-.04-.05-.07-.01-.04-.02-.09-.03-.13,0-.06-.02-.12-.04-.18-.01-.03-.04-.05-.07-.06-.04,0-.07,0-.1.02-.04.02-.08.05-.12.07-.04.03-.08.06-.11.09-.03.03-.07.06-.11.09-.04.03-.07.05-.11.08-.04.02-.08.04-.13.05.02-.11.05-.22.08-.32.03-.1.08-.19.13-.29.05-.09.11-.17.18-.25.07-.08.15-.15.24-.21.03-.02.06-.04.08-.07.02-.03.05-.06.07-.09.02-.03.04-.06.05-.1.02-.04.03-.07.04-.11.01-.03.03-.07.05-.1.02-.03.04-.06.07-.08.03-.02.06-.03.09-.03.04,0,.07,0,.11.01.03,0,.06.03.08.06,0,.02,0,.05,0,.07,0,.03-.02.06-.03.08-.01.03-.01.05-.01.08,0,.01,0,.02,0,.04,0,.01,0,.03,0,.04,0,.01,0,.03,0,.04,0,.01,0,.03,0,.04s-.01.05-.02.07c0,.02-.01.05-.02.08,0,.02,0,.05.01.07.01.03.03.05.06.06.02.02.05.03.07.03.02,0,.05,0,.07,0,.02-.01.04-.02.06-.04.02-.02.04-.03.06-.05l.05-.05s.03-.03.05-.04c.02-.01.04-.02.06-.03.02,0,.04,0,.06,0Z" fill="#be6c74"/>
      <path id="x" data-name="Path 8720" d="m179.66,129.26h-.07l.02-.06.06.06Z" fill="#be6c74"/>
      <path id="y" data-name="Path 8721" d="m158.57,130.38v.02s-.01.02-.01.02v.02h0s-.01,0-.01,0h-.01s-.02-.01-.02-.01h-.02s0-.03,0-.03v-.02s.01-.02.01-.02h.01s.01-.01.01-.01h.02s.02.02.02.02h0Z" fill="#e6d2aa"/>
      <g id="z" data-name="Group 1684">
        <path id="aa" data-name="Path 8722" d="m183.8,116.45c-.02-.32-.05-.65-.08-.96s-.07-.64-.11-.95-.09-.63-.15-.95-.12-.63-.18-.95c-.1-.48-.23-.95-.39-1.42-.15-.46-.32-.91-.52-1.35s-.4-.88-.63-1.3c-.22-.42-.46-.84-.72-1.25-.27-.44-.55-.87-.85-1.29-.3-.42-.61-.82-.94-1.21-.33-.39-.68-.76-1.05-1.11-.37-.35-.76-.68-1.16-.99-.48-.36-.98-.72-1.5-1.03-.5-.32-1.04-.59-1.59-.8-.54-.21-1.1-.33-1.68-.36-.6-.02-1.19.08-1.75.29-.44.17-.85.39-1.23.67-.37.27-.72.59-1.02.94-.31.36-.58.74-.81,1.15-.24.42-.44.85-.6,1.31-.09.23-.16.47-.22.71-.06.24-.11.48-.16.72s-.08.49-.1.74-.05.49-.06.74c0,.13-.01.25-.02.37s0,.25-.01.37,0,.25,0,.37v.54c0,.06,0,.13,0,.19s0,.13,0,.18c0,.06,0,.11-.02.17v.06s-.02.04-.03.05c0,.02-.01.03-.02.05,0,.02-.02.03-.04.04-.09-.06-.16-.13-.22-.22-.06-.09-.11-.19-.15-.29-.04-.11-.08-.21-.11-.32s-.07-.21-.1-.29l-.18-.45c-.06-.15-.12-.3-.18-.45-.06-.15-.12-.3-.18-.45l-.18-.45c-.11-.29-.23-.59-.35-.88-.12-.29-.23-.59-.35-.88-.12-.29-.24-.58-.37-.87s-.25-.58-.39-.86c-.01-.02-.02-.04-.03-.06,0-.02-.01-.04-.02-.06,0-.02,0-.04,0-.07,0-.02,0-.05,0-.07-.04-.03-.08-.06-.12-.11-.03-.04-.06-.08-.08-.13-.02-.05-.04-.1-.06-.14s-.04-.1-.06-.14c-.2-.43-.41-.85-.61-1.27-.21-.42-.42-.83-.65-1.24-.22-.41-.45-.82-.68-1.22-.23-.4-.47-.8-.72-1.2-.02-.03-.04-.07-.06-.1-.02-.03-.04-.07-.06-.1-.02-.03-.05-.06-.08-.09-.03-.02-.06-.04-.1-.06,0,.06-.03.12-.06.17-.03.05-.07.09-.11.13-.04.04-.08.07-.13.1l-.15.09.28.45.28.45.28.45c.09.15.18.3.28.45.07.12.15.24.22.37l.21.37c.07.13.14.25.21.37s.14.25.21.37c.02.04.03.07.05.11.01.04.02.09.02.13,0,.04,0,.08-.01.12,0,.04-.02.07-.04.1-.06.1-.11.21-.12.33-.01.1,0,.21.02.31.03.1.07.19.11.28.05.09.1.17.16.25.12.17.22.35.32.53.1.18.19.37.27.56s.16.38.24.57.16.39.24.57l.3.71c.1.24.2.47.3.71s.2.47.29.71l.29.71.15.37.15.37.15.37c.05.12.1.24.15.37.02.04.05.11.09.2s.07.2.11.3c.03.09.06.19.07.29,0,.08,0,.14-.05.16s-.08,0-.13-.04c-.06-.04-.11-.09-.16-.14-.05-.06-.11-.12-.15-.17s-.07-.1-.09-.13c-.04-.06-.07-.13-.11-.19s-.07-.13-.11-.19-.07-.13-.11-.19c-.04-.06-.08-.12-.12-.18-.09-.13-.19-.26-.29-.39s-.2-.25-.3-.37-.21-.24-.32-.36-.22-.24-.32-.35c-.21-.22-.43-.44-.66-.65s-.46-.41-.7-.6c-.24-.19-.49-.37-.75-.53-.25-.16-.52-.31-.79-.43-.8-.37-1.68-.55-2.56-.51-.84.05-1.67.27-2.42.66-.78.4-1.49.93-2.1,1.56-.64.65-1.17,1.39-1.6,2.2-.24.45-.45.92-.63,1.39-.18.47-.32.96-.44,1.45-.12.49-.21.99-.27,1.5-.06.51-.1,1.03-.11,1.55-.02.6,0,1.2.03,1.8.04.59.11,1.18.2,1.77.1.58.23,1.16.39,1.73.17.58.37,1.14.6,1.7.32.75.68,1.5,1.08,2.25s.84,1.48,1.31,2.2c.47.71.97,1.39,1.51,2.04.52.64,1.08,1.24,1.68,1.81.23.22.47.44.71.65.24.21.48.41.73.61.25.2.5.39.76.57.26.18.52.36.8.53.41.25.83.49,1.26.7.42.21.86.4,1.3.57.44.17.89.31,1.35.42.46.11.93.2,1.4.25.28.03.55.05.83.04.27,0,.54-.03.8-.08.27-.05.52-.13.77-.23.26-.11.51-.24.74-.4.61-.42,1.15-.94,1.6-1.53.41-.55.75-1.16,1-1.81.25-.66.45-1.34.6-2.04.16-.71.29-1.46.42-2.23.01-.09.04-.18.07-.27.01-.05.05-.09.1-.11.05-.01.1,0,.14.04.07.05.14.11.2.18.39.42.8.81,1.23,1.18.45.39.92.74,1.42,1.06.49.31,1.01.56,1.56.73.53.17,1.09.25,1.64.21.99-.07,1.92-.48,2.63-1.16.74-.72,1.32-1.59,1.71-2.54.44-1.02.77-2.07.99-3.15.21-.99.36-1.99.46-2.99.03-.29.05-.58.08-.87s.04-.58.05-.87.02-.58.02-.87,0-.59-.03-.88Zm-15.85,1.96c-.01.07-.02.14-.04.21-.02.07-.04.14-.07.2-.02.06-.05.13-.09.19-.03.06-.07.12-.11.17-.08.11-.18.2-.3.26-.1.05-.22.07-.33.06-.12-.01-.22-.06-.32-.13-.11-.08-.2-.18-.27-.3-.14-.24-.24-.49-.29-.76-.06-.27-.08-.55-.06-.83.02-.28.07-.55.15-.81.08-.26.2-.5.34-.72l.1-.15c.03-.05.07-.1.09-.15.03-.05.06-.1.08-.16.02-.06.04-.12.06-.18,0-.02,0-.04.01-.07,0-.02,0-.05.02-.07,0-.02.02-.04.03-.06.02-.02.04-.03.06-.03.03,0,.05,0,.08.01.02.01.04.03.05.05.01.02.03.04.04.07l.03.07c.1.19.18.38.26.58.07.2.15.42.21.63s.11.43.16.65.08.43.1.63c0,.05,0,.1.01.16s0,.11,0,.16,0,.1,0,.16c0,.05,0,.1,0,.16h0Zm3.15-.84s-.08.09-.12.13c-.05.04-.1.07-.16.1-.06.03-.13.05-.19.07-.07.02-.15.03-.23.03-.24,0-.49-.06-.68-.21-.21-.15-.4-.35-.54-.57-.15-.23-.28-.48-.38-.74-.09-.23-.16-.48-.2-.72-.01-.07-.03-.15-.04-.23s-.03-.15-.05-.23-.04-.15-.06-.23-.04-.15-.05-.23v-.06s-.02-.04-.02-.06c0-.02,0-.04,0-.06,0-.02.02-.04.03-.05.01-.01.03-.02.05-.03.02,0,.04,0,.05.01.02,0,.03.02.05.03l.04.03c.12.09.25.17.39.23.14.05.27.1.42.14.14.04.28.08.41.13.14.05.27.12.39.21.12.09.23.19.34.3.21.22.38.48.5.76.06.14.11.29.15.44.02.08.03.16.04.24,0,.07,0,.14,0,.21,0,.06-.02.13-.05.19-.02.06-.05.11-.08.16h0Zm9.39,10.3l.04-.04.05-.03.05-.03.05-.03-.05.03-.05.03-.05.03-.04.04Zm.29-.21h.01s-.01,0-.01,0Z" fill="#fffcf6"/>
      </g>
      <path id="ab" data-name="Path 8724" d="m147.69,105.25c.22.11.44.22.66.31s.45.18.68.26.46.15.69.21.46.13.69.17c.31.07.62.13.93.17.31.04.63.07.94.09s.63.02.95.01.63-.03.95-.07c.16-.02.32-.04.48-.07s.32-.06.48-.09.32-.07.47-.11.31-.08.47-.13c.14-.04.28-.06.43-.08.15-.01.3-.02.45-.02.15,0,.3,0,.45.01s.3.01.44,0c.08,0,.15,0,.23-.02.04,0,.08-.03.11-.07.02-.04.02-.09,0-.14-.02-.08-.05-.15-.09-.23-.06-.11-.11-.23-.18-.34s-.13-.22-.19-.33-.13-.22-.19-.33-.12-.23-.18-.34c-.12-.24-.23-.48-.34-.72s-.23-.48-.35-.72-.24-.48-.37-.71-.27-.46-.42-.68c-.2-.3-.42-.58-.65-.86-.23-.27-.47-.53-.72-.78-.25-.25-.52-.48-.79-.7-.28-.22-.57-.41-.87-.6-.23-.13-.45-.26-.68-.39s-.46-.24-.69-.35-.48-.21-.72-.3-.49-.16-.73-.23c-.45-.11-.91-.18-1.37-.18-.44,0-.87.04-1.29.15-.43.11-.84.27-1.23.48-.41.23-.8.5-1.15.81-.05.05-.1.1-.14.16-.04.06-.09.12-.13.18-.04.05-.09.1-.14.14-.05.03-.11.05-.17.05-.06,0-.13-.03-.19-.06-.06-.03-.13-.07-.18-.11-.06-.04-.12-.08-.18-.13-.06-.04-.12-.07-.19-.1-.08-.02-.15-.08-.18-.16-.02-.07-.03-.14-.03-.21,0-.07,0-.14,0-.2-.01-.06-.06-.12-.12-.14-.02-.01-.05-.02-.07-.02-.03,0-.05,0-.08,0-.03,0-.05.02-.08.03-.02.01-.05.03-.07.05-.02.02-.04.04-.06.06-.02.02-.04.04-.05.07-.02.02-.03.05-.05.08-.01.03-.03.05-.04.07l-.16.29s-.03.06-.05.09c-.02.03-.03.06-.05.09-.01.03-.02.07-.03.1,0,.03-.01.07-.01.1,0,.04,0,.08.02.12.01.03.03.05.06.07.03.02.06.02.09.02.04,0,.08,0,.11-.02.04-.02.08-.04.12-.07.03-.02.06-.05.09-.07.03-.02.06-.03.1-.04.05,0,.1.01.15.03.09.04.18.06.28.08.09.02.19.04.28.06.09.02.17.07.24.12.08.07.14.16.17.26.05.15.09.31.12.47.02.16.04.32.05.48s.02.33.03.49c.01.16.04.32.07.48.04.18.09.35.15.52.06.17.14.34.22.5.08.16.17.32.26.47s.19.3.29.45c.14.22.3.42.48.62.17.19.35.37.55.53.19.16.39.32.6.46.21.15.43.28.65.4Z" fill="#45a98c"/>
      <path id="ac" data-name="Path 8725" d="m139.53,102.58c-.17-.05-.4-.11-.65-.2-.25-.09-.5-.21-.73-.35-.22-.13-.41-.3-.55-.52-.13-.21-.17-.47-.11-.71.03-.13.08-.26.16-.37.06-.09.14-.15.24-.2.1-.04.2-.07.31-.09.11-.02.23-.02.36-.03.15-.01.32-.02.52-.02s.39-.02.59-.04c.19-.02.38-.05.57-.1.17-.04.32-.11.46-.21.14-.11.25-.23.35-.37.11-.16.21-.33.29-.5.09-.18.17-.36.26-.53s.16-.33.24-.47c.1-.18.21-.36.32-.54s.21-.36.32-.54.22-.35.33-.53.22-.35.34-.52c.06-.08.11-.18.16-.27s.11-.2.18-.28c.06-.09.13-.17.21-.24.07-.07.16-.12.26-.14.05-.02.11-.02.17-.03h.17c.06,0,.11,0,.17.02l.17.02.98.15.09.02s.06.01.09.02c.03.01.06.02.08.04.03.02.05.04.07.06.02.03.03.06.04.09,0,.03.01.07,0,.1,0,.04,0,.07-.02.1-.01.03-.03.06-.04.09-.02.03-.04.06-.06.08-.02.03-.05.05-.07.07-.03.02-.05.04-.08.06l-.08.06c-.24.18-.48.36-.71.56s-.45.41-.66.62-.41.44-.6.68-.38.48-.55.73c-.08.11-.15.22-.21.34-.07.12-.12.24-.17.36-.05.13-.09.25-.11.39-.03.13-.04.27-.03.4,0,.05,0,.11.01.16,0,.05.02.1.03.14.02.05.04.09.06.13.03.04.06.08.1.12.04.04.08.08.12.11.04.03.08.07.11.1.03.04.06.08.09.12.03.05.05.11.06.17.02.12.02.25,0,.37-.01.12-.04.25-.09.36-.04.12-.1.23-.16.33-.06.1-.14.2-.22.29-.16.17-.35.29-.57.37-.25.09-.51.14-.77.15-.3.02-.6,0-.9-.03-.32-.04-.63-.1-.93-.19Z" fill="#fffcf6"/>
      <path id="ad" data-name="Path 8726" d="m145.93,95.02s.02.03.03.05c.01.02.02.04.02.06,0,.02.01.04.02.07,0,.03,0,.05,0,.08,0,0-.03.02-.09.03l-.19.09-.2.1-.12.06c-.06.03-.13.07-.19.11s-.12.08-.18.12-.12.09-.17.13-.11.09-.16.14l-.13.13s-.09.08-.14.12c-.05.04-.1.07-.15.1-.05.03-.11.04-.17.05-.06,0-.11,0-.16-.03-.03-.02-.04-.06-.04-.1,0-.05.01-.1.03-.14.01-.05.02-.1.03-.15,0-.03,0-.07,0-.1,0-.03,0-.07,0-.1,0-.03,0-.06.02-.09.01-.03.04-.06.06-.08.04-.03.09-.06.14-.1s.1-.08.15-.13c.05-.05.09-.09.14-.15.04-.04.07-.09.09-.15.01-.03.02-.05.03-.07,0-.02.01-.03.02-.05,0-.01,0-.03,0-.04-.01-.02-.03-.03-.05-.05-.02-.01-.04-.02-.06-.02-.03,0-.05,0-.08,0-.03,0-.05,0-.08.01-.02,0-.05,0-.07,0-.02,0-.03-.02-.05-.02-.02-.01-.06-.03-.08-.05-.02-.02-.05-.03-.07-.05-.01-.02-.02-.03,0-.03.08-.02.16-.04.24-.05.09-.01.17-.02.26-.02.09,0,.17,0,.26,0,.09,0,.17,0,.25.02s.14.02.21.03c.08.01.16.03.24.05.08.02.15.05.22.09.07.04.12.08.17.14Z" fill="#45a98c"/>
      <path id="ae" data-name="Path 9603" d="m183.37,66.38c-.34,1.99-.83,3.95-1.48,5.86-.64,1.91-1.45,3.76-2.41,5.52-.95,1.75-2.06,3.4-3.33,4.93-1.26,1.52-2.69,2.89-4.25,4.09-1.33,1.01-2.76,1.89-4.26,2.62-1.49.73-3.04,1.32-4.63,1.78-1.59.46-3.21.78-4.85.98-1.63.2-3.28.27-4.92.23-1.63-.05-3.25-.2-4.85-.45-1.6-.25-3.19-.6-4.75-1.03-1.56-.43-3.1-.93-4.62-1.5s-3-1.2-4.46-1.88c-.52-.24-1.04-.49-1.56-.73s-1.05-.47-1.58-.68c-.53-.21-1.07-.38-1.61-.53-.54-.14-1.1-.24-1.66-.29-.57-.04-1.15-.01-1.71.09-.56.1-1.11.28-1.63.53-.51.24-.97.57-1.38.96-.4.4-.73.87-.95,1.4-.29-1.62-.4-3.26-.34-4.9.12-3.29.9-6.52,2.3-9.5.69-1.48,1.54-2.87,2.54-4.17.99-1.28,2.12-2.46,3.37-3.5,1.24-1.04,2.59-1.94,4.02-2.69,1.43-.75,2.93-1.34,4.48-1.77,1.55-.43,3.15-.67,4.75-.74,1.16-.04,2.32,0,3.48.1,1.16.1,2.32.25,3.48.4s2.32.31,3.49.43c1.17.13,2.34.19,3.52.19,2.52-.02,5.02-.37,7.45-1.03,2.47-.68,4.85-1.67,7.07-2.95,2.25-1.3,4.32-2.91,6.13-4.78,1.86-1.92,3.42-4.11,4.62-6.5.16.65.28,1.3.38,1.95s.18,1.3.25,1.95.13,1.31.19,1.96.14,1.32.23,1.99c.07.97.11,1.94.13,2.92.02.97,0,1.95-.03,2.92-.04.97-.1,1.95-.2,2.92-.1.97-.23,1.94-.39,2.9Z" fill="#45a98c"/>
      <path id="af" data-name="Path 9604" d="m154.08,93.35h-.87c-.79-.02-1.59-.07-2.4-.14-.81-.07-1.62-.18-2.44-.3-.82-.12-1.64-.28-2.47-.46s-1.66-.38-2.49-.61c-.74-.2-1.49-.43-2.25-.67-.76-.25-1.52-.51-2.29-.8-.77-.29-1.54-.59-2.32-.92-.78-.33-1.56-.68-2.34-1.04l-.16-.07-.16-.07-.16-.07-.16-.07c-.45-.21-.9-.42-1.35-.63s-.9-.4-1.37-.57c-.45-.17-.92-.32-1.39-.44-.46-.12-.93-.19-1.4-.23h-.11s-.11,0-.11,0h-.23c-.43,0-.86.05-1.28.15-.44.1-.86.25-1.26.45-.4.2-.76.45-1.08.76-.32.31-.57.68-.75,1.09-.03.08-.08.16-.13.23-.05.07-.11.12-.18.17-.07.05-.14.08-.22.11-.08.03-.16.04-.24.04h-.1c-.09-.01-.18-.04-.26-.08-.08-.04-.16-.1-.22-.16-.07-.07-.12-.14-.17-.23-.04-.09-.08-.18-.09-.28-.15-.83-.25-1.67-.31-2.51-.06-.85-.08-1.7-.05-2.56.03-.86.1-1.71.22-2.57.12-.85.27-1.7.48-2.54.2-.84.45-1.66.73-2.48.28-.81.61-1.6.98-2.37.36-.77.76-1.51,1.2-2.24.44-.71.91-1.4,1.42-2.07.51-.66,1.05-1.29,1.63-1.89.58-.61,1.2-1.18,1.84-1.72.65-.54,1.32-1.05,2.02-1.52.7-.47,1.43-.9,2.18-1.29.75-.39,1.51-.74,2.3-1.05.78-.31,1.58-.57,2.39-.79.8-.22,1.62-.39,2.44-.52.81-.13,1.64-.21,2.46-.24h.52c.58-.01,1.16,0,1.75.03s1.16.07,1.75.13,1.16.12,1.73.19,1.15.15,1.71.22c.53.07,1.07.14,1.62.21s1.09.13,1.63.18,1.1.1,1.64.13,1.1.05,1.64.04h.28c2.52-.04,5.02-.42,7.44-1.13,2.38-.7,4.67-1.7,6.79-2.99,2.11-1.28,4.03-2.83,5.72-4.62,1.69-1.79,3.11-3.81,4.22-6.01.04-.08.09-.15.15-.22.06-.06.12-.12.19-.17.07-.05.15-.08.23-.11.08-.03.16-.04.25-.04h.11c.09,0,.18.03.27.07.08.04.16.09.23.15.07.06.13.13.18.21.05.08.09.17.11.27.11.44.2.89.28,1.33s.15.88.21,1.32.11.88.15,1.31.09.86.13,1.29c.02.22.04.45.06.67s.05.45.07.68c.03.23.05.45.08.68.03.23.06.46.09.68v.07c.07,1.05.12,2.09.13,3.11.01,1.03,0,2.03-.04,3.03-.04.99-.11,1.97-.21,2.93-.1.96-.23,1.9-.39,2.82-.18,1.03-.4,2.07-.65,3.09s-.56,2.02-.89,3.01-.71,1.95-1.12,2.88-.85,1.84-1.33,2.71c-.52.95-1.07,1.86-1.66,2.73-.58.85-1.2,1.68-1.87,2.47-.65.77-1.34,1.5-2.07,2.2-.71.68-1.47,1.32-2.25,1.92-.64.49-1.31.95-1.99,1.37-.69.43-1.4.83-2.13,1.19-.73.37-1.48.71-2.26,1.02s-1.57.58-2.38.83c-.76.23-1.54.43-2.32.61s-1.58.32-2.38.43c-.8.11-1.61.2-2.42.26s-1.64.03-2.46.02Zm-26.46-9h.44s.14.02.14.02c.54.04,1.07.13,1.6.26.52.13,1.03.28,1.54.47.5.18,1,.39,1.49.61s.97.45,1.46.67l.16.07.16.07.16.07.16.07c1.61.75,3.2,1.41,4.77,1.99,1.57.58,3.13,1.07,4.66,1.47,1.49.39,3.01.7,4.53.93,1.45.22,2.92.35,4.39.39h.83c1.6,0,3.2-.11,4.78-.35,1.54-.23,3.06-.58,4.55-1.04,1.45-.45,2.85-1.02,4.2-1.71,1.32-.67,2.57-1.45,3.74-2.35,1.43-1.1,2.74-2.35,3.91-3.73,1.22-1.45,2.3-3.01,3.22-4.66.97-1.73,1.78-3.54,2.43-5.41.68-1.95,1.19-3.95,1.54-5.99.15-.88.27-1.78.37-2.69.09-.92.16-1.85.2-2.8.04-.95.06-1.92.04-2.9s-.06-1.98-.12-2.98c-.03-.23-.06-.47-.09-.7-.03-.23-.05-.46-.08-.69-.02-.23-.05-.46-.07-.69s-.04-.45-.07-.68-.04-.44-.06-.65-.04-.43-.07-.65-.05-.42-.07-.64-.05-.42-.08-.63c-.6.95-1.26,1.87-1.97,2.74-.72.88-1.48,1.71-2.3,2.49-.82.79-1.69,1.53-2.6,2.22-.92.7-1.88,1.34-2.88,1.92-.56.33-1.14.64-1.72.94-.58.29-1.18.57-1.78.82-.6.26-1.21.49-1.83.71-.62.21-1.24.41-1.87.59-.63.17-1.25.33-1.89.46-.63.14-1.27.25-1.9.34-.63.09-1.27.17-1.9.22-.64.05-1.27.08-1.9.09h-.29c-.57,0-1.15-.01-1.71-.05s-1.14-.08-1.7-.13-1.13-.12-1.68-.19-1.11-.14-1.66-.21-1.11-.15-1.67-.22-1.12-.13-1.68-.19-1.12-.1-1.68-.13-1.12-.04-1.67-.03h-.47c-1.55.06-3.08.3-4.57.71-1.49.41-2.94.97-4.31,1.69-1.37.72-2.67,1.59-3.86,2.58-1.2,1-2.29,2.13-3.24,3.37-.85,1.1-1.59,2.28-2.21,3.53-.62,1.25-1.13,2.55-1.52,3.88-.39,1.34-.66,2.71-.8,4.1-.14,1.39-.16,2.79-.05,4.19.09-.08.17-.15.26-.22s.18-.14.28-.21.19-.13.29-.19.2-.12.31-.18c.26-.14.52-.26.79-.37.28-.11.56-.2.84-.27.29-.07.59-.13.88-.16.3-.03.61-.04.91-.03h0Z" fill="#36846e"/>
      <g id="ag" data-name="Path 8728">
        <path id="ah" data-name="Path 9605" d="m160.8,46.8c.16.12.31.25.46.39.15.14.29.28.42.44.13.15.25.32.36.48.11.17.21.35.3.53-.01-.07,0-.14.01-.21.02-.08.05-.16.09-.24.04-.08.08-.16.12-.24.04-.07.08-.14.11-.19.12-.22.25-.43.4-.63.15-.2.32-.39.5-.57.18-.18.37-.34.57-.49.2-.14.41-.27.63-.39.23-.12.46-.22.7-.3.24-.08.48-.16.73-.22.25-.06.49-.11.74-.15s.5-.07.75-.1.49-.04.74-.06.49-.02.74-.03.49-.01.74-.01.49,0,.74,0c.52,0,1.04,0,1.56-.02l1.57-.04c.52-.02,1.05-.03,1.57-.05s1.05-.03,1.57-.05c.25,0,.5.04.74.14.23.1.43.24.61.41.17.18.31.39.41.62.1.25.15.51.15.77v27.38c0,.27-.05.53-.15.77-.1.24-.23.45-.41.64-.17.18-.38.33-.61.43-.23.11-.48.16-.74.16l-47.78.36c-.24,0-.48-.05-.7-.15-.21-.1-.41-.24-.57-.41-.17-.18-.3-.39-.39-.61-.09-.24-.14-.49-.14-.75v-26.53c0-.26.05-.51.14-.76.09-.23.22-.44.39-.63.16-.18.35-.33.57-.43.22-.11.45-.16.7-.17l11.9-.31,2.8-.07,2.81-.08,2.82-.07,2.83-.08c.65-.02,1.32-.04,1.98-.05s1.34,0,2.01.05c.66.05,1.32.15,1.97.32.65.16,1.27.41,1.86.73l.18.1.17.11c.06.04.11.08.17.11s.1.07.16.12Z" fill="#1f3a1d"/>
        <path id="ai" data-name="Path 9606" d="m176.91,77.13l-47.78.33c-.38,0-.75-.08-1.1-.23-.34-.15-.65-.37-.9-.65-.26-.28-.47-.61-.6-.96-.15-.38-.22-.78-.22-1.18v-26.53c0-.41.07-.81.22-1.19.14-.36.34-.7.6-.99.25-.28.56-.51.9-.68.34-.17.72-.26,1.1-.27l11.89-.32,3.73-.1,3.75-.1.94-.02.94-.03.94-.03.94-.02h1.26c.59-.02,1.19-.03,1.79-.01.6.01,1.21.05,1.81.13.6.07,1.2.2,1.78.37.59.18,1.17.42,1.71.72l.21.13c.07.04.14.09.21.13l.2.13c.06.05.13.09.19.14s.13.1.2.15.13.1.19.16.12.11.18.16.12.11.17.17c.14-.19.29-.38.45-.55.16-.18.33-.34.52-.5.18-.16.37-.3.57-.44.19-.13.4-.25.61-.36h0c.29-.15.58-.27.89-.38.29-.1.58-.18.88-.25.28-.07.56-.12.81-.15s.49-.07.71-.09l.35-.03.37-.03c.13,0,.26-.01.39-.02s.27-.01.41-.01c.12,0,.24,0,.36,0h2.14s.53-.02.53-.02h.56s.52-.03.52-.03l.52-.02.52-.02.52-.02.52-.02.53-.02.53-.02.53-.02c.4-.01.79.06,1.16.22.36.15.68.37.96.65.28.28.5.62.65.98.16.39.24.8.24,1.22v27.39c0,.42-.08.84-.24,1.23-.15.37-.37.71-.65,1-.27.29-.6.52-.96.68-.37.15-.76.22-1.16.21Zm-47.78-30.11c-.1,0-.2.03-.29.07-.09.05-.17.11-.24.18-.07.08-.13.16-.16.26-.04.1-.06.21-.06.32v26.56c0,.11.02.22.06.32.04.1.09.18.16.26.07.07.15.13.24.17.09.04.19.06.3.06l47.78-.4c.11,0,.21-.02.31-.07.1-.04.19-.1.26-.18.07-.08.13-.17.17-.27.04-.1.06-.22.06-.33v-27.36c0-.11-.02-.22-.06-.33-.04-.1-.1-.18-.17-.26-.07-.08-.16-.13-.26-.17-.1-.04-.2-.06-.31-.06h-.52s-.52.03-.52.03l-.52.02-.52.02-.52.02-.53.02-.53.02h-.53s-.57.03-.57.03h-.54s-.52.02-.52.02h-2.34c-.12.01-.24.02-.35.03l-.33.02-.31.03c-.27.03-.52.06-.76.1-.24.04-.46.09-.67.14-.2.05-.4.11-.59.18-.18.06-.35.14-.52.22-.17.09-.33.19-.49.3-.16.12-.31.24-.45.38-.14.14-.27.28-.39.44-.11.15-.22.31-.3.47l-.02.03-.02.03-.02.03-.02.03-.02.05-.03.05-.03.06-.03.05c0,.11-.02.23-.05.33-.03.11-.08.21-.14.3-.06.09-.13.18-.22.25-.09.07-.18.13-.28.18-.03.01-.06.02-.1.03s-.06.02-.09.02c-.03,0-.06.01-.1.02h-.1c-.1,0-.2,0-.29-.03-.09-.03-.18-.06-.27-.11-.08-.05-.16-.12-.23-.19-.07-.08-.13-.16-.17-.26-.07-.14-.14-.27-.23-.4-.09-.13-.18-.26-.28-.38-.1-.12-.21-.24-.33-.35-.12-.11-.25-.22-.38-.32l-.14-.1s-.09-.06-.14-.1l-.15-.09-.15-.09c-.44-.24-.9-.44-1.38-.57-.49-.14-.98-.24-1.48-.3-.51-.06-1.03-.09-1.56-.1s-1.07,0-1.61.01h-1.26l-.94.02-.94.02-.94.02-.94.02-3.75.1-3.73.09-11.89.36Z" fill="#45a98c"/>
      </g>
    </g>
    <g>
      <path d="m80.52,139.18l7.9-95.15H0l7.9,95.15c0,.06-.04.11-.04.16,0,.11.06.22.08.32v.02h0c.9,3.82,16.77,6.86,36.26,6.86s35.36-3.04,36.26-6.86h0v-.02c.03-.11.08-.21.08-.32,0-.06-.04-.11-.04-.16Z" fill="#bdd7ea"/>
      <ellipse cx="44.22" cy="44.03" rx="44.22" ry="8.76" fill="#bdd7ea"/>
      <path d="m83.13,55.39c-2.03,3.9-75.79,3.9-77.82,0l6.57,79.09c-.01.08-.03.16-.03.23,0,3.54,14.49,6.41,32.37,6.41s32.37-2.87,32.37-6.41c0-.08-.02-.16-.03-.23l6.57-79.09Z" fill="#fff"/>
      <ellipse cx="44.22" cy="55.16" rx="38.91" ry="7.71" fill="#fff"/>
      <path d="m86.46,44.23c0,4.62-18.91,8.37-42.24,8.37S1.97,48.85,1.97,44.23" fill="none" stroke="#bdd7ea" stroke-miterlimit="10" stroke-width="2.59"/>
      <path d="m88.42,44.06c-.07,4.82-19.83,8.73-44.21,8.73S.08,48.88,0,44.06l7.9,95.13c0,.06-.04.11-.04.16,0,.11.06.22.08.32v.02h0c.9,3.82,16.77,6.86,36.26,6.86s35.36-3.04,36.26-6.86h0v-.02c.03-.11.08-.21.08-.32,0-.06-.04-.11-.04-.16l7.9-95.13Z" fill="#cadfee" opacity=".4"/>
    </g>
    <path id="aj" data-name="Jugo de Manzanas" d="m136.49,52.05c0-.05,0-.1-.02-.15-.02-.04-.04-.08-.07-.11-.03-.03-.07-.05-.11-.07-.05-.02-.1-.02-.15-.02h-.6c-.05,0-.1,0-.15.02-.04.01-.08.04-.11.07-.03.03-.06.07-.07.11-.02.05-.03.1-.02.15v5.61c0,.08,0,.16-.03.24-.02.07-.06.13-.1.19-.05.05-.11.1-.18.12-.09.03-.18.04-.27.04-.09,0-.18-.01-.27-.04-.07-.02-.13-.07-.18-.12-.05-.05-.08-.12-.1-.19-.02-.08-.03-.16-.03-.24v-.85c0-.05,0-.1-.02-.15-.02-.04-.04-.08-.07-.11-.03-.03-.07-.05-.11-.06-.05-.02-.1-.03-.15-.03h-.6c-.05,0-.1.01-.15.03-.04.01-.08.04-.11.07-.03.03-.06.07-.07.11-.02.05-.02.1-.02.15v.85c0,.24.03.48.11.71.07.19.19.37.35.5.17.14.37.25.59.3.28.07.56.1.85.1.29,0,.57-.03.85-.1.22-.06.42-.16.6-.3.16-.14.28-.31.35-.5.08-.23.12-.47.12-.71v-5.61Zm.83,6.13c0,.17.02.33.07.49.04.13.11.24.2.34.08.09.18.15.29.19.12.04.24.06.36.06.09,0,.19-.01.28-.03.1-.02.19-.05.28-.09.19-.08.36-.19.51-.34v.05c0,.05,0,.1.02.15.01.04.04.08.07.11.03.03.07.06.11.07.05.02.1.03.15.02h.47c.05,0,.1,0,.15-.02.04-.01.08-.04.11-.07.03-.03.05-.07.07-.11.02-.05.02-.1.02-.15v-5.17c0-.05,0-.1-.02-.15-.03-.08-.09-.15-.18-.17-.05-.02-.1-.02-.15-.02h-.47c-.05,0-.1,0-.15.02-.08.03-.15.09-.18.18-.02.05-.02.1-.02.15v4.11c0,.07,0,.14-.03.21-.01.06-.04.11-.08.15-.04.04-.08.07-.13.08-.06.02-.12.03-.18.03-.06,0-.12,0-.18-.02-.05-.02-.09-.04-.13-.08-.03-.04-.06-.09-.07-.14-.02-.07-.02-.14-.02-.21v-4.13c0-.05,0-.1-.02-.15-.02-.04-.04-.08-.07-.11-.03-.03-.07-.05-.11-.07-.05-.02-.1-.02-.15-.02h-.46c-.05,0-.1,0-.15.02-.04.01-.08.04-.11.07-.03.03-.06.07-.07.11-.02.05-.03.1-.02.15v4.49Zm7.18-4.49c0-.05,0-.1-.02-.15-.03-.08-.09-.15-.18-.17-.05-.02-.1-.03-.15-.03h-.47c-.05,0-.1,0-.15.02-.08.03-.15.09-.18.18-.02.05-.02.1-.02.15v.05c-.15-.14-.32-.26-.51-.34-.09-.04-.18-.07-.28-.09-.09-.02-.18-.03-.28-.03-.12,0-.25.02-.36.06-.11.04-.21.11-.3.19-.09.1-.16.21-.2.34-.05.16-.08.33-.07.49v3.8c0,.17.02.33.07.49.04.13.11.24.2.34.08.09.19.15.3.19.12.04.24.06.36.06.09,0,.19-.01.28-.03.1-.02.19-.05.28-.09.19-.08.36-.19.51-.34v1.08c0,.07,0,.14-.02.21-.01.06-.04.11-.08.15-.04.04-.09.07-.14.09-.07.02-.14.03-.21.03h-.65c-.05,0-.1,0-.15.02-.04.02-.08.04-.11.07-.03.03-.05.07-.07.11-.02.05-.02.1-.02.15v.2c0,.05,0,.1.02.15.03.08.09.15.18.18.05.02.1.02.15.02h.65c.24,0,.49-.02.72-.08.19-.05.36-.14.5-.26.13-.12.24-.26.3-.43.07-.19.1-.4.1-.6v-6.22Zm-1.99,1.04c0-.07,0-.14.02-.21.01-.05.04-.1.07-.14.03-.04.07-.07.12-.08.06-.02.12-.03.18-.03.06,0,.12,0,.18.03.05.02.09.05.13.09.04.04.07.09.08.15.02.07.03.14.03.22v3.05c0,.07,0,.14-.03.21-.02.05-.04.1-.08.15-.04.04-.08.07-.13.08-.06.02-.12.03-.18.03-.06,0-.12,0-.18-.02-.05-.02-.09-.04-.12-.08-.03-.04-.06-.09-.07-.14-.02-.07-.02-.14-.02-.21v-3.08Zm4.41-.53c.06,0,.12,0,.18.02.05.01.09.04.13.08.04.04.06.09.08.14.02.07.03.14.03.21v3.24c0,.07,0,.14-.03.21-.01.05-.04.1-.08.14-.04.04-.08.07-.13.08-.06.02-.12.03-.18.03-.06,0-.12-.01-.18-.03-.05-.02-.09-.04-.13-.08-.04-.04-.06-.09-.08-.14-.02-.07-.03-.14-.02-.21v-3.23c0-.07,0-.14.02-.21.01-.05.04-.1.08-.14.04-.04.08-.06.13-.08.06-.02.12-.03.18-.03h0Zm0-.91c-.24,0-.47.02-.7.08-.18.05-.35.13-.49.25-.13.11-.23.26-.29.42-.07.19-.1.39-.1.59v3.3c0,.2.03.4.1.59.06.16.16.31.29.42.14.12.31.2.49.25.46.11.94.11,1.41,0,.18-.05.35-.13.49-.25.13-.11.23-.26.29-.42.07-.19.1-.39.1-.59v-3.3c0-.2-.03-.4-.1-.59-.06-.16-.16-.31-.29-.42-.14-.12-.31-.2-.49-.25-.23-.06-.47-.09-.71-.08h0Zm5.86,1.44c0-.07,0-.14.02-.21.01-.05.04-.1.07-.14.03-.04.07-.07.12-.08.06-.02.12-.03.18-.03.06,0,.12,0,.18.03.05.02.09.05.13.09.04.04.07.09.08.15.02.07.03.14.03.22v3.05c0,.07,0,.14-.03.21-.01.05-.04.11-.07.15-.04.04-.08.07-.13.08-.06.02-.12.03-.18.03-.06,0-.12,0-.18-.02-.05-.01-.09-.04-.12-.08-.03-.04-.06-.09-.07-.14-.02-.07-.02-.14-.02-.21v-3.09Zm1.99-3.47c0-.05,0-.1-.02-.15-.03-.08-.09-.15-.18-.18-.05-.02-.1-.02-.15-.02h-.47c-.05,0-.1,0-.15.02-.08.03-.15.09-.18.18-.02.05-.02.1-.02.15v2.48c-.15-.14-.32-.26-.51-.34-.09-.04-.18-.07-.28-.09-.09-.02-.18-.03-.28-.03-.12,0-.25.02-.36.06-.11.04-.21.11-.3.19-.09.1-.16.21-.2.34-.05.16-.08.33-.07.49v3.8c0,.17.02.33.07.49.04.13.11.24.2.34.08.09.18.15.3.19.12.04.24.06.36.06.09,0,.19-.01.28-.03.1-.02.19-.05.28-.09.19-.08.36-.19.51-.34v.05s0,.1.02.15c.01.04.04.08.07.11.03.03.07.06.11.07.05.02.1.03.15.02h.47c.05,0,.1,0,.15-.02.04-.01.08-.04.11-.07.03-.03.05-.07.07-.11.02-.05.02-.1.02-.15v-7.6Zm4,3.37c0-.2-.03-.4-.1-.59-.06-.16-.16-.31-.29-.42-.14-.12-.31-.2-.49-.25-.46-.11-.94-.11-1.41,0-.18.05-.35.13-.49.25-.13.11-.23.26-.29.42-.07.19-.1.39-.1.59v3.29c0,.2.03.4.1.6.06.16.16.31.29.42.14.12.31.2.49.25.23.06.47.09.7.08.24,0,.47-.02.7-.08.18-.05.35-.13.49-.25.13-.11.23-.26.29-.42.07-.19.1-.39.1-.59v-.25c0-.05,0-.1-.02-.15-.03-.08-.09-.15-.18-.18-.05-.02-.1-.02-.15-.02h-.47c-.05,0-.1,0-.15.02-.08.03-.15.09-.18.18-.02.05-.02.1-.02.15v.22c0,.07,0,.14-.03.21-.01.05-.04.1-.08.14-.04.04-.08.07-.13.08-.06.02-.12.03-.18.03-.06,0-.12,0-.18-.03-.05-.02-.09-.04-.13-.08-.04-.04-.06-.09-.08-.14-.02-.07-.03-.14-.02-.21v-1.18h1.58c.06,0,.12,0,.17-.03.1-.03.18-.11.21-.21.02-.06.03-.11.03-.17v-1.67Zm-1.99.03c0-.07,0-.14.02-.21.01-.05.04-.1.08-.14.04-.04.08-.06.13-.08.06-.02.12-.03.18-.02.06,0,.12,0,.18.02.05.01.09.04.13.08.04.04.06.09.08.14.02.07.03.14.03.21v1.17h-.82v-1.17Zm-20.26,14.46c.06,0,.12,0,.18-.03.05-.02.09-.04.13-.07.04-.03.07-.07.09-.11.02-.04.04-.09.04-.14l.78-4.64h.1l-.12,1.83v4.48c0,.07,0,.13.03.19.04.11.12.19.23.23.06.02.13.03.19.03h.55c.07,0,.13,0,.19-.03.11-.04.19-.12.23-.23.02-.06.03-.13.03-.19v-8.51c0-.06,0-.13-.03-.19-.02-.05-.05-.1-.09-.14-.04-.04-.09-.07-.14-.08-.06-.02-.12-.03-.19-.03h-1.27c-.06,0-.13,0-.19.03-.05.02-.1.04-.14.08-.04.04-.07.08-.09.13-.02.06-.04.12-.05.19l-.55,2.79-.3,2.22h-.12l-.31-2.22-.53-2.79c-.01-.06-.03-.13-.05-.19-.02-.05-.05-.09-.09-.13-.04-.04-.08-.06-.13-.08-.06-.02-.12-.03-.19-.03h-1.28c-.07,0-.13,0-.19.03-.05.02-.1.05-.14.08-.04.04-.07.09-.09.14-.02.06-.03.12-.03.19v8.51c0,.07,0,.13.03.19.04.11.12.19.23.23.06.02.13.03.19.03h.55c.07,0,.13,0,.19-.03.11-.04.19-.12.23-.23.02-.06.03-.13.03-.19v-4.48l-.11-1.83h.1l.77,4.64s.03.1.05.14c.02.04.05.08.09.11.04.03.08.06.13.07.06.02.12.03.18.03h.87Zm6.2-1.42v1.43c0,.09,0,.18-.03.27-.02.07-.05.13-.1.19-.05.05-.1.08-.17.1-.07.02-.15.03-.23.03-.08,0-.15,0-.22-.03-.06-.02-.12-.06-.16-.11-.04-.05-.07-.11-.09-.18-.02-.09-.03-.17-.03-.26v-.87c0-.09,0-.17.03-.26.02-.07.05-.13.09-.18.04-.05.1-.08.16-.1.07-.02.15-.03.22-.03h.52Zm-.52-1.1c-.3,0-.59.03-.88.1-.23.06-.44.16-.62.31-.16.14-.29.32-.37.52-.09.24-.13.49-.12.74v1.33c0,.21.03.42.09.62.05.16.14.3.25.42.1.11.23.19.37.24.14.05.3.08.45.08.12,0,.23-.01.35-.04.12-.03.24-.06.35-.11.24-.1.45-.24.64-.42v.06c0,.06,0,.12.03.18.02.05.05.1.08.14.04.04.09.07.14.09.06.02.12.03.19.03h.58c.06,0,.13,0,.19-.03.05-.02.1-.05.14-.09.04-.04.07-.09.08-.14.02-.06.03-.12.03-.18v-5.29c0-.25-.04-.5-.12-.74-.08-.2-.2-.38-.37-.52-.18-.15-.39-.25-.62-.31-.29-.07-.58-.11-.88-.11-.3,0-.59.03-.88.1-.23.06-.44.16-.62.31-.16.14-.29.32-.37.52-.09.24-.13.49-.12.74v.34c0,.07.01.13.04.2.02.05.05.1.09.14.04.04.09.07.14.08.06.02.13.03.19.03h.57c.06,0,.13,0,.19-.03.05-.02.1-.05.14-.08.04-.04.07-.09.08-.14.02-.06.03-.12.03-.19v-.3c0-.09,0-.17.03-.26.02-.07.05-.13.09-.18.04-.05.1-.08.16-.1.07-.02.15-.03.22-.03.08,0,.15,0,.23.03.06.02.12.05.16.1.05.05.08.11.1.18.02.08.03.17.03.26v1.4h-.52Zm6.99-1.75c0-.21-.03-.42-.09-.62-.05-.16-.14-.3-.25-.42-.1-.11-.23-.19-.37-.24-.14-.05-.3-.08-.45-.08-.12,0-.23.01-.35.04-.12.03-.24.06-.35.11-.12.05-.23.11-.33.18-.11.07-.21.15-.3.24v-.06c0-.06,0-.13-.03-.19-.02-.05-.05-.1-.09-.14-.04-.04-.09-.07-.14-.08-.06-.02-.13-.03-.19-.03h-.57c-.06,0-.13,0-.19.03-.05.02-.1.05-.14.08-.04.04-.07.09-.09.14-.02.06-.03.12-.03.19v6.47c0,.06,0,.13.03.18.02.05.05.1.09.14.04.04.09.07.14.09.06.02.13.03.19.03h.57c.06,0,.13,0,.19-.03.05-.02.1-.05.14-.09.04-.04.07-.09.09-.14.02-.06.03-.12.03-.18v-5.14c0-.09,0-.18.03-.27.02-.07.05-.13.1-.19.04-.05.1-.09.16-.11.07-.02.15-.04.23-.04.08,0,.15,0,.23.03.06.02.11.06.16.1.04.05.08.11.09.18.02.08.03.17.03.26v5.17c0,.06,0,.12.03.18.02.05.05.1.08.14.04.04.09.07.14.09.06.02.12.03.19.03h.58c.06,0,.13,0,.19-.03.05-.02.1-.05.14-.09.04-.04.07-.09.08-.14.02-.06.03-.12.03-.18v-5.61Zm4.45-.36s.01-.04.02-.05c0-.02,0-.04.01-.06s0-.04,0-.06,0-.05,0-.07v-.25c0-.06,0-.13-.03-.19-.03-.11-.12-.19-.22-.22-.06-.02-.13-.03-.19-.03h-2.94c-.06,0-.13,0-.19.03-.05.02-.1.05-.14.08-.04.04-.07.09-.09.14-.02.06-.03.12-.03.19v.25c0,.07,0,.13.03.19.04.11.12.19.23.23.06.02.13.03.19.03h1.71l-2.11,5.26s-.01.04-.02.06,0,.04-.01.06,0,.04,0,.06,0,.04,0,.07v.25c0,.07,0,.13.03.19.02.05.05.1.08.14.04.04.09.07.14.09.06.02.12.03.19.03h2.94c.06,0,.13,0,.19-.03.11-.04.19-.12.23-.23.02-.06.03-.13.03-.19v-.25c0-.06,0-.13-.03-.19-.02-.05-.05-.1-.09-.14-.04-.04-.09-.07-.14-.08-.06-.02-.13-.03-.19-.03h-1.71l2.11-5.27Zm3.2,3.22v1.43c0,.09,0,.18-.03.27-.02.07-.05.13-.1.18-.05.05-.1.08-.17.1-.07.02-.15.03-.23.03-.08,0-.15,0-.22-.03-.06-.02-.11-.05-.15-.1-.04-.05-.07-.11-.09-.18-.02-.09-.03-.17-.03-.26v-.87c0-.09,0-.17.03-.26.02-.07.05-.13.09-.18.04-.05.1-.08.16-.1.07-.02.15-.03.22-.03h.52Zm-.52-1.1c-.3,0-.59.03-.88.1-.23.06-.44.16-.62.31-.16.14-.29.32-.37.52-.09.24-.13.49-.12.74v1.32c0,.21.03.42.09.62.05.16.14.3.25.42.1.11.23.19.37.25.14.05.3.08.45.08.12,0,.23-.01.35-.04.12-.03.24-.06.35-.11.24-.1.45-.24.64-.42v.06c0,.06,0,.12.03.18.02.05.05.1.08.14.04.04.09.07.14.09.06.02.12.03.19.03h.58c.06,0,.13,0,.19-.03.05-.02.1-.05.14-.09.04-.04.07-.09.08-.14.02-.06.03-.12.03-.18v-5.3c0-.25-.04-.5-.12-.74-.08-.2-.2-.38-.37-.52-.18-.15-.39-.25-.62-.31-.58-.14-1.18-.14-1.76,0-.23.06-.44.16-.62.31-.16.14-.29.32-.37.52-.09.24-.13.49-.12.74v.34c0,.06,0,.13.03.19.02.05.05.1.09.14.04.04.09.07.14.08.06.02.13.03.19.03h.57c.06,0,.13,0,.19-.03.05-.02.1-.05.14-.08.04-.04.07-.09.09-.14.02-.06.03-.12.03-.19v-.3c0-.09,0-.17.03-.26.02-.07.05-.13.09-.18.04-.05.1-.08.16-.1.07-.02.15-.03.22-.03.08,0,.15,0,.23.03.06.02.12.05.16.1.05.05.08.11.1.18.02.08.03.17.03.26v1.4h-.51Zm6.98-1.75c0-.21-.03-.42-.09-.62-.05-.16-.14-.3-.25-.42-.1-.11-.23-.19-.37-.24-.14-.05-.3-.08-.45-.08-.12,0-.23.01-.35.04-.12.03-.24.06-.35.11-.12.05-.23.11-.33.18-.11.07-.21.15-.3.24v-.06c0-.06,0-.13-.03-.19-.02-.05-.05-.1-.09-.14-.04-.04-.09-.07-.14-.08-.06-.02-.13-.03-.19-.03h-.57c-.06,0-.13,0-.19.03-.05.02-.1.05-.14.08-.04.04-.07.09-.09.14-.02.06-.03.12-.03.19v6.46c0,.06,0,.13.03.18.02.05.05.1.09.14.04.04.09.07.14.09.06.02.13.03.19.03h.57c.06,0,.13,0,.19-.03.05-.02.1-.05.14-.09.04-.04.07-.09.09-.14.02-.06.03-.12.03-.18v-5.14c0-.09,0-.18.03-.27.02-.07.05-.13.1-.19.04-.05.1-.09.16-.11.07-.02.15-.04.23-.04.08,0,.15,0,.23.03.06.02.11.06.16.1.04.05.08.11.09.18.02.08.03.17.03.26v5.16c0,.06,0,.12.03.18.02.05.05.1.08.14.04.04.09.07.14.09.06.02.12.03.19.03h.58c.06,0,.13,0,.19-.03.05-.02.1-.05.14-.09.04-.04.07-.09.08-.14.02-.06.03-.12.03-.18v-5.61Zm3.53,2.86v1.43c0,.09,0,.18-.03.27-.02.07-.05.13-.1.18-.05.05-.1.08-.17.1-.07.02-.15.03-.23.03-.08,0-.15,0-.22-.03-.06-.02-.11-.05-.15-.1-.04-.05-.07-.11-.09-.18-.02-.09-.03-.17-.03-.26v-.87c0-.09,0-.17.03-.26.02-.07.05-.13.09-.18.04-.05.1-.08.16-.1.07-.02.15-.03.22-.03h.52Zm-.52-1.1c-.3,0-.59.03-.88.1-.23.06-.44.16-.62.31-.16.14-.29.32-.36.52-.08.24-.13.49-.12.74v1.32c0,.21.03.42.09.62.05.16.14.3.25.42.1.11.23.19.37.24.14.05.3.08.45.08.12,0,.23-.01.35-.04.12-.03.24-.06.35-.11.24-.1.45-.24.64-.42v.06c0,.06,0,.12.03.18.02.05.05.1.08.14.04.04.09.07.14.09.06.02.13.03.19.03h.58c.06,0,.13,0,.19-.03.05-.02.1-.05.14-.09.04-.04.07-.09.08-.14.02-.06.03-.12.03-.18v-5.28c0-.25-.04-.5-.12-.74-.08-.2-.2-.38-.36-.52-.18-.15-.39-.25-.62-.31-.58-.14-1.18-.14-1.75,0-.23.06-.44.16-.62.31-.16.14-.29.32-.36.52-.08.24-.13.49-.12.74v.34c0,.06,0,.13.03.19.02.05.05.1.09.14.04.04.09.07.14.08.06.02.13.03.19.03h.57c.06,0,.13,0,.19-.03.05-.02.1-.05.14-.08.04-.04.07-.09.09-.14.02-.06.03-.12.03-.19v-.3c0-.09,0-.17.03-.26.02-.07.05-.13.09-.18.04-.05.1-.08.16-.1.07-.02.15-.03.22-.03.08,0,.15,0,.23.03.06.02.12.05.16.1.05.05.08.11.1.18.02.08.03.17.03.26v1.41h-.52Zm6.88,2.68c0-.22-.01-.45-.05-.67-.03-.18-.08-.35-.15-.51-.07-.15-.17-.3-.28-.43-.13-.15-.27-.29-.42-.42l-1.07-.99c-.11-.11-.2-.19-.27-.27-.06-.07-.12-.14-.16-.22-.04-.08-.06-.16-.08-.24-.01-.11-.02-.22-.02-.33,0-.09,0-.17.03-.26.02-.07.05-.13.1-.18.04-.05.1-.08.16-.1.07-.02.15-.03.23-.03.07,0,.15,0,.22.03.06.02.11.05.16.1.05.05.08.11.09.18.02.08.03.17.03.26v.56c0,.06,0,.13.03.19.02.05.05.1.09.14.04.04.09.07.14.08.06.02.13.03.19.03h.57c.06,0,.13,0,.19-.03.05-.02.1-.05.14-.08.04-.04.07-.09.09-.14.02-.06.03-.12.03-.19v-.6c0-.25-.03-.5-.12-.74-.08-.2-.2-.38-.36-.52-.18-.15-.39-.25-.62-.31-.58-.14-1.18-.14-1.76,0-.23.06-.44.16-.62.31-.16.14-.29.32-.36.52-.08.24-.12.49-.12.74,0,.22.01.45.04.67.03.18.08.35.15.51.07.15.16.3.27.43.13.15.27.29.42.42l1.07.99c.11.1.2.19.27.27.06.07.12.14.16.22.04.08.06.16.08.24.01.11.02.22.02.33,0,.09,0,.17-.03.26-.02.07-.05.13-.09.18-.04.05-.1.08-.16.1-.07.02-.15.03-.22.03-.08,0-.15,0-.23-.03-.06-.02-.12-.05-.16-.1-.05-.05-.08-.11-.1-.18-.02-.08-.03-.17-.03-.26v-.57c0-.06,0-.13-.03-.19-.02-.05-.05-.1-.08-.14-.04-.04-.09-.07-.14-.09-.06-.02-.12-.03-.19-.03h-.58c-.06,0-.13,0-.19.03-.05.02-.1.05-.14.09-.04.04-.07.09-.08.14-.02.06-.03.13-.03.19v.6c0,.25.03.5.12.74.07.2.2.38.36.52.18.15.39.25.62.31.29.07.59.11.88.1.3,0,.59-.03.88-.1.23-.06.44-.16.62-.31.16-.14.29-.32.36-.52.08-.23.13-.48.12-.73h0Z" fill="#edf4f9"/>
  </g>
</svg>