<?xml version="1.0" encoding="UTF-8"?><svg id="Layer_2" xmlns="http://www.w3.org/2000/svg" viewBox="0 0 72.3 193.7"><g id="Layer_1-2"><g><path d="M36.15,87.35c-18.11,0-32.8-3.37-32.8-7.54v29.31c0,4.16,14.68,7.54,32.8,7.54s32.8-3.37,32.8-7.54v-29.31c0,4.16-14.68,7.54-32.8,7.54Z" fill="#85b4d8"/><path d="M36.15,100.63c-5.83,0-11.68-.29-17.47-1.01-4.29-.53-8.63-1.26-12.75-2.62-1.39-.46-2.82-.98-4.07-1.76C-.23,93.92,0,96.71,0,98.12v79.82c0,4.87,2.73,9.09,6.74,11.24,4.76,2.66,16.13,4.53,29.41,4.53s24.64-1.87,29.41-4.53c4.01-2.14,6.74-6.37,6.74-11.24V97.63c0-.55,0-1.1,0-1.64,0-2.08-1.86-.7-2.96-.17-1.02,.49-2.08,.89-3.16,1.24-9.52,3.1-20.1,3.57-30.03,3.57Z" fill="#91bcdb"/><path d="M65.86,76.58c-2.02-.86-4.46-1.63-7.22-2.27-1.35-.31-2.78-.59-4.26-.84-2.04-.34-3.5-.32-3.52-1.12-.01-.61,0-1.22,0-1.83v-2.84H21.26v2.89c0,.61,.1,1.24,0,1.85-.13,.79-1.91,.77-3.87,1.11-1.47,.25-2.88,.54-4.21,.85-2.73,.65-5.13,1.42-7.11,2.29-2.48,1.09-5.98,2.9-5.98,6.02v5.76c.01,.11,.02,.23,.04,.34,.42,4.5,16.41,8.13,36.11,8.13,8.05,0,16.21-.49,24.11-2.12,2.61-.54,5.25-1.2,7.71-2.25,.88-.37,1.74-.8,2.52-1.35,1.7-1.2,1.64-3.34,1.64-5.22v-3.33c0-2.16-2.24-4.3-6.35-6.05Z" fill="#91bcdb"/><path d="M36.15,56.7c-15.92,0-28.82-2.97-28.82-6.62v25.76c0,3.66,12.9,6.62,28.82,6.62s28.82-2.97,28.82-6.62v-25.76c0,3.66-12.9,6.62-28.82,6.62Z" fill="#85b4d8"/><path d="M58.64,29.96c-1.35-.77-2.78-1.47-4.26-2.08-2.04-.84-3.5-.79-3.52-2.77-.01-1.51,0-3.02,0-4.53v-7.04H21.26v7.16c0,1.52,.1,3.06,0,4.58-.13,1.94-1.91,1.91-3.87,2.74-1.47,.62-2.88,1.33-4.21,2.11-2.73,1.6-5.13,3.51-7.11,5.65C2.7,39.43,.65,43.71,.09,48.13v18.51c.01,.11,.02,.23,.04,.34,.42,4.5,16.41,8.13,36.11,8.13,8.05,0,16.21-.49,24.11-2.12,2.61-.54,5.25-1.2,7.71-2.25,.88-.37,1.74-.8,2.52-1.35,1.7-1.2,1.64-3.34,1.64-5.22v-13.6c0-5.36-2.24-10.63-6.35-14.98-2.02-2.14-4.46-4.04-7.22-5.62Z" fill="#91bcdb"/><path d="M36.15,110.43C16.19,110.43,0,106.71,0,102.12v62.5c0,4.59,16.18,8.31,36.15,8.31s36.15-3.72,36.15-8.31v-62.5c0,4.59-16.18,8.31-36.15,8.31Z" fill="#cbcdce"/><path d="M21.02,1.15c.73,.55,1.62,.97,2.56,1.27,1.72,.54,3.59,.71,5.44,.84,6.03,.42,12.16,.51,18.1-.38,1.28-.19,2.59-.44,3.6-1.06,.35-.22,.66-.49,.89-.79-4.63-.64-9.87-1.01-15.47-1.01s-10.72,.36-15.3,.99c.06,.06,.12,.12,.17,.16Z" fill="#ab1f23"/><path d="M20.93,.97h30.44c2.57,0,4.66,2.09,4.66,4.66v11.47c0,.6-.49,1.09-1.09,1.09H17.36c-.6,0-1.09-.49-1.09-1.09V5.63c0-2.57,2.09-4.66,4.66-4.66Z" fill="#d72028"/><path d="M18.2,20.04H54.1c1.07,0,1.93,.86,1.93,1.93v.57c0,.25-.2,.45-.45,.45H16.73c-.25,0-.45-.2-.45-.45v-.57c0-1.07,.86-1.93,1.93-1.93Z" fill="#91bcdb"/><path d="M23.8,139.39c.57-1.32,4.05-13.4,4.8-15.98l21.27-2.43-3.65,7.6,7.9-3.65s-24.61,37.07-24.61,37.07c.09-1.43,1.48-24.43,1.62-25.73l-7.22,3.11" fill="#d72028"/></g></g></svg>