<?xml version="1.0" encoding="UTF-8"?><svg id="Layer_2" xmlns="http://www.w3.org/2000/svg" viewBox="0 0 98.57 101.16"><g id="Layer_1-2"><g id="Group_2558"><ellipse id="Ellipse_1690-2" cx="49.28" cy="51.2" rx="48.11" ry="10.85" fill="#90bcdb"/><g id="Group_2557"><circle id="Ellipse_1691-2" cx="54.41" cy="43.5" r="17.35" fill="#ee9cb0"/><ellipse id="Ellipse_1692-2" cx="57.5" cy="49.72" rx="19.83" ry="7.93" transform="translate(-8.78 12.5) rotate(-11.53)" fill="#ee9cb0"/></g><circle id="Ellipse_1693-2" cx="68.51" cy="60.12" r="17.35" fill="#fff1e5"/><circle id="Ellipse_1694-2" cx="32.6" cy="53.98" r="17.35" fill="#6c4f39"/><path id="Path_13506" d="M51.2,9.19c-.79-3.89,1.72-7.68,5.6-8.47,.91-.19,1.86-.19,2.77-.02" fill="none" stroke="#68be63" stroke-linecap="round" stroke-miterlimit="10" stroke-width="1.16"/><circle id="Ellipse_1695-2" cx="52.43" cy="13.25" r="4.63" fill="#d72028"/><ellipse id="Ellipse_1696-2" cx="32.01" cy="59.84" rx="7.93" ry="19.82" transform="translate(-31.85 82.81) rotate(-81.64)" fill="#6c4f39"/><path id="Path_13507" d="M49.84,62.05c-21.08,0-39.41-4.55-48.76-11.24-.33,2.06-.5,4.14-.5,6.22,0,24.05,21.81,43.54,48.71,43.54s48.71-19.5,48.71-43.54c0-1.85-.14-3.7-.41-5.54-9.63,6.31-27.39,10.56-47.74,10.56Z" fill="#bed7ea" stroke="#bed7ea" stroke-linecap="round" stroke-linejoin="round" stroke-width="1.16"/><path id="Path_13508" d="M49.6,59.52c-1.51,.44-2.9-1.27-2.95-2.85s.72-3.05,1.07-4.59,.1-3.47-1.3-4.19c-2.38-1.23-6.8,2.93-8.67,.5-.97-1.26,.59-2.79,1.41-3.64,.93-.97,1.7-2.31,.2-2.67-1.26-.05-2.51,.22-3.63,.8-2.11,1.06-4.1,2.34-5.94,3.83-3.49,2.44-4.49-.83-3.19-3.73,1.23-2.36,3.01-4.37,5.2-5.88" fill="none" stroke="#1c1610" stroke-linecap="round" stroke-miterlimit="10" stroke-width="2.31"/><path id="Path_13509" d="M53.9,27.97c-4.24,.27-6.09,6.65-7.6,9.83,.04-.09,3.08-1.2,3.51-1.55,1.09-.96,2.13-1.98,3.1-3.06,2.38-2.32,5.69-3.41,8.98-2.95-2.54,1.78-4.69,4.06-6.31,6.7-.75,1.39-1.25,2.9-1.47,4.46-.27,1.6-.88,3.12-1.79,4.46-.13,.21,1.41-.22,1.52-.28,.49-.41,.95-.85,1.37-1.33,2.64-2.3,6.06-5.84,9.91-5.31,2.08,.36,3.88,1.64,4.92,3.48-1.62,1.03-3.34,2.44-4.93,3.63-1.83,1.4-3.03,3.49-3.31,5.78-.11,.97,.09,2.18,1.01,2.52,1.13,.41,2.1-.81,2.84-1.76,3.14-3.8,8.47-4.98,12.92-2.85" fill="none" stroke="#1c1610" stroke-linecap="round" stroke-linejoin="round" stroke-width="2.31"/><path id="Path_13510" d="M43.03,26.19c.33-.54,.87-1.15,.59-1.74-.12-.2-.27-.37-.46-.51-.95-.88-1.06-2.91,.14-3.31,.65-.22,1.38,.15,2.03-.07,2.01-.7,1.18-4.59,4.09-4.4,.43,.07,.84,.19,1.23,.37,2.02,.67,2.65-.57,4.4-.92,1.82-.27,3.59,.69,4.36,2.36,.21,.66,.48,1.29,.82,1.89,.69,.74,1.58,1.25,2.56,1.49,1.53,.52,2.84,1.56,3.68,2.94,.85,1.47,.7,3.32-.38,4.63-.97,.84-2.29,1.16-3.54,.85-1.23-.23-2.39-.79-3.6-1.14-1.8-.44-3.65-.64-5.51-.6-1.71-.14-3.44,.04-5.09,.53-1.22,.45-3.36,2.09-4.71,1.46-1.23-.57-1.26-2.77-.62-3.81Z" fill="#fff1e5"/></g></g></svg>