<?xml version="1.0" encoding="UTF-8"?>
<svg id="b" data-name="Layer 2" xmlns="http://www.w3.org/2000/svg" viewBox="0 0 272.81 304.01">
  <g id="c" data-name="Layer 1">
    <path d="m33.49,6.81c.11,1.35-.13,3.23-.39,5.21-.11.83-.21,1.65-.3,2.46-.32,2.95-1.31,11.91,4.26,18.79,2.13,2.63,3.04,4.36-1.43,11.89-1.43,2.41-2.83,4.84-4.24,7.28-3.49,6.05-6.78,11.77-10.51,17.14-5.87,8.17-11.26,16.8-16.02,25.67l-.08.15C2.65,99.52.43,104.48.05,109.97c-.5,7.33,2.57,13.85,8.66,18.37,3.22,2.39,7.34,3.76,11.31,3.76,1.92,0,3.75-.33,5.43-.95,1.87.4,3.78.81,5.74,1.14-.79,4.21-1.99,7.77-3.71,11.13-3.54,6.9-3.95,13.12-1.22,18.48.85,1.68,1.97,3.17,3.33,4.46-1.1,2.02-1.95,4.19-2.52,6.45l-.04.17-.04.17c-1.88,8.7,3.27,14.99,6.35,18.75.6.73,1.16,1.42,1.56,1.98,1.69,2.37,2.33,5.86,1.75,7.28-6.02,14.75-2.3,29.07,10.48,40.33,1.51,1.4,2.96,2.89,4.33,4.43l.16.18c5.34,5.76,12.22,9.07,21.03,10.13,2.93.35,5.92.52,9.14.52,6.77,0,13.3-.77,19.62-1.51,4.62-.54,8.98-1.05,13.32-1.27,3.79-.19,7.55-.5,11.19-.8,5.64-.47,10.97-.91,16.26-.91,4.04,0,7.61.27,10.92.81.29.05.51.1.67.14.01.04.07.23.07.23,2.35,8.09,5.68,15.89,9.89,23.19,3.57,6.46,6.41,13.32,8.45,20.42.59,2.37,1.39,4.69,2.33,6.93h98.3V0H33.88c-.59,2.2-.75,4.52-.39,6.81Z" fill="#468ec1"/>
    <path id="d" data-name="Path 5046" d="m272.81.54c-.23-.22-.49-.41-.78-.54H44.91c-1.33,1.49-1.88,3.52-1.51,5.48.37,3.3-.3,6.74-.66,10.09-.44,4.05-.32,8.42,2.09,11.39,6.65,8.2,3.95,15.62-.6,23.29-4.98,8.39-9.62,17.09-15.17,25.08-5.66,7.87-10.8,16.1-15.39,24.63-3.56,6.91-6.49,14.77,1,20.34,2.64,1.96,7.19,2.67,8.99.25,6.15,1.23,11.65,2.81,17.83,2.46.25-.01.5-.04.74-.06-.42,8.67-1.76,17.01-5.86,25.02-4.23,8.26-1.23,12.83,8.07,14.3,1.93-.05,3.85-.31,5.72-.77-1.88.46-3.79.72-5.72.77.27.59.67,1.12,1.17,1.55-4.41,2.42-7.62,6.56-8.85,11.44-1.1,5.09,3.55,8.99,6.28,12.81,3.22,4.52,5.04,11.53,2.87,16.86-4.74,11.62-1.18,21.15,7.91,29.13,1.8,1.66,3.51,3.41,5.13,5.24,4.03,4.35,8.99,6.29,14.88,6.99,13.65,1.63,26.94-1.65,40.4-2.31s26.91-3.02,40.49-.78c4.69.77,7.46,2.93,8.71,7.45,2.14,7.36,5.16,14.43,8.99,21.06,3.99,7.2,7.15,14.84,9.41,22.76.82,3.33,2.08,6.53,3.77,9.52h87.2V.54Z" fill="#fff"/>
    <rect id="e" data-name="Rectangle 183" x="218.54" y="213.06" width="1.16" height="1.16" rx=".58" ry=".58" fill="#dcb088"/>
    <path id="f" data-name="Path 5048" d="m60.91,169.1c-1.02-2.52-2.09-5.14-1.68-8.28.06-.46,1.29-6.5,1.24-6.51-4.47-1.54-2.05-4.9-1.79-7.49.25-2.41,1.13-4.78-.21-7.07-.42-.73-1.28-.67-1.93-.1-2.03,1.73-3.13,4.32-2.96,6.98,0,1.12.09,2.24.25,3.35,1.81,9.68.2,11.8-9.38,12.31,1.48,3.29,6.69,3.47,8.88,7.13,1.12,1.88,1.27,4.91,1.66,7.01.38,2.06.06,8.71,1.37,9.93.89.78,2.23.76,3.1-.05,1.4-1.41.04-4.34,1.39-6.34,2.79-4.13,1.47-7.4.06-10.88Z" fill="#f6b1b9"/>
    <path id="g" data-name="Path 5049" d="m179.07,183.64c1.28-6.65,3.63-12.26,1.07-19.11-1.75-4.67-4.96-6.9-8.18-10.37-3.02-3.25-5.46-6.29-9.4-8.67-8.65-5.21-18.97-6.93-29.06-7.27-19.36-.65-39.36,3.73-55.01,15.16-2.6,1.71-4.8,3.96-6.46,6.59-5.06,8.92,3.4,16.41,10.5,20.18,4.12,2.19,12.87,8.51,12.85,13.76,2.05-.26,3.52.92,5.12,1.94,25.57,16.27,54.89,15.35,79.58-2.54,1.28-1.11,2.92-1.7,4.61-1.65,2.24-6.51.61-8.82-5.62-8.01Z" fill="#ee6e7f"/>
    <path id="h" data-name="Path 5050" d="m217.51,224.23c2.74.53,2.34,2.68,2.05,4.45-2.45,15.09-.11,29.82,2.91,44.56.8,3.92,1.78,8.02.43,12.1-8.75,3.1-18.04,4.84-25.86,10.28-4.87-1.75-5.39-5.89-5.63-10.19,2.22.24,3.39-.92,4.2-2.86,1.07-2.56,2.29-5.07,3.51-7.56.4-.81,1.3-1.61.6-2.47-.79-.89-2.13-1.02-3.07-.28-2.23,1.64-4.29,3.52-6.41,5.31-2.31.19-4.48-1.09-5.45-3.19-2.83-5.03-5.53-10.12-9.93-14.08-2.54-2.29-1.62-5.08-.39-7.73,1.53-1.16.93-2.88,1.15-4.39,1.91-1.51,1.9-3.99,2.99-5.91,2.08-3.67,4.42-7.29,9.4-6.54,6.78,1.02,13.8.81,20.27,3.4,2.91,1.17,3.93.43,4.7-2.45,1.13-4.25,1.27-8.93,4.51-12.45Z" fill="#fff"/>
    <path id="i" data-name="Path 5051" d="m217.51,224.23c-3.24,3.51-3.38,8.19-4.52,12.45-.77,2.88-1.79,3.62-4.7,2.45-6.47-2.59-13.49-2.38-20.27-3.4-9.26-1.4-9.97,11.54-13.06,17.18-.22.46-.73.69-1.22.56-.42-.17-1.36-9-1.6-10.28l-2.29-11.9c-.29-1.2-.5-2.42-.62-3.65-.05-.56.22-1.09.7-1.38.81-.42,3.5.58,4.55.55,3.15-.11,6.26-.73,9.22-1.81,5.93-2.17,11.06-6.05,15.73-10.21,3.91-3.49,7.13-8.3,13.17-8.64l4.9,18.08Z" fill="#dcb088"/>
    <path id="j" data-name="Path 5052" d="m212.61,206.14c-6.05.33-9.26,5.15-13.17,8.64-8.16,7.27-16.87,12.85-28.39,11.95-.35-.04-.7-.04-1.05,0-1.36-2.21-1.06-4.68-1.21-7.11-.19-3.15,1.08-4.58,4.25-4.23,3.32.36,5.88-.65,7.39-3.84.37-1.13,1.54-1.8,2.7-1.55,1.69.46.83,1.71.69,2.75-.13.92-.28,2.03,1.11,2.04,1-.04,1.78-.86,1.78-1.86.24-2.32.24-4.71,3.64-4.31,2.17,3.7,4.86,3.2,7.86,1.07,3.51-2.5,7.05-4.97,10.67-7.3,1.26-.94,2.97-.99,4.28-.13,1.7,1.34.06,2.64-.54,3.9Z" fill="#fff"/>
    <path id="k" data-name="Path 5053" d="m190.25,277.57c2.13-1.79,4.18-3.66,6.41-5.31.94-.73,2.28-.61,3.07.28.7.86-.2,1.65-.6,2.47-1.23,2.49-2.45,5-3.51,7.56-.81,1.94-1.98,3.1-4.2,2.86.32-2.73-.43-5.29-1.16-7.86Z" fill="#dcb088"/>
    <path id="l" data-name="Path 5054" d="m164.35,136.26s-.01-.02-.02-.03h-.03l.05.03Z" fill="#dcb088"/>
    <path id="m" data-name="Path 5055" d="m160.96,135.09s-.01-.01-.02-.02h-.02l.04.02Z" fill="#dcb088"/>
    <path id="n" data-name="Path 5056" d="m157.58,133.97s-.01-.01-.02-.02h-.02l.04.02Z" fill="#dcb088"/>
    <path id="o" data-name="Path 5057" d="m173.41,130.36c-3.53-1.14-6.98-2.54-10.31-4.18h.06c-1.58-.16-3.34.39-4.57-1.15l-.04.08-17.01.04c.19-1.74-1.63-3.39-3.48-3.48-2.62-.13-4.22,2.25-6.55,2.38-2.91.16-6.26-1.93-9.2-2.32-6.78-.9-13.62-1.33-20.46-1.29-12.57.07-23.81,2.42-36.24.06-4.55-.86-9.18-1.25-13.76-1.96-3.74-.58-7.01.05-9.54,3.09-.35,9.14-1.61,17.92-5.93,26.34-4.23,8.26-1.23,12.83,8.07,14.3,9.58-.51,11.19-2.63,9.38-12.31-.16-1.11-.25-2.23-.25-3.35-.17-2.66.93-5.25,2.96-6.98.65-.57,1.5-.63,1.93.1,1.33,2.29.45,4.66.21,7.07-.27,2.6-2.68,5.95,1.79,7.49,1.43-1.39,1.63-2.91,1.51-4.99-.35-5.96-2.39-13.71-1.22-19.56,1.36-6.82,7.09-3.22,11.43-2.58,4.71.69,9.73.85,14.5,1.27,10.49.93,21.03,1.01,31.53.24,7.87-.58,15.77-.78,23.65-1.13,3.94-.18,13.26-1.26,16.39,1.38-1.98,1.16-4.45.51-6.66.45-1.17-.13-2.36-.07-3.51.18-1.07.45-2.03,1.12-2.82,1.97,2.99,1.74,8.09,1.68,11.54,2.92,9.94,3.56,18.51,10.15,24.51,18.83,2.35,3.43,6.1,11.74,11.8,8.38,2.08-1.22,3.66-5.58,4.21-7.84,1.64-6.73-2.56-13.79-8.32-17.65-4.1-2.54-8.62-4.31-13.36-5.22-.78-.18-1.53-.38-2.25-.59Z" fill="#dcb088"/>
    <path id="p" data-name="Path 5058" d="m184.76,156.74c2.14,3.02,4.39,5.74,8.64,3.46,1.58-.16,2.32.54,2.62,2.13.45,2.56,1.39,5.02,2.78,7.22,2.44,3.84.51,9.3-3.59,11.18-2.27,1.04-3.91.81-4.87-1.78-1.05-2.82-2.47-5.51-3.58-8.25-1.12-2.79-.79-5.9-1.74-8.78-.53-1.61-2.87-3.35-.26-5.18Z" fill="#ee6e7f"/>
    <path id="q" data-name="Path 5059" d="m178.68,50.46c4.83-.15,7.44,1.38,8.99,4.58,2.62,5.43,6.84,7.2,12.82,6.79,7.14-.49,8.92.9,9.79,7.71.81,6.04-.9,12.14-4.73,16.88-3.26,4.06-8.35,4.36-15,1.37-6.13-2.76-11.68-6.6-17.85-9.38-8.02-3.6-9.61-11.49-10.45-19.27-.27-2.38,1.23-4.6,3.54-5.22,4.68-1.33,9.4-2.51,12.9-3.44Z" fill="#f6b1b9"/>
    <path id="r" data-name="Path 5060" d="m72.89,44.01c-2.6-.05-4.92-1.66-5.88-4.08-3.03-6.33-4.2-13.18-5.45-19.98-.47-2.3.46-4.66,2.37-6.01,1.91-1.31,3.9.26,5.05,1.39,5.26,5.15,13.16,7.48,15.92,15.32,2.26,6.44,1.78,8.08-4.61,10.86-2.38,1.03-4.93,1.68-7.41,2.51Z" fill="#f6b1b9"/>
    <path id="s" data-name="Path 5061" d="m171.04,227.76v.04l.05.05-.05-.09Z" fill="#f9ece5"/>
    <path id="t" data-name="Path 5062" d="m76.13,188.43c.07.65.14,1.29.21,1.94-.97-.27-1.23-1.03-1.31-1.91.35-.11.73-.12,1.09-.03Z" fill="#f9ece5"/>
    <path id="u" data-name="Path 5063" d="m89.73,147.61l1.17-1.16-1.17,1.16Z" fill="#e6b19e"/>
    <path id="v" data-name="Path 5064" d="m163.45,250.66c2.14,7.36,5.17,14.43,9,21.06,3.99,7.2,7.15,14.84,9.41,22.76.82,3.33,2.08,6.53,3.77,9.52h11.69c.1-2.4.03-4.8-.21-7.19-.02-.4-.04-.79-.05-1.19-4.87-1.74-5.39-5.89-5.63-10.19.32-2.73-.43-5.29-1.17-7.86-2.31.19-4.48-1.09-5.45-3.19-2.83-5.03-5.53-10.12-9.93-14.08-2.54-2.29-1.62-5.08-.39-7.73-.78-6.44-1.56-12.89-2.33-19.33-.02-.21,0-.42.07-.62-1.46-1.35-1.09-3.14-1.18-4.82l-1.05-1.08c-1.36-2.21-1.06-4.68-1.21-7.11-.19-3.15,1.08-4.58,4.25-4.23,3.32.36,5.88-.65,7.39-3.84.37-1.13,1.54-1.8,2.7-1.55,1.69.46.83,1.71.69,2.75-.13.92-.28,2.03,1.11,2.04.99-.04,1.78-.86,1.78-1.86.24-2.32.24-4.71,3.64-4.31-.19-1.8-.64-3.51-2.98-2.99-4.49.99-4.21-2.17-3.63-4.61.66-3.07.98-6.21.96-9.35-1.69-.04-3.33.55-4.61,1.65-24.69,17.89-54.01,18.81-79.58,2.54-1.6-1.02-3.07-2.2-5.12-1.94-3.66,4.4-7.43,2.38-10.77-.2-2.48-1.92-4.92-3.4-8.09-3.43-.04,6.36,1.54,12.5,2.54,18.72,1.14,7.11,1.48,14.15-4.43,19.87-2.76,2.67-5.46,2.89-8.62,1.17-7.12-3.86-9.01-8.41-6.5-16.17,1.59-4.93,4.4-16.26,3.4-23.99-.16-2.1-.91-4.12-2.15-5.82-1.02-1.21-3.71.23-4.83-2.07-2.29-4.68.96-16.26-4.35-18.96-1.74-.88-3.87-.28-5.61.62-4.58,2.39-7.93,6.62-9.2,11.63-1.1,5.09,3.55,8.99,6.28,12.81,3.22,4.52,5.04,11.53,2.87,16.86-4.74,11.62-1.18,21.15,7.92,29.13,1.8,1.66,3.51,3.41,5.13,5.24,4.03,4.35,8.99,6.29,14.88,6.99,13.65,1.63,26.94-1.65,40.4-2.31s26.91-3.02,40.49-.78c4.69.77,7.45,2.93,8.71,7.44Z" fill="#dcb088"/>
    <path id="w" data-name="Path 5065" d="m180.26,177.73c-.52,1.94-.92,3.91-1.18,5.9,6.24-.81,7.86,1.5,5.62,8.01.02,3.14-.3,6.28-.96,9.35-.57,2.44-.86,5.6,3.63,4.61,2.34-.51,2.78,1.2,2.98,2.99,2.17,3.7,4.86,3.2,7.86,1.07,3.51-2.5,7.05-4.97,10.67-7.3,1.26-.94,2.97-.99,4.28-.13,1.71,1.34.06,2.64-.53,3.9l4.9,18.09c2.74.53,2.34,2.68,2.05,4.45-2.45,15.09-.11,29.82,2.91,44.56.8,3.92,1.78,8.02.43,12.1.02,1.54.04,3.08.07,4.62,3.24,2.2,3.78,5.36,3.17,8.92-.34,2.26,1.33,3.54,2.4,5.11h18.02c-1-12.79-2.92-25.46-5-38.11-3.55-21.67-7.81-43.21-12.92-64.56-3.34-13.97-6.01-28.22-10.86-41.67-3.22-8.77-5.86-17.74-7.89-26.86-1.29-5.95-1.19-15.68-4.51-20.71-2.61-3.95-7.49-5.17-11.51-7.19-5.04-2.53-10.48-4.29-15.23-7.32-7.44-4.74-7.77-13-14.25-18.2-6-4.81-8.64-11.21-9.06-18.63-.24-4.15-2.15-5.3-6.17-5.14-20.61.82-41.24,1.63-61.48-3.79-11.22-3-23.36,5.99-31.61,12.52-9.38,7.42-17.64,16.16-24.51,25.95-2.73,3.64-4.89,7.68-6.39,11.97-1.82,5.81-1.67,12.27-1.6,18.27,6.2,1.24,11.72,2.83,17.94,2.49,6.46-.36,11.9-3.89,18.59-1.86,8.53,2.59,18.2,1.88,27.07,2.26l62.92,2.68c18.92.81,44.76,10.47,43.31,34.09,1.59-.16,2.32.53,2.62,2.13.45,2.56,1.39,5.02,2.78,7.22,2.44,3.84.51,9.3-3.59,11.18-2.27,1.04-3.91.81-4.87-1.78-1.01-2.72-2.56-5.36-3.53-8.03-1.04-2.88-.63-6.1-1.79-9-.53-1.6-2.87-3.35-.26-5.19-4.38-9.17-13.69-18.63-23.15-22.51-10.36-4.25-21.9-2.83-32.77-2.19-14.26.83-28.52,3.26-41.43,9.6-5.12,2.57-9.67,6.13-13.38,10.49-3.47,4.01-8.19,9.14-8.72,14.67-.5,5.17,3.73,9.72,6.46,13.65,1.73,2.49,2.22,7.51,4.32,9.45.9.83,3.21.72,4.47,1.25,1.46.67,2.82,1.52,4.06,2.55,3.34,2.58,7.11,4.6,10.77.2,1.98-2.38-1.12-7.03-2.74-8.46-1.84-1.42-3.79-2.69-5.82-3.81-3.94-2.5-7.91-4.99-11.22-8.32-1.98-2-3.31-2.03-4.1-4.97-.68-2.5-.86-5.29.7-7.52,1.74-2.49,4.68-4.63,7.06-6.47,4.99-3.79,10.49-6.85,16.35-9.08,9.63-3.54,19.74-5.58,29.99-6.04,10.5-.64,21.34-.08,31.01,4.06,6.44,2.68,11.98,7.15,15.96,12.89,1.54,2.3,2.01,5.06,3.06,7.57,2.26,5.42,6.74,7.64,4.62,14.01Z" fill="#f6b1b9"/>
    <path id="x" data-name="Path 5066" d="m168.87,81.18c.37-.11.74-.21,1.11-.32,5.94,10.55,15.3,15.76,25.28,20.38,5.86,2.71,11.5,6.47,11.93,14.86-8.25-2.94-16.74-.57-25.09-1.31-2.24-.2-4.5.05-6.53-1.31-1.83-3.62-5.2-6.45-7.5-9.57-2.38-3.21-2.3-6.51-2.38-10.52-.05-2.33.39-11.43,3.18-12.23Z" fill="#ee6e7f"/>
    <path id="y" data-name="Path 5067" d="m272.81,284.28h-.79c-12.35.01-12.23,0-14.48-12.1-.56-3,.36-3.77,2.98-3.71,4.23.08,8.24-1.12,12.29-2.05v-12.38c-4.71,1.4-9.46,2.72-14.11,4.29-3.19,1.08-4.92.75-5.2-3.12-.21-4.68-1.44-9.25-3.58-13.41-1.41-2.61-1.53-5.71,2.26-5.9,7.34-.37,13.9-3.19,20.63-5.53V.54c-.23-.22-.49-.41-.78-.54H70.57c1.24,7.83,5.15,13.94,11.03,19.36,5,4.62,8.81,10.39,11.09,16.81,3.35,9.46,10.56,12.17,19.58,13.19,10.87,1.24,21.75,1.1,32.63,1.01,12.6-.11,25.05-1.67,37.03-5.73,4.04-1.37,6.09-.9,7.51,3.52,1.95,5.67,8.13,8.68,13.8,6.73.15-.05.3-.11.45-.17,1.64-.62,2.09-1.85,2.41-3.44.91-4.53,3.4-5.64,7.24-2.76,4.98,3.74,9.54,8.01,10.72,14.65.89,4.97,1.67,9.97,2.78,14.9,1.74,7.7,4,15.12,8.36,21.97,2.99,4.7,4.19,10.42,4.74,16.08.68,6.92-4.79,1.64-7.06-.99-2.72-3.16-4.93-6.75-8.2-9.4-5.04-4.08-11.2-6.45-17.49-7.82-9.11-1.99-17.25-5.62-25.33-10.17-6.68-3.77-14.35-7.4-18.72-14.11-3.04-4.84-4.65-10.43-4.65-16.14,0-3.69-3.07-4.24-5.94-4.71-5.05-.84-10.62.44-15.72.6-5.71.17-11.42.02-17.12-.35-11.23-.86-22.41-2.3-33.49-4.31-3.46-.59-6.61-.62-9.81,1.06-9.48,4.96-18.89,10.2-27.4,16.75-6.43,4.93-11.43,10.89-16.07,17.53-1.62,2.31-3.16,4.67-4.62,7.09-.05.09-3.54,5.1-3.75,4.45-1-3.15,5.03-10.35,6.73-13.02,3.07-4.79,6.81-9.15,9.89-13.89,3.2-4.94,5.83-10.39,8.87-15.45,5.77-9.62,10.49-19.4,2.25-30.15-.54-.98-.92-2.05-1.1-3.16-1.97-6.54-.86-13.25-1.07-19.88h-5.42c-1.19.85-1.69,2.56-1.36,5.47.37,3.3-.29,6.74-.66,10.1-.44,4.05-.32,8.42,2.09,11.39,6.65,8.2,3.95,15.62-.6,23.29-4.98,8.39-9.62,17.09-15.17,25.08-5.66,7.87-10.8,16.1-15.39,24.63-3.56,6.91-6.49,14.77,1,20.34,3.38,2.51,9.87,2.97,9.77-2.54-.2-10.74,1.86-16.79,7.9-25.85,8.83-13.23,20.2-24.57,33.45-33.36,6.53-4.37,13.28-9.04,21.89-6.73,20.25,5.42,40.87,4.6,61.48,3.79,4.02-.16,5.93.99,6.17,5.14.61,10.69,6.36,17.38,13.55,24.46,7.58,7.45,16.54,13.36,26.38,17.4,5.86,2.46,11.5,5.88,11.93,13.49,1.58,15,5.45,29.31,10.59,43.56,4.85,13.45,7.52,27.7,10.86,41.67,5.11,21.36,9.37,42.89,12.92,64.56,2.07,12.64,3.99,25.32,5,38.11h26.25v-19.73ZM18.79,113.35c-2.41-.03-2.51-2.26-2.54-4.15-.02-1.39-.06-4.02,1.29-4.92,3.61-2.41,3.49,3.06,3.3,4.87-.17,1.63.85,4.24-2.04,4.21Zm203.02,27.79c-3.76.03-5.52-4.47-5.52-8.57,0-4,.89-8.23,5.44-8.44,6.37-.29,6.34,16.96.08,17.01Zm16.44,51c-2.31-9.25-4.46-18.56-5.99-27.96-.92-5.68-4.1-11.54-3.61-17.31.49-5.69,2.94-11.19,5.48-16.23,2.39-4.74,8.65-4.54,11.49.08,2.47,3.83,3.65,8.34,3.36,12.89-.63,7.34,1.16,14.69,5.09,20.92,3.43,5.83,5.77,12.23,6.91,18.9.77,4.09-.56,6.15-3.88,7.51-4.48,1.83-9.2,2.83-13.47,5.46-4.06,2.5-4.82-2.03-5.37-4.26h0Zm6.69,31.56c-.72-5.38-1.35-10.74-3.08-15.91-.58-1.72.18-2.3,1.81-2.6,6.23-1.16,12.55-2.01,18.25-5.17,1.92-1.06,3.59-.34,4.59,1.76,2.59,5.43,1.16,11.99,4.85,16.72.22,2.07-1.03,2.75-2.26,3.13-6.61,2.04-13.25,4-19.9,5.91-3.3.94-3.97-1.74-4.25-3.84h0Z" fill="#dcb088"/>
    <path id="z" data-name="Path 5068" d="m162.91,89.25c-6.35-4.22-12.96-9.76-21.13-11.04-2.77-.43-5.79-.4-8.2.84-1.97,1.07-3.49,2.82-4.27,4.93-.69,1.99-1.1,4.07-1.24,6.17" fill="none" stroke="#000" stroke-linecap="round" stroke-linejoin="round" stroke-width="1.65"/>
    <path id="aa" data-name="Path 5069" d="m201.33,165.24c3.84-2.61,7.65-5.61,11.71-7.82,2.77-1.57,5.78-2.66,8.91-3.22,2.7-.43,5.65-.4,8,.84,1.94,1.09,3.42,2.84,4.17,4.93.67,1.99,1.08,4.07,1.21,6.17" fill="none" stroke="#3475a1" stroke-linecap="round" stroke-linejoin="round" stroke-width="1.65"/>
    <path id="ab" data-name="Path 5070" d="m200.06,164.84l2.07-7.69c.15-.56.73-.89,1.29-.74.24.06.45.21.59.41l5.87,8.36c.33.48.22,1.13-.26,1.47-.2.14-.45.21-.69.19l-7.93-.67c-.58-.05-1.01-.56-.96-1.14,0-.06.02-.12.03-.18Z" fill="#3475a1"/>
    <path id="ac" data-name="Path 5071" d="m163.81,88.9l-2.06-7.69c-.15-.56-.73-.89-1.29-.74-.24.06-.45.21-.59.41l-5.87,8.36c-.33.48-.22,1.13.26,1.47.2.14.45.21.69.19l7.93-.67c.58-.05,1.01-.56.96-1.14,0-.06-.02-.12-.03-.18Z"/>
    <g id="ad" data-name="adenoids" isolation="isolate">
      <g isolation="isolate">
        <path d="m99.3,101.43v-2.23c0-.66-.27-.91-.83-.91s-.81.25-.81.91v.47c0,.46-.27.7-.72.7h-.91c-.45,0-.72-.25-.72-.7v-.54c0-1.8,1.01-2.66,3.16-2.66s3.16.87,3.16,2.66v8.43c0,.43-.25.7-.7.7h-.93c-.45,0-.7-.27-.7-.7v-.1c-.6.58-1.4.91-2.13.91-1.01,0-1.86-.64-1.86-2.17v-2.11c0-1.8,1.01-2.67,3.16-2.67h.83Zm-.83,1.76c-.54,0-.81.27-.81.91v1.38c0,.66.23.91.79.91s.85-.27.85-.93v-2.27h-.83Z"/>
        <path d="m109.61,107.57c0,.43-.25.7-.7.7h-.93c-.45,0-.7-.27-.7-.7v-.1c-.6.58-1.4.91-2.13.91-1.01,0-1.86-.64-1.86-2.17v-7.56c0-1.53.85-2.17,1.86-2.17.72,0,1.53.33,2.13.91v-4.94c0-.46.25-.7.7-.7h.93c.45,0,.7.25.7.7v15.12Zm-3.97-2.09c0,.66.23.91.79.91s.85-.27.85-.93v-6.07c0-.66-.29-.95-.85-.95s-.79.27-.79.91v6.14Z"/>
        <path d="m117.58,102.47c0,.52-.31.83-.83.83h-3.14v2.36c0,.64.27.91.81.91s.83-.27.83-.91v-.43c0-.46.25-.7.7-.7h.93c.45,0,.7.25.7.7v.5c0,1.82-1.01,2.67-3.16,2.67s-3.16-.87-3.16-2.69v-6.55c0-1.8,1.01-2.66,3.16-2.66s3.16.87,3.16,2.66v3.33Zm-3.97-.93h1.63v-2.33c0-.66-.27-.91-.83-.91s-.81.25-.81.91v2.33Z"/>
        <path d="m125.56,107.57c0,.43-.25.7-.7.7h-.93c-.45,0-.7-.27-.7-.7v-8.22c0-.64-.25-.91-.81-.91s-.83.29-.83.95v8.18c0,.43-.27.7-.72.7h-.91c-.45,0-.72-.27-.72-.7v-10.29c0-.46.27-.7.72-.7h.91c.45,0,.72.25.72.7v.1c.58-.58,1.38-.91,2.11-.91,1.01,0,1.86.64,1.86,2.17v8.93Z"/>
        <path d="m133.53,99.14v6.57c0,1.8-1.01,2.67-3.16,2.67s-3.16-.87-3.16-2.67v-6.57c0-1.8,1.01-2.66,3.16-2.66s3.16.87,3.16,2.66Zm-3.97.06v6.45c0,.64.27.91.81.91s.83-.27.83-.91v-6.45c0-.66-.27-.91-.83-.91s-.81.25-.81.91Z"/>
        <path d="m136.36,92.47c.81,0,1.38.58,1.38,1.38s-.58,1.38-1.38,1.38-1.38-.56-1.38-1.38.56-1.38,1.38-1.38Zm1.18,15.08c0,.45-.27.72-.72.72h-.91c-.45,0-.72-.27-.72-.72v-10.27c0-.46.27-.7.72-.7h.91c.45,0,.72.25.72.7v10.27Z"/>
        <path d="m145.52,107.57c0,.43-.25.7-.7.7h-.93c-.45,0-.7-.27-.7-.7v-.1c-.6.58-1.4.91-2.13.91-1.01,0-1.86-.64-1.86-2.17v-7.56c0-1.53.85-2.17,1.86-2.17.72,0,1.53.33,2.13.91v-4.94c0-.46.25-.7.7-.7h.93c.45,0,.7.25.7.7v15.12Zm-3.97-2.09c0,.66.23.91.79.91s.85-.27.85-.93v-6.07c0-.66-.29-.95-.85-.95s-.79.27-.79.91v6.14Z"/>
        <path d="m153.49,102.47c0,.52-.31.83-.83.83h-3.14v2.36c0,.64.27.91.81.91s.83-.27.83-.91v-.43c0-.46.25-.7.7-.7h.93c.45,0,.7.25.7.7v.5c0,1.82-1.01,2.67-3.16,2.67s-3.16-.87-3.16-2.69v-6.55c0-1.8,1.01-2.66,3.16-2.66s3.16.87,3.16,2.66v3.33Zm-3.97-.93h1.63v-2.33c0-.66-.27-.91-.83-.91s-.81.25-.81.91v2.33Z"/>
        <path d="m158.16,108.38c-2.17,0-3.16-.85-3.16-2.67v-.95c0-.45.25-.72.7-.72h.93c.45,0,.7.27.7.72v.89c0,.64.27.91.83.91s.81-.27.81-.91c0-.85-.12-1.03-.85-1.69l-1.71-1.57c-1.05-.95-1.41-1.59-1.41-3.24,0-1.8.99-2.66,3.16-2.66s3.16.87,3.16,2.66v.95c0,.46-.27.7-.72.7h-.91c-.45,0-.72-.25-.72-.7v-.89c0-.66-.27-.91-.81-.91s-.83.25-.83.91c0,.85.12,1.01.85,1.69l1.71,1.57c1.05.95,1.43,1.59,1.43,3.24,0,1.8-1.01,2.67-3.16,2.67Z"/>
      </g>
    </g>
    <g id="ae" data-name="tonsils" isolation="isolate">
      <g isolation="isolate">
        <path d="m207.85,178.26v-2.23c0-.66-.27-.91-.83-.91s-.81.25-.81.91v.48c0,.45-.27.7-.72.7h-.91c-.45,0-.72-.25-.72-.7v-.54c0-1.8,1.01-2.67,3.16-2.67s3.16.87,3.16,2.67v8.43c0,.43-.25.7-.7.7h-.93c-.45,0-.7-.27-.7-.7v-.1c-.6.58-1.4.91-2.13.91-1.01,0-1.86-.64-1.86-2.17v-2.11c0-1.8,1.01-2.67,3.16-2.67h.83Zm-.83,1.76c-.54,0-.81.27-.81.91v1.38c0,.66.23.91.79.91s.85-.27.85-.93v-2.27h-.83Z" fill="#3474a2"/>
        <path d="m217.9,174.23c.66-.6,1.51-.93,2.4-.93.99,0,1.86.64,1.86,2.17v8.93c0,.43-.27.7-.72.7h-.91c-.45,0-.72-.27-.72-.7v-8.22c0-.64-.25-.91-.79-.91s-.85.29-.85.95v8.18c0,.43-.25.7-.7.7h-.93c-.45,0-.7-.27-.7-.7v-8.22c0-.64-.25-.91-.81-.91s-.83.29-.83.95v8.18c0,.43-.27.7-.72.7h-.91c-.45,0-.72-.27-.72-.7v-10.29c0-.46.27-.7.72-.7h.91c.45,0,.72.25.72.7v.1c.58-.58,1.38-.91,2.11-.91.66,0,1.26.29,1.59.93Z" fill="#3474a2"/>
        <path d="m224.69,172.49c-.29.23-.52.27-.79.02l-.29-.29c-.23-.23-.23-.48.02-.76l2.19-2.69c.21-.27.5-.25.76,0l.66.66c.27.25.29.54.02.76l-2.58,2.29Zm1.47,11.88c0,.45-.27.72-.72.72h-.91c-.45,0-.72-.27-.72-.72v-10.27c0-.46.27-.7.72-.7h.91c.45,0,.72.25.72.7v10.27Z" fill="#3474a2"/>
        <path d="m234.13,186.5c0,1.84-1.01,2.73-3.22,2.73h-1.3c-.45,0-.7-.25-.7-.7v-.39c0-.45.25-.72.7-.72h1.3c.64,0,.89-.33.89-.97v-2.15c-.6.58-1.4.91-2.13.91-1.01,0-1.86-.64-1.86-2.17v-7.56c0-1.53.85-2.17,1.86-2.17.72,0,1.53.33,2.13.91v-.1c0-.46.25-.7.7-.7h.93c.45,0,.7.25.7.7v12.4Zm-3.97-4.19c0,.66.23.91.79.91s.85-.27.85-.93v-6.07c0-.66-.29-.95-.85-.95s-.79.27-.79.91v6.14Z" fill="#3474a2"/>
        <path d="m242.11,184.39c0,.43-.25.7-.7.7h-.93c-.45,0-.7-.27-.7-.7v-.1c-.6.58-1.4.91-2.13.91-1.01,0-1.86-.64-1.86-2.17v-7.56c0-1.53.85-2.17,1.86-2.17.72,0,1.53.33,2.13.91v-4.94c0-.45.25-.7.7-.7h.93c.45,0,.7.25.7.7v15.12Zm-3.97-2.09c0,.66.23.91.79.91s.85-.27.85-.93v-6.07c0-.66-.29-.95-.85-.95s-.79.27-.79.91v6.14Z" fill="#3474a2"/>
        <path d="m247.75,178.26v-2.23c0-.66-.27-.91-.83-.91s-.81.25-.81.91v.48c0,.45-.27.7-.72.7h-.91c-.45,0-.72-.25-.72-.7v-.54c0-1.8,1.01-2.67,3.16-2.67s3.16.87,3.16,2.67v8.43c0,.43-.25.7-.7.7h-.93c-.45,0-.7-.27-.7-.7v-.1c-.6.58-1.4.91-2.13.91-1.01,0-1.86-.64-1.86-2.17v-2.11c0-1.8,1.01-2.67,3.16-2.67h.83Zm-.83,1.76c-.54,0-.81.27-.81.91v1.38c0,.66.23.91.79.91s.85-.27.85-.93v-2.27h-.83Z" fill="#3474a2"/>
        <path d="m254.09,184.37c0,.45-.27.72-.72.72h-.91c-.45,0-.72-.27-.72-.72v-15.1c0-.45.27-.7.72-.7h.91c.45,0,.72.25.72.7v15.1Z" fill="#3474a2"/>
        <path d="m259.73,178.26v-2.23c0-.66-.27-.91-.83-.91s-.81.25-.81.91v.48c0,.45-.27.7-.72.7h-.91c-.45,0-.72-.25-.72-.7v-.54c0-1.8,1.01-2.67,3.16-2.67s3.16.87,3.16,2.67v8.43c0,.43-.25.7-.7.7h-.93c-.45,0-.7-.27-.7-.7v-.1c-.6.58-1.4.91-2.13.91-1.01,0-1.86-.64-1.86-2.17v-2.11c0-1.8,1.01-2.67,3.16-2.67h.83Zm-.83,1.76c-.54,0-.81.27-.81.91v1.38c0,.66.23.91.79.91s.85-.27.85-.93v-2.27h-.83Z" fill="#3474a2"/>
        <path d="m266.74,185.2c-2.17,0-3.16-.85-3.16-2.67v-.95c0-.45.25-.72.7-.72h.93c.45,0,.7.27.7.72v.89c0,.64.27.91.83.91s.81-.27.81-.91c0-.85-.12-1.03-.85-1.69l-1.71-1.57c-1.05-.95-1.41-1.59-1.41-3.24,0-1.8.99-2.67,3.16-2.67s3.16.87,3.16,2.67v.95c0,.46-.27.7-.72.7h-.91c-.45,0-.72-.25-.72-.7v-.89c0-.66-.27-.91-.81-.91s-.83.25-.83.91c0,.85.12,1.01.85,1.69l1.71,1.57c1.05.95,1.43,1.59,1.43,3.24,0,1.8-1.01,2.67-3.16,2.67Z" fill="#3474a2"/>
      </g>
    </g>
  </g>
</svg>