<?xml version="1.0" encoding="UTF-8"?>
<svg id="b" data-name="Layer 2" xmlns="http://www.w3.org/2000/svg" viewBox="0 0 300 300">
  <g id="c" data-name="Layer 1">
    <rect id="d" data-name="Rectangle 137-4" width="300" height="300" rx="3" ry="3" fill="#bcd6e9"/>
    <path d="m1.99,91.05c3.92.74,8.02.92,11.73,2.25,5.17,1.86,11.72,6.64,4.13,8.95-4.17,1.27-11.51.81-17.85.49v24.8c2.83-1.18,5.75-2.09,8.84-2.54,4.3-.62,10.15,1.2,9.45,5.11-.65,3.61-6.2,4.57-8.37,7.69-3.06,4.41,3.06,9.9,8.69,9.26s10.03-4.68,14.35-8.11c13.29-10.57,29.94-16.58,46.76-18.22,8.72-.85,24.74-2.57,31.85,3.27,1.95,1.6,4.96,3.01,6.75,1.24.49-.55.85-1.21,1.04-1.93.93-2.83,1.13-5.85.57-8.77-9.91-1.62-21.21-3.28-29.56-9.03-8.18-5.51-15.33-12.41-21.15-20.38-1.08-1.53-2.12-3.09-3.18-4.64-2.56-3.71-5.38-7.86-9.57-10.22-1.45-.81-6.9-2.38-8.39-1-3.26,3,6.08,9.4,7.99,11.11,1.64,1.47,3.37,2.98,4.06,4.99.8,2.14-.21,4.53-2.29,5.46-1.86.54-3.87-.08-5.1-1.59-4.38-5.15-5.91-10.07-12.25-14.31-6.56-4.35-14.09-7.03-21.93-7.81-6-.59-12.35-.05-17.75,2.63-.26.13-.53.27-.8.43v20.4c.66.17,1.33.33,1.99.46Z" fill="#ebf3f9"/>
    <path d="m3,300h294c1.28,0,2.37-.81,2.8-1.95v-94.28c-2.97-.7-5.77-1.38-8.21-1.77-13.82-2.19-27.68-4.14-41.63-4.95-20.8-1.22-41.79-1.44-62.49.64-20.31,2.05-40.68-.35-61-.65-42.47-.63-84.36,2.06-126.46,6.06v93.91c0,1.66,1.34,3,3,3Z" fill="#68bc63"/>
    <rect x="1" y="2" width="297.6" height="297.6" rx="2.4" ry="2.4" fill="none"/>
    <g id="e" data-name="Group 536">
      <circle id="f" data-name="Ellipse 386" cx="163.75" cy="124.53" r="9.43" fill="#7d8085"/>
      <g id="g" data-name="Group 535">
        <path id="h" data-name="Path 4132" d="m211.11,129.52l-39.07-16.85c-2.82-1.22-6.09.08-7.3,2.9-.14.32-.24.65-.32.99l-3.46,15.39c-.67,3,1.21,5.97,4.21,6.64.34.08.68.12,1.03.13l42.52,1.46c3.07.11,5.64-2.29,5.75-5.36.08-2.29-1.25-4.39-3.36-5.3Z" fill="#d62028" stroke="#d62028" stroke-miterlimit="10" stroke-width=".91"/>
        <g id="i" data-name="Group 534">
          <path id="j" data-name="Path 4133" d="m166.15,138.71c-.59-.02-1.18-.14-1.73-.34l5.87-26.14c.59.05,1.17.2,1.71.43l4.38,1.89-5.46,24.32-4.77-.16Z" fill="#ffcd05" stroke="#d62028" stroke-miterlimit="10" stroke-width=".91"/>
          <path id="k" data-name="Path 4134" d="m179.7,115.98l6.03,2.6-4.63,20.64-6.56-.23,5.17-23.01Z" fill="#ffcd05" stroke="#d62028" stroke-miterlimit="10" stroke-width=".91"/>
        </g>
      </g>
    </g>
    <g id="l" data-name="Group 540">
      <g id="m" data-name="Group 538">
        <path id="n" data-name="Path 4135" d="m227.94,187.95c-.01-3.31-2.69-5.99-6-6h-8.94c-2.97.01-5.48,2.18-5.93,5.11-6.36,1.34-10.96,5.19-10.96,9.73.03,1.67.62,3.28,1.67,4.57h28.49c1.06-1.29,1.65-2.9,1.67-4.57v-8.84h0Z" fill="#717b7e"/>
        <path id="o" data-name="Path 4136" d="m206.31,186.77c1.99.81,3.1,2.94,2.64,5.03-2-2.67-4.78-2.72-7.83-2.99,1.79.16,4.23,1.79,3.32,3.86.15-.34-2.11-1.35-2.31-1.42-1.21-.4-2.51-.4-3.72.01" fill="none" stroke="#ffcd05" stroke-linecap="round" stroke-linejoin="round" stroke-width=".91"/>
        <g id="p" data-name="Group 537">
          <path id="q" data-name="Path 4137" d="m227.9,192.82c-.01-3.31-2.69-5.99-6-6h-8.94c-2.97.01-5.48,2.18-5.93,5.11-6.36,1.34-10.96,5.19-10.96,9.73.03,1.67.62,3.28,1.67,4.57h28.49c1.06-1.29,1.65-2.9,1.67-4.57v-8.84h0Z" fill="#7d8085"/>
          <path id="r" data-name="Path 4138" d="m206.27,191.65c1.99.81,3.1,2.94,2.64,5.03-2-2.67-4.78-2.72-7.83-2.99,1.79.16,4.23,1.79,3.32,3.86.15-.34-2.11-1.35-2.31-1.42-1.21-.41-2.52-.4-3.72.01" fill="none" stroke="#ffcd05" stroke-linecap="round" stroke-linejoin="round" stroke-width=".91"/>
        </g>
      </g>
      <g id="s" data-name="Group 539">
        <ellipse id="t" data-name="Ellipse 387" cx="221.72" cy="134.11" rx="40.37" ry="56.68" fill="#ee6e7f"/>
        <circle id="u" data-name="Ellipse 388" cx="207.19" cy="97.3" r="2.85" fill="#f28991"/>
        <circle id="v" data-name="Ellipse 389" cx="248.07" cy="112.52" r="2.85" fill="#f28991"/>
        <circle id="w" data-name="Ellipse 390" cx="207.19" cy="137.74" r="2.85" fill="#f28991"/>
        <circle id="x" data-name="Ellipse 391" cx="245.22" cy="148.01" r="2.85" fill="#f28991"/>
        <circle id="y" data-name="Ellipse 392" cx="223.32" cy="106.82" r="2.85" fill="#f28991"/>
        <circle id="z" data-name="Ellipse 393" cx="198.64" cy="159.41" r="2.85" fill="#f28991"/>
        <circle id="aa" data-name="Ellipse 394" cx="217.61" cy="153.71" r="2.85" fill="#f28991"/>
        <circle id="ab" data-name="Ellipse 395" cx="194.88" cy="119.65" r="2.85" fill="#f28991"/>
        <circle id="ac" data-name="Ellipse 396" cx="228.14" cy="129.98" r="2.85" fill="#f28991"/>
        <circle id="ad" data-name="Ellipse 397" cx="231.87" cy="91.57" r="2.85" fill="#f28991"/>
        <circle id="ae" data-name="Ellipse 398" cx="234.72" cy="169.65" r="2.85" fill="#f28991"/>
        <circle id="af" data-name="Ellipse 399" cx="210.04" cy="176.89" r="2.85" fill="#f28991"/>
      </g>
      <path id="ag" data-name="Path 4139" d="m220.21,120.83c2.91.54,5.84.9,8.79,1.08,9.38.41,18.32-2.72,27.07-5.71,9.28-3.17,6.02,12.07,6.02,17.91,0,31.31-18.07,56.68-40.37,56.68-18.15,0-30.88-16.22-36.33-31.95-2.72-7.83-6.7-21.43-3.07-29.37,7.07-15.44,23.65-11.06,37.89-8.64Z" fill="#d62028" stroke="#d62028" stroke-miterlimit="10" stroke-width=".91"/>
      <path id="ah" data-name="Path 4140" d="m183.66,138.88c-1.34,8.42,2.23,21.4,1.73,19.96-2.72-7.83-6.7-21.43-3.07-29.37,7.07-15.44,23.65-11.06,37.89-8.64,2.91.54,5.84.9,8.79,1.08,9.38.41,18.32-2.72,27.07-5.71,4.83-1.65,6.26,1.69,6.52,6.09-.98-.63-2.34-.75-4.21-.11-8.75,2.99-17.69,6.12-27.07,5.71-2.95-.18-5.88-.54-8.79-1.08-14.24-2.42-30.82-6.8-37.89,8.64-2.29,5-3.39,11.2-1.72,16.52" fill="#ffcd05" stroke="#d62028" stroke-miterlimit="10" stroke-width=".91"/>
      <path id="ai" data-name="Path 4141" d="m204.63,186.19c-12.63-9.19-21.59-22.61-21.59-37.94" fill="none" stroke="#ffcd05" stroke-linecap="round" stroke-miterlimit="10" stroke-width="2.73"/>
      <path id="aj" data-name="Path 4142" d="m183.64,153.2c-1.67-4.31-1.12-10.79.79-14.97,7.07-15.44,23.65-11.06,37.89-8.64,2.91.54,5.84.9,8.79,1.08,5.98.1,11.94-.79,17.64-2.63,2.81-.82,5.57-1.79,8.36-2.71,1.28-.43,3.94-1.93,4.8-.04.4.89-.01,4.94-.68,5.65-1.08,1.15-4.45,1.55-5.99,1.96-2.39.64-4.79,1.22-7.21,1.75-4.72,1.04-9.74,2.2-14.61,1.99-2.95-.18-5.88-.54-8.79-1.08-11.17-1.9-25.45-6.93-34.89,1.89-2.19,2.05-3.83,4.63-4.76,7.48-.84,2.54-.24,6.02-1.34,8.26Z" fill="#ffcd05"/>
    </g>
    <path id="ak" data-name="Path 4143" d="m215.38,133.97c.03,1.66-.7,3.23-1.98,4.28-1.27,1.02-2.69,1.85-4.21,2.44l-24.56,11.06" fill="none" stroke="#971c20" stroke-miterlimit="10" stroke-width=".91"/>
    <path id="al" data-name="Path 4144" d="m245.96,90.23l-48.04-4.99c-.63-.06,1.13-8.55,1.28-9.39,1.17-6.07,2.99-11.99,5.43-17.66,1.1-2.69,1.09-3.72,3.77-2.54,1.4.73,2.87,1.3,4.39,1.72,3.18.7,6.45.58,9.65,1.04,3.01.43,6.86.24,9.7,1.45,6.49,2.77,11.14,11.44,12.93,17.85.29,1.03,2.12,12.53.89,12.53Z" fill="#d62028" stroke="#971c20" stroke-miterlimit="10" stroke-width="1.82"/>
    <path id="am" data-name="Path 4145" d="m230.65,59.26c-4.03-.74-8.18.48-11.18,3.27-2.94,2.8-5.02,6.37-6,10.31-.97,3.92-1.57,7.91-1.78,11.94" fill="none" stroke="#971c20" stroke-linecap="round" stroke-linejoin="round" stroke-width="1.82"/>
    <path id="an" data-name="Path 4146" d="m226.84,59.46c3.28,8.44,4.54,17.53,3.68,26.55" fill="none" stroke="#971c20" stroke-linecap="round" stroke-linejoin="round" stroke-width="1.82"/>
    <path id="ao" data-name="Path 4147" d="m227.9,59.31c-7.16.25-14.27,1.4-21.14,3.43" fill="none" stroke="#971c20" stroke-linecap="round" stroke-linejoin="round" stroke-width="1.82"/>
    <path id="ap" data-name="Path 4148" d="m205.69,55.93c1.27,2.81.69,5.42.69,8.37,0,6.52-.07,13.02-.24,19.54" fill="none" stroke="#971c20" stroke-linecap="round" stroke-linejoin="round" stroke-width="1.82"/>
    <path id="aq" data-name="Path 4149" d="m265.85,102.32c-2.09,1.69-6.99-1.42-8.84-2.37-6.92-3.6-14.25-6.36-21.82-8.22-12.34-2.92-24.55-2.26-37.04-1.39-1.29.15-2.6.12-3.88-.07-1.3-.2-2.46-.92-3.24-1.98" fill="none" stroke="#971c20" stroke-linecap="round" stroke-linejoin="round" stroke-width="3.64"/>
    <path id="ar" data-name="Path 4150" d="m264.55,101.48c.27.25.53.5.8.75-12.78-4.78-25.27-10.21-38.93-11.95-10.73-1.37-21.64-.78-32.44-.59-.69.09-1.39-.06-1.98-.43-3.49-2.83,8.44-4.71,9.5-4.85,4.64-.55,9.32-.74,13.99-.58,17.78.32,35.86,5.45,49.06,17.65Z" fill="#d62028" stroke="#d62028" stroke-linecap="round" stroke-linejoin="round" stroke-width=".91"/>
    <path id="as" data-name="Path 4151" d="m245.52,89.36c-14.9-5.95-31.14-7.72-46.97-5.11" fill="none" stroke="#971c20" stroke-linecap="round" stroke-linejoin="round" stroke-width="3.47"/>
    <path id="at" data-name="Path 4152" d="m199.18,66.27c.59-.92,1.38-1.71,2.3-2.3.19.31.33.64.42.99.24.68.69,1.26,1.28,1.67.41.28.9.42,1.39.43.18,0,1.37-.08,1.47-.43-1.38,4.86-4.26,12.37-9.08,14.8-1.74-3.6-.59-11.03,2.22-15.16Z" fill="#ffcd05"/>
    <path id="au" data-name="Path 4153" d="m197.35,72.38c-.06.21-.07.43-.03.65.05.22.25.38.47.38.27-.03.41-.33.49-.59l1.25-3.83c.38-1.16.75-3.03,1.55-3.97-1.83,2.1-3.5,4.46-3.74,7.36Z" fill="#fff0cf"/>
    <path d="m235.39,161.48c-6.02,0-30.8.59-37.18.49-5.94-.09-11.66-.83-16.68-4.41-6.49-4.64-9.47-12.65-12.34-20.1-1.98-5.13-4.37-9.91-8.35-13.78-7.23-7.02-17.9-3.96-26.72-5.74-1.74-.35-3.25-.84-4.88-1.07-.73-.1-1.48-.15-2.29-.11-2.02.1-6.24,8.74-4.65,10.35,1.01,1.02,2.5,1.38,3.9,1.7,3.75.84,7.43,1.73,11.28,1.95,3.22.19,6.81.36,9.91,1.37,2.88.93,5.14,2.66,6,5.59.77,2.61,1.64,5.33,2.61,7.9.77,2.04,3.88,10.67,5.07,12.82,5.01,9.12,15.32,14.26,25.59,15.96s20.76.51,31.15,0c20.89-1.02,42.88,1.38,60.53,12.59l19.25,12.21c.75.48,1.57.96,2.41,1.35v-16.16c-4.14-3.95-9.06-7.15-14.14-9.86-15.47-8.26-32.94-12.77-50.48-13.03Z" fill="#faf4b1"/>
    <rect width="300" height="300" rx="3" ry="3" fill="none"/>
    <rect x="1" y="1" width="298" height="298" rx="2" ry="2" fill="none" stroke="#000" stroke-linejoin="round" stroke-width="2"/>
    <path id="av" data-name="Path 4156" d="m128.53,114.69l-1.86-.74c-.28-.11-.58-.17-.88-.19-.15-1.45-1.06-2.71-2.4-3.29l-1.12-.44c-1.89-.68-3.98.3-4.66,2.19-.03.09-.06.19-.09.28l-3.57,11c-.71,2.06.26,4.33,2.24,5.24l1.12.44c1.31.5,2.79.16,3.75-.85.24.2.51.35.79.47l1.86.74c1.69.61,3.56-.27,4.17-1.96.03-.08.06-.17.08-.25l2.58-7.96c.64-1.85-.23-3.88-2.01-4.69Z" fill="#7d8085"/>
    <g>
      <path d="m15.38,116.92c-.15.04-.21.02-.34-.07-.24-.17-.8-1.75-1.1-2.17-.96.29-1.86.92-2.66,1.51-.1.07-.31.2-.37.29-.23.3-.09.74,0,1.07.08.31-.6.82-.87.88-.17.04-.23,0-.27-.17-.43-1.76.33-4.77.53-6.63.07-.64-.1-2.2.73-2.4.14-.03.28-.02.42,0,.88.14,1.6,1.43,2.02,2.13.88,1.45,1.73,2.93,2.43,4.48.02.05.04.1.06.15.1.4-.18.84-.58.93Zm-2.57-4.26c-.37-.53-.76-1.33-1.35-1.62-.26.96-.58,2.74-.43,3.7.7-.49,1.47-.85,2.24-1.18-.09-.35-.26-.61-.46-.9Z"/>
      <path d="m21.59,115.44c-.21.05-2.7-2.01-3.11-2.3-.4-.28-1.06-.74-1.52-.88-.19.87.21,2.3.4,3.18.02.09.04.18.05.27.02.29-.21.8-.52.87-.28.06-.52-1.07-.57-1.28-.25-1.15-.38-2.32-.63-3.47-.12-.53-.27-1.05-.46-1.56-.05-.12-.08-.24-.11-.36-.07-.33-.06-.85.36-.94.15-.03.25,0,.37.09.48.37.88.83,1.35,1.21.97.77,2.01,1.45,2.99,2.2-.08-.32-.13-.64-.2-.96-.25-1.11-.62-2.18-.87-3.29-.07-.32.47-.77.75-.83.22-.05.29.21.33.38.33,1.51.52,3.05.85,4.56.05.24.12.49.22.71.17.36.38.7.46,1.1.05.24.16,1.24-.16,1.32Z"/>
      <path d="m27.01,106.86c-.04.44-.11.51-.54.59-.31.06-.64.06-.95.12-.37.07-.73.21-1.05.42.18,1.32.41,2.64.66,3.94.13.68.29,1.36.42,2.04.09.46-.23.91-.69,1-.23.04-.31-.15-.35-.34-.23-1.21-.33-2.44-.5-3.66-.12-.9-.33-1.78-.47-2.68h-.07c-.63.13-1.12.62-1.75.74-.22.04-.39-.04-.44-.27-.08-.42-.1-.91.33-1.15.81-.45,2.12-.71,3.04-.88.44-.08,2.26-.52,2.37.03,0,.03.01.07,0,.1Z"/>
      <path d="m29.06,107.87c.13,1.25.39,2.49.61,3.73.08.48.16.96.22,1.44.06.48-.02.8-.43,1.09-.04.03-.1.06-.16.07-.36.06-.48-.65-.52-.89-.11-.62-.1-1.25-.18-1.88-.04-.34-.09-.67-.15-1.01-.2-1.17-.48-2.34-.68-3.52-.03-.19-.15-.88.13-.92.65-.11.97.46,1.07,1.02.05.29.07.58.1.87Z"/>
      <path d="m37.81,111.28c-.63,1.07-2.58,1.91-3.77,2.08-.72.1-1.7.06-2.34-.3-.55-.31-.75-.83-.83-1.43-.39-2.83,1.42-5.24,3.88-6.42.46-.23.96-.41,1.47-.48.22-.03.29.2.31.37.06.44-.05,1.02-.5,1.2-.07.03-.17.01-.24.02-2.11.29-3.51,2.11-3.92,4.1-.03.15-.05.29-.03.44.12.89,1.48,1.05,2.18.95,1.37-.19,2.44-1.05,3.51-1.84.03-.02.05-.04.09-.04.21-.03.29.39.31.53.04.29.04.56-.12.82Z"/>
      <path d="m43.06,105.71c.08,1.13.2,2.25.24,3.37.06,1.61-.56,2.77-2.05,3.4-.26.11-.54.16-.82.18-.64.06-1.4-.05-1.57-.79-.05-.26-.08-.53-.1-.78-.18-1.96-.31-3.92-.49-5.88-.03-.32.42-.61.7-.63.27-.02.35.13.38.37.13,1.49.11,2.98.24,4.48.06.62.18,1.77,1.05,1.69.23-.02.44-.11.63-.23,1.2-.71,1.04-1.34.92-2.62-.08-.85-.2-1.7-.34-2.54-.07-.41-.14-.81-.18-1.22-.03-.36.66-.73.96-.76.21-.02.32.07.34.28.05.56.06,1.13.1,1.69Z"/>
      <path d="m50.34,107.73c-.37.07-.76.07-1.13.1-1.08.1-2.16.25-3.19.62-.1.24-.08.56-.07.82.02.56.11,1.12.13,1.68,1.29-.19,2.36-.77,3.52-1.3.02-.01.06-.02.08-.02.3-.01.57.55.58.81,0,.17-.04.23-.18.33-.51.34-3.72,1.62-4.28,1.65-.6.02-.76-.4-.81-.91-.08-.75-.16-1.51-.19-2.27,0-.25,0-.49,0-.74-.41.02-.63-.26-.65-.65-.02-.54.26-.74.77-.76,0-.53-.03-1.06-.02-1.59-.2-.02-.23-.37-.24-.52,0-.27.03-.8.35-.88.26-.07.56-.05.83-.08.83-.08,1.65-.15,2.48-.18.3-.01.92-.04,1.19.06.25.09.28.38.29.61,0,.15-.02.73-.23.74-.77.03-1.53-.14-2.3-.11-.43.02-.86.13-1.23.35-.04.17-.09.34-.08.52,0,.17.05.33.06.5,0,.14,0,.29-.02.43,1.18-.12,2.35-.33,3.54-.38.26,0,.51-.11.77-.12.33-.01.38.28.39.54.01.28-.05.69-.38.75Z"/>
      <path d="m57.4,111.48c-.07,0-.12-.03-.18-.07-1.52-.99-2.62-1.6-4.48-1.73-.03.13-.05.27-.05.41,0,.28.02.55.02.83,0,.16-.02.32-.07.47-.1.27-.57.76-.87.76-.09,0-.12-.07-.12-.15.01-.47.04-.93.06-1.4,0-.28.02-.56-.03-.83-.19-.12-.3-.32-.29-.54,0-.29.19-.54.39-.73.03-.18.03-.37.04-.55.02-.51-.01-1.01,0-1.52,0-.27.03-.53.07-.8-.15-.11-.24-.29-.24-.47.03-1.12,2.11-1.1,2.89-1.08.47.01.93,0,1.4.02.67.02,2.13.07,2.1,1.02-.03.95-1.78,2.25-2.49,2.82-.28.22-.61.36-.89.6.47.08.88.33,1.32.53.49.22,2.07.82,2.05,1.46,0,.3-.26.97-.62.96Zm-1.63-6.08c-.95-.03-1.92-.02-2.86.18-.14.45-.16.92-.18,1.38,0,.37,0,.74.05,1.11,1.24-.25,2.46-1.22,3.42-2.02.11-.1.28-.22.28-.38,0-.26-.54-.26-.71-.27Z"/>
      <path d="m62.32,108.81c-.66.29-1.37.4-2.02.7-.04.17-.06.34-.08.51-.06.6,0,1.2-.05,1.79-.04.38-.73.92-1.11.89-.23-.02-.19-.45-.17-.6.13-1.41.39-2.79.52-4.21.07-.73.1-1.45.2-2.17-.24-.04-.27-.34-.25-.53.04-.45.3-.75.75-.83.98-.16,2.04-.13,3.03-.03.49.05.97.13,1.45.26.54.13,1.24.29,1.17,1-.17,1.77-2,2.6-3.43,3.22Zm.9-3.24c-.74-.07-1.74-.06-2.44.15-.08.29-.12.6-.15.9-.04.43-.05.86-.04,1.28.99-.05,3.39-.78,3.84-1.72.01-.02.01-.05.02-.08.04-.4-.95-.5-1.22-.53Z"/>
      <path d="m72.64,111.61c-.82.79-2.2,1.84-3.38,1.89-.48.02-.97-.03-1.44-.11-2-.34-3.02-1.37-2.67-3.47.52-3.06,3.4-4.39,6.24-4.36.12,0,.25.01.37.03,1.62.27,2.77,1.94,2.49,3.54-.17,1.01-.9,1.79-1.62,2.48Zm-1.39-4.73c-2-.34-4.36.31-4.75,2.59-.23,1.36.73,2.34,2.02,2.56,1.81.31,4.08-.82,4.41-2.75.22-1.28-.39-2.17-1.68-2.39Z"/>
      <path d="m81.07,112.44c-1.44,1.8-3.26,2.53-5.53,2.49-.08,0-.17-.01-.25-.03-.42-.1-.72-.85-.62-1.24.07-.29.28-.34.54-.33,1.22.06,2.15.22,3.32-.31.37-.17.93-.59,1.03-1,0-.03.01-.06.01-.09-.38-.12-.76-.23-1.14-.33-.9-.22-1.81-.37-2.72-.52-.14-.02-.27-.05-.4-.08-.77-.19-1.09-.37-.88-1.22.2-.8,1.01-1.21,1.66-1.6,1.26-.73,2.71-1.35,4.19-.98.15.04.29.07.43.14.37.17.53.74.44,1.11-.1.4-.54.29-.83.22-.23-.06-.45-.14-.68-.2-.99-.25-2.99.2-3.58,1.08.63.29,1.29.51,1.96.67.87.22,1.76.38,2.65.49.15.02.3.03.45.07.43.11.46.46.37.83-.07.3-.22.57-.42.81Z"/>
    </g>
    <g>
      <path d="m168.5,161.23c-.11-.15-.23-.31-.32-.47-.64-1.05-.29-2.68.68-3.41,1.12-.83,3.06-1.3,4.43-.99,1.58.34,3.07,1.01,4.06,2.34.32.42.53.78.01,1.16-.23.17-.4.21-.64.03-.3-.24-.51-.63-.79-.9-1.28-1.29-2.89-1.88-4.69-1.53-.38.07-.77.2-1.08.43-.35.26-.59.68-.71,1.1-.19.69.08,1.31.48,1.86.44.59,1.07,1.14,1.7,1.52.66.4,1.78.74,2.52.47.16-.06.3-.13.43-.22.2-.15.28-.37.2-.61-.93-1.09-1.87-1.33-3-2.04-.02,0-.04-.03-.06-.06-.21-.29-.1-.96.18-1.17.14-.11.28-.08.43-.04.92.25,3.6,2.11,4.36,2.8.01.02.04.03.05.05.36.48-.45,1.23-.8,1.49-2.7,2.01-5.62.64-7.43-1.8Z"/>
      <path d="m178.48,168.96c-.71.18-3.26-.44-3.88-.87-.49-.34-.55-.96-.22-1.43.28-.4.61-.78.92-1.16.66-.81,1.33-1.6,1.95-2.43.38-.49.74-1.01,1.1-1.52.14-.2.27-.43.45-.59.24-.24.6-.13.85.04.25.18.36.42.17.7-.34.49-.74.93-1.13,1.39-.82.98-1.64,1.95-2.37,3-.19.27-.37.56-.54.84l.07.05c.84.58,2.71.58,3,.78.26.18.1.77-.05.99-.1.14-.16.17-.31.21Z"/>
      <path d="m188,170.75c-.84.67-2.22,1.53-3.4,1.52-.48,0-.96-.08-1.43-.18-1.99-.42-2.98-1.41-2.59-3.29.58-2.73,3.47-3.77,6.3-3.58.12,0,.25.02.37.05,1.6.34,2.71,1.91,2.41,3.34-.19.9-.93,1.57-1.66,2.14Zm-1.29-4.35c-1.99-.42-4.35.03-4.78,2.07-.26,1.21.68,2.16,1.96,2.42,1.8.38,4.08-.51,4.44-2.23.24-1.14-.35-1.99-1.63-2.26Zm-.46-1.83c-.23-.05-.41-.29-.36-.53.03-.13.12-.18.23-.22.27-.1.55-.13.81-.22.45-.15.85-.41,1.29-.6.07-.03.14-.05.22-.03.3.06.55.5.49.8-.1.48-2.24.89-2.68.79Z"/>
      <path d="m196.91,170.56c-.73,1-1.49,1.31-2.58,1.79-.89.39-2.03.74-3.01.74-.39,0-.81-.22-.8-.66,0-.51-.02-1.03-.02-1.54,0-.31.04-.62.05-.93,0-.31-.21-.58-.21-.89,0-.34.21-.64.21-.99,0-.6-.15-1.19-.09-1.79-.15-.06-.22-.22-.22-.37,0-.51.47-1.02.98-1.06.53-.05,1.08-.03,1.62-.03.75,0,3.46.15,3.62,1.06.02.1.02.21.02.31,0,.65-.33,1.08-.83,1.45-.12.09-.25.18-.36.3.47.1.91.35,1.33.54.46.2.67.55.66,1.05,0,.37-.15.72-.36,1.02Zm-1.87-3.94c-.37-.49-1.36-.55-1.92-.55-.5,0-1.13.03-1.6.21-.04.38-.09.75-.09,1.13,0,.28,0,.57.14.82.56-.1,3.49-.92,3.49-1.51,0-.03,0-.06-.03-.09Zm-1.08,2.26c-.76.33-1.6.47-2.34.84-.06.36-.12.73-.12,1.1,0,.25.02.51.13.74.13.01.26.02.39.02,1.22,0,3.17-.56,3.87-1.63.03-.05.06-.11.06-.18,0-.52-1.59-.81-1.99-.89Z"/>
      <path d="m202.84,166.25c.02,1.13.09,2.26.07,3.38-.03,1.61-.71,2.74-2.23,3.29-.27.1-.54.13-.83.14-.64.02-1.4-.13-1.52-.87-.04-.26-.05-.53-.06-.79-.08-1.97-.11-3.93-.18-5.9-.01-.32.45-.59.73-.6.27-.01.35.15.36.39.06,1.49-.05,2.98.01,4.48.02.62.09,1.78.96,1.75.23,0,.45-.09.64-.19,1.24-.65,1.1-1.28,1.05-2.57-.03-.85-.12-1.71-.21-2.55-.05-.41-.1-.82-.12-1.23-.01-.36.69-.7.99-.71.21,0,.31.09.32.3.02.56,0,1.13.01,1.69Z"/>
      <path d="m209.38,171.1c-.18.16-.43.26-.64.38-.96.54-1.96.91-3.02,1.23-.33.1-.75.3-1.09.3-.51,0-.54-.5-.55-.88-.02-1.69.05-3.37.14-5.06.03-.71-.05-1.51.13-2.2.09-.32.58-.66.91-.66.15,0,.19.07.19.21,0,.22-.04.43-.05.65-.04.5-.06,1.01-.07,1.51-.04,1.44-.04,2.88-.02,4.32v.2s.16.09.16.09c.89-.19,1.75-.49,2.57-.87.2-.09.94-.49,1.09-.49.31,0,.44.54.44.77,0,.21-.04.36-.19.5Z"/>
      <path d="m217.9,170.19c-.67.93-1.83,2.21-2.98,2.47-.47.11-.96.14-1.44.15-2.03.03-3.22-.8-3.25-2.93-.05-3.1,2.54-4.94,5.35-5.42.12-.02.25-.03.37-.04,1.64-.02,3.07,1.4,3.1,3.03.02,1.02-.56,1.93-1.14,2.73Zm-2.23-4.39c-2.03.03-4.23,1.09-4.2,3.4.02,1.38,1.14,2.17,2.45,2.15,1.84-.03,3.87-1.55,3.84-3.51-.02-1.3-.78-2.07-2.09-2.05Z"/>
      <path d="m226.22,168.9c-.93,2.1-2.5,3.27-4.72,3.81-.08.02-.17.03-.25.03-.43,0-.91-.64-.91-1.04,0-.3.18-.4.44-.46,1.2-.26,2.13-.33,3.13-1.14.32-.25.75-.81.74-1.23,0-.03,0-.06-.01-.09-.4-.02-.79-.03-1.19-.02-.93.01-1.85.11-2.77.19-.14.01-.27.02-.41.03-.79.01-1.15-.07-1.16-.95-.01-.82.67-1.43,1.2-1.97,1.04-1.02,2.27-1.99,3.8-2.01.15,0,.3,0,.45.02.4.07.7.58.7.96,0,.41-.44.42-.74.42-.24,0-.47-.02-.71-.02-1.02.01-2.84.95-3.18,1.95.68.12,1.38.16,2.07.15.9-.01,1.8-.08,2.69-.2.15-.02.3-.04.45-.05.44,0,.56.33.57.71,0,.31-.07.61-.2.89Z"/>
      <path d="m237.83,170.12c-.75.99-1.52,1.28-2.62,1.74-.9.38-2.05.7-3.03.68-.39-.01-.8-.23-.79-.67.01-.51,0-1.03.01-1.54,0-.31.06-.62.07-.93,0-.31-.2-.59-.2-.9,0-.34.22-.63.23-.98.02-.6-.13-1.19-.05-1.79-.15-.06-.21-.23-.21-.38.01-.51.49-1.01,1-1.04.53-.04,1.08-.01,1.62,0,.75.02,3.45.21,3.6,1.13.02.1.01.21.01.31-.02.65-.35,1.07-.86,1.44-.12.09-.25.17-.37.29.47.11.9.37,1.33.57.45.21.65.57.64,1.07-.01.37-.16.72-.38,1.01Zm-2.91-1.74c-.77.32-1.61.44-2.36.79-.07.36-.13.73-.14,1.1,0,.25,0,.51.12.74.13.01.26.03.39.03,1.22.03,3.18-.49,3.9-1.55.03-.05.06-.11.06-.18.01-.52-1.58-.84-1.97-.93Zm1.12-2.24c-.36-.5-1.34-.58-1.9-.59-.5-.01-1.13,0-1.61.18-.05.38-.1.75-.11,1.13,0,.28-.02.57.13.82.56-.08,3.5-.85,3.52-1.44,0-.03,0-.06-.03-.09Z"/>
      <path d="m243.65,171.77c-.52.51-3.03,1.28-3.78,1.22-.6-.04-.96-.54-.92-1.12.04-.49.13-.98.21-1.47.15-1.03.33-2.05.44-3.09.07-.62.12-1.25.17-1.86.02-.24.02-.51.08-.74.08-.32.45-.42.75-.4.31.02.53.18.5.52-.04.6-.17,1.18-.27,1.78-.21,1.26-.42,2.52-.51,3.78-.02.33-.04.67-.04,1h.09c1.02.08,2.63-.87,2.98-.84.32.02.48.62.46.88-.01.17-.05.23-.16.34Z"/>
      <path d="m249.54,173.75c-.15-.02-.21-.06-.29-.19-.16-.24-.12-1.92-.26-2.42-1-.06-2.06.21-3.02.47-.11.03-.36.08-.45.13-.33.2-.34.66-.39,1-.04.32-.85.55-1.12.51-.18-.02-.21-.09-.19-.25.22-1.8,2-4.33,2.84-6.01.29-.58.68-2.09,1.54-1.98.14.02.27.08.39.15.77.44.98,1.91,1.13,2.71.31,1.67.58,3.36.68,5.05,0,.05,0,.11,0,.16-.05.41-.46.72-.87.67Zm-.89-4.9c-.15-.62-.24-1.51-.69-1.99-.58.8-1.51,2.35-1.71,3.3.82-.21,1.68-.27,2.52-.31.04-.36-.03-.66-.12-1Z"/>
      <path d="m255.78,174.81c-.22-.04-1.67-2.91-1.94-3.34-.25-.42-.68-1.1-1.04-1.41-.52.72-.72,2.19-.89,3.08-.02.09-.03.18-.06.26-.09.28-.51.65-.82.59-.28-.06-.05-1.19-.01-1.4.23-1.16.58-2.28.8-3.44.1-.53.17-1.07.2-1.61,0-.13.02-.25.04-.38.07-.33.28-.8.7-.72.15.03.22.1.3.23.29.53.48,1.11.76,1.64.58,1.09,1.27,2.13,1.87,3.21.05-.33.13-.64.2-.96.22-1.12.29-2.24.51-3.36.06-.32.74-.52,1.02-.46.23.04.18.31.15.48-.3,1.52-.74,3-1.03,4.52-.05.25-.08.49-.08.74.01.4.07.79,0,1.19-.05.25-.35,1.21-.67,1.14Z"/>
      <path d="m259.09,175.8c-1.37-.39-2.09-1.59-1.7-2.98.35-1.22,1.5-2.22,2.51-2.93,1.3-.92,2.83-1.64,4.45-1.18.5.14.69.23.53.79-.1.34-.2.52-.56.58-.03,0-.35-.11-.41-.13-.48-.14-.99-.05-1.48.02-1.54.24-3.14,1.2-3.83,2.63-.03.06-.05.12-.07.19-.26.93.75,1.6,1.52,1.82,1.09.31,3.15-.27,3.27-.24.3.08.41.7.34.96-.28.98-3.77.68-4.56.46Z"/>
      <path d="m271.45,177.51c-.96.61-2.52,1.36-3.69,1.18-.47-.08-.94-.22-1.39-.4-1.89-.73-2.69-1.95-1.92-3.93,1.12-2.89,4.21-3.62,6.99-3.02.12.02.24.06.36.11,1.53.59,2.32,2.45,1.73,3.97-.37.95-1.24,1.58-2.08,2.1Zm-.42-4.91c-1.89-.73-4.33-.57-5.17,1.58-.5,1.29.25,2.44,1.47,2.91,1.72.66,4.16.01,4.87-1.82.47-1.21.05-2.21-1.17-2.68Z"/>
      <path d="m279.56,180.04c-1.77,1.47-3.7,1.82-5.93,1.31-.08-.02-.17-.05-.24-.08-.39-.19-.53-.98-.36-1.34.13-.27.34-.28.6-.21,1.19.3,2.06.66,3.32.37.4-.09,1.03-.39,1.21-.77.01-.03.03-.05.03-.09-.35-.2-.69-.38-1.06-.55-.84-.4-1.7-.73-2.56-1.07-.13-.05-.25-.1-.38-.16-.71-.34-1-.58-.62-1.37.36-.74,1.24-.98,1.95-1.23,1.38-.46,2.92-.77,4.3-.11.14.06.27.13.39.22.33.25.37.83.2,1.17-.18.37-.58.17-.85.04-.22-.1-.41-.23-.63-.33-.92-.44-2.96-.41-3.72.33.56.41,1.17.76,1.79,1.06.81.39,1.65.73,2.5,1.02.14.05.29.09.42.16.4.19.36.55.19.89-.13.28-.34.52-.58.71Z"/>
    </g>
    <g id="aw" data-name="Group 545">
      <circle id="ax" data-name="Ellipse 400" cx="164.46" cy="144.83" r="9.43" fill="#7d8085"/>
      <g id="ay" data-name="Group 544">
        <path id="az" data-name="Path 4172" d="m211.7,138.83l-38.7,17.69c-2.79,1.28-6.09.05-7.37-2.75-.14-.31-.26-.64-.34-.98l-3.78-15.31c-.74-2.98,1.08-5.99,4.06-6.73.34-.08.68-.13,1.02-.15l42.48-2.37c3.06-.17,5.69,2.17,5.86,5.23.13,2.29-1.16,4.42-3.24,5.37Z" fill="#d62028" stroke="#d62028" stroke-miterlimit="10" stroke-width=".91"/>
        <g id="ba" data-name="Group 543">
          <path id="bb" data-name="Path 4173" d="m166.55,130.6c-.59.03-1.17.16-1.73.38l6.43,26.01c.59-.06,1.16-.22,1.7-.47l4.34-1.98-5.98-24.2-4.76.26Z" fill="#ffcd05" stroke="#d62028" stroke-miterlimit="10" stroke-width=".91"/>
          <path id="bc" data-name="Path 4174" d="m180.59,153.04l5.97-2.73-5.07-20.53-6.55.37,5.66,22.9Z" fill="#ffcd05" stroke="#d62028" stroke-miterlimit="10" stroke-width=".91"/>
        </g>
      </g>
    </g>
  </g>
</svg>