<?xml version="1.0" encoding="UTF-8"?><svg xmlns="http://www.w3.org/2000/svg" viewBox="0 0 300 300.05"><g id="a"/><g id="b"><g id="c"><rect id="d" x="0" width="300" height="300" rx="3" ry="3" fill="#bed7ea"/><path d="M241.97,207.86c-10.18-7.39-20.14-15.15-32.15-19.94-1.2-.78-2.54-.49-3.84-.42-1.26,2.38,1.21,2.49,2.35,3.25,3.77,2.52,8.73,3.03,12.1,6.28,.4,.29,.81,.56,1.26,.79,7.25,4.33,14.46,8.71,20.19,14.87,4.18,3.49,9.04,6.07,13.64,8.98,6.8,2.67,13.4,6.05,20.55,7.59,8.82,1.91,16.42,5.84,23.94,10.22v-5.24c-8.36-4.76-17.7-7.6-27.03-10.37-11.52-3.42-21.53-9.13-31.01-16.01Z" fill="#6a6f75"/><path d="M29.87,227.58c19,1.69,37.19-2.39,54.64-9.85,11.31-4.84,22.54-10.03,34.71-12.91,18.42-4.35,36.96-6.16,56.04-5.15,16.21,.86,30.3,5.64,43.24,14.62,9.01,6.26,17.18,13.63,27.07,18.74,9.71,5.02,19.58,9.68,30.85,10.74-1.38-2.58-4.21-2.88-6.65-3.56-17.31-4.82-31.91-14.08-45.26-25.1-14.49-11.95-31.31-17.76-50.27-18.13-10.15-.2-20.31-.51-30.49,.81-14.55,1.88-28.82,4.58-42.4,9.93-12.57,4.96-24.63,11.08-38.01,14.18-6.65,1.54-13.29,2.69-20.15,2.97-14.11,.58-28.25-2.15-42.39,.75-.27,.05-.53,.13-.79,.22v3.33c9.77-2.08,19.62-2.5,29.87-1.59Z" fill="#444345"/><path d="M31.24,217.33c19.18,.82,36.83-3.48,54.09-10.95,12.6-5.45,25.41-10.61,39.15-13.28,16.29-3.17,32.71-4.26,49.3-3.88,18.33,.42,34.89,5.71,49.69,15.8,11.39,7.76,21.84,16.76,34.63,22.66,10.15,4.69,21.48,6.35,31.57,11.18,2.06,.14,3.73,.92,4.92,2.54,1.17,1.21,2.53,2.2,4.05,2.98,.44,.16,.9,.27,1.37,.32v-3.79c-1.99-1.24-4.31-2.12-5.6-4.12-4.64-1.51-8.66-4.55-13.74-4.99-1.54,.16-2.91-.32-4.23-1-1.19-1.08-2.88-1.22-4.23-1.99-3.49-.09-6.48-1.59-9.51-2.99-9.28-2.91-17.43-7.93-24.54-13.91-20.34-17.12-43.57-26.38-71.04-26.07-10.19,.11-20.29,.78-30.33,2.16-13.64,1.88-27.02,4.79-39.65,10.21-2.84,1.22-5.47,3.13-8.89,2.67-.43,.51-.75,1.25-1.31,1.51-12.97,5.97-26.44,10.68-40.96,11.36-11.14,.52-22.32,.14-33.48,.09-4.26-.02-8.42,.39-12.48,1.25v3.13c10.32-1.96,20.85-1.34,31.24-.89Z" fill="#5c5e61"/><path d="M16.38,215.15c9.44-.1,18.87,.58,28.32,.1,14.25-.72,27.42-5.01,40.28-10.42,1.69-.71,3.62-1.57,3.25-3.95h0c-1.97-.14-3.74,.4-5.59,1.07-6.64,2.43-13.01,5.4-19.95,7.23-9.47,2.5-19.12,3.75-28.72,3.21-11.48-.64-22.83-1.06-33.97,1.1v2.99c5.36-1.09,10.84-1.29,16.38-1.35Z" fill="#5f6367"/><path d="M31.07,213.39c9.33,.44,18.44-.16,27.61-1.88,10.45-1.96,19.66-7,29.68-9.95,11.79-6.22,24.63-9.56,37.7-12.37,9.13-1.96,18.41-2.28,27.68-3.12,19.99-1.81,39.19-.19,57.66,7.86,3.04,1.32,5.82,4.8,10.06,2.97-3.88-5.2-11.13-5.1-15.86-8.97-20.4-6.04-41.04-6.44-62.26-4.29-24.08,2.43-46.05,10.16-67.71,19.51-13.78,5.95-28.52,8.81-43.52,7.46-10.93-.98-21.58-.92-32.08,1.09v3.04c10.23-2.09,20.67-1.83,31.07-1.34Z" fill="#65696e"/><path d="M27.97,211.47c17.29,1.9,33.44-1.2,49.2-7.59,9.82-3.98,19.43-8.46,29.63-11.57,12.21-3.73,24.74-5.88,37.5-7.42,18.86-2.27,37.39-1.82,55.76,2.89,1.81,.46,3.65,1.44,5.53,.13,1.41,0,2.82,0,4.23,0-12.91-6.49-27.18-6.91-41.24-7.88-10.14-.7-20.29,.84-30.33,2.05-10.55,1.27-21.14,2.91-31.25,6.15-11.75,3.77-22.77,9.27-34.18,13.86-13.87,5.59-28.42,6.69-43.41,5.97-9.83-.47-19.77-.96-29.41,1.06v3.74c9.22-2.06,18.65-2.42,27.97-1.4Z" fill="#6c7177"/><g><polygon points="293.34 227.82 293.34 227.82 293.34 227.82 293.34 227.82" fill="#71777d"/><path d="M18.58,209.21c8.06,.03,16.12,.76,24.15,.5,14.8-.49,28.55-4.81,41.77-11.07,9.23-4.37,18.79-8.18,28.89-10.55,13.66-3.21,27.5-5,41.55-6.08,18.52-1.43,36.4,.31,53.77,6.55,7.42,4.05,15.1,7.59,21.92,12.7,6.58,4.93,13.17,9.9,20.28,14.22,10.32,6.28,21.8,9.86,33.37,13.29,5.57,1.65,10.76,3.94,15.61,7.09,.04,.02,.08,.05,.11,.08v-4.24c-.85-.56-1.68-1.17-2.43-1.87-1.4-.69-3.06-.89-4.23-2-1.69-.83-3.63-1.1-5.29-1.99-4.47-.64-8.72-1.9-12.68-3.98-2.04-.89-4.53-.49-6.35-2-.87-.02-1.65-.19-2.11-.99-1.65-.92-3.78-.73-5.29-2-.35,0-.7,0-1.05,0-1.59-2.08-4.58-2.16-6.35-3.98-7.48-3.65-13.68-8.93-20.08-13.96-1.5-.89-2.76-2.08-4.23-3h0c-1.5-.89-2.76-2.07-4.23-2.99-2.02-.17-3.52-1.34-5.18-2.27-8.52-4.75-17.73-7.67-27.37-9.82-13.12-2.93-26.33-1.96-39.54-1.87-15.87,.11-31.19,3.49-46.3,7.58-10.45,2.83-20.25,7.45-30.21,11.6-12.59,5.24-25.57,8.7-39.55,8.86-10.31,.11-20.54-1.35-30.92-.33-2.24,.22-4.42,.73-6.6,1.21v2.73c6.1-1.18,12.32-1.41,18.58-1.39Z" fill="#71777d"/></g><g><polygon points="272.2 214.85 272.2 214.85 272.2 214.85 272.2 214.85" fill="#848e97"/><path d="M29.67,204.46c16.82,1.38,32.43-1.85,47.59-8.32,7.21-3.07,14.44-6.12,21.88-8.7,25.44-8.8,51.64-11.78,78.71-10.33,21.78,1.16,40.66,8.25,57.47,21.01,13.64,10.35,27.86,19.74,45.11,24.11,6.87,1.74,13.47,4.09,19.58,7.5v-4.98c-.47-.29-.93-.59-1.37-.91-.87-.02-1.66-.2-2.12-1-5.1-1.23-9.78-3.55-14.8-4.99h0c-3.13-1.12-6.59-1.29-9.52-2.99-7.58-1.75-13.98-5.6-20.09-9.98-10.1-9.28-21.68-16.63-33.99-23.01-22.22-11.53-46.44-10.59-70.49-9.57-10.22,.44-20.42,2.32-30.5,4.6-16.84,3.81-32.34,10.82-48.09,17.18-15.22,6.15-31.1,6.56-47.07,5.54-7.51-.48-14.8-.13-21.98,1.17v4.8c9.82-1.96,19.81-1.93,29.67-1.12Z" fill="#848e97"/></g><path d="M34.01,197.46c12.81,.16,25.13-1.33,37.02-6.35,14.13-5.96,28.33-12.01,43.39-15.59,21.8-5.18,43.93-6.54,66.46-5.44,24.15,1.18,43.94,11.37,62.15,24.78,8.97,6.6,17.95,12.79,28.48,16.78,9.36,3.54,19.1,6.15,28.48,9.63v-6.26c-7.52-2.64-15.05-5.28-22.54-8.02-7.19-2.63-14.94-4.77-20.62-9.65-8.53-7.32-17.86-13.61-27.44-19.37-14.11-8.49-29.92-13.17-46.85-13.81-9.37-.35-18.86-1.78-28.06-.81-8.44,.89-17.02,.83-25.47,3.19-8.45,2.36-17.36,3.43-25.94,5.78-13.26,3.64-25.73,9.19-38.37,14.16-9.68,3.8-19.49,5.3-29.4,5.14-11.46-.18-22.89,.12-34.33,.32-.33,0-.65,.04-.98,.05v6.6c11.25-2.29,22.66-1.29,34.01-1.14Z" fill="#99a8b4"/><path d="M26.2,179.59c14.48,1.68,27.98-.78,41.13-6.18,12.42-5.11,24.68-10.59,37.8-14.02,15.83-4.14,31.96-6.18,48.34-7.39,19.74-1.46,39,.17,57.9,5.45,15.29,4.27,28.66,12.18,40.56,21.82,14.19,11.5,30.64,18.05,48.07,22.94v-5.06c-.27-.07-.54-.14-.82-.2-18.24-3.91-33.6-12.58-47.81-23.9-11.14-8.87-23.79-15.83-37.89-19.98-26.82-7.88-54.18-7.34-81.56-3.85-21.85,2.79-42.58,9.29-62.4,18.51-11.25,5.23-23.28,8.09-35.96,8.28-3.89,.06-7.43-1.3-11.37-1.32-7.45-.02-14.83,.51-22.19,1.26v4.43c8.7-1.41,17.52-1.81,26.2-.8Z" fill="#b6d0e2"/><path d="M34.54,188.44c13.8,.43,26.46-2.67,38.78-8.02,10.07-4.37,20.19-8.88,30.86-11.58,26.13-6.61,52.67-10.26,79.87-7.5,15.4,1.57,30.13,5.19,43.62,12.41,8.73,4.67,16.65,10.59,24.29,16.69,14.06,11.23,31.3,15.59,48.05,21.03v-5.5c-4.2-1.52-8.42-2.99-12.74-4.05-14.9-3.66-26.87-11.83-38.58-20.68-13.7-10.35-28.66-18.57-45.95-22.32-16.83-3.66-33.79-4.68-51.12-3.18-12.23,1.06-24.32,2.51-36.31,4.89-18.56,3.68-35.3,11.96-52.76,18.43-10.6,3.93-21.66,5.55-32.97,4.49-9.96-.93-19.82-1.01-29.57,.5v5.21c11.45-1.83,23.04-1.18,34.54-.82Z" fill="#acc0d0"/><path d="M2.55,224.11c11.92-1.84,23.88-.52,35.81-.94,4.92-.17,9.89,.51,14.74-.48,13.27-2.71,25.89-7.2,38.37-12.23,7.89-3.17,15.71-6.69,23.99-8.85,19.08-4.99,38.54-7.4,58.39-6.37,16.84,.87,32.38,5.24,46.2,14.72,7.51,5.15,14.29,11.11,21.97,16.13,9.28,6.07,19.36,10.02,29.92,13.01,10.39,2.94,20.54,6.01,28.05,13.38v-4.4c-1.51-1.43-3.03-2.87-4.54-4.3h0c-5.07-3.02-10.4-5.7-16.2-7.05-20.52-4.77-37.47-15.33-53.44-27.92-8.93-7.04-19.2-12.33-30.68-14.91-23.19-5.22-46.41-3.58-69.48,.66-16.32,3-31.26,9.84-46.41,16.05-12,4.92-24.41,8.34-37.68,8.25-10.56-.07-21.12-.14-31.67,.03-3.35,.05-6.66,.42-9.89,1.11v4.73c.83-.26,1.68-.48,2.55-.61Z" fill="#4d4e50"/><path d="M1.26,220.24c11.89-2.09,23.88-1.09,35.8-.96,15.64,.18,30.25-3.03,44.43-9.09,6.7-2.86,13.32-5.96,20.24-8.36,15.58-5.42,31.56-8.83,48.22-9.93,12.52-.82,24.91-1,37.29,.81,16.7,2.44,30.65,10.24,43.45,20.22,13.55,10.57,28.25,19.1,45.54,23.29,6.27,1.52,12.44,3.66,17.71,7.49,.48,.3,.99,.54,1.54,.7,1.16,.25,2.25,.24,3.15-.64-1.06-1-2.12-1.99-3.18-2.99-1.5-.88-2.76-2.06-4.23-2.99-4.89-1.7-9.68-3.72-14.69-5.02-14.98-3.9-28.1-10.86-40.11-20.08-10.48-8.04-21.34-15.69-34.3-19.97-20.27-6.71-41.15-5.54-61.95-3.57-20.29,1.92-39.11,8.78-57.46,16.82-15.48,6.78-31.47,10.69-48.8,10.01-11.31-.44-22.71-.93-33.92,.88v3.66c.42-.11,.84-.2,1.26-.28Z" fill="#57585b"/><path d="M30.75,219.84c2.64,0,5.29-.06,7.93,.01,15.28,.41,29.39-3.81,43.2-9.45,12.22-4.99,24.38-10.15,37.27-13.55,17.61-4.64,35.6-5.14,53.72-5,20.88,.16,38.93,6.95,54.86,19.41,13.57,10.62,27.73,20.33,45.3,24.35,7.87,1.8,14.84,5.73,22.44,8.17-2.96-3.26-6.85-5.07-11.1-6.26-18.48-5.15-36.13-11.91-50.88-24.04-9.62-7.91-20.02-14.71-32.11-18.63-24.9-8.06-50.2-5.46-75.32-1.22-14.01,2.36-27.27,7.36-40.02,13.32-18.03,8.42-36.96,12.25-57.09,10.96-5.44-.35-10.92,.01-16.38-.07-4.3-.06-8.47,.44-12.56,1.35v1.74c10.15-1.53,20.47-1.08,30.75-1.08Z" fill="#525355"/><path d="M1.8,227.09c8.16-1.29,16.22-1.79,24.58-1.09,22.03,1.85,42.85-2.57,62.79-11.65,10.71-4.87,21.72-9.45,33.41-11.86,16.88-3.47,33.99-4.97,51.32-4.29,18.52,.73,35.06,5.99,49.24,17.56,13.92,11.36,28.98,21.03,46.95,25.93,2.05,.56,3.92,1.46,5.7,2.55,.51,.24,1.04,.42,1.6,.53,1.61,.31,3.23,.25,4.86,.28,2.01-.09,3.83,.47,5.42,1.59,4.32,3.02,8.66,5.99,12.32,9.71v-5.71c-7.58-6.5-17.01-10.34-27.42-12.91-6.53-1.61-13.21-3.47-19.08-6.49-10.73-5.51-20.35-12.69-29.7-20.15-8.11-6.48-17.38-11.31-27.57-13.89-16.78-4.24-33.89-4.03-51.13-2.44-23.43,2.15-44.6,10.71-66.01,19.01-10.94,4.24-22.18,7.9-34.4,8.13-14.9,.28-30-1.54-44.7,1.42v4.06c.59-.11,1.19-.22,1.8-.31Z" fill="#48484a"/><path d="M36.23,231.84c9.46,.15,19.16,.58,28.17-2.32,15.46-4.98,30.64-10.78,45.64-16.9,10.96-4.48,22.62-5.89,34.15-7.98,9.07-1.64,18.21-.36,27.31-.7,17.17-.63,31.89,5.16,45.33,14.62,8.32,5.85,15.96,12.57,24.81,17.76,6.6,3.87,13.57,7.21,21.18,8.65,15.7,2.97,28.44,9.61,37.19,21.5v-7.25c-3.75-4.32-7.94-8.26-13-11.45-2.87-1.97-6.19-2.98-9.52-3.99-.35,0-.7,0-1.06,0-21.18-5.4-39.12-16.14-55.61-29.49-7.81-6.33-16.97-10.65-26.98-13.22-16.26-4.17-32.74-3.3-49.24-2.01-21.19,1.65-40.65,8.7-59.68,17.07-18.73,8.23-38.26,11.86-58.93,9.84-8.85-.87-17.56-.45-25.99,1.75v5.71c11.89-2.48,24.07-1.77,36.23-1.58Z" fill="#403e40"/><path d="M5.89,237.03c11.72-1.92,23.54-.81,35.31-.79,13.8,.02,26.89-2.74,39.6-7.42,10-3.68,19.51-8.44,29.56-12.02,19.55-6.96,39.84-9.04,60.63-8.71,15.92,.25,29.98,4.81,42.68,13.64,7.65,5.32,14.73,11.32,22.51,16.49,11.31,7.52,24.63,10.41,37.43,14.43,7.78,2.45,14.18,6.48,19.32,12.41,2.77,3.2,5.05,6.66,7.07,10.26v-10.53c-.3-.39-.6-.79-.89-1.19-6.22-8.69-14.93-14.01-25.6-16.89-9.3-2.52-18.8-4.67-27.35-9.22-9.06-4.83-16.94-11.18-24.92-17.38-11.39-8.84-24.1-14.66-38.79-16.93-9.28-1.44-18.51-.29-27.76-.66-11.16-.45-21.99,2.61-32.75,5.02-14.83,3.32-28.05,10.92-42.56,15.2-8.26,2.43-15.82,6.23-24.92,7.12-9.69,.95-19.35,.68-28.89,.6-8.74-.07-17.25,.18-25.58,1.87v5.92c1.95-.47,3.91-.89,5.89-1.22Z" fill="#3a383a"/><path d="M8.68,238.97c7.57-1.12,15.01-.41,22.56,0,18.52,1.03,36.38-2.06,53.48-8.99,13.06-5.29,25.72-11.51,39.68-14.75,10.28-2.39,20.67-3.63,31.18-4.51,21.84-1.82,42.3,1.51,59.28,15.37,16.54,13.51,34.9,23.22,56.04,28.64,10.3,2.64,18.48,8.55,24.05,17.48,1.93,3.09,3.52,6.33,5.05,9.58v-9.4c-6.4-10.14-14.51-18.16-27.26-21.41-18.95-4.83-36.46-12.14-51.12-25.16-8.13-7.23-17.87-12.82-28.79-15.95-17.38-4.99-35.15-3.62-52.7-1.69-18.45,2.02-35.48,8.86-52.2,16.27-14.92,6.62-30.47,10.75-47.16,10.38-9.15-.2-18.31-.25-27.46,.03-4.53,.14-8.98,.77-13.32,1.88v3.91c2.84-.74,5.73-1.24,8.68-1.68Z" fill="#373436"/><path d="M.36,243.07c6.61-1.97,13.57-3.08,20.24-2.44,25.5,2.43,49.77-1,72.8-11.71,10.59-4.93,21.46-9.09,32.96-11.82,13.22-3.14,26.75-4.63,40.19-4.45,11.66,.16,23.42,2.27,34.28,7.12,2.26,.39,4.27,1.24,5.84,2.86,1.29,1.37,2.85,2.37,4.67,3.01,1.81,.49,3.11,1.56,4.04,3.07,1.97,2.56,4.81,4.12,7.53,5.83,1.75,.54,3.09,1.57,4.15,2.96,.46,.48,1,.89,1.61,1.19,2.33,1.04,4.47,2.31,6,4.33,5.31,3.42,11.16,5.79,17.16,7.89,2.26,.24,4.4,.77,6.24,2.09,5.05,1.93,10.25,3.42,15.49,4.81,3.16,.3,6.01,1.19,8.13,3.59,1.19,1.48,2.84,2.42,4.53,3.3,2.08,1.17,3.71,2.76,4.99,4.7,.25,.37,.51,.73,.8,1.08,1.35,1.48,2.11,3.21,2.42,5.13,.91,2.84,2.32,5.43,4.24,7.78,.61,.57,1.03,1.22,1.32,1.91v-7.17c-6.61-12.95-16.73-21.86-32.51-25.82-17.61-4.41-33.58-12.17-47.29-23.95-7.09-6.1-15.06-11.22-24.3-14.47-16.25-5.72-32.94-5.79-49.76-3.9-19.29,2.17-37.48,7.84-54.96,15.87-16.89,7.76-34.71,12.18-53.7,12.04-5.29-.04-10.46-.87-15.71-1.06-7.45-.27-14.69,.71-21.79,2.42v3.94c.12-.04,.24-.08,.36-.11Z" fill="#363435"/><path d="M14.76,243.83c3.68-.87,7.35-1.23,10.9,.04,2.72,.97,5.45,1.1,8.27,1.27,8.49,.51,16.82-.82,25.16-1.81,16.86-2,32.13-8.79,47.17-15.57,19.23-8.66,39.85-10.2,60.4-12.57,3.83-.44,7.12,1.7,10.83,1.96,11.81,.81,22.37,5,31.25,12.12,17.26,13.84,35.83,25,58.14,30.34,14.21,3.4,22.84,12.88,27.97,25.7,1.63,4.07,2.97,8.32,5.09,12.22,.03-.17,.05-.35,.05-.53v-13.7c-.09-.21-.19-.42-.31-.62-2.12-2.33-3.43-5.03-4.23-7.98-1.35-1.49-1.9-3.45-3.17-4.99-1.45-2.24-3.88-3.71-5.29-5.99-1.54-.83-3.46-1.19-4.23-2.99-2.82-1.33-5.47-2.98-8.46-3.99-5.29-1.66-10.57-3.33-15.86-4.99-2.09-.74-4.42-.8-6.34-2-5.94-2.1-11.68-4.56-16.92-7.98-2.18-1.24-4.4-2.41-6.34-3.99-.35-.33-.7-.67-1.06-1-1.5-.88-2.77-2.06-4.23-2.99-2.35-2.12-5.72-3.12-7.4-5.99-1.5-.88-2.77-2.06-4.23-2.99-1.54-.83-3.46-1.19-4.23-2.99-1.98-.66-3.82-1.53-5.29-2.99-14.26-5.44-28.85-7.88-44.43-7.19-22.1,.97-42.93,5.63-62.71,14.84-18.83,8.77-38.49,13.94-59.77,13.47-6.76-.15-13.51-.82-20.35-.57-5.26,.19-10.21,1.42-15.16,2.59v4.52c4.89-1,9.9-1.52,14.76-2.66Z" fill="#343233"/><path d="M32.87,255.92c17.94,.89,35.38-.83,52.45-6.66,11.6-3.96,22.86-8.6,34.22-13.04,12.18-4.76,25.08-6.27,38.06-7.49,13.52-1.27,26.29,.43,37.87,7.63,7.78,4.83,14.6,10.78,21.83,16.24,11.04,8.34,23.85,14.39,37.77,16.95,15.36,2.82,24.69,10.9,29.41,24.61,.66,1.91,1.02,4.02,2.03,5.84h10.48c1.66,0,3-1.34,3-3v-3.64c-2.09-5.33-4.57-10.51-7.3-15.55-4.36-8.06-10.7-14.42-20.33-17.67-8.42-2.84-17.27-4.64-25.33-8.12-11.96-5.16-22.98-12.03-32.74-20.49-14.11-12.22-31.4-16.3-49.85-17.77-5.07-.4-9.22,2.68-14.32,2.2-6.66-.63-13.22,1.19-19.68,2.5-14.44,2.94-27.69,9.08-40.99,14.85-15.21,6.6-31.25,9.39-47.73,10.38-6.54,.39-13.08-1.07-19.53-1.53-7.48-.53-14.9,.89-22.2,2.89v14.76c10.47-4,21.59-4.47,32.87-3.91Z" fill="#322f30"/><path d="M3,300H287.97c-.39-3.43-2.18-6.52-3.48-9.62-3.62-8.62-9.02-16.09-18.93-19.28-7.11-2.29-14.27-4.49-21.53-6.27-10.41-2.56-19.15-8.26-27.11-14.35-7.55-5.77-14.78-11.92-23.12-16.62-6.16-3.48-12.8-5.63-20.28-6.32-6.91-.64-13.57-.31-20.37,.25-10.1,.84-20.18,2.16-29.63,5.52-13.28,4.71-26.04,10.67-39.52,14.99-11.69,3.75-23.6,6-35.96,6.52-8.38,.36-16.71-.45-25.1-.31-8.13,.14-15.73,1.41-22.95,4.06v38.43c0,1.66,1.34,3,3,3Z" fill="#2f2c2d"/><path d="M19,207.5c20.93,2.36,40.87-.2,60.04-8.68,14.62-6.47,29.59-11.94,45.58-15.08,16.48-3.23,32.99-3.78,49.68-3.63,9.06,.08,17.71,1.7,26.39,3.94,8.26,2.13,15.55,6.06,23.07,9.65,1.95,.37,3.79,.94,5.23,2.33,.37,.28,.75,.55,1.16,.78,1.44,.77,2.51,1.91,3.51,3.12,6.23,5.18,12.49,10.33,20.04,13.81,2.46,.7,4.74,1.7,6.57,3.44,.39,.24,.81,.43,1.26,.56,1.8,.35,3.52,.87,4.89,2.11,.76,.58,1.64,.91,2.59,1.09,2.16,.29,4.23,.79,5.97,2.12,3.81,1.98,7.94,3.06,12.18,3.88,1.86,.06,3.68,.29,5.31,1.23,.4,.2,.8,.41,1.22,.58,1.24,.51,2.38,1.17,3.34,2.09,.94,.8,1.93,1.52,2.97,2.16v-4.76c-4.25-2.35-8.63-4.45-13.48-5.64-17.79-4.36-33.62-12.24-47.48-23.58-21.53-17.61-46.93-24.44-74.87-23.99-8.2,.13-16.37,1.27-24.56,1.9-16.78,1.3-32.74,5.64-48.06,11.98-20.43,8.45-40.59,16.95-63.97,14.15-9.18-1.1-18.45-.55-27.6,1.01v4.86c6.31-.84,12.71-2.15,19-1.44Z" fill="#787e85"/><path d="M26.53,201.11c6.76,.65,13.69,.39,20.55-.27,12.13-1.15,23.17-5.46,34.05-10.17,14.29-6.19,29-11.11,44.42-14.1,16.66-3.23,33.52-3.59,50.43-3.21,10.8,.24,21.32,1.98,31.48,5.58,16.43,5.82,29.92,15.95,43.45,26.06,6.45,3.97,13.01,7.71,20.28,10.22,.45,.19,.91,.37,1.38,.52,2.87,1.01,6.01,1.21,8.72,2.65,.44,.18,.88,.34,1.35,.45,4.58,1.25,9.06,2.73,13.19,5.02,.83,.55,1.73,.94,2.71,1.2,.5,.12,.99,.28,1.47,.45v-5.66c-1.93-.8-3.9-1.53-5.9-2.21-9.05-3.1-18.4-5.39-27.21-9.19-11.2-4.83-20.07-12.75-29.91-19.37-12.92-8.69-26.44-16.23-42.34-18.62-12.75-1.92-25.52-2.62-38.62-1.8-16.47,1.03-32.58,2.85-48.39,7.36-12.27,3.5-24.18,8.07-35.65,13.21-11.16,5.01-22.82,7.33-34.49,7.13-12.6-.21-25.1-.73-37.5,.95v4.83c8.76-1.21,17.55-1.87,26.53-1.01Z" fill="#8d98a2"/><path d="M23.33,192.62c3.01-.42,5.93-.19,8.93,.09,9.95,.93,19.78-.19,29.09-3.4,14.49-5,28.27-11.71,43.08-15.97,10.42-2.99,21.07-5.07,31.78-6.83,8.48-1.39,17.06-1.62,25.67-1.54,11.24,.1,22.48,.01,33.6,1.81,4.52,.73,8.46,3.33,13.05,3.96,5.86,.82,11.09,3.07,16.09,6,10.91,6.41,21.29,13.5,31.12,21.31,2.43,1.93,5.06,3.64,7.92,4.91,10.96,4.87,22.53,8.33,33.82,12.42,.83,.3,1.66,.63,2.51,.95v-6.52c-1-.47-2.05-.89-3.19-1.17-16.32-4.06-31.8-9.72-45.06-20.19-8.14-6.43-16.54-12.76-26.03-17.41-16.58-8.13-34.6-11.15-53.06-12-7.52-.35-15.05,.14-22.6,.79-8.72,.75-17.37,1.72-25.99,3.13-18.73,3.06-36.15,9.62-53.35,17.05-7.7,3.33-15.75,6.63-24.44,6.82-15.43,.34-30.91-.46-46.29,.96v5.29c7.76-.59,15.6,.61,23.33-.48Z" fill="#a5b8c6"/><path d="M26.69,184.6c12.93,1.36,25.18-.39,37.28-4.55,8.78-3.02,17.02-7.17,25.74-10.32,32.34-11.68,65.67-15.68,100.04-11.81,21.83,2.46,41.24,10.81,57.54,24.25,15.54,12.81,33.84,19.45,52.71,25.36v-7.08c-.13-.03-.25-.08-.38-.11-17.91-3.97-33.67-11.71-47.77-22.99-24.03-19.24-52.38-27.33-83.61-27.38-6.15,0-12.24,.69-18.35,.91-10.37,.37-20.48,2.14-30.61,3.86-19,3.24-36.39,10.73-53.93,17.94-12,4.93-24.46,7.07-37.87,5.59-9.12-1-18.38-1-27.48,.58v6.52c8.86-1.41,17.81-1.71,26.69-.77Z" fill="#b2c9db"/><path d="M25.74,176.46c13.62,1.68,26.24-.59,38.65-5.25,9.81-3.68,19.17-8.35,29.16-11.66,25.89-8.58,52.62-11.76,79.93-11.15,11.82,.26,23.44,1.95,34.92,4.74,18.93,4.6,34.85,14.49,49.25,26.24,12.51,10.2,27.36,14.78,42.36,19.31v-9.73c-1.53-.38-3.05-.78-4.55-1.23-7.86-2.35-15.85-4.6-22.77-8.95-9.59-6.03-17.68-13.93-27.45-19.8-14.35-8.62-29-15.59-46.9-15.1-23.41,.64-46.85,.47-70.27,.05-16.2-.29-31.05,3.99-45.63,9.84-9.69,3.89-19.15,8.45-29.14,11.46-8.13,2.45-16.65,3.16-25.59,2.02-9.17-1.17-18.46-.52-27.7,.58v9.33c8.56-1.39,17.28-1.73,25.74-.69Z" fill="#bbd5e8"/><path d="M112.81,263.43c-3.4-6.37-9.85-14.63-16.64-18.87-.2-.12-.43-.2-.66-.22-6-.15-9.76,3.94-14.18,7.08-5.11,3.63-10.7,5.18-15.72,8.52-9.91,6.57-19.11,14.15-27.45,22.63-5.21,5.24-9.76,12.03-15.45,17.42h105.41c-.05-.26-.1-.51-.15-.77-3.05-15.8-7.93-22.25-15.17-35.8Z" fill="#991c21"/><path d="M200.69,282.4c-.49-1.67-1.15-3.28-1.96-4.82-.61-1.13-1.86-2.21-2.06-3.48l-84.34-5.6c-3.42,2.45-3.88,7.29-3.78,11.49,.15,6.74,1.1,13.39,2.27,20.01h90.51c.34-2.39,.59-4.79,.65-7.2,.13-3.51-.31-7.02-1.29-10.4Z" fill="#44ac8b"/><path d="M298.63,243.77c-1.06,0-2.12,0-3.17,0,1.23,2.29,2.77,4.28,4.54,6.06v-5.72c-.11-.11-.21-.23-.32-.34-.35,0-.7,0-1.05,0Z" fill="#525355"/><path d="M271.93,226.68c-5.74-1.52-10.61-5.14-16.65-5.85,1.93,2.37,5.87,2.09,7.4,5,1.89,3.41,5.58,3.43,8.88,4.17,1.82-.02,3.36,.61,4.7,1.72,1.29,.86,2.74,1.22,4.3,1.29,4.92-.2,8.86,1.99,12.67,4.54,1.96,1.98,4.49,3.29,6.76,4.91v-4.38c-.39-.27-.78-.54-1.17-.8-8.16-5.49-17.49-8.11-26.9-10.6Z" fill="#606468"/><path d="M286.16,248.65c5.32,3.52,9.88,7.7,13.84,12.4v-6.27c-4.85-4.81-9.91-9.39-17.23-11-.55,2.66,2.52,3.09,3.39,4.87Z" fill="#444345"/><path d="M272.2,214.85c-8.33-.39-14.59-4.5-20.09-9.98,6.7,3.33,13.39,6.65,20.09,9.98Z" fill="#858f98"/><path d="M296.51,222.83c-5.45-.31-10.22-2.38-14.8-4.99,5.46,.27,10.08,2.78,14.8,4.99Z" fill="#858f98"/><path d="M281.71,217.84c-3.63,.29-6.86-.55-9.52-2.99,3.31,.61,6.86,.55,9.52,2.99Z" fill="#858f98"/><path d="M260.57,216.84c-2.28-1.1-5.23-1.25-6.35-3.98,2.5,.78,5.47,.91,6.35,3.98Z" fill="#777e85"/><path d="M275.36,221.84c-2.28-.2-4.97,.74-6.35-2,2.33,.07,4.52,.51,6.35,2Z" fill="#777e85"/><path d="M266.91,218.85c-2.03-.03-4.23,.31-5.29-2,2.07-.06,3.92,.4,5.29,2Z" fill="#777e85"/><path d="M293.34,227.82c-2.07,.06-3.91-.42-5.29-1.99,2.07-.07,3.92,.4,5.29,1.99Z" fill="#777e85"/><path d="M234.13,198.9c-2.13-.09-3.3-1.4-4.23-3,2.15,.07,3.31,1.39,4.23,3Z" fill="#777e85"/><path d="M229.9,195.9c-2.14-.08-3.3-1.4-4.23-2.99,2.15,.07,3.31,1.39,4.23,2.99Z" fill="#777e85"/><path d="M297.57,229.82c-1.81,.08-3.43-.19-4.23-2,1.68,.16,3.16,.69,4.23,2Z" fill="#777e85"/><path d="M88.23,200.88c7-5.21,15.38-7.69,23.74-9.78,13.69-3.42,27.54-5.75,41.85-6.48,12.16-.63,24.08-.46,36.03,1.29,9.55,1.39,18.24,5.12,26.83,9.04,1.57,.72,2.94,1.83,4.77,1.95,7.21,4.78,14.39,9.61,21.15,14.96,3.82,3.51,9.14,5.12,12.69,8.97,2.13,.92,4.37,1.67,6.36,2.86,.98,.58,2.05,1.39,.57,2.57-2.5,.62-4.42-.8-6.41-1.74-10.3-4.83-19.01-11.86-27.92-18.53-13.15-9.84-27.98-15.57-44.51-17.77-16-2.12-31.86-.88-47.71,1.31-14.3,1.98-28.17,5.33-41.23,11.35-1.75,.81-3.59,1.43-5.57,.56-.21-.18-.42-.37-.63-.55Z" fill="#5f6367"/><path d="M242.59,211.86c-7.48-4.45-14.84-9.04-21.15-14.96,8.18,3.57,15.16,8.64,21.15,14.96Z" fill="#65696e"/><path d="M294.4,236.8c-5.1-.4-8.94-3.87-13.74-4.99,5.42-.4,9.58,2.3,13.74,4.99Z" fill="#5f6367"/><path d="M276.42,230.81c-1.68-.16-3.15-.7-4.23-1.99,1.81-.1,3.43,.17,4.23,1.99Z" fill="#5f6367"/><path d="M295.46,240.79c-2.14-.07-3.3-1.39-4.23-2.99,2.14,.07,3.3,1.39,4.23,2.99Z" fill="#585a5d"/><path d="M287,247.77c-3.27-1.12-6.78-1.73-9.52-3.99,1.76,0,3.52,0,5.29,0,1.41,1.33,2.82,2.66,4.23,3.99Z" fill="#444345"/><path d="M282.77,260.74c-3.51-.03-5.81-2.34-8.46-3.99,3.42,.2,6.33,1.36,8.46,3.99Z" fill="#353234"/><path d="M292.28,269.71c-2.25-1.61-4.79-3-5.29-5.99,2.25,1.61,4.79,3,5.29,5.99Z" fill="#353234"/><path d="M235.19,241.78c-2.77-.41-4.98-1.59-6.34-3.99,2.6,.64,4.78,1.88,6.34,3.99Z" fill="#353234"/><path d="M207.7,221.83c-2.31-.14-4.69-.16-5.29-2.99,2.26,.22,3.72,1.69,5.29,2.99Z" fill="#353234"/><path d="M295.46,274.7c-2.13-1.05-2.81-2.93-3.17-4.99,2.13,1.05,2.81,2.93,3.17,4.99Z" fill="#353234"/><path d="M258.45,251.76c-2.38,.08-4.68-.05-6.34-2,2.32,.09,4.51,.53,6.34,2Z" fill="#353234"/><path d="M227.79,236.8c-2.14-.07-3.3-1.39-4.23-2.99,2.14,.07,3.3,1.39,4.23,2.99Z" fill="#353234"/><path d="M216.16,227.82c-2.14-.07-3.3-1.39-4.23-2.99,2.14,.07,3.3,1.39,4.23,2.99Z" fill="#353234"/><g id="e"><g id="f"><circle id="g" cx="64.3" cy="240.28" r="5.21" fill="#7c8186"/><g id="h"><path id="i" d="M70.15,214.64l1.83,23.43c.13,1.69-1.13,3.17-2.82,3.3-.19,.01-.38,.01-.57,0l-8.66-.94c-1.69-.18-2.9-1.7-2.72-3.38,.02-.19,.06-.38,.11-.56l6.83-22.48c.49-1.62,2.21-2.54,3.83-2.05,1.21,.37,2.07,1.44,2.17,2.7Z" fill="#d72028" stroke="#d72028" stroke-miterlimit="10" stroke-width=".5"/><g id="j"><path id="k" d="M57.32,236.5c-.09,.31-.14,.64-.13,.97l14.71,1.6c.08-.32,.11-.65,.08-.97l-.21-2.63-13.69-1.49-.77,2.52Z" fill="#ffce07" stroke="#d72028" stroke-miterlimit="10" stroke-width=".5"/><path id="l" d="M71.62,233.47l-.28-3.62-11.61-1.26-1.05,3.47,12.95,1.41Z" fill="#ffce07" stroke="#d72028" stroke-miterlimit="10" stroke-width=".5"/></g></g></g><g id="m"><circle id="n" cx="124.09" cy="224.26" r="5.21" fill="#7c8186"/><g id="o"><path id="p" d="M106.2,204.98l10.12,21.2c.73,1.53,2.56,2.18,4.09,1.45,.17-.08,.34-.18,.49-.29l7.03-5.15c1.37-1,1.66-2.92,.66-4.29-.11-.15-.24-.3-.38-.43l-17.15-16.06c-1.24-1.16-3.18-1.1-4.34,.14-.87,.92-1.08,2.29-.53,3.43Z" fill="#d72028" stroke="#d72028" stroke-miterlimit="10" stroke-width=".5"/><g id="q"><path id="r" d="M128.24,217.5c.24,.22,.44,.48,.6,.77l-11.94,8.74c-.23-.24-.41-.51-.56-.8l-1.14-2.38,11.11-8.13,1.92,1.8Z" fill="#ffce07" stroke="#d72028" stroke-miterlimit="10" stroke-width=".5"/><path id="s" d="M114.34,222.03l-1.56-3.27,9.43-6.9,2.65,2.48-10.51,7.69Z" fill="#ffce07" stroke="#d72028" stroke-miterlimit="10" stroke-width=".5"/></g></g></g></g><path id="t" d="M133.23,233.13c-.76,.38-1.25,3.09-1.44,3.85-.16,1.25-.25,2.5-.28,3.76-.09,.8-.5,1.54-1.14,2.03-2.36,1.63-7.75,.96-10.46,.67-3.5-.38-6.95-1.18-10.44-1.66-2.96-.44-5.94-.71-8.93-.79-1.06,.02-2.12,.14-3.17,.34-1.11,.16-2.82-.25-3.84,.19,6.35-2.79,13.14-4.46,20.07-4.92,6.82-.57,13.25-.33,19.62-3.48Z" fill="#d72028" stroke="#d72028" stroke-miterlimit="10" stroke-width=".82"/><g id="u"><path id="v" d="M66.72,194.34c-.07,.13-.13,.27-.19,.41l.19-.41Z" fill="#991c21"/><path id="w" d="M99.86,186.43c-.98,.76-9.95,7.64-15.5,9.12s-16.76,.02-17.99-.15c-.04,.29-.03,.58,.05,.86,.85,3.18,9.12,3.73,18.46,1.23s16.23-7.11,15.37-10.29c-.08-.28-.21-.54-.39-.77Z" fill="#991c21"/></g><g id="x"><ellipse id="y" cx="89.81" cy="215.9" rx="22.3" ry="31.31" transform="translate(-52.85 30.62) rotate(-15.01)" fill="#f06f7f"/><circle id="a`" cx="92.3" cy="194.19" r="1.58" fill="#f48b93"/><circle id="aa" cx="72.67" cy="208.15" r="1.58" fill="#f48b93"/><circle id="ab" cx="98.08" cy="215.77" r="1.58" fill="#f48b93"/><circle id="ac" cx="79.26" cy="226.68" r="1.58" fill="#f48b93"/><circle id="ad" cx="85.06" cy="201.58" r="1.58" fill="#f48b93"/><circle id="ae" cx="105.74" cy="226.1" r="1.58" fill="#f48b93"/><circle id="af" cx="94.8" cy="225.78" r="1.58" fill="#f48b93"/><circle id="ag" cx="102.06" cy="204.35" r="1.58" fill="#f48b93"/><circle id="ah" cx="85.8" cy="214.62" r="1.58" fill="#f48b93"/><circle id="ai" cx="78.31" cy="194.66" r="1.58" fill="#f48b93"/><circle id="aj" cx="87.95" cy="236.73" r="1.58" fill="#f48b93"/><circle id="ak" cx="102.15" cy="237.06" r="1.58" fill="#f48b93"/></g><path id="al" d="M66.28,194.82c-.76,1.17,1.9,1.07,2.32,1.12,1.15,.12,2.3,.27,3.46,.42,1.81,.25,3.63,.39,5.46,.42,2.48,.12,4.97-.1,7.39-.66,2.35-.83,4.59-1.98,6.64-3.4,1.65-1,3.29-2.02,4.84-3.18,.58-.44,2.85-2.05,3.33-2.58,.15-.14,.26-.33,.3-.53,.04-.21-.09-.42-.29-.48" fill="none" stroke="#991c21" stroke-linecap="round" stroke-linejoin="round" stroke-width="1.61"/><ellipse id="am" cx="81.6" cy="185.27" rx="12.49" ry="10.41" transform="translate(-45.19 27.45) rotate(-15.01)" fill="#d72028" stroke="#991c21" stroke-miterlimit="10" stroke-width="1"/><path id="an" d="M90.42,179.54l-19.32,5.18-4.65,10.57s12.1,1.77,17.9,.22,15.39-9.14,15.39-9.14l-9.32-6.83Z" fill="#d72028" stroke="#d72028" stroke-linecap="round" stroke-linejoin="round" stroke-width=".5"/><g id="ao"><path id="ap" d="M72.22,188.87c-1.13-4.04,.11-8.7,3.31-12.47" fill="none" stroke="#991c21" stroke-linecap="round" stroke-linejoin="round" stroke-width="1"/><path id="aq" d="M91.52,183.7c-1.04-4.06-4.44-7.48-9.1-9.15" fill="none" stroke="#991c21" stroke-linecap="round" stroke-linejoin="round" stroke-width="1"/></g><path id="ar" d="M81.31,172.75c-1.03-1.57-2.48-.88-4.19-.41-.94,.14-1.61,.99-1.53,1.94l-.72,12.84c-.1,1.74,1.75,2.95,3.71,2.42l7.76-2.08c1.96-.53,2.96-2.49,2-3.95l-7.04-10.76Z" fill="#d72028" stroke="#991c21" stroke-linecap="round" stroke-linejoin="round" stroke-width="1"/><path id="as" d="M84.87,176.7c-.4,.33-.84,.6-1.31,.81-.51,.19-1.04,.3-1.58,.31-.53,.02-1.06-.06-1.56-.23-.23-.07-.45-.18-.65-.31-.16-.11-.34-.31-.5-.05-.15,.26-.31,.51-.49,.75-.39,.49-.88,.88-1.45,1.14-.45,.22-.94,.36-1.43,.43-.18,.02-1.36,.13-1.42-.06,1.18,3.57,3.99,6.37,7.57,7.55,0,0,.01,.01,.04,.01v-.02c2.52-2.81,3.55-6.64,2.78-10.32Z" fill="#ffce07"/><path id="at" d="M84.25,182.24c.33-1.21,.46-2.47,.41-3.72,0-.19,.01-.6-.25-.63-.19-.02-.35,.26-.4,.4-.07,.27-.1,.55-.08,.83,.06,1.42-.1,2.85-.47,4.22-.18,.59-.41,1.17-.69,1.72-.22,.54-.5,1.04-.83,1.51,1.09-1.25,1.88-2.73,2.31-4.33Z" fill="#fff2d1"/><g isolation="isolate"><path d="M77.16,180.75l.54,2c.02,.08-.01,.13-.09,.15l-.19,.05c-.07,.02-.13-.01-.15-.09l-.54-2-.34,.09c-.08,.02-.13-.01-.15-.09l-.03-.1c-.02-.08,.01-.13,.09-.15l1.11-.3c.07-.02,.13,0,.15,.08l.03,.1c.02,.07-.01,.13-.09,.15l-.34,.09Z" fill="#231f20"/><path d="M79.05,180.43l.38,1.44c.09,.35-.06,.58-.48,.69-.43,.11-.67,0-.76-.36l-.39-1.44c-.09-.35,.05-.58,.48-.69,.43-.11,.67,0,.76,.36Zm-.81,.22l.38,1.44c.03,.12,.1,.18,.24,.14,.14-.04,.17-.13,.14-.24l-.38-1.44c-.03-.11-.11-.18-.25-.14-.14,.04-.17,.13-.14,.24Z" fill="#231f20"/><path d="M80.09,179.73c-.02-.08,.01-.13,.09-.15l.17-.05c.07-.02,.13,0,.15,.08l.59,2.22c.02,.08,0,.13-.08,.15l-.21,.06c-.07,.02-.11-.01-.14-.06l-.53-.84-.3-.52h-.03l.2,.58,.23,.86c.02,.08,0,.13-.08,.15l-.17,.05c-.07,.02-.13-.01-.15-.09l-.6-2.22c-.02-.08,.01-.13,.09-.15l.21-.06c.07-.02,.11,0,.14,.06l.53,.84,.3,.52h.03l-.2-.58-.23-.86Z" fill="#231f20"/><path d="M81.56,180.2l.47,.24c.26,.13,.35,.28,.44,.61,.09,.35-.05,.58-.48,.69-.43,.11-.67,0-.76-.36l-.07-.27c-.02-.07,0-.13,.08-.15l.2-.05c.08-.02,.13,.01,.15,.09l.07,.27c.03,.12,.11,.18,.25,.14,.14-.04,.17-.13,.14-.25-.05-.19-.1-.27-.28-.37l-.48-.24c-.26-.13-.35-.28-.44-.61-.09-.35,.05-.58,.48-.69,.43-.11,.67,0,.76,.36l.07,.27c.02,.07,0,.13-.08,.15l-.2,.05c-.08,.02-.13-.01-.15-.08l-.07-.27c-.03-.11-.11-.18-.24-.14-.14,.04-.17,.13-.14,.25,.05,.19,.1,.27,.28,.37Z" fill="#231f20"/><path d="M83.25,181.26c.02,.08-.01,.13-.09,.15l-.19,.05c-.07,.02-.13-.01-.15-.09l-.6-2.22c-.02-.08,.01-.13,.09-.15l.19-.05c.07-.02,.13,0,.15,.08l.59,2.22Z" fill="#231f20"/><path d="M83.9,180.86l.51-.14c.07-.02,.13,0,.15,.08l.03,.1c.02,.08-.01,.13-.09,.15l-.82,.22c-.07,.02-.13-.01-.15-.09l-.6-2.22c-.02-.08,.01-.13,.09-.15l.19-.05c.07-.02,.13,0,.15,.08l.54,2.01Z" fill="#231f20"/></g><path id="au" d="M84.25,182.24c.33-1.21,.46-2.47,.41-3.72,0-.19,.01-.6-.25-.63-.19-.02-.35,.26-.4,.4-.07,.27-.1,.55-.08,.83,.06,1.42-.1,2.85-.47,4.22-.18,.59-.41,1.17-.69,1.72-.22,.54-.5,1.04-.83,1.51,1.09-1.25,1.88-2.73,2.31-4.33Z" fill="#fff2d1" isolation="isolate" opacity=".2"/><path id="av" d="M69.56,189.1c4.59,.32,9.38,.63,13.92-.76,3.94-1.2,7.29-3.55,10.52-5.84" fill="none" stroke="#991c21" stroke-linecap="round" stroke-linejoin="round" stroke-width="1.67"/><path d="M31.65,296.64c12.69-11.54,22.96-22.05,35.6-34.19,10.85-10.42,25.04-18.68,41.11-18.61,8.56,.04,17.24,2.8,25.79,3.38-1.23-2.19-1.12-4.24-.96-6.71-1.57-1.66-7.17-1.69-8.58-1.86-4.22-.49-7.14-1.17-10.72-1.23-6.79-.29-13.58,.69-20.02,2.88-4.26,1.6-8.39,3.52-12.36,5.75-7.68,4.12-14.75,8.25-22.21,12.93-17.21,10.7-33.52,22.76-48.8,36.07-1.75,1.53-3.49,3.23-5.26,4.95H28.14c1.17-1.17,2.34-2.3,3.51-3.36Z" fill="#d72028"/><path id="aw" d="M54.78,267.11c2.16-1.25,5.49-1.81,7.94-2.81l10.01-4.09c1.09-.58,2.33-.81,3.55-.67,1.12,.37,2.1,1.05,2.83,1.98,3.22,3.38,6.42,7.09,7.45,11.64,.42,1.86-.06,3.03-.42,4.79-.31,1.52,.07,3.12-.3,4.59-.42,1.09-1.26,1.98-2.32,2.47-8.08,4.85-16.53,5.17-25.58,6.11-3.12,.33-6.38-.52-9.51-.85-3.4-.37-6.92,.1-10.35-.32-1.41-.18-2.76-.68-3.96-1.46-2.25-1.33-4.02-3.34-5.04-5.75-1.1-2.52-.18-6.19,.54-8.76,.97-3.45,.93-6.92,1.8-10.38,1.21-4.76,2.48-9.37,3.82-14.1,2.14-7.55,4.57-15.01,6.8-22.54,1.85-6.26,2.58-12.73,5.13-18.83,.57-1.68,1.56-3.17,2.89-4.34,2.5-1.89,6-1.34,9.06-.71,1.41,.29,2.99,.71,3.67,1.97,.44,1.15,.44,2.41,0,3.56-2.7,10.7-4.95,19.98-5.15,31.02-.08,4.24,.23,8.41,.06,12.75-.02,2.68-.26,5.36-.72,8-.47,2.31-.44,4.94-2.2,6.74Z" fill="#6e391f"/><g id="ax"><path id="ay" d="M51.91,186.8c.99-3.87,3.1-6.62,5.72-9.42,1.14-1.22,2.77-1.34,4.06-2.04,1.57-.92,3.19-1.75,4.85-2.49,1.7-.69,3.29-.67,5.04-1.27,3.31-1.13,7.08-3.06,10.34-4.01,2.12-.62,2.81,.32,1.51,2s-3.88,2.92-5.72,4.04-3.52,2.16-5.22,3.41c-.96,.7-1.82,1.54-2.8,2.23-1.65,1.14-2.9,2.77-3.58,4.65-.33,.95-.17,1.89-.56,2.84-.29,.56-.43,1.18-.41,1.81,.08,.62,.66,1.23,1.27,1.08,.94-.23,1.34-2.06,1.88-2.75,.85-1.09,1.45-2.35,2.3-3.46,.85-1.24,1.93-2.3,3.18-3.12,.45-.22,1.19-.47,1.59-.07,.69,.55,.88,1.52,.46,2.29-.84,1.7-1.44,3.51-1.8,5.37-.39,1.96-.81,3.99-1.39,5.97-.78,2.65-2.83,5.33-4.29,7.46-1.56,2.35-2.77,4.91-3.6,7.6-.33,.92-.34,1.77-.64,2.74-.2,.64-.12,1.44-.87,1.85s-1.88-.3-2.6-.48c-2.53-.75-5.12-1.28-7.74-1.58-2.36-.19-4.46-.22-6.69-1.19-.37-.11-.68-.37-.83-.73-.04-.2-.03-.41,.03-.61,.29-2.02,.85-3.99,1.66-5.87,.99-1.78,1.86-3.61,2.62-5.5,1.19-3.56,1.37-7.28,2.26-10.78Z" fill="#faf5b3"/></g><path id="b`" d="M249.62,267.11c-2.16-1.25-5.49-1.81-7.94-2.81l-10.01-4.09c-1.09-.58-2.33-.81-3.55-.67-1.12,.37-2.1,1.06-2.83,1.98-3.22,3.38-6.42,7.09-7.45,11.64-.42,1.86,.06,3.03,.42,4.79,.31,1.52-.07,3.12,.29,4.59,.42,1.09,1.26,1.98,2.32,2.47,8.08,4.85,16.53,5.17,25.58,6.11,3.12,.33,6.38-.52,9.51-.85,3.4-.37,6.92,.1,10.35-.32,1.41-.18,2.77-.68,3.96-1.46,2.25-1.33,4.02-3.34,5.04-5.75,1.1-2.52,.18-6.19-.54-8.76-.97-3.45-.93-6.92-1.8-10.38-1.2-4.76-2.48-9.37-3.82-14.1-2.14-7.55-4.57-15.01-6.8-22.54-1.85-6.26-2.58-12.73-5.13-18.83-.57-1.68-1.56-3.17-2.89-4.34-2.5-1.89-6-1.34-9.06-.71-1.41,.29-2.99,.71-3.67,1.97-.44,1.15-.44,2.41,0,3.56,2.7,10.7,4.95,19.98,5.15,31.02,.08,4.24-.23,8.41-.06,12.75,.02,2.68,.26,5.36,.72,8,.47,2.31,.45,4.94,2.21,6.74Z" fill="#6e391f"/><path id="ba" d="M134.08,229c-.15,1.1-.38,2.19-.67,3.26-.31,.85-.82,1.62-1.47,2.24-1.89,2.49-2.71,6.48-2.74,9.55,.09,1.85,.57,3.66,1.42,5.3,3.98,8.82,10.73,16.7,19.67,20.42,1.88,.86,3.92,1.31,5.98,1.32,3-.23,5.81-1.58,7.87-3.78,2.03-2.19,3.66-4.72,4.82-7.47,2.98-6.45,4.84-13.37,5.49-20.44,.18-.98,.06-1.98-.35-2.89-.57-.76-1.3-1.39-2.15-1.83-2.77-1.98-4.83-4.8-5.87-8.04-1.02-3.23-1.46-6.62-1.3-10,.03-1.9,.18-3.79,.46-5.67,.23-1,.16-2.06-.21-3.02-.53-.86-1.33-1.52-2.27-1.88-6.79-3.28-14.56-1.67-21.7-.63-2.57,.28-4.94,1.49-6.68,3.4-2.52,3.01-1.46,5.51-.81,8.96,.77,3.69,.94,7.48,.49,11.22Z" fill="#6e391f" stroke="#6e391f" stroke-miterlimit="10" stroke-width=".44"/><path d="M190.9,299.59c.1-.57,.12-.74,.21-1.32l1.15-6.61c.48-2.42,.79-4.87,.96-7.33l-6.65,1.61c-3.14,.86-6.34,1.44-9.58,1.72-2.53,.11-5.07-.03-7.58-.42-1.26-.18-2.51-.39-3.76-.61-.66-.12-1.16-.42-.98,.37,.13,.6,.34,1.18,.46,1.78,.73,3.71,1.24,7.05,1.61,10.81" fill="none" stroke="#d9eee8" stroke-dasharray="0 0 1.86 1.21" stroke-linecap="round" stroke-miterlimit="10" stroke-width=".9"/><path id="bb" d="M165.83,292l3.03,.53c.67,.12,1.34,.23,2.01,.33,4.22,.6,8.52,.39,12.67-.63,.37-.09,.74-.19,1.1-.28l1.03-.27c2.5-.53,4.91-1.42,7.15-2.64" fill="none" stroke="#d9eee8" stroke-dasharray="0 0 1.86 1.21" stroke-linecap="round" stroke-miterlimit="10" stroke-width=".9"/><path id="bc" d="M112.09,281.28c-2.21,.66-4.46,.96-6.67,1.49-1.95,.47-3.53,1.61-5.33,2.49-4.3,2.1-8.94,3.42-13.7,3.91-1.34,.25-2.72,.13-4.01-.34-1.03-.54-1.78-1.48-2.1-2.59,.03,.21,1.57-.68,1.73-.99,.2-.7,.2-1.45-.02-2.15-.44-1.53-1-3.01-1.69-4.44-.97-2.48-1.98-4.94-3.04-7.39-1.15-3.03-2.51-5.98-4.07-8.82-.47-1.01-1.27-1.82-2.27-2.31-.98-.55-.94-1.4-.27-2.46,.56-.82,1.27-1.53,2.08-2.1,2.88-2.25,5.97-4.21,9.25-5.83,3.24-1.61,6.45-3.34,9.77-4.78,3.9-1.7,7.95-3.02,12.1-3.95,3.5-.78,6.92-.85,10.32-1.86,3.63-1.07,7.47-1.67,11.16-2.63,2.76-.71,5.37-1.92,7.7-3.56-.22,.53-.4,1.08-.51,1.65-.29,.7-.64,1.36-1.06,1.99-2.5,3.97,1.44,6.62,3.85,9.27,2.24,2.45,4.95,4.41,7.34,6.7,2.28,2.17,4.19,4.55,6.28,6.84l6.39,6.97c.28,.32,.59,.63,.91,.91,1.35,1.12,1.89-1.83,2.34-2.76,.95-1.9,1.94-3.79,2.91-5.68,1.65-3.21,3.34-6.55,5-9.81,1.65-3.24,3.49-6.41,4.52-9.91,.32-.94,.55-1.91,.68-2.89-.06-.97-.34-1.91-.83-2.75,1.18,.49,2.33,1.05,3.45,1.68,2.07,.88,4.23,1.51,6.45,1.89,3.89,.89,7.82,1.59,11.7,2.5,5.54,1.3,11.39,3.08,16.31,5.93,4.45,2.58,8.84,5.27,13.4,7.67,4.59,2.43,9.44,3.89,14.28,5.73,.95,.37,1.82,.91,2.56,1.6,.33,.3,1.59,1.25,1.54,1.69-.09,.42-.44,.74-.87,.78-.72,.1-1.13-.14-1.78,.22-.52,.38-1.01,.82-1.45,1.29-.94,1.04-1.79,2.15-2.56,3.31-1.94,2.44-3.43,5.21-4.38,8.18-.78,2.54-1.34,5.13-1.68,7.76-.29,1.21-.11,2.48,.5,3.55,.75,1.23,2.92,1.76,1.35,3.41-.94,.99-3.39,.79-4.69,.74-7.2-.24-13.45-4.42-20.48-5.85-4.49-.8-8.59-3.07-11.66-6.44" fill="#44ac8b"/><path id="bd" d="M154.66,274.86c1.45-2.15,2.32-4.63,2.55-7.21-.45-.04-.73,.52-.92,1-.93,2.5-1.74,5.05-2.41,7.63,.19-.51,.45-.99,.78-1.42Z" fill="#2f7560" stroke="#d9eee8" stroke-linecap="round" stroke-linejoin="round" stroke-width=".66"/><path id="be" d="M179.21,237.06c.1,5.35-1.55,9.82-4.05,14.4-2.28,4.18-5.07,8.06-7.26,12.28-1.44,2.77-2.74,5.61-3.91,8.51-.37,.93-.76,3.2-1.61,3.8-.87,.61-3.54,.35-4.61,.41-1.02,.06-2.73,.45-3.67-.06-1.58-.86-2.64-3.65-3.78-5.04-1.16-1.4-2.32-2.81-3.57-4.15-1.83-1.97-3.84-3.77-5.84-5.56-2.34-2.1-4.54-4.34-6.77-6.58-2.55-2.56-4.86-5.34-6.91-8.32-1.1-1.45-1.92-3.09-2.44-4.83-.51-1.77-.19-3.67,.86-5.18" fill="none" stroke="#d9eee8" stroke-dasharray="0 0 1.86 1.21" stroke-linecap="round" stroke-miterlimit="10" stroke-width=".9"/><g id="bf"><g id="bg"><path id="bh" d="M181.83,205.56c-.53,3.39-2.67,6.32-5.75,7.85-1.39,.79-2.96,1.19-4.56,1.17-1.61-.03-3.13-.76-4.16-2-1.31-1.69-1.29-4.03-1.17-6.16,.11-2,.3-4.11,1.42-5.77,.67-1,1.64-1.31,2.44-2.07,.75-.7,1.11-1.73,1.82-2.51,.7-.82,1.69-1.33,2.76-1.42,1.37,.1,2.65,.72,3.56,1.75,2.59,2.31,3.93,5.7,3.64,9.16Z" fill="#321b0f"/><path id="bi" d="M176.86,181.34c1.55,.17,2.96,.95,3.91,2.18,2.71,3.92,.24,8.76-1.58,12.33-.18,.39-.41,.76-.68,1.1-.64,.68-1.52,1.08-2.46,1.13-3.77,.33-2.38-1.81-2.31-4.62,.07-2.67-.29-5.34-1.08-7.9-1.03-3.32,1.57-4.59,4.2-4.23Z" fill="#6e391f" stroke="#6e391f" stroke-miterlimit="10" stroke-width=".44"/><path id="bj" d="M124.23,181.34c-1.55,.17-2.96,.96-3.91,2.18-2.71,3.92-.24,8.76,1.58,12.33,.18,.39,.41,.76,.68,1.1,.64,.68,1.52,1.08,2.46,1.13,3.77,.33,2.38-1.81,2.31-4.62-.07-2.67,.29-5.34,1.08-7.9,1.03-3.32-1.57-4.59-4.2-4.23Z" fill="#6e391f" stroke="#6e391f" stroke-miterlimit="10" stroke-width=".44"/><path id="bk" d="M176.72,181.15c-.16-3.26,.04-6.5,.01-9.76,.07-1.89-.38-3.76-1.3-5.41-.99-1.63-1.87-3.33-2.62-5.09-.83-1.79-2.39-3.01-3.78-4.45-1.57-1.63-3.28-4.53-5.31-5.52-1.93-.94-4.82-1.11-6.93-1.27-6.77-.5-13.92-.93-19.99,2.12-4.71,2.36-8.13,6.54-11.01,10.83-1.5,2.24-1.54,3.19-1.22,5.73,.28,3.05,.22,6.13-.16,9.17-.04,1.83-.28,3.66-.72,5.43-.55,1.59-1.02,3.2-1.39,4.84-.1,.49-.19,.98-.27,1.48-.4,2.37-.56,4.76-.49,7.16,.13,2.54,1,4.53,1.77,6.88,1.03,2.77,2.54,5.33,4.45,7.58,1.74,2.26,3.42,4.57,5.19,6.8,1.51,1.84,3.32,3.41,5.34,4.66,2.29,1.5,4.77,2.68,7.38,3.5,2.2,.66,4.52,.83,6.8,.49,2.77-.57,5.31-1.96,7.27-3.99,2.61-2.47,5.27-4.87,7.98-7.22,1.4-1.38,2.61-2.95,3.61-4.64,1.24-1.79,2.52-3.56,3.72-5.37,1.62-2.44,2.11-6.47,2.43-9.35,.55-4.89-.55-9.73-.78-14.61Z" fill="#6e391f" stroke="#6e391f" stroke-miterlimit="10" stroke-width=".44"/><g id="bl"><g id="bm"><path id="bn" d="M156.19,180.79c.24-.2,.5-.37,.78-.5,.56-.26,1.03-.67,1.6-.93,.37-.17,.74-.34,1.14-.48,.14-.05,.29-.1,.43-.14,.66-.16,1.34-.23,2.01-.21h.17c.38,0,.76,.03,1.14,.08,.44,.04,.87,.09,1.29,.17,.69,.21,1.4,.35,2.11,.42,.45,0,.84-.18,1.33-.2-.13,.25-.32,.52,.28,.45,.04,0,.12,.02,.13,.05,.1,.31,.42,.23,.7,.21,.56-.04,.69,.5,.53,.68-.04-.13-.04-.27-.26-.28-.09,0-.13,.11-.13,.19,0,.17,.17,.13,.3,.14-.01,0-.02,.01-.03,.01h.08s.04,0,.06,.02c0,0,0-.02-.01-.02,.16-.01,.35-.03,.54-.06,.3-.03,.59-.11,.86-.23,.11-.06,.43,.09,.3,.31-.07,.16-.17,.31-.3,.42-.38,.27-.16,.45,.15,.59,.22,.1,.17,.14,.04,.27-.34,.38-.76,.67-1.24,.85-.39,.14-.21,.36,.16,.28,.09-.02-.12,.37-.2,.42-.27,.11-.56,.18-.86,.21-.6,.14-1.2,.26-1.81,.36-1.64,.28-3.3,.44-4.96,.48-1.59,.15-3.2,.02-4.75-.4-.43-.11-.84-.29-1.2-.55-.14-.13-.16-.24-.36-.31s-.41,0-.6-.08c-.27-.12-.43-.39-.42-.69,.02-.29,.12-.56,.29-.79,.19-.28,.42-.54,.68-.76Z" fill="#0f0a0a"/><path id="bo" d="M169.75,180.44s.06-.02,.08-.05c0,.02,.01,.03,.02,.05h-.1Z" fill="#0f0a0a"/></g><path id="bp" d="M168.7,181.47c.08,.42-.25,.85-.78,1.15-.6,.31-1.24,.52-1.91,.6-.71,.09-1.43,.15-2.15,.17l-2.4,.1c-.89,.04-2.28,.31-3.07-.19-.24-.19-.5-.34-.79-.46-.2-.06-.41-.06-.61-.11-1.64-.36,.89-1.81,1.29-2,1.05-.46,2.16-.74,3.3-.84,1.43-.12,2.87-.02,4.26,.31,.61,.14,1.17,.32,1.78,.44,.49,.04,.9,.37,1.07,.83Z" fill="#fff"/></g><path id="bq" d="M121.02,159.9c1.53-4.03,3.84-7.71,6.8-10.85,1.99-2.26,4.21-4.32,6.61-6.15,2.19-1.59,5.03-1.63,7.58-2.33,2.1-.49,4.22-.87,6.36-1.12,4.19-.51,8.44-.04,12.42,1.38,6.62,2.37,12.39,6.66,16.55,12.33,1.31,1.73,2.41,3.61,3.26,5.6,.37,1.33,.61,2.69,.72,4.06,.87,4.75,1.92,8.81,.82,13.68-.58,2.3-1.33,4.56-2.25,6.75-.64,1.64-1.49,3.49-3.19,3.97-.17-1.46-.42-2.91-.75-4.34-.31-1.64,.26-3.38,.21-5.05-.16-6.41-2.37-12.6-6.31-17.66-1.4-1.87-3.15-3.45-5.16-4.65-3.33-1.87-7.28-2.14-11.09-2.37-3.83-.23-7.76-.45-11.44,.67-2.38,.77-4.6,1.98-6.54,3.56-4.26,3.4-7.44,7.97-9.14,13.14-.85,2.58-.92,5.17-1.48,7.78,0,.99-1.02,2-1.25,2.94-.19,1.36-.29,2.73-.28,4.11-.93-.19-1.41-1.2-1.76-2.08-2.45-6.3-2.71-11.83-1.87-18.5,.21-1.67,.61-3.31,1.18-4.89Z" fill="#321b0f"/><g id="br"><g id="bs"><path id="bt" d="M141.86,180.79c-.24-.2-.5-.37-.78-.5-.56-.26-1.03-.67-1.6-.93-.37-.17-.74-.34-1.14-.48-.14-.05-.29-.1-.44-.14-.66-.16-1.34-.23-2.01-.21h-.17c-.38,0-.76,.03-1.14,.08-.44,.04-.87,.09-1.29,.17-.69,.21-1.4,.35-2.11,.42-.45,0-.84-.18-1.33-.2,.13,.25,.32,.52-.28,.45-.04,0-.12,.02-.13,.05-.1,.31-.42,.23-.7,.21-.56-.04-.69,.5-.53,.68,.04-.13,.04-.27,.26-.28,.09,0,.13,.11,.13,.19,0,.17-.17,.13-.3,.14,.01,0,.02,.01,.03,.01h-.08s-.04,0-.06,.02c0,0,0-.02,.01-.02-.16-.01-.35-.03-.54-.06-.3-.03-.59-.11-.86-.23-.11-.06-.43,.09-.3,.31,.07,.16,.17,.31,.3,.42,.38,.27,.16,.45-.15,.59-.22,.1-.17,.14-.04,.27,.34,.38,.76,.67,1.24,.85,.39,.14,.21,.36-.16,.28-.09-.02,.12,.37,.2,.42,.27,.11,.56,.18,.86,.21,.6,.14,1.2,.26,1.81,.36,1.64,.28,3.3,.44,4.96,.48,1.59,.15,3.2,.02,4.75-.4,.43-.11,.84-.29,1.2-.55,.14-.13,.16-.24,.36-.31s.41,0,.6-.08c.27-.12,.43-.39,.42-.69-.02-.29-.12-.56-.29-.79-.19-.28-.42-.54-.68-.76Z" fill="#0f0a0a"/><path id="bu" d="M128.3,180.44s-.06-.02-.08-.05c0,.02-.01,.03-.02,.05h.1Z" fill="#0f0a0a"/></g><path id="bv" d="M129.35,181.47c-.08,.42,.25,.85,.77,1.15,.6,.31,1.24,.52,1.91,.6,.71,.09,1.43,.15,2.15,.17l2.4,.1c.89,.04,2.28,.31,3.07-.19,.24-.19,.5-.34,.79-.46,.2-.06,.41-.06,.61-.11,1.64-.36-.89-1.81-1.29-2-1.05-.46-2.16-.74-3.3-.84-1.43-.12-2.87-.02-4.26,.31-.61,.14-1.17,.32-1.78,.44-.49,.04-.9,.37-1.07,.83Z" fill="#fff"/></g><path id="bw" d="M145.6,182.78c.11-.74,0-1.5-.34-2.17-.1-.2-.25-.5,.18-.63,.33-.13,.71,.01,.87,.33,.2,.45,.32,.94,.35,1.43,.16,1.48-.18,2.98-.98,4.23-.57,.94-1.2,1.85-1.88,2.71-.51,.68-.8,1.51-.83,2.36,.04,.3-.06,.59-.28,.8-.64,.43-1.13,1.04-1.42,1.76-.21,.45-.26,.96-.14,1.45,.17,.53,.9,.72,1.79,.52,1.06-.23,2.16-.5,3.1,.2,.33,.25,.61,.56,.95,.8,.62,.46,1.4,.64,2.17,.51,.71-.26,1.38-.6,2-1.02,.63-.33,1.32-.55,2.02-.63,.71-.01,1.42,.09,2.09,.31,.22,.05,.72,.18,.82,.42,.14,.32-.22,.4-.48,.4-1.27-.09-2.54-.06-3.81,.07-.2,.03-.4,.07-.6,.13-.5,.16-.71,.58-1.14,.81-.46,.25-.98,.38-1.51,.38-.63-.04-1.25-.24-1.79-.57-.42-.32-.89-.55-1.39-.7-.32-.03-.63-.03-.95-.02-1.01-.13-2-.36-2.96-.68-.79-.07-1.36-.77-1.29-1.55v-.02c.02-.91,.4-1.79,1.06-2.42,.52-.46,.51-1.13,.69-1.71,.31-1,.82-1.93,1.52-2.71,.85-.93,1.48-2.03,1.84-3.23,.15-.51,.27-1.02,.34-1.55Z" fill="#462415"/><path id="bx" d="M157.99,194.75c-.02,.44-.26,.84-.64,1.06-.11,.07-.21,.15-.34,.05-.11-.08-.14-.24-.06-.35,.51-1.04-.07-1.68-.71-2.29-.33-.36-.59-.77-.78-1.22-.08-.15-.14-.34,.01-.48s.29,0,.43,.08c.81,.44,2.14,1.96,2.08,3.15Z" fill="#462415"/><path id="by" d="M167.07,185.51c-3.54,.34-7.12-.03-10.51-1.09,3.22,1.76,7.01,2.15,10.51,1.09Z" fill="#462415" stroke="#462415" stroke-linejoin="round" stroke-width=".11"/><path id="c`" d="M140.01,174.32c.75,.43,1.51,.88,2.39,.4,.2-.11,.94-1.11,.78-1.65-.14-.47-.5-.58-.75-.86-.7-.62-1.57-1.03-2.5-1.16-.81-.17-1.63-.24-2.45-.21-.93-.05-1.87-.04-2.8,.04-.72,.03-1.43,.14-2.13,.33-.62,.09-1.21,.3-1.75,.6-.18,.15-.46,.11-.68,.15-.29,.05-.56,.17-.8,.35-.25,.21-.52,.18-.74,.47-.27,.37-.62,.67-.9,1.04-.15,.19-.23,.43-.38,.62-.11,.16-.27,.23-.39,.39-.08,.1-.11,.23-.07,.35,.05,.12,.18,.17,.29,.13h.02c.08-.06,.11-.16,.15-.24,.08-.16,.55-.35,.71-.46,1.14-.73,2.45-1.16,3.8-1.26,1.11-.21,2.26-.19,3.37,.04,.44,.04,.88,.03,1.31-.03,.51-.05,1.02,0,1.51,.13,.35,.08,.7,.19,1.03,.35l.33,.14c.22,.1,.44,.21,.64,.33Z" fill="#321b0f"/><path id="ca" d="M142.05,179.47c-1.31-1.05-2.9-1.68-4.57-1.84-1.76-.19-3.55-.09-5.28,.28-1.65,.23-3.21,.9-4.51,1.94,1.81-1.67,4.14-2.66,6.59-2.79,2.74-.1,5.55,.37,7.64,2.27" fill="#462415" stroke="#462415" stroke-linejoin="round" stroke-width=".44"/><path id="cb" d="M140.24,183.38c-.06-.14-.19-.29-.24-.42-.07-.42-.07-.85,0-1.27-.08-1.07-.78-1.99-1.78-2.36-2.25-1-7.34-.05-7.61,2.29-.11,.5-.43,.93-.87,1.2-.09,.07-.19,.18-.14,.27,.06,.11,.47,.13,.6,.19,.3,.11,.57,.28,.88,.39,.6,.23,1.23,.38,1.87,.44,.93,.06,1.85,.06,2.78-.02l3.57-.2c.23,0,.47-.04,.69-.11,.29-.11,.31-.25,.24-.4Z" fill="#0f0a0a"/><path id="cc" d="M131.53,182.06c0,.8,.59,1.47,1.37,1.6,.81,.17,1.64,.22,2.46,.16,.88,.05,1.76,.04,2.64-.03,.85-.23,1.45-.99,1.49-1.87-.02-1.35-1.82-2.42-4.02-2.38s-3.96,1.16-3.94,2.52Z" fill="#47160d"/><path id="cd" d="M138.94,182.47c-.05,.68-.49,1.28-1.12,1.53-1.44,.13-2.9,.09-4.33-.11-.84-.19-1.48-.64-1.49-1.31-.02-1.13,1.52-2.06,3.44-2.1s3.49,.86,3.51,1.99Z" fill="#0f0a0a"/><ellipse id="ce" cx="134.92" cy="181.55" rx=".79" ry=".59" transform="translate(-2.9 2.19) rotate(-.92)" fill="#b19077"/><path id="cf" d="M156.18,179.47c1.31-1.05,2.9-1.68,4.57-1.84,1.76-.19,3.55-.09,5.28,.28,1.65,.23,3.21,.9,4.51,1.94-1.81-1.67-4.14-2.66-6.59-2.79-2.74-.1-5.55,.37-7.64,2.27" fill="#462415" stroke="#462415" stroke-linejoin="round" stroke-width=".44"/><path id="cg" d="M157.99,183.38c.06-.14,.19-.29,.24-.42,.07-.42,.07-.85,0-1.27,.08-1.07,.78-1.99,1.78-2.36,2.25-1,7.34-.05,7.61,2.29,.11,.5,.43,.93,.87,1.2,.09,.07,.19,.18,.14,.27-.06,.11-.47,.13-.6,.19-.3,.11-.57,.28-.88,.39-.6,.23-1.23,.38-1.87,.44-.93,.06-1.85,.06-2.78-.02l-3.57-.2c-.23,0-.47-.04-.69-.11-.3-.11-.31-.25-.24-.4Z" fill="#0f0a0a"/><path id="ch" d="M166.7,182.06c0,.8-.59,1.47-1.38,1.6-.81,.17-1.64,.22-2.46,.16-.88,.05-1.76,.04-2.64-.03-.85-.23-1.45-.99-1.49-1.87,.02-1.35,1.82-2.42,4.02-2.38s3.96,1.16,3.94,2.52Z" fill="#47160d"/><path id="ci" d="M159.24,182.47c.05,.68,.49,1.28,1.12,1.53,1.44,.13,2.9,.09,4.33-.11,.84-.19,1.48-.64,1.49-1.31,.02-1.13-1.52-2.06-3.44-2.1s-3.49,.86-3.51,1.99Z" fill="#0f0a0a"/><ellipse id="cj" cx="162.25" cy="181.55" rx=".59" ry=".79" transform="translate(-21.89 340.86) rotate(-89.08)" fill="#b19077"/><path id="ck" d="M158.4,174.2c-.78,.36-1.68,.33-2.44-.08-.55-.4-.73-1.14-.44-1.75,.35-.5,.87-.85,1.47-.97,.31-.14,.64-.25,.98-.32,.87-.01,1.73-.09,2.59-.22,.48-.07,.96-.06,1.43,.04,1.19,.13,2.37,.23,3.56,.34,.8,.03,1.59,.2,2.32,.52,.36,.18,.65,.41,1.01,.58,.39,.17,.73,.43,.98,.78,.31,.46,.73,.83,1.01,1.31,.05,.09,.8,1.6,.49,1.58-.34,0-.67-.13-.92-.37-.2-.27-.41-.52-.64-.77-.44-.42-.97-.73-1.56-.91-.19-.08-.48-.33-.67-.36-1.29-.16-2.58-.25-3.86-.39-1.1-.04-2.21,.04-3.29,.24-.36,.06-.71,.16-1.04,.31l-.34,.13c-.22,.09-.44,.19-.65,.31Z" fill="#321b0f"/><path id="cl" d="M131.16,185.51c3.54,.34,7.12-.03,10.51-1.09-3.22,1.76-7.01,2.15-10.51,1.09Z" fill="#462415" stroke="#462415" stroke-linejoin="round" stroke-width=".11"/><path id="cm" d="M147.34,194.34c1.29,.29,2.62,.25,3.89-.1,.27-.11,.58-.04,.77,.18,.17,.28-.23,.27-.44,.35-1.46,.45-3.01,.5-4.49,.15-.26-.05-.51-.12-.75-.22-.29-.12-.46-.26-.35-.47s.36-.08,.58-.03c.26,.06,.53,.09,.79,.13Z" fill="#462415"/><g id="cn"><path id="co" d="M183.19,169.08c.17-1.14-.07-2.31-.66-3.3-.21-.29-.45-.54-.73-.76,.02-.23,.01-.46-.02-.68-.39-4.25-1.16-8.45-2.29-12.56-4.46-14.74-22.24-14.21-34.69-12.86-5.9,.51-11.61,2.32-16.72,5.31-.89,.54-1.74,1.15-2.53,1.81-2.62,2.35-4.51,5.4-5.45,8.79-.94,3.16-1.39,6.43-1.36,9.73-.18,.12-.35,.24-.52,.38-.41,.33-.74,.76-.93,1.25-.31,.98-.42,2.01-.34,3.03-.03,.57,.05,1.13,.24,1.67,.62,1.12,1.83,1.77,3.11,1.67,1.25-.12,2.47-.45,3.61-.98,14.13-5.45,30.07-4.65,45-1.68,2.47,.49,8.83,2.01,9.38,2.13l3.37,.74c.3,.09,.63,.11,.94,.05,1.07-.28,.53-2.96,.6-3.74Z" fill="#44ac8b"/><path id="cp" d="M118.98,164.33c2.42-.82,5.15-1.61,7.67-2.22,2.66-.64,5.35-1.17,8.07-1.58,5.48-.82,11.01-1.16,16.55-1.01,10.25,.16,20.41,1.88,30.13,5.11" fill="none" stroke="#d1e3da" stroke-dasharray="0 0 1.86 1.21" stroke-linecap="round" stroke-miterlimit="10" stroke-width=".9"/></g><path id="cq" d="M143.71,203.87c3.21-.24,6.42-.31,9.64-.21,1.35-.06,2.7-.05,4.05,.03,.59,.09,1.17,.21,1.74,.37,.36,.1,.73,.28,1.09,.37,.37,.02,.73,.07,1.09,.13,1.81,.62-1.12,2.77-1.7,3.2-1.43,1.06-3.02,1.88-4.71,2.44-1.96,.55-4,.76-6.03,.62-2.11-.05-4.2-.41-6.21-1.05-2.19-.7-5.01-1.7-6.15-3.8-.2-.33-.34-.69-.42-1.07-.09-.54,.12-.5,.65-.53,2.31-.15,4.63-.33,6.96-.49Z" fill="#7e4438"/><path id="cr" d="M141.73,204.63c.21,.04,.41,.09,.61,.16,.46,.09,.92-.17,1.39-.22,.26-.02,.53,.01,.78,.09,.2,.1,.41,.16,.63,.18,.44-.04,.85-.29,1.3-.3,.47,.04,.93,.16,1.36,.35,.63,.15,1.28,.1,1.88-.16,.69-.21,1.19,.13,1.87,.14,.49-.06,.99-.1,1.49-.1,.51,.14,1.03,.23,1.55,.25,.33-.05,.65-.08,.98-.08,.37,.06,.72,.2,1.03,.42,.3,.18,.76,.06,1.12,.17,.15,.05,.29,.11,.44,.16,.46,.12,.9,.31,1.3,.58,.45,.31,.65,.88,.5,1.41-.3,.8-1.55,.99-2.26,1.21-.93,.28-1.87,.51-2.83,.69-1.89,.35-3.8,.54-5.72,.56-2.85,.17-5.7-.36-8.3-1.54-.6-.34-1.19-.7-1.75-1.1-.29-.21-.6-.4-.93-.54-.19-.07-.5-.06-.61-.24-.06-.13-.08-.28-.07-.42-.05-.42,.09-.84,.38-1.15,.95-.71,2.21,.35,3.19-.21,.18-.14,.38-.23,.6-.29,.03,0,.05,0,.08,0Z" fill="#fffaf7"/><path id="cs" d="M163.36,204.63c.06-.17,0-.35-.16-.44-.15-.05-.3-.07-.45-.04-1.39,0-2.76-.25-4.07-.72-1.72-.62-3.5-1.01-5.32-1.18-1.8-.03-3.63,.41-5.4,.32-1.99-.11-3.93-.67-5.93-.41-1.22,.16-2.4,.54-3.6,.8-1.2,.31-2.45,.33-3.66,.04-.29-.08-.67-.17-.84,.08-.2,.29,1.04,1.18,1.28,1.44,.48,.57,.89,1.19,1.25,1.84,.37,.58,.76,1.14,1.19,1.68,1.29,2.01,3.08,3.65,5.2,4.74,.73,.32,1.49,.6,2.26,.83,.66,.2,1.34,.31,2.03,.34,1.32,.14,2.64,.12,3.96-.06,1.22-.14,2.4-.49,3.49-1.03,1.42-.88,2.75-1.89,3.98-3.02,.77-.69,1.35-1.54,2.05-2.3,.47-.51,.96-.99,1.48-1.44,.5-.44,1.13-.76,1.27-1.47Zm-2.27,1.29c-.18,.12-.38,.21-.59,.27-1.38,.44-2.64,1.02-3.99,1.53-1.41,.58-2.86,1.04-4.34,1.38-1.03,.25-2.08,.38-3.14,.38-1.14-.02-2.27-.16-3.38-.42-.93-.22-1.8-.66-2.73-.88-.96-.3-1.89-.68-2.78-1.14-1.04-.47-2.06-.99-3.05-1.57-.15-.07-.29-.18-.39-.32-.1-.15-.08-.34,.05-.46,.11-.06,.24-.09,.37-.06,.52,.08,1.05,.12,1.58,.11,.47-.05,.96-.2,1.43-.27,2.26-.28,4.54-.26,6.79,.05,2.45,.12,4.91,.08,7.35-.12,1.22-.03,2.45,.06,3.66,.27,.56,.09,1.1,.24,1.65,.37,.47,.05,.93,.12,1.39,.23,.32,.13,.4,.45,.13,.67Z" fill="#55240e"/><path id="ct" d="M166.83,204.61c-.29,.69-.66,1.34-1.1,1.94l-1.54,2.28c.45-.51,.96-.96,1.5-1.37,.58-.53,1.12-1.1,1.61-1.71,.42-.65,.65-1.41,.65-2.18,.06-.44,.13-3.49-.7-2.58-.29,.32-.06,1.35-.08,1.75-.02,.64-.13,1.27-.34,1.87Z" fill="#462415" stroke="#462415" stroke-linejoin="round" stroke-width=".22"/><path id="cu" d="M130.79,202.09c-.1,.72-.01,1.45,.25,2.13,.26,.66,.57,1.31,.93,1.92-.4-1.44-.47-2.95-.19-4.42,.08-.42,.55-1.45-.14-1.17-.47,.19-.77,1.05-.85,1.54Z" fill="#462415" stroke="#462415" stroke-linejoin="round" stroke-width=".21"/></g><g id="cv"><path id="cw" d="M181.83,205.56c-.53,3.39-2.67,6.32-5.75,7.85-1.39,.79-2.96,1.19-4.56,1.17-1.61-.03-3.13-.76-4.16-2-1.31-1.69-1.29-4.03-1.17-6.16,.11-2,.3-4.11,1.42-5.77,.67-1,1.64-1.31,2.44-2.07,.75-.7,1.11-1.73,1.82-2.51,.7-.82,1.69-1.33,2.76-1.42,1.37,.1,2.65,.72,3.56,1.75,2.59,2.31,3.93,5.7,3.64,9.16Z" fill="#321b0f"/><g id="cx"><path id="cy" d="M123.28,181.34c-1.55,.17-2.96,.96-3.91,2.18-2.71,3.92-.24,8.76,1.58,12.33,.18,.39,.41,.76,.68,1.1,.64,.68,1.52,1.08,2.46,1.13,3.77,.33,2.38-1.81,2.31-4.62-.07-2.67,.29-5.34,1.08-7.9,1.03-3.32-1.57-4.59-4.2-4.23Z" fill="#6e391f" stroke="#6e391f" stroke-miterlimit="10" stroke-width=".44"/><path id="d`" d="M175.9,181.34c1.55,.17,2.96,.96,3.91,2.18,2.71,3.92,.24,8.76-1.58,12.33-.18,.39-.41,.76-.68,1.1-.64,.68-1.52,1.08-2.46,1.13-3.77,.33-2.38-1.81-2.31-4.62,.07-2.67-.29-5.34-1.08-7.9-1.03-3.32,1.57-4.59,4.2-4.23Z" fill="#6e391f" stroke="#6e391f" stroke-miterlimit="10" stroke-width=".44"/></g><path id="da" d="M121.02,159.9c1.53-4.03,3.84-7.71,6.8-10.85,1.99-2.26,4.21-4.32,6.61-6.15,2.19-1.59,5.03-1.63,7.58-2.33,2.1-.49,4.22-.87,6.36-1.12,4.19-.51,8.44-.04,12.42,1.38,6.62,2.37,12.39,6.66,16.55,12.33,1.31,1.73,2.41,3.61,3.26,5.6,.37,1.33,.61,2.69,.72,4.06,.87,4.75,1.92,8.81,.82,13.68-.58,2.3-1.33,4.56-2.25,6.75-.64,1.64-1.49,3.49-3.19,3.97-.17-1.46-.42-2.91-.75-4.34-.31-1.64,.26-3.38,.21-5.05-.16-6.41-2.37-12.6-6.31-17.66-1.4-1.87-3.15-3.45-5.16-4.65-3.33-1.87-7.28-2.14-11.09-2.37-3.83-.23-7.76-.45-11.44,.67-2.38,.77-4.6,1.98-6.54,3.56-4.26,3.4-7.44,7.97-9.14,13.14-.85,2.58-.92,5.17-1.48,7.78,0,.99-1.02,2-1.25,2.94-.19,1.36-.29,2.73-.28,4.11-.93-.19-1.41-1.2-1.76-2.08-2.45-6.3-2.71-11.83-1.87-18.5,.21-1.67,.61-3.31,1.18-4.89Z" fill="#321b0f"/><path id="db" d="M176.72,181.15c-.16-3.26,.04-6.5,.01-9.76,.07-1.89-.38-3.76-1.3-5.41-.99-1.63-1.87-3.33-2.62-5.09-.83-1.79-2.39-3.01-3.78-4.45-1.57-1.63-3.28-4.53-5.31-5.52-1.93-.94-4.82-1.11-6.93-1.27-6.77-.5-13.92-.93-19.99,2.12-4.71,2.36-8.13,6.54-11.01,10.83-1.5,2.24-1.54,3.19-1.22,5.73,.28,3.05,.22,6.13-.16,9.17-.04,1.83-.28,3.66-.72,5.43-.55,1.59-1.02,3.2-1.39,4.84-.1,.49-.19,.98-.27,1.48-.4,2.37-.56,4.76-.49,7.16,.13,2.54,1,4.53,1.77,6.88,1.03,2.77,2.54,5.33,4.45,7.58,1.74,2.26,3.42,4.57,5.19,6.8,1.51,1.84,3.32,3.41,5.34,4.66,2.29,1.5,4.77,2.68,7.38,3.5,2.2,.66,4.52,.83,6.8,.49,2.77-.57,5.31-1.96,7.27-3.99,2.61-2.47,5.27-4.87,7.98-7.22,1.4-1.38,2.61-2.95,3.61-4.64,1.24-1.79,2.52-3.56,3.72-5.37,1.62-2.44,2.11-6.47,2.43-9.35,.55-4.89-.55-9.73-.78-14.61Z" fill="#6e391f" stroke="#6e391f" stroke-miterlimit="10" stroke-width=".44"/><g id="dc"><g id="dd"><path id="de" d="M156.36,180.79c.24-.2,.5-.37,.78-.5,.55-.26,1.02-.67,1.58-.93,.37-.17,.73-.34,1.12-.48,.14-.05,.28-.1,.43-.14,.65-.16,1.32-.23,1.99-.21h.16c.38,0,.75,.03,1.12,.08,.43,.04,.86,.09,1.28,.17,.68,.21,1.38,.35,2.09,.42,.45,0,.83-.18,1.31-.2-.13,.25-.32,.52,.28,.45,.04,0,.12,.02,.13,.05,.1,.31,.42,.23,.69,.21,.55-.04,.69,.5,.53,.68-.04-.13-.04-.27-.26-.28-.09,0-.13,.11-.12,.19,0,.17,.16,.13,.3,.14-.01,0-.02,.01-.03,.01h.08s.04,0,.06,.02c0,0,0-.02-.01-.02,.16-.01,.34-.03,.53-.06,.29-.03,.58-.11,.85-.23,.11-.06,.42,.09,.3,.31-.06,.16-.17,.31-.29,.42-.38,.27-.16,.45,.14,.59,.22,.1,.17,.14,.04,.27-.33,.38-.75,.67-1.23,.85-.38,.14-.21,.36,.16,.28,.08-.02-.12,.37-.19,.42-.27,.11-.56,.18-.85,.21-.59,.14-1.19,.26-1.79,.36-1.62,.28-3.26,.44-4.91,.48-1.58,.15-3.17,.02-4.69-.4-.43-.11-.83-.29-1.19-.55-.14-.13-.15-.24-.35-.31s-.4,0-.59-.08c-.26-.12-.43-.39-.41-.69,.02-.29,.12-.56,.29-.79,.18-.28,.41-.54,.67-.76Z" fill="#0f0a0a"/><path id="df" d="M169.77,180.44s.06-.02,.08-.05c0,.02,.01,.03,.02,.05h-.1Z" fill="#0f0a0a"/></g><path id="dg" d="M168.74,181.69c.06,.42-.28,.84-.81,1.13-.6,.29-1.25,.47-1.91,.53-.71,.07-1.42,.1-2.13,.09l-2.38,.02c-.91,.03-1.83,0-2.73-.11-.42-.06-.82-.18-1.2-.37l-.29-.15c-.21-.12-.43-.22-.65-.31-.81-.28,.18-.93,.51-1.18,.4-.31,.85-.56,1.32-.75,1.05-.42,2.16-.67,3.29-.72,1.42-.07,2.83,.08,4.2,.46,.6,.16,1.14,.36,1.75,.5,.48,.06,.88,.4,1.03,.86Z" fill="#fff"/></g><g id="dh"><g id="di"><path id="dj" d="M141.86,180.79c-.24-.2-.5-.37-.78-.5-.56-.26-1.03-.67-1.6-.93-.37-.17-.74-.34-1.14-.48-.14-.05-.29-.1-.44-.14-.66-.16-1.34-.23-2.01-.21h-.17c-.38,0-.76,.03-1.14,.08-.44,.04-.87,.09-1.29,.17-.69,.21-1.4,.35-2.11,.42-.45,0-.84-.18-1.33-.2,.13,.25,.32,.52-.28,.45-.04,0-.12,.02-.13,.05-.1,.31-.42,.23-.7,.21-.56-.04-.69,.5-.53,.68,.04-.13,.04-.27,.26-.28,.09,0,.13,.11,.13,.19,0,.17-.17,.13-.3,.14,.01,0,.02,.01,.03,.01h-.08s-.04,0-.06,.02c0,0,0-.02,.01-.02-.16-.01-.35-.03-.54-.06-.3-.03-.59-.11-.86-.23-.11-.06-.43,.09-.3,.31,.07,.16,.17,.31,.3,.42,.38,.27,.16,.45-.15,.59-.22,.1-.17,.14-.04,.27,.34,.38,.76,.67,1.24,.85,.39,.14,.21,.36-.16,.28-.09-.02,.12,.37,.2,.42,.27,.11,.56,.18,.86,.21,.6,.14,1.2,.26,1.81,.36,1.64,.28,3.3,.44,4.96,.48,1.59,.15,3.2,.02,4.75-.4,.43-.11,.84-.29,1.2-.55,.14-.13,.16-.24,.36-.31s.41,0,.6-.08c.27-.12,.43-.39,.42-.69-.02-.29-.12-.56-.29-.79-.19-.28-.42-.54-.68-.76Z" fill="#0f0a0a"/><path id="dk" d="M128.3,180.44s-.06-.02-.08-.05c0,.02-.01,.03-.02,.05h.1Z" fill="#0f0a0a"/></g><path id="dl" d="M129.34,181.69c-.06,.42,.28,.84,.82,1.13,.61,.29,1.26,.47,1.93,.53,.72,.07,1.43,.1,2.15,.09l2.4,.02c.92,.03,1.85,0,2.76-.11,.42-.06,.83-.18,1.21-.37l.29-.15c.21-.12,.43-.22,.66-.31,.82-.28-.19-.93-.52-1.18-.41-.31-.86-.56-1.33-.75-1.06-.42-2.19-.67-3.33-.72-1.43-.07-2.86,.08-4.25,.46-.61,.16-1.16,.36-1.77,.5-.48,.06-.89,.4-1.03,.86Z" fill="#fff"/></g><path id="dm" d="M145.6,182.78c.11-.74,0-1.5-.34-2.17-.1-.2-.25-.5,.18-.63,.33-.13,.71,.01,.87,.33,.2,.45,.32,.94,.35,1.43,.16,1.48-.18,2.98-.98,4.23-.57,.94-1.2,1.85-1.88,2.71-.51,.68-.8,1.51-.83,2.36,.04,.3-.06,.59-.28,.8-.64,.43-1.13,1.04-1.42,1.76-.21,.45-.26,.96-.14,1.45,.17,.53,.9,.72,1.79,.52,1.06-.23,2.16-.5,3.1,.2,.33,.25,.61,.56,.95,.8,.62,.46,1.4,.64,2.17,.51,.71-.26,1.38-.6,2-1.02,.63-.33,1.32-.55,2.02-.63,.71-.01,1.42,.09,2.09,.31,.22,.05,.72,.18,.82,.42,.14,.32-.22,.4-.48,.4-1.27-.09-2.54-.06-3.81,.07-.2,.03-.4,.07-.6,.13-.5,.16-.71,.58-1.14,.81-.46,.25-.98,.38-1.51,.38-.63-.04-1.25-.24-1.79-.57-.42-.32-.89-.55-1.39-.7-.32-.03-.63-.03-.95-.02-1.01-.13-2-.36-2.96-.68-.79-.07-1.36-.77-1.29-1.55v-.02c.02-.91,.4-1.79,1.06-2.42,.52-.46,.51-1.13,.69-1.71,.31-1,.82-1.93,1.52-2.71,.85-.93,1.48-2.03,1.84-3.23,.15-.51,.27-1.02,.34-1.55Z" fill="#462415"/><path id="dn" d="M157.99,194.75c-.02,.44-.26,.84-.64,1.06-.11,.07-.21,.15-.34,.05-.11-.08-.14-.24-.06-.35,.51-1.04-.07-1.68-.71-2.29-.33-.36-.59-.77-.78-1.22-.08-.15-.14-.34,.01-.48s.29,0,.43,.08c.81,.44,2.14,1.96,2.08,3.15Z" fill="#462415"/><path id="do" d="M167.07,185.51c-3.54,.34-7.12-.03-10.51-1.09,3.22,1.76,7.01,2.15,10.51,1.09Z" fill="#462415" stroke="#462415" stroke-linejoin="round" stroke-width=".11"/><path id="dp" d="M140.01,174.32c.75,.43,1.51,.88,2.39,.4,.2-.11,.94-1.11,.78-1.65-.14-.47-.5-.58-.75-.86-.7-.62-1.57-1.03-2.5-1.16-.81-.17-1.63-.24-2.45-.21-.93-.05-1.87-.04-2.8,.04-.72,.03-1.43,.14-2.13,.33-.62,.09-1.21,.3-1.75,.6-.18,.15-.46,.11-.68,.15-.29,.05-.56,.17-.8,.35-.25,.21-.52,.18-.74,.47-.27,.37-.62,.67-.9,1.04-.15,.19-.23,.43-.38,.62-.11,.16-.27,.23-.39,.39-.08,.1-.11,.23-.07,.35,.05,.12,.18,.17,.29,.13h.02c.08-.06,.11-.16,.15-.24,.08-.16,.55-.35,.71-.46,1.14-.73,2.45-1.16,3.8-1.26,1.11-.21,2.26-.19,3.37,.04,.44,.04,.88,.03,1.31-.03,.51-.05,1.02,0,1.51,.13,.35,.08,.7,.19,1.03,.35l.33,.14c.22,.1,.44,.21,.64,.33Z" fill="#321b0f"/><path id="dq" d="M142.05,179.47c-1.31-1.05-2.9-1.68-4.57-1.84-1.76-.19-3.55-.09-5.28,.28-1.65,.23-3.21,.9-4.51,1.94,1.81-1.67,4.14-2.66,6.59-2.79,2.74-.1,5.55,.37,7.64,2.27" fill="#462415" stroke="#462415" stroke-linejoin="round" stroke-width=".44"/><path id="dr" d="M140.24,183.38c-.06-.14-.19-.29-.24-.42-.07-.42-.07-.85,0-1.27-.08-1.07-.78-1.99-1.78-2.36-2.25-1-7.34-.05-7.61,2.29-.11,.5-.43,.93-.87,1.2-.09,.07-.19,.18-.14,.27,.06,.11,.47,.13,.6,.19,.3,.11,.57,.28,.88,.39,.6,.23,1.23,.38,1.87,.44,.93,.06,1.85,.06,2.78-.02l3.57-.2c.23,0,.47-.04,.69-.11,.29-.11,.31-.25,.24-.4Z" fill="#0f0a0a"/><path id="ds" d="M131.53,182.06c0,.8,.59,1.47,1.37,1.6,.81,.17,1.64,.22,2.46,.16,.88,.05,1.76,.04,2.64-.03,.85-.23,1.45-.99,1.49-1.87-.02-1.35-1.82-2.42-4.02-2.38s-3.96,1.16-3.94,2.52Z" fill="#47160d"/><path id="dt" d="M138.68,182.47c-.05,.68-.48,1.28-1.12,1.53-1.44,.13-2.9,.09-4.33-.11-.84-.19-1.48-.64-1.49-1.31-.02-1.13,1.52-2.06,3.44-2.1s3.49,.86,3.51,1.99Z" fill="#0f0a0a"/><ellipse id="du" cx="134.92" cy="181.55" rx=".79" ry=".59" transform="translate(-2.9 2.19) rotate(-.92)" fill="#b19077"/><path id="dv" d="M156.18,179.47c1.31-1.05,2.9-1.68,4.57-1.84,1.76-.19,3.55-.09,5.28,.28,1.65,.23,3.21,.9,4.51,1.94-1.81-1.67-4.14-2.66-6.59-2.79-2.74-.1-5.55,.37-7.64,2.27" fill="#462415" stroke="#462415" stroke-linejoin="round" stroke-width=".44"/><path id="dw" d="M157.99,183.38c.06-.14,.19-.29,.24-.42,.07-.42,.07-.85,0-1.27,.08-1.07,.78-1.99,1.78-2.36,2.25-1,7.34-.05,7.61,2.29,.11,.5,.43,.93,.87,1.2,.09,.07,.19,.18,.14,.27-.06,.11-.47,.13-.6,.19-.3,.11-.57,.28-.88,.39-.6,.23-1.23,.38-1.87,.44-.93,.06-1.85,.06-2.78-.02l-3.57-.2c-.23,0-.47-.04-.69-.11-.3-.11-.31-.25-.24-.4Z" fill="#0f0a0a"/><path id="dx" d="M166.7,182.06c0,.8-.59,1.47-1.38,1.6-.81,.17-1.64,.22-2.46,.16-.88,.05-1.76,.04-2.64-.03-.85-.23-1.45-.99-1.49-1.87,.02-1.35,1.82-2.42,4.02-2.38s3.96,1.16,3.94,2.52Z" fill="#47160d"/><path id="dy" d="M159.55,182.47c.05,.68,.49,1.28,1.12,1.53,1.44,.13,2.9,.09,4.33-.11,.84-.19,1.48-.64,1.49-1.31,.02-1.13-1.52-2.06-3.44-2.1s-3.49,.86-3.51,1.99Z" fill="#0f0a0a"/><ellipse id="e`" cx="162.25" cy="181.55" rx=".59" ry=".79" transform="translate(-21.89 340.86) rotate(-89.08)" fill="#b19077"/><path id="ea" d="M158.4,174.2c-.78,.36-1.68,.33-2.44-.08-.55-.4-.73-1.14-.44-1.75,.35-.5,.87-.85,1.47-.97,.31-.14,.64-.25,.98-.32,.87-.01,1.73-.09,2.59-.22,.48-.07,.96-.06,1.43,.04,1.19,.13,2.37,.23,3.56,.34,.8,.03,1.59,.2,2.32,.52,.36,.18,.65,.41,1.01,.58,.39,.17,.73,.43,.98,.78,.31,.46,.73,.83,1.01,1.31,.05,.09,.8,1.6,.49,1.58-.34,0-.67-.13-.92-.37-.2-.27-.41-.52-.64-.77-.44-.42-.97-.73-1.56-.91-.19-.08-.48-.33-.67-.36-1.29-.16-2.58-.25-3.86-.39-1.1-.04-2.21,.04-3.29,.24-.36,.06-.71,.16-1.04,.31l-.34,.13c-.22,.09-.44,.19-.65,.31Z" fill="#321b0f"/><path id="eb" d="M131.16,185.51c3.54,.34,7.12-.03,10.51-1.09-3.22,1.76-7.01,2.15-10.51,1.09Z" fill="#462415" stroke="#462415" stroke-linejoin="round" stroke-width=".11"/><path id="ec" d="M147.34,194.34c1.29,.29,2.62,.25,3.89-.1,.27-.11,.58-.04,.77,.18,.17,.28-.23,.27-.44,.35-1.46,.45-3.01,.5-4.49,.15-.26-.05-.51-.12-.75-.22-.29-.12-.46-.26-.35-.47s.36-.08,.58-.03c.26,.06,.53,.09,.79,.13Z" fill="#462415"/><g id="ed"><path id="ee" d="M183.19,169.08c.17-1.14-.07-2.31-.66-3.3-.21-.29-.45-.54-.73-.76,.02-.23,.01-.46-.02-.68-.39-4.25-1.16-8.45-2.29-12.56-4.46-14.74-22.24-14.21-34.69-12.86-5.9,.51-11.61,2.32-16.72,5.31-.89,.54-1.74,1.15-2.53,1.81-2.62,2.35-4.51,5.4-5.45,8.79-.94,3.16-1.39,6.43-1.36,9.73-.18,.12-.35,.24-.52,.38-.41,.33-.74,.76-.93,1.25-.31,.98-.42,2.01-.34,3.03-.03,.57,.05,1.13,.24,1.67,.62,1.12,1.83,1.77,3.11,1.67,1.25-.12,2.47-.45,3.61-.98,14.13-5.45,30.07-4.65,45-1.68,2.47,.49,8.83,2.01,9.38,2.13l3.37,.74c.3,.09,.63,.11,.94,.05,1.07-.28,.53-2.96,.6-3.74Z" fill="#44ac8b"/><path id="ef" d="M118.98,164.33c2.42-.82,5.15-1.61,7.67-2.22,2.66-.64,5.35-1.17,8.07-1.58,5.48-.82,11.01-1.16,16.55-1.01,10.25,.16,20.41,1.88,30.13,5.11" fill="none" stroke="#d9eee8" stroke-dasharray="0 0 1.86 1.21" stroke-linecap="round" stroke-miterlimit="10" stroke-width=".9"/></g><path id="eg" d="M143.71,203.87c3.21-.24,6.42-.31,9.64-.21,1.35-.06,2.7-.05,4.05,.03,.59,.09,1.17,.21,1.74,.37,.36,.1,.73,.28,1.09,.37,.37,.02,.73,.07,1.09,.13,1.81,.62-1.12,2.77-1.7,3.2-1.43,1.06-3.02,1.88-4.71,2.44-1.96,.55-4,.76-6.03,.62-2.11-.05-4.2-.41-6.21-1.05-2.19-.7-5.01-1.7-6.15-3.8-.2-.33-.34-.69-.42-1.07-.09-.54,.12-.5,.65-.53,2.31-.15,4.63-.33,6.96-.49Z" fill="#7e4438"/><path id="eh" d="M141.73,204.63c.21,.04,.41,.09,.61,.16,.46,.09,.92-.17,1.39-.22,.26-.02,.53,.01,.78,.09,.2,.1,.41,.16,.63,.18,.44-.04,.85-.29,1.3-.3,.47,.04,.93,.16,1.36,.35,.63,.15,1.28,.1,1.88-.16,.69-.21,1.19,.13,1.87,.14,.49-.06,.99-.1,1.49-.1,.51,.14,1.03,.23,1.55,.25,.33-.05,.65-.08,.98-.08,.37,.06,.72,.2,1.03,.42,.3,.18,.76,.06,1.12,.17,.15,.05,.29,.11,.44,.16,.46,.12,.9,.31,1.3,.58,.45,.31,.65,.88,.5,1.41-.3,.8-1.55,.99-2.26,1.21-.93,.28-1.87,.51-2.83,.69-1.89,.35-3.8,.54-5.72,.56-2.85,.17-5.7-.36-8.3-1.54-.6-.34-1.19-.7-1.75-1.1-.29-.21-.6-.4-.93-.54-.19-.07-.5-.06-.61-.24-.06-.13-.08-.28-.07-.42-.05-.42,.09-.84,.38-1.15,.95-.71,2.21,.35,3.19-.21,.18-.14,.38-.23,.6-.29,.03,0,.05,0,.08,0Z" fill="#fffaf7"/><path id="ei" d="M163.36,204.63c.06-.17,0-.35-.16-.44-.15-.05-.3-.07-.45-.04-1.39,0-2.76-.25-4.07-.72-1.72-.62-3.5-1.01-5.32-1.18-1.8-.03-3.63,.41-5.4,.32-1.99-.11-3.93-.67-5.93-.41-1.22,.16-2.4,.54-3.6,.8-1.2,.31-2.45,.33-3.66,.04-.29-.08-.67-.17-.84,.08-.2,.29,1.04,1.18,1.28,1.44,.48,.57,.89,1.19,1.25,1.84,.37,.58,.76,1.14,1.19,1.68,1.29,2.01,3.08,3.65,5.2,4.74,.73,.32,1.49,.6,2.26,.83,.66,.2,1.34,.31,2.03,.34,1.32,.14,2.64,.12,3.96-.06,1.22-.14,2.4-.49,3.49-1.03,1.42-.88,2.75-1.89,3.98-3.02,.77-.69,1.35-1.54,2.05-2.3,.47-.51,.96-.99,1.48-1.44,.5-.44,1.13-.76,1.27-1.47Zm-2.27,1.29c-.18,.12-.38,.21-.59,.27-1.38,.44-2.64,1.02-3.99,1.53-1.41,.58-2.86,1.04-4.34,1.38-1.03,.25-2.08,.38-3.14,.38-1.14-.02-2.27-.16-3.38-.42-.93-.22-1.8-.66-2.73-.88-.96-.3-1.89-.68-2.78-1.14-1.04-.47-2.06-.99-3.05-1.57-.15-.07-.29-.18-.39-.32-.1-.15-.08-.34,.05-.46,.11-.06,.24-.09,.37-.06,.52,.08,1.05,.12,1.58,.11,.47-.05,.96-.2,1.43-.27,2.26-.28,4.54-.26,6.79,.05,2.45,.12,4.91,.08,7.35-.12,1.22-.03,2.45,.06,3.66,.27,.56,.09,1.1,.24,1.65,.37,.47,.05,.93,.12,1.39,.23,.32,.13,.4,.45,.13,.67Z" fill="#55240e"/><path id="ej" d="M166.83,204.61c-.29,.69-.66,1.34-1.1,1.94l-1.54,2.28c.45-.51,.96-.96,1.5-1.37,.58-.53,1.12-1.1,1.61-1.71,.42-.65,.65-1.41,.65-2.18,.06-.44,.13-3.49-.7-2.58-.29,.32-.06,1.35-.08,1.75-.02,.64-.13,1.27-.34,1.87Z" fill="#462415" stroke="#462415" stroke-linejoin="round" stroke-width=".22"/><path id="ek" d="M130.79,202.09c-.1,.72-.01,1.45,.25,2.13,.26,.66,.57,1.31,.93,1.92-.4-1.44-.47-2.95-.19-4.42,.08-.42,.55-1.45-.14-1.17-.47,.19-.77,1.05-.85,1.54Z" fill="#462415" stroke="#462415" stroke-linejoin="round" stroke-width=".21"/></g><g id="el"><path id="em" d="M173.89,192.52c-1.71,.77-4.14-.35-5.72-.86l-5.92-1.91c-2.44-.78-4.97-1.39-7.32-2.38-2.34-1.04-4.89-1.5-7.45-1.33-2.81,.23-5.15,1.79-7.81,2.64-3.38,1.08-6.76,2.18-10.14,3.26-1.63,.52-3.35,.99-4.56-.51-1.83-2.27-2.48-5.62-3.3-8.35-.35-.72-.62-1.48-.82-2.25,.01,1.84,.15,3.66,.18,5.5,.03,2.16-.19,4.23,.69,6.28,.64,1.18,1.04,2.48,1.16,3.81-.03,2.7-1.98,4.49-.82,7.21,2.37,5.31,5.91,10.01,10.35,13.76,1.86,1.58,3.86,2.98,5.74,4.54,2.6,2.23,5.74,3.73,9.1,4.37,5.19,.86,10.5-1.23,14.49-4.3,1.81-1.42,3.54-2.94,5.19-4.55,2.84-2.7,4.73-5.93,7.16-8.9,1.8-2.23,2.8-5,2.85-7.86-.16-2.89,1-5.42,1.7-8.23,.77-3.3,1.3-6.64,1.58-10.02-1.81,2.78-2.66,6.1-4.77,8.7-.35,.48-.78,.9-1.27,1.24-.08,.05-.17,.09-.26,.13Z" fill="#d9eee8"/><path id="en" d="M169.22,201.42c-4.81-2.57-9.82-4.94-15.15-5.67-8.55-1.17-17.04,1.98-25.17,5.09,4.14-2.68,8.83-4.18,13.66-5.45,2.25-.66,4.56-1.09,6.9-1.27,3.59-.08,7.15,.64,10.43,2.1,3.24,1.5,6.36,3.23,9.33,5.19Z" fill="#b4ded3" stroke="#b4ded3" stroke-linejoin="round" stroke-width=".11"/><path id="eo" d="M168.64,208.16c-3.65,1.08-6.34,3.64-9.51,5.67-2.08,1.34-4.35,3.04-6.75,3.66-4.03,1.04-8.25-.64-11.83-2.76s-6.94-4.75-10.95-5.89c3.61,.85,7.1,2.14,10.38,3.86,2.99,1.65,5.97,3.7,9.42,3.83,3.57,.13,6.81-1.85,9.71-3.85s5.97-4.19,9.53-4.54Z" fill="#b4ded3" stroke="#b4ded3" stroke-linejoin="round" stroke-width=".11"/><path id="ep" d="M163.77,203.8l-8.99,2.4c-3.75,1.37-7.85,1.44-11.65,.21l-9.89-2.38c1.16,.22,2.33,.36,3.51,.42,1.15,.12,2.29,.28,3.43,.42,3.07,.49,6.17,.78,9.27,.87,1.67-.06,3.33-.24,4.97-.55,3.13-.51,6.21-.87,9.34-1.38Z" fill="#b4ded3" stroke="#b4ded3" stroke-linejoin="round" stroke-width=".11"/></g></g><path id="eq" d="M201.48,240.77c-.08-.07-.15-.14-.23-.2-1.33-1.03-2.8-1.85-4.36-2.45-3.98-1.87-8.23-3.09-12.6-3.61-2.43-.23-4.87-.16-7.29-.36-1.57-.13-5.31-.03-6.56-1.07,1.4,1.24,1.74,3.3,.81,4.92-.34,.55-.81,1.01-1.15,1.56-1.29,2.08,3.94,1.4,5.22,1.44,3.75,.12,7.59-.55,11.32-.77,2.87-.15,5.75,.06,8.57,.62,1.07,.2,2.12,.5,3.16,.81,1.05,.27,2.12,.49,3.2,.64,1.19,.22,.27-1.2-.08-1.53Z" fill="#d72028" stroke="#d72028" stroke-linecap="round" stroke-linejoin="round" stroke-width=".82"/><g id="er"><g id="es"><path id="et" d="M202.15,185.64c-.13,.08-.25,.17-.37,.27l.37-.27Z" fill="#991c21"/><path id="eu" d="M234.8,195.36c-1.22,.17-12.44,1.64-17.99,.15s-14.52-8.37-15.5-9.12c-.18,.23-.31,.49-.39,.77-.85,3.18,6.03,7.79,15.37,10.29s17.61,1.95,18.46-1.23c.07-.28,.09-.57,.05-.86Z" fill="#991c21"/></g><g id="ev"><ellipse id="ew" cx="211.36" cy="215.86" rx="31.31" ry="22.3" transform="translate(-51.87 364.11) rotate(-74.99)" fill="#f06f7f"/><circle id="ex" cx="224.37" cy="198.3" r="1.58" fill="#f48b93"/><circle id="ey" cx="200.39" cy="200.58" r="1.58" fill="#f48b93"/><circle id="f`" cx="218.59" cy="219.88" r="1.58" fill="#f48b93"/><circle id="fa" cx="196.84" cy="219.92" r="1.58" fill="#f48b93"/><circle id="fb" cx="214.41" cy="201.08" r="1.58" fill="#f48b93"/><circle id="fc" cx="220.05" cy="232.66" r="1.58" fill="#f48b93"/><circle id="fd" cx="210.75" cy="226.91" r="1.58" fill="#f48b93"/><circle id="fe" cx="227.74" cy="211.99" r="1.58" fill="#f48b93"/><circle id="ff" cx="208.52" cy="212.74" r="1.58" fill="#f48b93"/><circle id="fg" cx="212.02" cy="191.72" r="1.58" fill="#f48b93"/><circle id="fh" cx="199.34" cy="232.96" r="1.58" fill="#f48b93"/><circle id="fi" cx="211.47" cy="240.35" r="1.58" fill="#f48b93"/></g><path id="fj" d="M201.52,185.84c-1.24,.64,1.11,1.88,1.45,2.12,.94,.68,1.86,1.39,2.78,2.1,1.44,1.12,2.95,2.16,4.52,3.09,2.09,1.34,4.35,2.39,6.73,3.12,2.45,.46,4.96,.58,7.45,.38,1.93-.04,3.86-.11,5.78-.34,.72-.09,3.49-.35,4.18-.57,.2-.05,.38-.15,.52-.31,.14-.16,.14-.4,0-.56" fill="none" stroke="#991c21" stroke-linecap="round" stroke-linejoin="round" stroke-width="1.61"/><g id="fk"><g id="fl"><circle id="fm" cx="177.08" cy="224.22" r="5.21" fill="#7c8186"/><g id="fn"><path id="fo" d="M194.96,204.94l-10.12,21.2c-.73,1.53-2.56,2.18-4.09,1.45-.17-.08-.34-.18-.49-.29l-7.03-5.15c-1.37-1-1.67-2.92-.66-4.29,.11-.15,.24-.3,.38-.43l17.15-16.06c1.24-1.16,3.18-1.1,4.34,.14,.87,.92,1.08,2.29,.53,3.43Z" fill="#d72028" stroke="#d72028" stroke-miterlimit="10" stroke-width=".5"/><g id="fp"><path id="fq" d="M172.92,217.46c-.24,.22-.44,.48-.6,.77l11.94,8.74c.23-.24,.41-.51,.56-.8l1.13-2.38-11.11-8.13-1.92,1.8Z" fill="#ffce07" stroke="#d72028" stroke-miterlimit="10" stroke-width=".5"/><path id="fr" d="M186.82,221.98l1.56-3.27-9.43-6.9-2.65,2.48,10.51,7.69Z" fill="#ffce07" stroke="#d72028" stroke-miterlimit="10" stroke-width=".5"/></g></g></g><g id="fs"><circle id="ft" cx="236.86" cy="240.24" r="5.21" fill="#7c8186"/><g id="fu"><path id="fv" d="M231.01,214.6l-1.83,23.43c-.13,1.69,1.13,3.17,2.82,3.3,.19,.01,.38,.01,.57,0l8.66-.94c1.69-.18,2.9-1.7,2.72-3.39-.02-.19-.06-.38-.11-.56l-6.83-22.48c-.49-1.62-2.21-2.54-3.83-2.04-1.21,.37-2.07,1.44-2.17,2.7Z" fill="#d72028" stroke="#d72028" stroke-miterlimit="10" stroke-width=".5"/><g id="fw"><path id="fx" d="M243.84,236.46c.1,.31,.14,.64,.13,.97l-14.71,1.6c-.08-.32-.11-.65-.08-.97l.21-2.63,13.69-1.49,.77,2.52Z" fill="#ffce07" stroke="#d72028" stroke-miterlimit="10" stroke-width=".5"/><path id="fy" d="M229.54,233.43l.28-3.62,11.61-1.26,1.05,3.47-12.95,1.41Z" fill="#ffce07" stroke="#d72028" stroke-miterlimit="10" stroke-width=".5"/></g></g></g></g><g id="g`"><g id="ga"><path id="gb" d="M205.96,244.77c.78-1.65,2.75-2.37,4.41-1.6l4.47,2.09c1.48,.7,2.24,2.37,1.77,3.94,2.87,2.16,4.28,5.15,3.22,7.43-.4,.83-1.07,1.5-1.9,1.9l-14.26-6.65c-.23-.89-.15-1.84,.23-2.68l2.06-4.42h0Z" fill="#7c8186"/><path id="gc" d="M217.06,249.23c-1.18-.06-2.24,.74-2.5,1.9,1.63-.87,3.03-.25,4.61,.33-.94-.34-2.53-.09-2.56,1.16,0-.2,1.37-.18,1.49-.17,.7,.08,1.35,.39,1.86,.87" fill="none" stroke="#ffce07" stroke-linecap="round" stroke-linejoin="round" stroke-width=".5"/></g><g id="gd"><path id="ge" d="M201.49,243.49c.15-1.82-1.19-3.43-3.01-3.59l-4.92-.43c-1.63-.14-3.12,.94-3.51,2.53-3.56,.43-6.28,2.33-6.5,4.83-.07,.92,.18,1.84,.7,2.6l15.67,1.37c.64-.66,1.05-1.52,1.14-2.43l.43-4.86h0Z" fill="#7c8186"/><path id="gf" d="M189.65,241.8c1.06,.54,1.57,1.77,1.21,2.9-.97-1.57-2.5-1.73-4.16-2.02,.98,.17,2.24,1.19,1.64,2.29,.1-.18-1.09-.84-1.2-.89-.64-.28-1.36-.34-2.05-.17" fill="none" stroke="#ffce07" stroke-linecap="round" stroke-linejoin="round" stroke-width=".5"/></g></g><path id="gg" d="M211.48,219.81c-.79,.33-1.7,.09-2.21-.59l-15.03-19.72c-1.95,3.32-3.43,6.88-4.42,10.6-4.48,16.7,1.54,32.82,13.43,36.01s25.16-7.77,29.64-24.47c1-3.71,1.5-7.54,1.47-11.39l-22.88,9.56Z" fill="#d72028" stroke="#d72028" stroke-miterlimit="10" stroke-width=".5"/><path id="gh" d="M192.97,204.26l15.03,19.73c.52,.68,1.43,.92,2.21,.59l22.88-9.57c.02,2.97-.27,5.93-.87,8.83,.27-.82,.53-1.64,.75-2.49,1-3.71,1.5-7.54,1.47-11.39l-22.88,9.57c-.79,.33-1.7,.08-2.21-.59l-15.03-19.72c-1.95,3.32-3.43,6.88-4.42,10.6-.23,.85-.42,1.69-.59,2.53,.93-2.82,2.16-5.53,3.66-8.09Z" fill="#ffce07" stroke="#d72028" stroke-linecap="round" stroke-linejoin="round" stroke-width=".84"/><path id="gi" d="M191.3,210.48l15.03,19.73c.52,.68,1.43,.92,2.21,.59l22.88-9.57c.02,2.58,1.16-1.36,1.13-4.22l-22.88,9.57c-.79,.33-1.7,.08-2.21-.59l-15.03-19.72c-1.45,2.46-2.44,6.44-1.13,4.22Z" fill="#ffce07"/><ellipse id="gj" cx="219.57" cy="185.23" rx="10.41" ry="12.49" transform="translate(-16.2 349.34) rotate(-74.99)" fill="#d72028" stroke="#991c21" stroke-miterlimit="10" stroke-width="1"/><path id="gk" d="M230.07,184.67l-19.32-5.18-9.31,6.83s9.59,7.59,15.39,9.14,17.9-.22,17.9-.22l-4.65-10.57Z" fill="#d72028" stroke="#d72028" stroke-linecap="round" stroke-linejoin="round" stroke-width=".5"/><g id="gl"><path id="gm" d="M209.64,183.65c1.05-4.06,4.44-7.48,9.1-9.14" fill="none" stroke="#991c21" stroke-linecap="round" stroke-linejoin="round" stroke-width="1"/><path id="gn" d="M228.94,188.82c1.13-4.04-.11-8.7-3.31-12.47" fill="none" stroke="#991c21" stroke-linecap="round" stroke-linejoin="round" stroke-width="1"/></g><path id="go" d="M225.57,174.24c-.1-1.87-1.71-2-3.42-2.45-.89-.35-1.89,.06-2.29,.92l-7.04,10.76c-.96,1.46,.04,3.43,2,3.95l7.76,2.08c1.96,.53,3.81-.68,3.71-2.42l-.72-12.84Z" fill="#d72028" stroke="#991c21" stroke-linecap="round" stroke-linejoin="round" stroke-width="1"/><path id="gp" d="M226.68,179.44c-.51,.08-1.03,.1-1.54,.05-.54-.09-1.05-.26-1.53-.52-.47-.25-.89-.58-1.24-.97-.16-.18-.3-.38-.4-.6-.08-.18-.14-.44-.41-.29-.26,.15-.52,.28-.79,.4-.58,.23-1.2,.32-1.82,.26-.5-.04-.99-.16-1.46-.35-.17-.07-1.24-.57-1.2-.77-.76,3.69,.27,7.52,2.78,10.32,0,0,0,.02,.03,.03l.02-.02c3.57-1.17,6.38-3.97,7.57-7.54Z" fill="#ffce07"/><path id="gq" d="M223.38,183.93c.89-.89,1.63-1.91,2.21-3.02,.09-.17,.31-.51,.1-.67-.16-.12-.43,.05-.54,.15-.2,.2-.36,.43-.48,.69-.66,1.26-1.51,2.41-2.52,3.42-.45,.42-.94,.81-1.45,1.15-.46,.35-.95,.65-1.48,.89,1.57-.54,2.99-1.43,4.16-2.6Z" fill="#fff2d1"/><g isolation="isolate"><path d="M217.99,179.06l-.54,2c-.02,.08-.08,.11-.15,.09l-.19-.05c-.08-.02-.11-.08-.09-.15l.54-2-.34-.09c-.08-.02-.11-.08-.09-.15l.03-.1c.02-.07,.07-.1,.15-.08l1.11,.3c.08,.02,.11,.07,.09,.15l-.03,.1c-.02,.07-.08,.11-.15,.09l-.34-.09Z" fill="#231f20"/><path d="M219.79,179.73l-.39,1.44c-.09,.35-.34,.47-.76,.36s-.57-.34-.48-.69l.39-1.44c.09-.35,.33-.47,.76-.36s.58,.34,.48,.69Zm-.81-.22l-.39,1.44c-.03,.12,0,.21,.14,.24,.14,.04,.21-.03,.25-.14l.39-1.44c.03-.12,0-.21-.14-.24-.14-.04-.21,.03-.24,.14Z" fill="#231f20"/><path d="M221.03,179.64c.02-.07,.07-.1,.15-.08l.17,.05c.08,.02,.1,.07,.08,.15l-.6,2.22c-.02,.08-.07,.11-.15,.09l-.21-.06c-.07-.02-.09-.06-.09-.12l-.04-.99v-.6h-.03l-.11,.58-.23,.86c-.02,.07-.07,.11-.15,.09l-.17-.05c-.08-.02-.11-.08-.09-.15l.6-2.22c.02-.08,.07-.1,.15-.08l.21,.06c.07,.02,.09,.06,.1,.12l.04,.99v.6h.03l.11-.58,.23-.86Z" fill="#231f20"/><path d="M222.07,180.78l.29,.45c.16,.25,.17,.42,.08,.75-.09,.35-.33,.47-.76,.36-.43-.11-.57-.34-.48-.69l.07-.27c.02-.07,.07-.11,.15-.09l.2,.05c.07,.02,.1,.08,.08,.15l-.07,.27c-.03,.12,0,.21,.14,.25,.14,.04,.21-.03,.25-.14,.05-.19,.05-.29-.06-.46l-.29-.45c-.16-.25-.16-.42-.08-.75,.09-.35,.33-.47,.76-.36,.43,.11,.57,.34,.48,.69l-.07,.27c-.02,.07-.07,.1-.15,.08l-.2-.05c-.08-.02-.1-.07-.08-.15l.07-.27c.03-.12,0-.21-.14-.24-.14-.04-.21,.03-.25,.14-.05,.19-.05,.29,.06,.46Z" fill="#231f20"/><path d="M223.01,182.55c-.02,.08-.08,.11-.15,.09l-.19-.05c-.08-.02-.11-.08-.09-.15l.6-2.22c.02-.07,.07-.1,.15-.08l.19,.05c.07,.02,.11,.07,.09,.15l-.6,2.22Z" fill="#231f20"/><path d="M223.77,182.53l.51,.14c.07,.02,.11,.07,.09,.15l-.03,.1c-.02,.08-.08,.11-.15,.09l-.82-.22c-.08-.02-.11-.08-.09-.15l.6-2.22c.02-.07,.07-.1,.15-.08l.19,.05c.07,.02,.11,.07,.09,.15l-.54,2.01Z" fill="#231f20"/></g><path id="gr" d="M223.38,183.93c.89-.89,1.63-1.91,2.21-3.02,.09-.17,.31-.51,.1-.67-.16-.12-.43,.05-.54,.15-.2,.2-.36,.43-.48,.69-.66,1.26-1.51,2.41-2.52,3.42-.45,.42-.94,.81-1.45,1.15-.46,.35-.95,.65-1.48,.89,1.57-.54,2.99-1.43,4.16-2.6Z" fill="#fff2d1" isolation="isolate" opacity=".2"/><path id="gs" d="M207.22,182.52c3.81,2.57,7.81,5.23,12.44,6.3,4.01,.93,8.09,.57,12.03,.2" fill="none" stroke="#991c21" stroke-linecap="round" stroke-linejoin="round" stroke-width="1.67"/><path id="gt" d="M203.49,245.22l5.8-15.94-2.85-.76-2.95,16.7Z" fill="#ffce07"/></g><g id="gu"><path id="gv" d="M252.53,186.55c-.73-4-2.69-6.87-5.28-9.77-1.13-1.26-2.86-1.35-4.21-1.96-1.79-.8-3.38-1.6-5.14-2.19s-3.35-.38-5.14-.99c-3.39-1.15-7.11-3.33-10.39-4.46-2.14-.74-2.86,.33-1.59,2.03s3.75,3.1,5.41,4.42,3.16,2.51,4.77,3.75c.9,.7,1.59,1.46,2.54,2.07,1.12,.58,2.19,1.24,3.21,1.97,.78,.71,.73,2.11,.77,2.73,.15,2.54-.36,4.14-2.93,2.98-1.35-.61-1.63-1.88-2.61-3.13-.75-1.15-1.8-2.08-3.04-2.69-.47-.15-1.24-.39-1.68,0-.69,.57-.9,1.54-.49,2.35,.72,1.6,1.34,3.24,1.86,4.91,.5,1.84,1.36,3.77,2.1,5.67,.99,2.55,3.84,5.65,5.36,7.42,1.76,2.18,3.06,4.71,3.8,7.41,.27,.88,.42,1.81,.65,2.71,.15,.59,.25,1.55,.82,1.9,.69,.43,1.98-.39,2.68-.6,2.51-.81,5.08-1.4,7.69-1.78,2.86-.35,7.96,.9,7.68-2.93-.26-3.6-3.23-7.61-4.59-10.9-1.41-3.42-1.58-7.31-2.24-10.92Z" fill="#faf5b3"/></g><g id="gw"><g id="gx"><path id="gy" d="M99.59,243.64c-.15-1.82,1.19-3.43,3.01-3.59l4.92-.43c1.63-.14,3.12,.94,3.51,2.53,3.56,.43,6.28,2.33,6.5,4.83,.07,.92-.18,1.84-.7,2.6l-15.67,1.37c-.64-.66-1.05-1.52-1.14-2.43l-.43-4.86h0Z" fill="#7c8186"/><path id="h`" d="M111.43,241.95c-1.06,.54-1.57,1.77-1.21,2.9,.97-1.57,2.5-1.73,4.16-2.02-.98,.17-2.24,1.19-1.64,2.29-.1-.18,1.09-.84,1.2-.89,.64-.28,1.36-.34,2.05-.17" fill="none" stroke="#ffce07" stroke-linecap="round" stroke-linejoin="round" stroke-width=".5"/></g><g id="ha"><path id="hb" d="M95.08,244.77c-.78-1.65-2.75-2.37-4.41-1.6l-4.47,2.09c-1.48,.7-2.23,2.37-1.77,3.94-2.87,2.16-4.28,5.15-3.22,7.43,.4,.83,1.07,1.5,1.9,1.9l14.26-6.65c.23-.89,.15-1.84-.23-2.68l-2.06-4.42h0Z" fill="#7c8186"/><path id="hc" d="M83.98,249.23c1.18-.06,2.24,.74,2.49,1.9-1.63-.87-3.03-.25-4.61,.33,.94-.34,2.54-.09,2.56,1.16,0-.2-1.37-.18-1.49-.17-.7,.08-1.35,.39-1.86,.87" fill="none" stroke="#ffce07" stroke-linecap="round" stroke-linejoin="round" stroke-width=".5"/></g></g><ellipse id="hd" cx="240.67" cy="142.5" rx="51.94" ry="12.1" fill="#fff"/><path id="he" d="M207.45,172.45l12.34-29.07-11.58-2.24-.75,31.31Z" fill="#fff"/><g isolation="isolate"><path d="M204.87,140.69c-.45,0-.91,.04-1.38,.12-.31,2.24-.56,3.83-.76,4.76-.1,.45-.19,.77-.3,.95-.18,.33-.45,.49-.82,.49-.2,0-.38-.06-.53-.17-.17-.13-.26-.29-.26-.49,0-.05,0-.09,.02-.14v-.03c.04-.12,.08-.3,.13-.54l.39-1.65c.19-.58,.39-1.53,.61-2.84-.82,.23-1.53,.46-2.13,.7-.15,.06-.26,.09-.34,.09-.23,0-.34-.16-.34-.49,0-.36,.15-.64,.46-.82,.08-.05,.39-.19,.94-.42,2.02-.84,3.52-1.26,4.51-1.26,.34,0,.58,.02,.74,.06,.43,.12,.65,.44,.65,.94,0,.22-.06,.41-.17,.55-.12,.16-.29,.24-.5,.24-.11,0-.26,0-.47-.02-.21-.02-.36-.02-.46-.02Z"/><path d="M207.8,140.23h0c.04-.21,.15-.38,.34-.52,.19-.14,.4-.21,.61-.21,.35,0,.52,.18,.5,.53-.01,.33-.05,.7-.12,1.11l-.19,1.1-.29,1.84c.87-.2,1.83-.34,2.87-.42,.1-.45,.3-1.55,.59-3.28v-.05c.03-.2,.15-.37,.35-.5,.19-.13,.39-.19,.61-.19,.36,0,.53,.17,.52,.52-.01,.43-.07,.96-.18,1.62l-.54,3.16c-.14,.82-.28,1.34-.4,1.57-.19,.36-.47,.54-.84,.54-.19,0-.36-.05-.52-.16-.19-.12-.29-.27-.29-.45,0-.05,0-.1,.02-.14l.02-.08c.04-.14,.17-.61,.38-1.41-.42,0-.9,.08-1.45,.22-.26,.07-.72,.21-1.39,.43l-.06,.33c-.02,.08-.04,.16-.06,.24-.13,.59-.46,.89-.98,.89-.21,0-.38-.05-.53-.15-.18-.11-.26-.27-.26-.46,0-.05,0-.11,.02-.17l.02-.04,.71-2.87c.13-.53,.3-1.46,.5-2.77l.03-.2h0Z"/><path d="M220.92,147.18c-.25,.2-.5,.3-.76,.3-.3,0-.51-.2-.65-.58-.05-.18-.18-.71-.38-1.58-1.1,.26-2.23,.6-3.39,1.01-.26,.39-.58,.59-.94,.59-.18,0-.32-.05-.44-.16s-.17-.25-.17-.42c0-.15,.06-.31,.18-.47,.83-1.16,1.47-2.13,1.93-2.9l1.79-3.04c-.02-.1-.03-.19-.03-.27,0-.26,.13-.46,.38-.61,.17-.09,.35-.14,.54-.14,.39,0,.63,.17,.7,.5l.61,2.87c.2,.96,.45,1.9,.74,2.83l.33,1.05c.02,.05,.02,.12,.02,.19,0,.3-.16,.58-.47,.83Zm-2.48-5.34c-.41,.72-.97,1.69-1.69,2.9,.7-.22,1.42-.38,2.15-.5-.17-.81-.32-1.61-.46-2.41Z"/><path d="M228.95,146.58c0,.28-.11,.5-.34,.65-.19,.12-.43,.18-.74,.18-.41,0-.69-.11-.83-.34-1.06-.68-1.91-2.01-2.56-3.98-.13,.88-.22,1.46-.26,1.73-.15,.88-.31,1.44-.46,1.66-.18,.27-.43,.4-.75,.4-.21,0-.39-.05-.55-.16-.18-.12-.26-.27-.26-.47,0-.13,.03-.31,.1-.53,.03-.1,.08-.27,.16-.53,.12-.39,.26-.99,.43-1.81,.17-.78,.29-1.4,.36-1.84,.02-.16,.07-.47,.14-.94,.04-.23,.16-.41,.38-.54,.19-.11,.41-.17,.66-.17,.21,0,.36,.13,.43,.4,.03,.12,.15,.4,.35,.84,.43,.95,.75,1.6,.94,1.94,.43,.75,.87,1.3,1.33,1.67,.17-.68,.27-1.11,.3-1.3,.02-.14,.05-.41,.11-.82,.09-.55,.23-1.33,.45-2.35,.05-.22,.16-.41,.35-.56s.39-.23,.62-.23c.34,0,.51,.19,.5,.56,0,.59-.13,1.73-.38,3.44-.06,.46-.21,1.37-.42,2.73l-.06,.36Z"/><path d="M236.22,146.97c-.2,.15-.42,.23-.64,.23-.2,0-.4-.08-.59-.23-.41-.32-.95-.72-1.61-1.21-.36-.26-.77-.4-1.24-.41-.11,.57-.21,.93-.3,1.1-.18,.35-.5,.52-.94,.52-.23,0-.44-.04-.6-.14-.21-.12-.31-.28-.31-.5,0-.05,0-.1,.02-.14,.05-.18,.19-.71,.42-1.6,.12-.46,.24-.98,.36-1.56,.07-.35,.17-.85,.27-1.5,.11-.69,.19-1.19,.26-1.5,.05-.23,.18-.41,.4-.55,.2-.13,.42-.19,.66-.19,.4,0,.59,.18,.58,.54-.01,.35-.12,1.19-.32,2.53,1.25-.78,2.17-1.4,2.75-1.85,.19-.15,.52-.42,.98-.8,.17-.14,.35-.21,.56-.21,.18,0,.33,.04,.46,.12,.15,.1,.22,.23,.22,.4,0,.16-.07,.31-.21,.45-.32,.32-.7,.66-1.13,1.01l-3.07,2.5c1.31,.45,2.35,1,3.12,1.67,.19,.17,.28,.36,.28,.58,0,.27-.13,.51-.39,.72Z"/><path d="M240.35,147.11c-.86,0-1.61-.21-2.25-.62-.26-.17-.39-.38-.39-.62s.11-.45,.32-.63c.21-.19,.43-.28,.67-.28,.12,0,.26,.03,.42,.1,.77,.29,1.41,.44,1.92,.44,.43,0,.86-.08,1.28-.23,.5-.19,.74-.42,.74-.69,0-.35-.34-.67-1.01-.95-.45-.19-.93-.33-1.44-.42-.15-.03-.83-.1-2.02-.22-.35-.03-.53-.21-.53-.54,0-.06,0-.13,.02-.2,.11-.53,.47-1.11,1.06-1.73,.53-.55,1.08-.97,1.65-1.25,.26-.13,.52-.2,.77-.2,.47,0,.84,.09,1.12,.28,.28,.19,.52,.5,.72,.93,.08,.18,.12,.34,.12,.46,0,.16-.07,.31-.22,.46s-.3,.22-.46,.22c-.19,0-.36-.09-.51-.28l-.57-.35c-.25-.14-.45-.21-.6-.21-.2,0-.45,.12-.73,.37s-.45,.47-.49,.68c-.02,.09,.02,.14,.1,.15-.04,0,.04,0,.22,0,1.14,.03,2.01,.15,2.63,.36,1.19,.4,1.79,1,1.79,1.79,0,.11-.01,.23-.04,.35-.17,.82-.74,1.51-1.7,2.06-.86,.5-1.74,.75-2.62,.75Z"/><path d="M246.19,148.08c-.11-.08-.18-.14-.22-.18-.05-.07-.08-.16-.08-.26,0-.06,.02-.12,.05-.18,.53-.98,.9-1.73,1.1-2.23,.09-.33,.25-.77,.49-1.32,.1-.16,.28-.24,.56-.24,.24,0,.46,.06,.66,.17,.22,.12,.34,.3,.34,.52,0,.04,0,.08,0,.14-.05,.25-.34,.85-.87,1.82-.52,.95-.88,1.55-1.08,1.8-.1,.12-.22,.18-.38,.18-.19,0-.37-.07-.56-.21Z"/><path d="M255.58,146.73c-.2,.13-.42,.22-.66,.29-.22,0-.4-.05-.55-.15-.17-.12-.26-.29-.26-.49,0-.05,0-.1,.02-.14,.02-.09,.14-.57,.38-1.44,.29-1.09,.53-2.25,.72-3.47-.17-.03-.31-.1-.43-.22-.12-.12-.18-.26-.18-.43,0-.28,.15-.49,.46-.64,.08-.04,.39-.14,.9-.29,1.57-.46,2.78-.69,3.63-.69,.55,0,1,.08,1.35,.25,.48,.22,.72,.58,.72,1.06,0,.77-.6,1.78-1.81,3.02-1.07,1.09-2.5,2.21-4.29,3.34Zm4.57-5.69c0-.26-.31-.38-.93-.38-.55,0-1.39,.13-2.5,.39-.15,1.15-.3,2.21-.46,3.17,.8-.46,1.53-.92,2.19-1.4,1.14-.81,1.7-1.4,1.7-1.78Z"/><path d="M262.11,145.93c-.36-.53-.54-1.12-.54-1.77,0-.26,.03-.53,.09-.8,.24-1.15,.85-2.12,1.84-2.9s2.07-1.17,3.24-1.17c1.09,0,1.89,.38,2.41,1.15,.34,.51,.51,1.11,.51,1.81,0,.9-.25,1.69-.74,2.37-.43,.59-1.06,1.13-1.91,1.62-.99,.57-1.88,.86-2.66,.86-.96,0-1.7-.39-2.23-1.17Zm1.92-3.97c-.64,.44-.96,.98-.96,1.62,0,.39,.16,.72,.48,1,.31,.26,.66,.39,1.06,.39,.34,0,.76-.09,1.26-.26,.51-.17,.9-.36,1.18-.56,.44-.32,.71-.54,.82-.66,.25-.27,.37-.59,.37-.96,0-.95-.6-1.42-1.81-1.42-.78,0-1.58,.29-2.4,.86Z"/><path d="M275.86,146.21c-1.02,.61-1.97,.92-2.84,.92-1.03,0-1.81-.39-2.34-1.17-.36-.52-.54-1.11-.54-1.77,0-.27,.04-.57,.1-.9,.28-1.31,1.11-2.39,2.5-3.24,.58-.35,1.3-.64,2.18-.86,.27-.07,.43-.1,.48-.1,.31,0,.65,.12,1.03,.35s.62,.49,.74,.78c.14,.33,.2,.55,.18,.66-.03,.13-.11,.25-.26,.36s-.29,.17-.42,.17c-.14,0-.26-.06-.34-.19-.46-.26-.95-.39-1.47-.39-.74,0-1.43,.26-2.06,.78s-1.03,1.15-1.18,1.88c-.04,.17-.06,.3-.06,.42,0,.78,.52,1.18,1.56,1.18,.88,0,1.84-.23,2.86-.7,.26-.12,.46-.18,.58-.18,.17,0,.3,.07,.4,.21s.15,.29,.15,.46c0,.38-.42,.83-1.26,1.33Z"/><path d="M278.79,146.48c-.27,.35-.56,.53-.87,.53-.43,0-.64-.25-.64-.74,0-.41,.16-.82,.47-1.22,.26-.33,.54-.5,.84-.5,.43,0,.65,.25,.65,.76,0,.38-.15,.76-.45,1.16Zm-.23-2.98c0-.09,.02-.18,.06-.28,.28-.79,.68-1.84,1.22-3.16,.07-.18,.23-.54,.46-1.09,.18-.43,.49-.64,.91-.64,.25,0,.48,.07,.69,.22,.24,.15,.35,.35,.35,.59,0,.06,0,.11,0,.14-.02,.11-.21,.45-.56,1.02l-.69,1.1c-.14,.23-.47,.93-.98,2.09-.15,.34-.42,.51-.82,.51-.19,0-.34-.05-.46-.14-.11-.09-.17-.21-.17-.36Z"/></g><g isolation="isolate"><path d="M49.57,167.07c.03,.27,.06,.6,.08,.99,.02,.24-.1,.4-.36,.47-.19,.05-.38,.06-.56,.02-.21-.04-.35-.15-.41-.32-.06-.18-.1-.45-.12-.8l-.21,.28c-.24,.34-.41,.51-.49,.54-.23,.06-.41-.17-.55-.69-.03-.12-.05-.22-.05-.29-.01-.26,.23-.71,.72-1.35-.06-.02-.23-.09-.52-.2-.11-.05-.18-.12-.21-.23-.05-.2,.01-.43,.2-.7,.19-.27,.38-.44,.58-.49,.06-.02,.23,.01,.51,.09,.02-.29,.05-.58,.09-.87,.13-.27,.33-.45,.6-.52,.36-.1,.57-.02,.64,.22,.03,.1,.01,.41-.04,.92,.31-.2,.55-.31,.72-.36,.18-.05,.35,0,.52,.13,.14,.12,.24,.28,.29,.47,.08,.3-.01,.53-.28,.68-.22,.12-.42,.24-.6,.36,.49,.45,.77,.84,.86,1.16,.06,.21,.02,.47-.1,.78-.11,.27-.25,.42-.43,.47-.14,.04-.28-.02-.4-.18-.15-.21-.31-.4-.47-.56Z"/><path d="M59.31,167.68c-.97,1.31-2.04,2.11-3.19,2.42-1.03,.28-1.94,.11-2.73-.5-.57-.43-.95-1-1.13-1.7-.07-.26-.11-.53-.12-.83-.06-1.06,.25-2.03,.93-2.93,.57-.77,1.37-1.44,2.39-2.01,.21-.11,.34-.17,.39-.19,.35-.09,.77-.05,1.27,.13,.33,.12,.62,.35,.88,.71,.12,.16,.18,.3,.19,.42,.01,.28,0,.55-.07,.79-.08,.34-.23,.54-.43,.6-.35,.09-.59-.11-.72-.6,0,.01-.02-.09-.07-.3-.36-.05-.72-.02-1.07,.07-.66,.18-1.2,.56-1.61,1.15-.41,.59-.6,1.23-.57,1.92,0,.17,.03,.33,.06,.46,.12,.45,.39,.73,.81,.84,.33,.09,.74,.08,1.22-.05,.9-.24,1.78-.72,2.62-1.42,.23-.19,.41-.3,.52-.33,.17-.04,.31-.01,.44,.09,.13,.1,.22,.24,.26,.41,.07,.25-.02,.54-.26,.85Z"/><path d="M61.13,167.49c-.49-.42-.82-.94-.98-1.57-.07-.25-.11-.52-.12-.79-.07-1.18,.27-2.27,1.02-3.28,.75-1.01,1.69-1.67,2.83-1.97,1.05-.28,1.93-.12,2.62,.49,.46,.4,.78,.94,.96,1.61,.23,.87,.2,1.69-.1,2.48-.26,.68-.74,1.37-1.43,2.06-.81,.81-1.59,1.31-2.35,1.52-.93,.25-1.75,.07-2.46-.55Zm.83-4.33c-.5,.59-.67,1.2-.51,1.81,.1,.38,.34,.66,.72,.84,.37,.17,.74,.21,1.12,.11,.33-.09,.71-.28,1.15-.58,.44-.3,.78-.58,1-.85,.34-.42,.55-.71,.62-.85,.17-.33,.2-.67,.11-1.02-.25-.92-.95-1.22-2.11-.91-.75,.2-1.45,.68-2.1,1.45Z"/><path d="M72.81,164.85c-.02-.08-.04-.2-.04-.35-1.04,.87-1.83,1.38-2.37,1.52-.75,.2-1.24-.12-1.47-.97-.08-.31-.13-.65-.15-1.02,0-.16-.02-.46-.04-.9-.07-1.56-.11-2.8-.11-3.72,0-.39,.16-.62,.5-.71,.45-.12,.73,.01,.84,.41,.05,.17,.07,.83,.06,1.97,0,1.45,.04,2.33,.16,2.62,.1,.23,.26,.32,.5,.25,.38-.1,1.07-.58,2.08-1.43-.03-.92-.09-1.8-.18-2.63-.08-.72-.12-1.24-.13-1.55-.02-.23,.05-.43,.19-.62,.14-.18,.32-.31,.54-.37,.35-.09,.56,.04,.64,.4,.01,.05,.06,.39,.13,1.02,.28,2.42,.45,4.02,.49,4.81,.02,.47,0,.8-.04,1-.1,.37-.32,.6-.67,.69-.2,.05-.38,.04-.57-.04-.18-.08-.3-.22-.35-.41Z"/><path d="M81.53,160.34c.11-.19,.17-.34,.17-.46-.01-.13-.2-.15-.56-.06-.32,.09-.68,.26-1.07,.52l-1.02,.66c-.16,.11-.3,.18-.42,.21-.27,.07-.45-.03-.52-.31-.09-.33,.01-.63,.3-.93,.82-.84,1.53-1.34,2.13-1.5,.55-.15,1.05-.14,1.5,.03,.51,.19,.84,.55,.98,1.09,.26,.97-.16,1.93-1.27,2.86-.77,.65-1.56,1.08-2.38,1.3-.99,.27-1.87,.13-2.64-.4-.57-.39-.95-.93-1.13-1.6-.06-.24-.11-.5-.12-.77-.07-1.36,.61-2.66,2.03-3.91,.52-.46,1.22-.9,2.11-1.33,.26-.12,.41-.18,.47-.2,.37-.1,.72-.09,1.07,.03,.35,.12,.63,.33,.84,.64,.1,.07,.16,.17,.19,.29,.05,.17,.01,.33-.1,.49-.11,.16-.26,.26-.44,.31-.15,.04-.29,.02-.4-.07-.52-.07-1.02-.04-1.5,.09-.81,.22-1.5,.68-2.06,1.38-.57,.72-.84,1.5-.8,2.33,.01,.15,.03,.27,.06,.39,.11,.39,.33,.64,.67,.75,.29,.09,.64,.08,1.05-.03,.74-.2,1.62-.7,2.65-1.5l.23-.3Z"/><path d="M84.09,155.44h0c-.02-.21,.05-.41,.2-.59,.15-.19,.33-.31,.53-.36,.34-.09,.55,.04,.62,.38,.08,.32,.13,.69,.17,1.11l.1,1.11,.2,1.85c.79-.42,1.68-.8,2.66-1.15-.02-.46-.11-1.57-.28-3.32v-.05c-.04-.2,.04-.39,.2-.57,.15-.17,.33-.29,.54-.34,.35-.09,.56,.03,.64,.37,.1,.42,.18,.95,.24,1.61l.29,3.19c.07,.83,.08,1.37,.02,1.62-.09,.39-.31,.64-.67,.74-.18,.05-.36,.04-.54-.02-.22-.07-.35-.19-.39-.36-.01-.05-.02-.1-.01-.15v-.08c0-.15,0-.64,0-1.46-.41,.11-.85,.31-1.34,.58-.23,.13-.64,.39-1.23,.78l.02,.33c0,.08,0,.17,0,.25,.03,.61-.21,.98-.72,1.11-.2,.05-.38,.05-.55,0-.2-.06-.32-.19-.38-.38-.01-.05-.02-.11-.02-.17v-.04l-.05-2.96c0-.55-.09-1.48-.23-2.8l-.02-.2h0Z"/><path d="M92.78,159.58c-.17,.41-.41,.66-.71,.74-.41,.11-.68-.07-.81-.54-.11-.4-.06-.83,.14-1.3,.17-.39,.39-.62,.68-.7,.42-.11,.69,.08,.82,.57,.1,.37,.05,.78-.13,1.24Zm-1-2.82c-.02-.08-.03-.18-.02-.28,.06-.84,.18-1.96,.36-3.37,.03-.19,.08-.58,.16-1.17,.06-.46,.3-.74,.72-.85,.24-.06,.48-.06,.72,.03,.27,.09,.43,.25,.49,.48,.02,.06,.03,.11,.03,.14,0,.11-.08,.49-.28,1.13l-.38,1.24c-.08,.26-.21,1.02-.41,2.27-.06,.37-.27,.6-.66,.71-.19,.05-.35,.04-.48-.02-.14-.06-.22-.16-.26-.31Z"/><path d="M97.6,154.19c.03,.27,.06,.6,.08,.99,.02,.24-.1,.4-.36,.47-.19,.05-.38,.06-.56,.02-.22-.04-.35-.15-.41-.32-.06-.18-.1-.45-.12-.8l-.21,.28c-.24,.34-.41,.51-.49,.54-.23,.06-.41-.17-.55-.69-.03-.12-.05-.22-.05-.29-.01-.26,.23-.71,.72-1.35-.06-.02-.23-.09-.52-.2-.11-.05-.18-.12-.21-.23-.05-.2,.01-.43,.2-.7,.19-.27,.38-.44,.58-.49,.06-.02,.23,.01,.51,.09,.02-.29,.05-.58,.09-.87,.13-.27,.33-.45,.6-.52,.36-.1,.57-.02,.64,.22,.03,.1,.01,.41-.04,.92,.31-.2,.55-.31,.72-.36,.18-.05,.35,0,.52,.13,.14,.12,.24,.28,.29,.47,.08,.3-.01,.53-.28,.68-.22,.12-.42,.24-.6,.36,.49,.45,.77,.84,.86,1.16,.06,.21,.02,.47-.1,.78-.11,.26-.25,.42-.43,.47-.14,.04-.28-.02-.4-.18-.15-.21-.31-.39-.47-.56Z"/></g><path id="hf" d="M91.89,219.26c-.52,.68-1.43,.92-2.21,.59l-22.88-9.57c-.03,3.84,.47,7.68,1.47,11.39,4.48,16.7,17.74,27.66,29.64,24.47s17.91-19.31,13.43-36.01c-.99-3.72-2.47-7.28-4.42-10.6l-15.03,19.73Z" fill="#d72028" stroke="#d72028" stroke-miterlimit="10" stroke-width=".5"/><path id="hg" d="M68.08,215.05l22.88,9.57c.79,.33,1.7,.09,2.21-.59l15.03-19.72c1.5,2.56,2.73,5.27,3.66,8.08-.17-.84-.37-1.69-.59-2.53-.99-3.72-2.47-7.28-4.42-10.6l-15.03,19.72c-.52,.68-1.43,.92-2.21,.59l-22.88-9.57c-.03,3.84,.47,7.68,1.47,11.39,.23,.85,.48,1.67,.75,2.49-.6-2.9-.89-5.86-.87-8.83Z" fill="#ffce07" stroke="#d72028" stroke-linecap="round" stroke-linejoin="round" stroke-width=".84"/><path id="hh" d="M69.75,221.28l22.88,9.57c.79,.33,1.7,.09,2.21-.59l15.03-19.72c1.31,2.22,.32-1.76-1.13-4.22l-15.03,19.72c-.52,.68-1.43,.92-2.21,.59l-22.88-9.57c-.03,2.85,1.11,6.8,1.13,4.22Z" fill="#ffce07"/><path id="hi" d="M97.67,245.27l-2.95-16.7-2.85,.76,5.8,15.94Z" fill="#ffce07"/><rect x="1.2" y="1.2" width="297.6" height="297.6" rx="2.4" ry="2.4" fill="none"/><rect x="0" width="300" height="300" rx="3" ry="3" fill="none"/><rect x="1" y="1" width="298" height="298" rx="2" ry="2" fill="none" stroke="#000" stroke-linejoin="round" stroke-width="2"/></g></g></svg>