<?xml version="1.0" encoding="UTF-8"?><svg xmlns="http://www.w3.org/2000/svg" viewBox="0 0 300 300"><g id="a"/><g id="b"><g id="c"><rect id="d" width="300" height="300" rx="3" ry="3" fill="#bed7ea"/><path d="M1.99,91.05c3.92,.74,8.02,.92,11.73,2.25,5.17,1.86,11.72,6.64,4.13,8.95-4.17,1.27-11.51,.81-17.85,.49v24.8c2.83-1.18,5.75-2.09,8.84-2.54,4.3-.62,10.15,1.2,9.45,5.11-.65,3.61-6.2,4.57-8.37,7.69-3.06,4.41,3.06,9.9,8.69,9.26s10.03-4.68,14.35-8.11c13.29-10.57,29.94-16.58,46.76-18.22,8.72-.85,24.74-2.57,31.85,3.27,1.95,1.6,4.96,3.01,6.75,1.24,.49-.55,.85-1.21,1.04-1.93,.93-2.83,1.13-5.85,.57-8.77-9.91-1.62-21.21-3.28-29.56-9.03-8.18-5.51-15.33-12.41-21.15-20.38-1.08-1.53-2.12-3.09-3.18-4.64-2.56-3.71-5.38-7.86-9.57-10.22-1.45-.81-6.9-2.38-8.39-1-3.26,3,6.08,9.4,7.99,11.11,1.64,1.47,3.37,2.98,4.06,4.99,.8,2.14-.21,4.53-2.29,5.46-1.86,.54-3.87-.08-5.1-1.59-4.38-5.15-5.91-10.07-12.25-14.31-6.56-4.35-14.09-7.03-21.93-7.81-6-.59-12.35-.05-17.75,2.63-.26,.13-.53,.27-.8,.43v20.4c.66,.17,1.33,.33,1.99,.46Z" fill="#edf4f9"/><path d="M3,300H297c1.28,0,2.37-.81,2.8-1.95v-94.28c-2.97-.7-5.77-1.38-8.21-1.77-13.82-2.19-27.68-4.14-41.63-4.95-20.8-1.22-41.79-1.44-62.49,.64-20.31,2.05-40.68-.35-61-.65-42.47-.63-84.36,2.06-126.46,6.06v93.91c0,1.66,1.34,3,3,3Z" fill="#68be63"/><rect x="1" y="2" width="297.6" height="297.6" rx="2.4" ry="2.4" fill="none"/><g id="e"><circle id="f" cx="163.75" cy="124.53" r="9.43" fill="#7c8186"/><g id="g"><path id="h" d="M211.11,129.52l-39.07-16.85c-2.82-1.22-6.09,.08-7.3,2.9-.14,.32-.24,.65-.32,.99l-3.46,15.39c-.67,3,1.21,5.97,4.21,6.64,.34,.08,.68,.12,1.03,.13l42.52,1.46c3.07,.11,5.64-2.29,5.75-5.36,.08-2.29-1.25-4.39-3.36-5.3Z" fill="#d72028" stroke="#d72028" stroke-miterlimit="10" stroke-width=".91"/><g id="i"><path id="j" d="M166.15,138.71c-.59-.02-1.18-.14-1.73-.34l5.87-26.14c.59,.05,1.17,.2,1.71,.43l4.38,1.89-5.46,24.32-4.77-.16Z" fill="#ffce07" stroke="#d72028" stroke-miterlimit="10" stroke-width=".91"/><path id="k" d="M179.7,115.98l6.03,2.6-4.63,20.64-6.56-.23,5.17-23.01Z" fill="#ffce07" stroke="#d72028" stroke-miterlimit="10" stroke-width=".91"/></g></g></g><g id="l"><g id="m"><path id="n" d="M227.94,187.95c-.01-3.31-2.69-5.99-6-6h-8.94c-2.97,.01-5.48,2.18-5.93,5.11-6.36,1.34-10.96,5.19-10.96,9.73,.03,1.67,.62,3.28,1.67,4.57h28.49c1.06-1.29,1.65-2.9,1.67-4.57v-8.84h0Z" fill="#717b7d"/><path id="o" d="M206.31,186.77c1.99,.81,3.1,2.94,2.64,5.03-2-2.67-4.78-2.72-7.83-2.99,1.79,.16,4.23,1.79,3.32,3.86,.15-.34-2.11-1.35-2.31-1.42-1.21-.4-2.51-.4-3.72,.01" fill="none" stroke="#ffce07" stroke-linecap="round" stroke-linejoin="round" stroke-width=".91"/><g id="p"><path id="q" d="M227.9,192.82c-.01-3.31-2.69-5.99-6-6h-8.94c-2.97,.01-5.48,2.18-5.93,5.11-6.36,1.34-10.96,5.19-10.96,9.73,.03,1.67,.62,3.28,1.67,4.57h28.49c1.06-1.29,1.65-2.9,1.67-4.57v-8.84h0Z" fill="#7c8186"/><path id="r" d="M206.27,191.65c1.99,.81,3.1,2.94,2.64,5.03-2-2.67-4.78-2.72-7.83-2.99,1.79,.16,4.23,1.79,3.32,3.86,.15-.34-2.11-1.35-2.31-1.42-1.21-.41-2.52-.4-3.72,.01" fill="none" stroke="#ffce07" stroke-linecap="round" stroke-linejoin="round" stroke-width=".91"/></g></g><g id="s"><ellipse id="t" cx="221.72" cy="134.11" rx="40.37" ry="56.68" fill="#f06f7f"/><circle id="u" cx="207.19" cy="97.3" r="2.85" fill="#f48b93"/><circle id="v" cx="248.07" cy="112.52" r="2.85" fill="#f48b93"/><circle id="w" cx="207.19" cy="137.74" r="2.85" fill="#f48b93"/><circle id="x" cx="245.22" cy="148.01" r="2.85" fill="#f48b93"/><circle id="y" cx="223.32" cy="106.82" r="2.85" fill="#f48b93"/><circle id="a`" cx="198.64" cy="159.41" r="2.85" fill="#f48b93"/><circle id="aa" cx="217.61" cy="153.71" r="2.85" fill="#f48b93"/><circle id="ab" cx="194.88" cy="119.65" r="2.85" fill="#f48b93"/><circle id="ac" cx="228.14" cy="129.98" r="2.85" fill="#f48b93"/><circle id="ad" cx="231.87" cy="91.57" r="2.85" fill="#f48b93"/><circle id="ae" cx="234.72" cy="169.65" r="2.85" fill="#f48b93"/><circle id="af" cx="210.04" cy="176.89" r="2.85" fill="#f48b93"/></g><path id="ag" d="M220.21,120.83c2.91,.54,5.84,.9,8.79,1.08,9.38,.41,18.32-2.72,27.07-5.71,9.28-3.17,6.02,12.07,6.02,17.91,0,31.31-18.07,56.68-40.37,56.68-18.15,0-30.88-16.22-36.33-31.95-2.72-7.83-6.7-21.43-3.07-29.37,7.07-15.44,23.65-11.06,37.89-8.64Z" fill="#d72028" stroke="#d72028" stroke-miterlimit="10" stroke-width=".91"/><path id="ah" d="M183.66,138.88c-1.34,8.42,2.23,21.4,1.73,19.96-2.72-7.83-6.7-21.43-3.07-29.37,7.07-15.44,23.65-11.06,37.89-8.64,2.91,.54,5.84,.9,8.79,1.08,9.38,.41,18.32-2.72,27.07-5.71,4.83-1.65,6.26,1.69,6.52,6.09-.98-.63-2.34-.75-4.21-.11-8.75,2.99-17.69,6.12-27.07,5.71-2.95-.18-5.88-.54-8.79-1.08-14.24-2.42-30.82-6.8-37.89,8.64-2.29,5-3.39,11.2-1.72,16.52" fill="#ffce07" stroke="#d72028" stroke-miterlimit="10" stroke-width=".91"/><path id="ai" d="M204.63,186.19c-12.63-9.19-21.59-22.61-21.59-37.94" fill="none" stroke="#ffce07" stroke-linecap="round" stroke-miterlimit="10" stroke-width="2.73"/><path id="aj" d="M183.64,153.2c-1.67-4.31-1.12-10.79,.79-14.97,7.07-15.44,23.65-11.06,37.89-8.64,2.91,.54,5.84,.9,8.79,1.08,5.98,.1,11.94-.79,17.64-2.63,2.81-.82,5.57-1.79,8.36-2.71,1.28-.43,3.94-1.93,4.8-.04,.4,.89-.01,4.94-.68,5.65-1.08,1.15-4.45,1.55-5.99,1.96-2.39,.64-4.79,1.22-7.21,1.75-4.72,1.04-9.74,2.2-14.61,1.99-2.95-.18-5.88-.54-8.79-1.08-11.17-1.9-25.45-6.93-34.89,1.89-2.19,2.05-3.83,4.63-4.76,7.48-.84,2.54-.24,6.02-1.34,8.26Z" fill="#ffce07"/></g><path id="ak" d="M215.38,133.97c.03,1.66-.7,3.23-1.98,4.28-1.27,1.02-2.69,1.85-4.21,2.44l-24.56,11.06" fill="none" stroke="#991c21" stroke-miterlimit="10" stroke-width=".91"/><path id="al" d="M245.96,90.23l-48.04-4.99c-.63-.06,1.13-8.55,1.28-9.39,1.17-6.07,2.99-11.99,5.43-17.66,1.1-2.69,1.09-3.72,3.77-2.54,1.4,.73,2.87,1.3,4.39,1.72,3.18,.7,6.45,.58,9.65,1.04,3.01,.43,6.86,.24,9.7,1.45,6.49,2.77,11.14,11.44,12.93,17.85,.29,1.03,2.12,12.53,.89,12.53Z" fill="#d72028" stroke="#991c21" stroke-miterlimit="10" stroke-width="1.82"/><path id="am" d="M230.65,59.26c-4.03-.74-8.18,.48-11.18,3.27-2.94,2.8-5.02,6.37-6,10.31-.97,3.92-1.57,7.91-1.78,11.94" fill="none" stroke="#991c21" stroke-linecap="round" stroke-linejoin="round" stroke-width="1.82"/><path id="an" d="M226.84,59.46c3.28,8.44,4.54,17.53,3.68,26.55" fill="none" stroke="#991c21" stroke-linecap="round" stroke-linejoin="round" stroke-width="1.82"/><path id="ao" d="M227.9,59.31c-7.16,.25-14.27,1.4-21.14,3.43" fill="none" stroke="#991c21" stroke-linecap="round" stroke-linejoin="round" stroke-width="1.82"/><path id="ap" d="M205.69,55.93c1.27,2.81,.69,5.42,.69,8.37,0,6.52-.07,13.02-.24,19.54" fill="none" stroke="#991c21" stroke-linecap="round" stroke-linejoin="round" stroke-width="1.82"/><path id="aq" d="M265.85,102.32c-2.09,1.69-6.99-1.42-8.84-2.37-6.92-3.6-14.25-6.36-21.82-8.22-12.34-2.92-24.55-2.26-37.04-1.39-1.29,.15-2.6,.12-3.88-.07-1.3-.2-2.46-.92-3.24-1.98" fill="none" stroke="#991c21" stroke-linecap="round" stroke-linejoin="round" stroke-width="3.64"/><path id="ar" d="M264.55,101.48c.27,.25,.53,.5,.8,.75-12.78-4.78-25.27-10.21-38.93-11.95-10.73-1.37-21.64-.78-32.44-.59-.69,.09-1.39-.06-1.98-.43-3.49-2.83,8.44-4.71,9.5-4.85,4.64-.55,9.32-.74,13.99-.58,17.78,.32,35.86,5.45,49.06,17.65Z" fill="#d72028" stroke="#d72028" stroke-linecap="round" stroke-linejoin="round" stroke-width=".91"/><path id="as" d="M245.52,89.36c-14.9-5.95-31.14-7.72-46.97-5.11" fill="none" stroke="#991c21" stroke-linecap="round" stroke-linejoin="round" stroke-width="3.47"/><path id="at" d="M199.18,66.27c.59-.92,1.38-1.71,2.3-2.3,.19,.31,.33,.64,.42,.99,.24,.68,.69,1.26,1.28,1.67,.41,.28,.9,.42,1.39,.43,.18,0,1.37-.08,1.47-.43-1.38,4.86-4.26,12.37-9.08,14.8-1.74-3.6-.59-11.03,2.22-15.16Z" fill="#ffce07"/><path id="au" d="M197.35,72.38c-.06,.21-.07,.43-.03,.65,.05,.22,.25,.38,.47,.38,.27-.03,.41-.33,.49-.59l1.25-3.83c.38-1.16,.75-3.03,1.55-3.97-1.83,2.1-3.5,4.46-3.74,7.36Z" fill="#fff2d1"/><path d="M235.39,161.48c-6.02,0-30.8,.59-37.18,.49-5.94-.09-11.66-.83-16.68-4.41-6.49-4.64-9.47-12.65-12.34-20.1-1.98-5.13-4.37-9.91-8.35-13.78-7.23-7.02-17.9-3.96-26.72-5.74-1.74-.35-3.25-.84-4.88-1.07-.73-.1-1.48-.15-2.29-.11-2.02,.1-6.24,8.74-4.65,10.35,1.01,1.02,2.5,1.38,3.9,1.7,3.75,.84,7.43,1.73,11.28,1.95,3.22,.19,6.81,.36,9.91,1.37,2.88,.93,5.14,2.66,6,5.59,.77,2.61,1.64,5.33,2.61,7.9,.77,2.04,3.88,10.67,5.07,12.82,5.01,9.12,15.32,14.26,25.59,15.96s20.76,.51,31.15,0c20.89-1.02,42.88,1.38,60.53,12.59l19.25,12.21c.75,.48,1.57,.96,2.41,1.35v-16.16c-4.14-3.95-9.06-7.15-14.14-9.86-15.47-8.26-32.94-12.77-50.48-13.03Z" fill="#fbf6b3"/><g id="av"><path id="aw" d="M17.83,115.92c.06,.26,0,.52-.15,.74-.14,.23-.35,.39-.61,.46-.32,.04-.64-.1-.82-.37-.14-.16-.57-.72-1.3-1.68-1.19,.61-2.33,1.31-3.43,2.07-.03,.19-.1,.37-.22,.52-.11,.15-.27,.26-.45,.3-.16,.04-.34,.01-.48-.08-.15-.08-.25-.22-.29-.39-.02-.11-.02-.23,.01-.34l.4-1.77c.13-.59,.23-1.19,.29-1.79l.47-3.71c-.11-.12-.19-.27-.25-.42-.04-.17,.02-.36,.16-.47,.12-.13,.28-.21,.45-.25,.38-.07,.77,.1,.99,.42,.15,.21,.37,.53,.66,.96,1.27,1.75,2.45,3.25,3.54,4.5l.88,1.02c.08,.08,.13,.18,.15,.29Zm-3.47-1.65c-.71-.97-1.4-1.94-2.07-2.91-.1,.94-.26,2.36-.5,4.25,.81-.53,1.67-.99,2.57-1.35Z"/><path id="ax" d="M25.3,115.3c-.33,.11-.69,.05-.96-.16-1.61-.5-3.31-1.89-5.11-4.16,.43,1.56,.73,2.71,.88,3.47,.07,.28,.1,.56,.08,.85-.05,.29-.28,.51-.57,.55-.21,.05-.43,.03-.62-.05-.21-.06-.36-.24-.4-.45-.02-.08-.04-.25-.07-.51l-.06-.51c-.05-.42-.18-1.09-.37-2.03-.19-.91-.34-1.6-.47-2.05-.02-.08-.07-.25-.16-.51-.06-.21-.11-.38-.14-.51-.05-.21,.02-.42,.18-.57,.15-.15,.34-.25,.54-.29,.16-.03,.32,.06,.48,.27,.09,.11,.36,.38,.8,.81,.97,.96,1.67,1.62,2.11,1.98,.72,.64,1.54,1.14,2.43,1.49-.1-.57-.2-1.13-.32-1.69,.05,.23,0,.09-.13-.42-.12-.44-.22-.82-.3-1.14-.13-.51-.27-1.16-.43-1.93v-.05c-.05-.2,0-.4,.12-.56,.12-.16,.29-.27,.49-.32,.27-.06,.54,.1,.62,.36l2.07,6.9c.14,.68-.09,1.08-.69,1.21Z"/><path id="ay" d="M32.99,106.24c-.12,.02-.29,.04-.53,.06s-.41,.04-.53,.06c-.55,.09-1.1,.23-1.62,.42,.64,2.63,1.03,4.43,1.19,5.39,.07,.32,.09,.65,.08,.98-.01,.34-.28,.61-.61,.65-.21,.04-.43,0-.61-.1-.19-.08-.33-.25-.37-.46v-.04c-.12-.72-.21-1.33-.27-1.82-.03-.26-.07-.63-.12-1.1l-.03-.39c-.14-.86-.31-1.72-.49-2.58-.8,.37-1.57,.79-2.32,1.25-.09,.06-.19,.11-.29,.14-.1,.02-.2-.04-.29-.18-.07-.11-.12-.23-.14-.35-.05-.24,.02-.49,.2-.65,.07-.07,.36-.27,.86-.61,1.34-1.01,2.86-1.75,4.48-2.18,.26-.05,.52-.07,.79-.07,.25,.02,.5,.12,.68,.3,.19,.18,.31,.41,.35,.66,.06,.36-.07,.57-.39,.62Z"/><path id="b`" d="M36.33,112.9c-.22,.03-.44-.02-.64-.13-.19-.1-.32-.29-.34-.5,0-.06-.04-.42-.08-1.07-.08-1.03-.14-1.78-.2-2.24l-.02-.13c-.08-.65-.2-1.38-.35-2.19l-.19-1.03c-.03-.2,.04-.4,.19-.54,.14-.14,.32-.24,.52-.26,.28-.04,.49,.13,.62,.49l.18,.91c.05,.28,.16,.89,.33,1.81l.15,.78c.22,1.22,.36,2.06,.42,2.5,.05,.33,.07,.66,.05,.99-.03,.34-.3,.6-.64,.62Z"/><path id="ba" d="M43.21,106.72c1.97-.05,2.99,.33,3.05,1.14,.06,.7-.51,1.53-1.71,2.49-.7,.57-1.45,1.07-2.24,1.5-.78,.46-1.64,.75-2.54,.87-.76,.06-1.17-.2-1.22-.78-.03-.37-.05-.93-.07-1.66-.02-.74-.04-1.28-.07-1.65-.07-.86-.17-1.72-.31-2.6-.5-.33-.75-.58-.77-.77s.34-.39,1.06-.64c1-.38,2.03-.64,3.09-.77,1.29-.1,1.97,.3,2.04,1.2,.01,.57-.1,1.14-.32,1.67Zm-1.01-1.19c-.02-.31-.34-.43-.94-.39-.64,.08-1.27,.22-1.87,.44l.34,2.12c.23-.1,.43-.19,.6-.28,.41-.22,.8-.49,1.15-.81,.51-.44,.75-.81,.72-1.09Zm2.27,2.81c-.02-.24-.21-.4-.58-.48-.27-.06-.56-.07-.84-.04-1.12,.21-2.19,.67-3.11,1.34,.01,.07,.07,.61,.18,1.64,.89-.12,1.76-.36,2.59-.7,1.22-.5,1.81-1.09,1.75-1.75Z"/><path id="bb" d="M51.16,112.13c-1.04,.01-2.03-.45-2.7-1.25-.7-.77-1.09-1.77-1.08-2.81-.02-1.22,.48-2.39,1.37-3.22,.87-.85,2.05-1.32,3.27-1.31,1.1-.05,2.16,.4,2.89,1.23,.72,.83,1.11,1.9,1.07,3.01-.05,1.42-.85,2.71-2.11,3.38-.79,.58-1.73,.92-2.71,.97Zm.9-6.82c-.95,.02-1.87,.38-2.58,1.01-.51,.39-.8,1-.78,1.64,.02,.57,.3,1.11,.76,1.45,.43,.39,.98,.61,1.56,.61,.48-.02,.95-.13,1.4-.31,.45-.15,.88-.38,1.25-.68,.24-.2,.46-.41,.68-.63,.21-.22,.33-.51,.35-.82,.04-.67-.25-1.31-.78-1.73-.54-.4-1.19-.59-1.86-.56h0Z"/><path id="bc" d="M64.85,105.71c-.09,1.03-.88,2.23-2.38,3.6-1.1,1-2.3,1.88-3.58,2.65-.09,.13-.24,.21-.39,.23h0c-.08,.02-.15,.03-.23,.02-.21-.02-.41-.1-.57-.23-.18-.11-.28-.31-.27-.52v-.03c0-.11,.08-.64,.22-1.62,.08-.6,.15-1.14,.19-1.61,.07-.82,.11-1.65,.13-2.5-.21-.03-.41-.12-.56-.27-.16-.13-.24-.33-.22-.54,.01-.17,.14-.31,.37-.42,.31-.1,.63-.17,.95-.23,1.3-.34,2.64-.49,3.98-.45,.58,.03,1.14,.19,1.64,.48,.52,.29,.81,.86,.74,1.44Zm-2.63-.42c-.98-.03-1.95,.04-2.91,.23,0,1.48-.03,2.83-.08,4.03,.85-.45,1.67-.95,2.47-1.5,1.17-.81,1.77-1.45,1.81-1.93,.02-.27-.13-.47-.46-.62-.26-.11-.54-.18-.83-.2Z"/><path id="bd" d="M66.06,112.89c-.22-.03-.43-.13-.58-.29-.16-.15-.23-.36-.2-.57,0-.06,.07-.41,.2-1.05,.19-1.02,.32-1.75,.39-2.22l.02-.13c.09-.65,.17-1.38,.24-2.21l.08-1.05c.02-.2,.14-.38,.33-.47,.17-.1,.37-.14,.57-.11,.28,.04,.44,.25,.47,.63l-.07,.92c-.03,.29-.08,.9-.15,1.84l-.06,.79c-.1,1.24-.19,2.08-.25,2.52-.03,.33-.1,.66-.21,.97-.11,.32-.45,.51-.78,.44Z"/><path id="be" d="M75.24,112.43c-.03,.37-.27,.68-.62,.8-.8,.17-1.63,.25-2.45,.25-.84,.02-1.68,0-2.52-.08-.16,.09-.35,.11-.53,.07-.21-.04-.4-.13-.55-.28-.16-.14-.23-.35-.19-.56v-.05c.09-.44,.24-1.09,.46-1.95,.21-.86,.31-1.23,.29-1.12,.16-.85,.3-1.76,.43-2.72-.09,.02-.18,.02-.27,.01-.26-.05-.36-.22-.31-.52,.09-.47,.5-.74,1.22-.8,1.55-.14,3.11-.08,4.65,.2,.22,.03,.42,.17,.53,.36,.11,.21,.14,.45,.09,.67-.06,.32-.2,.46-.43,.42-.06-.02-.12-.04-.18-.06-.45-.13-.9-.23-1.36-.31-.85-.16-1.72-.19-2.58-.12-.05,.43-.12,1.06-.23,1.91,.89,.2,1.81,.16,2.68-.11,.09-.05,.2-.08,.3-.08,.18,.05,.32,.19,.36,.37,.07,.18,.09,.37,.05,.56-.02,.21-.17,.38-.38,.43-1.05,.17-2.12,.19-3.17,.09-.06,.42-.16,1.04-.28,1.87,.73,.15,1.46,.25,2.2,.31,.73,.06,1.46-.06,2.14-.34,.1-.07,.22-.1,.34-.1,.15,.03,.25,.15,.3,.36,.04,.17,.04,.34,.01,.51Z"/><path id="bf" d="M83.49,113.82c-.27,.92-1.03,1.61-1.96,1.81-.91,.3-1.88,.32-2.81,.07-.88-.23-1.69-.69-2.33-1.33-.28-.27-.39-.53-.32-.75,.05-.2,.19-.38,.37-.48,.18-.11,.39-.14,.59-.09,.15,.05,.29,.12,.42,.21,.64,.48,1.36,.85,2.12,1.1,.44,.12,.9,.16,1.35,.13,.62-.05,.98-.24,1.07-.59s-.15-.82-.73-1.38c-.58-.53-1.25-.95-1.97-1.25-.17-.07-.91-.36-2.21-.86-.31-.09-.49-.41-.4-.72,0-.02,.01-.04,.02-.07,.17-.53,.49-1.01,.93-1.36,.42-.38,.9-.69,1.42-.91,.24-.11,.48-.21,.74-.28,.25-.07,.52-.07,.78,0,.44,.1,.85,.32,1.18,.63,.3,.34,.52,.74,.64,1.18,.09,.19,.12,.41,.09,.62-.04,.13-.13,.24-.25,.3-.11,.07-.24,.09-.37,.07-.2-.07-.36-.22-.45-.41-.38-.43-.84-.79-1.34-1.07-.33-.05-.66,.04-.92,.24-.3,.15-.53,.41-.65,.72-.06,.14,0,.3,.13,.37,.11,.05,.22,.1,.34,.13,.99,.27,1.94,.66,2.82,1.18,1.39,.89,1.96,1.83,1.7,2.81Z"/></g><rect width="300" height="300" rx="3" ry="3" fill="none"/><rect x="1" y="1" width="298" height="298" rx="2" ry="2" fill="none" stroke="#000" stroke-linejoin="round" stroke-width="2"/><path id="bg" d="M128.53,114.69l-1.86-.74c-.28-.11-.58-.17-.88-.19-.15-1.45-1.06-2.71-2.4-3.29l-1.12-.44c-1.89-.68-3.98,.3-4.66,2.19-.03,.09-.06,.19-.09,.28l-3.57,11c-.71,2.06,.26,4.33,2.24,5.24l1.12,.44c1.31,.5,2.79,.16,3.75-.85,.24,.2,.51,.35,.79,.47l1.86,.74c1.69,.61,3.56-.27,4.17-1.96,.03-.08,.06-.17,.08-.25l2.58-7.96c.64-1.85-.23-3.88-2.01-4.69Z" fill="#7c8186"/><g id="bh"><path id="bi" d="M178.48,161.78c-.52,.4-1.62,1.1-3.3,2.09l-1.9,1.12c-.17,.11-.5,.3-1,.59-.38,.23-.87,.12-1.12-.25-.33-.52-.32-1.18,.02-1.69,.37-.66,.81-1.28,1.29-1.86,.43-.48,.79-1.01,1.07-1.59,.05-.16,.06-.27,0-.33s-.17-.1-.36-.1c-.73,.04-1.46,.19-2.15,.44-.72,.25-1.45,.46-2.19,.63-.28,.07-.58-.03-.77-.26-.35-.45-.38-.81-.08-1.06,.12-.1,.37-.3,.73-.6,1.09-.91,2.12-1.89,3.08-2.93,.02-.02,.14-.17,.36-.43,.12-.14,.25-.27,.4-.38,.16-.12,.36-.15,.54-.09,.2,.05,.37,.16,.5,.32,.15,.19,.11,.44-.1,.74-.17,.22-.36,.44-.56,.63-.13,.13-.37,.39-.72,.75l-1.34,1.44c.28-.04,.76-.11,1.46-.18,.53-.08,1.04-.2,1.56-.34,.48-.11,.8-.06,.97,.16,.21,.39,.21,.85,.02,1.25-.16,.47-.55,1.45-1.17,2.94,1.19-.57,2.08-1.03,2.69-1.37l1.26-.72c.27-.19,.65-.13,.84,.14,.01,.02,.02,.04,.04,.06,.22,.21,.23,.57,.01,.79-.04,.04-.07,.07-.12,.09Z"/><path id="bj" d="M180.89,171.49c-.18-.09-.34-.24-.43-.42-.13-.16-.16-.38-.07-.57l.04-.07s.31-.55,.87-1.58l-.11-.05c-.51-.24-1.06-.41-1.62-.51-.27-.05-.83-.12-1.68-.22l-.11,.24c-.05,.09-.08,.17-.11,.23s-.02,.06,0,.02c-.1,.24-.25,.46-.45,.63-.22,.15-.5,.16-.73,.02-.19-.09-.35-.23-.45-.42-.12-.17-.13-.39-.04-.57l.03-.04,1.53-2.91c.13-.25,.44-.94,.93-2.09l.43-1c.08-.18,.24-.31,.43-.35,.19-.05,.4-.03,.58,.05,.27,.13,.35,.42,.24,.85,0,.03-.14,.34-.38,.94l-1.39,3.31c1.15,.24,2.27,.57,3.37,1l.3-.62c.06-.13,.48-1.1,1.25-2.91v-.04c.09-.18,.26-.3,.46-.31,.19-.04,.38-.02,.56,.07,.25,.09,.38,.36,.29,.62h0c-.02,.07-.14,.4-.38,1-.16,.41-.49,1.21-.98,2.39-.44,1.08-.78,1.86-1,2.33-.13,.3-.29,.58-.49,.84-.21,.27-.58,.34-.87,.16Z"/><path id="bk" d="M185.37,172.3c-.22-.04-.42-.15-.57-.31-.15-.15-.22-.37-.18-.58,.01-.06,.09-.41,.24-1.04,.23-1.01,.39-1.74,.47-2.2l.02-.13c.11-.64,.22-1.38,.31-2.2l.12-1.04c.03-.2,.16-.38,.34-.46,.18-.1,.38-.13,.57-.09,.28,.05,.43,.27,.45,.65l-.1,.92c-.04,.28-.11,.89-.22,1.83l-.09,.79c-.15,1.23-.26,2.07-.34,2.51-.04,.33-.13,.65-.24,.96-.13,.31-.47,.49-.79,.41Z"/><path id="bl" d="M195.34,166.02c-.12,0-.3-.02-.53-.04s-.41-.04-.53-.04c-.56-.02-1.12,.01-1.68,.09,.11,2.7,.15,4.54,.12,5.52,0,.33-.04,.66-.11,.98-.08,.33-.39,.55-.73,.51-.21,0-.42-.08-.58-.22-.18-.11-.28-.31-.27-.52v-.04c.02-.73,.05-1.35,.09-1.84,.02-.26,.05-.63,.1-1.11l.04-.39c.03-.87,.04-1.75,.02-2.63-.85,.21-1.7,.47-2.52,.77-.1,.05-.2,.07-.31,.08-.11,0-.19-.08-.25-.23-.05-.12-.07-.24-.07-.37,0-.24,.11-.47,.32-.6,.08-.05,.4-.19,.97-.43,1.51-.73,3.14-1.16,4.82-1.27,.27,0,.53,.03,.79,.09,.25,.07,.46,.22,.6,.43,.15,.21,.23,.46,.22,.72,0,.37-.17,.55-.49,.53Z"/><path id="bm" d="M203.61,170.65c.06,.36-.11,.73-.43,.92-.75,.35-1.53,.61-2.33,.79-.81,.21-1.64,.37-2.47,.48-.14,.12-.32,.19-.5,.19-.21,0-.42-.04-.59-.15-.19-.1-.3-.29-.31-.5v-.05c-.02-.45-.02-1.11,0-2,.02-.88,.03-1.27,.03-1.16-.03-.87-.1-1.78-.19-2.75-.08,.04-.17,.06-.26,.07-.27,.01-.41-.14-.42-.43-.02-.48,.32-.83,1.01-1.05,1.48-.49,3.02-.78,4.57-.85,.22-.02,.44,.07,.59,.23,.15,.18,.24,.4,.24,.64,.01,.33-.09,.49-.32,.5-.02,0-.08,0-.19-.02-.46-.03-.93-.03-1.39,0-.87,.04-1.72,.2-2.54,.47,.05,.42,.12,1.06,.2,1.91,.91,0,1.8-.25,2.58-.71,.08-.07,.17-.12,.27-.14,.19,0,.35,.12,.43,.28,.11,.16,.17,.34,.18,.53,.02,.21-.09,.41-.27,.5-.98,.4-2.02,.67-3.07,.8,.03,.43,.08,1.05,.14,1.89,.74-.02,1.48-.08,2.21-.19,.72-.11,1.41-.39,2.01-.82,.09-.09,.2-.15,.31-.17,.15,0,.28,.09,.37,.29,.08,.16,.12,.33,.13,.5Z"/><path id="bn" d="M214.05,167.08c1.97,.09,2.96,.54,2.97,1.35,0,.7-.62,1.49-1.88,2.37-.73,.52-1.52,.97-2.33,1.35-.81,.4-1.69,.64-2.59,.69-.77,.01-1.15-.28-1.16-.86,0-.37,0-.93,.04-1.66s.05-1.28,.04-1.65c-.01-.86-.06-1.73-.13-2.62-.47-.36-.71-.64-.71-.82s.37-.37,1.1-.56c1.02-.31,2.07-.5,3.13-.56,1.29-.02,1.95,.43,1.96,1.34-.03,.57-.18,1.13-.44,1.64Zm-.93-1.26c0-.31-.31-.46-.92-.45-.64,.03-1.28,.14-1.9,.31l.2,2.14c.24-.08,.44-.16,.62-.24,.43-.19,.83-.44,1.2-.73,.54-.41,.8-.75,.8-1.04Zm2.07,2.96c0-.24-.19-.41-.55-.52-.27-.07-.55-.11-.83-.1-1.14,.13-2.23,.52-3.2,1.12,0,.07,.03,.62,.07,1.65,.9-.06,1.78-.24,2.63-.52,1.26-.42,1.88-.96,1.87-1.62h0Z"/><path id="bo" d="M224.51,171.01c0,.26-.13,.39-.4,.39-.11,0-.28,0-.5,0s-.38,0-.5,0c-.55,0-1.11,.07-1.65,.2l-1.25,.31c-.09,.02-.41,.14-.97,.36-.29,.13-.59,.22-.9,.26-.61,0-.91-.19-.92-.6v-.08c-.01-.91,0-1.8,.03-2.65l.03-1.18c-.01-.83-.04-1.56-.07-2.17,0-.02-.02-.23-.06-.62-.02-.25-.04-.46-.04-.62,0-.21,.08-.41,.23-.55,.15-.15,.35-.23,.56-.23,.27-.01,.51,.2,.53,.47,.11,.56,.25,1.69,.4,3.38l.26,2.97c1.1-.41,2.26-.63,3.43-.65,.39-.03,.79,.01,1.17,.11,.39,.12,.64,.49,.61,.9Z"/><path id="bp" d="M228.62,172.61c-1.04,0-2.03-.46-2.69-1.27-.69-.77-1.07-1.78-1.06-2.81-.01-1.22,.49-2.38,1.39-3.21,.88-.85,2.06-1.31,3.27-1.29,1.1-.04,2.16,.42,2.89,1.25,.72,.84,1.09,1.91,1.05,3.01-.06,1.42-.87,2.7-2.13,3.36-.8,.57-1.74,.91-2.72,.95Zm.95-6.82c-.95,.01-1.87,.36-2.59,.99-.51,.39-.81,1-.79,1.64,.01,.58,.29,1.11,.75,1.45,.42,.39,.98,.62,1.55,.62,.48-.02,.95-.12,1.4-.3,.45-.15,.88-.37,1.25-.67,.24-.2,.46-.41,.68-.63,.21-.22,.34-.51,.35-.82,.04-.67-.24-1.31-.76-1.73-.53-.4-1.19-.59-1.85-.56h0Z"/><path id="bq" d="M238.22,172.84c-1.04-.05-2-.56-2.62-1.4-.65-.81-.98-1.83-.92-2.86,.05-1.22,.61-2.35,1.55-3.13,.92-.8,2.12-1.2,3.33-1.12,1.1,.02,2.14,.53,2.82,1.39,.68,.87,1,1.97,.9,3.06-.13,1.42-1.01,2.66-2.3,3.25-.83,.53-1.79,.81-2.77,.81Zm1.29-6.76c-.95-.03-1.89,.27-2.64,.86-.53,.36-.86,.95-.88,1.59-.02,.58,.23,1.13,.68,1.49,.4,.41,.95,.66,1.52,.7,.48,0,.96-.07,1.42-.22,.46-.12,.9-.33,1.29-.6,.25-.19,.49-.38,.71-.59,.22-.21,.36-.49,.39-.8,.07-.66-.18-1.32-.68-1.77-.51-.43-1.16-.66-1.82-.66Z"/><path id="br" d="M252.23,167.06c-.13,1.02-.98,2.19-2.53,3.5-1.15,.95-2.38,1.78-3.69,2.49-.1,.12-.24,.2-.4,.21h0c-.08,.02-.16,.02-.23,.01-.21-.03-.41-.11-.56-.25-.18-.12-.27-.32-.24-.53v-.03c.01-.11,.11-.64,.29-1.61,.11-.6,.2-1.13,.26-1.6,.1-.81,.18-1.64,.24-2.49-.21-.03-.41-.14-.55-.29-.15-.14-.23-.34-.2-.55,.02-.17,.15-.3,.39-.4,.32-.08,.64-.15,.96-.19,1.31-.28,2.66-.37,3.99-.27,.57,.05,1.13,.24,1.61,.55,.5,.31,.77,.88,.67,1.46Zm-2.61-.54c-.97-.07-1.95-.04-2.92,.1-.07,1.48-.16,2.82-.25,4.02,.87-.41,1.71-.88,2.53-1.39,1.2-.76,1.83-1.38,1.89-1.85,.03-.26-.11-.48-.43-.64-.26-.13-.53-.21-.82-.24Z"/><path id="bs" d="M264.2,175.03c-.09,.32-.55,.62-1.38,.9-.99,.38-2.07,.44-3.1,.19-1.04-.27-1.91-.98-2.37-1.96-1.03-2.16-.11-4.74,2.05-5.77,.2-.09,.4-.17,.61-.23,.78-.25,1.59-.36,2.41-.32,.16,0,.33,.01,.49,.03,.4,.14,.75,.38,1.03,.69,.32,.28,.56,.63,.7,1.03,.01,.04,.03,.14,.07,.29,.04,.14,.06,.29,.06,.43-.05,.12-.14,.21-.26,.26-.11,.07-.24,.09-.37,.06-.12-.04-.21-.14-.24-.26-.48-.45-1.05-.78-1.68-.96-.81-.24-1.67-.13-2.4,.28-.74,.39-1.29,1.07-1.51,1.88-.2,.55-.11,1.17,.23,1.64,.36,.46,.86,.77,1.43,.9,1.06,.28,2.18,.31,3.25,.07,.19-.05,.39-.06,.59-.03,.16,.05,.29,.18,.34,.35,.07,.17,.09,.35,.04,.53Z"/><path id="bt" d="M271.32,177.74c-.09,.36-.39,.62-.75,.68-.82,.03-1.65-.04-2.45-.19-.83-.13-1.66-.3-2.47-.52-.18,.06-.37,.05-.54-.02-.2-.07-.37-.2-.49-.37-.13-.16-.17-.39-.09-.58l.02-.05c.16-.42,.42-1.03,.78-1.84,.36-.81,.52-1.16,.48-1.05,.31-.81,.61-1.68,.9-2.6-.09,0-.18,0-.26-.04-.25-.09-.32-.28-.21-.56,.17-.45,.62-.64,1.34-.57,1.55,.13,3.08,.47,4.54,1.01,.21,.07,.38,.24,.46,.45,.07,.22,.06,.46-.03,.68-.12,.3-.28,.42-.49,.34-.02,0-.07-.04-.17-.09-.42-.21-.84-.39-1.28-.54-.81-.3-1.66-.49-2.52-.57-.12,.41-.31,1.02-.56,1.84,.84,.35,1.75,.48,2.66,.36,.1-.03,.21-.04,.31-.02,.17,.08,.28,.24,.28,.43,.04,.19,.02,.38-.04,.56-.06,.2-.24,.34-.45,.35-1.06-.02-2.12-.18-3.14-.47-.13,.41-.34,1-.61,1.79,.69,.28,1.39,.51,2.11,.69,.71,.18,1.45,.2,2.17,.04,.11-.05,.24-.06,.36-.04,.16,.07,.25,.24,.23,.41,.01,.17-.02,.34-.08,.5Z"/><path id="bu" d="M277.7,181.44c-.06,.18-.26,.28-.45,.22-.03-.01-.06-.03-.09-.04-.1-.05-.25-.12-.44-.22s-.34-.17-.44-.22c-.5-.24-1.03-.42-1.57-.54l-1.26-.26c-.09-.02-.43-.05-1.03-.09-.31-.01-.62-.06-.92-.15-.55-.26-.74-.57-.57-.94l.03-.07c.38-.83,.78-1.62,1.18-2.38l.54-1.05c.35-.76,.64-1.42,.88-1.99,0-.02,.08-.21,.21-.58,.09-.24,.17-.43,.24-.57,.08-.19,.25-.33,.45-.39,.2-.07,.41-.06,.6,.03,.25,.11,.37,.4,.27,.65-.14,.56-.51,1.63-1.11,3.22l-1.06,2.79c1.17,.11,2.31,.42,3.37,.91,.37,.15,.71,.35,1.01,.61,.3,.28,.36,.72,.16,1.07Z"/><path id="bv" d="M283.74,184.77c-.08,.18-.28,.26-.46,.19-.03-.01-.06-.03-.08-.05-.1-.05-.24-.14-.43-.25s-.33-.2-.43-.25c-.48-.27-1-.49-1.53-.64l-1.24-.35c-.08-.02-.43-.08-1.02-.16-.31-.03-.62-.1-.91-.21-.53-.29-.7-.61-.5-.97l.04-.07c.44-.8,.88-1.56,1.34-2.29l.61-1.01c.4-.73,.74-1.37,1.01-1.92,0-.02,.09-.21,.25-.57,.1-.23,.19-.42,.27-.56,.1-.18,.27-.32,.47-.36,.2-.06,.42-.03,.6,.07,.24,.13,.34,.42,.22,.67-.18,.55-.62,1.59-1.32,3.14l-1.25,2.71c1.16,.19,2.27,.57,3.3,1.13,.36,.17,.68,.4,.96,.68,.28,.3,.31,.74,.08,1.08Z"/><path id="bw" d="M291.15,187.83c-.54,.79-1.47,1.22-2.42,1.13-.96,0-1.9-.26-2.7-.78-.77-.49-1.4-1.17-1.82-1.98-.17-.24-.21-.55-.08-.81,.11-.18,.29-.3,.5-.34,.2-.05,.41-.02,.59,.09,.13,.09,.24,.2,.34,.32,.47,.65,1.03,1.22,1.68,1.69,.38,.25,.81,.42,1.25,.53,.61,.14,1.01,.06,1.2-.24,.2-.31,.11-.82-.27-1.53-.39-.68-.9-1.28-1.5-1.79-.14-.12-.76-.62-1.85-1.49-.27-.18-.34-.54-.16-.81,.01-.02,.03-.04,.04-.06,.33-.46,.78-.81,1.3-1.02,.52-.23,1.06-.38,1.63-.44,.26-.04,.52-.05,.79-.04,.26,.02,.52,.1,.74,.24,.39,.23,.71,.56,.93,.96,.18,.42,.27,.87,.26,1.32,.02,.21-.01,.42-.1,.62-.08,.11-.19,.19-.32,.21-.13,.03-.26,.02-.37-.05-.17-.13-.27-.32-.3-.53-.24-.52-.56-1-.95-1.42-.29-.15-.64-.17-.95-.05-.33,.05-.62,.23-.83,.49-.1,.11-.09,.28,.01,.39,.09,.08,.18,.16,.28,.23,.86,.55,1.65,1.22,2.33,1.98,1.06,1.28,1.32,2.34,.77,3.19Z"/></g><g id="bx"><circle id="by" cx="164.46" cy="144.83" r="9.43" fill="#7c8186"/><g id="c`"><path id="ca" d="M211.7,138.83l-38.7,17.69c-2.79,1.28-6.09,.05-7.37-2.75-.14-.31-.26-.64-.34-.98l-3.78-15.31c-.74-2.98,1.08-5.99,4.06-6.73,.34-.08,.68-.13,1.02-.15l42.48-2.37c3.06-.17,5.69,2.17,5.86,5.23,.13,2.29-1.16,4.42-3.24,5.37Z" fill="#d72028" stroke="#d72028" stroke-miterlimit="10" stroke-width=".91"/><g id="cb"><path id="cc" d="M166.55,130.6c-.59,.03-1.17,.16-1.73,.38l6.43,26.01c.59-.06,1.16-.22,1.7-.47l4.34-1.98-5.98-24.2-4.76,.26Z" fill="#ffce07" stroke="#d72028" stroke-miterlimit="10" stroke-width=".91"/><path id="cd" d="M180.59,153.04l5.97-2.73-5.07-20.53-6.55,.37,5.66,22.9Z" fill="#ffce07" stroke="#d72028" stroke-miterlimit="10" stroke-width=".91"/></g></g></g></g></g></svg>