<?xml version="1.0" encoding="UTF-8"?>
<svg id="b" data-name="Layer 2" xmlns="http://www.w3.org/2000/svg" viewBox="0 0 300.31 300">
  <g id="c" data-name="Layer 1">
    <rect id="d" data-name="Rectangle 137-3" x=".31" width="300" height="300" rx="3" ry="3" fill="#bed7ea"/>
    <path d="m3.31,300h294c1.66,0,3-1.34,3-3v-93.91c-8.83.84-17.68,1.73-26.54,2.66-21.45,2.26-43.5,2.39-65.12,4.04-25.61,1.96-51.13-2.18-76.62-4.18-33.48-2.64-67.2-5.33-100.78-2.6-9.81.79-19.51,2.53-28.98,5.22-.61.17-1.27.36-1.96.57v88.2c0,1.66,1.34,3,3,3Z" fill="#68be63"/>
    <path d="m3.71,299.6c-1.33,0-2.4-1.07-2.4-2.4h0V4.4c0-1.33,1.07-2.4,2.4-2.4h292.8c1.33,0,2.4,1.07,2.4,2.4h0v292.8c0,1.33-1.07,2.4-2.4,2.4H3.71Z" fill="none"/>
    <g>
      <path d="m299.47,168.69c-5.63,2.78-9.84,7.57-15.61,10.32-8.37,3.99-16.97,5.67-26.14,6.41-8.12.65-16.45,1.81-24.34,1.39-11.36-.61-21.14,4.2-31.7,6.01-6.1,1.04-12.04,3.05-18.29,3.92-7.78,1.08-15.34-.59-22.65-1.78-16.86-2.73-33.61-6.34-50.34-9.91-10.05-2.15-20.52-3.22-30.79-3.15-8.67.06-17.36,2.34-26.14,1.68-14.21-1.06-28.09-3.37-40.1-11.95-4.59-3.28-7.4-8.59-12.78-10.92-.93-1.92-.54-3.91-.3-5.88,2.39-.8,3.27,1.15,4.26,2.53,9.35,13.01,22.63,18.8,37.99,20.93,10.9,1.51,21.76.51,32.67.16,20.3-.64,40.16,3.35,59.91,7.6,10.19,2.19,20.29,5.14,30.67,5.9,9.48.69,19.15,1.63,28.56-1.18,1.55-.41,3.15-.63,4.69-1.12,12.3-4.07,24.76-6.64,37.88-6.53,7.85.07,15.84-.01,23.63-1.52,9.72-1.87,19.54-3.5,27.81-9.68,2.53-1.89,4.9-3.89,6.94-6.31,1.11-1.32,1.86-3.28,4.19-2.91,0,1.99,0,3.99,0,5.98Z" fill="#bbd5e8"/>
      <path d="m299.47,162.71c-11.67,16.57-29.7,19.6-47.77,21.33-10.83,1.03-21.86.57-32.77,1.57-4.65.43-8.95,2.15-13.33,3.58-2.19.71-4.33,1.7-6.73,1.4-.31-2.84,2.33-2.89,3.8-4.06,3.23-1.74,6.77-2.44,10.32-3.14,11.84-2.29,23.92-1.47,35.87-2.43,6.91-.55,13.61-1.7,20.37-2.81.45-.17.93-.29,1.4-.39,2.93-.48,5.81-1.16,8.36-2.79,1.31-.83,2.65-1.61,4.11-2.14,1.83-.53,3.52-1.31,4.74-2.88.45-.47.97-.85,1.54-1.16,2.06-.89,3.53-2.34,4.27-4.48.53-1.26,1.17-2.44,2.2-3.38,1.3-.75,1.85-2.84,3.93-2.22.28.69.31,1.35-.18,1.98-.04.67-.09,1.35-.13,2.02Z" fill="#b6cfe1"/>
      <path d="m271.63,80.04c4.65.01,6.97,3.96,10.26,6.2,6.76,4.59,11.35,11.07,15.54,18.01,1.16,1.92-1.42,4.9,2.04,5.68,0,2.65,0,5.3,0,7.94-3.39-1.75-3.62-5.57-4.97-8.43-4.19-8.89-10.04-16.17-18.08-21.75-2.27-2.12-4.93-4.01-4.79-7.65Z" fill="#bbd5e8"/>
      <path d="m299.62,120.86c-.05.66-.1,1.32-.16,1.98-2.85-.4-2.82-3.18-3.32-4.86-3.03-10.12-9.28-18.06-16.34-25.55-1.34-1.42-3.03-2.61-3.42-4.73.07-.23.15-.46.23-.69,7.81,3.72,12.68,10.31,16.7,17.56,2.36,4.26,4.13,8.85,6.16,13.29.05,1,.1,2,.15,3Z" fill="#b7d0e2"/>
      <path d="m8.52,81.03c5.44-11.08,15.25-16.19,26.62-18.37,4.71-.9,9.52-1.88,14.49-2.18,4.9-.3,8.24,2.9,12.92,2.67,5.6-.28,11.15,2.56,16.99,1.97,1.41-.14,2.46.76,3.68,1.19,3.12,1.09,6.41,1.86,9.31-.6,2.91-2.48,6.27-.14,9.62-1.06,5.06-1.39,10.31-2.3,15.32-4.1,9.63-3.45,19.54-5.9,29.43-8.43,9.27-2.38,18.85-2.79,28.11-2.41,5.17.21,11.05,1.07,16.37,3.05,6.49,2.41,13.19,4.27,19.83,6.3,1.2.37,2.11.9,2.62,2.05-.83.88-1.9,1.12-3.05,1.11-9.03-2.72-17.88-6.1-27.37-7.13-15.68-1.7-31.08-.55-46.18,4.07-9.31,2.64-18.66,5.15-27.9,8.02-3.19.99-6.48,1.06-9.64,1.97-10.46.95-20.85.33-31.08-1.93-10.09-2.23-20.18-3.16-30.43-1.62-.49.17-1,.29-1.51.38-9.18.61-15.82,6.02-22.23,11.84-2.1.82-3.04,3.8-5.91,3.2Z" fill="#bad4e7"/>
      <path d="m8.52,81.03l4.98-3.98c1.08,1.19.81,2.44.08,3.64-5.33,8.85-8.62,18.46-10.82,28.5-.26,1.19-.25,2.79-2.19,2.7,0-4.65,0-9.29,0-13.94,2.65-5.64,5.29-11.28,7.93-16.92Z" fill="#b8d1e4"/>
      <path d="m210.84,61.11c1,0,1.99,0,2.99,0,6.32,2.97,12.29,6.68,18.94,8.96.45.88,3.13.23,1.65,2.43-2.83.94-5.59-.5-8.41-.24-5.31-2.9-11.34-4.55-15.79-8.98-.14-.82.06-1.55.62-2.18Z" fill="#b8d1e4"/>
      <path d="m234.76,72.07c-.66-.66-1.33-1.33-1.99-1.99,1.85-.34,3.78-1.45,5.33.76.33.47,1.46,1.01,1.6.88,3.91-3.8,8.2-.12,11.94.19,2.47.21,6.81.05,9.04,3.15-1.11,1.25-2.62,1.26-4.11,1.34-5.91-.34-11.65-2.11-17.62-2.12-1.67,0-3.24-.63-4.19-2.21Z" fill="#bbd5e8"/>
      <path d="m256.68,75.06c1.33,0,2.66,0,3.99,0,3.65,1.66,7.31,3.32,10.96,4.98,1.66,2.32,3.32,4.65,4.98,6.97,0,0,0,0,0,0-1.08.99-2.26.59-3.15-.11-3.75-2.93-8.14-4.77-12.15-7.22-.16-1.11-.44-1.92-1.88-2.17-1.23-.21-2.93-.43-2.75-2.45Z" fill="#b8d1e4"/>
      <path d="m.59,154.74l-.02-7.97c2.51,0,2.43,2.33,3.17,3.76,2.61,5,5.67,9.59,10.34,12.93,10.66,9.28,23.33,12.76,37.16,12.81,12.44.04,24.89-.42,37.31.13,11.53.51,23.11,1.34,34.31,4.6,2.51,2.39,5.72,2.38,8.87,2.55.46.07.91.18,1.35.32,1.46.6,3.06.6,4.58.96.43.13.84.31,1.24.51,2.38,1.7,5.26.7,7.81,1.46.46.13.89.32,1.31.53,6.85,2.34,13.89,3.48,21.13,3.32.49.04.98.13,1.46.24,4.18.68,8.35.55,12.54.07.49-.13.99-.19,1.5-.21,3.34,1.15,7.03-1.86,10.24.84-4.32,1.34-8.63,1.99-13.26,2.22-19.99,1.01-38.72-5.32-57.94-8.83-16.05-2.93-32.18-5.92-48.56-5.17-7.92.36-15.86,1.2-23.76.73-16.66-1-32.32-4.81-44.35-17.73-2.38-2.55-3.48-6.04-6.43-8.07Z" fill="#b6cfe1"/>
      <path d="m194.89,191.59c-3.65-.63-7.31,1.75-10.96,0,0-.17-.05-.45.01-.48,6.07-2.45,12.15-4.85,18.92-3.51-1,1.44-3.47.9-3.99,2.99-1.05,1.46-2.61.85-3.99,1Z" fill="#b5cee0"/>
      <path d="m.57,140.8c0-5.31,0-10.63,0-15.94,1.31-8.94,2.08-17.96,4.92-26.63,3.64-11.08,8.72-21.06,19.54-26.9,3.02-1.75,6.43-2.44,9.66-3.65,1.62-.61,3.22-.72,4.51.78.91,2.68-1.5,2.37-2.78,3.07-.42.16-.85.29-1.28.42-2.13.5-4.06,1.48-5.96,2.55-.38.23-.78.44-1.18.63-4.95,2.13-8.89,5.39-11.5,10.15-.91,2.07-1.82,4.15-3.23,5.95-.42.54-.88,1.05-1.31,1.57-1.23,1.29-1.27,3-1.67,4.6-1.78,9.77-4.06,19.43-5.63,29.24-2.98,18.59,6.54,35.03,24.47,41.63,7.19,2.65,14.58,4.25,22.35,4.1,10.45-.21,20.91.03,31.36-.07,13-.13,25.66,2.5,38.42,4.42,10.83,1.63,21.31,4.8,32.05,6.81,1.79.61,3.65.81,5.52.91.84.12,1.61.4,2.27.94.31.5.41,1.04.31,1.62-.22.55-.58.97-1.08,1.27-6.49,1.81-12.4-1.35-18.38-2.64-14.18-3.06-28.24-6.52-42.73-8.04-17.66-1.86-35.36.07-52.99-1.08-11.46-.75-22.46-3.81-31.28-11.96-8.04-5.95-12.57-14.03-14.39-23.75Z" fill="#abc0cf"/>
      <path d="m25.47,72.07c-14.34,9.49-19.77,23.8-21.97,40-.59,4.31-1.04,8.73-2.92,12.78,0-4.32,0-8.64,0-12.96,2.49-9.1,4.94-18.16,8.84-26.84,1.24-2.76,4.55-4.46,4.09-8.01,4.38-3.68,8.43-7.78,13.9-9.97,2.92-1.17,5.8-2.3,9.02-1.98-.05,2.69-2.42,2.72-4.09,3.42-2.39,1.01-5.09,1.38-6.87,3.56Z" fill="#b6cedf"/>
      <path d="m.57,140.8c.4.5,1.07.96,1.16,1.51,1.41,8.84,7.09,15.12,12.78,21.39-.66.57-1.33.57-2,0-6.01-4.21-8.79-10.7-11.94-16.93,0-1.99,0-3.98,0-5.98Z" fill="#afc6d7"/>
      <path d="m12.51,163.7c.67,0,1.33,0,2,0,12.35,9.22,26.24,12.51,41.57,12.11,12.35-.32,24.8-1.13,37.11.32,12.35,1.45,24.74,2.67,36.94,5.49,10.2,2.36,20.25,5.77,30.88,5.98.27-.05.53-.1.8-.15,7.44.67,14.88,1.38,22.34.4.49-.15.99-.25,1.49-.32,4.3-.36,8.77-.01,12.46-2.98.4-.31.83-.54,1.3-.73,1.45-.47,2.96-.44,4.45-.49,3.36.18,6.22-1.4,9.21-2.58,1.83-.45,3.64-1,5.49-1.35,6.63.33,13.13-1.41,19.75-1.16,4.37-.04,8.75.25,13.12-.18.48-.19.99-.31,1.49-.41,4.14-.44,8.38-.09,12.42-1.4.45-.12.91-.2,1.38-.25,2.28-.03,4.35-.85,6.39-1.73.41-.14.84-.22,1.26-.27,1.56-.07,2.69-1,3.8-1.95,1.19-.93,2.49-1.67,3.93-2.13,1.41-.32,2.81-.67,3.95-1.65.34-.27.7-.51,1.06-.75,4.54-2.99,7.01-7.46,8.86-12.37,1.75-1.8.19-5.43,3.5-6.37,0,2.65,0,5.3-.01,7.96-1.14,1.55-1.74,3.43-2.91,4.97l-1.99,2.99c-1.34,1.99-3,3.64-4.98,4.98-.33.33-.66.66-1,.99-1.54,1.2-3.49,1.72-4.98,2.99-1.33.66-2.66,1.33-3.99,1.99-2.89,1.3-5.96,2.04-8.97,2.99-14.47,2.97-29.09,3.81-43.86,3.67-4.59-.04-9.41.85-13.95,2.3l-9.96,2.99c-6.31,1.33-12.62,2.66-18.94,3.98h0c-4.65.79-9.3.79-13.95,0h0c-7.75-.72-15.52-1.3-22.92-3.99h0c-2.87-1.21-6.22-.24-8.97-1.99-1.48-1.22-3.49.17-4.98-1h0c-3.25-1-6.82-.44-9.97-1.99-7.25-2.94-15.03-2.97-22.62-3.94-16.13-2.07-32.36-.78-48.54-1.01-14.78-.21-28.41-3.39-39.47-13.98Z" fill="#b0c7d8"/>
      <path d="m212.83,184.61c3.86-2.67,8.62-2.66,12.74-2.7,15.12-.13,30.09-1.51,45.06-3.27-6.77,2.01-13.36,4-20.77,3.29-5.91-.56-12.06,1.71-18.02,1.34-6.49-.4-12.67,1.15-19.02,1.34Z" fill="#b5cee0"/>
      <path d="m270.63,178.64c2.73-1.76,5.76-2.66,8.97-2.99-2.56,2.27-5.64,3-8.97,2.99Z" fill="#b5cee0"/>
      <path d="m289.57,169.68c1.28-2.05,2.94-3.71,4.98-4.98-.54,2.78-2.2,4.44-4.98,4.98Z" fill="#b5cee0"/>
      <path d="m296.54,161.71c.33-2.03.99-3.87,2.91-4.97,0,.67,0,1.34.01,2-1.18.78-1.37,2.55-2.92,2.96Z" fill="#b5cee0"/>
      <path d="m283.59,173.66c1.05-2.01,2.93-2.64,4.98-2.99-1.05,2.01-2.93,2.65-4.98,2.99Z" fill="#b5cee0"/>
      <path d="m261.66,79.04c5.7,1.31,9.64,5.92,14.95,7.97,3.69,5.2,8.62,9.3,12.49,14.44,4.94,6.57,7.01,14.23,10.36,21.4,0,1.99-.02,3.98-.02,5.97-3.44-.49-2.92-3.58-3.55-5.72-2.29-7.79-4.87-15.39-10.79-21.31-5.48-6.86-11.87-12.61-19.59-16.95-2.73-1.53-5.98-1.91-8.36-4.09-.77-.87-2.33-1.44-1.23-3.06,2.28-1.1,4,.18,5.75,1.36Z" fill="#b2c9da"/>
      <path d="m285.59,100.95c6.48,5.01,8.21,12.66,10.94,19.74,1.03,2.69.59,5.91,2.92,8.13,0,6.66.02,13.31.02,19.97-1.77,1.98-.26,5.34-2.92,6.95-.18-.2-.36-.39-.55-.59-1.02-5.4.85-10.69.42-16.16-.96-12.37-3.41-24.09-10.96-34.28-.5-.67-.66-1.5-.61-2.35.08-.55.33-1.02.73-1.41Z" fill="#acc2d2"/>
      <path d="m25.47,72.07c0-3.03,2.79-2.72,4.46-3.76,2.06-1.3,4.85-1.1,6.5-3.21,0,0,0,0,0,0,12.03-2.24,23.71.11,35.42,2.5,9.4,1.92,18.88,1.87,28.36.49,8.49-2.32,16.93-4.93,25.51-6.85,3.86-.86,7.18-3.58,11.37-3.11.35.44.4.92.18,1.43-1.82,2.89-5.21,3.15-7.85,4.68-10.69,3.51-21.44,6.68-32.62,8.41-8.35,1.29-16.44.63-24.63-.98-8.74-1.72-17.49-3.65-26.51-3.24-1.82.08-3.64.1-5.41.63-.28,0-.55.01-.83.02-3.86-2.18-6.76,1.47-10.24,1.73-1.26.09-2.47.83-3.71,1.27Z" fill="#b5ccde"/>
      <path d="m137.09,59.12v-1c6.91-3.26,14.54-4.13,21.84-4.73,17.42-1.43,34.69.13,50.93,7.57.29.13.65.1.98.15,0,.66,0,1.33,0,1.99-1.24,1.18-2.74,1.23-4.18.69-6.69-2.51-13.75-3.63-20.6-5.53-1.67-.87-3.49-.82-5.3-.82-1.34-.01-2.66-.1-3.97-.4-4.78-.97-9.58-.66-14.39-.22-.54.08-1.08.08-1.63.02-5.68-.44-11.11.91-16.59,2.1-2.3.5-4.69,2.02-7.1.18Z" fill="#b6cee0"/>
      <path d="m100.21,68.08c-3.38,2.77-7.63,1.66-11.25,1.73-8.05.15-16.1-.31-24.12-2.45-7.75-2.07-15.91-3.13-24.05-2.13-1.53.19-2.92.02-4.37-.14,8.32-2.6,16.86-2.44,25.13-.63,12.78,2.8,25.6,4.14,38.65,3.62Z" fill="#b6cedf"/>
      <path d="m161.01,56.13c.33,0,.66,0,.99,0,4.98-.78,9.97-.78,14.95,0,1.33,0,2.66,0,3.99,0,1.48,1.23,3.49-.18,4.98.99,8.3,1.99,16.61,3.99,24.91,5.98,4.98,2.65,9.97,5.31,14.95,7.96,7.34,2.33,14.9,3.62,22.5,4.72,2.54.37,5.28.37,7.4,2.26.66.66,1.33,1.33,1.99,1.99-1.2,1.25-2.66.88-4.16.77-14.65-1.05-28.32-4.99-41.07-12.54-5.3-3.14-11.31-5.34-17.58-6.28-4.78-1.23-9.56-2.48-14.53-2.66-9.16-1.72-18.27-.87-27.37.49-1.96.29-3.86.87-5.69-.36-.65-.94-.23-1.62.69-1.83,4.29-.98,8.55-2.23,13.04-1.5Z" fill="#b2c9da"/>
      <path d="m255.68,78.05c-10.18-1.41-20.63-1.68-29.9-6.97,3.08-.49,5.97.77,8.97,1,7.31,1,14.62,1.99,21.93,2.99.93,2.25,5.43.02,4.98,3.98-1.99-.33-3.99-.66-5.98-1Z" fill="#b6cee0"/>
      <path d="m147.05,187.6c7.64,1.33,15.28,2.66,22.92,3.98-7.47,1.27-14.51-1.18-21.66-2.55-.49-.09-.84-.94-1.26-1.44Z" fill="#b5cee0"/>
      <path d="m169.97,191.59c4.65,0,9.3,0,13.95,0-4.65,1.61-9.3,1.61-13.95,0Z" fill="#b5cee0"/>
      <path d="m123.13,182.62c3.47-.06,6.81.5,9.97,1.99-3.38-.36-7.14,1.14-9.97-1.99Z" fill="#b5cee0"/>
      <path d="m138.08,185.61c3.15-.07,6.21.3,8.97,1.99-2.99-.64-6.64,1.63-8.97-1.99Z" fill="#b5cee0"/>
      <path d="m133.1,184.62c1.68.24,3.59-.67,4.98,1-1.68-.24-3.59.67-4.98-1Z" fill="#b5cee0"/>
      <path d="m161,185.62c-.66,0-1.32,0-1.98,0-1.48-1.23-3.49.17-4.99-.99-6.69-.16-12.93-2.53-19.36-3.96-24.32-5.43-48.88-8.03-73.81-7.03-9.76.39-19.48.23-28.98-2.91C9.62,163.35-1,145.32,3.82,122.5c1.87-8.85,3.8-17.68,5.71-26.52.76-1.28.91-2.87,1.99-3.99.33-.33.67-.66,1-.99.94.83,1.13,1.93,1.14,3.1-3.04,11.25-5.58,22.62-7.33,34.15-.7,4.59-.91,9.16.86,13.59,2.77,8.84,7.91,15.89,15.82,20.86,8.73,5.27,18.19,7.71,28.37,7.62,7.46-.07,14.92.23,22.37-.06,19.84-.79,39.21,2.36,58.5,6.46,6.13,1.3,12.27,2.65,18.45,3.7,14.36,3.84,28.8,5.39,43.42,1.5.49-.17,1-.28,1.51-.36,4.28-.31,8.16-1.99,12.04-3.65,1.44-.51,2.89-.99,4.39-1.31,1.57-.25,3.14-.25,4.72-.2,1.1.06,2.14.26,3.02.98.32.49.34.99.06,1.5-6.87,2.35-13.88,4.17-20.96,5.75h0c-1.74,1.35-3.7,2.05-5.89,2.07-2.08.38-4.24.13-6.29.81-.83.09-1.66.12-2.48.27-4.87.47-9.74.14-14.61.21-1.12-.02-2.24-.11-3.34-.38-1.75-.67-3.81-.54-5.28-1.96Z" fill="#a1b5c3"/>
      <path d="m12.51,93.99c0-1,0-2,0-2.99,1-1.99,1.99-3.98,2.99-5.98,3.42-4.71,7.88-8.2,12.96-10.96h0c2.29-1.08,4.8-1.64,6.98-2.98h0c12.28-3.78,24.4-1.19,36.51,1.03,2.11.39,4.27.42,6.34.99,4.54,1.12,9.17.35,13.75.59,2.27.12,4.63-.37,6.74.93.5.43.69.96.58,1.61-1.05,1.84-2.86,2.05-4.7,2.15-10.76.61-21.31-1.07-31.86-2.83-1.66-1.04-3.52-1.23-5.43-1.19-1.06-.03-2.11-.15-3.15-.4-3.81-.85-7.63-.85-11.45-.02-3.81,1.22-7.86,1.53-11.58,3.07-6.11,2.82-11.34,6.56-14.42,12.85-.86,1.76-1.54,4.11-4.26,4.13Z" fill="#a2b3c0"/>
      <path d="m78.28,74.06c-8.42.12-16.45-2.61-24.78-3.41-6.16-.59-12.04,1.5-18.07.42.84-1.63,3.14-.38,3.98-2,0,0,0,0,0,0,1.29-.89,2.75-.99,4.25-.97,3.53,0,7.07-.04,10.61.03,13.96,1.94,27.7,6.08,42.05,4.09,1-.14,1.98-.02,2.82.65.28.65.13,1.15-.47,1.53-6.79.03-13.6.65-20.37-.33Z" fill="#aabecd"/>
      <path d="m184.93,186.61c.66,0,1.33,0,1.99,0,1.6-.85,3.27-.51,4.92-.24.55,1.36-.36,1.55-1.36,1.7-1.52.23-3.14-.47-4.56.53-.33,0-.66,0-1,0-8.03,1.09-16,.63-23.92-1,0,0,0,0,0,0,0-.33,0-.66,0-1,1.66-.75,3.32-.74,4.98,0,1,0,1.99,0,2.99,0,5.32.84,10.63.84,15.95,0Z" fill="#a7bbca"/>
      <path d="m28.45,74.06c-4.32,3.65-8.64,7.3-12.96,10.96,2.77-5.48,6.9-9.36,12.96-10.96Z" fill="#aabecd"/>
      <path d="m35.43,71.08c-1.62,2.64-4.4,2.58-6.98,2.98,1.98-1.82,4.22-3,6.98-2.98Z" fill="#aabecd"/>
      <path d="m11.51,91.99c-.16,1.58-.7,2.97-1.99,3.99-.1-1.71.17-3.24,1.99-3.99Z" fill="#aabecd"/>
      <path d="m154.02,184.62c1.68.24,3.59-.67,4.99.99-1.68-.24-3.59.66-4.99-.99Z" fill="#a4b8c6"/>
      <path d="m165.99,186.61c-1.66,0-3.32,0-4.98,0,0-.33,0-.66-.01-.99,1.68.23,3.59-.67,4.99.99Z" fill="#a4b8c6"/>
      <path d="m282.59,170.67c-1.33.67-2.66,1.33-3.98,2-1.21.9-2.55,1.54-3.99,1.98-.33,0-.66,0-1,0-2.19,1.13-4.59,1.53-6.98,1.99h0c-4.51,1.67-9.33,1.1-13.95,1.99-4.54,1.05-9.15.21-13.72.48-3.63-.18-7.27.31-10.9-.13-.52-.46-.61-.98-.25-1.58,3.39-2.04,7.14-.83,10.72-1.12,2.8-.22,5.65.29,8.42-.46,7.38-.75,14.76-1.28,22.03-3.19,7.08-1.86,13.37-4.68,18.45-10.02,1.24-1.3,2.48-2.76,4.62-2.39,1.96,1.28.73,2.5-.2,3.54-1.6,1.79-3.25,3.57-5.29,4.91h0c-1.13,1.06-2.71,1.23-3.99,1.99Z" fill="#a7bbca"/>
      <path d="m198.88,184.62c6.56-3.46,13.74-4.74,20.93-5.98,2.2-1.64,4.48-1.72,6.82-.33.85,1.96-.72,1.65-1.72,1.78-2.35.31-4.8-.55-7.1.54-1.54.95-3.23,1.1-4.98,1-2.89,1.29-5.96,2.05-8.97,2.98-1.66,0-3.32,0-4.98,0Z" fill="#a7bbca"/>
      <path d="m286.58,168.68c1.4-3.1,5.46-4.21,5.97-7.98-.99-1.15-.83-2.29.06-3.41,1.15-.92,2.16-2.2,3.93-1.57,0,0,0,0,0,0-1.42,5.78-4.26,10.46-9.97,12.94Z" fill="#acc2d2"/>
      <path d="m161.01,187.6c7.95.81,15.92,1.25,23.92,1-8.06,1.76-16.05,1.81-23.92-1Z" fill="#abc0cf"/>
      <path d="m217.81,180.63c2.58-2.49,6.39.5,8.97-1.99.33-.36.66-.34,1,0,3.66,0,7.31,0,10.97,0,.32.22.43.44.32.66-.11.22-.22.33-.33.33-7.01-.37-13.9,1.71-20.93,1Z" fill="#abc0cf"/>
      <path d="m185.92,188.6c1.51-2.11,4.47.11,5.98-1.99.06-.61.71-.62,1.01-.99,1.99-.33,3.98-.66,5.98-1-3.19,5.01-8.35,3.61-12.96,3.98Z" fill="#abc0cf"/>
      <path d="m252.7,178.64c4.53-1.53,9.29-1.38,13.95-1.99-4.36,2.68-9.23,1.86-13.95,1.99Z" fill="#acc2d2"/>
      <path d="m238.74,179.63c0-.33,0-.66,0-.99,4.65,0,9.3,0,13.95,0-4.53,2.1-9.31.5-13.95.99Z" fill="#acc2d2"/>
      <path d="m203.86,184.61c2.74-1.75,5.76-2.66,8.97-2.98-2.57,2.27-5.64,3-8.97,2.98Z" fill="#abc0cf"/>
      <path d="m266.65,176.65c2.13-1.34,4.52-1.8,6.98-1.99-2,1.81-4.2,2.91-6.98,1.99Z" fill="#acc2d2"/>
      <path d="m274.62,174.65c1.02-1.29,2.41-1.83,3.99-1.98-.95,1.42-1.88,2.89-3.99,1.98Z" fill="#acc2d2"/>
      <path d="m282.59,170.67c1.01-1.29,2.4-1.83,3.99-1.99-.75,1.82-2.28,2.09-3.99,1.99Z" fill="#acc2d2"/>
      <path d="m194.89,61.11c8.91.66,16.52,5.01,24.2,8.91,8.55,4.34,16.96,8.47,26.97,8.16,3.85-.12,7.74,1.2,11.62,1.86,7.42,2.9,14.17,6.89,20.28,12.05,3.06,2.58,4.95,6.03,7.63,8.86,0,.33,0,.67,0,1-3.06.49-4.25-2.14-5.86-3.77-4.99-5.07-10.12-9.87-17.08-12.15-6.18-3.09-12.77-4.32-19.63-4.77-8.55-.56-16.47-3.24-23.92-7.55-6.31-3.64-13.11-6.21-20.16-8.08-1.23-1.13-3.05-1.33-4.22-2.58-.22-.43-.29-.88-.22-1.36.13-.19.27-.39.4-.58Z" fill="#acc0cf"/>
      <path d="m263.66,85.02c6.95,2.58,12.22,7.41,17.2,12.67,1.46,1.54,3.14,2.85,4.72,4.27,3.4,5.74,7.08,11.35,8.96,17.84,3.42,11.82,4.19,23.8,2,35.94-1,.66-1.99,1.33-2.99,1.99-1.43-1.95.17-4.31-.84-6.32-.15-1.04-.05-2.04.39-3,2.48-8.16.97-16.16-.96-24.14-.19-.46-.33-.93-.45-1.41-3.31-14.64-12.37-24.96-24.72-32.8-.84-.53-1.72-1.01-2.44-1.7-.79-.98-1.52-1.98-.87-3.33Z" fill="#a5b8c6"/>
      <path d="m99.21,73.07c-12.49.07-24.97.44-37.19-3.09-2.41-.69-5.18.18-7.66-.9-3.65-.82-7.31-.81-10.96,0-1.33,0-2.66,0-3.99,0,1.08-2.33,3.2-1.92,5.17-1.99,10.32-.34,20.3,1.8,30.33,3.87,16.11,3.32,31.45-.87,46.63-5.65,2.84-.89,5.62-1.84,8.58-2.21.74-.59,1.47-.56,2.19.03.17.55.12,1.07-.17,1.57-.48.69-1.08,1.34-1.86,1.6-9.46,3.05-18.91,6.13-28.79,7.59-.84.12-1.63-.22-2.26-.82Z" fill="#aec4d4"/>
      <path d="m132.1,63.1c-.66,0-1.33,0-1.99,0,1.82-2.22,5.07-1.92,6.98-3.98,6.11-1.21,12.21-2.45,18.33-3.63,1.91-.37,3.9-1.03,5.59.64-4.62,1.15-9.72.05-13.96,2.99.01,2.19-1.79,2.16-3.12,2.26-3.99.28-7.55,3.55-11.83,1.73Z" fill="#b3cadc"/>
      <path d="m176.95,56.13c-4.98,0-9.97,0-14.95,0,4.98-1.62,9.97-1.62,14.95,0Z" fill="#b3cadc"/>
      <path d="m185.92,57.13c-1.68-.24-3.59.67-4.98-.99,1.68.24,3.59-.67,4.98.99Z" fill="#b3cadc"/>
      <path d="m132.1,63.1c4.98-1.33,9.97-2.66,14.95-3.98,8.68-.81,17.27-2.59,26.08-2.05,2.65.16,5.26.31,7.81,1.06.77.72,1.75.4,2.64.56,1.26.22,2.16.65.87,2-2.96,1.57-5.84-.18-8.77-.24-8.8-.2-17.5.46-26.15,1.99-3.97-.02-7.64,1.5-11.45,2.25-2.08.41-4.13,1.17-5.98-.59v-1Z" fill="#abc0cf"/>
      <path d="m184.92,60.12c-.85-1.62-3.14-.37-3.99-1.99,4.81.25,9.54.89,13.95,2.99,0,0,0,0,0,0-2.56,2.18-5.23.48-7.87.24-.82-.2-1.56-.55-2.1-1.23Z" fill="#acc0cf"/>
      <path d="m151.04,181.63c-9.68-1.84-19.36-3.69-29.04-5.53-11.97-2.28-23.96-4.41-36.2-4.43-12.59-.02-25.2.34-37.77-.11-9.57-.35-18.91-2.3-26.56-8.85.74-.65,1.61-.73,2.53-.54,10.08,4.03,20.34,6.88,31.4,6.21,6.45-.39,12.95.13,19.41-.11,18.87-.7,37.32,2.14,55.65,6.1.54.06,1.08.18,1.6.34,3.14,1.16,6.44,1.58,9.73,2.06,1.9.57,3.87.92,5.64,1.89,1.15,1.05,3.67.46,3.6,2.98Z" fill="#96a7b2"/>
      <path d="m293.6,151.73c2.2,2.01-.07,3.99-.04,5.99-1.17.71-.96,1.89-1,2.98-4.1.53-5.17,4.74-8.19,6.69-11.21,7.27-23.69,9.14-36.65,9.25-5.3,1.08-10.66.22-15.98.46-1.94.09-3.91-.15-5.73.77-2.08.29-4.16.6-6.19-.23-1,0-2,0-3,0,.33-2.68,2.56-2.02,4.2-2.35,6.71-1.37,13.53-.66,20.28-1.09,9.7-.62,19.48-.91,28.87-3.87.47-.23.97-.4,1.48-.53,1.87-.37,3.78-.66,5.38-1.83,4.17-2.3,7.68-5.45,11.09-8.7,1.34-.81,2.3-1.87,2.36-3.53.1-.67.27-1.31.55-1.92.59-1.02,1.3-1.89,2.56-2.07Z" fill="#9fb2bf"/>
      <path d="m12.51,93.99c4.28-6.56,8.2-13.46,15.67-17.1.72-.35,1.51-.56,2.27-.83.36.37.5.81.46,1.32-.33,1.23-1.33,1.85-2.31,2.46-9.73,5.99-14.2,15.26-16.27,26.02-.44,1.39-.66,2.83-1.02,4.24-.87,3.09-1.6,6.22-2.33,9.34-.09,2.53-.51,5-1.05,7.47-.09,1.24-.21,2.47-.51,3.68-.73,2.11-.75,4.22-.03,6.34.24,1,.36,2.01.32,3.04-.08,1.08-.29,2.1-1.19,2.83-4.04-6.56-1.74-13.47-.66-20.11,1.57-9.69,3.6-19.32,6.65-28.7Z" fill="#98a7b3"/>
      <path d="m151.04,181.63c-.85-1.62-3.13-.38-3.99-2,3.08-2.63,6.55-.81,9.46-.15,11.04,2.5,22.09,3.01,33.29,1.75,1.8.12,3.7-.14,5.11,1.4-10.63,3.94-21.52,3.52-32.41,1.61-3.84-.67-7.95-.41-11.46-2.6Z" fill="#94a5b0"/>
      <path d="m194.91,182.63c-1.67,0-3.34,0-5.01-.01.32-2.63,2.61-2.69,4.39-3.22,13.99-4.14,27.96-8.06,42.88-7.33,4.85.24,9.86-.91,14.84-.75,1.95.06,4.04-.28,5.58,1.44.14,1.16-.63,1.41-1.51,1.36-6.97-.41-13.8,1.51-20.8,1.08-7.92-.48-15.74.65-23.45,2.45-1.23.68-2.51,1.18-3.96,1.01-3.86,1.73-8.06,2.45-11.99,3.97-.33,0-.65.01-.98,0Z" fill="#94a4af"/>
      <path d="m211.83,177.64c5.43-2.7,11.43-2.83,17.17-2.82,8.88.02,17.67-1.18,26.53-1.22.72,0,1.43-.62,2.15-.94.2-.19.39-.38.59-.58,4.44-.63,8.69-3.14,13.39-1.4-4.62,3.54-10.36,3.14-15.59,3.78-8.67,1.07-17.45,1.45-26.24,1.29-4.35-.08-8.8.33-13,1.89-1.66,0-3.32,0-4.98,0Z" fill="#94a5b0"/>
      <path d="m6.52,142.79v-3c.38-.34.77-.37,1.2-.13.98,1.22,1.47,2.73,2.37,4,.31.6.54,1.23.74,1.88,1.42,6.39,6.54,9.89,10.95,13.93.38.25.72.53,1.05.84.58.7,1.15,1.41.64,2.4-.67,0-1.33,0-2,0-7.88-4.47-12.61-11.29-14.95-19.91Z" fill="#92a1ac"/>
      <path d="m184.93,186.61c-5.32,1.62-10.63,1.62-15.95,0,5.32,0,10.63,0,15.95,0Z" fill="#a4b8c6"/>
      <path d="m195.89,182.62c3.56-2.64,7.87-3.02,11.99-3.97-3.59,2.54-7.63,3.75-11.99,3.97Z" fill="#94a5b0"/>
      <path d="m219.81,177.65h5.98c.67-.56,1.33-.56,2,0,0,.33,0,.66,0,.99-.33,0-.66,0-1,0-2.33,0-4.65,0-6.98,0,0-.33,0-.66,0-.99Z" fill="#a4b8c6"/>
      <path d="m192.91,185.62c-.34.33-.67.66-1.01.99-1.66,0-3.32,0-4.98,0,1.75-1.8,3.99-.68,5.99-.99Z" fill="#a4b8c6"/>
      <path d="m99.22,76.06c0-.33,0-.67,0-1,.18-.17.36-.34.55-.51,1.88-.69,3.92-.73,5.77-1.54,14.89-3.23,29.05-9.24,44.22-11.39,8.98-1.41,18-2.57,27.08-1.41,2.05.26,4.99-1.24,6.03,2.13-2.37,1.76-5.12,1.01-7.72,1.14-5.79.28-11.62-.48-17.39.47-14.96,2.01-29.12,7.22-43.61,11.1-3.04.81-6.12,1.38-9.16,2.16-2.03.11-4.11.52-5.78-1.15Z" fill="#9fb0bc"/>
      <path d="m99.22,76.06c1.99,0,3.99,0,5.98,0-1.54,3.64-5.07,2.69-7.85,3.22-2.36.45-4.87-.07-7.23.79-7.67,1.22-15.06-.73-22.52-1.99-10.46-1.97-20.9-4.35-31.49-.78-1.89.13-3.84,1.35-5.65-.25,0-.33,0-.67,0-1,3.77-1.85,7.89-2.31,11.95-2.99,3.99-.78,7.99-.78,11.98,0,.99,0,1.99,0,2.98,0,1.48,1.23,3.49-.18,4.99.99,12.23,1.75,24.39,4.77,36.87,2Z" fill="#98a7b2"/>
      <path d="m78.28,74.06c6.98,0,13.95,0,20.93,0,.13.17.25.33.38.5-.13.17-.25.33-.38.5,0,0,0,0,0,0-5.43,0-10.87.04-16.3-.02-1.58-.02-3.34.54-4.63-.97Z" fill="#a8bbca"/>
      <path d="m54.38,73.06c-3.99,0-7.99,0-11.98,0,3.99-1.58,7.99-1.57,11.98,0Z" fill="#98a7b3"/>
      <path d="m62.34,74.06c-1.68-.24-3.59.67-4.99-.99,1.68.23,3.59-.66,4.99.99Z" fill="#98a7b3"/>
      <path d="m149.04,62.11c-14.18,2.46-27.35,8.73-41.57,11.06-.79.13-1.52.58-2.28.89-1.99.76-3.98.76-5.98,0h0c0-.34,0-.67,0-1,11.25-1.92,22.22-4.9,32.89-8.96,5.88.35,11.12-2.98,16.94-2.99.33.22.43.44.33.66-.11.22-.22.33-.33.33Z" fill="#a8bbca"/>
      <path d="m43.4,69.08c3.66-1.61,7.31-1.61,10.96,0-3.65,0-7.31,0-10.96,0Z" fill="#abc0cf"/>
      <path d="m227.78,177.65c-.67,0-1.33,0-2,0,4.72-2.12,9.68-.54,14.52-.96,2.45-.21,4.94-.04,7.41-.03-6.55,2.25-13.3.37-19.93,1Z" fill="#a1b5c3"/>
      <path d="m263.66,85.02c.33.98.66,1.97,1,2.95-.18.15-.36.3-.54.45-1.85.46-3.1-.66-4.4-1.66-1.65-1.56-3.82-1.48-5.85-1.86-4.85-1.06-9.77-1.52-14.7-1.93-9.33-.77-17.3-5.25-25.24-9.58-4.83-2.63-9.99-4.24-15.11-6.01-1.76-.61-4.07-.68-3.9-3.48,1.34-.36,2.68-.57,3.96.2,11.75,2.72,21.63,9.91,32.89,13.77,4.19,1.44,8.61,1.94,13.06,2.19,6.6.36,12.9,2,18.84,4.95Z" fill="#a3b5c3"/>
      <path d="m198.87,64.1c-1.33,0-2.66,0-3.99,0-4.34,1.5-8.36,1.04-11.95-1.99-6.02-1.47-12.18-1.81-18.31-1.64-5.2.15-10.39,1.06-15.58,1.63v-1c11.91-2.21,23.86-2.75,35.88-.99.66,0,1.32,0,1.99,0,2.39,1.74,5.37,1.1,7.98,1.99.86,1.61,3.13.37,3.98,1.99Z" fill="#a4b6c3"/>
      <path d="m194.89,62.11c-2.8-.12-5.8.61-7.98-1.99,2.7.04,5.22,1.49,7.98.99,0,.33,0,.67,0,1Z" fill="#abc0cf"/>
      <path d="m264.65,87.97c14.71,7.31,24.65,18.44,27.91,34.89-1.22.38-1.58-.55-2.05-1.33-.61-1.43-1.01-2.95-2.05-4.18-5.59-10.83-13.35-19.76-23.44-26.65-.49-.85-.95-1.71-.38-2.7v-.04Z" fill="#9aaab5"/>
      <path d="m291.56,120.88c.02.82.19,1.56,1,1.99,0,0,0,0,0,0,1.7,7.07,2.64,14.23,2.47,21.51-.04,1.62.33,3.38-1.46,4.41,0,.98.02,1.97.03,2.95-.67.67-1.34,1.35-2.02,2.03-.17-.16-.33-.33-.5-.49-.58-1.11-.5-2.28-.29-3.46.07-.48.19-.94.33-1.4,1.75-5.83.21-11.59-.38-17.37-.15-.49-.25-1-.32-1.51.22-2.84-1.7-5.63-.24-8.5.41-.48.87-.53,1.38-.15Z" fill="#94a4af"/>
      <path d="m293.57,148.79c2.56-6.57,0-13.05-.5-19.54-.16-2.11-.43-4.25-.51-6.39,3.93,7.83,2.93,16.25,2.83,24.54-.01.9-.98,1.22-1.82,1.38Z" fill="#9aaab5"/>
      <path d="m257.67,172.66c-14.95.47-30.04-.26-44.72,3.12-7.78,1.79-15.73,3.35-23.05,6.85-14.54,2.67-28.6-1.45-42.85-2.98-1.42-1.27-3.69-.41-4.99-1.97-3.28-.85-6.7-1.04-9.96-2.01h0c-.51-1.24-3.81.61-2.69-2.43,3.08-1.65,5.95.23,8.92.51,13.31,2.46,26.41,6,40.18,5.68,7.73-.18,15.11-1.44,22.39-3.74,7.26-2.29,14.53-4.53,22.21-4.94,3.69.79,7.39.97,11.1.15.53-.17,1.06-.29,1.61-.37,6.11-.63,12.28.44,18.37-.69.54-.17,1.1-.27,1.67-.34,2.25-.06,4.56-.53,6.63.85.75,1.31-.1,1.61-1.14,1.79-1.22.21-2.56-.37-3.68.54h0Z" fill="#8896a0"/>
      <path d="m129.11,173.66c1,.66,1.99,1.33,2.99,1.99-8.61-.29-16.75-3.33-25.31-4.18-8.2-.82-16.35-1.91-24.62-1.83-11.6.11-23.22.31-34.81-.06-8.44-.27-16.53-2.52-23.9-6.88-.33-.66-.67-1.33-1-1.99,1.04-.88,2.22-.7,3.28-.19,6.32,3.07,13.18,4.43,19.85,6.41,13.32.81,26.65.13,39.97.35,3.13.05,6.25-.06,9.37.07.57.02,1.13.1,1.69.21,2.52,1.01,5.21.7,7.82.93.49.04.98.14,1.46.27,2.01.8,4.17.62,6.25.92.45.07.9.19,1.34.32,1.51.55,3.11.47,4.68.67.46.06.91.16,1.36.28,1.58.52,3.25.51,4.85.92,1.57.59,3.48.31,4.73,1.77Z" fill="#8c9aa5"/>
      <path d="m132.1,175.65c3.47-.08,6.81.5,9.96,2.01-3.47.05-6.89-.12-9.96-2.01Z" fill="#8c9aa5"/>
      <path d="m288.58,159.73c-2.76,4.08-6.64,6.78-10.96,8.96-1.55.56-3,1.43-4.71,1.47-.48,0-.93-.08-1.37-.27-.12-2.75,2.37-2.65,3.92-3.58,4.6-2.75,9.88-4.72,11.96-10.37.17-.42.39-.81.65-1.18.29-.33.64-.6,1.03-.83.79-.34,1.58-.79,2.45-.2,0,0,.03.03.04.03,0,.66-.01,1.32-.02,1.97-.66,1.58-1.3,3.18-2.98,4Z" fill="#94a4af"/>
      <path d="m271.62,169.67c.34,0,.67,0,1.01,0,.32.22.43.44.32.66-.11.22-.22.33-.32.33h-.49s-.49,0-.49,0c-4.69.42-9.16,2.43-13.97,1.98,1.18-1.89,3.82-.1,5-1.98,2.83-1.66,5.71-2.91,8.95-1.01Z" fill="#94a4af"/>
      <path d="m272.63,170.68c0-.33,0-.66,0-1,1.66-.33,3.33-.66,4.99-.99-1.3,1.57-3.04,2.05-4.99,1.99Z" fill="#95a6b1"/>
      <path d="m288.58,159.73c.99-1.33,1.99-2.67,2.98-4,.1,2.15-.42,3.83-2.98,4Z" fill="#97a8b3"/>
      <path d="m30.45,77.05c1.66-.33,3.32-.67,4.98-1,.33.34.43.73.28,1.18-1.52,2.27-4.8,2.01-6.26,4.37-.28.34-.61.62-.96.88-.95.55-2.01.83-2.98,1.34-2.07,1.01-3.42,2.72-4.54,4.65-2.13,2.98-3.73,6.22-4.76,9.74-1.31,2.52-.93,5.77-3.34,7.82-.48.19-.94.14-1.38-.12,1.18-11.7,6.59-20.83,16.56-27.18.82-.52,1.6-1.13,2.39-1.69Z" fill="#919ea9"/>
      <path d="m11.49,105.92c.34,0,.68,0,1.02.01,1.08,1.02,1.13,2.32.88,3.64-1.21,6.58-1.94,13.26-4.07,19.65-.28.49-.71.79-1.26.91-1.76-.51-.44-2.46-1.53-3.28.79-2.6,1.22-5.24,1.01-7.96,2.54-2.48,1.89-6.01,2.97-8.97.14-1.38-.47-2.94.98-3.99Z" fill="#8c9aa4"/>
      <path d="m6.53,126.85c1.17.72.95,1.89.99,2.99,1.97,3.32,2.04,6.64,0,9.96-.33,0-.66,0-.98,0,0-.99,0-1.99,0-2.98-.75-1.99-.75-3.99,0-5.98,0-1.33,0-2.65,0-3.98Z" fill="#919ea9"/>
      <path d="m10.51,109.91c-.28,3.23.59,6.83-2.97,8.97,1.54-2.81,1.03-6.29,2.97-8.97Z" fill="#919ea9"/>
      <path d="m6.52,130.83c0,1.99,0,3.99,0,5.98-1.5-1.99-1.5-3.99,0-5.98Z" fill="#92a1ac"/>
      <path d="m8.51,129.84c1.33-7.97,2.67-15.93,4-23.9,1.47-2.48.86-5.73,2.97-7.98.9-.46.19-2.98,2.35-1.83.43.67.56,1.41.5,2.19-1.35,5.14-2.8,10.26-3.93,15.46-.86,2.87-1.65,5.75-1.77,8.77-.05.5-.16.99-.28,1.48-.7,1.92-.52,3.92-.53,5.91,0,1.25,0,2.5,0,3.74.04,2.16-.23,4.34.38,6.47.29,1.09.56,2.18.92,3.25.41,1.43.94,2.79,1.97,3.91,1.01,1.35,1.89,2.78,2.9,4.13.73,1.32,1.86,2.21,3.11,2.99,3.72,3.14,7.32,6.48,12.46,7.15.7.09,1.37.26,2.01.53,1.6,1.04,3.42,1.49,5.27,1.85,2.19.69,4.49.3,6.72.64.54.05,1.06.16,1.59.31,6.67.65,13.33.82,19.98-.16.56-.17,1.13-.26,1.71-.32,5.89-.19,11.77-.12,17.65-.07.85.03,1.69.11,2.51.31,2.8,1.05,5.75.56,8.63.76.76.03,1.5.17,2.23.35,1.58.57,3.24.68,4.89.84.46.06.91.16,1.36.28,1.71.66,3.55.58,5.33.86.45.07.89.19,1.33.31,1.56.5,3.19.35,4.78.53,2.09.46,4.19.83,6.3,1.2,1.58.53,3.21.66,4.86.62.48-.02.95-.01,1.43,0,1.2.05,2.4.12,3.55.5,1.16.48,2.03,1.28,2.59,2.4.13.48.06.93-.23,1.34-2.99-.34-5.97-.67-8.96-1.01-1.68-.26-3.59.66-4.99-1-1.48-1.23-3.49.17-4.98-1-.33,0-.66,0-.99,0-1.48-1.22-3.49.17-4.99-.99h0c-2.18-1.35-4.79.3-6.98-.99-.33,0-.66,0-.99,0-2.53-1.38-5.44.33-7.98-.99h-.5s-.5,0-.5,0c-2.72-1.04-5.54-.46-8.31-.48-12.89-.07-25.77-.02-38.66-.05-1.62,0-3.31.42-4.86-.46-7.66-1.22-14.77-4.16-21.93-6.97,0,0,0,0,0,0-5.38-4.07-9.44-9.27-12.94-14.96,0-.66,0-1.32,0-1.98-2.06-4.52-1.76-9.22-1.01-13.94Z" fill="#828c94"/>
      <path d="m9.53,145.76c2.57.24,2.81,2.67,3.68,4.26,2.33,4.27,6.81,6.6,9.26,10.7-6.13-3.42-10.76-8.13-12.94-14.96Z" fill="#8c9aa5"/>
      <path d="m8.51,129.84c-.3,4.69.33,9.32,1.01,13.94-1.83-.74-2.08-2.28-2-3.98,0-3.32,0-6.64,0-9.96h.99Z" fill="#8c9aa5"/>
      <path d="m264.65,88.01c.33.66.66,1.33,1,1.99-.84.77-1.87.79-2.77.36-8.35-3.94-17.35-4.89-26.36-5.81-6.71-.68-12.67-3.35-18.4-6.73-3.27-1.93-6.66-3.62-10.23-4.92-4.14-2.4-8.97-3.04-13.23-5.16-9.78-3.54-19.95-3.42-30.14-3.31-2.54.03-5.31.74-7.52-1.34,3.36-2.11,7.05-.76,10.58-.93,5.1-.25,10.22-.06,15.34-.06,3.98.66,7.97,1.33,11.95,1.99,2.32,2.55,5.76,2.23,8.66,3.28,6.05,2.21,11.87,4.9,17.34,8.25,9.26,5.66,19.75,5.98,30.02,7.41,1.29.18,2.53.64,3.8.97,1.94.81,4.13.9,5.98,1.99,1.02,1.28,2.41,1.82,3.99,1.99Z" fill="#98a7b3"/>
      <path d="m157.01,63.1c11.17.31,22.43-1.09,33.45,1.96,1.89.52,3.88.63,5.43,2.02-2.66,2.24-5.5.58-8.07.06-16.42-3.27-32.57-2.27-48.54,2.49-1.92.85-3.95,1.4-5.87,2.25-.95.43-1.91.84-2.92,1.12-9.96,1.51-19.41,5.18-29.3,6.98-.55.16-1.1.25-1.67.3-3.12-.2-6.44,1.04-9.27-1.26,4.05-2.07,8.72-.22,12.82-2,.72-.31,1.42-.66,2.13-.99,15.63-4.26,31.25-8.56,46.9-12.74,1.55-.41,3.27-.16,4.92-.21Z" fill="#93a1ac"/>
      <path d="m99.22,74.06c1.99,0,3.98,0,5.98,0-1.75,1.81-3.98.67-5.98,1,0-.33,0-.66,0-.99Z" fill="#a2b3c0"/>
      <path d="m35.43,77.05c0-.33,0-.66,0-1,10.75-3.35,21.35-1.97,31.9.99-.18.18-.37.36-.55.55-1.95.96-4,.69-6.05.56-.5-.05-.99-.15-1.47-.28-1.87-.69-3.85-.51-5.78-.76-.49-.06-.97-.16-1.44-.28-4.21-1.33-8.17.59-12.26.97-.5.14-1,.22-1.51.25-1.07.02-2.09-.13-2.83-1.02Z" fill="#8c97a1"/>
      <path d="m90.24,79.04h9.97c.08.28.16.56.24.83-.32.49-.76.84-1.3,1.07-6.7.88-13.41.39-20.12.32-.52-.05-1.04-.16-1.54-.3-1.64-.64-3.37-.69-5.1-.77-.74-.05-1.47-.19-2.18-.41-1.17-.68-3.1-.57-2.89-2.72,0,0,0-.01,0-.01,7.65.52,15.15,2.81,22.92,1.99Z" fill="#8c97a1"/>
      <path d="m260.67,86.01c-2.18-.09-4.25-.53-5.98-1.99,2.24-.08,4.41.06,5.98,1.99Z" fill="#9aaab5"/>
      <path d="m207.86,72.06c4.17.19,7.49,2.58,10.81,4.6,7.65,4.65,15.82,7.12,24.74,7.37,7.88.22,15.01,3.32,22.24,5.97,10.63,6.6,18.12,15.99,23.91,26.89.86,1.2.29,2.75,1,3.99.33,2.99.67,5.97,1,8.96-2.48.09-1.88-2.37-2.9-3.49-2.53-7.03-4.94-14.13-10.31-19.68-.55-.5-1.02-1.06-1.42-1.68-.28-.42-.5-.87-.69-1.34-5.72-7.6-13.66-11.65-22.54-14.36-6.72-2.05-13.78-1.51-20.55-3-10.19-2.25-18.68-8.23-27.83-12.74-.64-.32-.75-1.02-.42-1.71,1.04-.65,2.01-.43,2.95.23Z" fill="#8b97a1"/>
      <path d="m290.56,120.88c-1.44-1.05-.85-2.61-1-3.99.67,1.33,1.33,2.66,2,3.99-.33,0-.67,0-1,0Z" fill="#97a8b3"/>
      <path d="m289.56,125.86c1.63.84.38,3.13,2,3.98,0,.33,0,.66,0,.99.69,6.31,1.42,12.62,0,18.93h0c-.74,1.63-.62,3.6-2,4.98h-.5s-.5,0-.5,0c-1.36-1.45-.8-3.08-.43-4.68,1.46-6.35,1.47-12.71.34-19.12-.31-1.78-.43-3.64,1.08-5.09Z" fill="#86949d"/>
      <path d="m291.57,149.76c0-6.31,0-12.62,0-18.93,1.43,6.31,3.05,12.62,0,18.93Z" fill="#8b97a1"/>
      <path d="m289.57,154.74c.43-1.75.63-3.6,2-4.98,0,1.32-.01,2.65-.02,3.97-.66.34-1.32.67-1.98,1.01Z" fill="#8b97a1"/>
      <path d="m289.56,125.86c.33,3.6.66,7.2,1,10.8.59,6.17-.71,12.13-1.99,18.09,0,0,0,0,0,0-5.91,11.02-16.4,13.86-27.6,15.42-1.76.24-3.62-.53-5.3.51h-.49s-.49,0-.49,0c-4.85,1.07-9.77.18-14.65.5-1.77.12-3.61-.49-5.29.5h0c-3.65.78-7.3.75-10.95.03-10.46.81-20.15,4.86-30.23,7.29-11.35,2.74-22.64,2.11-33.93.31-7.25-1.16-14.38-3.05-21.57-4.61,0-.33,0-.66,0-.99,1.67-1.65,3.61-1.2,5.55-.68,8.58,2.27,17.22,4.24,26.14,4.61,4.57,1.07,9.16.91,13.76.18,3.85-.53,7.76-.71,11.46-2.08.47-.18.96-.31,1.45-.43,4.27-1.32,8.52-2.67,12.63-4.44,1.49-.44,3.03-.47,4.57-.51,1.86.08,3.59-.7,5.41-.91.83-.1,1.66-.13,2.49-.16,6.86-1.46,13.81-.85,20.73-.98,3.01-.1,6.04.38,9.01-.45,1.03-.27,2.08-.39,3.14-.43,1.74-.05,3.5.05,5.18-.6,5.23-1.26,10.54-2.22,15.38-4.76,3.07-1.62,5.88-3.54,8.09-6.26,4.73-5.72,5.74-12.42,5.03-19.5-.97-9.6-3.35-18.77-9.04-26.8-.77-1.09-1.44-2.27-.41-3.59,5.73,4.13,7.52,10.61,9.91,16.72.41,1.05.69,2.15,1.03,3.23Z" fill="#7c858d"/>
      <path d="m255.67,170.67c2.51-2.17,5.68-.87,8.52-1.55,9.68-2.33,18.3-6.11,24.38-14.37-.67,7.75-7.62,9.31-12.67,12.66-1.31.87-3.19.85-4.29,2.27-2.98.34-5.97.67-8.95,1.01-2.33,0-4.67,0-7-.01Z" fill="#86949d"/>
      <path d="m234.75,171.66c6.55-2.23,13.31-.39,19.94-1-6.55,2.27-13.31.39-19.94,1Z" fill="#86949d"/>
      <path d="m223.8,171.69c3.65,0,7.3-.02,10.95-.03-3.65,1.64-7.3,1.59-10.95.03Z" fill="#86949d"/>
      <path d="m44.4,167.69c15.56,0,31.12-.02,46.67.03,1.74,0,3.68-.65,5.15.96-15.56,0-31.12.02-46.68-.03-1.74,0-3.68.66-5.15-.97Z" fill="#8896a0"/>
      <path d="m97.22,168.68c2.65.42,5.52-.98,7.98.99-2.65-.43-5.52,1-7.98-.99Z" fill="#8896a0"/>
      <path d="m106.19,169.68c2.32.38,4.87-.9,6.98.99-2.32-.38-4.88.91-6.98-.99Z" fill="#8896a0"/>
      <path d="m113.17,170.67c1.68.24,3.59-.66,4.99.99-1.68-.24-3.59.67-4.99-.99Z" fill="#8896a0"/>
      <path d="m119.15,171.67c1.68.24,3.58-.67,4.98,1-1.68-.24-3.58.66-4.98-1Z" fill="#8896a0"/>
      <path d="m204.84,72.08c6.4,3.29,12.84,6.51,19.2,9.9,7.99,4.26,16.92,3.55,25.44,5.03,9.67,1.68,18.01,5.98,25.21,12.56,1.3,1.19,2.93,2.27,2.93,4.38-4.16.21-5.27-4.72-8.97-5.3-8.84-6.72-19.15-8.63-29.9-9.42-7.19-.53-13.88-3.04-20.26-6.42-7.18-3.81-14.37-7.6-22.23-9.88-13.24-4.43-26.73-5.43-40.5-3.17-9.13,1.5-18.14,3.43-26.75,6.88-1.19.58-2.42,1.07-3.7,1.39-2.72.43-5.42.98-8,1.98-2.15.89-4.4,1.4-6.63,2.01-3.47.27-6.82,1.45-10.34,1.36-2.42.03-4.86-.21-7.22.62-1.94.39-3.89.39-5.83,0-3.22-1.03-6.55-.47-9.83-.6-1.9-.03-3.8.03-5.69-.2-2-.52-4.04-.87-6.07-1.23-1.63-.58-3.35-.66-5.06-.76-.73-.06-1.43-.23-2.1-.52-.43-.19-.83-.44-1.22-.7-2.88-1.24-5.81-.71-8.73-.23-.69.13-1.38.13-2.08.03-2-.48-3.99-.82-5.91.33-4.19,1.06-7.82,3.85-12.31,3.96-.41-.72-.41-1.42.15-2.07,0-.32.02-.64.03-.96,3.03-2.06,6.57-2.85,9.97-3.98.33,0,.66,0,.99,0,4.33-.13,8.5-2.49,12.96-.99.33,0,.66,0,.99,0,1.84,1.29,4.14-.26,5.99.99.33,0,.66,0,.99,0,3.28.89,6.82.45,9.97,1.98.66,0,1.32,0,1.99.01,1.49,1.21,3.49-.17,4.99.99h0c7.64.85,15.28.85,22.93,0h0c1.54-1.19,3.53-.77,5.22-1.44,8.67-1.73,16.96-4.95,25.66-6.54.44-.8,1.19-.96,2-.99,2.91-.63,5.73-1.51,8.46-2.69,18.09-4.9,36.2-4.96,54.31-.15,1.9.77,3.86,1.38,5.81,2.04,1.02.66,2.37.76,3.16,1.82Z" fill="#818a92"/>
      <path d="m28.43,82c0,.67,0,1.33.01,2-.59,2.42-2.62,3.57-4.36,4.97-3.17,1.42-3.59,5.42-6.58,7.01-.67.66-1.34,1.32-2.02,1.98.54-3.88,2.01-7.3,4.99-9.95,1.34-1.98,3.01-3.63,4.98-4.99.71-1.17,1.89-.95,2.97-1.02Z" fill="#86919a"/>
      <path d="m38.43,77.05c-3.11,1.86-6.44,3.17-9.97,3.98,1.44-2.88,4.68-2.6,6.97-3.99,1,0,2,0,3,0Z" fill="#8a959f"/>
      <path d="m25.46,83.02c-1.26,2.06-2.93,3.72-4.98,4.99.56-2.76,2.23-4.42,4.98-4.99Z" fill="#8a959f"/>
      <path d="m196.85,176.63c-.31-.01-.63-.02-.94-.02-2.55-.52-4.87.66-7.28,1.08-14.5,2.54-28.54-.23-42.5-3.63-3.35-.81-6.89-.82-10.06-2.38-1.32-.02-2.63-.03-3.95-.05-8.52-2.53-17.33-3.52-26.06-4.94-15.89-2.58-31.83-2.48-47.84-1.11-5.08.43-10.17-1.13-15.31-.99-2.36-1.18-5.22-.41-7.51-1.88-.66,0-1.31-.02-1.97-.03-5.14-2.73-10.14-5.66-14.32-9.79-2.3-3.21-4.86-6.24-6.36-9.96-2.16-7-1.69-14.06-.21-21.05,2.15-10.15,3.56-20.55,8.91-29.75,5.2-6.51,11.77-10.79,20.05-12.3,3.72-.15,7.43.12,11.15-.1,1.82-.11,4.03-.4,4.88,2.08-2.21,2.43-5.14,1.35-7.79,1.56-2.42.19-4.86-.14-7.27.32-15.41,3.28-21.85,13.64-24.05,31.6.21,1.79-.12,3.47-1,5.03-1.59,2.54-1.58,5.48-2.06,8.29-.82,2.63-.78,5.31-.39,8,.14.39.27.8.39,1.2.34.98.93,1.81,1.52,2.65.24.35.44.71.63,1.08.3.56.57,1.14.8,1.73.84,2.76,2.35,5.01,4.84,6.55,1.63,1.21,3.26,2.43,4.82,3.74,3.11,3.96,8.2,4.11,12.22,6.3,1.7.78,3.62.59,5.35,1.22,16.8.56,33.59-.03,50.37.29.57.02,1.14.1,1.71.21,2.32.87,4.77.79,7.2.86.79.04,1.56.17,2.33.36,1.94.71,4.04.55,6.02,1.02,1.74.59,3.55.53,5.36.54,14.19,2.33,28.26,5.24,42.21,8.71,1.93.57,3.8,1.39,5.88,1.29.5,0,1,.04,1.5.09.75.07,1.48.21,2.21.4,4.12.86,8.26.53,12.4.25.46-.16.94-.28,1.41-.38.96-.2,1.92-.34,2.89-.46,3.34-.8,6.73-1.41,9.94-2.7,4.24-1.53,8.65-2.38,12.99-3.54,8.43-2.01,16.96-3.09,25.64-2.75,3.7-.15,7.44.49,11.09-.61,6.65.31,13.13-2.19,19.82-1.29.4.48.55,1.03.44,1.65-6.41,2.93-13.33,3.26-20.15,3.51-6.79.25-13.59.35-20.38.63-1.96.08-3.99.21-5.7,1.44-.64,0-1.29,0-1.93,0-1.92-.87-3.5-.05-5.04,1l-4.95.04c-3.81,2.11-8.66,1.69-12,4.94Z" fill="#6a6f75"/>
      <path d="m42.41,163.69c14.31,0,28.63-.05,42.94.03,15.38.08,30.3,3.68,45.38,6.1.96.15,1.23.98,1.4,1.82-.34.01-.68.02-1.02.03-1.48-1.23-3.49.17-4.99-.99-2.42.31-4.68-.42-6.97-1-1.48-1.24-3.49.17-4.98-1h0c-1.84-1.3-4.14.23-6-.98h-.49s-.49,0-.49,0c-1.48-1.24-3.49.17-4.99-1-.66,0-1.32,0-1.98,0-2.88-1.39-6.09.3-8.98-1-.66,0-1.32,0-1.98,0-6.16-1.2-12.39-.19-18.57-.52-2.6.58-5.31.3-7.91.97-4.8-.22-9.63.57-14.4-.44-.32,0-.65,0-.97-.01-1.5-1.12-3.3-.11-4.88-.71-.23-.27-.33-.56-.28-.85.05-.3.11-.45.18-.45Z" fill="#747e85"/>
      <path d="m136.08,171.69c7.99.2,15.52,2.95,23.3,4.33,11.02,1.95,21.93,2.62,32.89-.04,1.32-.32,2.61-.64,3.64.63-3.82,1.68-7.83,2.26-11.98,2.04-4.65.78-9.31.78-13.96,0-8.65.41-16.88-1.92-25.13-3.97-2.25-.56-4.42-1.25-6.77-1.01-.66-.66-1.33-1.33-1.99-1.99Z" fill="#747e85"/>
      <path d="m22.48,91.99c-5.06,10.15-7.12,21.15-9.26,32.15-1.28,6.6-.89,13.1.29,19.63-.17.13-.34.26-.51.39-.17-.12-.35-.25-.52-.37-1.16-.73-.94-1.9-.98-3-1.29-2.19.36-4.8-.99-6.98,0-1.33,0-2.66,0-3.98,1.29-1.84-.25-4.14.99-5.98,0-.33,0-.66,0-.99.92-2.93,1.15-6.02,1.99-8.97.55-5.51,1.91-10.81,3.99-15.93,1.19-2.18,1.48-4.87,3.71-6.45.49,0,.91.16,1.28.48Z" fill="#757f86"/>
      <path d="m19.49,152.73c4.57,3.44,10.03,5.63,13.96,9.95-5.5-.72-9.63-3.69-12.99-7.92-.47-.43-1.03-.78-1.22-1.44.08-.2.17-.4.25-.59Z" fill="#757f86"/>
      <path d="m48.36,165.71c4.99,0,9.98-.02,14.97-.03,2-.75,3.99-.76,5.99,0-6.99,1.6-13.97,1.59-20.96.02Z" fill="#798088"/>
      <path d="m70.32,164.7c6.3.56,12.72-1.19,18.93,1-6.31,0-12.62,0-18.93,0-.33-.22-.44-.44-.33-.66.11-.22.22-.33.33-.33Z" fill="#798088"/>
      <path d="m13.51,143.77c2.61,2.58,4.46,5.66,5.98,8.96,0,0-.02.02-.02.02-1.14.63-1.43-.47-2.01-.99-1.79-.73-2.14-2.53-2.98-3.97-.54-1.28-2.14-2.3-.99-4l.02-.02Z" fill="#757f86"/>
      <path d="m21.47,91.99c-1.33,1.99-2.65,3.99-3.98,5.98,0-.66,0-1.33,0-1.99,1.51-3.02,2.72-6.26,5.97-7.98,1.4,2.36-.9,2.88-1.99,3.99Z" fill="#7b838a"/>
      <path d="m42.41,163.69c0,.33,0,.67,0,1-.66.56-1.33.58-2,0-1.92,0-3.98.33-4.98-1.98,2.33.33,4.87-.89,6.99.98Z" fill="#757f86"/>
      <path d="m13.5,113.9c.07,3.15-.29,6.21-1.99,8.97-.06-3.15.3-6.21,1.99-8.97Z" fill="#798088"/>
      <path d="m91.23,165.7c2.98.43,6.17-1.01,8.98,1-2.98-.44-6.17.98-8.98-1Z" fill="#798088"/>
      <path d="m10.51,133.82c1.92,2.1.61,4.66.99,6.98-1.89-2.1-.62-4.66-.99-6.98Z" fill="#798088"/>
      <path d="m40.41,164.7c.67,0,1.33,0,2,0,1.68.25,3.59-.67,4.98,1.01-2.32-.39-4.88.9-6.98-1Z" fill="#798088"/>
      <path d="m70.32,164.7c0,.33,0,.66,0,.99,0,0-.49,0-.49,0,0,0-.49,0-.49,0-2,0-3.99,0-5.99,0,2.1-1.91,4.66-.61,6.98-.99Z" fill="#757f86"/>
      <path d="m108.17,167.7c2,.3,4.24-.83,6,.98-2-.31-4.23.78-6-.98Z" fill="#798088"/>
      <path d="m11.51,123.85c-.32,2,.82,4.23-.99,5.98.3-2-.79-4.23.99-5.98Z" fill="#798088"/>
      <path d="m114.16,168.68c1.68.24,3.59-.67,4.98,1-1.68-.25-3.59.65-4.98-1Z" fill="#798088"/>
      <path d="m13.5,143.79c.33,1.33.66,2.66.99,4-1.77-.77-2.07-2.29-2-3.99.34,0,.68,0,1.01,0Z" fill="#798088"/>
      <path d="m17.47,151.76c.67.33,1.34.66,2.01.99.33.67.66,1.35.98,2.02-1.87-.14-2.88-1.13-3-3.01Z" fill="#798088"/>
      <path d="m126.11,170.68c1.68.23,3.59-.68,4.99.99-1.68-.23-3.59.65-4.99-.99Z" fill="#798088"/>
      <path d="m102.19,166.7c1.68.23,3.6-.68,4.99,1-1.68-.24-3.59.65-4.99-1Z" fill="#798088"/>
      <path d="m204.84,72.08c-1.09-.04-2.26.17-2.98-.99-1.55-.94-3.39-1.18-4.99-2-8.12-2-16.39-3.27-24.69-3.85-9.53-.67-18.88,1.56-28.2,3.39-.96.19-1.94.31-2.9.47-1,.68-2.01.68-3,0,6.77-3.28,14.16-4.42,21.45-4.81,11.35-.62,22.81-.82,33.89,2.73.76.24,1.65.07,2.47.09,3.88,1.93,8.65,1.7,11.97,4.97-1.01,0-2.01.01-3.02.02Z" fill="#8e99a3"/>
      <path d="m131.09,72.06c-8.5,2.8-16.92,5.92-25.89,6.99-1.34.72-2.67.72-4,0,9.95-2.39,19.53-6.36,29.89-6.98Z" fill="#8c97a1"/>
      <path d="m138.07,69.08c1,0,2,0,3,0-2.35,1.91-5.13,2.09-7.98,1.98,1.39-1.34,3.23-1.56,4.98-1.99Z" fill="#8c97a1"/>
      <path d="m101.2,79.04c1.33,0,2.67,0,4,0-1.4,1.65-3.31.75-4.99,1,0-.33,0-.67,0-1,.33,0,.66,0,.99,0Z" fill="#8a959f"/>
      <path d="m52.37,76.06c-4.32.33-8.64.66-12.96.99,4.27-.95,8.43-3.34,12.96-.99Z" fill="#8a959f"/>
      <path d="m70.31,79.04c-3.39-.33-6.81-.52-9.97-1.98,2.33,0,4.65,0,6.98,0,1,.66,2,1.32,2.99,1.98Z" fill="#8a959f"/>
      <path d="m59.35,77.05c-2-.32-4.23.8-5.99-.99,2,.32,4.24-.82,5.99.99Z" fill="#8a959f"/>
      <path d="m100.21,80.04c-7.64,1.62-15.29,1.62-22.93,0,7.64,0,15.28,0,22.93,0Z" fill="#8a959f"/>
      <path d="m77.29,80.04c-1.68-.24-3.59.66-4.99-.99,1.68.24,3.59-.68,4.99.99Z" fill="#8a959f"/>
      <path d="m278.63,105.9c-.1,1.92,1.66,2.75,2.43,4.15,6.98,12.6,10.97,25.69,6.63,40.2-.78,2.63-1.89,4.85-4.09,6.49-.4-.38-.65-.83-.76-1.37.79-5.15,3.82-9.73,3.49-15.23-.63-10.63-1.94-20.97-9.06-29.59-.74-.89-1.2-1.96-1.44-3.12-.12-.83,0-1.62.41-2.36.42-.49.88-.54,1.4-.17l.98.99Z" fill="#747e85"/>
      <path d="m277.64,104.91l-1.03.03c-3.99-.66-6.33-2.98-6.97-6.98,3.75.54,4.87,4.57,7.97,5.98,0,.32.02.65.03.97Z" fill="#7c858d"/>
      <path d="m283.59,155.73c0,.34,0,.68,0,1.02-6.2,7.53-14.88,9.62-23.92,10.94-1.5,1.17-3.5-.23-4.99.99-1,0-1.99,0-2.99,0-2.88,1.29-6.1-.37-8.97.99-7.33.07-14.69-.38-21.96.97.24-1.73,1.45-1.97,2.9-1.96,8.25.03,16.43-1.16,24.7-1.16,6.12,0,12.43-.35,18.28-2.84,1.27-1.54,3.09-2.1,4.88-2.72,2.74-.64,4.84-2.39,7.1-3.93,1.49-1.02,2.66-2.96,4.97-2.3Z" fill="#747e85"/>
      <path d="m196.85,176.63c2.81-4.53,7.91-3.51,12-4.94-3.48,2.9-8.13,2.96-12,4.94Z" fill="#747e85"/>
      <path d="m169.97,178.65c4.65,0,9.31,0,13.96,0-4.65,1.59-9.31,1.59-13.96,0Z" fill="#798088"/>
      <path d="m242.73,169.67c2.81-1.99,5.99-.56,8.97-.99-2.81,1.98-5.99.55-8.97.99Z" fill="#798088"/>
      <path d="m213.8,171.64c1.14-3.05,3.04-2.29,5.04-1-1.68.33-3.36.67-5.04,1Z" fill="#747e85"/>
      <path d="m254.69,168.68c1.4-1.66,3.31-.75,4.99-.99-1.4,1.64-3.31.75-4.99.99Z" fill="#747e85"/>
      <path d="m57.36,82.03c-5.54-2.17-11.31-.43-16.95-1-.08-.74.25-1.54.91-1.5,5.68.34,11.43-1.64,17.04.5.66,0,1.32.02,1.97.03,1.49,1.2,3.49-.18,4.99.98,2.05.01,4.13-.21,5.97,1.02,13.35,1.91,26.64,2,39.86-1.03,1.75-1.41,4.02-1.24,5.99-1.98,2.62-.82,5.5-.59,7.98-1.97.99-.34,1.98-.68,2.97-1.02,9.34-3.21,18.93-5.42,28.64-7.12,2.16-.38,4.22-.15,6.1,1.1-.93,3.98-4.7,1.5-6.74,2.97-13.96,2.03-27.07,7.28-40.64,10.8-.64.17-1.28.32-1.94.41-1.83.2-3.71.06-5.49.72-1.86.42-3.79.55-5.61,1.17-9.18,1.25-18.36,1.25-27.54,0-5.36-1.21-10.69-2.65-16.2-3.1-.54-.19-.99-.52-1.35-.96Z" fill="#70767c"/>
      <path d="m269.64,97.96c1.92,2.73,4.27,5.03,6.97,6.98,0,.66,0,1.33,0,1.99-1.33.59-2.31-.21-3.04-1.03-3.33-3.75-7.51-6.38-11.64-9.09-1.11-1.45-2.76-1.59-4.39-1.82-6.48-2.72-13.46-2.64-20.24-3.63-1.8-.26-3.58-.47-5.25-1.21-2.07-.96-4.2-1.76-6.51-1.96-4.88-1.26-9.08-4.02-13.54-6.19-5.08-2.46-10.08-5.03-15.55-6.57-1.79-.5-4.13-.72-3.39-3.66,1.31-.3,2.6-.46,3.82.3,6.89.92,12.95,4.37,18.65,7.71,9.41,5.51,19.4,8.39,29.98,9.02,9.19.54,16.9,3.97,24.13,9.17Z" fill="#73797f"/>
      <path d="m196.88,72.07c-1.33,0-2.67,0-4,.01-3.46,2.14-6.87-.14-10.31-.07-.76-.22-1.48-.55-2.18-.92-2.39-1.18-4.95-.55-7.43-.69-3.07-.12-6.15.15-9.21-.17-.25-.05-.5-.1-.76-.16-10.21-1.29-19.52,2.71-29.14,4.94-1.91.44-3.72,1.31-5.75,1.03,6.1-4.39,13.58-4.79,20.48-6.38,7.11-1.65,14.54-3.37,21.95-2.46,8.86,1.08,18.13.23,26.35,4.88Z" fill="#798087"/>
      <path d="m58.36,80.03c-5.97.6-12.08-1.24-17.95,1-5.44.98-10.03,3.52-13.93,7.42-1.26,1.26-2.66,2.37-4,3.54-.34,0-.67,0-1.01,0,.56-1.38,2.15-2.25,1.99-3.99,1.66-1.33,3.31-2.67,4.97-4,3.58-2.64,7.91-3.46,11.97-4.96,2-.75,4-.74,6-.01.65,0,1.31,0,1.96,0,3.33-.75,6.65-.78,9.98.02,0,.33,0,.65.02.98Z" fill="#798087"/>
      <path d="m111.16,81.02c-13.19,4.05-26.48,4.43-39.86,1.03,2,0,3.99,0,5.99-.01,3.22,1.41,6.75-.37,9.97.99,1.99,0,3.98,0,5.97,0,2.19-1.28,4.8.35,6.98-.99,3.65-.34,7.3-.68,10.95-1.02Z" fill="#798087"/>
      <path d="m87.26,83.02c-3.31-.44-6.81,1.03-9.97-.99,3.31.44,6.81-1.02,9.97.99Z" fill="#7b838a"/>
      <path d="m58.35,79.04c-3.32,0-6.65-.01-9.97-.02,3.33-1.53,6.65-1.54,9.97.02Z" fill="#7b838a"/>
      <path d="m125.13,77.07c-2.19,2.57-5.18,1.89-7.98,1.97,2.48-1.4,5.14-2.07,7.98-1.97Z" fill="#798087"/>
      <path d="m100.21,82.03c-2.1,1.91-4.66.61-6.98.99,2.11-1.9,4.66-.61,6.98-.99Z" fill="#7b838a"/>
      <path d="m196.87,69.09c1.96-.07,3.71.39,4.99,2-1.94.03-3.69-.43-4.99-2Z" fill="#8b97a1"/>
      <path d="m46.41,79.03c-2,0-4,0-6,.01,2-1.5,4-1.49,6-.01Z" fill="#7b838a"/>
      <path d="m65.33,81.03c-1.68-.23-3.58.65-4.99-.98,1.69.21,3.59-.69,4.99.98Z" fill="#798087"/>
      <path d="m27.44,153.76c-2.31.06-3.12-2.31-4.94-3.04-1.57-2.71-2.81-5.62-5.04-7.91-.31-.34-.62-.68-.93-1.02-2.1-13.47,1.57-26.2,5.48-38.77,3.58-11.53,13.61-17.87,25.54-18.5,10.11-.54,19.66,2.27,29.47,3.4,13.33,1.53,26.35.73,39.32-2.86,10.03-2.77,19.9-6.11,30.04-8.53,16.63-3.97,33.06-4.11,49.46.98.78.24,1.64.19,2.46.32,7.31,2.25,14.17,5.56,20.76,9.37,9.05,5.22,19.07,6.24,29.12,7.26,8.05.82,14.91,4.15,20.84,9.55,1.21,1.82,4.19,2.92,2.42,5.95-3.61-.17-5.67-3.09-8.38-4.83-6.24-4.02-13.02-6.43-20.41-6.58-13.04-.27-24.07-6.24-35.21-11.95-1.18-.61-2.33-1.21-3.65-1.45-3.76-1.39-7.7-2.27-11.39-3.89-1.51-1.13-3.28-.86-5-.91-2.48.09-4.83-.51-7.13-1.36-6.99-.92-13.97-.92-20.95.04-15.49,2.93-30.56,7.54-45.79,11.51-14.42,3.75-28.86,3.34-43.41,1.32-5.74-.79-11.4-2.26-17.2-2.45-17.54-.58-25.23,5.45-29.03,22.54-.18.81-.21,1.64-.44,2.44-1.67,3.84-2.44,7.89-2.81,12.04-.05.5-.15.99-.28,1.47-.85,2.81-.81,5.65-.15,8.49.45,2,.72,4.06,1.97,5.79,2.51,4.16,5.72,7.59,10.16,9.72.81.41,1.61.82,2.42,1.23,1.84,1.09,3.89,1.46,5.96,1.79.52.13,1.03.25,1.55.35,12,1.61,23.97,1.3,36.02.34,6.35-.5,12.81.64,19.2,1.15,2.94.23,5.91.43,8.85.7.53.04,1.06.14,1.57.28,3.56.93,7.2,1.4,10.84,1.91.46.07.91.19,1.35.33,1.46.59,3.03.63,4.57.9.44.08.87.2,1.3.33,3.01,1,6.14,1.33,9.29,1.55.46.08.91.21,1.35.36,2.62,1.2,5.45,1.37,8.26,1.71.51.09,1,.24,1.48.43,7,1.79,14.02,3.39,21.22,4.23,2.05.24,5.66.38,1.99,3.89-7.56.57-14.69-1.86-21.9-3.41-24.1-5.19-48.23-10.13-73.05-9.82-6.6.08-13.16,1.37-19.8.96-7.46-.46-14.79-1.62-21.87-4.09-2.05-.72-3.98-1.65-5.51-3.24Z" fill="#535457"/>
      <path d="m27.44,153.76c11.67,4.56,23.76,6.61,36.28,5.93,3.44-.18,6.87-.89,10.31-.93,25.37-.29,50.05,4.51,74.62,10.19,7.02,1.62,14.22,2.48,21.34,3.69,1.27-.8,2.63-1.47,4.14-1.34,7.96.68,15.54-1.51,23.22-2.97,4.22.55,8.12-2.89,12.45-.99.69.76.62,1.54.03,2.32-4.31,1-8.62,2.01-12.94,3.01-3.3,1.09-7.04.7-9.98,2.96h-2.98c-5.32.11-10.63-.16-15.95,0-.33,0-.66,0-.99,0-1.86-1.16-3.81-1.76-5.99-1-14.13-3.72-28.44-6.59-42.85-8.95-1.41-1.6-3.56-.64-5.19-1.47-.97-.07-1.96.04-2.92-.21-1.76-.44-3.51-.99-5.36-.82-2.15-.23-4.37.51-6.46-.47-.33,0-.66,0-.99-.01-8.83-1.49-17.75-1.25-26.6-.86-6.77.3-13.53.18-20.29.34-1.95-.55-4.01-.33-5.97-.82-1.61-.52-3.4.34-4.95-.65-2.86-1.1-5.75-2.13-8.58-3.32-1.63-.68-3.38-1.39-3.4-3.64Z" fill="#5b6164"/>
      <path d="m198.88,79.04c-5.61-.09-10.77-2.41-16.3-3.19-14.4-2.04-28.29-.27-42.11,3.53-10.29,2.83-20.34,6.45-30.79,8.7-12.77,2.75-25.6,2.8-38.36.35-9.11-1.75-18.18-2.93-27.47-2.44-7.85.41-17.78,8.06-20.37,16.73-3.34,11.19-7.21,22.36-6.04,34.39.15,1.56.57,3.35-.92,4.67-.03-.33-.04-.65-.05-.98-1.19-1.79-1.02-3.99-1.8-5.91-.16-1.05-.16-2.1,0-3.16.72-2.03.92-4.13.83-6.28.13-1.9.33-3.79.96-5.6.97-1.53,1.12-3.22,1-4.97,1.47-5.9,2.6-11.88,5.48-17.36,4.91-9.31,12.73-13.93,23.04-14.46,4.28-.22,8.58-.16,12.88.06,9.48,1.21,18.77,3.76,28.39,3.88,2.81.04,5.61-.06,8.4-.38,4.33.15,8.64.11,12.8-1.35.5-.17,1.01-.29,1.53-.37,2.59-.16,5.04-.85,7.43-1.82,13.31-3.71,26.32-8.58,40.14-10.3,2.03-.14,4.1.17,6.08-.52.49-.15.99-.25,1.5-.32,2.29-.2,4.59-.24,6.87.06.5.06.99.18,1.47.32,2.4.76,4.88.33,7.32.47.99.02,1.96.15,2.92.39,3.02.77,6.09,1.29,9.15,1.85.47.1.92.25,1.37.43,1.5,1.24,4.4.68,4.62,3.57Z" fill="#5b5e61"/>
      <path d="m209.82,169.66c0-.66,0-1.32.01-1.98.95-1.61,2.56-2.01,4.23-2.24,7.87-1.11,15.72-2.34,23.72-2.09,8.64.27,17.25-.38,25.68-2.12,7.35-1.52,14.44-4.02,17.99-11.67,1.32-3.59,1.96-7.28,1.76-11.11.21-2.55-.56-5.24,1.14-7.56,2.82.55,1.79,2.94,2.21,4.63.02,2.21,0,4.43,0,6.64-.54,9.67-4.95,16.58-14.3,19.95-1.78.86-3.63,1.48-5.62,1.59-6.6,1.14-13.17,2.53-19.93,2-3.57,1.33-7.41-.4-10.97.99-8.79-.26-17.46.48-25.93,2.98Z" fill="#61696e"/>
      <path d="m58.35,84.02c-6.56.43-13.27-1.16-19.67,1.09-9.83,3.44-15.62,10.58-18.2,20.55-.81,3.14-.88,6.53-3.01,9.25,1.03-12.57,4.94-23.51,16.94-29.87,2.19-1.16,4.36-2.36,6.99-2.01,4.97-1.04,10-.22,15-.48.55-.01,1.1.02,1.65.1.54.36.64.82.3,1.38Z" fill="#63676c"/>
      <path d="m49.39,161.7c12.01.69,23.93-1.56,35.93-.99,4.05.19,8.06.56,11.9,1.99-15.89,0-31.78.02-47.67-.03-1.74,0-3.68.66-5.15-.96.21-.14.41-.28.62-.42,1.46.07,2.99-.48,4.37.42Z" fill="#61696e"/>
      <path d="m15.5,131.83c0,1,0,1.99,0,2.99.4,1.51,1.63,3.22-.99,3.99,0-.33,0-.66-.01-1-.77-2.99-.76-5.98,0-8.97-.05-3.14-.19-6.31,1.98-8.97,0,1.99.01,3.98.02,5.98-1.29,1.84.25,4.14-.99,5.98Z" fill="#63676c"/>
      <path d="m17.46,142.81c3.86,1.25,5.05,4.2,5.03,7.91-3.02-1.79-4.97-4.25-5.03-7.91Z" fill="#5b5e61"/>
      <path d="m58.35,83.02c-5.65,0-11.3,0-16.95,0,5.21-2.11,10.65-.45,15.95-1,.33,0,.66,0,.99,0,.25.22.34.44.26.66-.08.22-.17.33-.25.33Z" fill="#63676c"/>
      <path d="m167.98,175.64c5.32-1.6,10.63-1.61,15.95,0,0,0,0,.01,0,.01-4.65.78-9.31.79-13.96,0-.66,0-1.33,0-1.99-.01Z" fill="#63676c"/>
      <path d="m169.97,175.66c4.65,0,9.31,0,13.96,0-4.65,1.59-9.31,1.59-13.96,0Z" fill="#636a6f"/>
      <path d="m186.9,175.64c2.56-3.56,6.52-2.43,9.98-2.96-3.08,1.82-6.68,1.91-9.98,2.96Z" fill="#61696e"/>
      <path d="m235.75,166.68c3.49-2.12,7.33-.47,10.97-.99-3.5,2.11-7.33.48-10.97.99Z" fill="#636a6f"/>
      <path d="m113.17,163.71c1.76.42,4.33-1.21,4.99,1.98-1.68-.23-3.59.66-4.99-.98-.34-.22-.46-.45-.34-.67.12-.22.23-.33.35-.33Z" fill="#63676c"/>
      <path d="m161,174.64c2.23-1.07,4.52-2.47,5.99,1-2.11.37-4-.65-5.99-1Z" fill="#63676c"/>
      <path d="m14.5,128.84c0,2.99,0,5.98,0,8.97-1.59-2.99-1.58-5.98,0-8.97Z" fill="#61696e"/>
      <path d="m266.65,163.69c1.3-1.58,3.56-.73,4.98-1.98.34.22.46.45.35.67-.11.22-.23.34-.34.34-1.4,1.33-3.23,1.56-4.99,1.96,0-.33,0-.66,0-.99Z" fill="#636a6f"/>
      <path d="m14.51,138.8c1.45-1.05.84-2.61.99-3.99,1.81,1.76.68,3.99.99,6-.93-.4-1.61-1.05-1.97-2.01Z" fill="#5b6164"/>
      <path d="m98.21,162.71c2.33,0,4.65,0,6.98,0,.33.22.43.44.33.66-.11.22-.21.33-.32.33-2.32-.38-4.87.9-6.98-.98Z" fill="#61696e"/>
      <path d="m113.17,163.71c0,.33,0,.67,0,1-1.99-.34-4.23.79-5.98-1,1-.67,2-.69,3,0,1,0,1.99,0,2.99.01Z" fill="#61696e"/>
      <path d="m110.18,163.7c-1,0-2,0-3,0-.66,0-1.32,0-1.98,0,0-.33,0-.66,0-.99,1.68.23,3.59-.67,4.99.99Z" fill="#63676c"/>
      <path d="m39.41,160.72c1.66,0,3.32,0,4.99,0,.33.22.43.44.33.66-.11.22-.22.33-.32.33,0,0,0,0,0,0-1.68-.24-3.58.65-4.98-.99Z" fill="#61696e"/>
      <path d="m271.64,162.72c0-.34,0-.67,0-1.01,8.66-3.36,13.81-9.29,13.95-18.92.82-2.33.82-4.65,0-6.98-.25-1.68.67-3.59-1-4.98-1.8-1.52-1.85-3.73-2.31-5.78-.91-4.04-2.36-7.82-5.12-11-.52-.49-.94-1.06-1.28-1.69-1.03-2.89-2.7-5.27-5.45-6.8-.38-.32-.72-.66-1.05-1.03-6.67-6.6-14.92-10.12-24.06-10.42-12.32-.41-23.14-4.81-33.68-10.49-5.68-3.07-11.63-5.51-17.75-7.58h0c-2.52-.74-5.05-1.47-7.71-1.57-1.34-.53-2.67-1.04-4.14-1.04-2.58-.63-5.17-.46-7.77-.17-.48.19-.91.1-1.31-.21h0c-2.74-1.04-5.59-.29-8.39-.49-2.89.39-5.81,1.32-8.56-.5,1.87-2.26,5.11.27,6.98-1.99,0,0,0,0,0,0,3.03-1.02,6.16-.22,9.23-.48.56-.01,1.11.03,1.66.13,2.62.84,5.57-.32,8.05,1.34,3.73-.6,7.26,1.02,10.94,1.02.28.4.5,1.08.86,1.16,11.5,2.68,21.12,9.74,32.04,13.77,1.82,1.2,4.02,1.24,5.98,1.99,8.86,2.26,18.32,1.25,26.9,4.98,1.29.75,2.87.92,3.99,1.99,5.46,2.62,9.42,7.15,13.95,10.95,4.91,6.73,8.55,13.94,10.05,22.31,1.66,9.24,1.15,18.02-3.07,26.48-4.04,2.24-6.66,6.9-11.95,6.99Z" fill="#686c72"/>
      <path d="m156.02,72.07c2.99,0,5.98,0,8.98,0,.33.22.43.44.32.66-.11.22-.22.33-.33.33-.33,0-.66,0-.99,0-1.84,1.24-4.15-.3-5.98.99-11.11,1.23-21.75,4.47-32.33,7.83-2.82.9-5.77,1.11-8.52,2.14-.9.8-2.04.32-3.04.57-.44-.02-.83-.17-1.16-.46-.2-.42-.14-.79.22-1.1,12.61-3.03,24.68-7.98,37.48-10.39,1.8-.34,3.56-.53,5.37-.58Z" fill="#63676c"/>
      <path d="m74.3,85.01c9.63.68,19.26.68,28.89,0,0,.29,0,.58,0,.87-6.15,2.08-12.53,1.81-18.82,1.47-3.35-.18-6.85-.18-10.08-1.48,0-.29.01-.58.02-.87Z" fill="#6a6f75"/>
      <path d="m58.35,83.02c0-.33,0-.66,0-.99,5.56-.3,10.79,1.17,15.95,2.98,0,0,0,.01,0,.01-5.6,1.61-10.64-1.27-15.94-2h0Z" fill="#6a6f75"/>
      <path d="m113.17,83.03c0,.33,0,.66-.01.98-1.33,1.31-2.85,1.08-4.41.55-.19-.18-.38-.37-.57-.55,1.4-1.65,3.31-.76,4.99-.98Z" fill="#6a6f75"/>
      <path d="m103.2,85.01c1.4-1.65,3.3-.75,4.98-.99,0,0,.01.01.01.01-1.11,3.1-3.03,2.16-4.98.99h0Z" fill="#6a6f75"/>
      <path d="m231.77,89c-2.24.08-4.41-.06-5.98-1.99,2.19.08,4.26.53,5.98,1.99Z" fill="#70767c"/>
      <path d="m262.66,95.98c-1.58-.17-2.97-.71-3.99-1.99,1.71-.1,3.24.16,3.99,1.99Z" fill="#6f767b"/>
      <path d="m172.96,70.08c-3.32,0-6.64,0-9.97,0,3.15-2.03,6.66-.55,9.97-1,.33.22.43.44.32.67-.11.22-.22.33-.33.33Z" fill="#70767c"/>
      <path d="m172.96,70.08c0-.33,0-.67,0-1,2.65.43,5.53-.98,7.98.99-2.33.77-4.66.75-6.99,0h-.5s-.5,0-.5,0Z" fill="#71777e"/>
      <path d="m173.96,70.08c2.33,0,4.66,0,6.99,0,.33.33.66.66.99.99-2.65-.41-5.53.99-7.99-.98Z" fill="#70767c"/>
      <path d="m180.94,78.04c2.29.57,4.56,1.31,6.98,1,1.48,1.22,3.49-.17,4.98,1,3.65,1.33,7.31,2.66,10.96,3.98.32.59.19,1.07-.36,1.44-4.88,1.29-9.02-1.61-13.44-2.63-15.56-3.59-30.78-2.85-46.15,1.35-9.9,2.71-19.62,6-29.6,8.51-16.01,4.02-31.86,3.25-47.82.28-7.84-1.46-15.65-2.24-23.69-.89-5.65.95-9.39,3.92-12.06,8.55-2.91,5.05-4.98,10.46-6.01,16.24-.37,2.05-.49,4.39-3.09,5.18-1.68-2.61.06-4.83.83-7.15,2.21-21.54,13.56-29.07,34.1-26.47,13.59,1.72,27.06,4.39,40.81,3.5,11.92-.77,23.26-4.5,34.66-7.76,8.88-2.53,17.86-4.63,26.97-6.12,7.31-.78,14.62-.78,21.93,0Z" fill="#4d4e50"/>
      <path d="m34.43,153.74c-.82-.02-1.56-.19-1.99-1-1.38-1.17-3.27-1.6-4.44-3.08-.84-1.06-1.28-2.02.57-2.46,8.3,3.82,16.7,6.92,26.08,7.11,6.34.13,12.55-.93,18.84-.96,17.94-.08,35.66,1.59,53.28,5.2,13.13,2.69,26.21,5.65,39.43,7.91,10.05,1.72,19.84.95,29.41-2.31,14.28-4.87,29.07-6.27,44-6.79,4.63-.16,9.26.1,13.88-.79,2.37-.46,4.98-.74,7.18.98-.57,3.42-3.68,3.19-5.76,3.25-5.64.18-11.22,1.38-16.83,1.19-12.9-.43-25.61.99-37.67,5.31-15.7,5.62-31.15,4.04-46.75.39-2.86-.67-5.83-.93-8.6-2h0c-2.95-.85-6.06-.96-8.97-1.99h0c-3.64-.77-7.39-.89-10.96-1.99h0c-1.48-1.22-3.49.17-4.98-1h0c-3.93-1.01-7.99-1.22-11.96-1.99h0c-3.16-1.05-6.53-.89-9.75-1.1-6.74-.44-13.56-2.02-20.18-1.19-7.61.95-15.15.38-22.71.79-5.13.28-10.12-.66-15.13-1.49h0c-1.95-.81-4.13-.89-5.98-1.99Z" fill="#4a4e50"/>
      <path d="m145.06,165.69c5.33.99,10.67,1.94,15.99,2.97,14.58,2.8,28.67,1.04,42.67-3.68,8.9-3,18.23-4.41,27.72-4.28,9.24.13,18.43-.67,27.57-2.04.59-.09,1.11-.61,1.66-.93,2.78-2.51,6.53-2.71,9.79-4.07,5.65-.89,8.73-8.33,8.91-15.27.07-2.56-1.46-5.12.03-7.66.72-.49,1.47-.52,2.25-.16.61.58.91,1.32,1.07,2.12.22,1.84.23,3.72.76,5.52.35,3.91-.76,7.59-1.81,11.27-3.67,8.01-11.22,10.47-18.77,12.03-9.69,2.01-19.64,2.18-29.57,2.24-12.1.07-23.97,1.98-35.46,5.91-9.19,2.03-18.4,3.82-27.89,2.97.99-2.99-1.39-1.8-2.52-1.95-7.62-1-15.28-1.82-22.41-5Z" fill="#4b5052"/>
      <path d="m281.59,130.83h-1.98c-2.54-2.4-1.94-6.17-3.9-8.83-7.57-14.75-20.15-21.03-36.21-21.79-8.33-.4-16.21-2.75-23.36-7.16-2.96-1.83-6.46-2.55-9.28-4.63-1.24-.92-3.25-1.18-2.99-3.41,0-.33,0-.67,0-1,5.49,1.69,10.53,4.36,15.48,7.21,8.05,4.62,17.12,5.94,26.03,6.46,9.92.58,17.27,5.56,24.65,11.1.52.39,1.08.75,1.61,1.12.2.11.39.22.59.32,2.13,2.04,3.51,4.7,5.64,6.74,2.78,4.21,5.18,8.51,3.71,13.85Z" fill="#4e4f52"/>
      <path d="m193.9,76.05c8.48.29,15.59,4.78,22.47,8.67,9.56,5.42,19.61,7.2,30.16,8.36,9.33,1.03,18.01,3.97,24.11,11.85-.66.64-1.33.56-2,0-8.42-7.13-18.29-9.67-29.18-10.1-10.43-.41-19.39-5.72-28.5-10.3-3.95-1.99-8.06-3.68-12.09-5.5-1.3-1.6-3.88-1.08-4.98-3Z" fill="#5e6265"/>
      <path d="m268.64,104.94c.67,0,1.33,0,2,0,0,0,0,0,0,0,2.73,1.69,4.05,4.6,5.98,6.98.33.33.66.67.99,1,4.46,7.06,6.76,14.71,6.48,23.1-.03.94-.27,1.97.5,2.79.05,3.78-.25,7.5-2,10.95-1.14.64-1.42-.45-1.98-.99,1.21-3.56,2.05-7.18,1.96-10.97-1.14-1.49.25-3.49-.98-4.97,0-.67,0-1.33-.01-2-1.03-4.87-1.79-9.84-4.97-13.95-.98-2.81-3.35-4.63-4.99-6.97,0,0,0,0,0,0,.1-2.32-2.29-3.14-2.99-4.98Z" fill="#575d61"/>
      <path d="m40.41,155.73c9.53,1.3,19.19,1.65,28.69.8,9.11-.82,18.08.14,27.11.22,4.08.04,8.11.54,11.98,1.98-9.69-.66-19.45-2.32-29.06-1.7-9.27.59-18.49.35-27.73.69-3.78.14-7.43-.68-10.98-1.97Z" fill="#4b5052"/>
      <path d="m19.48,127.84c0-.33,0-.66,0-.99,1.56-.84-1.09-4.15,2.3-3.91,1.2,1.63,1.12,3.49.64,5.25-1.04,3.85-.6,7.54.77,11.19.26,1.11.25,2.19-.32,3.21-.41.51-.88.57-1.41.2-1.94-1.57-2.08-3.73-1.99-5.98-.76-2.99-.76-5.98,0-8.97Z" fill="#4d4e50"/>
      <path d="m21.47,142.79c.33,0,.67,0,1,0,3.21.11,4.9,1.75,4.98,4.98.81,2.51,3.95,2.69,4.98,4.98-5.4-1.4-8.43-5.41-10.97-9.96Z" fill="#4b5052"/>
      <path d="m180.94,78.04c-7.31,0-14.62,0-21.93,0,7.31-1.65,14.62-1.65,21.93,0Z" fill="#4e4f52"/>
      <path d="m21.48,122.86c-1.62.85-.37,3.13-1.99,3.98.16-4.19.27-8.4,2.99-11.95-.33,2.33-.66,4.65-.99,6.98.22.22.3.44.22.66-.08.22-.15.33-.23.33Z" fill="#4b5052"/>
      <path d="m108.18,158.72c4.11-.08,8.18.1,11.96,1.99-4.11.05-8.12-.44-11.96-1.99Z" fill="#4b5052"/>
      <path d="m125.13,161.71c3.78-.05,7.43.67,10.96,1.99-3.79.06-7.57.12-10.96-1.99Z" fill="#4b5052"/>
      <path d="m136.09,163.7c3.15-.07,6.21.29,8.97,1.99-3.15.03-6.32.21-8.97-1.99Z" fill="#4b5052"/>
      <path d="m19.48,127.84c0,2.99,0,5.98,0,8.97-1.59-2.99-1.59-5.98,0-8.97Z" fill="#4b5052"/>
      <path d="m34.43,153.74c2.19.08,4.25.53,5.98,1.99-2.24.08-4.41-.05-5.98-1.99Z" fill="#4b5052"/>
      <path d="m120.14,160.71c1.68.24,3.59-.67,4.98,1-1.68-.24-3.59.67-4.98-1Z" fill="#4b5052"/>
      <path d="m192.9,80.04c-1.68-.24-3.59.67-4.98-1,1.68.24,3.59-.67,4.98,1Z" fill="#4e4f52"/>
      <path d="m280.61,148.76c.66.33,1.32.66,1.98.99-2.2,7.51-8.8,9.77-15.06,11.85-7.67,2.56-15.84,2.97-23.87,3-11.39.04-22.68.62-33.82,3.08-3.99.66-7.98,1.33-11.96,1.99,6.46-4.08,13.89-4.75,21.15-5.96,11.94-1.98,24.06-.47,36.05-1.95,8.35-1.03,16.17-3.01,22.79-8.54,1.5-1.25,2.54-2.54,2.75-4.46Z" fill="#575d61"/>
      <path d="m44.4,161.71c0-.33,0-.66,0-.99,1.68.23,3.59-.67,4.99.98-1.66,0-3.32,0-4.99,0Z" fill="#63676c"/>
      <path d="m103.2,85.02c1.68-.24,3.59.65,4.98-.99,1.66,0,3.31,0,4.97-.01,0,0,0,.01,0,.01.29,2.61-2.41.69-3,1.98-.33,0-.66,0-.99,0-4.18,1.57-8.67,1.11-12.96,1.99-12.84.7-25.4-1.2-37.87-3.99,0-.33,0-.66,0-1,5.48-.68,10.46,2.68,15.94,2,9.64,2.53,19.27,2.54,28.91,0Z" fill="#63676c"/>
      <path d="m96.22,88.01c4.18-1.55,8.61-1.5,12.96-1.99-4.04,2.5-8.54,1.93-12.96,1.99Z" fill="#5f6266"/>
      <path d="m185.93,74.06c2.84-.08,5.63.06,7.97,1.99-3.47.08-6.81-.51-9.97-1.98.67-.56,1.34-.58,2.01,0Z" fill="#5e6265"/>
      <path d="m164.99,73.06c0-.33,0-.66,0-.99,2.64.44,5.52-1,7.97.99-2.66,0-5.32,0-7.98,0Z" fill="#5f6266"/>
      <path d="m110.17,86.01c1-.66,2-1.32,3-1.98,1.33,0,2.66,0,3.99,0-2.04,1.66-4.45,2.05-6.98,1.98Z" fill="#5f6266"/>
      <path d="m172.97,73.06c.33,0,.66,0,.99-.01,2.18-.92,4.44-.34,6.66-.37.59.35.7.81.32,1.38-2.64-.44-5.52,1-7.97-1Z" fill="#5e6265"/>
      <path d="m15.5,131.83c.32-2-.81-4.23.99-5.98-.32,2,.82,4.23-.99,5.98Z" fill="#5b6164"/>
      <path d="m158.01,74.06c1.75-1.8,3.99-.67,5.98-.99-1.75,1.81-3.99.67-5.98.99Z" fill="#5e6265"/>
      <path d="m180.94,74.06c0-.33,0-.66,0-.99.33-.4.66-.38,1,0,1.38.14,2.94-.45,3.99.99-.67,0-1.34,0-2.01,0-1,0-1.99,0-2.99,0Z" fill="#5f6266"/>
      <path d="m284.59,138.8c-2.22-2.95-.58-6.41-1.27-9.61-1.23-5.7-3.7-10.9-5.71-16.28,5.12,4.89,5.84,11.49,6.98,17.92v7.97Z" fill="#5e6265"/>
      <path d="m285.59,135.81c1.56,2.33,1.56,4.65,0,6.98,0-2.33,0-4.65,0-6.98Z" fill="#636a6f"/>
      <path d="m276.62,111.91c-2.92-1.53-4.2-4.47-5.98-6.98,3.65.9,5.23,3.58,5.98,6.98Z" fill="#5e6265"/>
      <path d="m181.94,73.06c-.33,0-.67,0-1,0-2.33,0-4.65-.01-6.98-.02,2.66-1.52,5.32-1.52,7.98.01Z" fill="#63676c"/>
      <path d="m21.48,122.86c0-.33,0-.66,0-.99,3-4.87,2.35-10.89,5.05-15.88,2.1-3.9,3.49-8.14,7.1-11.16,7.55-6.3,16.56-5.62,25.05-4.35,13.92,2.08,27.77,4.61,41.85,3.38,9.68-.85,19.01-3.76,28.32-6.65,14.66-4.56,29.38-9.2,45.06-8.13,9.23.63,18.25,2.52,27.03,5.46.92.31,1.94.33,2.92.49,13.26,8.51,27.37,14.33,43.44,15.03,12.79.55,24.68,10.47,29.32,21.82,2.37,5.79,2.83,11.9,3.11,18.05.04.88-.3,1.56-1.03,2.05-1.98-.04-2.01-1.63-2.36-2.96-.93-6.35-1.2-12.86-4.41-18.67-5.92-10.72-15.97-15.04-27.26-16.88-6.53-1.06-13.1-1.87-19.55-3.36-2.79-.64-5.24-2.04-7.66-3.5-15.31-9.25-31.82-14.61-49.8-14.11-11.98.33-23.45,3.94-34.92,7.19-11.77,3.33-23.4,7.27-35.68,8.4-5.31.49-10.59.46-15.82-.78-2.13-.44-4.21-1.15-6.44-.93-5.82.39-11.33-1.62-17.02-2.31-4.1-.49-8.16-.61-12.24-.64-2.21-.16-4.39-.15-6.27,1.29-4.82,3.05-8.09,7.34-10.13,12.62-.97,1.7-1.49,3.52-1.4,5.49-1.51,7.06-4.74,13.8-3.89,21.29-.15,1.98.31,4.1-1.38,5.7-2.43-3.27-2.47-6.97-1.53-10.65.54-2.11.44-4.18.53-6.28Z" fill="#464849"/>
      <path d="m277.61,138.8c.04,1.09-.18,2.27,1,2.99.61.52.53,1.18.39,1.85-.48,1.5-.9,3.02-1.6,4.45-1.57,2.91-3.92,5.03-6.76,6.65-3.26,1.22-6.42,2.74-9.96,2.99-15.65,1-31.36,1.04-46.92,3.12-5.03.67-10.07,2.05-14.84,3.8-13.86,5.1-27.73,4.83-41.93,1.6-17.99-4.09-36.02-8.42-54.37-10.18-12.57-1.2-25.26-2.13-38.1-.65-12.15,1.4-24.49.41-35.18-7.09-.51-.36-1.24-.38-1.87-.56-1.27-2.05-2.93-3.71-4.98-4.98,0-1,0-1.99,0-2.99,0-1.99,0-3.99,0-5.98,3.13.62,2.1,3.95,3.66,5.59,1.47,3.83,4.07,6.45,8.06,7.62,12.81,5.71,26.36,4.59,39.74,3.97,11.98-.55,23.83.35,35.63,1.95,18.91,2.57,37.39,7.43,56.14,10.91,11.25,2.08,22.14.5,32.79-3.09,11.28-3.8,22.83-5.64,34.7-5.39,9.13.19,18.17-.86,27.2-1.93,3.58.21,6.77-.68,9.3-3.37.51-.52,1.09-.96,1.72-1.33,2.85-1.18,3.33-3.76,3.92-6.36.32-1.4-.3-3.55,2.27-3.58Z" fill="#444749"/>
      <path d="m270.63,154.74c1.99-2.32,3.99-4.64,5.98-6.97,1.13-1.1,1.3-2.67,1.99-3.99,0-.66,0-1.33,0-1.99.77-6.78-.8-13.33-1.99-19.92,2.44,2.51,2.38,5.85,2.99,8.96,1.53,6.76,1.8,13.42-2.35,19.42-1.54,2.24-3.21,4.78-6.63,4.48Z" fill="#4a4e50"/>
      <path d="m281.6,132.83c1.66,1.39.76,3.29.98,4.97-1.64-1.4-.73-3.29-.98-4.97Z" fill="#4e4f52"/>
      <path d="m271.63,109.92c2.35,1.83,5.16,3.34,4.99,6.97-2.1-2.01-4.2-4.02-4.99-6.97Z" fill="#535457"/>
      <path d="m277.61,138.8c-1.94,1.93-.64,4.65-1.73,6.9-.98,2.02-1.75,3.82-4.25,4.06-.14-4.66,2.53-8.94,1.8-13.67,1.32-15.33-11.96-29.14-27.89-30.29-13.86-1-26.42-5.29-38.36-12.07-7.24-4.11-14.82-7.3-23.36-7.41-1.84.02-3.62-.38-5.39-.83-5.81-.97-11.62-1.95-17.42.02-.46.12-.94.16-1.41.17-2.69-.5-5.23.42-7.83.88-.42.14-.85.24-1.28.34-2.43.24-4.78.77-7.03,1.73-.44.18-.88.31-1.34.43-4.07.81-7.87,2.38-11.68,3.96-7.96,2.26-15.85,4.96-24.01,6.31-10.49,1.74-21.01,1.52-31.57-.26-9.52-1.6-18.87-5.44-28.84-2.93-5.99,1.51-10.97,3.86-13.3,10.43-3.21,9.05-6.62,17.96-5.99,27.81.11,1.64.13,3.33-.72,4.86-.19.19-.39.39-.58.58-2.3-1.34-1.27-4.34-2.99-5.98-.23-6.12.7-12.03,3.33-17.6.67-1.41.64-2.84.66-4.31.91-1.56,1.16-3.39,1.99-4.98,1.41-5.79,5.07-9.84,9.97-12.95,1.85-1.1,4.03-1.18,5.98-1.99,8.46-.36,16.73.88,24.96,2.77,1.9.44,3.95.16,5.94.22,1.99.36,3.78,1.89,5.98,1,13.74,2.71,26.73-.82,39.82-4.37,11.13-3.01,22.13-6.48,33.47-8.81,14.35-2.95,28.07-1.67,41.88,2.82,8,2.6,15.47,5.88,22.59,10.35,7.32,4.59,15.98,4.82,24.27,5.95,12.92,1.77,23.94,6.68,30.35,18.69,2.97,5.56,3.27,11.99,3.95,18.2Z" fill="#424344"/>
      <path d="m81.27,95.97c-2.36,1.88-4.11.09-5.98-1,2.11-.36,3.99.67,5.98,1Z" fill="#444749"/>
      <path d="m44.4,91.99c-1.73,1.46-3.79,1.9-5.98,1.99,1.57-1.94,3.74-2.07,5.98-1.99Z" fill="#444749"/>
      <path d="m28.45,106.93c.06,1.95-.41,3.69-1.99,4.98-.06-1.95.41-3.69,1.99-4.98Z" fill="#444749"/>
      <path d="m261.66,154.73c-12.12,1.7-24.33,1.73-36.53,2.21-7.75.31-15.67,1.34-23.12,4.19-7.74,2.96-15.83,4.57-24.01,5.38-3.86.38-7.92-.25-11.77-1.01-15.01-2.95-29.92-6.44-44.97-9.11-10.34-1.83-20.74-3.24-31.31-3.86-13.85-.81-27.66,1.43-41.47-.15-5.64-.65-10.87-2.44-16.03-4.61-.39-1.12-2.16-1.99-.62-3.46,1.08-.52,2.17-.42,3.27-.07,6.01,1.99,12.11,3.09,18.51,3.16,15.4.18,30.82-.87,46.2.8,13.53,1.47,26.87,4.02,40.16,6.82,7.79,1.64,15.62,3.05,23.37,4.82,11.69,2.67,23,1.17,34.29-2.32,9.49-2.93,19.07-5.67,29.19-5.15,5.75,1.65,11.68.63,17.51,1.11,1.85.15,3.57-.35,5.16-1.3.71-.25,1.44-.34,2.18-.29,3.15,1.58,6.81-.12,9.95,1.55.25.28.33.57.27.86-.07.3-.14.44-.22.44Z" fill="#3e4143"/>
      <path d="m261.66,153.74c-3.31-.48-6.85,1.44-9.97-1,1.05-3.41,4.25-2.42,6.55-2.98,2.55-.63,5.24-.65,7.58-2.1,3.11-1.93,5.48-4.28,5.36-8.29-.05-1.69-.02-3.39,2.05-4.03.54-.07,1,.09,1.39.48.41,4.95-.39,9.64-2.99,13.94-.33.33-.67.66-1,1-2.96,1.07-5.25,4.18-8.97,2.99Z" fill="#3d4042"/>
      <path d="m31.44,144.78c.33,1,.67,1.99,1,2.99-3.56-1.57-6.32-3.85-6.98-7.97,0,0,0,0,0,0,3.37.01,4.72,2.44,5.98,4.98Z" fill="#424344"/>
      <path d="m261.66,153.74c3.35.08,5.67-2.91,8.97-2.99-2.27,2.95-5.36,4.04-8.97,3.98,0-.33,0-.66,0-.99Z" fill="#424344"/>
      <path d="m278.61,143.78c.1,1.71-.18,3.23-1.99,3.99.16-1.58.69-2.97,1.99-3.99Z" fill="#464849"/>
      <path d="m31.44,144.78c-1.99-1.66-3.98-3.32-5.98-4.98-1.38-12.95,2.23-24.97,7.16-36.65,2.11-5,7.15-6.59,11.82-8.09,7.89-2.54,15.82-.75,23.44,1.14,16.93,4.2,33.59,3.99,50.28-1.03,4.24-1.27,8.38-3.13,12.94-3.17,3.8-1.9,8.1-2.29,11.96-3.98h0c2.61-.86,5.38-1.05,7.97-1.99,2.61-.68,5.3-.76,7.97-1,.33,0,.66,0,1,0,4.67-1.11,9.38-1.3,14.14-.65,1.6.22,3.26.56,4.8-.34,1.54.95,3.23,1.1,4.98,1,.98.88,2.26.25,3.32.64,1.31.48,2.52,1.09,1.29,2.79-1.09.56-2.27.55-3.41.31-18.12-3.82-35.32.66-52.34,6.02-12.4,3.91-24.91,7.03-37.86,8.33-7.38.74-14.55-.61-21.78-1.62-7.55-1.05-14.95-3.21-22.66-3.1-9.25.13-14.49,4.1-16.92,13.1-1.38,5.12-3.17,10.15-3.85,15.44-2.39,5.81-1.24,10.77,3.51,14.92.83.73,1.69,1.59,1.21,2.94-1,0-1.99,0-2.99,0Z" fill="#3f3f41"/>
      <path d="m188.91,88.01c-.7-2.6-3.75-1.29-4.98-2.99,10.67.03,19.51,5.23,28.51,10.03,10.25,5.46,21.08,8.61,32.81,9.36,15.79,1,30.79,14.51,29.37,31.41h-1c-2.54-2.88-1.76-7.11-4.1-10.08-6.35-12.3-16.83-17.85-30.29-18.22-10.62-.29-20.08-3.95-28.96-9.43-5.12-3.17-10.68-5.27-16.39-7.06-1.89-.59-3.84-1.15-4.97-3.02Z" fill="#404041"/>
      <path d="m178.94,84.02c-6.22,2.17-12.64.43-18.94,1,4.33-2.42,8.98-2.47,13.63-1.53,1.78.36,3.52.49,5.3.53Z" fill="#404041"/>
      <path d="m143.07,88.01c-3.43,3-7.93,2.8-11.96,3.98,3.57-2.59,7.61-3.75,11.96-3.98Z" fill="#404041"/>
      <path d="m151.04,86.01c-2.34,1.94-5.13,2.08-7.97,1.99,2.34-1.94,5.13-2.08,7.97-1.99Z" fill="#404041"/>
      <path d="m159.01,85.02c-2.51,1.54-5.29.84-7.97,1,2.6-.81,5.06-2.7,7.97-1Z" fill="#404041"/>
      <path d="m270.63,125.85c2.46,2.88,2.21,6.58,2.99,9.96-.92.47-1.44,1.01-1.4,2.26.24,6.76-4.46,12.13-11.14,12.63-3.25.25-6.41.66-9.39,2.04h-1.99c-5.59,2.2-11.38.28-17.07.77-1.58.14-3.24-.2-4.86.23-8.9-.84-17.58,1.09-25.69,4.01-16.39,5.89-32.52,5.65-49.16,1.54-16.46-4.06-33.15-7.26-49.96-9.43-17.48-2.26-35.12-.64-52.68-1.2-5.43-.17-11.13-.33-15.85-3.88-1.49-2.38-4.3-3.52-5.6-6.14-1.77-3.58-2.5-7.11-.38-10.79,2.01-.16,1.87,1.48,2.12,2.66,2.38,10.97,13.97,16.52,23.67,11.28,22.25-1.86,44.35-1.3,66.38,2.79,12.25,2.27,24.48,4.61,36.59,7.5,13.93,3.32,27.53,3.16,41.12-1.8,15.13-5.52,31.01-5,46.78-4.96,4.8.33,9.25,2.37,14.49.62,6.69-2.23,8.98-4.11,9.62-11.52.25-2.88-.8-6,1.4-8.57Z" fill="#3a3d3f"/>
      <path d="m227.78,153.74c3.14-2.04,6.62-.75,9.93-.94,3.99-.23,8-.05,12-.05-.8,1.79-2.35,2.14-4.07,1.98-5.94-.55-11.98.7-17.86-.98Z" fill="#3d4042"/>
      <path d="m53.37,142.79c-1.08,2.12-2.75,3.33-5.18,2.96-7.05-1.08-13.21-3.8-17.82-9.53-2.06-2.55.42-5.98-1.92-8.37.18-7.21,2.18-14.23,5.09-20.51,4.77-10.29,10.23-11.76,24.75-9.8,10.1,1.36,20.06,4.19,30.26,4.29,14.99.16,29.31-3.87,43.54-8.26,13.55-4.19,27.17-8.51,41.66-7.5,5.07.35,10.11,1.28,15.16,1.94,10.01,2.97,19.47,7.05,28.4,12.56,8.1,5,17.55,5.56,26.72,6.27,12.87,1,21.23,7.79,26.6,19.01-.04,5.39.36,10.75-1.9,15.97-1.33,3.07-3.03,4.41-6.37,5.09-5.65,1.14-11.11,1.59-16.65-.14.9-3.46,3.62-1.9,5.63-1.89,4.87.02,9.62-.04,12.96-4.43.6-.79,1.56-1.53,1.48-2.5-.52-6.02-.52-12.26-5.85-16.6-5.02-5.92-11.24-8.52-19.15-8.76-12.33-.37-23.54-4.89-34.21-11.05-19.21-11.1-39.62-12.35-60.52-5.86-8.37,2.6-16.75,5.21-24.99,8.33-11.73,4.45-24.2,5.43-36.73,5.19-3.91-.08-7.29-2.13-11.03-2.91-5.69-1.18-11.45-1.88-17.16-2.92-10.77-1.96-15.94,1.17-18.78,11.61-1.63,5.39-2.27,10.92-2.57,16.52-.2,3.76,1.39,5.79,4.92,7.52,4.41,2.16,9.41,1.44,13.64,3.77Z" fill="#3c3c3d"/>
      <path d="m53.37,142.79c-5.94,1-11.2-1.37-16.54-3.35-2.08-.77-3.23-2.34-3.32-4.46-.3-6.87.24-13.64,2.92-20.08,1.97,2.15,1.2,4.66.92,7.09-.83,7.31,1.31,9.81,8.65,9.38,9.84-.57,19.07-4.15,28.56-6.38,13.75-3.23,27.43-6.39,41.7-5.54,5.01.3,10.03,1.26,14.54,3,15.44,5.94,31.38,7.45,47.48,5.39,22-2.8,43.26,1.01,64.55,5.35,4.1.84,8.2,1.11,12.33,1.44,5.68.46,8.15-2.47,6.77-8.06-.46-1.89-1.9-3.57-1.26-5.7,5.27,2.14,4.89,7.34,5.83,11.56.66,2.98,2.02,5.92-1.37,9.37-4.25,4.31-8.82,4.31-13.82,4.27-1.92-.01-3.89-.97-5.58.7-13.7,0-27.42-.36-40.87,2.99-.96.24-1.94.46-2.85.84-16.98,7.11-34.02,5.89-51.51,1.59-19.68-4.83-39.65-8.1-59.97-9.71-12.5-.99-24.77,1.56-37.14.3Z" fill="#383b3c"/>
      <path d="m260.67,120.87c2.29,3.67,4.03,7.1,2.37,11.95-1.25,3.64-2.68,3.94-6.01,3.73-17.81-1.13-34.84-7.03-52.73-8-8.5-.46-16.7.65-25.05,1.02-16.19.72-32.2.64-47.77-5.38-10.09-3.9-20.85-4.24-31.65-2.73-16.36,2.29-32.22,6.64-48.08,11.04-3.85,1.07-7.9-.13-11.86.79-1.91.44-5.14-6.78-4.27-10.04.74-2.79.81-5.55.81-8.36-.46-7.43,7.45-14.72,17.46-13.52,12.92,1.56,25.14,7.54,38.33,6.42,11.26-.95,22.25-2.68,33.17-6.87,12.17-4.67,24.76-8.93,38.17-10.09,17-1.47,32.22,2.66,46.71,11.22,10.39,6.14,21.79,9.31,33.93,9.39,7.31.04,12.49,3.67,16.48,9.43Z" fill="#39393b"/>
    </g>
    <g id="e" data-name="Group 550">
      <path id="f" data-name="Path 4187" d="m187.17,135.92c-.04-1.82-.23-3.63-.55-5.41-.44-5.02,1.5-9.96,5.24-13.34l3.36,7.24c2.1,4.54,4.26,9.35,3.73,14.33-.38,2.47-1.3,4.83-2.68,6.91,4.25-1.1,5.88-5.46,6.65-9.3,3.6,5.46,4.73,16.36-1.11,20.76-2.76,2.08-6.49,2.2-9.94,2.23-3.75.03-7.64.04-11.04-1.53-1.74-.75-3.19-2.04-4.13-3.69-.81-1.36-1.22-2.92-1.2-4.51.38-2.7,2.5,1.19,3.47,1.83,1.24.81,2.72,1.17,4.2,1.03-2.76-2.05-4.79-4.93-5.79-8.22-.88-2.76-1.71-7.3.6-9.54,1.12-1.07,2.68-1.55,4.21-1.29-.64.65-1.24,1.34-1.8,2.06-1.12,1.95-.41,4.26,1.79,4.82,2.9.75,4.82-1.63,4.98-4.37Z" fill="#f69320"/>
      <path id="g" data-name="Path 4188" d="m187.07,153.85c.3-.16.46-.5.39-.84-.16-.75-1.9-1.5-2.46-1.96-1.01-.84-1.92-1.79-2.72-2.83-1.89-2.45-2.61-5.21-3.4-8.14.74,2.73,4.18,4.06,6.67,3.55,2.45-.55,4.38-2.44,4.97-4.88.49-2.15-.15-4.38-.44-6.57s-.1-4.71,1.57-6.15c2.95,2.55,3.95,6.82,3.5,10.69-.48,4.16-1.16,8.51-3.78,11.94.34-.55.96-.87,1.61-.8.63.07,1.25.23,1.83.47,1.51.5,3.12.64,4.69.42.75-.14,1.45-.48,2.04-.97.61-.59,1.07-1.31,1.34-2.12.58,3.5-.68,7.05-3.34,9.4-3.92,3.39-11.03,2.82-15.57,1.22-1.31-.41-2.46-1.22-3.3-2.31,2.01,1.07,4.44,1.03,6.4-.13Z" fill="#ffce07"/>
    </g>
    <g id="h" data-name="Group 553">
      <circle id="i" data-name="Ellipse 401" cx="190.68" cy="176.44" r="24.31" fill="#665e94"/>
      <g id="j" data-name="Group 551">
        <circle id="k" data-name="Ellipse 402" cx="214.39" cy="176.44" r="3.03" fill="#665e94"/>
        <circle id="l" data-name="Ellipse 403" cx="211.21" cy="164.58" r="3.03" fill="#665e94"/>
        <circle id="m" data-name="Ellipse 404" cx="202.53" cy="155.91" r="3.03" fill="#665e94"/>
        <circle id="n" data-name="Ellipse 405" cx="190.68" cy="152.73" r="3.03" fill="#665e94"/>
        <circle id="o" data-name="Ellipse 406" cx="178.83" cy="155.91" r="3.03" fill="#665e94"/>
        <circle id="p" data-name="Ellipse 407" cx="170.15" cy="164.58" r="3.03" fill="#665e94"/>
        <circle id="q" data-name="Ellipse 408" cx="166.97" cy="176.44" r="3.03" fill="#665e94"/>
        <circle id="r" data-name="Ellipse 409" cx="170.15" cy="188.29" r="3.03" fill="#665e94"/>
        <circle id="s" data-name="Ellipse 410" cx="178.83" cy="196.97" r="3.03" fill="#665e94"/>
        <circle id="t" data-name="Ellipse 411" cx="190.68" cy="200.14" r="3.03" fill="#665e94"/>
        <circle id="u" data-name="Ellipse 412" cx="202.53" cy="196.97" r="3.03" fill="#665e94"/>
        <circle id="v" data-name="Ellipse 413" cx="211.21" cy="188.29" r="3.03" fill="#665e94"/>
      </g>
      <g id="w" data-name="Group 552">
        <circle id="x" data-name="Ellipse 414" cx="213.58" cy="170.3" r="3.03" fill="#8c85ae"/>
        <circle id="y" data-name="Ellipse 415" cx="207.44" cy="159.67" r="3.03" fill="#8c85ae"/>
        <circle id="z" data-name="Ellipse 416" cx="196.82" cy="153.54" r="3.03" fill="#8c85ae"/>
        <circle id="aa" data-name="Ellipse 417" cx="184.54" cy="153.54" r="3.03" fill="#8c85ae"/>
        <circle id="ab" data-name="Ellipse 418" cx="173.92" cy="159.67" r="3.03" fill="#8c85ae"/>
        <circle id="ac" data-name="Ellipse 419" cx="167.78" cy="170.3" r="3.03" fill="#8c85ae"/>
        <circle id="ad" data-name="Ellipse 420" cx="167.78" cy="182.57" r="3.03" fill="#8c85ae"/>
        <circle id="ae" data-name="Ellipse 421" cx="173.92" cy="193.2" r="3.03" fill="#8c85ae"/>
        <circle id="af" data-name="Ellipse 422" cx="184.54" cy="199.34" r="3.03" fill="#8c85ae"/>
        <circle id="ag" data-name="Ellipse 423" cx="196.82" cy="199.34" r="3.03" fill="#8c85ae"/>
        <circle id="ah" data-name="Ellipse 424" cx="207.44" cy="193.2" r="3.03" fill="#8c85ae"/>
        <circle id="ai" data-name="Ellipse 425" cx="213.58" cy="182.57" r="3.03" fill="#8c85ae"/>
      </g>
      <circle id="aj" data-name="Ellipse 426" cx="206.84" cy="173.41" r="3.03" fill="#b3aec9"/>
      <circle id="ak" data-name="Ellipse 427" cx="187.58" cy="171.12" r="3.03" fill="#8c85ae"/>
      <circle id="al" data-name="Ellipse 428" cx="193.79" cy="192.6" r="3.03" fill="#403478"/>
      <circle id="am" data-name="Ellipse 429" cx="174.52" cy="178.06" r="3.03" fill="#8c85ae"/>
      <circle id="an" data-name="Ellipse 430" cx="198.02" cy="178.89" r="3.03" fill="#b3aec9"/>
      <circle id="ao" data-name="Ellipse 431" cx="181.51" cy="189.56" r="3.03" fill="#b3aec9"/>
      <circle id="ap" data-name="Ellipse 432" cx="178.83" cy="165.73" r="3.03" fill="#403478"/>
      <circle id="aq" data-name="Ellipse 433" cx="191.62" cy="161.55" r="3.03" fill="#b3aec9"/>
      <circle id="ar" data-name="Ellipse 434" cx="188.59" cy="182.57" r="3.03" fill="#403478"/>
      <circle id="as" data-name="Ellipse 435" cx="202.53" cy="187.14" r="3.03" fill="#8c85ae"/>
      <circle id="at" data-name="Ellipse 436" cx="201.05" cy="164.24" r="3.03" fill="#403478"/>
    </g>
    <g id="au" data-name="Group 554">
      <path id="av" data-name="Path 4189" d="m161.38,161.85c-1.17,1.41-2.6,2.57-4.22,3.42-5.41,2.9-13.57,2.99-18.03-1.67-3.24-3.13-3.95-8.05-1.74-11.97-.23.42,1.19,2.87,1.44,3.2.7,1.06,1.93,1.64,3.19,1.5-.69-2.75-2.53-5.31-3.27-8.14-.74-2.78-.98-5.68-.72-8.54.34-3.6,2.49-13.96,7.3-14.51-.87.18-1.51.91-1.57,1.8-.04.87.18,1.72.62,2.47.97,1.64,2.11,3.18,3.39,4.59,2.06,2.58,4.2,5.32,4.7,8.59,1.56-1.73,5.78-7.46,4.2-9.96,1.87,2.96,1.49,6.93.54,10.13-.77,2.6-4.26,6.7-3.28,9.48,1.08,3.07,6.13,1.96,7.38-.29.7-1.25.33-2.53.12-3.78.31-.09.65-.01.9.2.32.3.56.67.7,1.08,1.84,4.12,1.2,8.92-1.66,12.4Z" fill="#f69320"/>
      <path id="aw" data-name="Path 4190" d="m155.76,157.56c-1.81-.23-3.39-1.34-4.21-2.98-.78-1.83-.78-3.89,0-5.72.79-2.08,2.7-3.48,3.15-5.67-.25,1.21-2.09,2.5-3.27,2.17-1.98-.56-2.5-3.7-3.5-5.32-.8-1.3-1.74-2.52-2.79-3.63-1.17-1.24-2.09-1.84-2.39-3.6-2.7,7.06-2,14.98,1.9,21.46.69.88,1.12,1.93,1.24,3.04-.02,3.06-4.09,3.19-5.88,1.63.22.19.35,1.09.51,1.39.28.54.63,1.03,1.06,1.47.77.79,1.68,1.43,2.69,1.88,6.13,2.5,15.77-1.07,16.77-8.18-.66.57-1.39,1.06-2.16,1.47-.95.51-2.03.71-3.1.59Z" fill="#ffce07"/>
    </g>
    <g id="ax" data-name="Group 557">
      <circle id="ay" data-name="Ellipse 437" cx="150.09" cy="185.86" r="24.31" fill="#665e94"/>
      <g id="az" data-name="Group 555">
        <circle id="ba" data-name="Ellipse 438" cx="150.09" cy="209.57" r="3.03" fill="#665e94"/>
        <circle id="bb" data-name="Ellipse 439" cx="138.24" cy="206.39" r="3.03" fill="#665e94"/>
        <circle id="bc" data-name="Ellipse 440" cx="129.56" cy="197.72" r="3.03" fill="#665e94"/>
        <circle id="bd" data-name="Ellipse 441" cx="126.38" cy="185.86" r="3.03" fill="#665e94"/>
        <circle id="be" data-name="Ellipse 442" cx="129.56" cy="174.01" r="3.03" fill="#665e94"/>
        <circle id="bf" data-name="Ellipse 443" cx="138.24" cy="165.33" r="3.03" fill="#665e94"/>
        <circle id="bg" data-name="Ellipse 444" cx="150.09" cy="162.16" r="3.03" fill="#665e94"/>
        <circle id="bh" data-name="Ellipse 445" cx="161.95" cy="165.33" r="3.03" fill="#665e94"/>
        <circle id="bi" data-name="Ellipse 446" cx="170.62" cy="174.01" r="3.03" fill="#665e94"/>
        <circle id="bj" data-name="Ellipse 447" cx="173.8" cy="185.86" r="3.03" fill="#665e94"/>
        <circle id="bk" data-name="Ellipse 448" cx="170.62" cy="197.72" r="3.03" fill="#665e94"/>
        <circle id="bl" data-name="Ellipse 449" cx="161.95" cy="206.39" r="3.03" fill="#665e94"/>
      </g>
      <g id="bm" data-name="Group 556">
        <circle id="bn" data-name="Ellipse 450" cx="143.96" cy="208.76" r="3.03" fill="#8c85ae"/>
        <circle id="bo" data-name="Ellipse 451" cx="133.33" cy="202.63" r="3.03" fill="#8c85ae"/>
        <circle id="bp" data-name="Ellipse 452" cx="127.19" cy="192" r="3.03" fill="#8c85ae"/>
        <circle id="bq" data-name="Ellipse 453" cx="127.19" cy="179.73" r="3.03" fill="#8c85ae"/>
        <circle id="br" data-name="Ellipse 454" cx="133.33" cy="169.1" r="3.03" fill="#8c85ae"/>
        <circle id="bs" data-name="Ellipse 455" cx="143.96" cy="162.96" r="3.03" fill="#8c85ae"/>
        <circle id="bt" data-name="Ellipse 456" cx="156.23" cy="162.96" r="3.03" fill="#8c85ae"/>
        <circle id="bu" data-name="Ellipse 457" cx="166.86" cy="169.1" r="3.03" fill="#8c85ae"/>
        <circle id="bv" data-name="Ellipse 458" cx="172.99" cy="179.73" r="3.03" fill="#8c85ae"/>
        <circle id="bw" data-name="Ellipse 459" cx="172.99" cy="192" r="3.03" fill="#8c85ae"/>
        <circle id="bx" data-name="Ellipse 460" cx="166.86" cy="202.63" r="3.03" fill="#8c85ae"/>
        <circle id="by" data-name="Ellipse 461" cx="156.23" cy="208.76" r="3.03" fill="#8c85ae"/>
      </g>
      <circle id="bz" data-name="Ellipse 462" cx="147.06" cy="202.02" r="3.03" fill="#b3aec9"/>
      <circle id="ca" data-name="Ellipse 463" cx="144.78" cy="182.76" r="3.03" fill="#8c85ae"/>
      <circle id="cb" data-name="Ellipse 464" cx="166.25" cy="188.97" r="3.03" fill="#403478"/>
      <circle id="cc" data-name="Ellipse 465" cx="151.71" cy="169.71" r="3.03" fill="#8c85ae"/>
      <circle id="cd" data-name="Ellipse 466" cx="152.55" cy="193.2" r="3.03" fill="#b3aec9"/>
      <circle id="ce" data-name="Ellipse 467" cx="163.22" cy="176.7" r="3.03" fill="#b3aec9"/>
      <circle id="cf" data-name="Ellipse 468" cx="139.39" cy="174.01" r="3.03" fill="#403478"/>
      <circle id="cg" data-name="Ellipse 469" cx="135.21" cy="186.81" r="3.03" fill="#b3aec9"/>
      <circle id="ch" data-name="Ellipse 470" cx="156.23" cy="183.77" r="3.03" fill="#403478"/>
      <circle id="ci" data-name="Ellipse 471" cx="160.79" cy="197.72" r="3.03" fill="#8c85ae"/>
      <circle id="cj" data-name="Ellipse 472" cx="137.89" cy="196.23" r="3.03" fill="#403478"/>
    </g>
    <g id="ck" data-name="Group 558">
      <path id="cl" data-name="Path 4191" d="m110.8,122.58c6.63.67,6.08-7.34,3.73-10.27-1.96-2.23-4.82-3.47-7.79-3.38,4.82-1.78,10.75.48,13.7,4.1,4.72,5.79,5.98,14.84.53,20.13-1.4,1.36-2.78,2.88-3.03,4.66-.23,2,1.2,3.8,3.2,4.04h.02c2.15.21,3.99-2.36,2.35-3.53,2.4.5,4.01,2.78,3.67,5.21-1.18,6.12-12.63,7.37-18.5,6.82-4.09-.38-8.19-1.72-10.94-4.26s-3.9-6.4-2.18-9.5c-.58,1.05,5.46,5.83,6.96,3.73,1.18-1.66-4.09-7.18-4.92-8.56-1.23-2.18-1.57-4.74-.96-7.16.59-2.54,2.17-3.99,3.4-6.12-.32.84-.25,1.79.2,2.57.27.5,2.23,1.69,2.25,1.83-.69-4.23,1.86-11.68,8.83-9.78-1.4-.38-6.58,8.85-.53,9.46Z" fill="#f69320"/>
      <path id="cm" data-name="Path 4192" d="m103.61,144.12c1.48-.44,2.53-1.78,2.6-3.32.06-2.02-.97-3.57-2.23-5.05-1.61-1.66-2.96-3.54-4.02-5.58-.88-1.97-.55-3.93-.07-5.94.47,1,1.15,1.88,2.01,2.58.86.6,2.01.55,2.81-.13.5-.67.73-1.5.66-2.33.07-2.34-.64-5.34,1.22-7.15-.9.88-1.09,3.32-.76,4.44.48,1.44,1.36,2.72,2.53,3.69,1.75,1.45,4.14,1.83,6.25,1.01,2.08-1.04,3.52-3.02,3.85-5.32.3-2.27.1-4.58-.6-6.76,3.44,3.47,4.41,8.69,2.45,13.17-1.06,2.32-2.85,4.21-4.19,6.39s-2.21,4.91-1.21,7.26c.73,1.6,2.15,2.78,3.86,3.19,2.47.61,4-.34,5.87-1.72-.24.18-.48,1.25-.68,1.57-.34.53-.76.99-1.25,1.38-2.22,1.75-5.37,2.24-8.11,2.43-2.46.22-4.93.16-7.38-.18-3.63-.58-6.7-2.06-8.36-5.47.63.69,1.4,1.26,2.24,1.67.79.34,1.66.4,2.49.19Z" fill="#ffce07"/>
    </g>
    <g id="cn" data-name="Group 561">
      <circle id="co" data-name="Ellipse 473" cx="109.5" cy="168.74" r="24.31" fill="#665e94"/>
      <g id="cp" data-name="Group 559">
        <circle id="cq" data-name="Ellipse 474" cx="109.5" cy="145.03" r="3.03" fill="#665e94"/>
        <circle id="cr" data-name="Ellipse 475" cx="121.36" cy="148.21" r="3.03" fill="#665e94"/>
        <circle id="cs" data-name="Ellipse 476" cx="130.03" cy="156.88" r="3.03" fill="#665e94"/>
        <circle id="ct" data-name="Ellipse 477" cx="133.21" cy="168.74" r="3.03" fill="#665e94"/>
        <circle id="cu" data-name="Ellipse 478" cx="130.03" cy="180.59" r="3.03" fill="#665e94"/>
        <circle id="cv" data-name="Ellipse 479" cx="121.36" cy="189.27" r="3.03" fill="#665e94"/>
        <circle id="cw" data-name="Ellipse 480" cx="109.5" cy="192.44" r="3.03" fill="#665e94"/>
        <circle id="cx" data-name="Ellipse 481" cx="97.65" cy="189.27" r="3.03" fill="#665e94"/>
        <circle id="cy" data-name="Ellipse 482" cx="88.97" cy="180.59" r="3.03" fill="#665e94"/>
        <circle id="cz" data-name="Ellipse 483" cx="85.8" cy="168.74" r="3.03" fill="#665e94"/>
        <circle id="da" data-name="Ellipse 484" cx="88.97" cy="156.88" r="3.03" fill="#665e94"/>
        <circle id="db" data-name="Ellipse 485" cx="97.65" cy="148.21" r="3.03" fill="#665e94"/>
      </g>
      <g id="dc" data-name="Group 560">
        <circle id="dd" data-name="Ellipse 486" cx="115.64" cy="145.84" r="3.03" fill="#8c85ae"/>
        <circle id="de" data-name="Ellipse 487" cx="126.27" cy="151.97" r="3.03" fill="#8c85ae"/>
        <circle id="df" data-name="Ellipse 488" cx="132.4" cy="162.6" r="3.03" fill="#8c85ae"/>
        <circle id="dg" data-name="Ellipse 489" cx="132.4" cy="174.87" r="3.03" fill="#8c85ae"/>
        <circle id="dh" data-name="Ellipse 490" cx="126.27" cy="185.5" r="3.03" fill="#8c85ae"/>
        <circle id="di" data-name="Ellipse 491" cx="115.64" cy="191.64" r="3.03" fill="#8c85ae"/>
        <circle id="dj" data-name="Ellipse 492" cx="103.37" cy="191.64" r="3.03" fill="#8c85ae"/>
        <circle id="dk" data-name="Ellipse 493" cx="92.74" cy="185.5" r="3.03" fill="#8c85ae"/>
        <circle id="dl" data-name="Ellipse 494" cx="86.6" cy="174.87" r="3.03" fill="#8c85ae"/>
        <circle id="dm" data-name="Ellipse 495" cx="86.6" cy="162.6" r="3.03" fill="#8c85ae"/>
        <circle id="dn" data-name="Ellipse 496" cx="92.74" cy="151.97" r="3.03" fill="#8c85ae"/>
        <circle id="do" data-name="Ellipse 497" cx="103.37" cy="145.84" r="3.03" fill="#8c85ae"/>
      </g>
      <circle id="dp" data-name="Ellipse 498" cx="112.53" cy="152.58" r="3.03" fill="#b3aec9"/>
      <circle id="dq" data-name="Ellipse 499" cx="114.82" cy="171.84" r="3.03" fill="#8c85ae"/>
      <circle id="dr" data-name="Ellipse 500" cx="93.34" cy="165.63" r="3.03" fill="#403478"/>
      <circle id="ds" data-name="Ellipse 501" cx="107.88" cy="184.89" r="3.03" fill="#8c85ae"/>
      <circle id="dt" data-name="Ellipse 502" cx="107.05" cy="161.4" r="3.03" fill="#b3aec9"/>
      <circle id="du" data-name="Ellipse 503" cx="96.37" cy="177.9" r="3.03" fill="#b3aec9"/>
      <circle id="dv" data-name="Ellipse 504" cx="120.21" cy="180.59" r="3.03" fill="#403478"/>
      <circle id="dw" data-name="Ellipse 505" cx="124.39" cy="167.79" r="3.03" fill="#b3aec9"/>
      <circle id="dx" data-name="Ellipse 506" cx="103.37" cy="170.83" r="3.03" fill="#403478"/>
      <circle id="dy" data-name="Ellipse 507" cx="98.8" cy="156.88" r="3.03" fill="#8c85ae"/>
      <circle id="dz" data-name="Ellipse 508" cx="121.7" cy="158.37" r="3.03" fill="#403478"/>
    </g>
    <g id="ea" data-name="Group 562">
      <path id="eb" data-name="Path 4193" d="m57.26,140.81c1.48,1.16,4.07-.78,4.7-2.55.73-2.04.41-4.32.16-6.49s-.39-4.53.64-6.4,3.68-2.8,5.07-1.23c-1.86.3-1.95,3.5-.57,4.9s3.39,1.68,5.1,2.51c3.04,1.6,5.06,4.64,5.35,8.07.32,3.46-1.1,6.86-3.79,9.07.36-.28,3.11.32,3.94.03,3.78-1.33,3.64-5.01,3.56-8.66.03,1.47,1.61,3.29,2.17,4.59.68,1.49,1.15,3.07,1.41,4.68.57,4.25-.25,8.3-3.21,11.3-10.45,10.59-28.22,2.94-29.11-12.57-.16-2.51.16-5.03.96-7.42.37-1.17.98-2.25,1.78-3.18,2-1.78.63.64,1.04,2.04.12.52.41.98.81,1.32Z" fill="#f69320"/>
      <path id="ec" data-name="Path 4194" d="m65.7,137.25c.24-2.51-.61-4.97-1.45-7.3.81,2.26,5.39,3.79,7.05,5.09,1.25.93,2.15,2.26,2.55,3.77.32,1.72.02,3.49-.85,5.01-1.15,2.14-4.85,4.99-2.39,7.8.61.63,1.39,1.07,2.25,1.24,3.66.82,7.45-.61,9.66-3.64.49,2.69.05,5.47-1.26,7.87-3.05,5.45-10.05,6.57-15.02,4.56-3.41-1.43-6.29-3.89-8.24-7.05-2.23-3.58-2.6-8.54-2.56-12.84.43,1.58,1.72,2.77,3.33,3.07,1.55.18,3.09-.37,4.18-1.49,1.6-1.66,2.57-3.82,2.74-6.11Z" fill="#ffce07"/>
    </g>
    <g id="ed" data-name="Group 565">
      <circle id="ee" data-name="Ellipse 509" cx="68.91" cy="180.74" r="24.31" fill="#665e94"/>
      <g id="ef" data-name="Group 563">
        <circle id="eg" data-name="Ellipse 510" cx="68.91" cy="157.04" r="3.03" fill="#665e94"/>
        <circle id="eh" data-name="Ellipse 511" cx="57.06" cy="160.21" r="3.03" fill="#665e94"/>
        <circle id="ei" data-name="Ellipse 512" cx="48.38" cy="168.89" r="3.03" fill="#665e94"/>
        <circle id="ej" data-name="Ellipse 513" cx="45.21" cy="180.75" r="3.03" fill="#665e94"/>
        <circle id="ek" data-name="Ellipse 514" cx="48.38" cy="192.6" r="3.03" fill="#665e94"/>
        <circle id="el" data-name="Ellipse 515" cx="57.06" cy="201.28" r="3.03" fill="#665e94"/>
        <circle id="em" data-name="Ellipse 516" cx="68.91" cy="204.45" r="3.03" fill="#665e94"/>
        <circle id="en" data-name="Ellipse 517" cx="80.77" cy="201.28" r="3.03" fill="#665e94"/>
        <circle id="eo" data-name="Ellipse 518" cx="89.44" cy="192.6" r="3.03" fill="#665e94"/>
        <circle id="ep" data-name="Ellipse 519" cx="92.62" cy="180.75" r="3.03" fill="#665e94"/>
        <circle id="eq" data-name="Ellipse 520" cx="89.44" cy="168.89" r="3.03" fill="#665e94"/>
        <circle id="er" data-name="Ellipse 521" cx="80.77" cy="160.21" r="3.03" fill="#665e94"/>
      </g>
      <g id="es" data-name="Group 564">
        <circle id="et" data-name="Ellipse 522" cx="62.78" cy="157.85" r="3.03" fill="#8c85ae"/>
        <circle id="eu" data-name="Ellipse 523" cx="52.15" cy="163.98" r="3.03" fill="#8c85ae"/>
        <circle id="ev" data-name="Ellipse 524" cx="46.01" cy="174.61" r="3.03" fill="#8c85ae"/>
        <circle id="ew" data-name="Ellipse 525" cx="46.01" cy="186.88" r="3.03" fill="#8c85ae"/>
        <circle id="ex" data-name="Ellipse 526" cx="52.15" cy="197.51" r="3.03" fill="#8c85ae"/>
        <circle id="ey" data-name="Ellipse 527" cx="62.78" cy="203.64" r="3.03" fill="#8c85ae"/>
        <circle id="ez" data-name="Ellipse 528" cx="75.05" cy="203.64" r="3.03" fill="#8c85ae"/>
        <circle id="fa" data-name="Ellipse 529" cx="85.68" cy="197.51" r="3.03" fill="#8c85ae"/>
        <circle id="fb" data-name="Ellipse 530" cx="91.81" cy="186.88" r="3.03" fill="#8c85ae"/>
        <circle id="fc" data-name="Ellipse 531" cx="91.81" cy="174.61" r="3.03" fill="#8c85ae"/>
        <circle id="fd" data-name="Ellipse 532" cx="85.68" cy="163.98" r="3.03" fill="#8c85ae"/>
        <circle id="fe" data-name="Ellipse 533" cx="75.05" cy="157.85" r="3.03" fill="#8c85ae"/>
      </g>
      <circle id="ff" data-name="Ellipse 534" cx="65.88" cy="164.59" r="3.03" fill="#b3aec9"/>
      <circle id="fg" data-name="Ellipse 535" cx="63.6" cy="183.85" r="3.03" fill="#8c85ae"/>
      <circle id="fh" data-name="Ellipse 536" cx="85.07" cy="177.64" r="3.03" fill="#403478"/>
      <circle id="fi" data-name="Ellipse 537" cx="70.53" cy="196.9" r="3.03" fill="#8c85ae"/>
      <circle id="fj" data-name="Ellipse 538" cx="71.37" cy="173.41" r="3.03" fill="#b3aec9"/>
      <circle id="fk" data-name="Ellipse 539" cx="82.04" cy="189.91" r="3.03" fill="#b3aec9"/>
      <circle id="fl" data-name="Ellipse 540" cx="58.21" cy="192.6" r="3.03" fill="#403478"/>
      <circle id="fm" data-name="Ellipse 541" cx="54.03" cy="179.8" r="3.03" fill="#b3aec9"/>
      <circle id="fn" data-name="Ellipse 542" cx="75.05" cy="182.83" r="3.03" fill="#403478"/>
      <circle id="fo" data-name="Ellipse 543" cx="79.62" cy="168.89" r="3.03" fill="#8c85ae"/>
      <circle id="fp" data-name="Ellipse 544" cx="56.72" cy="170.38" r="3.03" fill="#403478"/>
    </g>
    <g id="fq" data-name="Group 566">
      <path id="fr" data-name="Path 4195" d="m246.45,148.53c.99-2.11,1.38-4.97-.48-6.75-.76,1.7-1.24,2.84-3.22,3.3-1.97.56-4.03-.53-4.67-2.48-.73-2.04-.4-4.32-.15-6.49.68-5.91-2.65-7.19-7.58-8.93,1.38,1.43,2.83,5.68,1.52,7.49-2.11,2.89-4.7-.39-4.51-2.92-3.19,2.35-4.82,6.81-5.08,10.64-.08,1.92.25,3.83.96,5.61.44,1.31,1.41,4.41-.74,4.74-2.57.4-4.14-3.76-4.15-5.71,0,.16-1.39.97-1.62,1.22-.62.71-1.11,1.53-1.44,2.42-1.58,4.95-.46,10.36,2.94,14.28,5.67,5.74,16.62,6.31,23.92,3.54,3.03-1.15,5.7-3.86,5.78-7.1.07-2.71-2.29-4.11-3.01-6.52s.53-4.25,1.51-6.34Z" fill="#f69320"/>
      <path id="fs" data-name="Path 4196" d="m234.34,141.61c-.25-2.51.61-4.96,1.45-7.3-.64,1.77-4.01,6.11-5.94,6.27-1.73,0-3.26-1.12-3.77-2.77-.47,1.8-.8,3.63-1,5.48-.04,1.92.57,3.8,1.74,5.33,1.09,1.62,2.61,2.17,2.41,4.32-.21,2.88-2.72,5.04-5.6,4.83-1.57-.12-3.01-.94-3.91-2.23-.62-.89-1.03-2.02-2-2.5-.18,3.08-.51,5.6,1.06,8.41,3.24,5.79,12.36,6.69,18.25,5.5,3.51-.7,7.08-3.46,6.41-7.26-.39-2.19-1.31-4.45-1.18-6.7.15-2.64,2.35-4.32,2.33-6.87-.43,1.58-1.72,2.77-3.33,3.07-1.55.18-3.09-.37-4.18-1.49-1.6-1.66-2.57-3.82-2.74-6.11Z" fill="#ffce07"/>
    </g>
    <g id="ft" data-name="Group 569">
      <circle id="fu" data-name="Ellipse 545" cx="231.27" cy="183.85" r="24.31" fill="#665e94"/>
      <g id="fv" data-name="Group 567">
        <circle id="fw" data-name="Ellipse 546" cx="254.98" cy="183.85" r="3.03" fill="#665e94"/>
        <circle id="fx" data-name="Ellipse 547" cx="251.8" cy="195.7" r="3.03" fill="#665e94"/>
        <circle id="fy" data-name="Ellipse 548" cx="243.12" cy="204.38" r="3.03" fill="#665e94"/>
        <circle id="fz" data-name="Ellipse 549" cx="231.27" cy="207.56" r="3.03" fill="#665e94"/>
        <circle id="ga" data-name="Ellipse 550" cx="219.42" cy="204.38" r="3.03" fill="#665e94"/>
        <circle id="gb" data-name="Ellipse 551" cx="210.74" cy="195.7" r="3.03" fill="#665e94"/>
        <circle id="gc" data-name="Ellipse 552" cx="207.56" cy="183.85" r="3.03" fill="#665e94"/>
        <circle id="gd" data-name="Ellipse 553" cx="210.74" cy="172" r="3.03" fill="#665e94"/>
        <circle id="ge" data-name="Ellipse 554" cx="219.42" cy="163.32" r="3.03" fill="#665e94"/>
        <circle id="gf" data-name="Ellipse 555" cx="231.27" cy="160.14" r="3.03" fill="#665e94"/>
        <circle id="gg" data-name="Ellipse 556" cx="243.12" cy="163.32" r="3.03" fill="#665e94"/>
        <circle id="gh" data-name="Ellipse 557" cx="251.8" cy="172" r="3.03" fill="#665e94"/>
      </g>
      <g id="gi" data-name="Group 568">
        <circle id="gj" data-name="Ellipse 558" cx="254.17" cy="189.99" r="3.03" fill="#8c85ae"/>
        <circle id="gk" data-name="Ellipse 559" cx="248.03" cy="200.61" r="3.03" fill="#8c85ae"/>
        <circle id="gl" data-name="Ellipse 560" cx="237.41" cy="206.75" r="3.03" fill="#8c85ae"/>
        <circle id="gm" data-name="Ellipse 561" cx="225.13" cy="206.75" r="3.03" fill="#8c85ae"/>
        <circle id="gn" data-name="Ellipse 562" cx="214.51" cy="200.61" r="3.03" fill="#8c85ae"/>
        <circle id="go" data-name="Ellipse 563" cx="208.37" cy="189.99" r="3.03" fill="#8c85ae"/>
        <circle id="gp" data-name="Ellipse 564" cx="208.37" cy="177.71" r="3.03" fill="#8c85ae"/>
        <circle id="gq" data-name="Ellipse 565" cx="214.51" cy="167.09" r="3.03" fill="#8c85ae"/>
        <circle id="gr" data-name="Ellipse 566" cx="225.13" cy="160.95" r="3.03" fill="#8c85ae"/>
        <circle id="gs" data-name="Ellipse 567" cx="237.41" cy="160.95" r="3.03" fill="#8c85ae"/>
        <circle id="gt" data-name="Ellipse 568" cx="248.03" cy="167.09" r="3.03" fill="#8c85ae"/>
        <circle id="gu" data-name="Ellipse 569" cx="254.17" cy="177.71" r="3.03" fill="#8c85ae"/>
      </g>
      <circle id="gv" data-name="Ellipse 570" cx="247.43" cy="186.88" r="3.03" fill="#b3aec9"/>
      <circle id="gw" data-name="Ellipse 571" cx="228.16" cy="189.16" r="3.03" fill="#8c85ae"/>
      <circle id="gx" data-name="Ellipse 572" cx="234.37" cy="167.69" r="3.03" fill="#403478"/>
      <circle id="gy" data-name="Ellipse 573" cx="215.11" cy="182.23" r="3.03" fill="#8c85ae"/>
      <circle id="gz" data-name="Ellipse 574" cx="238.61" cy="181.39" r="3.03" fill="#b3aec9"/>
      <circle id="ha" data-name="Ellipse 575" cx="222.1" cy="170.72" r="3.03" fill="#b3aec9"/>
      <circle id="hb" data-name="Ellipse 576" cx="219.42" cy="194.55" r="3.03" fill="#403478"/>
      <circle id="hc" data-name="Ellipse 577" cx="232.21" cy="198.73" r="3.03" fill="#b3aec9"/>
      <circle id="hd" data-name="Ellipse 578" cx="229.18" cy="177.71" r="3.03" fill="#403478"/>
      <circle id="he" data-name="Ellipse 579" cx="243.12" cy="173.15" r="3.03" fill="#8c85ae"/>
      <circle id="hf" data-name="Ellipse 580" cx="241.64" cy="196.05" r="3.03" fill="#403478"/>
    </g>
    <g isolation="isolate">
      <path d="m73.83,193.07c-1.52,1.4-3.44,2.08-5.72,2.08-3.24,0-5.68-1.84-7.4-5.52-1.4-2.96-2-6.2-1.8-9.68.2-3.52,1.12-6.76,2.8-9.76,2.08-3.64,4.72-5.48,7.92-5.48,2.76,0,5.08,1.52,6.92,4.6l-3.36,4.64c-.6-.68-1.4-1.04-2.32-1.04-1.8,0-3.2,1.24-4.24,3.72-.76,1.8-1.16,3.84-1.28,6.08-.08,1.6.2,2.96.8,4.08.76,1.32,1.88,1.96,3.44,1.96,1.24,0,2.24-.56,3.04-1.68.64-.88,1.08-2,1.32-3.36-1.68.36-3.36.76-5.04,1.2v-5.76l9.84-2.2c.2.92.32,1.96.32,3.12,0,.64-.04,1.32-.08,2.04-.44,4.6-2.16,8.28-5.16,10.96Z" fill="#403478"/>
    </g>
    <path d="m73.83,193.07c-1.52,1.4-3.44,2.08-5.72,2.08-3.24,0-5.68-1.84-7.4-5.52-1.4-2.96-2-6.2-1.8-9.68.2-3.52,1.12-6.76,2.8-9.76,2.08-3.64,4.72-5.48,7.92-5.48,2.76,0,5.08,1.52,6.92,4.6l-3.36,4.64c-.6-.68-1.4-1.04-2.32-1.04-1.8,0-3.2,1.24-4.24,3.72-.76,1.8-1.16,3.84-1.28,6.08-.08,1.6.2,2.96.8,4.08.76,1.32,1.88,1.96,3.44,1.96,1.24,0,2.24-.56,3.04-1.68.64-.88,1.08-2,1.32-3.36-1.68.36-3.36.76-5.04,1.2v-5.76l9.84-2.2c.2.92.32,1.96.32,3.12,0,.64-.04,1.32-.08,2.04-.44,4.6-2.16,8.28-5.16,10.96Z" fill="none" stroke="#b3aec9" stroke-miterlimit="10" stroke-width="1.5"/>
    <path d="m154.69,198.95l-6.48-10.8-.04.04c.12,3.32.32,6.48.64,9.44l-5.84,1.72-.2-5.2-.76-18.16c-.12-2.68-.16-4.08-.12-4.28,3.76-1.24,6.96-1.84,9.56-1.84,3.56,0,5.6,1.24,6.08,3.68.12.6.16,1.16.16,1.72,0,3-1.52,5.92-4.56,8.84.8,1.32,1.88,2.88,3.2,4.72,1.08,1.56,2.2,3.08,3.32,4.64-1.08,1.24-2.76,3.04-4.96,5.48Z" fill="#403478"/>
    <path d="m150.61,177.28c-.6,0-1.44.2-2.52.6-.04.88-.04,1.76-.04,2.64s0,1.76.04,2.64c.92-.56,1.76-1.28,2.48-2.12.92-1.08,1.36-1.96,1.36-2.64,0-.76-.44-1.12-1.32-1.12Z" fill="#403478"/>
    <g isolation="isolate">
      <path d="m154.69,198.95l-6.48-10.8-.04.04c.12,3.32.32,6.48.64,9.44l-5.84,1.72-.2-5.2-.76-18.16c-.12-2.68-.16-4.08-.12-4.28,3.76-1.24,6.96-1.84,9.56-1.84,3.56,0,5.6,1.24,6.08,3.68.12.6.16,1.16.16,1.72,0,3-1.52,5.92-4.56,8.84.8,1.32,1.88,2.88,3.2,4.72,1.08,1.56,2.2,3.08,3.32,4.64-1.08,1.24-2.76,3.04-4.96,5.48Z" fill="none" stroke="#b3aec9" stroke-miterlimit="10" stroke-width="1.5"/>
      <path d="m150.61,177.28c-.6,0-1.44.2-2.52.6-.04.88-.04,1.76-.04,2.64s0,1.76.04,2.64c.92-.56,1.76-1.28,2.48-2.12.92-1.08,1.36-1.96,1.36-2.64,0-.76-.44-1.12-1.32-1.12Z" fill="none" stroke="#b3aec9" stroke-miterlimit="10" stroke-width="1.5"/>
    </g>
    <path d="m117.18,179.51c-3.56.32-8.12,1.24-13.68,2.72l-1.32-28,12.6-1.92,1.04,7.28c-2.36.2-4.64.48-6.88.84-.04.76-.04,1.48-.04,2.2v2.2l5.96-1.36.8,5.4c-1.12.2-2.24.4-3.32.64l-3.36.72c0,.52,0,1.04.04,1.56l.08,1.56,7.04-1.08,1.04,7.24Z" fill="#403478"/>
    <g isolation="isolate">
      <path d="m117.18,179.51c-3.56.32-8.12,1.24-13.68,2.72l-1.32-28,12.6-1.92,1.04,7.28c-2.36.2-4.64.48-6.88.84-.04.76-.04,1.48-.04,2.2v2.2l5.96-1.36.8,5.4c-1.12.2-2.24.4-3.32.64l-3.36.72c0,.52,0,1.04.04,1.56l.08,1.56,7.04-1.08,1.04,7.24Z" fill="none" stroke="#b3aec9" stroke-miterlimit="10" stroke-width="1.5"/>
    </g>
    <path d="m196.46,189.33l-2.24-17.08-1.08,18.92-4.16.6-2.56-24.08-1,21.32-7.88,1.12c1.64-9.08,2.4-18.12,2.24-27.2l9.04-1.52,1.72,14.36.84-13.28,8.6-1.56c.76,9.52,2.16,18.52,4.16,27l-7.68,1.4Z" fill="#403478"/>
    <g isolation="isolate">
      <path d="m196.46,189.33l-2.24-17.08-1.08,18.92-4.16.6-2.56-24.08-1,21.32-7.88,1.12c1.64-9.08,2.4-18.12,2.24-27.2l9.04-1.52,1.72,14.36.84-13.28,8.6-1.56c.76,9.52,2.16,18.52,4.16,27l-7.68,1.4Z" fill="none" stroke="#b3aec9" stroke-miterlimit="10" stroke-width="1.5"/>
    </g>
    <g isolation="isolate">
      <path d="m240.23,186.46c0,1.24-.28,2.52-.84,3.88-1.08,2.52-2.92,4.64-5.48,6.36-1.32.92-2.76,1.36-4.24,1.36-1.32,0-2.72-.36-4.2-1.08.32-1.56.88-3.84,1.64-6.92.96.56,1.92.84,2.84.84.44,0,.88-.08,1.32-.2,2.2-.6,3.28-1.44,3.24-2.48,0-.76-.6-1.16-1.76-1.16-.68,0-1.72.16-3.08.48-1.36.28-2.4.44-3.12.44-2.84,0-4.28-1.52-4.28-4.52,0-2.8,1.16-5.88,3.44-9.28,2.68-3.88,5.2-5.92,7.64-6.12,2.92-.2,4.64,2.64,5.24,8.56l-2.72,1.12-2.68,1.16c-.28-1.24-.76-1.84-1.44-1.84-.96,0-1.8.56-2.48,1.64-.36.52-.52,1.08-.52,1.6,0,1,.56,1.52,1.72,1.52.52,0,1.16-.08,1.92-.24,1.12-.24,2.12-.36,2.96-.36,2.2,0,3.6.76,4.28,2.24.4.96.6,1.96.6,3Z" fill="#403478"/>
    </g>
    <path d="m240.23,186.46c0,1.24-.28,2.52-.84,3.88-1.08,2.52-2.92,4.64-5.48,6.36-1.32.92-2.76,1.36-4.24,1.36-1.32,0-2.72-.36-4.2-1.08.32-1.56.88-3.84,1.64-6.92.96.56,1.92.84,2.84.84.44,0,.88-.08,1.32-.2,2.2-.6,3.28-1.44,3.24-2.48,0-.76-.6-1.16-1.76-1.16-.68,0-1.72.16-3.08.48-1.36.28-2.4.44-3.12.44-2.84,0-4.28-1.52-4.28-4.52,0-2.8,1.16-5.88,3.44-9.28,2.68-3.88,5.2-5.92,7.64-6.12,2.92-.2,4.64,2.64,5.24,8.56l-2.72,1.12-2.68,1.16c-.28-1.24-.76-1.84-1.44-1.84-.96,0-1.8.56-2.48,1.64-.36.52-.52,1.08-.52,1.6,0,1,.56,1.52,1.72,1.52.52,0,1.16-.08,1.92-.24,1.12-.24,2.12-.36,2.96-.36,2.2,0,3.6.76,4.28,2.24.4.96.6,1.96.6,3Z" fill="none" stroke="#b3aec9" stroke-miterlimit="10" stroke-width="1.5"/>
    <rect x=".31" width="300" height="300" rx="3" ry="3" fill="none"/>
    <rect x="1.31" y="1" width="298" height="298" rx="2" ry="2" fill="none" stroke="#000" stroke-linejoin="round" stroke-width="2"/>
  </g>
</svg>