<svg xmlns="http://www.w3.org/2000/svg" viewBox="0 0 119.76 556.78"><g id="Layer_2" data-name="Layer 2"><g id="Layer_1-2" data-name="Layer 1"><path id="Path_11994-2" data-name="Path 11994-2" d="M14.8,270.52a20.44,20.44,0,0,1-9-5.4,11.75,11.75,0,0,1-3.13-9.8c.6-3.22,2.8-5.86,4.55-8.63,3.43-5.38,2.58-12.36,2.8-18.44" fill="none" stroke="#fff" stroke-miterlimit="10" stroke-width="5"/><path d="M40.74,261.38A7.32,7.32,0,0,0,40.4,260a3.46,3.46,0,0,0-.51-1,1.11,1.11,0,0,0-.63-.45l-27.8-5.06a1.08,1.08,0,0,0-.88.23,2.57,2.57,0,0,0-.74.93,6.15,6.15,0,0,0-.5,1.5,9.44,9.44,0,0,0-.18,1.91v55.82a9.44,9.44,0,0,0,.18,1.91,6.15,6.15,0,0,0,.5,1.5,2.69,2.69,0,0,0,.74.94,1.12,1.12,0,0,0,.88.22l27.8-5.06a1.14,1.14,0,0,0,.63-.44,3.66,3.66,0,0,0,.51-1,7.42,7.42,0,0,0,.34-1.37,9.83,9.83,0,0,0,.13-1.62V263A9.66,9.66,0,0,0,40.74,261.38Zm-3.57,46.78a.8.8,0,0,0,.21-.2A.8.8,0,0,1,37.17,308.16Z" fill="#fff"/><path d="M12,228.27h-.16V0h-5V228.27H6.71a3.6,3.6,0,0,0-3.59,3.6v5.31a3.59,3.59,0,0,0,3.59,3.59H12a3.59,3.59,0,0,0,3.59-3.59v-5.31A3.6,3.6,0,0,0,12,228.27Z" fill="#fff"/><path d="M119.65,403.62c.34-1.4-.19-2.48-.35-3.81-.39-3.13-.32-6.25-1.15-9.33a123.31,123.31,0,0,1-2.78-15.12,161.31,161.31,0,0,1-.81-31.53c.27-4.67.2-9.25.28-13.93a59.76,59.76,0,0,0-1.44-15.2c-1.09-4.43-3.81-8.1-6.6-11.13-1.8-1.94-3.25-3.48-4.85-4.22a15.71,15.71,0,0,1-1.65-3,13.73,13.73,0,0,1-.29-4.24c0-.3,0-.6.07-.9a1.29,1.29,0,0,0,.73,0,1,1,0,0,0,.6-.92,1.51,1.51,0,0,0-.37-1.06,3.43,3.43,0,0,0-.33-.33c1.19,0,2-2.49,2.63-3.26a37.41,37.41,0,0,0,3.52-4.51,28.55,28.55,0,0,0,2-4.64,1.86,1.86,0,0,0,1.77.27,3.38,3.38,0,0,0,2-1.72,4.7,4.7,0,0,0,.55-2.46c.33,0,.58-.1.67-.24a.81.81,0,0,0-.41-1.24,3,3,0,0,1,.17-.41,23.88,23.88,0,0,0,1-5.68,14,14,0,0,0-1.64-7.54,15.06,15.06,0,0,0-1.32-1.94,31.07,31.07,0,0,0-10.36-8.2,60.59,60.59,0,0,0-13-5.07,14.51,14.51,0,0,0-11.82,2.06,10.6,10.6,0,0,0-2.53,2.47,51.7,51.7,0,0,0-4.69,8.05,1.83,1.83,0,0,0-.18.46,3,3,0,0,0-.7.33,3.53,3.53,0,0,0-1.27,2.09c-.15.57-1.18,2.26-.5,2.76a1.57,1.57,0,0,0,.66.22l.6.09c0,.14-.07.28-.11.42-.5,2.21-.06,4.22-.2,6.4a10.24,10.24,0,0,1-1.27,3.79c-.44.91-1,1.89-1.57,2.89A2.38,2.38,0,0,0,63.24,276c-.4,1.9.54,3.38.62,5.24a12.24,12.24,0,0,1-.67,2.73,9.61,9.61,0,0,0-.1,3,17.24,17.24,0,0,0,1.56,4,10.22,10.22,0,0,1,.34,2c1,4.74,7,5.24,10.87,3.29,1-.26,2.45-.67,3.23,0a2.83,2.83,0,0,1,.75,1.73,8.52,8.52,0,0,0,.35,1.89A9.56,9.56,0,0,0,82,302.2c2.29,2.83,1.43,5.78-.27,8.54-.43.42-.86.83-1.28,1.27-4.35,4.45-5.43,9.05-6.55,15-.11.55-.22,1.13-.32,1.71-.3,1.6-.57,3.2-.83,4.81l-.77-.41A81.35,81.35,0,0,1,61.24,326c-1.55-1.27-3-2.67-4.49-4-.76-.66-1.53-1.3-2.34-1.88-1.12-.81-2.26-1.6-3.4-2.4.18-.13.36-.26.55-.38-.2-.66-3.23-2.19-3.91-2.94a28.75,28.75,0,0,1-3.12-4.3,22.77,22.77,0,0,0-2.18-3.25c-1-1.05-2.52-1.74-3.64-2.63a11.28,11.28,0,0,0-1.78-1.45c-.61-.3-1.32-.41-1.93-.75s-1.18-.76-2-.47a6.12,6.12,0,0,1-.93.35c-.74.14-1.35-.43-2.07-.41a8.71,8.71,0,0,0-3.81,1.18c-1,.51-4.61,1.89-2,3.12a2,2,0,0,0,.63.13h0a1.17,1.17,0,0,0-.72,1,1.64,1.64,0,0,0,1.36,1.44,7.24,7.24,0,0,0,2.13,0c.9-.07,1.8-.08,2.69-.14a3.79,3.79,0,0,1,4.38,1.51l.71.81,1,1.2c.21.25,2.19,1.83,1,2.15a.94.94,0,0,1-.57-.1,12.33,12.33,0,0,1-2-.86q-.69-.63-1.32-1.32c-1-.8-2.65-2.2-3.9-1.07-.88.8-.21,2.29.53,3.17a51.66,51.66,0,0,0,4.47,4c1.14,1.07,1.47,2.7,2.45,3.86,1.16,1.38,2.91,2.05,4.11,3.35.75.82,1.16,2.55,2.49,2.52a2.42,2.42,0,0,0,.84-.26A25.18,25.18,0,0,0,47,330c8.14,7.55,15,16.2,23.38,23.64q-.42,4.8-.81,9.6c-.51,6.31-.6,12.69-.58,19.08H48.87a2.79,2.79,0,0,0-2.79,2.79V399a5.14,5.14,0,0,0-1,.1,3.23,3.23,0,0,0-2.27,1.84,5,5,0,0,0-.51,2.46,5.41,5.41,0,0,0,.78,3.06,3.37,3.37,0,0,0,2,1.43,3.65,3.65,0,0,0,1,.16,1,1,0,0,1,.05-.3l0-.1v0l0,.09a.7.7,0,0,0,0,.29h.06v13.92a2.79,2.79,0,0,0,2.79,2.79h8.68l-.06.2a3.32,3.32,0,0,0,.11,2.87,1.93,1.93,0,0,0,1.36.68,1.9,1.9,0,0,0,.53,0,1.67,1.67,0,0,0,.3-.08,1,1,0,0,0,.24-.07A1.87,1.87,0,0,0,61.09,427c.1-.26.23-.65.54-.74.54-.15,1.14,1.38,1.93,1.57a2.29,2.29,0,0,0,1,0,2,2,0,0,0,.54-.19c.32-.17.63-.71,1-.86a.37.37,0,0,1,.14,0c.61,0,1.12.81,1.94.69h0a2.51,2.51,0,0,0,1.33-.66c.28-.26.39-.75.73-.92s.91,0,1.3,0h0a2.62,2.62,0,0,0,.57-.12c.7,11.4,1.44,22.79,1.82,34.2.18,5.66,2.12,10.54,3,16,1.08,7.08,2.52,14.1,3.64,21.17.64,4.06,1.78,9.52,1.71,13.55,0,2.49-1,4.79-1.5,7.21a9.59,9.59,0,0,0-.12,3.62,10.51,10.51,0,0,1,0,3.71,23.47,23.47,0,0,1-.88,4.14,32.11,32.11,0,0,0-1,3.29l-2.35,1.73a2.53,2.53,0,0,1,.27.18,12.66,12.66,0,0,1-2,.6c-2,.44-4.15.32-6.07,1a4.83,4.83,0,0,0-3,3.09,2.44,2.44,0,0,0,.76,2.22l-.34-.1a6.44,6.44,0,0,0,2.17,3.35,19.59,19.59,0,0,0-4.53,1.43,4.82,4.82,0,0,0-2.55,3.45,2.48,2.48,0,0,0,1.06,2.11l-.36,0c.51,1.7,2.64,3.24,4.23,4,2.63,1.2,5.64,1.15,8.53,1.08l26-.64c1.92-.05,4-.13,5.56-1.19a5.21,5.21,0,0,0,2.21-4,5.55,5.55,0,0,0,1.17-.39c2.4-1.16,3.33-4.14,2.69-6.63a10.61,10.61,0,0,0,.4-4.1,3.1,3.1,0,0,0,.63-.75c1-1.67,1-3.76.81-5.7s-.22-3.6-.27-5.41c-.2-7.06.13-14.17.37-21.21.36-10.06,2.15-20.42-.2-30.3-2.1-8.83,1.58-17.66,2.61-26.37.73-6.16.89-12.57,1.19-18.77,0-1,.1-2.07.12-3.21a23.81,23.81,0,0,0,.93-3.88,78.62,78.62,0,0,0,1-9.31,48.32,48.32,0,0,0-.93-10A2.46,2.46,0,0,0,119.65,403.62ZM45,404.68a1.67,1.67,0,0,1-.28-2.33,1.64,1.64,0,0,1,1.38-.63V405A1.65,1.65,0,0,1,45,404.68Z" fill="#fff"/></g></g></svg>