<svg xmlns="http://www.w3.org/2000/svg" viewBox="0 0 240.17 343.93"><g id="Layer_2" data-name="Layer 2"><g id="Layer_1-2" data-name="Layer 1"><path d="M237.85,170.36a34.61,34.61,0,0,1-.63-4.06c-.06-.66-.39-1.29-.45-2,0-.33,0-.66,0-1a6.48,6.48,0,0,1,.68-2.51,2,2,0,0,0,.06-1.92,2.2,2.2,0,0,0-.61-.48c.08-4.46.24-8.89,0-13.38l-.92-19.9c-.18-3.74-.36-7.49-.86-11.21-.47-3.48-1.56-6.8-1.88-10.28-.38-4.19-.81-8.39-1.25-12.58a2.22,2.22,0,0,1,.07.45c.07.35,0,.4.36.45.82.13,1.66-.56,2.38-.86a2.34,2.34,0,0,0,1.44-2.25,9.36,9.36,0,0,0-.59-1.43,16.56,16.56,0,0,0-.92-2,23.76,23.76,0,0,1-2-6.44,32.52,32.52,0,0,0-2.38-8c-1.45-3.29-3.23-5.82-6.46-7.62a36.41,36.41,0,0,0-9.58-3.21c-2.31-.54-4.65-.95-7-1.48a17.27,17.27,0,0,1-3.84-1.13,21.4,21.4,0,0,0-2-1,2.52,2.52,0,0,1,.12.29,9.41,9.41,0,0,1-3-4.37,17,17,0,0,1-.76-4.3c.42-.37.83-.75,1.24-1.14.58-.63,1.12-1.29,1.67-2a3.35,3.35,0,0,0,1.08.22,5.5,5.5,0,0,0,2.72-.69A6.27,6.27,0,0,0,208,40a6.52,6.52,0,0,0-2.16-5.44,1.31,1.31,0,0,0-.12-.11,1.64,1.64,0,0,0,.14-.22c1-2.07,2.46-4.84,1.06-7.14,0-.27.07-.54.1-.82a27.77,27.77,0,0,0,1.16-3.55,12.28,12.28,0,0,0,.28-2.19c.63-.16.31-1.75.35-2.22a2.93,2.93,0,0,0-.4-2,1.84,1.84,0,0,0-.43-.45,1.86,1.86,0,0,0,0-.41A43.23,43.23,0,0,0,206.65,8C204-.74,193.42-.43,186,.38a23.82,23.82,0,0,0-9.94,3.15,11.41,11.41,0,0,0-1.5,1.08,10.87,10.87,0,0,0-3.24,5.23,19.46,19.46,0,0,0-.81,5.78l-.31.22a1.88,1.88,0,0,0-.56.75,4.76,4.76,0,0,0-.2,1.8,2.77,2.77,0,0,0,.15,1,1.93,1.93,0,0,0,1.33,1A21.25,21.25,0,0,0,172,26l0,0c-.08-.23-.15-.45-.21-.68,0,.26,0,.53,0,.79a3.62,3.62,0,0,0-.9.8c-1.61,2.33-.14,5.21.94,7.33a3.91,3.91,0,0,0,.4.65h0a13.51,13.51,0,0,0,.3,1.54,3.15,3.15,0,0,0-.08,2.44A22.92,22.92,0,0,0,178.64,47l0,0c.26.34.53.66.82,1a20.47,20.47,0,0,1,.16,5.9,15.33,15.33,0,0,1-1.22,4.22l-.19.4h-.19a.56.56,0,0,0,0-.08,8.44,8.44,0,0,0,.63-1.19,5,5,0,0,1,.3-1,14,14,0,0,1-4.58,2.12c-1.5.39-3.3.07-4.86.17a17.06,17.06,0,0,0-5.14,1.06c-1.46.59-3.17.75-4.46,1.72a12.07,12.07,0,0,0-3.42,4.09c-.4.81-.8,1.6-1.22,2.4-1.64,3.1-2.8,6.49-4.24,9.69-.39.86-.75,1.72-1.08,2.6a19,19,0,0,0-.72,2.55c-.11.54-.22,1.07-.31,1.6a20.76,20.76,0,0,0-.3,2.72,15.88,15.88,0,0,0,0,2.39,1.41,1.41,0,0,0,.07.54.15.15,0,0,0,.09.09,18.1,18.1,0,0,0-.17,1.95c-.26-6.47-.46-13-.72-19.46,0-.17,0-.32,0-.47h0a1.78,1.78,0,0,0,.57-.06l.17-.08c.85-.58.08-2.68.14-3.58.11-.28.22-.58.33-.92a13.34,13.34,0,0,1,1.45-3.36l.08-.12a12.66,12.66,0,0,0,1.45-3.65c.42-1.65,1.33-2.86,1.43-4.58a25.5,25.5,0,0,1,.09-3,9.53,9.53,0,0,0-.31-4c-.17-.83.36-1.83-.42-2.46a1.58,1.58,0,0,0-1.07-.26,1.63,1.63,0,0,0-1,.48c-.72.78-.68,2-.71,3s.07,4.24-1.16,4.46a1,1,0,0,1-.61-.12c-.68-.33-1.23-2.64-1.58-3.33a49,49,0,0,1-3.41-7c-.58-1.8-.61-4-1.78-5.6a2,2,0,0,0-1.54-1,1.08,1.08,0,0,0-.3,0c-2,.48-.65,2.94-.26,4.08a25.34,25.34,0,0,1,.59,2.58c.24,1.09.68,2.12,1,3.18a7,7,0,0,1,.42,1.81c0,.45-.1.63-.28.63s-.75-.44-1-.83-.55-1.1-.9-1.62a22.69,22.69,0,0,1-1.44-3.27c-.61-1.35-1-2.74-1.63-4.12-.36-.84-.84-1.79-1.73-2a1.71,1.71,0,0,0-.45,0,1.53,1.53,0,0,0-1.12.64c-.69,1,.06,2.18.54,3.1.72,1.39.95,2.9,1.58,4.31.41.91.8,1.82,1.25,2.7.2.39.4.78.61,1.16s.48.65.45,1a1.25,1.25,0,0,0-.15-.28c-.31-.52-.61-1-.91-1.56l-.34-.6c-.21-.36-.41-.72-.63-1.07a13.58,13.58,0,0,1-1.16-2.32c-.31-.87-1.16-2.86-2.2-2.92-.35,0-.71.17-1.09.69a1.82,1.82,0,0,0-.2,1.54c.34.77.71,1.53,1.12,2.26A39.85,39.85,0,0,0,133.43,50c.35.66.85,1.18,1.25,1.79a4.68,4.68,0,0,1,1.1,2.47c-.38-.16-.58-.69-.79-1-.36-.55-.72-1.1-1.09-1.65-.54-.83-1.61-4.16-3.08-4a1.34,1.34,0,0,0-.66.32c-.69.56-.36,1.33,0,2a21.08,21.08,0,0,0,2.22,4.13,11.57,11.57,0,0,1,1.6,3A25,25,0,0,0,135.51,60c1.51,2.75,2.47,4.4,2.48,7.63,0,.74,0,1.49,0,2.23-.21.56-.78,1.24-.39,1.77a.76.76,0,0,0,.34.27c-.16,3.87-.49,7.74-.63,11.57-.17,4.88-.94,9.69-.89,14.57a84.31,84.31,0,0,0,1,12.39c.57,3.52,1.26,7.22,2.91,10.36.74,1.4.47,2.59,2.3,2.92a16.38,16.38,0,0,0,3,.27c1.1,0,2.47-1,3.48-1.39,2.21-1,3-2.68,4.22-4.64,3.42-5.36,5.86-11.28,8.24-17.18l.23-.57,1.4-3.47h0c.71.26,1.53.4,1.93-.29l.59-1c1.69,9.78,4.28,19.44,2.41,29.54l-4,21.78a11.21,11.21,0,0,0-.47,3.35,3.25,3.25,0,0,0,0,.93c-.32,1-.61,2-.87,3s-.44,1.77-.63,2.66l-1.23.14c-2.11,0-4.21.1-6.24.19-3.39.15-6.64.38-9.59.67s-5.66.64-7.89,1A25.81,25.81,0,0,0,132,160.1L3,215.57a7.39,7.39,0,0,0-2.58,1.61,1,1,0,0,0-.34,1,1.06,1.06,0,0,0,0,.19v24.89a.53.53,0,0,0,0,.12,1,1,0,0,0,.2.8,4.33,4.33,0,0,0,2.26,1.12,23.46,23.46,0,0,0,4.57.6l70.05,3.52s0,0,0,.08V312l-22.92,9.85a4.32,4.32,0,0,0-1.55,1,.62.62,0,0,0-.18.7,2,2,0,0,0-.05.42v14a.43.43,0,0,0,0,.11s0,.05,0,.08a.24.24,0,0,0,.06.11.2.2,0,0,0,0,.08h0l0,0a.45.45,0,0,0,.17.11,2.53,2.53,0,0,0,1.16.54,14.09,14.09,0,0,0,2.75.36l90.27,4.54a34.28,34.28,0,0,0,4.18,0,29.6,29.6,0,0,0,3.75-.49,14.84,14.84,0,0,0,2.85-.85,3.62,3.62,0,0,0,1.57-1.1l3.27-4.87,7.84-11.68,3.75-5.59,1.5-2.23c.42-.62,1.07-1.3.94-2v-7a16.75,16.75,0,0,0,8.77-2.9,11.81,11.81,0,0,0,1.4-1.14,2.7,2.7,0,0,0,0,.28,5.85,5.85,0,0,0,.1,1.67,8.52,8.52,0,0,0,.5,1.63,13.56,13.56,0,0,0,.79,1.57,6.57,6.57,0,0,0,1.52,1.76,8.89,8.89,0,0,0,2.14,1.27,11.42,11.42,0,0,0,2.55.73,12.93,12.93,0,0,0,4.92-.1,14.23,14.23,0,0,0,4-1.49,14.55,14.55,0,0,0,1.69-1.12,8.42,8.42,0,0,0,.7-.64c.22-.23.43-.46.64-.7l.63-.71c.21-.23.42-.44.66-.67l.73-.66.73-.66c.25-.22.48-.45.7-.68s.45-.47.65-.71.6-.74.87-1.12.53-.76.76-1.15.44-.78.63-1.19a10.74,10.74,0,0,0,.47-1.23l0-.06a3.31,3.31,0,0,0,.12-1.17,8,8,0,0,0-.2-1.19c-.1-.39-.21-.79-.3-1.18a6.79,6.79,0,0,1-.19-1.17,7.62,7.62,0,0,1,0-1.07c0-.36.07-.71.13-1.07s.12-.71.17-1.06.11-.71.15-1.06a9.42,9.42,0,0,0,.06-1.06,6.2,6.2,0,0,0-.09-1.05h0c.2-2.72-.22-5.31-.24-8.16,0-3.15,1.16-6.4,1.61-9.56q.85-6,1.46-12c.87-8.69,1-17.47,1.74-26.13s3.35-17.28,3.79-26.07c.25-4.82,1.45-9.59,2.42-14.42a4.16,4.16,0,0,0,.48-.22,12.56,12.56,0,0,1,1.35-.31,1.93,1.93,0,0,0-.39,1.75,1,1,0,0,0,.73.67,1.77,1.77,0,0,0,1.15-.24l6.75-3.23a8.16,8.16,0,0,0,2.55-1.63c.57-.65.55-1.84.85-2.62.6-1.57,1.65-2.93,2.27-4.48a4.88,4.88,0,0,0,.69-2.66C239.5,176.53,238.52,173.45,237.85,170.36ZM161,298.55v-45c1.16,0,2.32-.06,3.47-.14a49.87,49.87,0,0,0,5.84-.75c0,.4.09.81.16,1.22,0,.2.08.4.11.6,1.13,6.82,2.88,13.22,2.87,20.25a67.29,67.29,0,0,1-.48,8c-.14,1.2-.23,2.46-.43,3.64-.13.73-.65,1.83-.44,2.55a.75.75,0,0,0,.13.25c0,.1,0,.2-.05.3-.06.34-.11.68-.19,1a4.68,4.68,0,0,1-.36,1,6.8,6.8,0,0,1-.79,1.21c-.3.38-.63.73-.94,1.09a10.19,10.19,0,0,0-.85,1.11,4,4,0,0,0-.56,1.27,4.94,4.94,0,0,0-.15,1.09,2.88,2.88,0,0,0,0,.41,7.26,7.26,0,0,0-.22,1l-.5,0C165.64,298.62,163.4,298.57,161,298.55ZM192.55,229a42.8,42.8,0,0,1-1,14.08c0-.34,0-.68,0-1,0-.08,0-.15,0-.22a1.72,1.72,0,0,1,0-.32l0-.39c0-.79-.09-1.58-.15-2.36l-.09-.92c0-.48-.09-1-.14-1.45-.2-1.82-.42-3.63-.65-5.45l2-3C192.5,228.29,192.52,228.65,192.55,229Zm32.55-45.11a1,1,0,0,1-.13.16c0-.24,0-.48,0-.72a93.07,93.07,0,0,0-4.6-33.29c0-.12-.07-.25-.11-.37a2.72,2.72,0,0,0,.51-2.21,4.1,4.1,0,0,0-.15-1.82c-1-3.44-2.66-6.59-3.49-10.12a55.56,55.56,0,0,1-1.39-11c-.21-6.81,1.18-13.5,2.37-20.18a1.85,1.85,0,0,1,0-.23c.15,1.21.3,2.4.4,3.58.37,4.47.77,8.93,1.3,13.39a155.76,155.76,0,0,0,5.1,26.29,49.71,49.71,0,0,1,2.35,9.79c0,.62.06,1.23.06,1.85l-.16,0-.15,0a.6.6,0,0,0-.39.76,15.54,15.54,0,0,1,0,5.27c-.46,2.3-1.62,4.8-1.49,7.16.09,1.6,0,3.35.21,4.92A14.49,14.49,0,0,1,226,181a12.31,12.31,0,0,1-.69,2.65C225.21,183.73,225.16,183.83,225.1,183.91Zm-51.31-159c0,.21-.08.42-.12.63h-.16v0A2.53,2.53,0,0,1,173.79,24.94Z" fill="#fff"/></g></g></svg>