<?xml version="1.0" encoding="UTF-8"?><svg xmlns="http://www.w3.org/2000/svg" viewBox="0 0 303.2 119.01"><g id="a"/><g id="b"><g id="c"><path id="d" d="M57.2,118.92H248.19c10.04,0,24.82,1.81,27.37-11.34,.59-3.04,.15-6.18-.29-9.25-1.05-7.27-2.24-11.19,2.96-16.64,5.51-5.77,12.22-10.08,17.85-15.71,8.45-8.47,9.08-22.77,3.45-33.32s-16.4-17.61-27.78-21.31c-22.48-7.32-47.73-9.12-71.22-8.04-10.58,.49-20.38,.8-30.98-.18-10.42-.96-20.81-2.18-31.25-2.8-5.83-.45-11.68-.46-17.51,0-9.41,.89-15.95,8.2-24.16,12.22-8.35,4.1-17.37,6.67-26.63,7.58-9.73,.94-19.69,.05-29.16,2.47-14.81,3.77-20.66,15.96-23.4,29.92-1.6,8.14-1.72,16.5-3.24,24.65-.87,5.37-2.73,10.53-5.48,15.22-2.43,3.9-6.65,6.27-8.08,10.68-2.73,8.47,3.66,15.85,12.24,15.85H57.2Z" fill="#bed7ea"/></g></g></svg>