<?xml version="1.0" encoding="UTF-8"?><svg xmlns="http://www.w3.org/2000/svg" viewBox="0 0 267.53 131.73"><g id="a"/><g id="b"><g id="c"><path d="M260.32,87.02c-4.06-3.94-9.3-6.37-14.44-8.73-4.28-1.96-10.33-3.56-14.02-6.46-2.6-2.04-4.04-5.56-5.55-8.5H123.56c-.1-.3-.16-.65-.16-1.06,.01-2.14,4.16-2.01,6.53-2.46,24.9-4.6,49.81-9.19,74.72-13.76q8.54-1.57,11.64,6.48c.7,1.8,1.3,3.9,3.8,3.5,2.96-.48,1.78-2.8,1.7-4.58-.47-10.87,1.47-13.1,12.45-15.08,3.94-.65,7.81-1.66,11.56-3.03,7.18-2.72,12.45-9.68,11.86-15-1.24-11.19-5.92-16.86-15.85-18.08-13.55-1.67-30.64,3.79-25.45,24.84,.17,.67,.3,1.36,.36,2.05,.55,6.57-1.07,9.12-7.33,11.14-3.96,1.28-7.94,2.56-11.99,3.48-26.1,5.92-52.55,9.49-79.2,11.81-10.51,.92-20.97,3.23-31.53,2.44-21.17-1.58-42.35-.65-63.52-.75-2.75,.22-5.39,1.19-7.62,2.81-3.51,2.91-1.59,4.55,2.29,2.55,4.94-2.56,7.59-2.64,13.59-2.59,6.71,.06,13.42-.27,20.12,.08,4.6,.24,15.56,.3,18.62,4.22-.53,.35-1.09,.66-1.68,.96H9.17C1.72,71.22-1.33,82.71,.54,93.39c3.25,18.61,19.76,29.17,37.34,32.06,9.06,1.47,18.32,1.22,27.29-.72,13.16-2.85,24.12-11.38,36.36-16.51,32.28-13.66,69.16-10.97,99.12,7.23,15.01,9.07,33.72,21.89,51.83,13.63,15.75-7.19,20.43-29.81,7.84-42.05ZM228.99,6.45c8.9-3.51,17.04-2.06,21.26,3.77,3.53,4.81,2.75,11.53-1.79,15.4-4.06,3.27-9.05,5.19-14.26,5.49-7.39-.04-12.79-4.32-14-10.65-1.19-6.25,2-11.34,8.78-14.01Z" fill="#bed7ea"/></g></g></svg>