<svg xmlns="http://www.w3.org/2000/svg" viewBox="0 0 233.9 228.14"><g id="Layer_2" data-name="Layer 2"><g id="Layer_1-2" data-name="Layer 1"><path id="Path_12048-2" data-name="Path 12048-2" d="M72,126A37.3,37.3,0,0,0,35,163.6" fill="none" stroke="#fff" stroke-miterlimit="10" stroke-width="5"/><path id="Path_12049-2" data-name="Path 12049-2" d="M179,126a37.3,37.3,0,0,1,37,37.56c-.09,13.48-9.9,23.3-15.41,34.92" fill="none" stroke="#fff" stroke-miterlimit="10" stroke-width="5"/><path d="M101,177.27a22.29,22.29,0,0,0-.31-2.44A19.32,19.32,0,0,0,98,168.1a38.18,38.18,0,0,0-3.43-4.65A47.54,47.54,0,0,0,90.25,159,54.33,54.33,0,0,0,85.11,155a62,62,0,0,0-5.82-3.61c-1.05-.57-2.11-1.11-3.19-1.62s-2.17-1-3.28-1.44-2.22-.86-3.34-1.24-2.26-.73-3.4-1-2.43-.63-3.64-.88-2.42-.46-3.63-.63-2.41-.29-3.61-.38-2.39-.12-3.57-.12-2.3,0-3.43.12-2.25.2-3.36.36-2.19.36-3.26.6-2.13.52-3.17.84-2.19.72-3.25,1.15-2.1.9-3.12,1.42-2,1.07-3,1.67-1.9,1.23-2.8,1.91L9.78,164.41a28.71,28.71,0,0,0-2.41,2,23.35,23.35,0,0,0-2.08,2.14,24.14,24.14,0,0,0-1.76,2.27,22.17,22.17,0,0,0-1.41,2.4,19.48,19.48,0,0,0-1,2.4,17.49,17.49,0,0,0-.69,2.45,18.11,18.11,0,0,0-.36,5,19.2,19.2,0,0,0,.32,2.5A19,19,0,0,0,1,188a20.32,20.32,0,0,0,1,2.37,20.91,20.91,0,0,0,1.29,2.31,23,23,0,0,0,1.64,2.27,28.15,28.15,0,0,0,1.94,2.14,29.76,29.76,0,0,0,2.22,2c.79.64,1.62,1.25,2.5,1.84l13,8.67c.85.57,1.73,1.1,2.64,1.6s1.87,1,2.85,1.41,2,.83,3.05,1.2,2.12.7,3.22,1,2.16.54,3.25.76,2.21.4,3.33.55,2.24.25,3.38.33,2.29.1,3.44.1c.88,0,1.75,0,2.62-.06s1.73-.1,2.59-.19,1.72-.19,2.56-.32,1.69-.28,2.52-.45,1.7-.37,2.54-.59,1.65-.46,2.45-.72,1.6-.54,2.37-.85,1.53-.62,2.27-1l2.76-1.31c.88-.42,1.72-.83,2.52-1.24s1.57-.8,2.32-1.19,1.45-.78,2.14-1.16c.86-.48,1.69-1,2.48-1.43s1.55-.94,2.29-1.42,1.44-.94,2.11-1.42,1.34-.95,2-1.43a49.19,49.19,0,0,0,4.1-3.53,36.09,36.09,0,0,0,3.29-3.7,28,28,0,0,0,2.49-3.9,24.85,24.85,0,0,0,1.7-4.14c.24-.8.45-1.59.62-2.37s.31-1.56.41-2.33a22.51,22.51,0,0,0,.18-2.29A20.93,20.93,0,0,0,101,177.27Z" fill="#fff"/><path d="M233.71,204.27a19.66,19.66,0,0,0-.5-2.4,23.93,23.93,0,0,0-.81-2.48c-.33-.84-.7-1.69-1.13-2.54s-.9-1.73-1.43-2.6-1.11-1.75-1.73-2.62-1.28-1.73-2-2.58-1.45-1.71-2.24-2.55-1.62-1.66-2.48-2.48-1.83-1.67-2.8-2.47-2-1.58-3-2.33-2.06-1.48-3.14-2.18-2.16-1.37-3.28-2L188,162.85c-1.14-.66-2.28-1.27-3.41-1.84s-2.26-1.11-3.37-1.59-2.2-.93-3.29-1.32-2.15-.75-3.21-1-2-.53-2.92-.74-1.91-.38-2.84-.5-1.84-.21-2.73-.26-1.77-.05-2.62,0a24.34,24.34,0,0,0-2.56.23,22.28,22.28,0,0,0-2.41.47,22.8,22.8,0,0,0-2.26.72,18.78,18.78,0,0,0-2.1.95,18.57,18.57,0,0,0-1.81,1.1,17.32,17.32,0,0,0-4.39,4.4,18.89,18.89,0,0,0-1.93,3.6,20.59,20.59,0,0,0-1.16,4,22.92,22.92,0,0,0-.38,4.3,26.94,26.94,0,0,0,.4,4.48,17.62,17.62,0,0,0,.48,2.06q.31,1.07.75,2.16c.29.74.63,1.49,1,2.26s.8,1.54,1.26,2.34.86,1.43,1.34,2.15,1,1.46,1.52,2.2,1.11,1.49,1.71,2.25,1.23,1.51,1.89,2.28q1.77,2.07,3.75,4t4.2,3.81c1.48,1.24,3,2.45,4.69,3.65s3.38,2.36,5.21,3.52c.76.48,1.55,1,2.35,1.44s1.62,1,2.46,1.44,1.71,1,2.6,1.44,1.81,1,2.76,1.46c.76.4,1.54.8,2.35,1.2l2.51,1.24,2.71,1.3,3,1.38c.79.36,1.58.71,2.37,1s1.58.63,2.37.91,1.59.55,2.38.8,1.57.46,2.36.66,1.52.37,2.27.53,1.49.29,2.22.4,1.46.2,2.18.27,1.42.11,2.12.14c.92,0,1.81,0,2.67,0a24.36,24.36,0,0,0,2.5-.24,18.93,18.93,0,0,0,4.45-1.16,16,16,0,0,0,1.95-.95,11.47,11.47,0,0,0,1.68-1.17,10.14,10.14,0,0,0,1.39-1.39,9.27,9.27,0,0,0,1.1-1.6l4.85-8.78a10.15,10.15,0,0,0,.83-1.88,11.25,11.25,0,0,0,.5-2.06,12.58,12.58,0,0,0,.16-2.21A15.79,15.79,0,0,0,233.71,204.27Z" fill="#fff"/><path d="M179.91,119.32h-5.32a3.6,3.6,0,0,0-3.59,3.6v.15H129.75v-.15a3.6,3.6,0,0,0-3.59-3.6H126V0h-5V119.32h-.16a3.6,3.6,0,0,0-3.59,3.6v.15H76v-.15a3.6,3.6,0,0,0-3.59-3.6H67.09a3.6,3.6,0,0,0-3.59,3.6v5.31a3.59,3.59,0,0,0,3.59,3.59h5.32A3.59,3.59,0,0,0,76,128.23v-.16h41.25v.16a3.59,3.59,0,0,0,3.59,3.59h5.32a3.59,3.59,0,0,0,3.59-3.59v-.16H171v.16a3.59,3.59,0,0,0,3.59,3.59h5.32a3.59,3.59,0,0,0,3.59-3.59v-5.31A3.6,3.6,0,0,0,179.91,119.32Z" fill="#fff"/></g></g></svg>