<svg xmlns="http://www.w3.org/2000/svg" viewBox="0 0 99.32 313.13"><g id="Layer_2" data-name="Layer 2"><g id="Layer_1-2" data-name="Layer 1"><path d="M98.44,161.38c-1.58-2.26-2.07-5.08-2.65-7.68-.41-1.81-.65-3.43-.88-5.2.72-1.1.64-2.48.67-3.93,0-1.09.21-2.67-1-2v-.2c0-.21,0-.43,0-.65s.08-.39.12-.59a2.12,2.12,0,0,0,.56,0c.59-.09.64-.39.69-.91s0-1-.67-.94a1.7,1.7,0,0,0-.4,0h0a1.76,1.76,0,0,1,.41,0,4.36,4.36,0,0,0-.42-.23,11.52,11.52,0,0,0-.34-2.79,19,19,0,0,0-2.19-5.15h0a19.54,19.54,0,0,0-1.62-2.31c-1-1.23-2.36-2.49-4-2.54a3.11,3.11,0,0,0-.94.14,4,4,0,0,0-1.89.89,12.61,12.61,0,0,0-2.44,2.29l0,.06-.25.3c-.24.3-.48.62-.7.94l0,0-.06.1c-.14.2-.27.39-.39.59a15.18,15.18,0,0,0-2.3,6.76v.1a4.59,4.59,0,0,1-2.63.24c-1.38-.37-1.52-1.83-2.7-2.43.14.3-.11.82-.39,1.27-2.34-1.83-5.18-2.88-7.77-4.31a71.35,71.35,0,0,1-8.48-5.59c-2.27-1.69-4.35-3.65-6.57-5.41-.83-.69-1.7-1.32-2.58-1.93q.24-7.68,1.2-15.3c.75-5.43,3.7-11.12,3.91-16.82A22.66,22.66,0,0,0,48.29,76a53.22,53.22,0,0,0-5.92-8.14c-1.19-1.64-2.54-3.18-3.57-4.93-1.92-3.26-1.91-6.38.37-9.37,1.1-1.45,1.54-.56,2.59.51l.65.7A11.06,11.06,0,0,0,44.55,58c1.89,1.95,6.12,3.51,8.32,1.23a6.24,6.24,0,0,1,1.45-1.31,8.73,8.73,0,0,1,1.58-.48c1.67-.45,3.24-3.24,4-4.7a8.1,8.1,0,0,1,1-1.71c.91-1.08,2.24-1,3-2.42A4.15,4.15,0,0,0,64,44.8a.47.47,0,0,1-.06-.09v-.07a19.21,19.21,0,0,1,1-3.7c.76-2,2.57-3.63,3.9-5.25a13.44,13.44,0,0,0,1.63-2.32c.11-.28.19-.57.28-.86l.48.3a1.38,1.38,0,0,0,.64.26c.82.07,1.14-1.86,1.39-2.38a3.48,3.48,0,0,0,.38-2.39,2.36,2.36,0,0,0-.31-.69,2.29,2.29,0,0,0,.17-.46c1-3.79,2.46-8.38,1.3-12.21C72.05,5.76,62.73,3,54.31,1a30.75,30.75,0,0,0-13-.5,15.65,15.65,0,0,0-2.23.61A13.68,13.68,0,0,0,33,5.68a22.74,22.74,0,0,0-2.2,3.46c-.53-.15-.9,0-.94.59l.45.38c-.28.59-.53,1.19-.76,1.8a3.9,3.9,0,0,0-.46.12,2.22,2.22,0,0,0-1,.62,5.49,5.49,0,0,0-1,2,3.07,3.07,0,0,0-.26,1.19,2.31,2.31,0,0,0,1.73,1.88l.35.08a6.44,6.44,0,0,1-2,4.69c-.54.11-1,.26-1.32.33a19.85,19.85,0,0,0-6.16,3.06c-3.88,2.68-6.28,7.29-7.63,11.7-1,3.16-1.49,6.39-2.65,9.5a50.2,50.2,0,0,1-2.86,6.45C5.42,55,3.15,57.2,2.93,58.9s3,2.55,4.3,2.82A12.73,12.73,0,0,0,9.31,62a32.35,32.35,0,0,0-3.88,8.52c-1,3.94-.55,7.8-.54,11.79-.42,1.93-.8,3.87-1.19,5.8-.3,1.5-.87,3-1.26,4.44a2.78,2.78,0,0,0,1.44,3c.66.45,1.36.81,2.07,1.2q-1,7-1.67,14.09c-.18,2.63-1.13,5.34-.24,7.93a7.4,7.4,0,0,0,2.36,3.36c-1.34,4.83-3.64,9.29-4.75,14.33A62.74,62.74,0,0,0,.53,148c-.06,1.74,0,3.55-.13,5.28-.12,1.21-.63,2.5-.28,3.71a4.51,4.51,0,0,0,1.25,1.94c.13.17.28.32.42.48A116.09,116.09,0,0,0,3,172.74c2,13.26,3.9,26.55,4.73,39.94.58,9.52-1.29,19.38-1.45,28.93-.23,14.18,1.93,28.14,1.85,42.18,0,5.65-1.65,9.67,1.91,13a13.27,13.27,0,0,0-.63,1.87,13.5,13.5,0,0,0-.67,5.69,5.43,5.43,0,0,0,1.58,6.56,9.87,9.87,0,0,0,5.21,1.19l24.4,1c2.72.1,5.55.19,8-.9,1.49-.66,3.52-2.07,4-3.67l-.33,0a2.3,2.3,0,0,0,1-2,4.19,4.19,0,0,0-.33-1.11l5.39.21c2.72.11,5.55.2,8-.9,1.5-.65,3.52-2.06,4-3.66l-.32,0a2.3,2.3,0,0,0,1-2,4.51,4.51,0,0,0-2.35-3.29c-1.69-.94-3.69-1.13-5.5-1.81a11.52,11.52,0,0,1-1.77-.85,2.36,2.36,0,0,1,.28-.12L57.07,289c-.34-.55-1.24-.73-2.18-.79l-.3.29-.46-.32.76,0a4.91,4.91,0,0,0,.57-.65,4.52,4.52,0,0,0,.75-1.41,3.65,3.65,0,0,0,1.24-1.54c.53-1.34,0-2.83-.41-4.2-2.52-8.26-1.56-17.07-.58-25.46,1.16-9.9,2.08-19.83,3.09-29.75.43-4.19,1.58-8.95.42-13.06s-2.87-7.81-3.76-12c-1.08-5.08-2.32-10.1-3.63-15.13A293,293,0,0,1,46,155c1.41-.39,2.35-.71,2.3-.86a19.54,19.54,0,0,1-.73-3.56c.16.21.31.43.48.63a7.93,7.93,0,0,0,4.42,1.68,11.51,11.51,0,0,1,4.6,1.28,10.6,10.6,0,0,1,3.08,3.94c.39.67,2.15,4,3.11,2.55a4.21,4.21,0,0,0,0-2.2,10.5,10.5,0,0,0-.93-2.45c-.23-.68-.5-1.35-.78-2a5.49,5.49,0,0,0,1.07,1.47,8.83,8.83,0,0,1,1.7,2.19c.5.88.7,1.86,1.16,2.75.18.33.41.7.8.75a.83.83,0,0,0,.76-.4A4.86,4.86,0,0,0,67.6,159c.07.39.13.78.17,1.18.16,1.77,1.8.37,2-.62a7.79,7.79,0,0,0-.32-2.45c-.39-2.51-.81-5-2.6-6.94a1.29,1.29,0,0,1-.46-.75c0-.3.33-.64.58-.47a9.72,9.72,0,0,0,2.13,1.32,8.11,8.11,0,0,1,2.06,1.08c.66.5,1.09,1.24,1.75,1.69a2.28,2.28,0,0,0,1.07.49c.4,0,.86-.21.88-.59l-2.24-3a10.59,10.59,0,0,0-2.1-2.13,11.93,11.93,0,0,0-3.33-1.66A105,105,0,0,1,54,141.3a10.28,10.28,0,0,1-2.7-1.66c-1.22-1.11-1.1-3.53-3-2-.09.08-.16.18-.25.26l-1.29-.77-.06-1.46a154.93,154.93,0,0,0,15.86,6.46c1.21.42,2.5,1.08,3.82,1.58l-.25.19a.46.46,0,0,0-.18.16.33.33,0,0,0,.2.42h0a7.71,7.71,0,0,1,1.55.41,17.64,17.64,0,0,0,1.67,1.15c1.24.55,2.54.65,3.83,1.19,1.75.75,3.25,1.56,5.06,2.46a23.13,23.13,0,0,0,5.94,2.48A7.52,7.52,0,0,0,87,152a17.51,17.51,0,0,0,2.78-.37c0,.4,0,.81,0,1.22a20.69,20.69,0,0,0,2.87,9.39c1.08,1.81,1.77,3.26,4.06,3.43a2.85,2.85,0,0,0,1.69-.25,2,2,0,0,0,.85-1.37A3,3,0,0,0,98.44,161.38Zm-30.93-2.84-3.4-6.62A14.24,14.24,0,0,1,67.51,158.54ZM22.94,40.15c.81-2.57,1.13-5.31,2.24-7.79A21.8,21.8,0,0,1,27,29.25a14.13,14.13,0,0,1,1.54-1.46,10.9,10.9,0,0,0-.46,2.62A6.46,6.46,0,0,0,28.41,32a.47.47,0,0,0-.25.07,1.18,1.18,0,0,0-.44.57,1.67,1.67,0,0,0,0,1.58,1.64,1.64,0,0,0,.92.81,6.64,6.64,0,0,0-.6,1.94l.27-.15c-.15.28-.3.56-.43.84a84.35,84.35,0,0,1-4.06,7.4A63,63,0,0,1,18,52.38c.09-.84.17-1.66.28-2.4C18.78,46.33,21.8,43.73,22.94,40.15ZM59.08,291.43c0,.17-.08.35-.12.53l-.74-.56A2.5,2.5,0,0,1,59.08,291.43Zm-2.89-1.91v.24l-.26-.21Zm-1.45-1.92a1.23,1.23,0,0,0,.14.31,3.14,3.14,0,0,0-.66-.6l.45-.22A1.5,1.5,0,0,0,54.74,287.6Z" fill="#fff"/></g></g></svg>