<?xml version="1.0" encoding="UTF-8"?><svg xmlns="http://www.w3.org/2000/svg" viewBox="0 0 250.96 139.37"><g id="a"/><g id="b"><g id="c"><path id="d" d="M18.89,0H239.97c4.57,9.33,9.43,18.75,10.71,29.05,1.03,8.33-.52,22.94-8.75,27.86-3.8,2.27-8.67,2.07-12.61,4.98-3.77,2.74-6.6,6.57-8.11,10.98-1.26,3.82-1.48,7.94-2.83,11.73-1.8,5.07-5.86,7.83-10.95,9.01-4.86,1.13-9.9,1.05-14.89,.96l-36.38-.64c-10.24-.18-20.57-1.82-30.04,2.76-6.73,3.25-12.21,8.6-17.28,14.1s-9.93,11.28-15.91,15.77c-15.53,11.64-37.34,16.51-55.84,9.65C-.61,122.24-4.18,75.65,3.02,41.81,6.17,27.07,12.3,13.56,18.89,0Z" fill="#bed7ea"/></g></g></svg>