<?xml version="1.0" encoding="UTF-8"?>
<svg id="b" data-name="Layer 2" xmlns="http://www.w3.org/2000/svg" viewBox="0 0 82.93 131.77">
  <g id="c" data-name="Layer 1">
    <path d="m82.73,107.27c.08-.64.13-1.31.15-2.02.11-6.56,0-13.12,0-19.68V22.59c0-12.48-10.12-22.59-22.59-22.59h-27.2C20.61,0,10.5,10.12,10.5,22.59v90.95l-6.99,4.39c-.7.29-1.33.7-1.88,1.22-1.26,1.19-1.81,2.9-1.56,4.54-.22,1.34.09,2.76.98,3.93l.23.31.28.27c.74.72,1.66,1.2,2.67,1.41.43.09.87.15,1.26.17l40.01,1.98c.17,0,.35.01.52.01.25,0,.5,0,.72-.02.41-.03.82-.07,1.17-.13.41-.06.82-.15,1.16-.25.51-.14,1.01-.33,1.48-.57,5.06-2.73,10.11-5.46,15.17-8.18,7.73-4.17,15.83-6.41,17.01-15.35Z" fill="#231f20"/>
  </g>
</svg>