<?xml version="1.0" encoding="UTF-8"?><svg xmlns="http://www.w3.org/2000/svg" viewBox="0 0 631.2 246"><g id="a"/><g id="b"><g id="c"><g id="d"><path id="e" d="M178.55,132.62c1.93-7.52,3.7-15.84-2.33-21.96-2.33-2.36-5.43-1.48-8.12-2.95-1.6-.87-3.51-2.49-3.97,.38-.05,.8-.14,1.6-.29,2.38-.17,.81-.87,1.4-1.69,1.44-.86-.19-1.45-.98-1.39-1.86,.09-.85,.29-1.68,.62-2.47,1.47-5-4.81-1.33-7.11-1.54-1.49-.09-2.88-.75-3.9-1.84-.74-.99-.62-2.35-1.07-3.46-.52-1.27-1.44-2.62-2.9-2.82-4.13-.56-7.16,3.42-10.77,4.84-3.1,1.13-6.48,1.19-9.61,.17-3.32-.94-6.12-3.09-9.58-3.76-7.45-1.44-13.87,.16-18.67,6.14-2.61,3.26-3.18,6.88-3.97,10.77-.9,4.38-2.08,8.62-2.32,13.15-.49,7.99,.5,16.01,2.93,23.64,2.82,8.65,4.24,16.71,10.95,23.43,5.53,5.52,12.97,8.7,20.79,8.89,7.37,.24,13.56-2.47,20.92-4.42,7.63-2.17,15.61-2.78,23.48-1.82,5.19,.74,10.82,1.9,15.26,4.82,1.45,.95,2.86,2.09,4.57,2.37,6.21,1.04,7.88-10.31,10.88-13.54,2.84-2.9,5.44-6.02,7.78-9.34,3.07-4.53,5.81-9.22,5.51-14.76-.33-6.06-5.28-13.18-11.77-11.18-5.85,1.81-11.75,9.73-18.42,7.12-4.59-1.98-7.04-7.01-5.77-11.84Z" fill="#a46c35"/></g><g id="f"><path id="g" d="M151.84,180.35c-2.72,.99-5.16,2.66-7.07,4.84-2.16,2.36-4.24,5.38-7.23,6.88-2.94,1.46-6.02,2.6-9.2,3.42-10.12,2.71-19.83,4.11-30.25,2.01-4.99-1.06-9.75-2.98-14.08-5.66-3.2-1.88-6.34-6.32-10.45-6.92-1.69-.25-2.77,1.21-4.35,1.44-.04,0-1.86-3.87-2.04-4.44-.81-2.17-1.08-4.5-.79-6.8,.33-2.5,1.76-4.53,3.12-6.6,1.66-2.53,.35-2.5-1.84-4.41-3.48-3.04-7.5-5.94-8.56-11.26-.85-4.25-.3-11.23,4.11-13.72-.02,1.59-.53,3.36,.04,4.96s2.28,2.76,3.88,1.93c.97-.61,1.45-1.78,1.17-2.9-.67-5.06-2.55-10.09-1.39-15.22,1.48-6.92,4.29-13.48,8.26-19.34,1.92-2.85,4.39-5.25,6-8.41,1.7-3.01,2.08-6.59,1.05-9.88,.52,.65,1.97,.96,2.56,1.39,1.24,.95,2.15,2.29,2.58,3.79,.5,1.45-.32,3.26,1.13,4.2,4.55,2.96,6.95-3.71,7.25-7.44,.88,.35,3.7,1.51,4.18,1.83,1.64,.99,3.07,2.28,4.23,3.8,2.12,2.82,3.71,6.13,3.33,9.62-.63,5.83-3.97,10.66-5.62,16.08-1.53,5.01-2.61,10.19-.4,15.03,2.95,6.48,9.77,9.62,12.93,15.92,1.92,3.83,1.33,7.89,1.68,12.09,.55,6.63,3.14,13.18,9.54,16.12,7.45,3.42,14.77,.61,22.03-1.87,2.09-.72,3.86-1.46,6.08-1-.63,.14-1.24,.32-1.85,.52Z" fill="#0f0a0a" stroke="#0f0a0a" stroke-linecap="round" stroke-linejoin="round" stroke-width=".85"/></g><path id="h" d="M145.93,101.31c.1-.08,.27-.08,.55,.06,.92,.44,1.19,2.27,1.37,3.13,.16,.75,.13,1.29,.78,1.86-.71-.8-1.37-1.65-1.97-2.54-.26-.36-1.15-2.17-.74-2.5Z" fill="#7b5227" stroke="#7b5227" stroke-linecap="round" stroke-linejoin="round" stroke-width=".63"/><path id="i" d="M122.58,125.64c-1.15-1.85-1.98-3.88-2.43-6.01-.22-1.32-.3-2.66-.22-3.99,0-.57,.04-1.13,.14-1.69,.19-.97,.82-.98,.85,.03,.1,3.92-.59,8.06,1.66,11.67Z" fill="#7b5227" stroke="#7b5227" stroke-linecap="round" stroke-linejoin="round" stroke-width=".22"/><path id="j" d="M127.77,108.84c.08,.26,.33,.23,.13,.42-2.04,1.85-5.67,1.66-7.98,.49,1.74,.37,3.54,.34,5.26-.08,.87-.48,1.84-.75,2.83-.79,.15,.24,.04,.01-.24-.04Z" fill="#7b5227" stroke="#7b5227" stroke-linecap="round" stroke-linejoin="round" stroke-width=".21"/><path id="k" d="M122.5,158.25c-3.61,.97-4.57,5.03-4.12,8.3,.65,3.63,3.31,6.57,6.85,7.57,3.53,.92,7.29,.25,10.29-1.84,2.95-2.1,5.2-5.05,6.43-8.46,.68-1.77,.88-4.82-1.71-5.08" fill="none" stroke="#7b5227" stroke-linecap="round" stroke-miterlimit="10"/><path id="l" d="M117.01,113.51c-.86,3.3-1.16,6.72-.88,10.12,.13,1.15,.34,2.28,.64,3.4,.15,.54,1.08,1.89,.46,2.3-.96,.65-2.29-1.4-2.78-1.98-1.78-2.04-2.93-4.54-3.32-7.22-.32-2.36-.35-4.76-.07-7.13,.36-2.85,1.39-11.13,5.96-10.13,2.03,.44,2.41,2.65,1.84,4.35-.43,1.29-.77,2.64-1.2,3.95-.25,.77-.46,1.55-.65,2.33Z" fill="#0f0a0a" stroke="#0f0a0a" stroke-miterlimit="10" stroke-width=".21"/><g id="m"><path id="n" d="M120.32,164.17c-.03-.81,.25-1.6,.79-2.2,.33-.26,.91-.35,1.1,.13,.18,.46-.18,1.09-.26,1.55-.26,1.51,.02,3.06,.79,4.39,.43,.75,1.06,1.37,1.82,1.79,.87,.46,1.83,.47,2.67,.98,.16,.08,.29,.21,.36,.38,.12,.42-.51,.47-.77,.45-2.08-.19-3.98-1.28-5.19-2.98-.94-1.3-1.4-2.89-1.3-4.49Z" fill="#7b5227" stroke="#7b5227" stroke-miterlimit="10" stroke-width=".21"/></g><path id="o" d="M254.26,200.04c.61-.89,.52-2.09-.23-2.88-.73-.53-1.66-.73-2.54-.54-.9,.08-1.78,.38-2.54,.88-1.41,1.01-1.9,3.31-.08,4.05,1.57,.64,4.47-.12,5.38-1.51Z" fill="#bfbe83"/><path id="p" d="M268.32,198.93c3.26-.43,6.88-1.48,8.37-4.4,1.39-2.73,.38-6.03-.86-8.83-2.61-5.85-7.2-10.12-10.05-15.6-1.88-3.63-5.04-11.51-9.8-12.29-2.25-.3-4.41,1.01-5.17,3.15-1.24,3.85,1.3,9.42,1.12,13.62-.38,5.86-1.17,11.68-2.35,17.43-.47,2.57-.49,4.59,1.9,5.81,4.94,2.52,11.5,1.82,16.84,1.11Z" fill="#a46c35"/><path id="q" d="M211.41,129.95c-2.84,1.05-5.5,2.53-7.88,4.4-2.11,1.81-2.9,2.67-3.2,5.36-.29,2.56-1.04,5.04-2.21,7.33-2.93,5.72-8.65,8.85-11.95,14.14-3.45,5.42-4.89,11.87-4.08,18.24,1,6.73,4.89,12.68,10.66,16.29,6.48,3.93,14.44,4.23,22.02,4.43,4.41,.11,8.7,.3,13.07,.06,3.22-.24,6.45-.28,9.67-.12,1.71,.12,3.4,.37,5.07,.77,1.44,.35,3.07,1.37,4.54,1.17,2.39-.32,3.14-2.02,4.24-3.79,1.33-2.04,2.31-4.3,2.88-6.67,1.79-7.52,2.61-15.23,2.46-22.95-.05-2.62-1.01-4.49-1.69-6.89-.82-2.88-1.52-5.8-2.29-8.7l-4.57-17.4c-1.32-5-2.75-10.23-6.29-14.01-1.93-2.06-3.21-1.69-5.3-.6-2.51,1.31-5.85,1.8-8.55,2.7-5.61,1.88-11.14,3.96-16.6,6.24Z" fill="#bed7ea"/><path id="r" d="M254.28,159.86c-2.73,1.06-5.58,1.78-8.49,2.12-7.02,.52-13.29-4.24-19.22-7.33" fill="none" stroke="#edf4f9" stroke-linecap="round" stroke-miterlimit="10" stroke-width=".84"/><path id="s" d="M192.54,154.88c3.04-2.59,6.97-3.9,10.96-3.65" fill="none" stroke="#edf4f9" stroke-miterlimit="10" stroke-width=".84"/><path id="t" d="M208.65,131.21c-1.87,.75-3.6,1.81-5.13,3.14-2.11,1.81-2.9,2.67-3.2,5.36-.29,2.56-1.04,5.04-2.21,7.33-.8,1.49-1.79,2.86-2.96,4.07-.66,.71-1.31,1.42-1.96,2.14-.35,.38-.74,.72-1.06,1.14,.47-.49,1.04-.88,1.67-1.15,1.73-1.02,3.4-2.13,5.08-3.22,1.59-.92,3.02-2.09,4.24-3.48,3.11-3.87,4.68-10.59,5.62-15.36l-.08,.03Z" fill="#edf4f9"/><path id="u" d="M254.26,200.04c.61-.89,.52-2.09-.23-2.88-.73-.53-1.66-.73-2.54-.54-.9,.08-1.78,.38-2.54,.88-1.41,1.01-1.9,3.31-.08,4.05,1.57,.64,4.47-.12,5.38-1.51Z" fill="#bfbe83"/><path id="v" d="M236.82,181.61l-.44-3.96-3.51-1.89,3.63-1.64,.71-3.92,2.68,2.95,3.95-.54-1.98,3.46,1.73,3.59-3.9-.81-2.88,2.76Z" fill="#cadfee"/><path id="w" d="M230.99,153.91l2.27-3.28h3.99l-2.42-3.16,1.24-3.79-3.76,1.32-3.22-2.35,.09,3.99-3.23,2.34,3.82,1.14,1.22,3.79Z" fill="#cadfee"/><path id="x" d="M202.47,167.96l-3-2.63-3.86,.98,1.57-3.66-2.13-3.37,3.97,.36,2.55-3.06,.88,3.89,3.7,1.48-3.42,2.04-.26,3.98Z" fill="#cadfee"/><path id="y" d="M203.06,187l3.98,.19,2.1,3.39,1.41-3.73,3.87-.95-3.11-2.5,.29-3.98-3.33,2.18-3.69-1.51,1.05,3.85-2.57,3.05Z" fill="#cadfee"/><path id="a`" d="M212.54,131.81h3.98l2.27,3.27,1.23-3.79,3.82-1.14-3.23-2.34,.04-1.5c-1.92,.71-3.83,1.44-5.73,2.2l.04,.13-2.42,3.17Z" fill="#cadfee"/><path id="aa" d="M72.3,159.39c6.22,1.3,12.26,3.22,18.39,4.85,21.22,5.64,42.41,2.79,63.83,5.78,7.25,1.01,13.47,2.05,20.12,5.44,3.77,1.93,15.47,5.83,13.93,11.36-1.17,4.21-7.08,6.89-10.7,8.49-2.81,1.24-5.9,3.16-8.92,3.71-3.15,.57-6.91,.21-10.14,.34-6.9,.28-13.81,.48-20.73,.6-13.82,.24-27.64,.16-41.46-.24-13.84-.4-27.67-1.11-41.48-2.14-6.46-.54-13-.99-18.78-4.21-6.25-3.49-9.71-8.82-13.85-14.49-1.09-1.49-2.24-3.18-2.02-5.02,.23-1.93,1.88-3.34,3.46-4.47,6.15-4.4,13.23-7.51,20.25-10.12,8.86-3.3,16.91-2.26,26.02-.31,.69,.15,1.38,.29,2.07,.43Z" fill="#44ac8b"/><g id="ab"><path id="ac" d="M167.03,108.5c.08-.6,0-1.2-.23-1.76-.36-.85-1.32-1.27-2.19-.96-.54,.18-.98,.56-1.24,1.06-.45,.91-.77,1.87-.97,2.87-.02,.11-.07,.22-.13,.32-.07,.1-.19,.14-.31,.11-.26-.1-.22-1.05-.22-1.27,.04-.8,0-1.6-.11-2.39-.07-1.12-1.04-1.97-2.17-1.9-.17,.01-.35,.05-.51,.1-1.68,.35-1.86,2.11-1.85,3.56,.06,1.53,.34,3.05,.82,4.5,.82,2.47,1.28,5.03,1.37,7.63,.36-1.39,1.16-2.62,2.29-3.51,2.33-2.19,5.05-5.01,5.45-8.34Z" fill="#b35537" stroke="#7b5227" stroke-linecap="round" stroke-linejoin="round" stroke-width=".5"/></g><path id="ad" d="M125.67,127.24c-.72-1.8,0-3.85,.98-5.53s2.23-3.25,2.68-5.14c.65-2.77-.56-5.61-1.74-8.2,2.52,.94,4.18,3.35,4.16,6.04-.07,2.39-1.54,4.49-2.96,6.42s-2.99,4.02-3.11,6.41Z" fill="#0f0a0a" stroke="#0f0a0a" stroke-miterlimit="10" stroke-width=".21"/><path id="ae" d="M146.61,110.08c-.1,.81-.75,1.45-1.57,1.53-.65,.05-1.29-.14-1.8-.54-.48-.38-.9-.83-1.26-1.33,.61,.65,1.45,1.04,2.33,1.07,.83,.03,1.64-.23,2.3-.73Z" fill="#7b5227" stroke="#7b5227" stroke-linecap="round" stroke-linejoin="round" stroke-width=".21"/><path id="af" d="M177.88,134.79l-3.02,5.39c-1.1,2.05-2.32,4.03-3.65,5.94-1.22,1.82-2.66,3.49-4.29,4.96,1.97-1.68,3.83-3.49,5.55-5.43,1.63-2.07,2.98-4.35,4.02-6.77,.28-.66,.54-1.33,.77-2.01,.15-.7,.36-1.4,.62-2.07Z" fill="#7b5227" stroke="#7b5227" stroke-linecap="round" stroke-linejoin="round" stroke-width=".22"/><ellipse id="ag" cx="211" cy="34.04" rx="72" ry="34.04" fill="#d9eee8"/><path id="ah" d="M168.3,95.45L191.64,2.53l31.62,15.4-54.97,77.52Z" fill="#d9eee8"/><path d="M155.43,34.46c0,.22-.06,.46-.19,.71-.14,.29-.3,.43-.5,.43-.12,0-.24-.09-.35-.26-.3-.5-.61-.94-.95-1.33v.18c0,.2-.01,.29-.01,.26v.43c0,.1,0,.26,.02,.46,.01,.2,.02,.35,.02,.46,0,.22-.13,.34-.38,.34-.22,0-.44-.04-.65-.13-.25-.1-.4-.25-.44-.44-.06-.22-.1-.47-.1-.74v-.79l-.66,.61c-.35,.33-.56,.49-.62,.49-.14,0-.26-.18-.38-.54-.1-.3-.16-.55-.16-.73,0-.33,.41-.85,1.24-1.57-.29-.19-.6-.39-.94-.6-.12-.07-.18-.17-.18-.29,0-.21,.12-.43,.36-.68,.24-.24,.46-.37,.67-.37,.08,0,.36,.13,.84,.38,.05-.45,.12-.88,.2-1.3,.17-.25,.41-.37,.73-.37,.44,0,.66,.14,.66,.41,0,.09-.01,.18-.04,.29-.05,.24-.1,.61-.14,1.1,.58-.22,1.01-.32,1.27-.32,.22,0,.42,.12,.6,.37,.18,.24,.28,.48,.28,.7s-.12,.38-.35,.44c-.44,.12-.8,.24-1.08,.35,.26,.3,.51,.62,.76,.98,.32,.49,.48,.85,.48,1.08Z" fill="#204c68"/><path d="M164.18,40.96c-.23,0-.46-.07-.67-.22-.24-.16-.36-.35-.36-.58,0-.24,.04-1,.12-2.28-.17,0-.42,0-.76-.01s-.59-.01-.77-.01c-1.02,0-1.88,.12-2.58,.37v.6c.03,.9-.28,1.34-.91,1.34-.27,0-.51-.07-.71-.2-.24-.14-.36-.35-.35-.62v-.05l.16-3.77c.02-.4,0-1.35-.07-2.86,0-.11-.02-.34-.05-.7-.02-.2-.02-.42-.02-.67s.1-.45,.29-.61c.19-.16,.41-.24,.66-.24,.35,0,.58,.27,.68,.8,.02,.09,.04,.49,.07,1.21,.03,.66,.06,1.16,.07,1.5l.16,2.78c.78-.2,2.17-.36,4.15-.49v-.65c0-.26-.05-1.44-.14-3.54v-.06c0-.22,.09-.41,.29-.56,.2-.15,.42-.22,.66-.22,.37,0,.58,.18,.62,.53,.08,.52,.14,1.24,.19,2.16l.11,2.2c.09,1.79,.13,2.83,.13,3.12,0,.54-.04,.91-.11,1.12-.14,.4-.42,.6-.86,.6Z" fill="#204c68"/><path d="M171.16,40.83c-1.26,0-2.34-.5-3.23-1.51-.86-.98-1.28-2.1-1.28-3.37,0-1.5,.55-2.79,1.66-3.85,1.1-1.04,2.41-1.56,3.92-1.56s2.6,.5,3.47,1.49c.85,.95,1.27,2.16,1.27,3.61,0,1.59-.85,2.94-2.54,4.04-1.18,.77-2.26,1.15-3.26,1.15Zm1.11-8.18c-1.09,0-2.12,.4-3.1,1.2-.63,.5-.95,1.16-.95,1.97,0,.66,.3,1.24,.91,1.74,.58,.5,1.2,.74,1.87,.74,.46,0,1.02-.12,1.68-.36,.66-.24,1.16-.51,1.5-.8,.42-.36,.69-.61,.81-.76,.28-.33,.42-.66,.42-.98,0-.9-.31-1.6-.92-2.08-.55-.45-1.29-.67-2.23-.67Z" fill="#204c68"/><path d="M186.27,41.29c-.52,0-.88-.14-1.09-.42-1.77-.98-3.43-3.03-4.99-6.13,.13,1.94,.19,3.37,.19,4.3,0,.48-.04,.82-.11,1.02-.14,.34-.4,.5-.8,.5-.28,0-.52-.07-.72-.22-.24-.15-.36-.36-.36-.62,0-.1,.01-.31,.04-.61l.05-.61c.04-.5,.06-1.33,.06-2.47s-.02-1.96-.05-2.52c0-.1-.03-.31-.06-.64-.02-.26-.04-.48-.04-.64,0-.26,.12-.47,.35-.62,.19-.14,.43-.2,.71-.2,.19,0,.36,.14,.5,.43,.08,.15,.33,.54,.74,1.15,.9,1.36,1.57,2.31,1.99,2.84,.85,1.07,1.68,1.85,2.5,2.34,.02-.69,.04-1.38,.04-2.06,0,.28-.02,.1-.05-.53-.03-.55-.06-1.02-.07-1.42-.02-.63-.04-1.42-.04-2.38v-.06c0-.25,.1-.46,.29-.62s.41-.25,.65-.25c.34,0,.56,.19,.64,.58l.76,8.62c0,.83-.37,1.25-1.12,1.25Z" fill="#204c68"/><path d="M197.33,40c0,.27-.1,.5-.29,.68-.2,.18-.43,.28-.7,.28-.23,0-.48-.09-.76-.26-.72-.48-1.57-1.03-2.56-1.66-.64-.41-1.33-.61-2.08-.6,0,.1,0,.24,.01,.43,0,.19,.01,.34,.01,.43,0,.44-.07,.77-.2,.98-.17,.26-.47,.38-.88,.38-.3,0-.57-.06-.8-.19-.28-.15-.42-.37-.42-.65v-.06c0,.06,.04-.64,.11-2.12,.04-.83,.06-1.54,.06-2.12,0,.27-.02,.1-.05-.52-.03-.51-.06-.96-.07-1.34-.03-.79-.05-1.54-.05-2.23v-.05c0-.26,.12-.46,.36-.61,.21-.14,.46-.22,.73-.22,.53,0,.83,.5,.88,1.5,0,.21,.02,.52,.04,.95l.12,1.93c.94-.67,1.54-1.11,1.81-1.32,.64-.5,1.22-.97,1.73-1.43,.16-.15,.53-.52,1.1-1.09,.16-.17,.36-.25,.59-.25,.22,0,.41,.06,.58,.17,.21,.13,.31,.29,.31,.48,0,.12-.05,.24-.16,.36-.34,.42-.75,.88-1.24,1.37-.24,.24-.68,.67-1.31,1.3-1.08,1.1-1.87,1.87-2.36,2.33,2.04,.62,3.71,1.41,5.02,2.36,.31,.22,.47,.49,.47,.79Z" fill="#204c68"/><path d="M209.31,35.87c-.77,0-1.63,.18-2.58,.53-.5,.18-1.32,.54-2.44,1.07-.1,.05-.17,.07-.2,.07-.14,0-.24-.16-.31-.48-.05-.19-.07-.41-.07-.65,0-.5,.09-.82,.26-.98,.05-.05,.2-.14,.44-.28,1.51-.88,3.03-1.32,4.56-1.32,.55,0,.96,.05,1.24,.16,.19,.08,.36,.27,.49,.56,.11,.26,.17,.52,.17,.77,0,.41-.16,.61-.49,.61-.11,0-.29,0-.53-.03-.24-.02-.42-.03-.53-.03Z" fill="#204c68"/><path d="M226.71,37.16c0,1.1-.57,2-1.7,2.71-1,.64-2.08,.96-3.23,.96s-2.18-.27-3.12-.82c-.41-.23-.61-.49-.61-.77,0-.26,.09-.48,.28-.67,.19-.19,.41-.29,.65-.29,.14,0,.33,.04,.55,.11,1.15,.41,2.08,.61,2.8,.61,.54,0,1.07-.09,1.61-.28,.7-.25,1.06-.59,1.06-1.02s-.42-.9-1.27-1.37c-.67-.38-1.56-.65-2.68-.83-.22-.03-1.17-.13-2.83-.3-.46-.05-.68-.31-.68-.79,0-.58,.22-1.2,.65-1.87,.36-.56,.81-1.06,1.36-1.5,.31-.26,.57-.44,.77-.55,.3-.16,.6-.24,.9-.24,.64,0,1.16,.12,1.56,.36,.38,.22,.75,.61,1.12,1.16,.2,.29,.3,.52,.3,.68,0,.15-.06,.29-.19,.42-.13,.13-.26,.19-.41,.19-.21,0-.42-.11-.65-.34-1-.54-1.63-.82-1.88-.82-.31,0-.64,.19-.99,.56s-.52,.72-.52,1.03c0,.22,.09,.34,.26,.38,.1,.02,.25,.04,.43,.05,1.54,.04,2.75,.2,3.64,.48,1.9,.6,2.84,1.51,2.84,2.72Z" fill="#204c68"/><path d="M235.05,40.75c-.23,0-.46-.08-.68-.23-.26-.15-.38-.34-.37-.58v-.1s.06-.75,.13-2.16h-.14c-.63,0-1.3,.1-2.02,.29-.31,.09-.96,.3-1.93,.64v.61c0,.07,.01,.08,.01,.02,0,.41-.05,.71-.16,.91-.14,.26-.4,.4-.78,.4-.26,0-.5-.07-.71-.22-.23-.15-.34-.35-.34-.6v-.06l.16-3.94c.02-.34-.01-1.25-.08-2.75l-.06-1.31c0-.24,.09-.44,.28-.6,.2-.16,.41-.24,.65-.24,.36,0,.59,.26,.7,.79,0,.04,.03,.44,.07,1.21l.22,4.3c1.23-.31,2.62-.53,4.16-.66v-.83c0-.17-.05-1.44-.16-3.8v-.05c-.02-.23,.09-.42,.31-.56,.19-.14,.4-.22,.64-.22,.36,0,.57,.17,.64,.52,.02,.08,.05,.5,.11,1.27,.04,.53,.1,1.56,.18,3.1,.08,1.4,.12,2.41,.12,3.04,0,.57-.03,.96-.1,1.16-.12,.42-.4,.64-.85,.64Z" fill="#204c68"/><path d="M242.13,40.83c-1.26,0-2.34-.5-3.23-1.51-.86-.98-1.28-2.1-1.28-3.37,0-1.5,.55-2.79,1.66-3.85,1.1-1.04,2.41-1.56,3.92-1.56s2.6,.5,3.47,1.49c.85,.95,1.27,2.16,1.27,3.61,0,1.59-.85,2.94-2.54,4.04-1.18,.77-2.26,1.15-3.26,1.15Zm1.11-8.18c-1.09,0-2.12,.4-3.1,1.2-.63,.5-.95,1.16-.95,1.97,0,.66,.3,1.24,.91,1.74,.58,.5,1.2,.74,1.87,.74,.46,0,1.02-.12,1.68-.36,.66-.24,1.16-.51,1.5-.8,.42-.36,.69-.61,.81-.76,.28-.33,.42-.66,.42-.98,0-.9-.31-1.6-.92-2.08-.55-.45-1.29-.67-2.23-.67Z" fill="#204c68"/><path d="M253.78,40.83c-1.26,0-2.34-.5-3.23-1.51-.86-.98-1.28-2.1-1.28-3.37,0-1.5,.55-2.79,1.66-3.85,1.1-1.04,2.41-1.56,3.92-1.56s2.6,.5,3.47,1.49c.85,.95,1.27,2.16,1.27,3.61,0,1.59-.85,2.94-2.54,4.04-1.18,.77-2.26,1.15-3.26,1.15Zm1.11-8.18c-1.09,0-2.12,.4-3.1,1.2-.63,.5-.95,1.16-.95,1.97,0,.66,.3,1.24,.91,1.74,.58,.5,1.2,.74,1.87,.74,.46,0,1.02-.12,1.68-.36,.66-.24,1.16-.51,1.5-.8,.42-.36,.69-.61,.81-.76,.28-.33,.42-.66,.42-.98,0-.9-.31-1.6-.92-2.08-.55-.45-1.29-.67-2.23-.67Z" fill="#204c68"/><path d="M262.65,38.84c0,.39-.1,.77-.3,1.14-.24,.44-.54,.66-.9,.66-.3,0-.52-.13-.68-.38-.14-.22-.22-.49-.22-.8,0-.39,.1-.77,.3-1.13,.23-.44,.53-.66,.89-.66,.29,0,.52,.13,.7,.38,.14,.22,.22,.49,.22,.79Zm-.32-2.3c-.54,0-.8-.22-.8-.65,0-.53,.26-2.02,.77-4.48,.05-.26,.15-.75,.3-1.48,.13-.51,.43-.77,.91-.77,.31,0,.62,.1,.94,.29,.34,.22,.5,.47,.5,.77,0,.12-.16,.57-.47,1.36l-.59,1.5c-.13,.32-.38,1.27-.76,2.86-.1,.4-.36,.6-.8,.6Z" fill="#204c68"/><path d="M271.72,34.46c0,.22-.06,.46-.19,.71-.14,.29-.3,.43-.5,.43-.12,0-.24-.09-.35-.26-.3-.5-.61-.94-.95-1.33v.18c0,.2-.01,.29-.01,.26v.43c0,.1,0,.26,.02,.46,.01,.2,.02,.35,.02,.46,0,.22-.13,.34-.38,.34-.22,0-.44-.04-.65-.13-.25-.1-.4-.25-.44-.44-.06-.22-.1-.47-.1-.74v-.79l-.66,.61c-.35,.33-.56,.49-.62,.49-.14,0-.26-.18-.38-.54-.1-.3-.16-.55-.16-.73,0-.33,.41-.85,1.24-1.57-.29-.19-.6-.39-.94-.6-.12-.07-.18-.17-.18-.29,0-.21,.12-.43,.36-.68,.24-.24,.46-.37,.67-.37,.08,0,.36,.13,.84,.38,.05-.45,.12-.88,.2-1.3,.17-.25,.41-.37,.73-.37,.44,0,.66,.14,.66,.41,0,.09-.01,.18-.04,.29-.05,.24-.1,.61-.14,1.1,.58-.22,1.01-.32,1.27-.32,.22,0,.42,.12,.6,.37,.18,.24,.28,.48,.28,.7s-.12,.38-.35,.44c-.44,.12-.8,.24-1.08,.35,.26,.3,.51,.62,.76,.98,.32,.49,.48,.85,.48,1.08Z" fill="#204c68"/><path d="M615.66,215.33c0-15.21-12.33-27.54-27.54-27.54H27.54c-15.21,0-27.54,12.33-27.54,27.54v30.67H615.66v-30.67Z" fill="#edf4f9"/><path d="M245.96,203.99c.3,5.47,.13,10.96-.49,16.4-.99,8.47-1.28,17.9,1.68,25.61h378.02s.07-.09,.11-.14c5.03-6.65,6.27-15.47,5.83-23.8-1-17.76-8.68-34.5-21.49-46.84-17.45-16.67-41.56-17.94-62.41-28.02-17.48-8.45-32.81-12.52-52-15.76-14.49-2.48-29.1-4.18-43.77-5.1-38.61-2.33-77.09,3.19-115.88,.99-25.87-1.47-51.2-6.8-76.85-8.55-4.95-.34-9.9-.84-14.86-.86-4.38-.01-11.06-.21-14.8,2.54-7.79,5.73,1.96,22.97,4.32,29.56,6.18,17.24,11.66,35.6,12.59,53.95Z" fill="#44ac8b"/></g></g></svg>