<?xml version="1.0" encoding="UTF-8"?>
<svg id="b" data-name="Layer 2" xmlns="http://www.w3.org/2000/svg" viewBox="0 0 375 246">
  <g id="c" data-name="Layer 1">
    <g id="d" data-name="Group 1077">
      <path id="e" data-name="Path 5721" d="m178.55,132.62c1.93-7.52,3.7-15.84-2.33-21.96-2.33-2.36-5.43-1.48-8.12-2.95-1.6-.87-3.51-2.49-3.97.38-.05.8-.14,1.6-.29,2.38-.17.81-.87,1.4-1.69,1.44-.86-.19-1.45-.98-1.39-1.86.09-.85.29-1.68.62-2.47,1.47-5-4.81-1.33-7.11-1.54-1.49-.09-2.88-.75-3.9-1.84-.74-.99-.62-2.35-1.07-3.46-.52-1.27-1.44-2.62-2.9-2.82-4.13-.56-7.16,3.42-10.77,4.84-3.1,1.13-6.48,1.19-9.61.17-3.32-.94-6.12-3.09-9.58-3.76-7.45-1.44-13.87.16-18.67,6.14-2.61,3.26-3.18,6.88-3.97,10.77-.9,4.38-2.08,8.62-2.32,13.15-.49,7.99.5,16.01,2.93,23.64,2.82,8.65,4.24,16.71,10.95,23.43,5.53,5.52,12.97,8.7,20.79,8.89,7.37.24,13.56-2.47,20.92-4.42,7.63-2.17,15.61-2.78,23.48-1.82,5.19.74,10.82,1.9,15.26,4.82,1.45.95,2.86,2.09,4.57,2.37,6.21,1.04,7.88-10.31,10.88-13.54,2.84-2.9,5.44-6.02,7.78-9.34,3.07-4.53,5.81-9.22,5.51-14.76-.33-6.06-5.28-13.18-11.77-11.18-5.85,1.81-11.75,9.73-18.42,7.12-4.59-1.98-7.04-7.01-5.77-11.84Z" fill="#a26d34"/>
    </g>
    <g id="f" data-name="Group 1078">
      <path id="g" data-name="Path 5722" d="m151.84,180.35c-2.72.99-5.16,2.66-7.07,4.84-2.16,2.36-4.24,5.38-7.23,6.88-2.94,1.46-6.02,2.6-9.2,3.42-10.12,2.71-19.83,4.11-30.25,2.01-4.99-1.06-9.75-2.98-14.08-5.66-3.2-1.88-6.34-6.32-10.45-6.92-1.69-.25-2.77,1.21-4.35,1.44-.04,0-1.86-3.87-2.04-4.44-.81-2.17-1.08-4.5-.79-6.8.33-2.5,1.76-4.53,3.12-6.6,1.66-2.53.35-2.5-1.84-4.41-3.48-3.04-7.5-5.94-8.56-11.26-.85-4.25-.3-11.23,4.11-13.72-.02,1.59-.53,3.36.04,4.96s2.28,2.76,3.88,1.93c.97-.61,1.45-1.78,1.17-2.9-.67-5.06-2.55-10.09-1.39-15.22,1.48-6.92,4.29-13.48,8.26-19.34,1.92-2.85,4.39-5.25,6-8.41,1.7-3.01,2.08-6.59,1.05-9.88.52.65,1.97.96,2.56,1.39,1.24.95,2.15,2.29,2.58,3.79.5,1.45-.32,3.26,1.13,4.2,4.55,2.96,6.95-3.71,7.25-7.44.88.35,3.7,1.51,4.18,1.83,1.64.99,3.07,2.28,4.23,3.8,2.12,2.82,3.71,6.13,3.33,9.62-.63,5.83-3.97,10.66-5.62,16.08-1.53,5.01-2.61,10.19-.4,15.03,2.95,6.48,9.77,9.62,12.93,15.92,1.92,3.83,1.33,7.89,1.68,12.09.55,6.63,3.14,13.18,9.54,16.12,7.45,3.42,14.77.61,22.03-1.87,2.09-.72,3.86-1.46,6.08-1-.63.14-1.24.32-1.85.52Z" fill="#0e0a0a" stroke="#0e0a0a" stroke-linecap="round" stroke-linejoin="round" stroke-width=".85"/>
    </g>
    <path id="h" data-name="Path 5723" d="m145.93,101.31c.1-.08.27-.08.55.06.92.44,1.19,2.27,1.37,3.13.16.75.13,1.29.78,1.86-.71-.8-1.37-1.65-1.97-2.54-.26-.36-1.15-2.17-.74-2.5Z" fill="#7c5227" stroke="#7c5227" stroke-linecap="round" stroke-linejoin="round" stroke-width=".63"/>
    <path id="i" data-name="Path 5724" d="m122.58,125.64c-1.15-1.85-1.98-3.88-2.43-6.01-.22-1.32-.3-2.66-.22-3.99,0-.57.04-1.13.14-1.69.19-.97.82-.98.85.03.1,3.92-.59,8.06,1.66,11.67Z" fill="#7c5227" stroke="#7c5227" stroke-linecap="round" stroke-linejoin="round" stroke-width=".22"/>
    <path id="j" data-name="Path 5725" d="m127.77,108.84c.08.26.33.23.13.42-2.04,1.85-5.67,1.66-7.98.49,1.74.37,3.54.34,5.26-.08.87-.48,1.84-.75,2.83-.79.15.24.04.01-.24-.04Z" fill="#7c5227" stroke="#7c5227" stroke-linecap="round" stroke-linejoin="round" stroke-width=".21"/>
    <path id="k" data-name="Path 5726" d="m122.5,158.25c-3.61.97-4.57,5.03-4.12,8.3.65,3.63,3.31,6.57,6.85,7.57,3.53.92,7.29.25,10.29-1.84,2.95-2.1,5.2-5.05,6.43-8.46.68-1.77.88-4.82-1.71-5.08" fill="none" stroke="#7c5227" stroke-linecap="round" stroke-miterlimit="10"/>
    <path id="l" data-name="Path 5727" d="m117.01,113.51c-.86,3.3-1.16,6.72-.88,10.12.13,1.15.34,2.28.64,3.4.15.54,1.08,1.89.46,2.3-.96.65-2.29-1.4-2.78-1.98-1.78-2.04-2.93-4.54-3.32-7.22-.32-2.36-.35-4.76-.07-7.13.36-2.85,1.39-11.13,5.96-10.13,2.03.44,2.41,2.65,1.84,4.35-.43,1.29-.77,2.64-1.2,3.95-.25.77-.46,1.55-.65,2.33Z" fill="#0e0a0a" stroke="#0e0a0a" stroke-miterlimit="10" stroke-width=".21"/>
    <g id="m" data-name="Group 1080">
      <path id="n" data-name="Path 5728" d="m120.32,164.17c-.03-.81.25-1.6.79-2.2.33-.26.91-.35,1.1.13.18.46-.18,1.09-.26,1.55-.26,1.51.02,3.06.79,4.39.43.75,1.06,1.37,1.82,1.79.87.46,1.83.47,2.67.98.16.08.29.21.36.38.12.42-.51.47-.77.45-2.08-.19-3.98-1.28-5.19-2.98-.94-1.3-1.4-2.89-1.3-4.49Z" fill="#7c5227" stroke="#7c5227" stroke-miterlimit="10" stroke-width=".21"/>
    </g>
    <path id="o" data-name="Path 5729" d="m254.26,200.04c.61-.89.52-2.09-.23-2.88-.73-.53-1.66-.73-2.54-.54-.9.08-1.78.38-2.54.88-1.41,1.01-1.9,3.31-.08,4.05,1.57.64,4.47-.12,5.38-1.51Z" fill="#bebc81"/>
    <path id="p" data-name="Path 5730" d="m268.32,198.93c3.26-.43,6.88-1.48,8.37-4.4,1.39-2.73.38-6.03-.86-8.83-2.61-5.85-7.2-10.12-10.05-15.6-1.88-3.63-5.04-11.51-9.8-12.29-2.25-.3-4.41,1.01-5.17,3.15-1.24,3.85,1.3,9.42,1.12,13.62-.38,5.86-1.17,11.68-2.35,17.43-.47,2.57-.49,4.59,1.9,5.81,4.94,2.52,11.5,1.82,16.84,1.11Z" fill="#a26d34"/>
    <path id="q" data-name="Path 5731" d="m211.41,129.95c-2.84,1.05-5.5,2.53-7.88,4.4-2.11,1.81-2.9,2.67-3.2,5.36-.29,2.56-1.04,5.04-2.21,7.33-2.93,5.72-8.65,8.85-11.95,14.14-3.45,5.42-4.89,11.87-4.08,18.24,1,6.73,4.89,12.68,10.66,16.29,6.48,3.93,14.44,4.23,22.02,4.43,4.41.11,8.7.3,13.07.06,3.22-.24,6.45-.28,9.67-.12,1.71.12,3.4.37,5.07.77,1.44.35,3.07,1.37,4.54,1.17,2.39-.32,3.14-2.02,4.24-3.79,1.33-2.04,2.31-4.3,2.88-6.67,1.79-7.52,2.61-15.23,2.46-22.95-.05-2.62-1.01-4.49-1.69-6.89-.82-2.88-1.52-5.8-2.29-8.7l-4.57-17.4c-1.32-5-2.75-10.23-6.29-14.01-1.93-2.06-3.21-1.69-5.3-.6-2.51,1.31-5.85,1.8-8.55,2.7-5.61,1.88-11.14,3.96-16.6,6.24Z" fill="#bcd6e9"/>
    <path id="r" data-name="Path 5732" d="m254.28,159.86c-2.73,1.06-5.58,1.78-8.49,2.12-7.02.52-13.29-4.24-19.22-7.33" fill="none" stroke="#ebf3f9" stroke-linecap="round" stroke-miterlimit="10" stroke-width=".84"/>
    <path id="s" data-name="Path 5733" d="m192.54,154.88c3.04-2.59,6.97-3.9,10.96-3.65" fill="none" stroke="#ebf3f9" stroke-miterlimit="10" stroke-width=".84"/>
    <path id="t" data-name="Path 5734" d="m208.65,131.21c-1.87.75-3.6,1.81-5.13,3.14-2.11,1.81-2.9,2.67-3.2,5.36-.29,2.56-1.04,5.04-2.21,7.33-.8,1.49-1.79,2.86-2.96,4.07-.66.71-1.31,1.42-1.96,2.14-.35.38-.74.72-1.06,1.14.47-.49,1.04-.88,1.67-1.15,1.73-1.02,3.4-2.13,5.08-3.22,1.59-.92,3.02-2.09,4.24-3.48,3.11-3.87,4.68-10.59,5.62-15.36l-.08.03Z" fill="#ebf3f9"/>
    <path id="u" data-name="Path 5735" d="m254.26,200.04c.61-.89.52-2.09-.23-2.88-.73-.53-1.66-.73-2.54-.54-.9.08-1.78.38-2.54.88-1.41,1.01-1.9,3.31-.08,4.05,1.57.64,4.47-.12,5.38-1.51Z" fill="#bebc81"/>
    <path id="v" data-name="Path 5736" d="m236.82,181.61l-.44-3.96-3.51-1.89,3.63-1.64.71-3.92,2.68,2.95,3.95-.54-1.98,3.46,1.73,3.59-3.9-.81-2.88,2.76Z" fill="#c9ddec"/>
    <path id="w" data-name="Path 5737" d="m230.99,153.91l2.27-3.28h3.99s-2.42-3.16-2.42-3.16l1.24-3.79-3.76,1.32-3.22-2.35.09,3.99-3.23,2.34,3.82,1.14,1.22,3.79Z" fill="#c9ddec"/>
    <path id="x" data-name="Path 5738" d="m202.47,167.96l-3-2.63-3.86.98,1.57-3.66-2.13-3.37,3.97.36,2.55-3.06.88,3.89,3.7,1.48-3.42,2.04-.26,3.98Z" fill="#c9ddec"/>
    <path id="y" data-name="Path 5739" d="m203.06,187l3.98.19,2.1,3.39,1.41-3.73,3.87-.95-3.11-2.5.29-3.98-3.33,2.18-3.69-1.51,1.05,3.85-2.57,3.05Z" fill="#c9ddec"/>
    <path id="z" data-name="Path 5740" d="m212.54,131.81h3.98s2.27,3.27,2.27,3.27l1.23-3.79,3.82-1.14-3.23-2.34.04-1.5c-1.92.71-3.83,1.44-5.73,2.2l.04.13-2.42,3.17Z" fill="#c9ddec"/>
    <path id="aa" data-name="Path 5741" d="m72.3,159.39c6.22,1.3,12.26,3.22,18.39,4.85,21.22,5.64,42.41,2.79,63.83,5.78,7.25,1.01,13.47,2.05,20.12,5.44,3.77,1.93,15.47,5.83,13.93,11.36-1.17,4.21-7.08,6.89-10.7,8.49-2.81,1.24-5.9,3.16-8.92,3.71-3.15.57-6.91.21-10.14.34-6.9.28-13.81.48-20.73.6-13.82.24-27.64.16-41.46-.24-13.84-.4-27.67-1.11-41.48-2.14-6.46-.54-13-.99-18.78-4.21-6.25-3.49-9.71-8.82-13.85-14.49-1.09-1.49-2.24-3.18-2.02-5.02.23-1.93,1.88-3.34,3.46-4.47,6.15-4.4,13.23-7.51,20.25-10.12,8.86-3.3,16.91-2.26,26.02-.31.69.15,1.38.29,2.07.43Z" fill="#43aa8a"/>
    <g id="ab" data-name="Group 1081">
      <path id="ac" data-name="Path 5743" d="m167.03,108.5c.08-.6,0-1.2-.23-1.76-.36-.85-1.32-1.27-2.19-.96-.54.18-.98.56-1.24,1.06-.45.91-.77,1.87-.97,2.87-.02.11-.07.22-.13.32-.07.1-.19.14-.31.11-.26-.1-.22-1.05-.22-1.27.04-.8,0-1.6-.11-2.39-.07-1.12-1.04-1.97-2.17-1.9-.17.01-.35.05-.51.1-1.68.35-1.86,2.11-1.85,3.56.06,1.53.34,3.05.82,4.5.82,2.47,1.28,5.03,1.37,7.63.36-1.39,1.16-2.62,2.29-3.51,2.33-2.19,5.05-5.01,5.45-8.34Z" fill="#b15537" stroke="#7c5227" stroke-linecap="round" stroke-linejoin="round" stroke-width=".5"/>
    </g>
    <path id="ad" data-name="Path 5744" d="m125.67,127.24c-.72-1.8,0-3.85.98-5.53s2.23-3.25,2.68-5.14c.65-2.77-.56-5.61-1.74-8.2,2.52.94,4.18,3.35,4.16,6.04-.07,2.39-1.54,4.49-2.96,6.42s-2.99,4.02-3.11,6.41Z" fill="#0e0a0a" stroke="#0e0a0a" stroke-miterlimit="10" stroke-width=".21"/>
    <path id="ae" data-name="Path 5745" d="m146.61,110.08c-.1.81-.75,1.45-1.57,1.53-.65.05-1.29-.14-1.8-.54-.48-.38-.9-.83-1.26-1.33.61.65,1.45,1.04,2.33,1.07.83.03,1.64-.23,2.3-.73Z" fill="#7c5227" stroke="#7c5227" stroke-linecap="round" stroke-linejoin="round" stroke-width=".21"/>
    <path id="af" data-name="Path 5746" d="m177.88,134.79l-3.02,5.39c-1.1,2.05-2.32,4.03-3.65,5.94-1.22,1.82-2.66,3.49-4.29,4.96,1.97-1.68,3.83-3.49,5.55-5.43,1.63-2.07,2.98-4.35,4.02-6.77.28-.66.54-1.33.77-2.01.15-.7.36-1.4.62-2.07Z" fill="#7c5227" stroke="#7c5227" stroke-linecap="round" stroke-linejoin="round" stroke-width=".22"/>
    <ellipse id="ag" data-name="Ellipse 970" cx="211" cy="34.04" rx="72" ry="34.04" fill="#d8ede7"/>
    <path id="ah" data-name="Path 5747" d="m168.3,95.45L191.64,2.53l31.62,15.4-54.97,77.52Z" fill="#d8ede7"/>
    <path d="m375,187.78H27.54c-15.21,0-27.54,12.33-27.54,27.54v30.67h375v-58.21Z" fill="#ebf3f9"/>
    <path d="m375,127.51c-13.12.42-26.26.57-39.43-.17-25.87-1.47-51.2-6.8-76.85-8.55-4.95-.34-9.9-.84-14.86-.86-4.38-.01-11.06-.21-14.8,2.54-7.79,5.73,1.96,22.97,4.32,29.56,6.18,17.24,11.66,35.6,12.59,53.95.3,5.47.13,10.96-.49,16.4-.99,8.47-1.28,17.9,1.68,25.61h127.85v-118.49Z" fill="#43aa8a"/>
    <g>
      <g>
        <path d="m177.9,32.91c-.48,0-1.2-.48-1.6-.74,0,.63.17,2.05-.79,2.05-.51,0-.6-.64-.6-1.03,0-.36.03-.71.06-1.07-.22.33-1.12,1.2-1.51,1.2-.36,0-.87-.3-.87-.71,0-.38,1.41-1.5,1.72-1.83-.5-.42-2.02-.9-2.02-1.63,0-.42.43-.99.88-.99.41,0,1.44.75,1.81,1-.01-.34-.01-.69-.01-1.03,0-.38.01-1.04.54-1.04.57,0,.88.58.88,1.09,0,.3-.06.62-.08.92.36-.33,1.26-1.44,1.73-1.44.36,0,.82.3.82.69,0,.45-1.56,1.74-1.93,2.1.63.51,2.14.78,2.14,1.52,0,.54-.69.93-1.17.93Z" fill="#204c68"/>
        <path d="m182.9,32.81c-.21,1.89-.39,3.79-.6,5.68-.3.48-1.3,1.41-1.89,1.41-.22,0-.41-.21-.41-.43,0-.5.21-1.05.3-1.54.21-1.2.38-2.42.54-3.63.14-1,.2-2.13.58-3.08.2-.46.98-1.23,1.5-1.23.17,0,.24.1.24.25,0,.85-.18,1.71-.27,2.56Zm-.99-3.85c-.57,0-1.26-.25-1.26-.93,0-1.02,1.58-2.17,2.52-2.17.66,0,.96.3.96.96,0,1.08-1.15,2.14-2.22,2.14Z" fill="#204c68"/>
        <path d="m195.12,28.5c-.18.06-2.14.23-2.5.25.05,1.65.15,3.29.15,4.93,0,1.52-.06,3.62-.92,4.91-.48.74-1.18,1.33-2.1,1.33-.51,0-.99-.18-1.44-.41-.78-.39-2.94-1.63-2.94-2.61,0-.44.36-1.58.9-1.58.68,0,1.32,2.25,3.44,2.25,1.41,0,1.44-1.8,1.48-2.8.03-.69.04-1.37.04-2.06,0-1.23-.09-2.47-.15-3.7-1.05,0-2.03.36-3.04.55-.03,0-.06.01-.09.01-.54,0-.9-.78-.9-1.24,0-.86.88-.95,1.54-.95.96,0,1.93-.13,2.9-.15.75,0,1.48-.01,2.23-.01.58,0,1.72.03,1.72.85,0,.26-.09.33-.33.41Z" fill="#204c68"/>
      </g>
      <g>
        <path d="m205.05,28.5c-.18.06-2.14.22-2.5.25.05,1.65.15,3.28.15,4.93,0,1.51-.06,3.62-.92,4.91-.48.73-1.18,1.33-2.1,1.33-.51,0-.99-.18-1.44-.4-.78-.39-2.94-1.63-2.94-2.61,0-.43.36-1.57.9-1.57.68,0,1.32,2.25,3.44,2.25,1.41,0,1.44-1.8,1.48-2.8.03-.69.04-1.36.04-2.05,0-1.23-.09-2.47-.15-3.71-1.05,0-2.03.36-3.04.56-.03,0-.06.01-.09.01-.54,0-.9-.78-.9-1.25,0-.85.88-.95,1.54-.95.96,0,1.93-.13,2.9-.15.75,0,1.48-.02,2.23-.02.58,0,1.72.03,1.72.86,0,.25-.09.33-.33.41Z" fill="#204c68"/>
        <path d="m214.54,38.52c-.1,0-.18-.04-.27-.09-2.33-1.43-4-2.29-6.79-2.42-.04.19-.06.4-.06.61,0,.42.06.83.06,1.25,0,.24-.01.48-.09.71-.13.41-.83,1.17-1.28,1.17-.13,0-.18-.1-.18-.22,0-.71.03-1.4.03-2.1,0-.42,0-.84-.08-1.24-.29-.17-.46-.46-.46-.79,0-.44.27-.81.55-1.11.03-.27.03-.55.03-.83,0-.76-.06-1.51-.06-2.28,0-.41.02-.79.08-1.2-.22-.17-.38-.42-.38-.69,0-1.68,3.12-1.74,4.29-1.74.71,0,1.39-.03,2.1-.03,1,0,3.2.01,3.2,1.44s-2.58,3.45-3.62,4.33c-.4.35-.9.57-1.3.93.71.1,1.33.46,2,.73.75.32,3.13,1.14,3.13,2.1,0,.45-.34,1.47-.9,1.47Zm-2.7-9.04c-1.43,0-2.88.04-4.28.39-.19.68-.21,1.38-.21,2.07,0,.55.03,1.11.12,1.67,1.84-.42,3.64-1.94,5.04-3.17.17-.15.4-.34.4-.58,0-.39-.82-.38-1.08-.38Z" fill="#204c68"/>
        <path d="m225.58,38.73c-.29,0-4.67-3.38-6.4-3.38-.08,0-.15,0-.23.03-.27.43-.15,2.19-.15,2.79,0,.14,0,.26-.02.39-.08.54-.88,1.27-1.42,1.27-.24,0-.27-.21-.27-.4,0-.95.18-1.89.18-2.83,0-1.31-.75-1.41-.75-1.94,0-.58.32-.96.64-1.41.03-.5.06-1.01.06-1.5,0-.69-.06-1.4-.12-2.08-.29-.17-.43-.5-.43-.83,0-.83.69-1.58,1.53-1.58h.38c2.24,0,5.12.09,7.14,1.11.42.21.62.64.62,1.09,0,.25-.06.43-.2.64-.69,1.07-2.31,2.15-3.4,2.79-.5.29-1,.56-1.49.89.74.43,1.58.67,2.33,1.06.72.38,2.83,1.39,2.83,2.29,0,.39-.34,1.58-.83,1.58Zm-1.79-8.67c-.58-.71-2-.78-2.85-.78-.71,0-1.42.04-2.12.23-.07.46-.12.94-.12,1.41,0,.58.09,1.18.3,1.74.73-.3,4.83-1.77,4.83-2.47,0-.04-.01-.09-.04-.12Z" fill="#204c68"/>
        <path d="m236.47,38.52c-.1,0-.18-.04-.27-.09-2.33-1.43-4-2.29-6.79-2.42-.04.19-.06.4-.06.61,0,.42.06.83.06,1.25,0,.24-.01.48-.09.71-.13.41-.83,1.17-1.28,1.17-.13,0-.18-.1-.18-.22,0-.71.03-1.4.03-2.1,0-.42,0-.84-.08-1.24-.29-.17-.46-.46-.46-.79,0-.44.27-.81.55-1.11.03-.27.03-.55.03-.83,0-.76-.06-1.51-.06-2.28,0-.41.02-.79.08-1.2-.22-.17-.38-.42-.38-.69,0-1.68,3.12-1.74,4.29-1.74.71,0,1.39-.03,2.1-.03,1,0,3.2.01,3.2,1.44s-2.58,3.45-3.62,4.33c-.4.35-.9.57-1.3.93.71.1,1.33.46,2,.73.75.32,3.13,1.14,3.13,2.1,0,.45-.34,1.47-.9,1.47Zm-2.7-9.04c-1.43,0-2.88.04-4.28.39-.19.68-.21,1.38-.21,2.07,0,.55.03,1.11.12,1.67,1.84-.42,3.64-1.94,5.04-3.17.17-.15.4-.34.4-.58,0-.39-.82-.38-1.08-.38Z" fill="#204c68"/>
        <path d="m239.05,39.9c-.66,0-.96-.3-.96-.96,0-1.08,1.16-2.15,2.22-2.15.57,0,1.26.25,1.26.93,0,1.02-1.58,2.17-2.52,2.17Zm2.87-12.08c-.21,1.2-.38,2.42-.54,3.63-.13,1.01-.2,2.13-.58,3.08-.2.46-.97,1.23-1.5,1.23-.17,0-.24-.11-.24-.26,0-.85.18-1.71.27-2.56.21-1.89.39-3.79.6-5.68.3-.48,1.3-1.41,1.89-1.41.23,0,.41.21.41.43,0,.5-.21,1.05-.3,1.54Z" fill="#204c68"/>
        <path d="m248.74,32.91c-.48,0-1.2-.48-1.6-.73,0,.63.17,2.05-.79,2.05-.51,0-.6-.65-.6-1.04,0-.36.03-.71.06-1.06-.22.33-1.12,1.2-1.51,1.2-.36,0-.87-.3-.87-.71,0-.38,1.41-1.5,1.72-1.83-.5-.42-2.02-.9-2.02-1.64,0-.42.43-.99.88-.99.41,0,1.44.75,1.81,1-.01-.34-.01-.69-.01-1.04,0-.38.01-1.04.54-1.04.57,0,.88.58.88,1.09,0,.3-.06.62-.08.92.36-.33,1.26-1.44,1.73-1.44.36,0,.82.3.82.69,0,.45-1.56,1.74-1.93,2.1.63.51,2.14.78,2.14,1.51,0,.54-.69.93-1.17.93Z" fill="#204c68"/>
      </g>
    </g>
  </g>
</svg>