<?xml version="1.0" encoding="UTF-8"?><svg xmlns="http://www.w3.org/2000/svg" viewBox="0 0 149.51 250.29"><g id="a"/><g id="b"><g id="c"><path id="d" d="M1.84,167.77c1.41,1.03,3,1.76,4.7,2.16,4.21,1.27,8.45,2.44,12.72,3.53,2.36,.6,5.41,.8,7.6,1.83,1.68,.79,7.66,2.94,5.41-1.28-.65-1.02-1.47-1.93-2.44-2.67-1.81-1.41-3.86-2.5-6.04-3.22-4.96-1.98-10.09-3.49-15.33-4.51-1.6-.31-6.07-1.84-7.49-.82-1.87,1.33-.53,3.81,.87,4.98Z" fill="#b9858c"/><path d="M7.57,221.66c-.05,6.43-.39,12.88,.33,19.29,.35,3.14,.95,6.25,1.62,9.35H29.2c-.05-9.03,.73-18.12,.33-27.24-.33-5.28-.21-10.57,.35-15.82,1.07-8.56-.1-16.92,.66-25.51,.65-7.38,2.22-14.64,4.68-21.63,2.3-6.54,6.35-12.53,7.66-19.4,1.43-7.54-3.28-14.62-11.6-13.87-3.71,.33-7.13,2.16-10.23,4.24-4.6,3.08-8.88,6.97-11.11,12.04-1.28,3.29-2.08,6.74-2.36,10.26-1.46,11.94-2.06,23.98-1.78,36.01,.25,10.79,1.86,21.52,1.78,32.28Z" fill="#f7d5a7"/><path id="e" d="M39.81,121.84c5.74-.32,9.08,22.86,9.44,22.79,7.7-1.57,15.5-2.57,23.35-3,3.97-.23,7.94-.33,11.92-.3,3.81-.04,7.61,.26,11.36,.89-.71-.13,1.15-7.95,1.33-8.61,1.15-4.3,2.93-8.4,5.29-12.17,.18-.29,12.07,3.52,13.23,3.83,9.81,2.66,17.61,6.95,21.94,16.54,3.84,8.52,4.89,18.8,11.72,25.71-5.09-3.33-15.45,.4-20.38,2.83-4.17,2.06-10.97,4.97-13.82,8.69,.15-.49,.22-1.01,.2-1.53,.06-.56,.11-1.13,.14-1.7,.07-1.15,.05-2.3-.08-3.45-.13-1.11-.39-2.21-.75-3.27-.38-.69-.65-1.44-.82-2.21-.16,9.02-.99,18-1.9,26.97-.84,8.31-3.08,16.3-4.2,24.54-.7,5.19-.37,10.62-.43,15.84,.06,1.11-.11,2.23-.49,3.27-.89,1.65-2.56,2.74-4.43,2.89-2.49,.31-4.91-.29-7.41-.04-2.83,.27-5.59,.59-8.44,.62-4.9,.05-9.79-.38-14.69-.46-5.88-.1-11.65-1.68-17.39-1.89-3.29-.12-14.09,.97-15.87-2.57-.38-.99-.5-2.05-.34-3.1,.67-11.64-2.26-23.02-3.26-34.53-.54-6.15-1.36-12.35-1.34-18.54,.01-3.34-.9-8.5,.91-11.47-.62,.98-1.16,2.01-1.62,3.07-.24,.66-.4,1.34-.5,2.03-7.01-3.76-14.71-6.01-22.35-8.22-3.14-.91-6.41-1.83-9.64-1.3,.12-1.13,.46-2.22,1.02-3.21,.5-1.19,1.04-2.35,1.64-3.49,1.23-2.14,2.28-4.38,3.16-6.69,1.67-5.04,3-10.34,6.1-14.65,6.28-8.75,17.32-10.59,26.78-13.97,.21-.07,.42-.12,.64-.13Z" fill="#f8b2bb"/><path id="f" d="M115.61,180.17c2.06,2.28,9.51-1.82,11.43-2.51,3.41-1.71,7.45-2.71,11.05-3.98,1.37-.49,2.61-1.2,3.98-1.7,.98-.36,1.99-.66,3-.94,.82-.25,1.62-.56,2.38-.96,.5-.21,.96-.48,1.38-.81,.59-.51,.95-1.19,.45-1.87-.51-.58-1.17-1.01-1.92-1.23-.91-.29-1.84-.49-2.79-.6-1.76-.23-3.55-.16-5.29,.21-3.55,.71-6.87,2.27-10.37,3.16-2.98,.75-5.82,1.94-8.45,3.52-1.4,.8-2.66,1.83-3.71,3.06-.7,.88-1.94,3.01-1.45,4.14,.08,.18,.18,.35,.32,.5Z" fill="#b9858c"/><path id="g" d="M82.52,172.36c-.69-1.36-1.32-2.73-1.88-4.11-2.17-5.4-3.08-10.59-7.64-14.83-2.46-2.29-5.47-3.87-8.15-5.89-2.53-1.79-4.67-4.07-6.29-6.72-.52-.9-1.11-1.76-1.75-2.58-.48-.62-1.08-1.14-1.52-1.79-.79-1.42-1.46-2.9-2-4.43-.44-.78-.64-1.67-.59-2.56,.09-.92,.89-1.6,1.81-1.55,.6,.19,1.1,.6,1.41,1.14,.99,1.54,2.09,3.01,3.3,4.38,1.18,1.15,2.56,2.2,3.8,3.31-2.5-2.42-4.66-5.16-6.44-8.15-.85-1.45-1.59-2.96-2.23-4.51-.41-1.01-1.19-3.01-.49-4.06,.6-.59,1.51-.73,2.26-.36,.85,.5,1.55,1.21,2.02,2.08l3.55,5.32c1.22,1.68,2.53,3.28,3.94,4.8l-8.37-12.11c-.85-1.15-1.3-2.54-1.29-3.97,.05-.91,.64-1.71,1.51-2.01,1.51-.43,2.6,1.65,3.19,2.69,.37,.65,.65,1.38,1.07,1.99,.7,1.02,1.66,1.87,2.4,2.87,1.66,2.04,3.45,3.99,5.34,5.82-2.89-3.19-5.59-6.55-8.07-10.07-.51-.61-.91-1.31-1.2-2.05-.28-.76-.18-1.61,.28-2.27,1.33-1.68,2.98-.24,4.06,.79,2.03,1.95,3.95,4,5.85,6.07,1.89,2.05,3.94,3.95,6.13,5.69,1.72,1.37,2.75,3.24,4.77,4.28,3.72,1.93,4.52-4.64,5.36-6.7,.68-1.66,3.01-4.74,5.23-4.14,2.15,.58,1.05,4.24,.51,5.56-.42,1.33-.73,2.68-.93,4.06-.38,1.62-1.47,2.82-1.45,4.58,.06,5.84-1.81,11.96,2.14,16.7,4.16,5.01,9.15,9.21,13.38,14.19,2.58,3.04,4.99,6.22,7.21,9.53,2.24,3.22,4.21,6.61,5.9,10.14-2.27-4.91-1.02-11.8,2.1-16.1,2.79-3.82,7.04-4.84,10.52-7.83,1.75-1.51,3.96-2.94,6.22-2.45,5.99,1.31,6.19,10.88,6.44,15.59,.31,9.01-1.44,17.98-5.1,26.22-2.3,4.99-4.9,11.02-9.22,14.51-3.52,2.84-8.55,1.88-12.57,.04-7.67-3.5-14.29-10.55-19.32-17.11-5.81-7.52-10.9-15.56-15.21-24.02Z" fill="#f7d5a7"/><path id="h" d="M103.57,3.85c9.72,4.36,17.09,13.26,20.44,23.38,.9,2.84,1.62,5.72,2.16,8.65,1.05,4.8,1.69,9.67,1.9,14.58,.34,13.6-4.53,26.56-7.27,39.7-.72,3.32-1.24,6.68-1.58,10.06-.21,2.3,.6,6.22-.26,8.28-1.35,3.26-6.52,1.1-9.17,1.73-2.27,.54-5.36,1.86-5.74-1.32-.31-2.59,.08-5.6-.52-8.07-.56,1.74-.67,3.72-1.29,5.52-.31,1.31-1.12,2.45-2.27,3.16-.91,.33-1.88,.43-2.84,.28-1.93-.29-3.9-.08-5.72,.63-.7,.49-1.5,.8-2.35,.91-.47-.05-.92-.17-1.35-.35-1.7-.59-3.61-.29-5.37-.22-1.92,.07-3.83,.16-5.74,.26-3.74,.19-7.48,.4-11.22,.59-6.56,.44-13.16,.07-19.63-1.11-1.49-.45-3.06-.56-4.6-.33-1.78,.44-3.31,1.94-5.14,1.79-1.77-.31-3.13-1.72-3.38-3.5-.2-1.74-.03-3.49,.51-5.16-.33,2.39-1.09,4.7-2.23,6.83-.24,.49-.62,.89-1.09,1.17-.43,.17-.89,.25-1.35,.22-.67,0-1.34,.01-2.02,.01-.95,.08-1.9-.09-2.77-.5-.42-.26-.78-.61-1.06-1.02-.92-1.31-1.32-3.2-1.87-4.68-.71-1.94-1.41-3.88-2.1-5.83-1.36-3.9-2.63-7.83-3.77-11.81-2.33-7.9-3.85-16.03-4.54-24.24-1.13-15.27,1.7-31.26,10.49-43.81S44.98-1.34,60.18,.56c3.84,.42,7.52,1.81,10.67,4.04,2.08,1.49,2.14,1.37,4.44,.14,1.67-.91,3.42-1.66,5.23-2.25,7.59-2.36,15.78-1.87,23.04,1.36Z" fill="#0a0b13" stroke="#0a0b13" stroke-miterlimit="10" stroke-width=".58"/><path id="i" d="M49.78,116.37c-3.41,3.54-8.62,5.78-12.86,8.18-.93,.43-1.74,1.09-2.34,1.93-1.91,3.26,5.68,4.88,7.57,5.98,1.56,.91,3.52,2.65,4.06,4.46,.64,2.18-.35,4.64,.49,6.95,.68,1.86,2.05,3.38,3.84,4.24,1.9,.91,3.49,.31,5.4,.61,1.74,.27,3.54,1.16,5.3,1.54,7.49,1.61,15.33,2.57,22.79,.77,5.15-1.17,9.82-3.9,13.36-7.82,1.26-1.46,2.31-4.92,3.79-5.88,2.11-1.36,5.17-.62,6.24-3.15,1.32-3.11,1.48-7.48-1.07-9.99-1.68-1.45-3.62-2.55-5.73-3.25-3.86-1.57-7.95-3.4-9.14-7.91-.4-1.54-.73-16.3,.83-16.36-5.46,.22-10.94,.1-16.39-.36-2.64-.22-5.27-.53-7.91-.62-3.6-.05-7.2,.09-10.79,.43-.94,.04-1.88,.18-2.79,.41-.37,.11-.68,.34-1.03,.46-.38,.12-.82,.05-1.16,.29-.08,.06-.15,.13-.23,.18-.11,.05-.22,.09-.34,.1l-1.24,.23c.33,.58,.55,1.22,.64,1.89,.2,.63,.45,1.25,.74,1.85,.27,.71,.49,1.43,.67,2.17,1.38,5.72,.1,9.72-2.72,12.66Z" fill="#f7d5a7"/><path id="j" d="M92.44,97.25c-3.28,3.08-6.74,5.96-10.37,8.61-1.66,1.27-3.47,2.33-5.39,3.16-4.76,1.86-10.15,1.17-14.29-1.83-1.21-.88-2.3-1.93-3.46-2.88-2.61-1.93-5.32-3.72-8.11-5.36l-.09-.06" fill="#b99f7c"/><path id="k" d="M29.07,52.24c-2.06,.25-3.92,1.36-5.13,3.05-1.77,2.73-1.69,8.78-.58,11.83,.42,1.05,1.01,2.03,1.73,2.91,2.25,2.89,5.29,5.48,8.81,5.61-1.21-5.8-.98-11.81,.67-17.5,1.35-4.62-2.06-6.39-5.51-5.89Z" fill="#f7d5a7"/><path id="l" d="M114.14,52.8c2.03,.45,3.77,1.73,4.81,3.53,1.5,2.88,.83,8.9-.57,11.83-.52,1.01-1.2,1.93-2.01,2.73-2.52,2.66-5.79,4.94-9.32,4.73,1.76-5.66,2.11-11.66,1.02-17.48-.9-4.74,2.67-6.17,6.05-5.34Z" fill="#f7d5a7"/><path id="m" d="M109.49,39.69c-1.04,8.27-.09,16.65-.32,24.99-.23,8.33-1.83,17.06-7.15,23.48-1.29,1.5-2.68,2.92-4.16,4.23-4.92,4.7-10.2,9.01-15.79,12.9-1.67,1.19-3.48,2.18-5.39,2.95-4.76,1.73-10.07,1.1-14.29-1.71-1.21-.82-2.3-1.8-3.46-2.68-2.53-1.92-5.4-3.34-8.11-5-9.64-5.9-17.65-15.69-18.36-26.97-.1-2.68,0-5.36,.3-8.03l.93-10.42c.44-3.21,.42-6.46-.06-9.67-1.48-7.45,2.63-15.23,8.3-20.28,8.48-7.47,19.7-11.02,30.93-9.8,1.83,.21,3.65,.55,5.47,.89,3.29,.51,6.54,1.32,9.69,2.41,2.42,.98,4.77,2.14,7.02,3.47,3.76,2.12,7.53,4.37,10.43,7.56,2.99,3.12,4.46,7.39,4.04,11.69Z" fill="#f7d5a7"/><path id="n" d="M111.46,39.09c-4.4,3.11-9.54,5.03-14.9,5.57-5.34,.53-10.72,.6-16.07,.21-5.46-.24-10.83-.35-16.21-1.4-.23-.02-.45-.12-.62-.28-.1-.15-.16-.32-.17-.5-.59-4.35,.25-9.36,.69-13.68,.53-4.2,2.2-8.18,4.83-11.51-4.93,6.51-8.48,13.95-10.44,21.87-.35,1.43-.76,3.03-2.02,3.79-.79,.4-1.69,.57-2.57,.49-2.23-.06-4.42-.56-6.46-1.45l1.56-6.56-4.45,7.7c-.37,.81-.96,1.49-1.71,1.97-.73,.3-1.52,.39-2.3,.26-3.27-.31-6.41-1.38-9.19-3.12-2.04-5.22-.45-11.9,2.64-16.58s7.7-8.14,12.45-11.09c1.95-1.27,4.01-2.34,6.17-3.21,4.51-1.72,9.44-1.92,14.26-1.94,6.2-.03,12.49,.22,18.39,2.14,4.59,1.67,8.97,3.88,13.05,6.56,3.77,2.31,7.59,4.73,10.33,8.2s4.18,8.36,2.75,12.54Z" fill="#0a0b13"/><path id="o" d="M30.05,53.98c.59,.02,1.15,.25,1.58,.65,.33,.37,.07,.68-.39,.59-.44-.07-.88-.11-1.32-.11-1.01-.11-2.03,.19-2.82,.83-.74,.92-1.28,1.99-1.58,3.13-.06,.15-.17,.33-.33,.32-.11-.02-.2-.1-.23-.21-.02-.11-.02-.22,0-.33,.02-1.15,.41-2.27,1.11-3.19,.73-.82,1.7-1.39,2.78-1.62,.4-.08,.8-.1,1.2-.06Z" fill="#b99f7c" stroke="#b99f7c" stroke-miterlimit="10" stroke-width=".15"/><path id="p" d="M113,54.48c-.59-.04-1.17,.14-1.63,.5-.37,.34-.13,.67,.33,.62,.44-.03,.88-.03,1.32,.02,1.02,0,2,.39,2.73,1.1,.65,.99,1.08,2.1,1.27,3.27,.05,.16,.13,.34,.3,.35,.11,0,.21-.08,.25-.19,.03-.11,.04-.22,.03-.33,.09-1.15-.19-2.3-.8-3.28-.65-.89-1.56-1.55-2.61-1.88-.39-.12-.79-.18-1.19-.18Z" fill="#b99f7c" stroke="#b99f7c" stroke-miterlimit="10" stroke-width=".15"/><path id="q" d="M39.81,121.84c5.74-.32,9.08,22.86,9.44,22.79,7.7-1.57,15.5-2.57,23.35-3,3.97-.23,7.94-.33,11.92-.3,3.81-.04,7.61,.26,11.36,.89-.71-.13,1.15-7.95,1.33-8.61,1.15-4.3,2.93-8.4,5.29-12.17,.18-.29,12.07,3.52,13.23,3.83,9.81,2.66,17.61,6.95,21.94,16.54,3.84,8.52,4.89,18.8,11.72,25.71-5.09-3.33-15.45,.4-20.38,2.83-4.17,2.06-10.97,4.97-13.82,8.69,2.12-14.73-5.9-11.76-16.54-10.38-10.72,1.38-21.58,.88-32.34,.33-7.75-.4-15.5-.92-23.27-.86-2.12,.01-4.27-.38-6.37-.03-1.48,.41-2.69,1.5-3.25,2.94-.28,.7-.4,1.45-.36,2.2,.01,.9,.12,2.19-.47,2.94-.12-2.91-3.99-3.75-6.13-4.62-2.91-1.18-5.86-2.28-8.83-3.29-4.39-1.49-9.07-3.24-13.68-3.86-.4-.05-3.83-.45-3.94-.07,.77-2.59,1.84-5.07,3.2-7.4,1.25-2.01,2.28-4.14,3.09-6.36,1.67-5.04,3-10.34,6.1-14.65,6.28-8.75,17.32-10.59,26.78-13.97,.21-.07,.42-.12,.64-.13Z" fill="#f8b2bb"/><path id="r" d="M58.55,48.26c-1.22-.12-2.43-.41-3.58-.85-1.53-.57-3.17-.82-4.8-.73-1.64,.18-3.26,.51-4.84,.98-1.21,.27-2.39,.67-3.52,1.18-.24,.13-2.95,2.09-2.92,1.06,0-.22,.52-.54,.68-.65,.98-.81,2.03-1.53,3.14-2.15,2.52-1.14,5.24-1.77,8-1.85,1.89-.15,3.8-.13,5.68,.07,.88,.06,1.73,.31,2.51,.73,1.12,.74,1.26,2.23-.36,2.22Z" fill="#0a0b13"/><path id="s" d="M73.18,76.55c-.2,.01-.45-.01-.52-.24s.09-.38,.24-.54c.8-.66,1.76-1.08,2.78-1.22,2.08-.64,1.02-2.57,.47-4.01-.92-2.08-1.56-4.29-1.88-6.54-.3-3.01,.25-6.05,1.6-8.76,.29-.6,2.12-4.01,3-3.32,.61,.47-.79,1.59-1.07,1.99-.63,.89-1.14,1.85-1.54,2.87-1.14,2.98-1.4,6.22-.76,9.35,.44,1.77,1.07,3.5,1.86,5.15,.45,.77,.62,1.67,.5,2.56-.17,.56-.59,1.02-1.14,1.23-.53,.29-.76,.57-1.33,.89-.69,.35-1.44,.55-2.21,.61Z" fill="#b99f7c"/><path id="t" d="M67.22,56.64c0,.47-.02,.88-.03,1.03,.02,1.82-.18,3.64-.59,5.41-.06,.22-.52,1.33-.76,.61-.01-.49,.05-.98,.18-1.45,.07-.56,.15-1.12,.21-1.68,.15-1.12,.2-2.25,.15-3.38,0-.68-.11-1.35-.31-1.99-.13-.34-.1-.6,.27-.73,.87-.28,.87,1.73,.87,2.19Z" fill="#b99f7c" stroke="#b99f7c" stroke-miterlimit="10" stroke-width=".25"/><path id="u" d="M74.49,72.19s-.01,.03-.02,.04c-.08,.12-.23,.19-.38,.17-.14-.03-.28-.07-.41-.15-.79-.37-1.66-.55-2.53-.51-.44,.01-.88,.08-1.31,.2-.29,.08-.87,.46-1.15,.32-.69-.34,.17-.88,.54-1,1.59-.45,3.29-.33,4.8,.33,.14,.05,.26,.13,.37,.23,.09,.1,.12,.24,.09,.36Z" fill="#b99f7c"/><path id="v" d="M65.1,74.38c.79,.13,1.55,.4,2.24,.79,.24,.13,.82,.37,.96,.62,.1,.17,.05,.38-.12,.48-.06,.04-.13,.05-.2,.05-.74,0-1.47-.12-2.17-.34-.52-.18-1.16-.35-1.38-.93-.17-.43,.22-.74,.67-.67Z" fill="#b99f7c"/><path id="w" d="M63.05,73.84c.04-.56,.32-1.08,.77-1.43,.18-.1,.42-.18,.57,.03s-.43,.59-.51,.84c-.08,.27-.03,.56,.14,.78,.13,.23,.16,.44-.17,.5-.62,.11-.82-.26-.79-.72Z" fill="#b99f7c" stroke="#b99f7c" stroke-miterlimit="10" stroke-width=".25"/><path id="x" d="M83.39,48.86c1.22-.12,2.43-.41,3.58-.85,1.53-.57,3.17-.82,4.8-.73,1.64,.18,3.26,.51,4.84,.98,1.21,.27,2.39,.67,3.52,1.18,.24,.13,2.95,2.09,2.92,1.06,0-.22-.52-.53-.68-.65-.98-.81-2.03-1.53-3.14-2.15-2.52-1.15-5.24-1.78-8-1.85-1.89-.15-3.8-.13-5.69,.07-.88,.06-1.73,.31-2.51,.73-1.12,.74-1.26,2.24,.36,2.22Z" fill="#0a0b13"/><path id="y" d="M97.3,56.35c-1.26-.76-2.63-1.33-4.06-1.69-2.68-.55-5.91-.4-8.13,1.33-.66,.52-1.19,1.17-1.57,1.92-.13,.26-.16,.57-.28,.83-.16,.35-.38,.68-.57,1.01-.12,.21-.24,.49-.08,.71,.08,.09,.17,.17,.27,.24,.61,.46,1.26,.87,1.95,1.21,.52,.23,1.02,.48,1.52,.74,.84,.38,1.77,.53,2.69,.41,.74-.07,1.47-.19,2.2-.28,1.17-.11,2.32-.45,3.36-.99,.94-.53,1.82-1.16,2.63-1.88,.58-.52,1.7-1.06,1.7-1.97,0-.8-1.06-1.27-1.64-1.58Z" fill="#fff"/><ellipse id="a`" cx="89.85" cy="58.7" rx="4.49" ry="4.01" fill="#0a0b13" stroke="#0f0a0a" stroke-miterlimit="10" stroke-width=".56"/><path id="aa" d="M95.57,61.09c-.5,.31-1,.63-1.53,.89-1.6,.73-3.31,1.16-5.06,1.27-.55,.06-1.1,.03-1.63-.1-.53-.1-1.04-.28-1.53-.53-.73-.4-1.44-.81-2.14-1.26-.47-.3-1.18-.61-1.19-1.27,0-.27,.07-.53,.19-.78,.09-.2,.27-.32,.38-.51,.16-.27,.27-.57,.43-.84,.34-.55,.75-1.04,1.23-1.47,2.35-2.08,6.12-2.2,9.05-1.56,.28,.06,.56,.12,.83,.2,1.61,.48,3.85,.86,4.81,2.42,.06,.12,.04,.27-.04,.37-.09,.1-.18,.19-.29,.27-.28,.25-.54,.51-.78,.78-.62,.57-1.28,1.1-1.97,1.58-.26,.16-.48,.37-.74,.53Z" fill="none" stroke="#0a0b13" stroke-linecap="round" stroke-linejoin="round" stroke-width=".56"/><path id="ab" d="M93.54,54.89c.46,.05,.91,.11,1.37,.19,.72,.12,1.45,.27,2.15,.46,.69,.15,1.35,.41,1.97,.76,.43,.27,.82,.58,1.23,.87,.25,.18,.53,.32,.82,.4-.17,.13-.35,.25-.55,.34-.1,.06-.2,.12-.31,.16-.16,.05-.33,.08-.5,.1-.39,.07-.76,.21-1.09,.42-.09,.06-.32,.4-.21,.23,.2-.25,.34-.54,.43-.85,.05-.38-.08-.77-.35-1.05-.27-.28-.58-.51-.93-.68-.98-.53-2.02-.94-3.1-1.22" fill="#0a0b13" stroke="#0a0b13" stroke-linecap="round" stroke-miterlimit="10" stroke-width=".56"/><path id="ac" d="M82.32,60.57c-.16-.37-.14-.78,.04-1.14,.19-.4,.58-.63,.79-.99,.05-.07,.09-.14,.12-.22,.03-.08,.03-.16,.06-.24l-1.75,1.46c-.18,.13-.34,.3-.46,.49-.12,.19-.13,.43-.01,.63,.1,.12,.23,.22,.38,.27l1.51,.73c.76,.37,1.62,.48,2.38,.85,.2,.1,.4,.19,.59,.28" fill="#0a0b13" stroke="#0a0b13" stroke-linecap="round" stroke-miterlimit="10" stroke-width=".56"/><circle id="ad" cx="88.6" cy="58.09" r="1.04" fill="#d7e7f1"/><path id="ae" d="M83.45,54.57c3.04-1.3,6.21-2.62,9.56-2.24,.93,.13,1.85,.33,2.75,.6,1.3,.36,2.59,.75,3.87,1.18-2.41-1.59-5.25-2.38-8.13-2.28-2.91,.05-5.72,1.01-8.06,2.73Z" fill="#b99f7c" stroke="#b99f7c" stroke-linecap="round" stroke-linejoin="round" stroke-width=".49"/><path id="af" d="M44.07,56.35c1.26-.76,2.63-1.33,4.06-1.69,2.68-.55,5.91-.4,8.13,1.33,.66,.52,1.19,1.17,1.57,1.92,.13,.26,.16,.57,.28,.83,.16,.35,.38,.68,.57,1.01,.12,.21,.23,.49,.08,.71-.08,.09-.17,.17-.27,.24-.61,.46-1.26,.87-1.95,1.21-.52,.23-1.02,.48-1.52,.74-.84,.38-1.77,.53-2.69,.41-.74-.07-1.47-.19-2.2-.28-1.17-.11-2.32-.45-3.36-.99-.94-.53-1.82-1.16-2.63-1.88-.58-.52-1.7-1.06-1.7-1.97,0-.8,1.06-1.27,1.64-1.58Z" fill="#fff"/><ellipse id="ag" cx="51.52" cy="58.7" rx="4.49" ry="4.01" fill="#0a0b13" stroke="#0f0a0a" stroke-miterlimit="10" stroke-width=".56"/><path id="ah" d="M45.8,61.09c.5,.31,1,.63,1.53,.89,1.6,.73,3.31,1.16,5.06,1.27,.55,.06,1.1,.03,1.64-.1,.53-.1,1.04-.28,1.53-.53,.73-.4,1.44-.81,2.14-1.26,.47-.3,1.18-.61,1.19-1.27,0-.27-.07-.53-.19-.78-.09-.2-.27-.32-.38-.51-.16-.27-.27-.57-.43-.84-.34-.55-.75-1.04-1.23-1.47-2.35-2.08-6.12-2.2-9.05-1.56-.28,.06-.56,.12-.83,.2-1.61,.48-3.85,.86-4.81,2.42-.06,.12-.04,.27,.04,.37,.09,.1,.18,.19,.29,.27,.28,.25,.54,.51,.78,.78,.62,.57,1.28,1.1,1.97,1.58,.26,.16,.48,.37,.74,.53Z" fill="none" stroke="#0a0b13" stroke-linecap="round" stroke-linejoin="round" stroke-width=".56"/><path id="ai" d="M47.83,54.89c-.46,.05-.91,.11-1.37,.19-.72,.12-1.45,.27-2.15,.46-.69,.15-1.35,.41-1.97,.76-.43,.27-.82,.58-1.23,.87-.25,.18-.53,.32-.82,.4,.17,.13,.35,.25,.55,.34,.1,.06,.2,.12,.31,.16,.16,.05,.33,.08,.5,.1,.39,.06,.76,.21,1.09,.42,.09,.06,.32,.4,.21,.23-.2-.25-.34-.54-.43-.85-.05-.38,.08-.77,.35-1.05,.27-.28,.58-.51,.93-.68,.98-.53,2.02-.94,3.1-1.22" fill="#0a0b13" stroke="#0a0b13" stroke-linecap="round" stroke-miterlimit="10" stroke-width=".56"/><path id="aj" d="M59.05,60.57c.16-.37,.14-.78-.04-1.14-.19-.4-.58-.63-.79-.99-.05-.07-.09-.14-.12-.22-.03-.08-.03-.16-.06-.24l1.75,1.46c.18,.13,.34,.3,.46,.49,.12,.19,.13,.43,.01,.63-.1,.12-.24,.22-.38,.27l-1.51,.73c-.76,.37-1.62,.48-2.38,.85-.2,.1-.4,.19-.59,.28" fill="#0a0b13" stroke="#0a0b13" stroke-linecap="round" stroke-miterlimit="10" stroke-width=".56"/><circle id="ak" cx="50.77" cy="58.09" r="1.04" fill="#d7e7f1"/><path id="al" d="M57.92,54.57c-3.04-1.3-6.21-2.62-9.56-2.24-.93,.13-1.85,.33-2.75,.6-1.3,.36-2.59,.75-3.88,1.18,2.41-1.59,5.25-2.38,8.13-2.28,2.91,.05,5.72,1.01,8.06,2.73Z" fill="#b99f7c" stroke="#b99f7c" stroke-linecap="round" stroke-linejoin="round" stroke-width=".49"/><path id="am" d="M81.71,87.4c-.16-.13-.34-.21-.54-.25-.57-.16-1.16-.2-1.71-.36-1.42-.41-2.87-.1-4.31-.35-.57-.1-1.14-.2-1.71-.26-1.13-.16-2.28-.07-3.36,.28-.21,.09-.43,.16-.65,.21-.49,.04-.99-.02-1.46-.16-.59-.12-1.2-.11-1.79,.03-.85,.29-1.71,.52-2.59,.69-2.11,.25-4.18,.5-6.26,.91-.14,.02-.26,.06-.38,.14-.12,.08-.17,.22-.12,.36,.07,.16,.27,.19,.44,.19,.29,0,.58-.01,.86-.03,1.6-.08,2.9,.77,4.21,1.5,1.46,.86,3.01,1.56,4.62,2.1,2.18,.77,4.56,.78,6.75,.04,1.13-.48,2.18-1.12,3.13-1.9,1-.74,2.06-1.39,3.18-1.93,.39-.19,2.36-.6,1.72-1.2Z" fill="#db9d95" stroke="#ae847f" stroke-linecap="round" stroke-linejoin="round" stroke-width=".73"/><path id="an" d="M77.08,89.42l13.81-2.38c.1-.02,.2-.05,.29-.09,.13-.03,.26-.07,.39-.12l20-7.28c1.92-.71,2.9-2.84,2.19-4.76-.71-1.9-2.81-2.89-4.72-2.2l-20,7.28c-.13,.05-.25,.1-.37,.16-.1,.03-.2,.07-.29,.12l-12.11,7.05c-.58,.33-.77,1.07-.44,1.65,.25,.44,.75,.67,1.25,.58Z" fill="#bed7ea"/><path id="ao" d="M107.43,77.11c-.45-1.24-.53-2.58-.22-3.86l-18.18,6.62c-.13,.05-.25,.1-.37,.16-.1,.03-.2,.07-.29,.12l-12.11,7.05c-.58,.33-.77,1.07-.44,1.65,.25,.44,.75,.67,1.25,.58l13.81-2.38c.1-.02,.2-.05,.29-.09,.13-.03,.26-.07,.39-.12l18.17-6.62c-1.06-.79-1.86-1.86-2.31-3.1Z" fill="#e5eff6"/><circle id="ap" cx="110.2" cy="76.1" r="2.2" fill="#8da1af"/><rect id="aq" x="93.6" y="77.57" width="13.41" height="4.27" transform="translate(-21.21 39.1) rotate(-19.99)" fill="#c1c2c5"/><rect id="ar" x="93.6" y="77.57" width="13.41" height="4.27" transform="translate(-21.21 39.1) rotate(-19.99)" fill="#c1c2c5"/><path id="as" d="M92.11,82.69c-.45-1.24-.53-2.58-.22-3.86l-2.85,1.04c-.13,.05-.25,.1-.37,.16-.1,.03-.2,.07-.29,.12l-12.11,7.05c-.58,.33-.77,1.07-.44,1.65,.25,.44,.75,.67,1.25,.58l13.81-2.38c.1-.02,.2-.05,.29-.09,.13-.03,.26-.07,.39-.12l2.85-1.04c-1.06-.79-1.86-1.86-2.31-3.1Z" fill="#bed7ea"/><path id="at" d="M75.79,90.48c.35-.21,.54-.61,.87-.82,.11-.09,.24-.15,.37-.19,.17-.03,.34-.05,.51-.09,.31-.06,.62-.14,.92-.25,.27-.08,.55-.12,.84-.12,.24-.05,.46-.16,.65-.31-.57-.12-1.15-.21-1.74-.26-.51-.04-1.2,.26-1.61-.13-.07-.06-.13-.14-.17-.23-.03-.08,0-.17-.04-.25-.08-.16-.34-.02-.47,0-.12,.02-.23,.03-.35,.03-.15,0-.3,0-.45,.02-.25,.08-.47,.2-.67,.37-.3,.22-.55,.52-.72,.85-.17,.34-.15,.75,.04,1.08,.12,.16,.26,.3,.42,.41,.11,.09,.23,.17,.36,.23,.41,.17,.88-.15,1.23-.35Z" fill="#db9d95"/><path id="au" d="M76.71,87.3c.12-.19,.24-.39,.37-.58-.52,.17-1.07,.22-1.61,.15-.13-.03-.27-.05-.4-.06-.23,.02-.45,.09-.65,.21-.48,.26-.88,.65-1.17,1.11-.1,.16-.17,.33-.2,.51-.03,.18,.01,.37,.12,.52,.09,.13,.26,.2,.42,.17,.2-.06,.4-.1,.59-.16,.65-.22,1.26-.56,1.8-1,.29-.25,.53-.54,.72-.87Z" fill="#db9d95"/><path id="av" d="M57.78,88.39c1.95,.19,3.88,.41,5.83,.66,2.82,.43,5.68,.57,8.53,.41,1-.04,1.99-.26,2.91-.64,.43-.17,.8-.47,1.07-.85,.17-.28,.34-.56,.52-.83,.15-.26,.31-.52,.48-.76" fill="none" stroke="#ae847f" stroke-linejoin="round" stroke-width=".55"/><path id="aw" d="M73.74,86.22c-1.22-.21-2.48-.13-3.67,.24-.21,.09-.43,.16-.65,.21-.49,.04-.99-.02-1.46-.16-.59-.12-1.2-.11-1.79,.03-.85,.29-1.71,.52-2.59,.69-2.11,.25-4.18,.5-6.26,.91-.14,.02-.26,.06-.38,.14-.12,.08-.17,.22-.12,.36,.07,.16,.27,.19,.44,.19,.24,0,.47,0,.71-.02" fill="none" stroke="#ae847f" stroke-linecap="round" stroke-linejoin="round" stroke-width=".73"/><path id="ax" d="M77.77,89.41c.53-.42,1.16-.68,1.83-.77,.26-.02,.52,.05,.74,.19-.15,.09-.31,.17-.48,.22l-.61,.31" fill="#ae847f"/><path id="ay" d="M122.68,187.66c-.41-.86-.91-1.68-1.51-2.42-.96-1.21-2.82-2.21-3.21-3.78,.17,.7,.41,1.38,.71,2.03-1.69-3.53-3.66-6.93-5.9-10.14-2.22-3.31-4.62-6.49-7.21-9.53-4.23-4.98-9.21-9.18-13.38-14.19-3.94-4.74-2.08-10.86-2.14-16.7-.02-1.77,1.07-2.97,1.45-4.58,.21-1.37,.52-2.73,.93-4.06,.53-1.33,1.64-4.98-.51-5.56-2.22-.6-4.55,2.48-5.23,4.14-.84,2.06-1.65,8.63-5.36,6.7-2.02-1.05-3.06-2.91-4.77-4.28-2.19-1.73-4.24-3.64-6.13-5.69-1.9-2.07-3.82-4.12-5.85-6.07-1.08-1.03-2.73-2.47-4.06-.79-.46,.67-.57,1.51-.28,2.27,.29,.74,.69,1.44,1.2,2.05,2.48,3.52,5.17,6.88,8.07,10.07-1.9-1.83-3.68-3.77-5.34-5.82-.74-1-1.69-1.85-2.4-2.87-.42-.61-.7-1.33-1.07-1.99-.59-1.04-1.69-3.12-3.19-2.69-.86,.3-1.46,1.1-1.51,2.01-.01,1.43,.44,2.82,1.29,3.97l8.38,12.11c-1.41-1.52-2.72-3.12-3.94-4.8l-3.55-5.32c-.47-.86-1.17-1.58-2.02-2.08-.75-.38-1.66-.23-2.26,.36-.7,1.05,.08,3.05,.49,4.06,.64,1.56,1.38,3.06,2.23,4.52,1.78,2.99,3.94,5.73,6.44,8.15-1.24-1.11-2.62-2.15-3.8-3.31-1.21-1.38-2.31-2.84-3.3-4.38-.31-.54-.82-.95-1.41-1.14-.92-.05-1.72,.63-1.81,1.55-.05,.89,.15,1.78,.59,2.56,.54,1.53,1.21,3.01,2,4.43,.45,.66,1.05,1.18,1.52,1.79,.65,.82,1.23,1.68,1.75,2.58,1.62,2.65,3.76,4.93,6.29,6.72,2.68,2.01,5.69,3.6,8.15,5.89,4.56,4.24,5.46,9.43,7.64,14.83,.56,1.38,1.19,2.76,1.88,4.11,4.32,8.46,9.41,16.5,15.21,24.02,5.03,6.56,11.64,13.61,19.32,17.11,1.28,.59,2.61,1.05,3.98,1.37,2.17-4.87,3.33-10.13,3.43-15.46,.03-3.89-.09-8.16-1.78-11.74Z" fill="#f7d5a7"/><path id="b`" d="M59.71,142.6c-.5-.65-.96-1.33-1.36-2.04-.53-.92-1.13-1.79-1.78-2.62-.48-.62-1.09-1.15-1.55-1.82-.8-1.44-1.48-2.94-2.03-4.5-.44-.79-.65-1.69-.6-2.6,.09-.93,.9-1.63,1.84-1.57,.6,.2,1.11,.61,1.43,1.16,1.01,1.56,2.13,3.05,3.35,4.45,1.2,1.17,2.6,2.24,3.86,3.36-2.54-2.46-4.74-5.24-6.54-8.28-.86-1.47-1.62-3.01-2.27-4.59-.42-1.03-1.21-3.06-.5-4.13,.61-.6,1.54-.74,2.3-.36,.86,.5,1.57,1.23,2.05,2.11l3.61,5.41c1.24,1.7,2.57,3.33,4,4.87l-8.51-12.3c-.86-1.16-1.32-2.58-1.31-4.03,.05-.93,.65-1.74,1.53-2.05,1.53-.44,2.64,1.68,3.24,2.74,.38,.67,.66,1.4,1.09,2.02,.71,1.03,1.68,1.9,2.43,2.92,1.69,2.08,3.5,4.05,5.43,5.91-2.94-3.24-5.67-6.66-8.19-10.23-.52-.62-.93-1.33-1.22-2.08-.29-.77-.18-1.63,.29-2.31,1.35-1.71,3.03-.24,4.12,.81,2.06,1.98,4.01,4.06,5.94,6.16,1.92,2.08,4.01,4.01,6.23,5.78,1.74,1.4,2.79,3.28,4.85,4.35,3.78,1.96,4.59-4.71,5.45-6.81,.69-1.68,3.05-4.81,5.32-4.2,2.18,.59,1.06,4.3,.52,5.65-.42,1.35-.74,2.72-.95,4.12-.39,1.64-1.49,2.86-1.47,4.66,.03,2.88-.4,5.83-.4,8.65" fill="none" stroke="#b99f7c" stroke-linecap="round" stroke-linejoin="round" stroke-width=".55"/><path id="ba" d="M117.51,180.58c1.64,2.77,2.57,5.9,2.72,9.11" fill="none" stroke="#b99f7c" stroke-linecap="round" stroke-linejoin="round" stroke-width=".55"/><path d="M97.69,82.11l-.77-2.11-.24,.55-.25-.12,.38-.84,.26-.1,.91,2.51-.3,.11Z" fill="#0a0b13"/><path d="M98.29,79.01c.59-.21,1.02,.36,1.25,1.01,.23,.64,.27,1.37-.31,1.58-.59,.21-1.02-.37-1.26-1.01-.23-.64-.27-1.36,.32-1.58Zm.1,.27c-.38,.14-.28,.7-.1,1.2,.18,.49,.46,1,.85,.85s.29-.71,.11-1.2c-.18-.5-.47-.99-.85-.85Z" fill="#0a0b13"/><path d="M100.38,81.13l-.09-.24c.48-1.24,.65-1.65,.51-2.01-.1-.27-.34-.35-.55-.28-.24,.09-.37,.27-.42,.51l-.26-.11c.07-.32,.26-.55,.58-.67,.38-.14,.79,0,.95,.43,.15,.42-.03,.91-.4,1.95l.99-.36,.1,.27-1.42,.52Z" fill="#0a0b13"/><path d="M101.34,78.42c-.09-.25,.04-.53,.29-.62s.53,.04,.62,.29c.09,.25-.04,.53-.29,.62-.25,.09-.53-.04-.62-.29Zm.18-.06c.06,.15,.23,.23,.38,.18,.15-.06,.24-.23,.18-.38-.05-.15-.23-.23-.38-.18-.15,.06-.23,.23-.18,.38Z" fill="#0a0b13"/><path d="M103.37,80.05l-.91-2.51,1.29-.47,.1,.26-.99,.36,.3,.83,.96-.35,.09,.26-.96,.35,.42,1.15-.3,.11Z" fill="#0a0b13"/><path d="M36.18,250.29h2.59c6.38-5.75,18.61-3.74,26.37-3.74h23.42c3.67,0,7.37-.12,11.04-.03,1.21,0,2.4,.36,3.42,1.03,1.09,.83,2.1,1.76,3.05,2.74h3.23c.05-1.34,.14-2.68,.29-4.01,.31-2.71,2.22-4.82,2.22-7.53v-.62c-.12-3.48-2.44-6.49-5.77-7.5-2.05-.6-5.05,.03-7.17,.13-2.36,.11-19.83,1.39-26.37,1.24-6.71-.15-13.52-.58-20.14-.92-3.76-.2-7.55-.76-11.3-.76-4.3,.01-7.79,3.5-7.8,7.8v.62c0,2.68,1.89,4.94,2.48,7.54,.3,1.32,.44,2.65,.45,3.99Z" fill="#204c68"/><path d="M111.2,250.29c-.78-2.83-1.79-6.98-3.52-8.27-2.61-1.93-9.19-2.03-12.4-2.71-6.52-1.54-13.14-2.64-19.81-3.29-9.7-.7-19.45,.5-28.68,3.53-3.6,1.18-8.8,2.3-10.83,5.61-.97,1.57-1.73,3.32-2.38,5.12H111.2Z" fill="#204c68"/></g></g></svg>