<?xml version="1.0" encoding="UTF-8"?><svg xmlns="http://www.w3.org/2000/svg" viewBox="0 0 128.65 283.94"><g id="a"/><g id="b"><g id="c"><g id="d"><path id="e" d="M114.62,110.19c.73,.21,1.52,.31,2.22,.36,.7,.05,1.54,.02,2.08-.21,1.47-.62,2.14-1.7,2.46-3.11,.43-1.91,.63-3.78,.82-5.67,.37-3.72,.59-7.41,.63-11.15,.03-3.14-.16-6.26-.41-9.4-.21-2.64-.51-5.22-.37-7.84,0-.13,.04-.24,.06-.36s.05-.22,.09-.33,.06-.21,.1-.32,.08-.22,.12-.32c.04-.11,.09-.21,.13-.31,.05-.1,.09-.2,.14-.3s.1-.19,.15-.29c.06-.1,.11-.2,.17-.3,.06-.1,.12-.21,.18-.32,.06-.1,.13-.22,.19-.32,.06-.1,.14-.22,.2-.32,.06-.1,.14-.22,.19-.3,.05-.07,.06-.09,.09-.14s.06-.08,.09-.12,.06-.08,.09-.12c.03-.04,.06-.08,.08-.12,.03-.04,.05-.08,.08-.12s.05-.08,.08-.12c.03-.04,.05-.08,.08-.12,.03-.04,.05-.08,.08-.12l.08-.13s.05-.08,.08-.13,.05-.08,.07-.13c.02-.04,.05-.09,.07-.13s.05-.09,.07-.13,.05-.08,.07-.13c.02-.04,.05-.09,.07-.13s.05-.09,.07-.13,.04-.09,.06-.14c.02-.05,.04-.09,.06-.14,.02-.05,.04-.09,.06-.14,.02-.05,.05-.09,.07-.14s.05-.09,.07-.13c.02-.04,.05-.09,.07-.13,.02-.04,.05-.09,.08-.13,.03-.04,.05-.09,.08-.13,.03-.04,.06-.08,.08-.12,.03-.04,.06-.08,.09-.12,.03-.04,.06-.08,.09-.12,.03-.04,.06-.08,.1-.12,.03-.04,.06-.08,.1-.12,.03-.04,.06-.07,.1-.11s.07-.07,.1-.11c.04-.04,.08-.08,.12-.12,.04-.04,.09-.09,.13-.14,.04-.05,.09-.1,.14-.15,.05-.05,.1-.11,.14-.16,.05-.05,.09-.1,.13-.16,.04-.05,.09-.11,.13-.16,.04-.05,.09-.11,.13-.17,.04-.06,.09-.11,.13-.17,.04-.06,.08-.11,.12-.17,.04-.06,.08-.12,.12-.18,.04-.06,.08-.12,.12-.18,.04-.06,.08-.12,.12-.18s.07-.12,.11-.18c.04-.06,.07-.12,.11-.18,.04-.06,.08-.13,.11-.19,.04-.06,.08-.13,.11-.19,.03-.06,.06-.11,.09-.16,.02-.05,.04-.08,.06-.12,.02-.04,.03-.06,.05-.09,.02-.03,.03-.05,.05-.08,.02-.03,.03-.06,.04-.09s.03-.06,.04-.09l.04-.09s.02-.06,.03-.09c0-.03,.01-.07,.02-.1,0-.03,0-.06,.01-.1s0-.06,0-.09c0-.03,0-.06,0-.1,0-.03-.01-.07-.03-.11-.01-.03-.02-.07-.04-.1-.01-.03-.02-.06-.05-.09-.02-.03-.03-.06-.07-.1-.03-.04-.05-.08-.1-.12-.05-.04-.07-.12-.16-.14-.89-.26-1.41,.18-1.97,.79s-1.05,1.41-1.55,2.05c-.12,.16-.32,.35-.42,.42-.1,.08-.44,.41-.51,.22s.22-.59,.41-.84c.39-.5,.93-1.36,1.24-1.89,.38-.66,.62-1.39,.99-2.06,.35-.63,.85-1.15,1.26-1.74,.02-.03,.04-.06,.05-.08,.02-.03,.03-.05,.04-.07,.01-.02,.02-.04,.03-.06,0-.02,.02-.04,.03-.06,0-.02,.01-.05,.02-.07,0-.02,.01-.05,.02-.07,0-.02,.01-.05,.02-.07,0-.02,0-.05,.01-.07,0-.03,0-.05,0-.08,0-.03,0-.05,0-.08,0-.03,0-.05,0-.07,0-.03,0-.05,0-.08,0-.03,0-.06-.01-.09s0-.06-.01-.08c0-.03,0-.04-.01-.07,0-.03,0-.05-.02-.09s-.02-.08-.05-.14-.06-.14-.11-.21c-.05-.07-.11-.17-.17-.24s-.13-.16-.21-.21-.16-.1-.25-.13c-.08-.03-.16-.04-.24-.04-.08,0-.15,0-.22,.02-.07,.02-.13,.04-.2,.07-.07,.03-.13,.07-.2,.11-.07,.04-.13,.09-.2,.15s-.13,.12-.19,.17-.13,.12-.19,.18c-.06,.06-.12,.12-.17,.18s-.1,.13-.15,.19-.1,.13-.14,.2c-.04,.06-.08,.13-.12,.19-.04,.06-.07,.12-.1,.17-.03,.05-.05,.09-.08,.13-.02,.04-.04,.07-.06,.11-.02,.04-.04,.06-.06,.1s-.04,.07-.06,.11-.05,.08-.07,.11-.04,.07-.07,.1c-.02,.03-.04,.07-.06,.1-.02,.03-.04,.07-.06,.1-.02,.03-.04,.07-.06,.1-.02,.03-.04,.07-.07,.1-.02,.03-.05,.06-.07,.1s-.04,.07-.07,.1-.05,.07-.07,.1c-.02,.03-.05,.07-.07,.1-.02,.03-.05,.07-.07,.1-.02,.03-.04,.06-.06,.08-.02,.02-.03,.04-.05,.06s-.02,.03-.03,.05c-.01,.02-.02,.03-.03,.04s-.02,.03-.03,.05-.02,.03-.03,.05l-.03,.05-.03,.05-.03,.05s-.02,.03-.03,.05-.02,.03-.03,.05c-.01,.02-.02,.03-.03,.05-.01,.02-.02,.03-.04,.05-.01,.02-.02,.03-.03,.05s-.02,.03-.03,.05c-.01,.02-.02,.03-.03,.05-.01,.02-.03,.04-.04,.06-.02,.03-.04,.05-.06,.09-.02,.03-.05,.07-.07,.1-.02,.03-.05,.07-.07,.11-.02,.03-.04,.07-.06,.1-.02,.03-.03,.05-.05,.08-.02,.03-.03,.05-.05,.07-.02,.02-.03,.04-.05,.07-.02,.02-.03,.04-.04,.07-.02,.02-.03,.05-.05,.07-.02,.02-.03,.05-.05,.07-.02,.02-.03,.04-.05,.07l-.05,.07s-.03,.04-.04,.07c-.01,.02-.03,.05-.05,.07-.01,.02-.03,.04-.04,.07-.01,.02-.03,.04-.04,.06l-.04,.07s-.03,.05-.05,.07c-.02,.02-.03,.04-.05,.07s-.03,.04-.04,.07c-.02,.03-.06,.13-.09,.15s0-.03,0-.04c0,0,0-.04,0-.05,0-.01,0-.03,.01-.05l.02-.04s.01-.03,.02-.05c0-.02,.01-.03,.02-.04,.38-.68,.74-1.38,1.06-2.09,.53-1.15,1.3-2.2,1.97-3.27,.04-.06,.07-.12,.11-.18,.04-.06,.07-.12,.11-.17,.03-.06,.07-.12,.1-.17,.03-.05,.07-.11,.1-.15s.06-.09,.09-.13c.03-.04,.05-.08,.08-.12s.05-.07,.08-.11c.03-.04,.05-.08,.08-.12,.02-.04,.05-.09,.08-.13,.03-.04,.05-.09,.07-.13s.04-.09,.06-.14c.02-.05,.04-.09,.06-.14,.02-.05,.03-.1,.04-.15,.01-.05,.02-.1,.02-.15s0-.1,0-.15c0-.05,0-.1,0-.15-.07-.63-.56-1.15-1.21-1.25-.8-.12-1.52,.73-1.82,1.32-.39,.76-.85,1.48-1.32,2.19-.58,.87-1.08,1.84-1.53,2.79-.22,.47-.54,.89-.8,1.35-.07,.12-.14,.24-.28,.28-.64,.15-.07-1.48-.01-1.71,.19-.71,.42-1.41,.66-2.1,.02-.05,.03-.1,.05-.15,.02-.05,.03-.1,.05-.15s.03-.09,.04-.14c.01-.04,.02-.09,.03-.13,0-.04,.02-.08,.03-.12,.01-.04,.02-.08,.03-.12s.02-.08,.03-.12,.02-.08,.03-.12c.23-.85,.62-1.64,.9-2.46,.03-.07,.05-.15,.07-.23,.02-.08,.04-.15,.06-.23,.02-.08,.03-.15,.03-.22,0-.07,0-.15,0-.22,0-.08-.01-.15-.03-.22-.02-.08-.03-.15-.06-.23-.03-.08-.07-.15-.12-.22-.05-.07-.12-.14-.18-.2-.06-.06-.14-.12-.21-.16-.06-.05-.13-.09-.19-.11-.06-.03-.1-.04-.15-.06-.05-.02-.07-.02-.11-.03-.04-.01-.07-.01-.1-.02-.04,0-.08,0-.11,0s-.08,0-.11,0c-.04,0-.07,0-.1,.02-.03,0-.06,.02-.09,.03s-.06,.03-.1,.04c-.03,.01-.06,.03-.09,.04-.03,.01-.06,.03-.08,.05-.03,.02-.05,.04-.08,.06-.03,.02-.06,.05-.08,.07-.03,.02-.05,.04-.08,.06-.02,.02-.04,.03-.07,.06s-.04,.04-.07,.07c-.03,.03-.06,.07-.1,.11-.04,.05-.09,.11-.13,.17-.04,.06-.1,.14-.15,.21s-.1,.16-.14,.24c-.04,.08-.08,.16-.12,.24s-.07,.16-.1,.25-.06,.17-.09,.26c-.03,.09-.06,.18-.09,.27s-.05,.18-.08,.27-.05,.18-.07,.27c-.02,.09-.04,.18-.07,.27-.02,.09-.05,.18-.07,.27-.02,.09-.05,.18-.07,.27-.02,.09-.05,.18-.07,.26s-.04,.17-.07,.26-.05,.17-.08,.26c-.03,.09-.06,.18-.11,.28-.04,.1-.09,.2-.14,.3-.47,1-.73,2.09-1.18,3.09s-.96,2.01-1.52,2.97c-.13,.22-.26,.44-.46,.6-.2,.16-.49,.28-.76,.28-.29,0-.37-.19-.5-.45l-.53-1.1c-.21-.43-.21-.74-.23-1.17,0-.09,0-.18,0-.26,0-.09,0-.17,0-.25,0-.08,0-.16,0-.23,0-.07,0-.15,0-.21s0-.12,0-.18c0-.06,0-.1,0-.15s0-.09,0-.14c0-.05,0-.1,0-.16s0-.11-.01-.16c0-.05-.01-.1-.02-.15,0-.05-.01-.1-.02-.15,0-.05-.02-.1-.03-.16-.01-.05-.03-.11-.04-.16-.01-.05-.03-.1-.04-.16-.02-.05-.03-.1-.05-.15-.02-.05-.04-.1-.06-.15-.02-.05-.04-.1-.06-.15s-.05-.11-.07-.16c-.02-.05-.05-.1-.08-.15-.03-.05-.05-.09-.08-.13-.03-.04-.05-.07-.08-.11-.03-.03-.06-.06-.09-.09-.03-.03-.06-.05-.09-.08-.03-.03-.06-.05-.1-.07-.03-.02-.07-.05-.1-.07-.03-.02-.07-.04-.1-.05s-.07-.03-.1-.05-.07-.03-.11-.04c-.04-.01-.07-.02-.11-.03-.04,0-.07-.02-.11-.02s-.07,0-.11,0c-.04,0-.07,0-.11,0s-.07,0-.11,0-.07,0-.1,.02c-.03,0-.07,.02-.1,.03s-.07,.03-.1,.04c-.03,.02-.06,.04-.09,.06s-.06,.05-.08,.08-.05,.06-.06,.1c-.02,.03-.03,.07-.05,.11s-.02,.08-.03,.11c0,.04-.01,.08-.02,.12,0,.04,0,.08,0,.12,0,.04,0,.08,0,.12,0,.04,0,.08,0,.13s0,.09,.01,.13c0,.04,0,.09,.01,.13,0,.04,0,.09,0,.13s0,.08,0,.13,0,.08,0,.12c0,.04,0,.08,0,.12,0,.05-.01,.09-.03,.14s-.03,.11-.04,.16c-.01,.06-.03,.12-.05,.18-.02,.06-.03,.12-.05,.19-.01,.06-.03,.12-.04,.18-.01,.06-.02,.12-.03,.18-.01,.06-.02,.13-.03,.19,0,.06-.02,.13-.02,.19s-.01,.13-.02,.19c0,.06,0,.13,0,.19s0,.13,0,.2,0,.13,0,.2c0,.07,0,.13,0,.19,0,.07,0,.13,0,.2,0,.07,.01,.14,.02,.2s.01,.14,.02,.2c0,.06,.01,.13,.02,.18,0,.06,.01,.11,.02,.16,0,.05,0,.1,.01,.15s0,.1,.01,.14c0,.05,0,.1,.01,.15,0,.05,0,.1,.01,.15s0,.1,0,.15c0,.05,0,.1,0,.15,0,.05,0,.1,0,.15,0,.05,0,.1,0,.15,0,.05,0,.1,0,.14,0,.05,0,.1,0,.15,0,.05,0,.1,0,.15s0,.1,0,.15c0,.05,0,.09,0,.14,0,.05,0,.09,0,.15,0,.06,0,.11,0,.18s.01,.14,.02,.22c0,.07,.02,.16,.04,.24,.02,.08,.03,.17,.05,.25,.02,.08,.04,.16,.06,.24,.02,.08,.04,.15,.07,.23,.02,.08,.05,.15,.08,.23s.05,.15,.08,.23c.03,.08,.06,.15,.09,.23,.03,.08,.06,.15,.09,.23s.06,.15,.09,.23,.06,.15,.09,.23c.03,.08,.06,.15,.09,.23s.06,.15,.09,.23c.03,.08,.06,.16,.08,.24s.05,.16,.08,.24c.02,.08,.04,.15,.06,.23,.02,.07,.04,.14,.05,.21,.02,.07,.03,.13,.05,.19,.02,.06,.03,.12,.05,.19,.02,.06,.04,.13,.06,.19,.02,.06,.04,.13,.06,.19,.02,.06,.04,.13,.06,.19,.02,.06,.04,.13,.07,.19,.02,.06,.05,.13,.07,.19,.02,.06,.05,.13,.08,.19,.03,.06,.05,.13,.08,.19s.05,.12,.08,.19c.03,.06,.06,.12,.09,.19,.03,.06,.06,.12,.09,.18,.03,.06,.06,.12,.09,.19,.03,.06,.06,.12,.1,.18,.03,.06,.07,.12,.1,.18,.03,.06,.07,.12,.1,.18,.03,.06,.07,.12,.1,.18,.03,.06,.07,.12,.09,.18s.08,.12,.09,.18c1.13,6.7,.48,12.89-.8,19.31-.34,1.7-.3,3.5-.99,4.98-.9,1.94-2.84,.22-4.05-.53-5.09-3.16-9.98-6.17-15.04-9.24-.97-.59-1.95-1.16-3.05-1.45-1.1-.29-2.28-.31-3.19,.28-.91,.59-1.39,1.5-1.45,2.54-.22,3.53-.34,6.57,1.6,9.9,1.29,2.22,3.41,3.58,5.71,4.95s4.9,2.22,7.46,3.29,5.59,2.13,8.23,3.07c2.65,.94,5.2,1.77,7.85,2.53Z" fill="#6e391f"/></g><path id="f" d="M95.78,54.51c-1.78,.51-4.27-.14-5.71-.47-1.69-.39-4.29-2.16-5.89-.83-.58,.56-1.04,1.24-1.35,1.99-.75,1.16-1.37,2.39-1.86,3.68-.37,1.46,.66,3.27,1.35,4.51,.61,1.1,1.26,2.18,1.95,3.23,.7,1.06,1.57,1.97,2.2,3.06,.35,.61,2.17,2.9,.96,3.43-.49,.29-1.05,.41-1.61,.35-.84-.33-1.63-.76-2.37-1.27-1.75-.85-3.53-1.65-5.32-2.42-3.08-1.33-6.19-2.63-9.32-3.84-.95-.26-1.86-.62-2.72-1.08-1.5-1-2.65-2.23-4.33-2.95-.11-.75,.51-1.39,1.1-1.86,1.2-.96,2.53-1.77,3.65-2.81,2.03-1.88,2.57-4.54,3.03-7.16,.87-5.02-1.1-12.33-4.06-16.48-1.99-2.79-4.63-5.3-5.99-8.49-1.04-2.44-.31-3.92,.64-6.27,.95-2.37,2.17-4.77,4.25-6.26,2.21-1.58,5.06-1.91,7.77-2.03,3.3-.23,6.62,0,9.86,.66,7.15,1.63,18.39,9.69,16.29,18.3-.39,1.16-.56,2.37-.51,3.59,.22,1.22,.68,2.38,1.35,3.41,.54,.86,1.69,1.64,1.52,2.76-.17,1.1-1.12,.99-1.73,1.6-.47,.67-.55,1.54-.22,2.29,.23,.9,.5,1.48-.63,1.52-1.18,.08-2.36,.28-3.51,.58-.33,.08-.73,.24-.76,.58s.32,.56,.63,.69c.75,.34,1.52,.63,2.31,.87,.41,.12,1.41-.1,1.42,.61-.02,.2-.09,.4-.2,.57-.53,1.14-.08,2.46-.17,3.66-.15,1.1-.94,2-2.02,2.28Z" fill="#6e391f"/><path id="g" d="M72.38,41.69c.12,1.68,.79,3.28,1.9,4.55,1.11,1.26,2.4,2.34,3.83,3.21,2.09,1.41,4.37,2.52,6.76,3.31-2.1-.92-4.12-2.01-6.05-3.25-1.47-.89-2.81-1.97-4.01-3.2-1.18-1.32-2.01-2.9-2.43-4.62Z" fill="#462415"/><path id="h" d="M98.16,39.85c-.06,.18-.24,.3-.43,.29-.19-.01-.37-.05-.55-.11-.55-.08-1.11,.02-1.59,.3,.24-.3,2.65-.85,2.57-.48Z" fill="#462415" stroke="#462415" stroke-linecap="round" stroke-linejoin="round" stroke-width=".53"/><path id="i" d="M94.22,39.74c-.06,.23-.01,.48,.12,.68,.03,.05,.06,.11,.13,.06,.06-.05,.08-.13,.07-.2-.06-.5,.16-1,.58-1.29,.18-.19,.34-.41,.47-.65,.06-.08,.09-.18,.06-.28-.04-.09-.11-.03-.18,0-.6,.38-1.04,.98-1.24,1.66Z" fill="#462415"/><path id="j" d="M77.53,31.05c.23-.89,.67-1.71,1.28-2.4,.54-.51,.99-1.11,1.5-1.64,.52-.41,1.01-.85,1.46-1.34,.17-.36,.36-.7,.58-1.03,.19-.22,.43-.3,.58-.55,.22-.36,.15-.61,.55-.86,.26-.14,.54-.24,.82-.3,.42-.12,3.96-1.45,2.83-2.09-4.31-2.46-9.43-.69-13.94,0-3.13,.33-6.19,1.1-9.11,2.28-1.76,.81-3.33,1.97-4.63,3.41-1.25,1.37-.71,2.7-.08,4.34,.98,2.77,2.69,5.24,4.94,7.14,1.05,.92,2.41,1.39,3.8,1.31,.85-.1,1.71-.91,2.55-.84,1.25,.1,.69,1.03,1.74,1.45,1.25,.49,1.37-.59,1.6-1.44,.38-1.67,1.12-3.23,2.17-4.58,.4-.48,.8-.45,1.1-1.06,.26-.52,.11-1.23,.26-1.78Z" fill="#321b0f"/><path id="k" d="M98.71,21.7c-.03-.72-.32-1.41-.82-1.93-.16-.15-.35-.27-.55-.36-.02-.14-.05-.28-.09-.42-1.07-3.36-2.16-7.01-4.75-9.53-5.85-5.66-14.66-3.18-21.45-.86-3.63,1.16-6.97,3.08-9.8,5.64-.49,.46-.95,.95-1.36,1.47-1.34,1.8-2.15,3.94-2.34,6.18-.2,2.06-.09,4.14,.33,6.17-.1,.1-.19,.2-.28,.31-.22,.26-.37,.57-.43,.9-.08,.64-.02,1.29,.16,1.91,.05,.35,.17,.69,.35,.99,.53,.6,1.38,.83,2.15,.58,.77-.25,1.49-.63,2.14-1.11,8.17-5.36,18.23-7.13,27.92-7.42,1.61-.05,5.76-.02,6.12-.02l2.2-.02c.2,.01,.41-.02,.59-.1,.63-.32-.03-1.89-.09-2.39Z" fill="#43a98a"/><path id="l" d="M97.23,19.27c-1.64-.26-3.46-.45-5.12-.55-1.76-.1-3.53-.12-5.29-.05-3.56,.15-7.1,.64-10.56,1.47-6.49,1.49-12.68,4.04-18.33,7.57" fill="none" stroke="#d1e3da" stroke-dasharray="0 0 1.11 .72" stroke-linecap="round" stroke-linejoin="round" stroke-width=".54"/><path id="m" d="M60.55,35.48c-2.42,.38-4.34,2.23-4.82,4.63-.49,2.38,.13,4.85,1.67,6.73,1.55,1.85,3.68,3.12,6.04,3.61,1.97,.45,4.27,.33,5.7-1.09,1-1.22,1.61-2.7,1.77-4.27l.99-5.02c.08-.29,.1-.58,.06-.88-.16-.5-.49-.94-.92-1.23-1.29-1.09-2.85-3.15-4.64-3.04-1.96,.02-3.92,.21-5.86,.56Z" fill="#321b0f"/><path id="n" d="M72.41,39.02c0,.18-.05,.36-.12,.53-.6,1.29-2.04-.03-2.71-.69-1.04-.96-1.74-2.24-2-3.63-.24-1.42,.34-2.85,1.5-3.71,1.69-.93,3.81-.37,4.82,1.28,.47,.97-.17,2.28-.56,3.17-.51,.95-.83,1.99-.93,3.06Z" fill="#6e391f"/><path id="o" d="M71.4,31.87c.18,.04,.83,.24,.87,.41,.02,.1-.02,.2-.12,.24-.15,.07-.51-.11-.65-.17-.44-.16-.93-.16-1.38,0-.78,.28-.93,.81-1.25,1.47-.05,.11-.18,.16-.28,.11-.43-.26,.2-1.06,.4-1.3,.36-.42,.86-.71,1.41-.8,.33-.05,.67-.04,1,.03Z" fill="#462415" stroke="#462415" stroke-miterlimit="10" stroke-width=".07"/><path id="p" d="M97.23,44.42c.3-.06,.85-.22,1.13-.02,.38,.28,.03,.57,0,.93,0,.17-.04,.34-.11,.49-.27,.47-1.55,.38-2.01,.36-.67-.02-1.33-.12-1.97-.31-.77-.24-.92-.63,.03-.83l2.93-.63Z" fill="#fff"/><path id="q" d="M98.24,43.38c.74-.05,1.61,.48,.91,1.27s-1.93,.64-2.89,.79c-.47,.07-1.85,.48-2.26,.12,.41,.28,.86,.49,1.35,.62,.97,.39,2.61,.48,3.03,1.46,.55,1.27-1.57,1.29-2.27,.99-1.59-.68-2.48-1.88-3.65-3-.17-.16-.65-.49-.49-.78s1.01-.08,1.28-.09c.73-.03,1.45-.17,2.15-.41,.86-.37,1.75-.69,2.65-.96,.06-.01,.12-.02,.18-.02Z" fill="#55240e"/><path id="r" d="M89.11,30.87c.86-.09,1.72-.06,2.57,.09,.5-.01,.95,.27,1.17,.71,.18,.51-.21,1.11-.4,1.56-.5,1.17-1.9,.6-2.77-.03-.51-.38-1.65-2.04-.58-2.33Z" fill="#fff"/><ellipse id="s" cx="92.34" cy="32.59" rx="1.56" ry="1.34" transform="translate(45.74 118.71) rotate(-81.02)" fill="#451810" stroke="#100d0e" stroke-miterlimit="10" stroke-width=".3"/><ellipse id="t" cx="92.43" cy="33.11" rx="1.17" ry="1.01" transform="translate(9.93 86.34) rotate(-52.53)" fill="#100d0e"/><circle id="u" cx="92.9" cy="33.15" r=".3" fill="#af8f76"/><path id="v" d="M89.68,32.98c-.37-.38-.66-.83-.86-1.31-.19-.55,.27-.77,.69-.82s.95-.13,1.39-.23c-.27-.03-.52-.14-.74-.31-.14-.14-.3-.33-.44-.26s.03,.17-.05,.22-.25-.03-.33-.09c0,.46-.38,.16-.51,.14-.04,0,.09,.11,.1,.18,.07,.51-.54,.14-.64,0s-.23-.29-.29,0c-.03,.26,.04,.52,.19,.73-.04-.08-.43-.08-.42,0s.3,.49,.38,.64,.22,.37-.07,.33c-.03,0-.04,.15,0,.18,.11,.14,.24,.07,.4,.06,.45,0,.89,.2,1.2,.53Z" fill="#100d0e"/><path id="w" d="M93.46,29c-.2-.15-.42-.27-.65-.36-.81-.34-1.7-.43-2.56-.25-.57,.09-1.13,.26-1.66,.49-.53,.24-.99,.61-1.33,1.08,.42-.25,.86-.46,1.32-.63,.47-.2,.97-.33,1.48-.39,.52-.09,1.04-.13,1.56-.13,.5-.06,1.02,0,1.49,.19,.16,.09,.16,.12,.13,.28-.05,.29-.06,.58-.03,.87,0,.14,.03,.28,.07,.41,.05,.13,.26,.37,.43,.26s-.02-.34-.07-.45c-.18-.43-.25-.89-.19-1.35Z" fill="#462415"/><path id="x" d="M94.64,31.37c-.4,.14-.82,.18-1.24,.12-.76-.05-1.55-.34-2.33-.36-.45-.01-.91,0-1.36,.06-.23,.03-.46,.07-.69,.12-.19,.04-.27,.1-.19,.31,.04,.11,.1,.2,.18,.29,.25,.34,.53,.66,.84,.95,.32,.23,.66,.43,1.02,.58,.34,.19,.71,.35,1.04,.57,.26,.2,.48,.45,.64,.73-.4-.09-.78-.28-1.09-.56-.55-.33-1.12-.62-1.72-.84-.18-.07-.35-.17-.5-.28-.23-.23-.42-.49-.57-.78-.19-.3-.31-.65-.33-1-.01-.32,.1-.34,.39-.41s.56-.14,.84-.2c1.13-.25,2.28-.35,3.44-.27,.46,.04,.93,.11,1.39,.12,.31,0,.62-.04,.93-.04-.07,.39-.32,.72-.68,.89Z" fill="#100d0e"/><path id="y" d="M109.52,268.28c-1.47-.82-3.21-.98-4.78-1.58-4.19-1.58-6.97-6.12-11.38-6.88-4.27-.73-8.65,2.39-12.8,1.16-1.18-.35-2.34-1.05-3.55-.82-1.76,.33-2.55,2.37-3.02,4.1-.51,1.9-1.11,4.24-.22,6.12,.78,1.65,3.18,1.69,4.8,2.11,4.57,1.17,9.24,1.94,13.95,2.32,2.6,.21,5.31,.46,7.89,.51,1.95,.04,11.41-.92,11.15-4.19-.19-1.22-.95-2.27-2.03-2.85Z" fill="#bed7ea"/><path id="a`" d="M107.47,275.98c-2.16,.95-4.62,.87-6.98,.78l-21.17-.83c-1.57,.08-3.14-.28-4.52-1.04-1.78-1.4-2.33-3.86-1.3-5.88,1.18,1.56,2.74,1.57,4.64,2,9.38,2.11,19,4.23,28.52,2.9,1.45-.2,2.91-1.03,4.31-1.12-.44,1.38-2.19,2.61-3.49,3.18Z" fill="#e5eff6"/><path id="aa" d="M74.54,262.86c.34-1.23,1.29-2.2,2.51-2.56,1.21-.23,2.37,.47,3.55,.82,4.15,1.24,8.53-1.89,12.79-1.16,.85,.15,1.67,.43,2.43,.83-6.83,2.37-14.13,3.08-21.29,2.06Z" fill="#e5eff6"/><path id="ab" d="M103.45,265.86c-1.1,.4-1.84,1.44-1.87,2.61-.37-1.34-.36-2.76,.03-4.09-1.07-.22-2.14,.34-2.58,1.33l.07-2.99c-.27,.01-2.3,.18-2,.95-.48-1.23,.77-1.79,1.37-2.64,.22-.31,1.22-1.69,.21-1.62-.68,.22-1.05,.96-.83,1.64,.03,.09,.07,.18,.12,.26-.35-.44-.84-.75-1.39-.87-.56-.06-1.18,.49-.97,1.01,.14,.35,3.56-.28,4.26,.83" fill="none" stroke="#e5eff6" stroke-linecap="round" stroke-linejoin="round" stroke-width=".74"/><path id="ac" d="M87.05,127.57c3.23,4.97,2.03,10.28,2.81,15.78,1.49,9.66,3.52,19.23,6.11,28.66,1.14,4.36,2.22,8.73,3.15,13.14,.78,3.66,2.28,6.93,3.26,10.44,1,3.57,0,7.7-.36,11.34-.88,8.61-1.68,17.23-2.68,25.82-.85,7.28-1.69,14.92,.5,22.09,.36,1.19,.82,2.48,.36,3.64-.62,1.1-1.62,1.93-2.82,2.33-1.8,.94-3.7,1.66-5.67,2.14-6.48,1.33-18.1,.12-16.61-9.14,.6-3.72,1.78-6.24,1.88-10.18,.13-5.08-.25-10.16-.6-15.23-.31-4.31-1.25-9.02-1.46-13.09-.36-7.15,1.74-12.13-1.14-19.06-2.33-5.6-6.57-10.17-9.59-15.32-2.98-5.08-5.85-9.05-6.95-15.01-1.04-5.64-.95-11.43-.85-17.13,.1-5.64,.23-11.44,2.32-16.68,2.98-7.45,8.7-9.99,16.1-11.06,6.05-.87,9.32,2.02,12.25,6.53Z" fill="#499a83"/><path id="ad" d="M94.05,274.68c-1.47-.82-3.21-.98-4.78-1.58-4.18-1.58-6.97-6.12-11.38-6.87-4.27-.73-8.65,2.39-12.8,1.16-1.18-.35-2.34-1.05-3.55-.82-1.76,.33-2.55,2.37-3.02,4.1-.52,1.9-1.11,4.24-.22,6.12,.78,1.65,3.18,1.69,4.8,2.11,4.57,1.17,9.24,1.94,13.95,2.32,2.6,.21,5.31,.46,7.89,.51,1.95,.04,11.41-.92,11.15-4.19-.19-1.22-.95-2.27-2.03-2.85Z" fill="#bed7ea"/><path id="ae" d="M92,282.38c-2.16,.95-4.62,.87-6.98,.78l-21.17-.83c-1.57,.08-3.14-.28-4.52-1.03-1.78-1.4-2.33-3.86-1.3-5.88,1.18,1.56,2.74,1.57,4.64,2,9.38,2.11,19,4.23,28.52,2.9,1.45-.2,2.91-1.03,4.31-1.12-.44,1.39-2.2,2.61-3.49,3.18Z" fill="#e5eff6"/><path id="af" d="M59.07,269.26c.34-1.23,1.29-2.2,2.51-2.56,1.21-.23,2.37,.47,3.55,.82,4.15,1.24,8.53-1.89,12.79-1.16,.85,.15,1.67,.43,2.43,.83-6.83,2.37-14.13,3.08-21.29,2.06Z" fill="#e5eff6"/><path id="ag" d="M87.98,272.27c-1.1,.4-1.84,1.44-1.87,2.61-.37-1.34-.36-2.76,.03-4.09-1.07-.22-2.14,.34-2.58,1.33l.07-2.99c-.27,.01-2.3,.18-1.99,.95-.48-1.23,.77-1.79,1.37-2.64,.22-.31,1.22-1.69,.21-1.62-.68,.22-1.05,.96-.83,1.64,.03,.09,.07,.18,.12,.26-.35-.44-.84-.75-1.39-.87-.56-.06-1.18,.49-.97,1.01,.14,.35,3.56-.29,4.26,.83" fill="none" stroke="#e5eff6" stroke-linecap="round" stroke-linejoin="round" stroke-width=".74"/><path id="ah" d="M60.51,270.16c-4.93-3.13-3.12-6.86-3.09-12.41,.07-12.18-1.81-24.3-1.61-36.6,.14-8.29,1.76-16.84,1.25-25.11-.71-11.62-2.38-23.16-4.1-34.67-1.94-13.02-1.9-26.76,4.68-38.56,4.05-7.27,20.61-5.44,25.61-.32,7.45,7.64,6.33,21.46,5.57,31.1-.88,11.24-2.53,22.62-3.08,33.84-.22,4.42,1.21,8.74,.7,13.3-.71,6.29-3.97,11.39-4.48,17.66-.66,8.08-1.34,16.02-1.29,24.14,.03,4.56,.19,9.11,.35,13.66,.15,4.15,2.85,6.45,3.31,10.26-4.72-.26-8.51,3.76-13.01,5.21-3.03,.96-6.31,.74-9.19-.62-.56-.27-1.1-.57-1.63-.9Z" fill="#43a98a"/><path id="ai" d="M89.39,146.17c-6.72,1.84-13.41,3.47-20.02,5.77-3.59,1.3-7.45,1.71-11.24,1.18-1.82-.29-3.54-1.04-5-2.17-1.2-.84-2.11-2.03-2.62-3.4" fill="#307661"/><path id="aj" d="M72.73,58.34c.71,.31,1.4,.68,2.09,1.04,1.71,.94,3.29,2.08,4.72,3.4,2.55,2.23,4.95,4.62,7.21,7.14,2.08,2.31,3.93,4.82,5.51,7.5,1.94,3.17,2.96,6.81,2.92,10.53-.18,4.95-2.74,9.89-3.39,14.6-.95,7.48-1.29,15.02-1.03,22.56,.08,3.37,.25,6.74,.48,10.1,.22,3.25,.06,6.92,1.05,10.03,.15,.48-11.33,2.96-12.22,3.15-6.67,1.41-13.82,4.17-20.65,3.78-2.71-.15-8.06-1.39-8.96-4.46-.31-1.05,.14-2.17,.24-3.22,.14-1.51,.07-3.07,.11-4.59,.01-3.38,.34-6.75,.98-10.07,1.27-5.8,4.37-10.7,4.92-16.65,.73-7.84-.45-15.5-1.42-23.15-.3-2.35-.55-4.71-.7-7.07,0-3.5-.37-6.88,.47-10.34,.94-3.25,2.46-6.31,4.49-9.02,1.64-2.38,4.11-5.03,6.93-5.95,2.1-.59,4.34-.34,6.26,.69Z" fill="#43a98a"/><path id="ak" d="M94.8,85.55c-2.62,.18-5.25,.13-7.86-.17-.84-.11-1.67-.25-2.5-.41-.77-.2-1.52-.47-2.24-.81-.14,.61-.12,1.24,.05,1.84,.09,.72,.19,1.43,.3,2.15l.57,3.87c.25,1.92,.6,3.82,1.06,5.7,.07,.3,.18,.6,.31,.88,.35,.56,.85,1.02,1.44,1.32,.37,.24,.75,.45,1.14,.64,1.53,.71,3.07,.48,4.71,.43" fill="none" stroke="#d1e3da" stroke-dasharray="0 0 1.11 .72" stroke-linecap="round" stroke-linejoin="round" stroke-width=".54"/><path id="al" d="M94.75,89.03c-2.65,.08-5.31-.15-7.91-.69-.17-.04-.35-.09-.52-.13l-.49-.13c-1.18-.25-2.31-.66-3.37-1.23" fill="none" stroke="#d1e3da" stroke-dasharray="0 0 1.11 .72" stroke-linecap="round" stroke-linejoin="round" stroke-width=".54"/><path id="am" d="M90.02,74.38c-4-2.57-6.95-5.93-10.55-8.97-2.54-2.18-5.41-3.95-8.5-5.22-1.46-.59-3.03-.89-4.61-.88-.78,0-1.56,.14-2.3,.4-.44,.14-.86,.31-1.27,.53" fill="none" stroke="#d1e3da" stroke-dasharray="0 0 1.11 .72" stroke-linecap="round" stroke-linejoin="round" stroke-width=".54"/><path id="an" d="M94.17,26.35c-.23-.06-.46-.09-.7-.1-.39-.04-.78-.12-1.16-.24-.54-.08-1.08-.13-1.62-.15-.76-.02-1.52,.07-2.25,.28-.05,0-.1,.02-.14,.05-.3,.22-.61,.42-.94,.59-.31,.22-.38,.58-.54,.88-.03,.07,0,.16,.07,.19h0c.09,.05,.19,.09,.28,0,.4-.31,.83-.56,1.3-.74,.26-.09,.54-.12,.82-.1,.45,.05,.91,.06,1.37,0,.19-.02,.39,0,.57,.07,.53,.07,1.05,.21,1.54,.42,.42,.18,.82,.38,1.2,.62,.51,.28,1.05,.48,1.62,.59,.18-.02,.36-.06,.54-.12,.23-.09,.35-.34,.28-.58-.07-.28-.21-.53-.41-.73-.34-.37-.78-.63-1.27-.76-.2-.05-.33-.24-.56-.18Z" fill="#321b0f"/><path id="ao" d="M75.99,176.11c-.3-.83-.44-1.72-.42-2.6,.02-.24,.03-.55-.2-.66-.08,.78,.03,1.56,.31,2.29,.23,.68,.5,1.34,.71,2.03,.3,1,.69,1.95,1.01,2.93,.23,.76,.56,1.48,.98,2.15,.44,.68,1.26,1.88,2.23,1.36,.91-.49,.13-2.15-.1-2.86-.58-1.78-1.34-3.47-1.89-5.27-.29-1.11-.42-2.26-.38-3.41-.03,1.69,.34,3.37,1.08,4.89,.3,.73,.47,1.48,.82,2.18,.42,1.16,.9,2.29,1.44,3.39,.28,.52,.72,.95,1.26,1.2,.57,.2,1.2-.1,1.4-.68,.06-.17,.07-.35,.05-.52-.18-.84-.43-1.67-.73-2.48-.33-1.11-.79-2.17-1.08-3.28-.33-1.25-.69-2.49-1.03-3.73-.04-.14-.07-.28-.11-.41,.59,1.64,1.02,3.33,1.62,4.96,.36,.96,.78,1.9,1.26,2.81,.29,.54,.72,1.24,1.36,1.4,.84,.21,1.36-.46,1.34-1.23-.12-.89-.36-1.76-.72-2.58-.15-.48-.3-.96-.42-1.45-.16-.4-.28-.81-.35-1.23-.6-2.09-1.08-4.22-1.42-6.36,.13,.64,.36,1.25,.51,1.88,.15,.63,.38,1.23,.67,1.81,.35,.78,.88,1.45,1.56,1.97,.33,.24,.74,.33,1.14,.24,.4-.1,.69-.46,.7-.87-.02-.23-.1-.44-.22-.64-.34-.87-.55-1.78-.65-2.71-.25-1.07-.84-2.03-1-3.1-.15-1.22-.52-2.41-1.09-3.5-.57-.92-1.07-1.88-1.49-2.88-.63-1.49-1.36-2.93-2.19-4.32-.89-1.69-1.1-4.13-1.49-5.99-.39-2.34-.63-4.7-.73-7.07-.53-6.27-.37-12.87-1.7-18.99-1.02-4.68-1.48-9.46-1.39-14.25,.03-1.49,.26-2.96,.28-4.43l.06-4.98c.08-6.76-.65-13.59,.16-20.32,.7-4.7-.68-9.48-3.77-13.09-1.08-1.3-2.56-2.2-4.21-2.55-3.44-.36-6.7,1.59-8.03,4.78-1.84,4.49-2.85,10.08-1.76,14.89,.96,4.78,1.61,9.62,1.95,14.49,.3,3.18,.52,6.37,.65,9.57,.12,2.8,.24,5.71,.61,8.53,.28,2.1,.35,4.2,.8,6.31,.78,3.63,2.08,7.12,2.93,10.73,.72,3.04,1.46,6.06,2.24,9.08,.49,1.91,.99,3.81,1.49,5.71,.97,3.26,1.58,6.62,1.79,10.02,.08,3.51-.27,7.13,.17,10.56,.33,2.53,.49,5.6,1.7,7.85,.4,.74,.74,1.48,1.13,2.22,.11,.24,.26,.46,.43,.65,.18,.2,.43,.32,.69,.32,.3-.02,.58-.19,.73-.46,.15-.26,.22-.56,.22-.86-.06-.64-.24-1.27-.51-1.85-.45-1.52-1.2-2.84-1.12-4.48" fill="#6e391f"/><path id="ap" d="M76.29,93.01c-1.13-.83-2.45-1.36-3.84-1.55-3.21-.21-6.44,.22-9.48,1.26-.79,.14-1.51,.55-2.03,1.18-.46,.5-.56,1.23-.27,1.84,.18,0,.33,.14,.33,.32,0,.03,0,.05,0,.08-.57,0-1.13-.07-1.68-.22-1.11-.29-2.76-.95-2.83-2.23-.08-1.59,.51-3.12,.57-4.7,.11-3.24,.19-6.48,.56-9.7,.7-6.03,2.3-13.06,7.99-16.33,5.02-2.89,10.89,1.55,12.53,6.28,1.28,4.05,1.88,8.28,1.77,12.52,0,1.83-.08,3.66-.14,5.49-.12,1.79-.05,3.59,.19,5.36,.08,.27,.06,.55-.04,.81-.11,.18-.28,.31-.48,.36-.51,.21-1,.45-1.48,.72-.31,.14-1.06,.52-.96-.14,.09-.56,.99-.57,1.4-.68,.12-.02,.23-.06,.33-.11-.17-.24-1.05-.2-1.35-.25-.38-.04-.74-.14-1.09-.29Z" fill="#56b496"/><path id="aq" d="M46.3,50.02c-.69,.42-1.5,.62-2.31,.56-1.43-.11-2.84-.38-4.21-.81-.81-.22-2.05-.91-2.9-.55-.87,.37-.71,1.42-.86,2.21-.27,.89-.75,1.69-1.41,2.35-1.4,1.8-1.92,4.13-1.42,6.35,.47,1.63,1.69,2.92,2.67,4.31,.72,.94,1.19,2.04,1.37,3.21,.07,.74,.16,2.56-.81,2.8-.4,.04-.8-.06-1.13-.28-6.02-3.11-12.39-5.57-18.66-8.18-1.33-.55-1.53-1.92-1.52-3.2,0-1.23-.36-2.42-.31-3.65,.1-1.26,.46-2.48,1.03-3.61,1.02-2.2,2.11-4.49,2.19-6.97,.11-3.35-.76-6.88-1.22-10.19-.73-5.26-6.64-8.91-5.88-14.17,.96-6.89,5.55-12.74,12.02-15.3,3.14-1.26,6.02-.74,9.28,.02,2.83,.72,5.59,1.67,8.27,2.84,4.55,1.87,7.78,6.01,8.49,10.88,.3,2.02-.22,3.8-.25,5.77,.07,1.21,.37,2.4,.89,3.49,.69,1.71,1.89,3.71,2.16,5.54,.13,.59-.02,1.2-.39,1.67-.48,.56-1.05,.5-1.62,.88-.87,.57-.73,1.8-.4,2.64,.28,.7,.79,1.55-.37,1.54-1.04-.01-2.07,.05-3.1,.18-.24,.02-.47,.08-.69,.19-.22,.11-.35,.34-.34,.59,.07,.26,.26,.48,.5,.59,.66,.43,1.33,.82,2.03,1.18,.43,.22,1.13,.31,1.3,.84s-.38,1.06-.54,1.57c-.4,1.23-.24,2.63-.93,3.77-.23,.38-.55,.7-.93,.94Z" fill="#cca484"/><path id="ar" d="M49.72,35.34s.02,.09,.02,.14c-.22,.02-.45,0-.67-.06-.54-.05-1.09,.09-1.55,.38,.24-.32,1.99-.93,2.2-.46Z" fill="#997b63" stroke="#997b63" stroke-linecap="round" stroke-linejoin="round" stroke-width=".34"/><path id="as" d="M34.29,48.15c-.81-.23-1.63-.44-2.44-.68-.84-.25-4.02-1.31-4.72-1.65-1.58-.71-2.81-2.03-3.4-3.65-.48-1.55-.25-3.16-.56-4.73,.21,1.07,.41,2.22,.62,3.29,.14,.91,.48,1.78,1.02,2.54,.78,1.07,1.84,1.89,3.07,2.38,1.29,.55,2.56,1.13,3.89,1.59s2.7,.85,4.06,1.26c.2,.06,.4,.13,.6,.2,.1,.03,.19,.07,.29,.1,.06,.02,.27,.08,.13,.11-.15-.02-.29-.06-.43-.12-.2-.06-1.7-.53-2.13-.64Z" fill="#997b63" stroke="#997b63" stroke-linecap="round" stroke-linejoin="round" stroke-width=".07"/><path id="at" d="M45.96,35.54c.04,.18,.15,.34,.31,.44,.04,.02,.08,.05,.11,0,.03-.05,.02-.12-.02-.17-.2-.34-.2-.76,0-1.1,.07-.2,.11-.4,.12-.61,.02-.08,0-.16-.05-.22-.06-.05-.09,.02-.13,.07-.31,.47-.43,1.03-.35,1.59Z" fill="#997b63"/><path id="au" d="M31.94,17.41c.52-.37,1.11-.63,1.73-.79,1.82-.45,3.67-.76,5.54-.93,1.81-.12,3.52,.55,5.31,.57,.66,0,1.3,.09,1.96,.11,.65,.05,1.3-.18,1.77-.63,.37-.47,.13-.82-.07-1.31-.64-1.56-.92-3.48-1.78-4.9-.91-1.37-2.08-2.54-3.45-3.46-1.44-1.07-3.09-1.83-4.84-2.23-2.11-.5-4.27-.74-6.44-.71-3.86,.04-7.67,.91-11.16,2.55-1.6,.58-3.08,1.45-4.37,2.57-1.23,1.34-2.28,2.84-3.13,4.45-.69,1.22-1.26,2.51-1.7,3.85-.53,1.3-.94,2.64-1.24,4.01-.13,1.32-.12,2.65,.04,3.97,.18,3.26,.97,6.46,2.33,9.42,.84,1.5,1.8,2.94,2.87,4.3,.58,.89,1.33,4.11,2.91,2.81,1.2-.99,.83-2.1,1.11-3.39,.33-1.47,1.07-2.49,.9-4.11-.14-1.29-.87-2.2-.77-3.47,.13-1.58,1.35-4.18,3.15-2.59,1.22,1.08,1.42,3.95,1.35,5.45,.48,.51,1.42,.18,1.74-.45,.99-1.97-.27-4.3,2.01-5.87,.08-.05,.16-.1,.24-.15,.69-.28,1.32-.7,1.83-1.24,.75-1.09,.02-2.55-.03-3.87,.05-1.6,.87-3.07,2.2-3.95Z" fill="#4a3222"/><path id="av" d="M22.46,34.66c.02,.19,0,.39-.04,.57-.43,1.44-2.13,.28-2.93-.3-1.24-.84-2.17-2.06-2.66-3.48-.47-1.44-.09-3.03,.98-4.11,1.62-1.23,3.92-.98,5.23,.58,.64,.94,.18,2.4-.09,3.39-.38,1.07-.55,2.2-.49,3.34Z" fill="#cca484"/><path id="aw" d="M20.28,27.37c.19,.01,.9,.12,.97,.29,.04,.1,0,.21-.08,.27-.15,.09-.55-.04-.71-.07-.49-.1-1-.02-1.43,.21-.77,.41-.84,.99-1.08,1.73-.03,.12-.16,.19-.28,.16-.49-.21,.04-1.14,.21-1.42,.31-.5,.78-.87,1.34-1.05,.34-.1,.7-.15,1.06-.12Z" fill="#997b63" stroke="#997b63" stroke-miterlimit="10" stroke-width=".08"/><path id="ax" d="M42.06,21.4c.26-.03,.52-.05,.78-.06,.81-.05,1.61-.04,2.42,.03,.29,.03,.55,.14,.84,.18,.26,.03,.59,.07,.7,.3,.07,.37,0,.74-.2,1.06-.27,.49-1.01,.48-1.54,.4-.36-.05-.72-.13-1.06-.25-.38-.1-.76-.18-1.15-.21-.3-.04-.59-.15-.89-.19-.44-.04-.88-.03-1.31,.04-.7,.07-1.39,.26-2.04,.55-.44,.22-.76,.78-1.32,.78-.39,0-.12-.52,.06-.76,.16-.21,.35-.4,.57-.56,.6-.31,1.22-.57,1.87-.76,.74-.28,1.5-.46,2.28-.55Z" fill="#4a3222"/><path id="ay" d="M48.63,41.54c-.17,.11-.37,.17-.57,.15-.49,0-.98-.02-1.47-.08-.49-.03-.97-.12-1.44-.28-.22-.08-.77-.39-.74-.68s.54-.32,.77-.34c.51-.07,1.01-.18,1.51-.33,.5-.12,.9-.43,1.4-.52,.31-.07,.63,.01,.87,.22,.42,.43,.16,1.16-.11,1.59-.06,.1-.13,.19-.22,.27Z" fill="#fff"/><path id="b`" d="M48.24,44.33c.18,.05,.21,.16,.43,.11,.25-.11,.41-.36,.4-.63-.23-1.18-1.46-1.4-2.37-1.69s-1.3-.42-1.69-1.16c-.18-.34,.26-.31,.51-.3,1.3,.12,2.62,0,3.89-.34,.33-.07,.55-.37,.53-.7,.06-.23-.05-.47-.26-.59-.46-.17-1.14,.14-1.54,.27-.56,.18-1.01,.3-1.53,.42-.71,.14-1.42,.23-2.15,.26-.45,.03-.96-.2-1.29,.21s.37,.97,.64,1.22c.41,.39,.85,.74,1.31,1.06,.93,.61,1.89,1.11,2.83,1.67,.08,.05,.16,.1,.22,.13s.04,.04,.07,.05Z" fill="#bf8473"/><path id="ba" d="M49.81,15.54c-.09-.76-.45-1.46-1.01-1.97-.18-.14-.38-.26-.6-.34-.03-.15-.07-.29-.13-.43-.99-2.62-2.23-5.15-3.69-7.55-.56-.91-1.27-1.72-2.1-2.4C39.32,.5,35.5-.46,31.78,.21c-4.15,.76-8.2,2-12.06,3.69-3.73,1.5-7.1,3.78-9.87,6.68-.48,.52-.92,1.07-1.32,1.66-1.27,2-1.96,4.31-1.98,6.68-.04,1.74,.12,3.48,.5,5.18,.17,.41,.27,.84,.31,1.28-.2,.91-.1,1.85,.27,2.7,.31,.76,.92,1.37,1.68,1.68,1.24,.46,1.78-.26,2.64-.92,8.18-6.26,18.61-8.9,28.78-9.96,1.68-.18,6.06-.46,6.43-.49l2.31-.19c.21,0,.43-.05,.62-.15,.63-.39-.19-1.98-.28-2.5Z" fill="#44ac8b"/><path id="bb" d="M47.77,13.06c-1.71-.13-3.62-.19-5.35-.16-1.83,.04-3.67,.16-5.49,.38-3.69,.44-7.32,1.23-10.85,2.37-6.63,2.05-12.87,5.18-18.47,9.27" fill="none" stroke="#d1e3da" stroke-dasharray="0 0 1.23 .79" stroke-linecap="round" stroke-miterlimit="10" stroke-width=".6"/><path id="bc" d="M40.36,26.22c.78-.25,1.6-.38,2.42-.37,.46-.02,.93,.06,1.35,.25,.34,.24,.27,.55,.2,.96-.11,.7-.26,1.67-1.08,1.84-.38,.07-.76,0-1.1-.17-.56-.29-1.08-.65-1.54-1.07-.28-.19-.53-.42-.76-.67-.3-.44,.07-.61,.5-.78Z" fill="#fff"/><ellipse id="bd" cx="43.55" cy="27.37" rx="1.7" ry="1.03" transform="translate(8.22 64.76) rotate(-78.77)" fill="#47596b" stroke="#47596b" stroke-miterlimit="10" stroke-width=".27"/><path id="be" d="M45.04,24.97c-.06-.05-.13-.1-.21-.13-.13-.05-.26-.09-.39-.14-.25-.08-.51-.15-.77-.2-.52-.1-1.05-.15-1.58-.14-1.27-.02-2.51,.39-3.52,1.16,.1-.11,.19-.22,.28-.33,.1-.1,.22-.19,.32-.29,.18-.19,.39-.36,.62-.49,.48-.27,1.01-.43,1.56-.48,.81-.06,1.63,0,2.43,.2,.25,.04,.5,.12,.73,.23,.23,.13,.43,.3,.58,.51,.09,.15,.14,.32,.14,.49,.03,.2,.08,.4,.16,.59,0-.02-.17-.02-.2-.03-.08-.03-.08-.02-.11-.1-.05-.11-.07-.24-.06-.36,.01-.12,.11-.22,.08-.35,0-.05-.03-.09-.06-.13Z" fill="#997b63"/><ellipse id="bf" cx="43.67" cy="27.96" rx="1.03" ry=".87" transform="translate(3.68 60.97) rotate(-72.17)" fill="#0f0a0a"/><circle id="bg" cx="43.77" cy="28.38" r=".33" fill="#bfc7d2"/><path id="bh" d="M45.62,26.09s-.08-.08-.13-.12c-.09-.05-.17-.1-.26-.14-.54-.24-1.12-.38-1.7-.43-.75-.05-1.51,.05-2.23,.27-.72,.2-1.38,.57-1.92,1.08,.19,.02,.35,.13,.44,.3,.1,.16,.16,.34,.25,.5,.12,.19,.27,.36,.45,.5,.44,.39,.94,.7,1.49,.91,.27,.11,.55,.18,.84,.23,.2,.02,.4,.02,.6,.01,.06-.02,.13-.03,.19-.03-.45-.07-.89-.21-1.3-.4-.46-.2-.89-.46-1.29-.76-.4-.28-.75-.62-1.04-1.02-.12-.17-.2-.35,.02-.45,.24-.1,.48-.18,.74-.24,.77-.19,1.56-.3,2.35-.33,.43-.04,.87-.04,1.3,0,.41,.02,.81,.06,1.21,.13Z" fill="#251911"/><path id="bi" d="M41.74,39.76c.24-.7,.61-1.34,1.1-1.9-.88,.56-1.43,1.51-1.5,2.55-.06,.48-.06,1.29,.3,1.57,.05-.3-.11-.73-.11-1.07,.01-.39,.08-.78,.21-1.15Z" fill="#997b63" stroke="#997b63" stroke-linecap="round" stroke-linejoin="round" stroke-width=".1"/><path id="bj" d="M46.19,265.38c-1.74-.66-3.67-.55-5.48-.94-4.84-1.04-8.63-5.54-13.57-5.64-4.78-.1-9.06,4.04-13.8,3.36-1.34-.19-2.73-.77-4.01-.32-1.88,.65-2.4,3.01-2.63,4.98-.25,2.16-.52,4.82,.77,6.73,1.13,1.67,3.76,1.33,5.59,1.51,5.19,.53,10.42,.61,15.63,.24,2.87-.2,5.88-.37,8.71-.74,2.14-.28,12.32-2.88,11.5-6.41-.41-1.3-1.41-2.33-2.7-2.78Z" fill="#3574a2"/><path id="bk" d="M45.22,274.13c-2.21,1.39-4.91,1.71-7.5,2l-23.28,2.57c-1.71,.35-3.48,.21-5.11-.39-2.18-1.23-3.18-3.84-2.39-6.21,1.54,1.51,3.25,1.27,5.4,1.43,10.6,.77,21.47,1.5,31.65-1.52,1.55-.46,3.01-1.61,4.53-1.93-.26,1.59-1.98,3.22-3.3,4.05Z" fill="#468fc3"/><path id="bl" d="M7.06,265.2c.35-1.43,1-2.75,2.33-3.21,1.28-.45,2.67,.13,4.01,.32,4.74,.67,9.01-3.46,13.8-3.36,.95,.03,1.9,.2,2.8,.51-7.08,3.71-14.94,5.68-22.94,5.75Z" fill="#468fc3"/><path id="bm" d="M39.16,263.74c-1.14,.62-1.78,1.87-1.61,3.16-.62-1.4-.85-2.96-.64-4.48-1.2-.07-2.29,.72-2.6,1.88l-.42-3.27c-.3,.06-2.48,.57-2.02,1.37-.73-1.27,.55-2.08,1.06-3.11,.19-.37,1.06-2.05-.04-1.81-.71,.35-1,1.21-.65,1.92,.05,.1,.11,.19,.18,.28-.46-.42-1.04-.68-1.67-.73-.62,.03-1.21,.73-.89,1.26,.21,.36,3.85-.9,4.8,.21" fill="none" stroke="#bed7ea" stroke-linecap="round" stroke-linejoin="round" stroke-width=".82"/><path id="bn" d="M5.47,257.93c.18-6.37-.12-12.79-.34-19.15-.32-9.07-1.94-18.42,.18-27.34,1.9-7.96-1.42-15.93-2.35-23.79-.66-5.57-.8-11.34-1.07-16.95-.32-6.69-.81-18.89,8.51-19.02,3.23-.05,5.47,1.38,8.62,.42,4.86-1.49,9.22-3.83,13.9-5.67,.6-.23,2.67,14.51,2.76,15.6,.56,6.31,.43,12.66-.39,18.95-.88,6.39-.62,13.01-1.4,19.45-.32,2.67,.19,5.59,.11,8.3-.22,4.68-.78,9.35-1.66,13.95-.74,4.22-1.57,8.42-2.15,12.5-.96,6.75-1.47,13.57-2.12,20.37-.27,2.86,.11,6.34-1.96,8.25-1.86,1.71-4.32,1.75-6.61,2.46-3.11,.97-11.12,5.66-13.53,1.68-.91-1.51-.86-3.39-.73-5.15,.12-1.62,.19-3.24,.24-4.87Z" fill="#499a83"/><path id="bo" d="M50.65,274.39c-1.64-.88-3.56-1.03-5.31-1.67-4.65-1.68-7.81-6.65-12.69-7.41-4.73-.74-9.52,2.78-14.12,1.48-1.31-.37-2.6-1.12-3.93-.85-1.95,.4-2.78,2.66-3.27,4.58-.54,2.1-1.16,4.71-.14,6.77,.89,1.81,3.54,1.82,5.34,2.25,5.07,1.22,10.24,2,15.45,2.34,2.87,.19,5.88,.42,8.73,.44,2.16,.01,12.59-1.2,12.25-4.81-.23-1.34-1.09-2.5-2.3-3.12Z" fill="#3574a2"/><path id="bp" d="M48.51,282.93c-2.38,1.08-5.09,1.04-7.7,.98l-23.42-.58c-1.74,.12-3.47-.25-5.01-1.07-1.99-1.52-2.63-4.23-1.53-6.47,1.33,1.71,3.05,1.7,5.16,2.14,10.4,2.18,21.07,4.37,31.57,2.74,1.6-.25,3.2-1.19,4.75-1.31-.46,1.54-2.39,2.92-3.82,3.57Z" fill="#468fc3"/><path id="bq" d="M11.89,268.96c.54-1.37,1.36-2.59,2.73-2.87,1.33-.27,2.63,.48,3.93,.85,4.6,1.3,9.4-2.22,14.12-1.48,.94,.16,1.85,.45,2.7,.88-7.51,2.73-15.57,3.63-23.49,2.62Z" fill="#468fc3"/><path id="br" d="M43.89,271.82c-1.21,.46-2.02,1.62-2.02,2.91-.43-1.48-.44-3.04-.04-4.52-1.18-.23-2.36,.41-2.83,1.52l.03-3.3c-.3,.02-2.53,.23-2.19,1.08-.55-1.36,.82-1.99,1.47-2.94,.23-.34,1.32-1.89,.2-1.8-.75,.25-1.15,1.07-.9,1.82,.04,.1,.08,.2,.14,.3-.4-.48-.94-.82-1.55-.94-.62-.05-1.3,.56-1.05,1.13,.16,.39,3.93-.37,4.73,.85" fill="none" stroke="#bed7ea" stroke-linecap="round" stroke-linejoin="round" stroke-width=".82"/><path id="bs" d="M7.26,200.36c1.04,6.58-.23,12.51-.36,19.11-.14,6.92,1.4,13.66,1.59,20.63l.7,24.79c-.08,1.16,.19,2.31,.79,3.3,1.33,1.75,3.59-.04,5.31-.08,3.19-.08,6.34-.3,9.51-.42,3.49-.13,6.93-.8,10.21-2,1.67-.61,2.52-.86,2.23-2.81-.29-1.25-.66-2.48-1.12-3.68-.37-1.22-.64-2.47-.79-3.74-.19-1.11-.18-2.24,.02-3.35,.17-1.09,.13-2.2-.11-3.27-.41-2.18-1.31-4.26-1.35-6.51-.07-3.63,.96-8.56,1.54-12.23,1.01-6.38,2.31-12.71,3.28-19.1,.76-4.95,2.5-9.35,2.67-14.46,.36-10.72,1.07-21.42,1.72-32.12,.5-8.25,1.93-17.01,.95-25.23-.41-3.45-2.06-6.93-5.05-8.71-3.8-2.25-8.66-1.26-12.78,.33-5.84,2.24-10.34,2.45-16.2,3.38-2.17,.3-4.11,1.49-5.36,3.28-1.81,2.52-3.03,5.4-3.59,8.45C.35,149.21,0,152.55,.04,155.91c.14,2.82,.44,5.62,.91,8.4,.33,2.56,1.49,4.93,1.8,7.52,.44,3.62,2.03,7.03,2.58,10.67,.47,3.13,.44,6.47,.78,9.65,.29,2.74,.71,5.48,1.14,8.22Z" fill="#44ac8b"/><path id="bt" d="M44.83,143.88c-4.11,3.53-10.82,3.65-15.9,4.19-7.52,.87-15.11,1.08-22.66,.62-2.47-.17-4.59-.5-6.04-2.76" fill="#307661"/><path id="bu" d="M41.42,76.61c.09,.5,.19,1.02,.29,1.55,1.75,10.29,2.96,20.67,3.63,31.09,.88,10.89,.37,22.03,.44,33,.07,.66-.07,1.32-.4,1.89-.51,.54-1.19,.87-1.92,.95-10.06,2.14-20.33,3.17-30.61,3.1-2.74,0-5.48-.04-8.22-.21-1.6-.1-4.06-.37-4.53-2.26-.31-1.26,.17-2.24,.32-3.44,.35-2.83,.29-5.65,1.04-8.42,1.12-4.49,1.95-9.05,2.51-13.65,1.18-9.44,1.42-18.97,.73-28.45-.24-4.22-.18-8.35-.25-12.58-.15-4.61,.28-9.21,1.3-13.71,.98-4,3.44-7.31,5.96-10.04,3.28-3.56,5.29-5.66,9.81-3.1,5.16,2.87,9.87,6.48,13.99,10.71,3.93,4.03,4.9,8.17,5.92,13.57Z" fill="#44ac8b"/><path id="bv" d="M42.62,84.21c-1.24-.02-2.47-.12-3.7-.27-.88-.11-1.76-.26-2.64-.43-.81-.21-1.6-.5-2.36-.85-.14,.64-.13,1.31,.05,1.94,.09,.76,.2,1.51,.31,2.26l.6,4.08c.26,2.02,.63,4.03,1.12,6.01,.07,.32,.18,.63,.33,.93,.37,.59,.9,1.07,1.52,1.39,.39,.25,.79,.48,1.2,.68,1.61,.74,3.23,.51,4.97,.46" fill="none" stroke="#d1e3da" stroke-dasharray="0 0 1.26 .81" stroke-linecap="round" stroke-linejoin="round" stroke-width=".61"/><path id="bw" d="M42.93,87.57c-3.05-.11-6.01,0-8.73-1.61" fill="none" stroke="#d1e3da" stroke-dasharray="0 0 1.26 .81" stroke-linecap="round" stroke-linejoin="round" stroke-width=".61"/><path id="bx" d="M39.46,70.32c-3.18-2.45-5.85-5.31-8.98-7.95-2.45-2.12-5.04-4.08-7.73-5.88-2.42-1.56-4.92-3.41-7.89-3.65" fill="none" stroke="#d1e3da" stroke-dasharray="0 0 1.26 .81" stroke-linecap="round" stroke-linejoin="round" stroke-width=".61"/><rect id="by" x="10.09" y="128.46" width="49.18" height="38.29" rx="2.52" ry="2.52" transform="translate(-28.97 9.99) rotate(-11.6)" fill="#bed7ea"/><rect id="c`" x="13.05" y="130.89" width="43.25" height="33.42" transform="translate(-28.97 9.99) rotate(-11.6)" fill="#fffdf1"/><path id="ca" d="M59.64,146.63c-.02-.09-.05-.17-.09-.25-.41-.81-.82-1.61-1.23-2.42-.78-.26-1.2-1.11-.94-1.9,.06-.18,.16-.35,.28-.49,0-.02-.02-.04-.03-.07-.41-.8-.78-1.62-1.24-2.39-.36,.1-.73,.15-1.1,.15-.31,0-.6-.15-.78-.41-.16-.24-.3-.5-.43-.76-.13-.26-.29-.5-.5-.71-.16-.15-.36-.24-.58-.28,.12,.43,.31,.84,.55,1.22,.56,1.16,1.15,2.3,1.73,3.45,.78,1.55,1.57,3.1,2.35,4.65,.05,.13,.08,.27,.07,.41,.39-.06,.79-.1,1.19-.1l.23-.02c.17-.02,.34-.04,.5-.08Z" fill="#e2e9e9"/><path id="cb" d="M60.48,146.31c.68-.33,1.22-.91,1.49-1.62,.33-.92,.37-1.91,.13-2.85-.11-.76-.42-1.47-.89-2.08-.54-.75-1.41-1.21-2.34-1.22-.46,0-.93,.06-1.37,.19-.07,.04-.15,.07-.23,.08l-.88,.3c.46,.77,.83,1.59,1.24,2.39,.01,.02,.02,.04,.03,.07,.54-.63,1.48-.71,2.11-.18,.63,.54,.71,1.48,.18,2.11-.4,.47-1.05,.65-1.63,.45,.41,.81,.82,1.62,1.23,2.42,.04,.08,.07,.16,.09,.25,.29-.07,.57-.18,.84-.32Z" fill="#eef1f2"/><path id="cc" d="M52.75,137.08c.08,0,.17,.01,.25,.03,.12,.43,.31,.84,.55,1.22,.56,1.16,1.15,2.3,1.73,3.45,.78,1.55,1.57,3.1,2.35,4.65,.05,.13,.08,.27,.07,.41-.07,.02-.14,.04-.22,.06-.23,.05-.46,.14-.67,.24-.18,.09-.33,.25-.4,.44-.12,.42-.18,.85-.19,1.28,.01,.38-.12,.75-.36,1.03-.07,.07-.14,.13-.22,.18-.06,.03-.12,.06-.19,.08h-.02l-2.68-13.07Z" fill="#b4c6c8"/><path id="cd" d="M61.53,163.18c-.14-.5-.38-.96-.7-1.36-.85-1.32-1.59-2.69-2.47-3.99-1.43-1.91-3.13-3.61-5.05-5.02-.91-.76-1.83-1.53-2.69-2.34-.84-.93-1.58-1.93-2.23-3-.57-.82-1.27-1.5-1.85-2.31-.48-.67-.94-1.44-1.42-2.07s-.91-1.34-1.34-2.03c-1.61-2.5-3-5.13-4.16-7.86-2.4-5.83-4.32-11.69-6.18-17.61-1.16-3.42-2.55-6.77-4.16-10-2.85-6.18,.64-14.18-4.66-19.55-3.95-4.01-12.08-2.54-15.19,1.84-2.85,4.02-.94,8.77-.52,13.13,.39,4.1,.96,8.27,2.73,12.04,1.76,3.75,4.41,6.85,6.3,10.49,1.97,3.8,4.61,7.19,6.94,10.76,2.58,3.95,5.18,7.9,7.93,11.74,2.59,3.6,5.5,6.9,6.4,11.38,.09,.96,.23,1.91,.43,2.86,.28,.85,.79,1.66,1.08,2.52,.24,.93,.74,1.78,1.43,2.45,.4,.31,.87,.49,1.37,.54,.36,.05,.84-.14,1.17,.02,.31,.15,.4,.6,.66,.83,.33,.31,.75,.52,1.19,.59,.75,.12,1.21-.66,1.76-.62,.35,.02,.66,.64,.99,.82,.43,.22,.93,.29,1.4,.17,.71-.17,1.26-1.55,1.74-1.42,.28,.08,.39,.43,.49,.67,.18,.67,.75,1.17,1.44,1.25,.63,.13,1.28-.09,1.7-.58,.42-.8,.46-1.76,.1-2.59-.32-1.19-.65-2.37-.97-3.56-.09-.34-.56-.96-.48-1.3,.2-.9,.59-.02,.71,.2,.3,.65,.65,1.27,1.03,1.87,.65,1.04,1.64,1.82,2.8,2.2,.55,.18,1.16,.12,1.66-.17,.39-.17,.63-.57,.59-1Z" fill="#cca484"/><path id="ce" d="M28.97,66.08c1.68,4.81,1.86,9.98,1.89,15.02,.03,3.52,1.74,10.92-2.59,11.19-6.22,.38-12.48,1.03-18.71,1.15-4.27,.08-2.94-3.04-2.82-6.52,.12-3.41,.2-6.83,.59-10.23,.74-6.36,2.42-13.77,8.43-17.22,5.29-3.04,11.48,1.64,13.21,6.62Z" fill="#58b496"/></g></g></svg>