<?xml version="1.0" encoding="UTF-8"?>
<svg id="b" data-name="Layer 2" xmlns="http://www.w3.org/2000/svg" viewBox="0 0 62.43 111.85">
  <g id="c" data-name="Layer 1">
    <g id="d" data-name="Group 1724">
      <path id="e" data-name="Path 9601" d="m44.38,29.82c.47-3.61.64-7.25.52-10.89.08-1.95-.39-3.89-1.35-5.59-2.16-3.17-7.26-5.22-10.61-6.91-3.19-1.6-6.41-3.13-9.67-4.58" fill="none" stroke="#fffef7" stroke-linecap="round" stroke-miterlimit="10" stroke-width="3.7"/>
      <path id="f" data-name="Path 9602" d="m43.04,17.32c.13-.46.66-.68,1.13-.78.68-.17,1.38-.17,2.06,0,.95.28.74,1.07-.19,1.11l-1.5.08c-.5.03-1.34.2-1.56-.41-.36-.98,1.07-1.53,1.67-1.89.43-.25,1.33-.82,1.86-.51.79.46-.42,1.27-.85,1.48-.61.44-1.39.61-2.13.45-1.2-.29-1.17-1.09-.61-2.05.46-.81,1.2-1.41,2.09-1.69.31-.09.71-.11.89.16.2.31-.07.72-.35.96-.86.69-1.93,1.07-3.03,1.08-.94.03-.97-.85-.73-1.6.17-.5.44-.97.8-1.35.35-.39,2.69-1.81,2.28-.48-.21.65-.63,1.22-1.21,1.6-.77.3-1.59.43-2.41.39-.11.02-.23,0-.33-.04-.1-.08-.15-.19-.16-.32,0-.85.27-1.67.78-2.34.26-.52.71-.94,1.25-1.16.25-.09.52-.07.75.06.23.14.34.42.25.67-.13.31-.44.28-.67.43-.31.21-.46.53-.7.78-.33.29-.68.56-1.06.8-.17.16-.39.26-.62.31-.38,0-.71-.25-.82-.61-.24-.94,0-1.93.67-2.64.46-.48,1.26-.85,1.43.07" fill="none" stroke="#fffef7" stroke-linecap="round" stroke-linejoin="round" stroke-width="1.85"/>
    </g>
    <g id="g" data-name="Rectangle 294">
      <path id="h" data-name="Path 10161" d="m54.52,110.11V27.3l6.52,1.53c0,.08.01.16.01.24v79.28c0,.08,0,.16-.01.24l-6.52,1.52Z" fill="#45aa8c"/>
      <path id="i" data-name="Path 10162" d="m55.9,29.04v79.35l3.78-.89V29.92l-3.78-.89m-2.75-3.47l8.82,2.07c.08.02.14.08.18.15.06.1.11.21.14.32.05.14.08.29.1.44.02.17.04.35.04.52v79.28c0,.18-.01.35-.04.52-.02.15-.05.3-.1.45-.03.11-.08.22-.15.32-.04.07-.1.12-.18.15l-8.82,2.07V25.57Z" fill="#45aa8c"/>
    </g>
    <g id="j" data-name="Rectangle 294-2">
      <path id="k" data-name="Path 10163" d="m52.92,110.92h-.03l-51.03-1.6c-.12,0-.23-.03-.33-.08-.11-.06-.22-.14-.3-.23-.09-.11-.17-.23-.22-.36-.05-.14-.08-.29-.08-.45V29.2c0-.15.03-.3.08-.45.05-.13.12-.25.22-.36.08-.1.19-.18.3-.23.1-.05.22-.08.33-.08l51.03-1.6h.03c.12,0,.24.02.36.07.12.05.23.12.32.22.1.1.18.22.23.35.06.14.09.29.09.45v82.27c0,.15-.03.31-.09.45-.05.13-.13.25-.23.35-.09.09-.2.17-.33.22-.11.05-.23.07-.36.07Z" fill="#fbf5af"/>
      <path id="l" data-name="Path 10164" d="m52.92,27.41h0L1.92,29.01h0s-.03.05-.04.08c-.01.04-.02.08-.02.12v79s0,.08.02.11c.01.03.03.05.05.08h0s51,1.61,51,1.61h.03s.02-.04.03-.06c.01-.03.02-.06.02-.09V27.58s0-.06-.02-.09c0-.02-.02-.03-.03-.05h-.01s0-.01,0-.01m0-1.85c.24,0,.48.05.71.14.24.1.45.24.63.42.18.19.33.4.43.64.1.25.16.53.16.8v82.25c0,.27-.05.55-.16.8-.1.24-.24.46-.43.64-.18.18-.39.33-.63.42-.24.1-.51.15-.77.14l-51.03-1.6c-.25,0-.49-.07-.72-.18-.22-.11-.42-.26-.58-.45-.17-.19-.3-.41-.39-.64-.1-.25-.14-.51-.14-.78V29.2c0-.27.05-.53.14-.78.09-.24.22-.46.39-.64.16-.18.36-.34.58-.45.22-.11.47-.17.72-.18l51.03-1.6.06.03Z" fill="#45aa8c"/>
    </g>
    <path id="m" data-name="Rectangle 295" d="m38.39,87.99l1.58.02c.35,0,.7.08,1.02.23.32.15.6.35.84.61.24.26.43.56.56.89.14.34.21.71.21,1.08h0c0,.37-.07.73-.21,1.08-.13.32-.32.62-.56.87-.24.25-.52.44-.84.58-.32.14-.67.21-1.02.2l-1.58-.03c-.35,0-.7-.09-1.02-.23-.31-.15-.6-.35-.83-.61-.24-.26-.43-.56-.56-.89-.13-.34-.2-.71-.2-1.08h0c0-.37.06-.73.2-1.07.13-.32.32-.62.56-.87.24-.25.52-.44.83-.58.32-.14.67-.21,1.02-.2Z" fill="#1b3a18"/>
    <g id="n" data-name="Group 1683">
      <path id="o" data-name="Path 8706" d="m39.78,103.68s.07,0,.1,0c.03,0,.05-.02.07-.04.02-.02.03-.05.04-.07,0-.04,0-.07,0-.11-.03,0-.05.02-.08.03-.02.01-.04.03-.05.05-.02.02-.03.04-.04.07l-.04.08Z" fill="#d72027"/>
      <path id="p" data-name="Path 8707" d="m43.01,100.82s.06,0,.09-.02c.03-.01.05-.03.08-.05.02-.02.04-.05.05-.07.02-.03.03-.07.03-.1,0-.03-.01-.06-.02-.09-.01-.03-.03-.05-.04-.07-.02-.02-.04-.04-.07-.05-.03-.01-.06-.02-.09-.02-.03,0-.07,0-.1,0-.03,0-.05.02-.07.04-.02.02-.03.04-.04.07,0,.03-.01.06-.01.09,0,.03,0,.06,0,.09,0,.03.01.06.02.08.01.02.03.04.05.06.03.02.07.02.1.02Z" fill="#d72027"/>
      <path id="q" data-name="Path 8708" d="m41.21,101.91s-.06.02-.09.04c-.03.01-.05.03-.07.05-.02.02-.04.04-.05.07-.01.03-.02.07-.02.1,0,.01,0,.03,0,.05,0,.02.01.03.02.05,0,.01.02.02.03.03.01,0,.03,0,.04,0,.03-.01.06-.03.09-.04.03-.02.06-.04.08-.06.03-.02.05-.05.07-.07.02-.03.03-.06.04-.09,0-.02,0-.03,0-.05-.01-.01-.02-.02-.04-.03-.02,0-.04-.01-.06-.02l-.05-.02Z" fill="#d72027"/>
      <path id="r" data-name="Path 8709" d="m42.03,101.38s-.06.03-.08.07c-.01.03-.02.06-.01.09,0,.03.01.07.02.1,0,.03.01.07.01.1.02-.02.04-.04.07-.05.03-.01.05-.02.08-.04.02-.01.04-.03.06-.05.01-.03.02-.06,0-.09,0-.02-.01-.03-.02-.05-.01-.02-.02-.03-.04-.04-.01-.01-.03-.02-.04-.03-.02,0-.03,0-.05,0Z" fill="#d72027"/>
      <path id="s" data-name="Path 8710" d="m23.09,81.27s.05.04.08.06c.03.02.05.04.08.05.03.02.06.03.09.04.03.01.07.02.1.03l.24.12c.08.04.16.08.24.11s.17.07.25.1c.08.03.17.06.25.08,0,.01.01.02.02.03,0,0,.02.02.02.03,0,0,.02.01.03.02.01,0,.02,0,.04.01.11.02.22.05.33.09l.33.1c.11.04.22.07.33.1.11.03.22.05.33.06.24.02.49.01.73-.04.24-.04.48-.11.72-.17.23-.07.46-.11.7-.14.23-.03.47-.01.7.05.34.11.66.3.92.55.31.28.6.6.85.93.27.35.52.72.75,1.07s.43.68.61.95c.23.36.47.71.7,1.07s.47.72.7,1.08.45.73.67,1.1.42.75.62,1.13c.17.33.41.63.69.87.3.26.62.5.96.7.34.21.71.41,1.05.59s.69.37.98.55l8.07,4.99c.15.09.3.19.45.3.15.1.29.22.42.35.13.12.23.26.32.41.09.15.15.32.18.49.01.07.01.15.01.22,0,.07-.02.14-.03.21-.01.07-.03.14-.05.2s-.04.14-.05.21c-.02.07-.04.14-.06.21-.03.07-.06.13-.09.19-.04.06-.08.12-.13.17-.05.05-.11.1-.17.14-.05.03-.1.06-.15.08-.05.02-.11.04-.16.06-.05.02-.11.03-.17.04s-.11.02-.17.03-.11.02-.17.03l-.16.04c-.05.01-.11.03-.16.04s-.11.02-.17.03c-.12.02-.25.03-.37.05s-.25.02-.37.03l-.37.03c-.12,0-.25.02-.37.03-.25.03-.49.07-.73.13-.24.06-.48.13-.71.21-.47.17-.91.39-1.33.65-.21.13-.4.29-.58.46-.18.17-.34.35-.5.54-.16.19-.31.38-.47.57s-.32.38-.49.55c-.16.16-.33.29-.53.4-.2.11-.41.2-.62.27-.22.07-.44.12-.66.16-.22.04-.45.07-.66.09-.47.05-.93.06-1.4.02-.47-.03-.94-.1-1.41-.21-.46-.11-.92-.24-1.36-.41-.44-.16-.87-.36-1.29-.58-.31-.16-.62-.34-.91-.53s-.59-.39-.87-.6c-.29-.21-.57-.43-.84-.66-.27-.23-.54-.46-.8-.7l-.4-.38c-.13-.13-.27-.26-.4-.39s-.26-.26-.39-.4-.26-.27-.39-.4c-.1-.11-.2-.23-.29-.35-.1-.13-.2-.27-.29-.4s-.2-.27-.29-.39c-.09-.11-.19-.21-.3-.3-.09-.08-.18-.14-.28-.19-.05-.03-.12-.02-.17.01-.07.06-.12.13-.17.2-.07.1-.16.22-.29.37-.1.12-.21.24-.31.35l-.32.34c-.11.11-.22.22-.34.33-.11.11-.23.21-.35.31-.24.21-.5.41-.76.6s-.53.36-.8.53c-.27.16-.55.31-.84.45-.29.14-.58.26-.88.37-.31.11-.62.21-.93.29s-.63.16-.94.22-.63.11-.96.15-.64.06-.97.08c-.47.02-.93.01-1.4-.03-.47-.04-.94-.11-1.4-.21-.46-.1-.92-.23-1.37-.4-.44-.17-.87-.37-1.28-.61-.1-.06-.21-.12-.31-.19-.1-.07-.2-.13-.3-.2s-.2-.14-.29-.22-.19-.16-.27-.24-.17-.16-.24-.25-.15-.17-.22-.26-.14-.17-.22-.27-.15-.18-.23-.26c-.05-.06-.11-.12-.16-.18s-.1-.12-.16-.18l-.16-.18c-.05-.06-.1-.12-.16-.18l-.08-.09-.08-.1s-.05-.07-.08-.1-.05-.07-.07-.1c-.06-.09-.1-.19-.14-.3-.03-.1-.05-.21-.06-.31-.01-.11-.02-.21-.01-.32,0-.11,0-.22.01-.33,0-.1.02-.19.05-.29.02-.09.05-.19.08-.28.03-.09.05-.18.07-.28.02-.09.02-.18.02-.28-.07-.71-.13-1.42-.18-2.14-.05-.72-.09-1.43-.12-2.14s-.04-1.43-.03-2.14.04-1.43.09-2.14c.07-.98.22-1.96.43-2.92.2-.93.51-1.84.9-2.71.38-.85.89-1.63,1.5-2.33.63-.72,1.38-1.33,2.22-1.79.26-.14.52-.27.79-.39.27-.11.55-.21.83-.3.56-.17,1.14-.28,1.72-.33.12,0,.25-.01.37-.01h.37c.12,0,.24.01.36,0,.12,0,.24-.01.36-.03.16-.02.31-.05.46-.09s.3-.07.45-.1.3-.07.46-.09c.15-.02.31-.04.47-.04.19,0,.38.01.57.04.19.03.38.07.56.14.18.06.36.14.52.24.17.1.32.22.46.36.14.15.27.31.38.48.1.18.19.36.26.55.07.2.13.4.18.6.05.2.08.41.11.61.01.08.02.17.02.27s.01.19.02.28c0,.09.02.18.05.27.02.08.06.16.11.24.04.06.1.12.16.16.07.05.14.1.21.14l.22.13c.06.03.12.07.18.11Z" fill="#d72027"/>
    </g>
    <path id="t" data-name="Path 8711" d="m43.17,102.34l.43-.1.43-.1c.14-.03.29-.07.43-.11s.29-.08.43-.12c.31-.1.61-.21.91-.35.31-.14.6-.3.89-.48.29-.18.56-.38.82-.6.25-.22.48-.45.69-.71l-.5.33c-.17.11-.34.22-.51.32s-.35.19-.53.28c-.18.08-.37.16-.56.22-.19.06-.39.1-.58.13-.2.03-.4.04-.6.02-.2-.01-.39-.04-.58-.1-.19-.06-.38-.14-.55-.24-.08-.05-.16-.1-.24-.16s-.16-.11-.23-.16c-.08-.05-.16-.09-.24-.13-.08-.04-.17-.06-.26-.07-.13-.01-.25,0-.37.06-.12.05-.23.12-.32.21-.1.09-.2.19-.28.3-.09.11-.17.23-.24.34s-.17.25-.25.37-.18.24-.26.36-.18.24-.27.36-.18.24-.26.36c-.09.12-.18.24-.28.35-.1.11-.2.23-.3.35-.09.12-.17.24-.24.38-.06.14-.1.29-.1.45.13-.13.25-.25.38-.35.12-.1.24-.19.37-.28.13-.09.26-.17.4-.24s.29-.16.46-.24.31-.14.47-.21.32-.12.48-.17.32-.1.49-.14.32-.08.49-.12Z" fill="#df4c52"/>
    <path id="u" data-name="Path 8712" d="m36.08,79.86l.15-.1.15-.1.15-.09c.05-.03.1-.06.15-.09.35-.2.71-.39,1.1-.58s.78-.36,1.19-.51c.4-.15.81-.27,1.23-.36.4-.09.82-.13,1.23-.12h.07s.04,0,.07.01c.02,0,.04.01.06.02.02.01.04.03.06.04.02.02.03.05.04.08,0,.03,0,.06,0,.08,0,.03-.01.06-.03.08-.01.03-.03.05-.05.07-.02.02-.04.04-.06.06-.02.02-.05.03-.07.04-.03.01-.05.02-.08.04l-.08.03c-.22.09-.43.21-.63.35-.2.14-.38.3-.56.47-.17.18-.33.36-.48.56-.15.2-.28.41-.4.63-.12.22-.23.44-.33.67s-.19.46-.28.69-.17.47-.24.71-.15.48-.22.72l-.16.53-.16.53-.16.53-.16.53c-.03.12-.08.23-.12.34-.04.1-.1.19-.17.27-.06.08-.14.14-.23.19-.1.05-.22.08-.33.09-.09,0-.18.01-.28.01-.09,0-.19,0-.28-.01-.09-.01-.18-.02-.27-.04s-.18-.04-.27-.06c-.18-.05-.35-.11-.52-.18-.17-.07-.34-.16-.5-.25-.16-.09-.32-.19-.47-.3-.15-.11-.3-.22-.45-.34-.27-.21-.52-.44-.76-.68-.24-.24-.48-.49-.7-.76s-.43-.54-.63-.82c-.2-.28-.38-.57-.55-.87-.03-.06-.07-.12-.11-.17-.05-.06-.09-.13-.13-.2-.04-.07-.07-.14-.08-.21-.02-.07-.01-.14.01-.2.07-.12.17-.21.3-.26.17-.07.34-.12.51-.15.19-.04.38-.06.55-.08s.32-.03.41-.05c.23-.04.47-.07.71-.09l.71-.07c.24-.02.48-.06.71-.1.24-.04.47-.1.7-.17.07-.02.13-.05.2-.07s.13-.06.19-.09.12-.07.19-.1.12-.07.18-.1Z" fill="#d72027"/>
    <path id="v" data-name="Path 8713" d="m17.59,76.46c-.32-.02-.65-.02-.97-.02s-.65,0-.97.03-.65.04-.96.08-.64.08-.95.13c-.41.07-.81.15-1.2.25s-.79.22-1.18.36c-.39.13-.77.29-1.14.46-.37.17-.74.36-1.1.56-.67.38-1.29.82-1.86,1.33-.56.5-1.07,1.06-1.52,1.67-.45.62-.83,1.29-1.14,1.99-.32.73-.57,1.49-.73,2.27-.25,1.16-.33,2.36-.23,3.54.1,1.15.33,2.29.7,3.39.37,1.11.84,2.18,1.39,3.21.56,1.03,1.17,2.04,1.84,3,.32.47.64.61.94.54.35-.13.64-.4.79-.73.23-.42.41-.87.51-1.34.11-.41.14-.84.1-1.27-.04-.26-.11-.52-.19-.77-.09-.25-.19-.49-.3-.73l-.34-.72c-.11-.24-.22-.48-.32-.73-.18-.45-.31-.91-.41-1.38-.1-.47-.17-.95-.21-1.43-.04-.48-.06-.97-.07-1.46s0-.98,0-1.46c0-.35,0-.76.03-1.19.02-.44.09-.87.19-1.3.09-.4.24-.79.47-1.13.21-.32.53-.56.89-.68.11-.03.21-.06.32-.08.11-.02.22-.03.33-.04l.33-.03c.11-.01.22-.02.33-.04.11-.02.22-.04.33-.07.11-.03.21-.07.31-.12.1-.05.19-.11.28-.18.09-.07.16-.16.23-.25.16-.23.23-.51.18-.79-.06-.26-.17-.5-.32-.71-.16-.23-.29-.46-.42-.71-.12-.24-.16-.51-.1-.78.03-.21.19-.38.39-.44.22-.05.45-.05.67,0,.25.06.49.13.73.22.23.08.43.16.56.2.06.02.13.03.2.05s.14.03.22.04c.07.01.14.02.22.02.07,0,.13,0,.2-.02.06-.01.12-.03.18-.05s.12-.04.18-.05c.06-.02.12-.02.18-.03.06,0,.12,0,.18.02.1.03.19.06.28.11.09.04.18.09.27.13s.18.09.27.14c.09.04.18.08.28.11l.35.12c.12.04.23.08.35.11s.24.06.36.09c.12.02.24.04.36.05.21.01.43.01.64,0,.21-.01.43-.04.64-.08.21-.04.42-.09.63-.16.21-.06.41-.14.61-.23.07-.03.14-.07.21-.11.07-.04.13-.09.19-.14.06-.05.11-.11.15-.17.08-.14.09-.3.04-.45-.02-.07-.06-.14-.11-.2-.05-.06-.1-.12-.16-.17-.06-.05-.13-.09-.2-.12-.07-.03-.14-.06-.21-.08-.07-.02-.14-.05-.21-.07s-.14-.04-.21-.07c-.07-.02-.14-.05-.2-.09-.07-.04-.14-.08-.2-.14-.05-.05-.09-.11-.13-.17-.03-.06-.06-.13-.07-.2-.02-.08-.03-.16-.04-.24,0-.07-.02-.14-.03-.21-.01-.05-.04-.1-.08-.14-.04-.04-.08-.07-.13-.09-.07-.02-.14-.04-.21-.05-.1-.01-.2-.02-.29-.03l-.3-.03-.3-.02-.3-.03Z" fill="#df4c52"/>
    <path id="w" data-name="Path 8714" d="m35.12,83.97h.1s.05,0,.05,0c.02,0,.03,0,.05,0,.05,0,.1,0,.14-.02.03-.01.05-.04.07-.07.01-.03.01-.07,0-.1,0-.04-.02-.09-.03-.13-.08-.24-.17-.48-.25-.72s-.18-.48-.26-.72-.19-.48-.28-.71-.2-.47-.31-.7c-.01-.03-.02-.05-.04-.08s-.02-.06-.04-.08c-.01-.03-.03-.05-.05-.07-.02-.02-.05-.04-.07-.06,0-.03,0-.07-.01-.1,0-.03-.02-.06-.03-.09-.02-.03-.03-.06-.05-.08-.02-.03-.04-.05-.06-.08h0l-.04-.08c-.15-.28-.29-.55-.45-.82s-.32-.53-.5-.78c-.17-.25-.36-.5-.56-.73-.2-.23-.42-.45-.64-.66-.06-.05-.12-.1-.19-.15-.06-.05-.13-.09-.2-.14-.06-.04-.14-.08-.2-.13l-.21-.13s0-.05,0-.08c0-.02.02-.04.03-.06.02-.02.03-.03.05-.04.03,0,.05-.02.08-.02.05,0,.1,0,.14,0,.04.01.08.03.12.05.04.02.07.05.11.08.03.03.07.06.1.09l.28.25.28.25.28.25.28.25s.04.03.06.04c.02.01.04.02.06.03.02,0,.04,0,.06,0,.02,0,.04-.02.06-.04.02-.02.03-.04.04-.06,0-.02.01-.04.01-.07,0-.02,0-.05-.01-.07,0-.02-.02-.04-.03-.06-.06-.08-.12-.17-.17-.26-.05-.09-.1-.18-.15-.27-.05-.09-.1-.18-.16-.27-.06-.09-.13-.17-.2-.24-.03-.03-.06-.06-.07-.09-.01-.02-.01-.05,0-.07.01-.02.03-.04.05-.05.04-.02.08-.02.12-.02.07.12.15.23.22.35l.22.35.22.35c.07.11.14.23.21.35.06.09.11.19.17.28l.16.29.16.29.16.29s.03.06.03.09c0,.03.01.07.01.1,0,.03,0,.06,0,.09,0,.03-.02.05-.03.08-.05.08-.08.16-.09.25,0,.08,0,.16.02.24.02.07.05.15.08.21.04.07.08.13.12.19.09.13.17.27.25.41.07.14.14.29.21.43s.13.29.19.44.12.3.19.44c.13.29.25.59.37.88s.25.59.37.89c.12.29.24.59.36.89.12.3.24.59.36.89l.03.06s.02.04.02.07c0,.02.01.04.02.07,0,.02,0,.04,0,.06,0,.04,0,.07.02.1.02.03.04.06.06.09.02.02.03.05.03.08,0,.03-.02.06-.05.07-.03.01-.05.01-.08,0-.03-.01-.06-.03-.09-.06-.03-.03-.05-.06-.08-.09-.02-.03-.04-.05-.05-.08-.08-.13-.16-.26-.25-.38s-.18-.24-.28-.36-.19-.23-.29-.35-.19-.23-.28-.35h0s0-.02,0-.03v-.05h0Z" fill="#df4c52"/>
    <path id="x" data-name="Path 8715" d="m32.44,76.05s-.08,0-.12.02c-.02,0-.04.03-.05.05,0,.02,0,.05,0,.07.02.04.04.07.07.09.07.07.14.15.2.24.06.09.11.18.16.27.05.09.1.18.15.28.05.09.11.18.17.26.01.02.02.04.03.06,0,.02.01.04.01.07,0,.02,0,.05-.01.07,0,.02-.02.04-.04.06-.02.02-.04.03-.06.04-.02,0-.04,0-.06,0-.02,0-.04-.02-.06-.03-.02-.01-.04-.03-.06-.04l-.28-.25-.27-.25-.28-.25-.28-.25-.1-.09s-.07-.06-.11-.08c-.04-.02-.08-.04-.12-.05-.05-.01-.1-.01-.14,0-.03,0-.05,0-.08.02-.02,0-.04.02-.05.04-.01.02-.02.03-.03.05,0,.03,0,.05,0,.08-.03,0-.06-.01-.09-.02-.03,0-.07,0-.1-.02-.03,0-.06-.02-.08-.04-.02-.02-.04-.04-.05-.07,0-.03,0-.06,0-.08.01-.03.02-.06.04-.08.02-.03.04-.05.06-.08l.07-.07c.1-.1.21-.19.33-.27.11-.08.23-.14.36-.19.13-.05.26-.09.39-.11.14-.02.28-.03.42-.02.04,0,.07,0,.11.02.03,0,.07.02.1.04.03.02.06.04.09.06.03.02.06.05.08.08,0,.05-.02.09-.05.14-.02.04-.05.07-.09.1-.03.03-.06.05-.1.08-.04.02-.07.04-.11.07Z" fill="#45aa8c"/>
    <path id="y" data-name="Path 8716" d="m19.88,75.92l.06-.07-.06.07Z" fill="#7b8b43"/>
    <path id="z" data-name="Path 8717" d="m18.78,79.86s.01-.03.02-.04c0-.01.02-.02.03-.03.01,0,.02,0,.04,0,.02,0,.03.02.05.04,0,.01-.02.03-.03.04,0,0-.02.02-.03.02-.01,0-.02,0-.04,0-.01,0-.03-.01-.04-.02Z" fill="#c06b73"/>
    <path id="aa" data-name="Path 8718" d="m37.28,105.18v.02s-.02,0-.02,0c0,0,0,0-.01,0,0,0-.01,0-.01-.02h.01s.04,0,.04,0h0Z" fill="#e8d4ac"/>
    <path id="ab" data-name="Path 8719" d="m18.45,78.2c-.01.08-.03.17-.06.25-.03.08-.06.15-.1.22-.04.07-.09.13-.15.19-.06.06-.12.11-.19.16-.03.02-.06.04-.09.05-.02,0-.04,0-.07,0-.02-.01-.03-.03-.04-.05-.01-.03-.02-.07-.02-.1,0-.05-.01-.09-.03-.14-.01-.02-.03-.04-.06-.05-.03,0-.06,0-.08.02-.03.02-.06.04-.09.06-.03.02-.06.05-.08.07s-.05.05-.08.07c-.03.02-.06.04-.09.06-.03.02-.07.03-.1.04.01-.08.03-.17.06-.25.03-.08.06-.15.1-.22.04-.07.09-.14.14-.19.06-.06.12-.12.19-.16.02-.02.04-.03.06-.05.02-.02.04-.04.05-.07.01-.02.03-.05.04-.08s.02-.06.03-.08c0-.03.02-.05.04-.07.01-.02.03-.04.05-.06.02-.01.04-.02.07-.02.03,0,.06,0,.08.01.03,0,.05.02.06.05,0,.02,0,.04,0,.06,0,.02-.01.04-.02.06,0,.02-.01.04,0,.06,0,0,0,.02,0,.03,0,0,0,.02,0,.03,0,0,0,.02,0,.03,0,.01,0,.02,0,.03,0,.02-.01.04-.02.06,0,.02-.01.04-.01.06,0,.02,0,.04,0,.05.01.02.03.04.04.05.02.01.04.02.06.02.02,0,.03,0,.05,0,.02,0,.03-.02.04-.03.02-.01.03-.03.04-.04l.03-.04s.02-.02.04-.03c.01,0,.03-.02.04-.02.01,0,.03,0,.04,0Z" fill="#c06b73"/>
    <path id="ac" data-name="Path 8720" d="m47.93,100.1h-.06v-.05s.06.05.06.05Z" fill="#c06b73"/>
    <path id="ad" data-name="Path 8721" d="m31.6,100.97h0s0,.03,0,.03h0s0,.02,0,.02h-.02s-.01-.01-.01-.01h-.01v-.02h0v-.03h0s0,0,0,0h.01s.01.01.01.01h.01Z" fill="#e8d4ac"/>
    <g id="ae" data-name="Group 1684">
      <path id="af" data-name="Path 8722" d="m51.14,90.18c-.02-.25-.04-.5-.06-.74s-.05-.49-.09-.74-.07-.49-.12-.73-.09-.49-.14-.73c-.08-.37-.18-.74-.3-1.1-.12-.36-.25-.71-.4-1.05s-.31-.68-.49-1c-.17-.33-.36-.65-.55-.97-.21-.34-.43-.68-.66-1-.23-.32-.47-.64-.73-.94-.26-.3-.53-.58-.81-.86-.29-.27-.59-.53-.9-.76-.37-.28-.76-.56-1.16-.8-.39-.25-.8-.45-1.23-.62-.42-.16-.85-.25-1.3-.28-.46-.02-.92.06-1.35.23-.34.13-.66.3-.95.52-.29.21-.55.45-.79.73-.24.28-.45.57-.63.89-.18.32-.34.66-.46,1.01-.07.18-.12.36-.17.55-.05.18-.09.37-.12.56s-.06.38-.08.57-.04.38-.05.57c0,.1-.01.19-.01.29s0,.19,0,.29,0,.19,0,.29v.42s0,.1,0,.14,0,.1,0,.14c0,.04,0,.09-.02.13v.05s-.02.03-.02.04c0,.01-.01.02-.02.04,0,.01-.02.02-.03.03-.07-.04-.12-.1-.17-.17-.05-.07-.09-.15-.12-.23-.03-.08-.06-.17-.09-.25s-.05-.16-.08-.23l-.14-.35c-.05-.11-.09-.23-.14-.35-.05-.12-.09-.23-.14-.35l-.14-.35c-.09-.23-.18-.46-.27-.68-.09-.23-.18-.45-.27-.68-.09-.23-.19-.45-.28-.68s-.2-.45-.3-.67c0-.02-.01-.03-.02-.05,0-.02-.01-.03-.01-.05,0-.02,0-.03,0-.05,0-.02,0-.04,0-.05-.03-.02-.07-.05-.09-.08-.02-.03-.04-.06-.06-.1-.02-.04-.03-.07-.05-.11s-.03-.08-.05-.11c-.16-.33-.31-.66-.48-.98s-.33-.65-.5-.96c-.17-.32-.35-.64-.53-.95s-.37-.62-.56-.93c-.02-.02-.03-.05-.04-.08-.01-.03-.03-.05-.04-.08-.02-.02-.04-.05-.06-.07-.02-.02-.05-.03-.08-.04,0,.05-.02.09-.05.14-.02.04-.05.07-.08.1-.03.03-.06.05-.1.08l-.11.07.22.35.22.35.22.35c.07.11.14.23.21.35.06.09.11.19.17.28l.17.29c.05.1.11.19.16.29s.11.19.16.29c.01.03.03.06.03.09,0,.03.01.07.01.1,0,.03,0,.06,0,.09,0,.03-.02.05-.03.08-.05.08-.08.16-.09.25,0,.08,0,.16.02.24.02.08.05.15.09.22.04.07.08.13.12.19.09.13.17.27.25.41.08.14.15.29.21.43s.13.29.19.44.12.3.19.44l.23.55c.08.18.16.37.23.55s.15.37.23.55l.23.55.12.28.12.28.12.28.12.29s.04.09.07.16.06.15.09.23c.03.07.04.15.05.23,0,.06,0,.11-.04.12s-.06,0-.1-.03c-.04-.03-.09-.07-.13-.11-.04-.04-.08-.09-.12-.13-.03-.03-.05-.06-.07-.1-.03-.05-.06-.1-.09-.14s-.06-.1-.08-.15-.06-.1-.08-.15c-.03-.05-.06-.1-.09-.14-.07-.1-.15-.2-.23-.3-.08-.1-.16-.19-.23-.29s-.16-.19-.24-.28l-.25-.27c-.16-.17-.33-.34-.51-.5s-.36-.32-.54-.46c-.19-.15-.38-.28-.58-.41-.2-.12-.4-.24-.61-.33-.62-.29-1.3-.42-1.98-.39-.65.04-1.29.21-1.87.51-.6.31-1.15.71-1.62,1.2-.49.51-.91,1.08-1.24,1.7-.19.35-.35.71-.49,1.08-.14.37-.25.74-.34,1.12-.09.38-.16.77-.21,1.16-.05.4-.08.8-.09,1.2-.01.47,0,.93.02,1.39.03.46.08.92.16,1.37.07.45.18.9.3,1.34.13.45.29.89.47,1.31.25.58.53,1.16.84,1.74s.65,1.15,1.02,1.7c.36.55.75,1.07,1.17,1.58.4.49.84.96,1.3,1.4.18.17.36.34.55.5s.37.32.57.47.39.3.58.44.4.28.62.41c.32.19.65.38.98.54.33.16.67.31,1.01.44.34.13.69.24,1.05.32.36.09.72.15,1.09.19.21.02.43.04.65.03.21,0,.42-.02.62-.06.21-.04.41-.1.6-.18.2-.08.39-.19.57-.31.47-.33.89-.73,1.24-1.19.32-.43.58-.9.77-1.4.2-.51.35-1.04.47-1.58.12-.55.22-1.13.33-1.73.01-.07.03-.14.05-.21.01-.04.04-.07.07-.09.04,0,.08,0,.11.03.06.04.11.09.16.14.3.32.62.63.95.92.34.3.71.57,1.1.82.38.24.79.43,1.21.57.41.13.84.19,1.27.17.76-.05,1.49-.37,2.04-.9.57-.56,1.02-1.23,1.33-1.97.34-.79.59-1.6.77-2.44.16-.76.28-1.54.35-2.32.02-.22.04-.45.06-.67s.03-.45.04-.67.01-.45.01-.68,0-.46-.02-.68Zm-12.27,1.52c0,.05-.02.11-.03.16-.01.05-.03.11-.05.16-.02.05-.04.1-.07.14-.03.05-.06.09-.09.14-.06.08-.14.15-.23.2-.08.04-.17.05-.25.05-.09-.01-.17-.05-.25-.1-.09-.06-.16-.14-.21-.23-.11-.18-.18-.38-.23-.59-.04-.21-.06-.42-.04-.64.01-.21.05-.43.12-.63.06-.2.15-.39.27-.56l.08-.12s.05-.08.07-.12.04-.08.06-.12c.02-.04.03-.09.04-.14,0-.02,0-.03,0-.05,0-.02,0-.04.01-.05,0-.02.02-.03.03-.04.01-.01.03-.02.05-.02.02,0,.04,0,.06.01.02.01.03.02.04.04.01.02.02.03.03.05l.02.05c.07.15.14.3.2.45.06.16.12.32.16.49s.09.34.12.5.06.33.07.49c0,.04,0,.08.01.12s0,.08,0,.12c0,.04,0,.08,0,.12,0,.04,0,.08,0,.12h0Zm2.44-.65s-.06.07-.09.1c-.04.03-.08.06-.12.08-.05.02-.1.04-.15.05-.06.01-.12.02-.18.02-.19,0-.38-.05-.53-.16-.17-.12-.31-.27-.42-.44-.12-.18-.22-.37-.29-.57-.07-.18-.12-.37-.16-.56-.01-.06-.02-.12-.03-.18s-.03-.12-.04-.18-.03-.12-.04-.18-.03-.12-.04-.18v-.05s-.02-.03-.02-.05c0-.01,0-.03,0-.04,0-.01.01-.03.02-.04.01-.01.03-.02.04-.02.01,0,.03,0,.04,0,.01,0,.03.01.04.02l.03.03c.09.07.19.13.3.17.1.04.21.08.32.11.11.03.22.06.32.1.11.04.21.09.3.16.09.07.18.15.26.23.16.17.29.37.39.59.05.11.08.22.11.34.01.06.02.12.03.18,0,.05,0,.11,0,.17,0,.05-.02.1-.04.15-.01.04-.04.09-.06.12h0Zm7.27,7.98l.03-.03.03-.03.04-.03.04-.02-.04.02-.04.03-.03.03-.03.03Zm.22-.16h0s0,0,0,0Z" fill="#fffef7"/>
    </g>
    <path id="ag" data-name="Path 8724" d="m23.18,81.51c.17.09.34.17.51.24s.35.14.53.2.36.12.53.17.36.1.53.14c.24.05.48.1.72.13.24.03.49.06.73.07s.49.02.73,0,.49-.02.73-.05c.12-.02.25-.03.37-.05s.25-.04.37-.07.24-.05.36-.08.24-.06.36-.1c.11-.03.22-.05.33-.06.11-.01.23-.01.34-.01.12,0,.23,0,.35,0s.23,0,.34,0c.06,0,.12,0,.18-.02.03,0,.07-.02.08-.05.01-.03.01-.07,0-.11-.02-.06-.04-.12-.07-.17-.04-.09-.09-.18-.14-.26s-.1-.17-.15-.26-.1-.17-.15-.26-.09-.18-.14-.26c-.09-.19-.18-.37-.27-.56s-.18-.38-.27-.56-.19-.37-.29-.55-.21-.35-.32-.53c-.16-.23-.32-.45-.5-.67s-.36-.41-.56-.61c-.19-.19-.4-.37-.61-.54-.22-.17-.44-.32-.67-.46l-.53-.3c-.18-.1-.36-.19-.54-.27s-.37-.16-.56-.23-.38-.13-.57-.18c-.35-.09-.7-.14-1.06-.14-.34,0-.67.03-1,.11-.33.08-.65.21-.95.37-.32.17-.62.38-.89.62-.04.04-.08.08-.11.12l-.1.14s-.07.08-.11.11c-.04.03-.09.04-.13.04-.05,0-.1-.02-.14-.04-.05-.02-.1-.05-.14-.08-.05-.03-.09-.07-.14-.1-.05-.03-.1-.06-.15-.08-.06-.02-.11-.06-.14-.12-.02-.05-.02-.11-.02-.16,0-.05,0-.1,0-.16,0-.05-.04-.09-.09-.11-.02,0-.04-.01-.06-.02-.02,0-.04,0-.06,0-.02,0-.04.01-.06.02-.02.01-.04.02-.05.04-.02.01-.03.03-.04.05-.01.02-.03.03-.04.05-.01.02-.02.04-.03.06s-.02.04-.03.06l-.12.22s-.03.05-.04.07-.02.05-.03.07c-.01.02-.02.05-.02.08,0,.03,0,.05,0,.08,0,.03,0,.06.01.09,0,.02.02.04.04.05.02.01.04.02.07.02.03,0,.06,0,.09-.02.03-.01.07-.03.09-.05.02-.02.04-.04.07-.05.02-.02.05-.03.07-.03.04,0,.08,0,.11.03.07.03.14.05.22.06.07.02.15.03.21.05.07.02.13.05.19.09.06.05.11.12.13.2.04.12.07.24.09.36.02.12.03.25.04.38s.01.25.02.38c0,.12.03.25.05.37.03.14.07.27.12.4.05.13.11.26.17.39.06.12.13.25.21.37s.15.23.22.35c.11.17.23.33.37.48.13.15.27.28.42.41.15.13.31.25.47.35.16.11.33.22.5.31Z" fill="#45aa8c"/>
    <path id="ah" data-name="Path 8725" d="m16.86,79.44c-.13-.04-.31-.09-.5-.16-.2-.07-.39-.16-.57-.27-.17-.1-.32-.24-.43-.4-.1-.16-.13-.36-.08-.55.02-.1.06-.2.12-.29.05-.07.11-.12.19-.15.08-.03.16-.06.24-.07.09-.01.18-.02.28-.03.12,0,.25-.01.4-.02s.3-.01.46-.03c.15-.01.3-.04.44-.08.13-.03.25-.09.36-.16.1-.08.2-.18.27-.29.08-.12.16-.25.23-.39.07-.14.14-.28.2-.41s.12-.26.19-.36c.08-.14.16-.28.24-.42s.17-.28.25-.42.17-.27.26-.41.17-.27.26-.41c.04-.06.08-.14.13-.21s.09-.15.14-.22c.05-.07.1-.13.16-.19.06-.05.13-.09.2-.11.04-.01.09-.02.13-.02h.13s.09,0,.13.01l.13.02.76.12h.07s.05.02.07.03c.02,0,.04.02.06.03.02.01.04.03.05.05.02.02.03.04.03.07,0,.03,0,.05,0,.08,0,.03,0,.05-.01.08,0,.03-.02.05-.03.07-.01.02-.03.04-.05.06-.02.02-.04.04-.06.05-.02.02-.04.03-.06.05l-.06.05c-.19.14-.37.28-.55.43s-.35.31-.51.48-.32.34-.47.53-.29.37-.43.57c-.06.08-.11.17-.16.26-.05.09-.1.19-.13.28-.04.1-.07.2-.09.3-.02.1-.03.21-.03.31,0,.04,0,.08.01.13,0,.04.01.08.03.11.01.03.03.07.05.1.02.03.05.06.07.09.03.03.06.06.09.08.03.02.06.05.09.08.03.03.05.06.07.09.02.04.04.08.04.13.02.1.02.19,0,.29-.01.1-.03.19-.07.28-.03.09-.08.18-.13.26-.05.08-.11.16-.17.23-.12.13-.27.23-.44.28-.19.07-.4.11-.6.12-.23.01-.46,0-.69-.02-.24-.03-.49-.08-.72-.14Z" fill="#fffef7"/>
    <path id="ai" data-name="Path 8726" d="m21.81,73.58s.02.03.02.04c0,.01.01.03.02.05,0,.02,0,.03.01.05,0,.02,0,.04,0,.06,0,0-.03.01-.07.03l-.15.07-.16.07-.09.05c-.05.03-.1.05-.15.08s-.09.06-.14.09-.09.07-.13.1c-.04.03-.09.07-.13.11l-.1.1s-.07.06-.11.09c-.04.03-.08.05-.12.07-.04.02-.08.03-.13.04-.04,0-.09,0-.12-.02-.02-.02-.03-.05-.03-.08,0-.04.01-.07.02-.11.01-.04.02-.08.02-.12,0-.03,0-.05,0-.08,0-.03,0-.05,0-.08s0-.05.01-.07c.01-.02.03-.04.05-.06.03-.02.07-.05.11-.08s.08-.06.12-.1c.04-.03.07-.07.11-.11.03-.03.05-.07.07-.11,0-.02.02-.04.02-.05,0-.01.01-.02.01-.04,0-.01,0-.02,0-.03,0-.01-.02-.03-.03-.04-.01,0-.03-.01-.05-.01-.02,0-.04,0-.06,0-.02,0-.04,0-.06,0-.02,0-.04,0-.05,0-.01,0-.03-.01-.04-.02-.02-.01-.04-.02-.06-.04-.02-.01-.04-.03-.05-.04-.01-.01-.01-.02,0-.02.06-.02.13-.03.19-.04.07,0,.13-.02.2-.02.07,0,.13,0,.2,0,.06,0,.13,0,.19.02.06,0,.11.01.17.02.06,0,.12.02.18.04.06.02.12.04.17.07.05.03.1.07.13.11Z" fill="#45aa8c"/>
    <path id="aj" data-name="Path 9603" d="m50.8,51.41c-.26,1.54-.64,3.06-1.14,4.54-.5,1.48-1.12,2.91-1.87,4.28-.73,1.35-1.6,2.63-2.58,3.82-.98,1.18-2.08,2.24-3.29,3.16-1.03.78-2.14,1.46-3.3,2.03-1.15.56-2.35,1.02-3.59,1.38-1.23.35-2.49.61-3.76.76-1.26.15-2.54.21-3.81.17-1.26-.04-2.51-.15-3.76-.35-1.24-.2-2.47-.46-3.68-.79-1.21-.33-2.4-.72-3.57-1.16s-2.32-.93-3.45-1.46c-.4-.19-.8-.38-1.21-.57s-.81-.37-1.23-.53c-.41-.16-.83-.3-1.25-.41-.42-.11-.85-.18-1.29-.22-.44-.03-.89,0-1.32.07-.44.08-.86.22-1.26.41-.39.19-.75.44-1.06.74-.31.31-.56.68-.73,1.08-.22-1.25-.31-2.52-.27-3.79.09-2.55.7-5.05,1.78-7.35.54-1.14,1.2-2.23,1.97-3.23.77-1,1.64-1.9,2.61-2.71.96-.8,2-1.5,3.11-2.08,1.1-.58,2.27-1.04,3.47-1.37,1.2-.33,2.44-.52,3.68-.57.9-.03,1.8,0,2.69.08.9.08,1.79.19,2.69.31s1.8.24,2.7.33c.91.1,1.81.15,2.73.15,1.95-.02,3.89-.28,5.77-.8,1.92-.52,3.76-1.29,5.47-2.29,1.75-1.01,3.34-2.25,4.75-3.7,1.44-1.49,2.65-3.18,3.58-5.03.12.51.22,1.01.29,1.51s.14,1.01.19,1.51.1,1.01.15,1.52.11,1.02.18,1.54c.05.75.08,1.5.1,2.26.02.75,0,1.51-.02,2.26-.03.75-.08,1.51-.16,2.26-.08.75-.18,1.5-.3,2.24Z" fill="#45aa8c"/>
    <path id="ak" data-name="Path 9604" d="m28.12,72.29h-.67c-.61-.02-1.23-.05-1.86-.11-.63-.06-1.25-.14-1.89-.23-.63-.1-1.27-.21-1.91-.35s-1.28-.3-1.93-.47c-.58-.16-1.16-.33-1.75-.52-.59-.19-1.18-.4-1.77-.62-.59-.22-1.19-.46-1.8-.71-.61-.25-1.21-.52-1.81-.81l-.12-.06-.12-.06-.12-.06-.12-.06c-.34-.16-.69-.33-1.04-.49s-.7-.31-1.06-.44c-.35-.13-.71-.25-1.07-.34-.36-.09-.72-.15-1.08-.18h-.09s-.27,0-.27,0c-.33,0-.67.04-.99.11-.34.07-.66.19-.97.35-.31.15-.59.35-.83.59-.25.24-.44.53-.58.85-.03.06-.06.12-.1.17-.04.05-.09.1-.14.13-.05.04-.11.07-.17.08-.06.02-.12.03-.19.03h-.08c-.07,0-.14-.03-.2-.06-.06-.03-.12-.07-.17-.12-.05-.05-.09-.11-.13-.18-.03-.07-.06-.14-.07-.21-.11-.64-.2-1.29-.24-1.94-.05-.66-.06-1.32-.04-1.98.02-.66.08-1.33.17-1.99.09-.66.21-1.32.37-1.97.16-.65.35-1.29.57-1.92.22-.62.47-1.24.76-1.84.28-.59.59-1.17.93-1.73.34-.55.7-1.09,1.1-1.6.39-.51.82-1,1.26-1.47.45-.47.93-.91,1.42-1.33.5-.42,1.02-.81,1.57-1.18.54-.36,1.11-.7,1.69-1,.58-.3,1.17-.58,1.78-.82.6-.24,1.22-.44,1.85-.61.62-.17,1.25-.3,1.89-.4.63-.1,1.26-.16,1.9-.19h.4c.45,0,.9,0,1.36.02s.9.05,1.35.1.9.09,1.34.15.89.11,1.33.17c.41.05.83.11,1.25.16s.84.1,1.27.14.85.08,1.27.1.85.04,1.27.03h.21c1.95-.03,3.89-.33,5.76-.88,1.85-.54,3.62-1.32,5.26-2.31,1.63-.99,3.12-2.19,4.43-3.58,1.31-1.39,2.41-2.95,3.27-4.65.03-.06.07-.12.11-.17.04-.05.09-.09.15-.13.05-.03.11-.06.18-.08.06-.02.13-.03.19-.03h.09c.07,0,.14.03.21.05.06.03.12.07.18.11.05.05.1.1.14.17.04.06.07.13.08.21.08.34.16.69.22,1.03s.11.68.16,1.02.08.68.12,1.01.07.67.1,1c.02.17.03.35.05.52s.03.35.05.52.04.35.06.53.04.35.07.53v.05c.06.81.09,1.62.1,2.41.01.79,0,1.58-.03,2.35-.03.77-.09,1.53-.17,2.27s-.18,1.47-.3,2.18c-.14.8-.31,1.6-.51,2.39s-.43,1.57-.69,2.33-.55,1.51-.87,2.23-.66,1.43-1.03,2.1c-.39.73-.82,1.43-1.29,2.11-.45.66-.93,1.3-1.45,1.91-.5.6-1.04,1.16-1.6,1.7-.55.53-1.14,1.03-1.75,1.49-.5.38-1.01.73-1.54,1.06-.53.33-1.08.64-1.65.92-.57.29-1.15.55-1.75.79-.6.24-1.21.45-1.84.64-.59.18-1.19.34-1.8.47-.61.13-1.22.24-1.84.33-.62.09-1.25.15-1.88.2s-1.26.02-1.9.02Zm-20.49-6.97h.34s.11.01.11.01c.42.03.83.1,1.24.2.4.1.8.22,1.19.36.39.14.77.3,1.15.47.38.17.75.34,1.13.52l.12.06.12.06.12.06.12.06c1.24.58,2.48,1.09,3.69,1.54s2.42.82,3.61,1.14c1.16.3,2.33.54,3.51.72,1.13.17,2.26.27,3.4.3h.64c1.24,0,2.48-.09,3.7-.27,1.19-.18,2.37-.45,3.52-.81,1.12-.35,2.21-.79,3.26-1.32,1.02-.52,1.99-1.12,2.9-1.82,1.11-.85,2.12-1.82,3.02-2.89.95-1.12,1.78-2.33,2.5-3.61.75-1.34,1.38-2.74,1.88-4.19.53-1.51.92-3.06,1.19-4.64.12-.68.21-1.38.28-2.08.07-.71.13-1.43.16-2.17.03-.73.04-1.48.03-2.24s-.04-1.53-.1-2.31c-.03-.18-.05-.36-.07-.54s-.04-.36-.06-.54-.04-.36-.05-.53-.03-.35-.05-.52l-.05-.5c-.02-.16-.03-.33-.05-.5s-.04-.33-.05-.49-.04-.33-.06-.49c-.46.74-.97,1.45-1.52,2.12-.55.68-1.15,1.32-1.78,1.93-.64.61-1.31,1.19-2.01,1.72-.71.54-1.46,1.04-2.23,1.49-.44.26-.88.5-1.33.73s-.91.44-1.38.64c-.47.2-.94.38-1.42.55s-.96.32-1.45.46c-.48.13-.97.25-1.46.36-.49.11-.98.2-1.47.27-.49.07-.98.13-1.48.17-.49.04-.98.06-1.47.07h-.23c-.44,0-.89-.01-1.33-.04-.44-.02-.88-.06-1.32-.1s-.87-.09-1.3-.15-.86-.11-1.28-.17-.86-.11-1.29-.17-.87-.1-1.3-.14-.87-.08-1.3-.1-.86-.03-1.29-.02h-.36c-1.2.05-2.39.23-3.54.55-1.16.32-2.27.75-3.33,1.31-1.06.56-2.07,1.23-2.99,2-.93.77-1.77,1.65-2.51,2.61-.66.85-1.23,1.77-1.71,2.73-.48.96-.88,1.97-1.18,3.01-.3,1.04-.51,2.1-.62,3.18-.11,1.08-.12,2.16-.04,3.24.07-.06.13-.12.2-.17s.14-.11.21-.16.15-.1.23-.15.16-.09.24-.14c.2-.11.4-.2.61-.28.21-.08.43-.15.65-.21.23-.06.45-.1.68-.13.23-.02.47-.03.7-.02h0Z" fill="#36866e"/>
    <g id="al" data-name="Path 8728">
      <path id="am" data-name="Path 9605" d="m33.32,36.24c.12.09.24.19.36.3.11.11.22.22.32.34.1.12.2.24.28.38.09.13.16.27.23.41,0-.05,0-.11,0-.16.02-.06.04-.13.07-.19.03-.06.06-.12.09-.18.03-.06.06-.11.08-.15.09-.17.2-.34.31-.49.12-.16.25-.3.39-.44.14-.14.29-.26.45-.38.15-.11.32-.21.48-.3.18-.09.36-.17.54-.23.18-.07.37-.12.56-.17.19-.05.38-.08.57-.12s.39-.05.58-.07.38-.03.57-.05.38-.02.57-.02.38,0,.57,0,.38,0,.57,0c.4,0,.8,0,1.21-.02l1.21-.03c.41-.01.81-.03,1.22-.04.41-.01.81-.03,1.22-.04.2,0,.39.03.57.11.18.07.34.18.47.32.14.14.24.3.32.48.08.19.12.39.12.6v21.2c0,.21-.04.41-.12.6-.07.18-.18.35-.32.49-.13.14-.29.25-.47.33-.18.08-.37.12-.57.13l-37,.28c-.19,0-.37-.04-.54-.12-.17-.08-.32-.18-.44-.32-.13-.14-.23-.3-.3-.47-.07-.19-.11-.38-.11-.58v-20.55c0-.2.04-.4.11-.58.07-.18.17-.34.3-.48.12-.14.27-.25.44-.33.17-.08.35-.13.54-.13l9.21-.24,2.17-.06,2.18-.06,2.18-.06,2.19-.06c.5-.01,1.02-.03,1.54-.04s1.04,0,1.56.04c.51.04,1.02.12,1.52.24.5.13.99.32,1.44.57l.14.08.14.08s.09.06.13.09.08.06.13.09Z" fill="#1b3a18"/>
      <path id="an" data-name="Path 9606" d="m45.8,59.74l-37,.26c-.29,0-.58-.06-.85-.18-.26-.12-.5-.29-.7-.5-.2-.22-.36-.47-.47-.75-.11-.29-.17-.6-.17-.92v-20.55c0-.32.06-.63.17-.92.11-.28.27-.54.47-.76.2-.22.44-.4.7-.52.27-.13.56-.2.85-.21l9.21-.25,2.89-.08,2.91-.08.73-.02.73-.02.73-.02.73-.02h.98c.46-.01.92-.02,1.39,0,.47,0,.94.04,1.4.1.47.06.93.15,1.38.29.46.14.9.32,1.32.56l.17.1c.05.03.11.07.16.1l.15.1c.05.04.1.07.15.11l.15.12c.05.04.1.08.15.12s.09.08.14.13.09.09.14.13c.11-.15.23-.29.35-.43.13-.14.26-.27.4-.39.14-.12.29-.23.44-.34.15-.1.31-.2.47-.28h0c.22-.11.45-.21.69-.29.22-.08.45-.14.68-.19.22-.05.43-.09.63-.12s.38-.05.55-.07l.27-.02.29-.02c.1,0,.2-.01.3-.02h.32c.09-.01.19-.01.28-.02h1.66s.41-.01.41-.01h.44s.4-.02.4-.02h.41s.41-.03.41-.03h.4s.4-.03.4-.03h.41s.41-.03.41-.03h.41c.31-.02.62.04.9.16.28.12.53.29.74.5.21.22.38.48.5.76.12.3.18.62.18.94v21.21c0,.33-.06.65-.18.95-.12.29-.29.55-.5.78-.21.22-.46.4-.74.53-.28.12-.59.17-.89.16ZM8.8,36.42c-.08,0-.16.02-.23.06-.07.03-.13.08-.19.14-.05.06-.1.13-.13.2-.03.08-.05.16-.05.24v20.56c0,.08.01.17.05.25.03.07.07.14.13.2.05.06.12.1.19.13.07.03.15.05.23.05l37-.31c.08,0,.17-.02.24-.05.08-.03.14-.08.2-.14.06-.06.1-.13.13-.21.03-.08.05-.17.05-.25v-21.18c0-.09-.02-.17-.05-.25-.03-.07-.08-.14-.13-.2-.06-.06-.12-.1-.2-.14-.08-.03-.16-.05-.24-.05h-.41s-.41.02-.41.02h-.41s-.4.03-.4.03h-.4s-.41.03-.41.03h-.41s-.41.02-.41.02h-.45s-.42.02-.42.02h-.4s-1.52,0-1.52,0h-.29c-.09.01-.18.02-.27.02l-.26.02-.24.02c-.21.02-.41.05-.59.08s-.36.07-.52.11c-.15.04-.31.08-.46.14-.14.05-.27.11-.4.17-.13.07-.26.15-.38.24-.12.09-.24.19-.34.29-.11.1-.21.22-.3.34-.09.12-.17.24-.24.37v.02s-.02.02-.02.02v.03s-.03.03-.03.03l-.02.04-.02.04-.02.05-.02.04c0,.09-.02.17-.04.26-.03.08-.06.16-.11.23-.05.07-.1.14-.17.19-.07.06-.14.1-.22.14-.02.01-.05.02-.07.03-.02,0-.05.01-.07.02-.02,0-.05.01-.07.01h-.07c-.08,0-.15,0-.22-.03-.07-.02-.14-.05-.21-.09-.07-.04-.12-.09-.18-.15-.05-.06-.1-.13-.14-.2-.05-.11-.11-.21-.18-.31-.07-.1-.14-.2-.22-.29-.08-.09-.17-.18-.26-.27-.09-.09-.19-.17-.29-.25l-.1-.08s-.07-.05-.11-.07l-.11-.07-.12-.07c-.34-.19-.7-.34-1.07-.45-.38-.11-.76-.19-1.15-.23-.39-.05-.8-.07-1.21-.08s-.83,0-1.25,0h-.98l-.73.02-.73.02-.73.02-.73.02-2.91.07-2.89.07-9.21.28Z" fill="#45aa8c"/>
    </g>
    <path id="ao" data-name="Jugo de Manzanas" d="m14.59,40.32s0-.08-.02-.12c-.01-.03-.03-.06-.06-.09-.03-.02-.06-.04-.09-.05-.04-.01-.08-.02-.12-.02h-.46s-.08,0-.12.02c-.03.01-.06.03-.09.05-.02.02-.04.05-.06.09-.01.04-.02.08-.02.12v4.32c0,.06,0,.13-.03.19-.02.05-.04.1-.08.14-.04.04-.09.07-.14.09-.07.02-.14.03-.21.03-.07,0-.14,0-.21-.03-.05-.02-.1-.05-.14-.09-.04-.04-.06-.09-.08-.14-.02-.06-.02-.12-.02-.19v-.66s0-.08-.02-.12c-.01-.03-.03-.06-.06-.09-.02-.02-.05-.04-.09-.05-.04-.01-.08-.02-.12-.02h-.46s-.08,0-.12.02c-.03.01-.06.03-.09.05-.02.02-.04.05-.06.09-.01.04-.02.07-.02.11v.66c0,.19.03.37.09.55.05.15.15.28.27.39.13.11.29.19.46.23.21.05.43.08.65.08.22,0,.44-.02.66-.08.17-.04.32-.12.46-.23.12-.1.21-.24.27-.39.06-.17.09-.36.09-.55v-4.32Zm.64,4.72c0,.13.02.26.06.38.03.1.09.19.16.26.06.07.14.12.23.15.09.03.18.05.28.05.07,0,.14,0,.21-.02.07-.02.15-.04.22-.07.15-.06.28-.15.39-.26v.04s0,.08.02.11c.01.03.03.06.05.09.02.02.05.04.09.05.04.01.08.02.12.02h.36s.08,0,.12-.02c.03-.01.06-.03.09-.05.02-.02.04-.05.05-.09.01-.04.02-.07.02-.11v-3.99s0-.08-.02-.12c-.02-.06-.07-.11-.14-.13-.04-.01-.08-.02-.12-.02h-.36s-.08,0-.12.02c-.07.02-.12.07-.14.14-.01.04-.02.08-.02.12v3.16c0,.06,0,.11-.02.16-.01.04-.03.08-.06.12-.03.03-.06.05-.1.06-.05.01-.09.02-.14.02-.05,0-.09,0-.14-.02-.04-.01-.07-.03-.1-.07-.03-.03-.04-.07-.05-.11-.01-.05-.02-.11-.02-.16v-3.18s0-.08-.02-.12c-.01-.03-.03-.06-.05-.09-.03-.02-.06-.04-.09-.05-.04-.01-.08-.02-.12-.02h-.35s-.08,0-.12.02c-.03.01-.06.03-.09.05-.02.02-.04.05-.06.09-.01.04-.02.08-.02.12v3.46Zm5.53-3.46s0-.08-.02-.12c-.02-.06-.07-.11-.14-.13-.04-.01-.08-.02-.12-.02h-.36s-.08,0-.12.02c-.07.02-.12.07-.14.14-.01.04-.02.08-.02.12v.04c-.11-.11-.25-.2-.39-.26-.07-.03-.14-.05-.22-.07-.07-.02-.14-.02-.21-.02-.09,0-.19.02-.28.05-.09.03-.16.08-.23.15-.07.07-.12.16-.16.26-.04.12-.06.25-.06.38v2.93c0,.13.02.26.06.38.03.1.09.19.16.26.06.07.14.12.23.15.09.03.18.05.28.05.07,0,.14,0,.21-.02.07-.02.15-.04.22-.07.15-.06.28-.15.39-.26v.83c0,.05,0,.11-.02.16-.01.04-.03.08-.06.12-.03.03-.07.06-.11.07-.05.02-.1.03-.16.02h-.5s-.08,0-.12.02c-.03.01-.06.03-.09.06-.02.03-.04.06-.05.09-.01.04-.02.08-.02.12v.15s0,.08.02.12c.02.07.07.12.14.14.04.01.08.02.12.02h.5c.19,0,.37-.02.56-.06.14-.04.28-.11.39-.2.1-.09.18-.2.23-.33.05-.15.08-.31.07-.47v-4.8Zm-1.53.8c0-.05,0-.11.02-.16,0-.04.03-.08.05-.11.02-.03.06-.05.09-.06.04-.01.09-.02.14-.02.05,0,.1,0,.14.02.04.01.07.04.1.07.03.03.05.07.06.11.01.05.02.11.02.17v2.35c0,.06,0,.11-.02.16-.01.04-.03.08-.06.11-.03.03-.06.05-.1.06-.05.01-.09.02-.14.02-.05,0-.09,0-.14-.02-.04-.01-.07-.03-.09-.06-.03-.03-.04-.07-.05-.11-.01-.05-.02-.11-.02-.16v-2.38Zm3.4-.41s.1,0,.14.02c.04.01.07.03.1.06.03.03.05.07.06.11.01.05.02.11.02.16v2.5c0,.05,0,.11-.02.16-.01.04-.03.08-.06.11-.03.03-.06.05-.1.06-.05.01-.09.02-.14.02-.05,0-.09,0-.14-.02-.04-.01-.07-.03-.1-.06-.03-.03-.05-.07-.06-.11-.01-.05-.02-.11-.02-.16v-2.49c0-.05,0-.11.02-.16.01-.04.03-.08.06-.11.03-.03.06-.05.1-.06.04-.01.09-.02.14-.02h0Zm0-.7c-.18,0-.36.02-.54.06-.14.04-.27.1-.38.19-.1.09-.18.2-.23.32-.05.15-.08.3-.07.45v2.54c0,.15.02.31.07.45.05.12.12.24.23.32.11.09.24.16.38.19.36.08.73.08,1.08,0,.14-.04.27-.1.38-.19.1-.09.18-.2.23-.32.05-.15.08-.3.07-.45v-2.54c0-.15-.02-.31-.07-.45-.05-.12-.12-.24-.23-.32-.11-.09-.24-.16-.38-.19-.18-.05-.36-.07-.54-.06h0Zm4.51,1.11c0-.05,0-.11.02-.16,0-.04.03-.08.05-.11.03-.03.06-.05.09-.06.04-.01.09-.02.14-.02.05,0,.1,0,.14.02.04.01.07.04.1.07.03.03.05.07.06.11.01.05.02.11.02.17v2.35c0,.06,0,.11-.02.16,0,.04-.03.08-.06.11-.03.03-.06.05-.1.06-.05.01-.09.02-.14.02-.05,0-.09,0-.14-.02-.04-.01-.07-.03-.09-.06-.03-.03-.04-.07-.05-.11-.01-.05-.02-.11-.02-.16v-2.38Zm1.53-2.67s0-.08-.02-.12c-.02-.07-.07-.12-.14-.14-.04-.01-.08-.02-.12-.02h-.36s-.08,0-.12.02c-.06.02-.12.07-.14.14-.01.04-.02.08-.02.12v1.91c-.11-.11-.25-.2-.39-.26-.07-.03-.14-.05-.22-.07-.07-.02-.14-.02-.21-.02-.09,0-.19.02-.28.05-.09.03-.16.08-.23.15-.07.08-.12.16-.15.26-.04.12-.06.25-.06.38v2.93c0,.13.02.26.06.38.03.1.08.19.15.26.06.07.14.12.23.15.09.03.18.05.28.05.07,0,.14,0,.21-.02.07-.02.15-.04.22-.07.15-.06.28-.15.39-.26v.04s0,.08.02.11c.01.03.03.06.05.09.02.02.05.04.08.05.04.01.08.02.12.02h.36s.08,0,.12-.02c.03-.01.06-.03.08-.05.02-.02.04-.05.05-.09.01-.04.02-.07.02-.11v-5.86Zm3.08,2.59c0-.15-.02-.31-.07-.45-.05-.12-.12-.24-.23-.32-.11-.09-.24-.16-.38-.19-.36-.08-.73-.08-1.08,0-.14.04-.27.1-.38.19-.1.09-.18.2-.23.32-.05.15-.08.3-.07.45v2.53c0,.16.02.31.07.46.05.13.12.24.23.32.11.09.24.16.38.19.18.05.36.07.54.06.18,0,.36-.02.54-.06.14-.03.27-.1.38-.19.1-.09.18-.2.23-.32.05-.15.08-.3.07-.46v-.19s0-.08-.02-.12c-.02-.06-.07-.12-.14-.14-.04-.01-.08-.02-.12-.02h-.36s-.08,0-.12.02c-.06.02-.12.07-.14.14-.01.04-.02.08-.02.12v.17c0,.05,0,.11-.02.16-.01.04-.03.08-.06.11-.03.03-.06.05-.1.06-.05.01-.09.02-.14.02-.05,0-.09,0-.14-.02-.04-.01-.07-.03-.1-.06-.03-.03-.05-.07-.06-.11-.01-.05-.02-.11-.02-.16v-.91h1.21s.09,0,.13-.02c.08-.03.14-.09.16-.16.02-.04.02-.09.02-.13v-1.29Zm-1.53.03c0-.05,0-.11.02-.16.01-.04.03-.08.06-.11.03-.03.06-.05.1-.06.04-.01.09-.02.14-.02.05,0,.1,0,.14.02.04.01.07.03.1.06.03.03.05.07.06.11.01.05.02.11.02.16v.9h-.63v-.9Zm-15.61,11.15s.09,0,.14-.02c.04-.01.07-.03.1-.06.03-.02.05-.05.07-.09.02-.03.03-.07.03-.11l.6-3.57h.08l-.09,1.41v3.45c0,.05,0,.1.02.15.03.08.09.15.18.18.05.02.1.02.15.02h.42c.05,0,.1,0,.15-.02.08-.03.15-.09.18-.18.02-.05.02-.1.02-.15v-6.56s0-.1-.03-.15c-.02-.04-.04-.08-.07-.11-.03-.03-.07-.05-.11-.06-.05-.02-.09-.02-.14-.02h-.98s-.1,0-.14.02c-.04.01-.08.03-.11.06-.03.03-.05.06-.07.1-.02.05-.03.09-.04.14l-.42,2.15-.23,1.71h-.09l-.24-1.71-.41-2.15s-.02-.1-.04-.15c-.02-.04-.04-.07-.07-.1-.03-.03-.06-.05-.1-.06-.05-.01-.09-.02-.14-.02h-.99c-.05,0-.1,0-.15.02-.04.01-.08.04-.11.06-.03.03-.05.07-.07.11-.02.05-.02.1-.02.15v6.56c0,.05,0,.1.02.15.03.08.09.15.18.18.05.02.1.02.15.02h.42c.05,0,.1,0,.15-.02.08-.03.15-.09.18-.18.02-.05.02-.1.02-.15v-3.45l-.09-1.41h.08l.59,3.57s.02.08.04.11c.02.03.04.06.07.09.03.02.06.04.1.06.05.01.09.02.14.02h.67Zm4.78-1.09v1.1c0,.07,0,.14-.03.2-.01.05-.04.1-.07.14-.04.04-.08.06-.13.08-.06.02-.12.03-.18.02-.06,0-.12,0-.17-.02-.05-.02-.09-.04-.12-.08-.03-.04-.06-.09-.07-.14-.02-.07-.02-.13-.02-.2v-.67c0-.07,0-.13.02-.2.01-.05.04-.1.07-.14.03-.04.08-.06.12-.08.06-.02.11-.03.17-.02h.4Zm-.4-.85c-.23,0-.46.02-.68.08-.17.04-.34.13-.48.24-.13.11-.22.24-.28.4-.07.18-.1.38-.09.57v1.02c0,.16.02.32.07.48.04.12.11.23.2.33.08.08.18.15.29.19.11.04.23.06.35.06.09,0,.18-.01.27-.03.09-.02.18-.05.27-.09.18-.08.35-.19.49-.33v.05s0,.1.02.14c.01.04.04.08.07.11.03.03.07.05.11.07.05.02.1.02.15.02h.45s.1,0,.15-.02c.04-.01.08-.04.11-.07.03-.03.05-.07.06-.11.02-.05.02-.09.02-.14v-4.08c0-.19-.03-.39-.09-.57-.06-.16-.16-.29-.28-.4-.14-.11-.3-.2-.48-.24-.22-.06-.45-.09-.68-.08-.23,0-.46.02-.68.08-.17.04-.34.13-.48.24-.13.11-.22.24-.28.4-.07.18-.1.38-.09.57v.26c0,.05.01.1.03.15.01.04.04.08.07.11.03.03.07.05.11.06.05.02.1.02.15.02h.44s.1,0,.15-.02c.04-.01.08-.04.11-.06.03-.03.05-.07.07-.11.02-.05.02-.1.02-.15v-.23c0-.07,0-.13.02-.2.01-.05.04-.1.07-.14.03-.04.08-.06.12-.08.06-.02.11-.03.17-.02.06,0,.12,0,.18.02.05.01.09.04.12.08.04.04.06.09.07.14.02.07.03.13.03.2v1.08h-.4Zm5.39-1.35c0-.16-.02-.32-.07-.48-.04-.12-.11-.23-.19-.33-.08-.08-.18-.15-.29-.19-.11-.04-.23-.06-.35-.06-.09,0-.18,0-.27.03-.09.02-.18.05-.27.09-.09.04-.17.08-.26.14-.08.05-.16.12-.23.19v-.05s0-.1-.02-.15c-.01-.04-.04-.08-.07-.11-.03-.03-.07-.05-.11-.06-.05-.02-.1-.02-.15-.02h-.44s-.1,0-.15.02c-.04.01-.08.04-.11.06-.03.03-.05.07-.07.11-.02.05-.02.1-.02.15v4.98s0,.1.02.14c.01.04.04.08.07.11.03.03.07.05.11.07.05.02.1.02.15.02h.44c.05,0,.1,0,.15-.02.04-.01.08-.04.11-.07.03-.03.05-.07.07-.11.02-.05.02-.09.02-.14v-3.96c0-.07,0-.14.02-.21.01-.05.04-.1.07-.14.03-.04.08-.07.12-.08.06-.02.12-.03.18-.03.06,0,.12,0,.18.02.05.02.09.04.12.08.03.04.06.09.07.14.02.07.02.13.02.2v3.98s0,.1.02.14c.01.04.04.08.06.11.03.03.07.05.11.07.05.02.1.02.15.02h.45s.1,0,.15-.02c.04-.01.08-.04.11-.07.03-.03.05-.07.06-.11.02-.05.02-.09.02-.14v-4.32Zm3.43-.28s0-.03.01-.04c0-.02,0-.03,0-.05s0-.03,0-.05,0-.03,0-.05v-.19s0-.1-.02-.15c-.03-.08-.09-.15-.17-.17-.05-.02-.1-.02-.15-.02h-2.26s-.1,0-.15.02c-.04.01-.08.04-.11.06-.03.03-.05.07-.07.11-.02.05-.02.1-.02.15v.19c0,.05,0,.1.02.15.03.08.09.15.18.18.05.02.1.02.15.02h1.32l-1.63,4.05s0,.03-.01.05,0,.03,0,.05,0,.03,0,.05,0,.03,0,.05v.19c0,.05,0,.1.02.15.01.04.04.08.06.11.03.03.07.05.11.07.05.02.1.02.15.02h2.26c.05,0,.1,0,.15-.02.08-.03.15-.1.18-.18.02-.05.02-.1.02-.15v-.19s0-.1-.02-.15c-.01-.04-.04-.08-.07-.11-.03-.03-.07-.05-.11-.07-.05-.02-.1-.02-.15-.02h-1.31l1.63-4.06Zm2.47,2.48v1.1c0,.07,0,.14-.03.2-.01.05-.04.1-.08.14-.04.04-.08.06-.13.08-.06.02-.12.03-.18.02-.06,0-.12,0-.17-.02-.04-.01-.08-.04-.12-.07-.03-.04-.06-.09-.07-.14-.02-.07-.02-.13-.02-.2v-.67c0-.07,0-.13.02-.2.01-.05.04-.1.07-.14.03-.04.08-.06.12-.08.05-.02.11-.03.17-.02h.4Zm-.4-.85c-.23,0-.46.02-.68.08-.17.04-.34.13-.48.24-.13.11-.22.24-.28.4-.07.18-.1.38-.09.57v1.02c0,.16.02.32.07.48.04.12.11.23.19.33.08.08.18.15.28.19.11.04.23.06.35.06.09,0,.18-.01.27-.03.09-.02.18-.05.27-.09.18-.08.35-.19.49-.33v.05s0,.1.02.14c.01.04.04.08.07.11.03.03.07.05.11.07.05.02.1.02.15.02h.45s.1,0,.15-.02c.04-.01.08-.04.11-.07.03-.03.05-.07.07-.11.02-.05.02-.09.02-.14v-4.08c0-.19-.03-.39-.09-.57-.06-.16-.16-.29-.28-.4-.14-.11-.3-.2-.48-.24-.44-.11-.91-.11-1.35,0-.17.04-.34.13-.48.24-.13.11-.22.24-.28.4-.07.18-.1.38-.09.57v.26s0,.1.02.15c.01.04.04.08.07.11.03.03.07.05.11.06.05.02.1.02.15.02h.44s.1,0,.15-.02c.04-.01.08-.04.11-.06.03-.03.05-.07.07-.11.02-.05.02-.1.02-.15v-.23c0-.07,0-.13.02-.2.01-.05.04-.1.07-.14.03-.04.08-.06.12-.08.06-.02.11-.03.17-.02.06,0,.12,0,.18.02.05.01.09.04.12.08.04.04.06.09.07.14.02.07.03.13.02.2v1.08h-.4Zm5.38-1.35c0-.16-.02-.32-.07-.48-.04-.12-.11-.23-.19-.33-.08-.08-.18-.15-.29-.19-.11-.04-.23-.06-.35-.06-.09,0-.18,0-.27.03-.09.02-.18.05-.27.09-.09.04-.17.08-.25.14-.08.05-.16.12-.23.19v-.05s0-.1-.02-.15c-.01-.04-.04-.08-.07-.11-.03-.03-.07-.05-.11-.06-.05-.02-.1-.02-.15-.02h-.44s-.1,0-.15.02c-.04.01-.08.04-.11.06-.03.03-.05.07-.07.11-.02.05-.02.1-.02.15v4.98s0,.1.02.14c.01.04.04.08.07.11.03.03.07.05.11.07.05.02.1.02.15.02h.44c.05,0,.1,0,.15-.02.04-.01.08-.04.11-.07.03-.03.05-.07.07-.11.02-.05.02-.09.02-.14v-3.96c0-.07,0-.14.02-.21.01-.05.04-.1.07-.14.03-.04.08-.07.12-.08.06-.02.12-.03.18-.03.06,0,.12,0,.17.02.05.02.09.04.12.08.03.04.06.09.07.14.02.07.02.13.02.2v3.98s0,.1.02.14c.01.04.04.08.07.11.03.03.07.05.11.07.05.02.1.02.15.02h.45s.1,0,.15-.02c.04-.01.08-.04.11-.07.03-.03.05-.07.07-.11.02-.05.02-.09.02-.14v-4.32Zm2.72,2.2v1.1c0,.07,0,.14-.03.2-.01.05-.04.1-.08.14-.04.04-.08.06-.13.08-.06.02-.12.03-.18.02-.06,0-.12,0-.17-.02-.05-.01-.09-.04-.12-.08-.03-.04-.06-.09-.07-.14-.02-.07-.02-.13-.02-.2v-.67c0-.07,0-.13.02-.2.01-.05.04-.1.07-.14.03-.04.08-.06.12-.08.05-.02.11-.03.17-.02h.4Zm-.4-.85c-.23,0-.46.02-.68.08-.17.04-.34.13-.48.24-.13.11-.22.24-.28.4-.07.18-.1.37-.09.57v1.02c0,.16.02.32.07.48.04.12.11.23.19.33.08.08.18.15.29.19.11.04.23.06.35.06.09,0,.18-.01.27-.03.09-.02.18-.05.27-.09.18-.08.35-.19.49-.33v.05s0,.1.02.14c.01.04.04.08.07.11.03.03.07.05.11.07.05.02.1.02.15.02h.45s.1,0,.15-.02c.04-.01.08-.04.11-.07.03-.03.05-.07.07-.11.02-.05.02-.09.02-.14v-4.07c0-.19-.03-.39-.09-.57-.06-.16-.15-.29-.28-.4-.14-.11-.3-.2-.48-.24-.44-.11-.91-.11-1.35,0-.17.04-.34.13-.48.24-.13.11-.22.24-.28.4-.07.18-.1.37-.09.57v.26s0,.1.02.15c.01.04.04.08.07.11.03.03.07.05.11.06.05.02.1.02.15.02h.44s.1,0,.15-.02c.04-.01.08-.04.11-.06.03-.03.05-.07.07-.11.02-.05.02-.1.02-.15v-.23c0-.07,0-.13.02-.2.01-.05.04-.1.07-.14.03-.04.08-.06.12-.08.06-.02.11-.03.17-.02.06,0,.12,0,.18.02.05.01.09.04.12.08.04.04.06.09.07.14.02.07.03.13.02.2v1.08h-.4Zm5.3,2.07c0-.17,0-.35-.04-.52-.02-.14-.06-.27-.12-.39-.06-.12-.13-.23-.21-.33-.1-.12-.21-.23-.32-.33l-.83-.76c-.09-.08-.16-.15-.21-.21-.05-.05-.09-.11-.12-.17-.03-.06-.05-.12-.06-.19-.01-.08-.02-.17-.01-.25,0-.07,0-.13.02-.2.01-.05.04-.1.07-.14.03-.04.08-.06.12-.08.06-.02.12-.03.18-.02.06,0,.11,0,.17.02.05.01.09.04.12.08.03.04.06.09.07.14.02.07.03.13.02.2v.43s0,.1.02.15c.01.04.04.08.07.11.03.03.07.05.11.06.05.02.1.02.15.02h.44s.1,0,.15-.02c.04-.01.08-.04.11-.06.03-.03.05-.07.07-.11.02-.05.02-.1.02-.15v-.46c0-.19-.03-.39-.09-.57-.06-.16-.15-.29-.28-.4-.14-.11-.3-.2-.48-.24-.45-.11-.91-.11-1.35,0-.17.04-.34.13-.48.24-.13.11-.22.25-.28.4-.06.18-.1.37-.09.57,0,.17,0,.35.03.52.02.14.06.27.11.39.05.12.12.23.21.33.1.12.21.23.32.33l.83.76c.09.08.16.15.21.2.05.05.09.11.12.17.03.06.05.12.06.19.01.08.02.17.01.26,0,.07,0,.13-.02.2-.01.05-.04.1-.07.14-.03.04-.07.06-.12.08-.05.02-.11.03-.17.02-.06,0-.12,0-.18-.02-.05-.02-.09-.04-.12-.08-.04-.04-.06-.09-.07-.14-.02-.07-.03-.13-.02-.2v-.44s0-.1-.02-.15c-.01-.04-.04-.08-.07-.11-.03-.03-.07-.05-.11-.07-.05-.02-.1-.02-.15-.02h-.45s-.1,0-.15.02c-.04.01-.08.04-.11.07-.03.03-.05.07-.07.11-.02.05-.02.1-.02.15v.46c0,.19.03.39.09.57.06.16.15.29.28.4.14.11.3.19.48.24.22.06.45.08.68.08.23,0,.46-.02.68-.08.17-.04.34-.13.48-.24.13-.11.22-.24.28-.4.07-.18.1-.37.09-.56h0Z" fill="#fbf5af"/>
  </g>
</svg>