<?xml version="1.0" encoding="UTF-8"?><svg xmlns="http://www.w3.org/2000/svg" viewBox="0 0 283.57 87.83"><g id="a"/><g id="b"><g id="c"><path id="d" d="M254.61,71.16c-16.58,0-30.01-13.44-30.01-30.01h0c0-8.38,3.5-16.39,9.67-22.06-16.18,.54-29.01,13.8-29.01,29.99,0,16.58,13.44,30.01,30.01,30.01h0c7.54,0,14.81-2.83,20.34-7.95-.33,.01-.66,.03-1,.03Z" fill="#eae3f1"/><path id="e" d="M74.21,71.17l6.76-7.44,9.96,1.35-4.99-8.73,4.36-9.05-9.84,2.04-7.26-6.95-1.1,9.99-8.85,4.76,9.16,4.13,1.8,9.89Z" fill="#eae3f1"/><path id="f" d="M152.32,40.06l-8.09-5.96-9.5,3.29,3.17-9.54-6.06-8.02,10.05,.06,5.75-8.24,3.05,9.58,9.62,2.92-8.17,5.86,.19,10.05Z" fill="#eae3f1"/><path id="g" d="M1.07,77.87l9.27,3.88-2.56-9.72,6.56-7.62-10.04-.57L0,56.76v21.8l1.07-.68Z" fill="#eae3f1"/><path id="h" d="M173.09,73.45l-7.26,6.95-9.84-2.04,4.36,9.05-.24,.43h22.26l-8.17-4.4-1.1-9.98Z" fill="#eae3f1"/><path id="i" d="M34.32,8.47l3.15,9.54,5.66-8.31,10.05-.05-6.15-7.95,.08-.26H30.4l-5.73,4.21,9.65,2.81Z" fill="#eae3f1"/><path id="j" d="M276.55,9.65l-9.54,3.15,8.31,5.66,.05,10.05,7.95-6.15,.26,.08V5.73l-4.21-5.73-2.81,9.65Z" fill="#eae3f1"/></g></g></svg>