<?xml version="1.0" encoding="UTF-8"?>
<svg id="b" data-name="Layer 2" xmlns="http://www.w3.org/2000/svg" viewBox="0 0 120.24 296.69">
  <g id="c" data-name="Layer 1">
    <path id="d" data-name="Path 8071" d="m43.35,68.08c-1.66.88-3.66.17-5.5-.34-1.93-.53-2.99-1.71-5.02-.93-1.3,2.19-2.64,4.68-1.99,7.14.33,1.07.8,2.09,1.39,3.04.41.75.71,1.9,1.41,2.43l4.85,6.57c1.09,1.48,1.76,3.07-.38,3.78-1.42.5-3.01.09-4.02-1.03-2.37-2.63-5.22-3.9-8.39-5.46-2.72-1.34-5.48-2.6-8.23-3.86-1.69-.78-4.9-1.77-5.1-4.02-.02-1.16.4-2.29,1.17-3.15.96-1.05,1.78-2.21,2.46-3.46,1.09-1.94,1.74-4.1,1.9-6.32.16-2.56.03-5.13-.4-7.66-.59-3.11-1.75-6.09-3.41-8.79-1.95-3.02-3.97-4.26-3.28-8.02,1.18-6.54,5.79-11.93,12.07-14.12,3.04-1.08,5.77-.47,8.85.38,1.33.38,2.62.9,3.85,1.54,2.7,1.37,5.16,3.17,7.29,5.32,1.06,1.07,2,2.25,2.8,3.52.83,1.2,1.41,2.56,1.68,3.99.05.82,0,1.65-.12,2.47-.23,1.81-.79,3.86-.45,5.67.21,1.1.53,2.17.95,3.2.24.62.57,1.21.96,1.74.39.44.58,1.03.51,1.62-.28,1.41-2.38,1.05-2.64,2.45-.05.42-.02.84.08,1.24.07.37.25.62.05.93-.7,1.09-3.53.77-4.71.87-.26.02-.57.09-.63.34s.21.46.45.58c.68.34,1.38.63,2.09.87.59.19,1.27.18,1.58.72.29.33.3.82.04,1.17-.39.78.01,1.64-.08,2.46-.1.86-.46,1.66-1.04,2.3-.3.33-.65.61-1.05.82Z" fill="#dfc2b4"/>
    <path id="e" data-name="Path 8072" d="m42.42,43.41c-.19-.16-.41-.29-.63-.4-.79-.38-1.68-.51-2.55-.37-.58.06-1.14.2-1.68.42-.54.22-1.02.57-1.38,1.02.43-.23.88-.42,1.35-.57.48-.18.99-.29,1.5-.33.52-.06,1.04-.09,1.57-.06.51-.04,1.02.05,1.48.26.15.1.16.13.12.29-.06.25-.24,1.02.06,1.15.1.03.21.05.31.04-.17-.46-.23-.96-.15-1.45Z" fill="#b09688"/>
    <path id="f" data-name="Path 8073" d="m13.84,52.9c.18.26-.76,2.8-.85,3.24-.24,1.22-.41,2.44-.52,3.68-.23,2.55.75,4.52.93,7.04.17,2.31-.73,4.36-.83,6.61-.08,1.77.43,3.22-.1,5.04-.54,1.87-1.4,4.72-3.25,5.72-1.34.72-4.47,1.69-5.84.9-1.14-.66-.89-1.52-.57-2.58.36-1.09.53-2.24.52-3.39.05-7.62-.2-15.25,2.86-22.41.74-1.87,1.8-3.6,3.13-5.1.41-.44,1.59-1.84,2.26-1.74.7.1,1.85,2.42,2.25,2.99Z" fill="#bf9d7c"/>
    <path id="g" data-name="Path 8074" d="m38.05,44.88c.7-.23,1.44-.32,2.17-.28.65.07,1.45.07,1.72.8.31.94-.2,1.96-1.14,2.28,0,0,0,0-.01,0-.96,0-1.89-.36-2.61-1-.43-.35-1.02-1.12-.45-1.62.1-.08.21-.14.32-.19Z" fill="#fff"/>
    <ellipse id="h" data-name="Ellipse 1273" cx="40.84" cy="45.98" rx="1.66" ry="1.3" transform="translate(-12.41 76.75) rotate(-78.41)" fill="#555524" stroke="#2f2f15" stroke-miterlimit="10" stroke-width=".3"/>
    <path id="i" data-name="Path 8075" d="m26.59,44.7c2.24-1.04,4.01-2.98,5.98-4.53,1.79-1.48,3.85-2.6,6.06-3.3,2.72-.6,5.5-.91,8.29-.92-1.18-2.9-2.19-5.86-4.37-8.2-2.73-2.71-6.3-4.4-10.13-4.8-3.93-.53-8.64-.53-12.26,1.11-3.42,1.35-6.4,3.62-8.6,6.57-1.36,1.93-2.44,4.04-3.23,6.26-.84,2.33-1.08,3.76-.3,6.12.33,1.15.8,2.26,1.4,3.3,1.14,1.76,1.2,4.01.15,5.83,1.21-1.97,3.23-.05,3.99,1.29.32.91.69,1.8,1.11,2.67.68.96,1.85,1.45,2.4,2.52.35.69.23,1.58.65,2.32.71-1.04.44-2.31.55-3.5.12-1.35.67-2.6.7-4,.02-.94-.36-1.9-.3-2.8.29-1.82,1.37-3.42,2.96-4.36,1.17-.71,2.61-.78,3.92-1.19.35-.11.69-.24,1.02-.39Z" fill="#bf9d7c"/>
    <ellipse id="j" data-name="Ellipse 1274" cx="40.85" cy="46.54" rx="1.24" ry=".98" transform="translate(-20.01 58.02) rotate(-59.4)" fill="#0e0a0a"/>
    <circle id="k" data-name="Ellipse 1275" cx="41.24" cy="46.9" r=".29" fill="#d5e5f0"/>
    <path id="l" data-name="Path 8076" d="m47.42,53.92c-.07.18-.25.29-.45.27-.19-.02-.37-.07-.55-.13-.55-.11-1.11-.03-1.61.22.26-.28,2.7-.73,2.6-.36Z" fill="#b09688" stroke="#b09688" stroke-linecap="round" stroke-linejoin="round" stroke-width=".36"/>
    <path id="m" data-name="Path 8077" d="m43.42,53.6c-.06.22-.06.45,0,.66.05.14.04.11.1.09s.08-.13.08-.19c.04-.46.26-.88.62-1.17.19-.17.35-.37.48-.59.11-.16.1-.18.08-.29s-.06-.07-.15-.01c-.56.35-.98.88-1.21,1.5Z" fill="#b09688"/>
    <path id="n" data-name="Path 8078" d="m40.37,39.78c.94,0,1.87.15,2.76.43.44.14,2.46.85,1.67,1.62-.25.25-.92.08-1.2-.03-.94-.3-1.91-.53-2.89-.67-.92-.22-1.85-.34-2.79-.35-.87.09-1.67.48-2.28,1.1-.1.09-.66.75-.74.51s.43-.64.58-.81c.26-.28.54-.52.85-.73.64-.42,1.35-.71,2.09-.86.64-.13,1.3-.2,1.95-.2Z" fill="#906d5a"/>
    <path id="o" data-name="Path 8079" d="m45.02,58.13c.3-.05.86-.19,1.13.03.37.3,0,.57-.05.93,0,.17-.06.34-.14.49-.29.45-1.56.31-2.02.27-.66-.05-1.32-.18-1.95-.4-.76-.28-.89-.67.07-.83l2.95-.5Z" fill="#fff"/>
    <path id="p" data-name="Path 8080" d="m46.07,57.14c.74-.01,1.59.55.85,1.31s-1.96.55-2.92.65c-.47.05-1.87.39-2.26.02.4.3.84.53,1.31.68.95.43,2.58.6,2.96,1.59.49,1.29-1.63,1.22-2.31.89-1.55-.75-2.39-1.99-3.5-3.16-.16-.17-.62-.52-.45-.8s1.01-.03,1.28-.03c.73,0,1.46-.1,2.16-.31.88-.33,1.78-.61,2.69-.84.06,0,.12-.01.18-.01Z" fill="#c98a83"/>
    <path id="q" data-name="Path 8081" d="m20.78,51.82c-.01.18-.06.36-.14.53-.67,1.27-2.05-.13-2.69-.82-1.01-1.01-1.66-2.33-1.85-3.74-.17-1.44.47-2.85,1.67-3.67,1.74-.86,3.85-.19,4.79,1.51.43,1-.28,2.28-.71,3.16-.56.93-.92,1.96-1.07,3.04Z" fill="#dfc2b4"/>
    <path id="r" data-name="Path 8082" d="m20.09,44.59c.17.05.82.28.86.45.02.1-.03.2-.13.24-.16.06-.51-.14-.65-.2-.44-.18-.93-.2-1.38-.06-.79.25-.97.77-1.33,1.42-.05.11-.18.15-.29.1-.42-.28.25-1.06.46-1.29.38-.41.9-.67,1.45-.74.34-.03.68,0,1.01.08Z" fill="#b09688" stroke="#b09688" stroke-miterlimit="10" stroke-width=".07"/>
    <path id="s" data-name="Path 8083" d="m59.29,281.73c-1.47-.82-3.21-.98-4.79-1.58-4.19-1.58-6.99-6.13-11.4-6.89-4.28-.73-8.66,2.4-12.82,1.16-1.18-.35-2.34-1.05-3.55-.83-1.77.33-2.55,2.38-3.03,4.11-.52,1.9-1.11,4.25-.22,6.13.79,1.65,3.19,1.7,4.81,2.11,4.58,1.17,9.25,1.95,13.96,2.32,2.6.21,5.32.46,7.91.51,1.96.04,11.43-.92,11.17-4.2-.19-1.22-.95-2.28-2.04-2.85Z" fill="#cec0de"/>
    <path id="t" data-name="Path 8084" d="m57.24,289.44c-2.17.95-4.63.88-6.99.78l-21.21-.83c-1.58.08-3.14-.28-4.53-1.04-1.78-1.4-2.33-3.87-1.3-5.89,1.18,1.57,2.74,1.58,4.65,2.01,9.39,2.11,19.04,4.24,28.57,2.9,1.45-.2,2.92-1.04,4.32-1.12-.44,1.39-2.2,2.62-3.5,3.19Z" fill="#bcd6e9"/>
    <path id="u" data-name="Path 8085" d="m24.25,276.3c.34-1.23,1.29-2.2,2.52-2.57,1.21-.23,2.37.47,3.55.83,4.16,1.24,8.55-1.89,12.82-1.16.85.15,1.67.43,2.44.83-6.84,2.37-14.16,3.08-21.33,2.06Z" fill="#e3edf5"/>
    <path id="v" data-name="Path 8086" d="m53.21,279.31c-1.1.4-1.85,1.44-1.87,2.61-.37-1.34-.36-2.76.03-4.1-1.07-.22-2.15.34-2.58,1.34l.07-2.99c-.27.01-2.3.18-2,.95-.48-1.24.77-1.79,1.37-2.64.22-.31,1.22-1.69.21-1.62-.68.22-1.06.95-.84,1.64.03.09.07.18.12.27-.35-.44-.85-.75-1.4-.88-.56-.06-1.18.49-.97,1.01.14.35,3.57-.28,4.27.84" fill="none" stroke="#3475a1" stroke-linecap="round" stroke-linejoin="round" stroke-width=".74"/>
    <path id="w" data-name="Path 8087" d="m36.78,140.75c3.24,4.98,2.04,10.3,2.82,15.81,1.49,9.68,3.53,19.27,6.12,28.72,1.14,4.37,2.22,8.74,3.16,13.16.78,3.67,2.28,6.95,3.27,10.46,1.01,3.58,0,7.72-.36,11.36-.88,8.62-1.68,17.26-2.69,25.87-.85,7.29-1.69,14.95.5,22.13.36,1.2.82,2.49.36,3.65-.62,1.1-1.62,1.93-2.82,2.33-1.8.94-3.71,1.66-5.68,2.15-6.5,1.33-18.14.12-16.65-9.16.6-3.72,1.78-6.25,1.88-10.2.13-5.09-.25-10.18-.61-15.26-.31-4.32-1.25-9.03-1.46-13.12-.36-7.16,1.75-12.16-1.14-19.1-2.33-5.61-6.59-10.19-9.61-15.35-2.98-5.09-5.86-9.07-6.96-15.04-1.04-5.65-.96-11.45-.86-17.17.1-5.66.23-11.46,2.33-16.71,2.98-7.46,8.72-10.01,16.13-11.08,6.06-.87,9.33,2.03,12.27,6.54Z" fill="#489881"/>
    <path id="x" data-name="Path 8088" d="m43.8,288.15c-1.47-.82-3.21-.98-4.79-1.58-4.19-1.59-6.99-6.13-11.4-6.89-4.28-.73-8.66,2.4-12.82,1.16-1.18-.35-2.34-1.05-3.55-.83-1.77.33-2.55,2.38-3.03,4.11-.52,1.9-1.11,4.25-.22,6.13.79,1.65,3.19,1.7,4.81,2.11,4.58,1.17,9.26,1.95,13.97,2.32,2.6.21,5.32.46,7.91.51,1.96.04,11.43-.92,11.17-4.2-.19-1.22-.95-2.28-2.05-2.85Z" fill="#cec0de"/>
    <path id="y" data-name="Path 8089" d="m41.74,295.86c-2.17.95-4.63.88-6.99.78l-21.21-.83c-1.58.08-3.14-.28-4.53-1.04-1.78-1.4-2.33-3.87-1.3-5.89,1.18,1.56,2.75,1.58,4.65,2.01,9.39,2.11,19.04,4.24,28.57,2.9,1.45-.2,2.92-1.04,4.32-1.12-.44,1.39-2.2,2.62-3.51,3.19Z" fill="#bcd6e9"/>
    <path id="z" data-name="Path 8090" d="m8.75,282.72c.34-1.23,1.29-2.2,2.52-2.57,1.21-.23,2.37.47,3.55.83,4.16,1.24,8.55-1.89,12.82-1.16.85.15,1.67.43,2.44.83-6.84,2.38-14.16,3.08-21.33,2.06Z" fill="#e3edf5"/>
    <path id="aa" data-name="Path 8091" d="m37.71,285.73c-1.1.4-1.85,1.44-1.87,2.61-.37-1.34-.36-2.76.03-4.1-1.07-.22-2.15.34-2.58,1.34l.07-2.99c-.27.01-2.3.18-2,.95-.48-1.24.77-1.79,1.37-2.64.22-.31,1.22-1.69.21-1.62-.68.22-1.06.95-.84,1.64.03.09.07.18.12.27-.35-.44-.85-.75-1.4-.88-.56-.06-1.18.49-.97,1.01.14.35,3.57-.28,4.27.84" fill="none" stroke="#3475a1" stroke-linecap="round" stroke-linejoin="round" stroke-width=".74"/>
    <path id="ab" data-name="Path 8092" d="m10.2,283.61c-4.94-3.14-3.13-6.87-3.1-12.44.07-12.21-1.81-24.34-1.61-36.67.14-8.31,1.77-16.88,1.26-25.16-.72-11.64-2.39-23.2-4.11-34.73-1.95-13.04-1.9-26.81,4.68-38.63,4.05-7.28,20.65-5.45,25.66-.32,7.46,7.65,6.34,21.5,5.58,31.16-.88,11.26-2.53,22.66-3.09,33.91-.22,4.43,1.21,8.76.7,13.33-.71,6.3-3.98,11.42-4.49,17.7-.66,8.09-1.34,16.05-1.29,24.19.03,4.57.19,9.13.35,13.69.15,4.16,2.86,6.46,3.32,10.28-4.73-.27-8.53,3.76-13.04,5.22-3.03.97-6.32.74-9.2-.62-.56-.27-1.11-.56-1.63-.9Z" fill="#42a888"/>
    <path id="ac" data-name="Path 8093" d="m39.13,159.39c-6.73,1.84-13.44,3.48-20.06,5.78-3.6,1.3-7.47,1.71-11.26,1.18-1.82-.29-3.55-1.04-5.01-2.17-1.2-.84-2.12-2.03-2.63-3.41" fill="#2f7761"/>
    <path id="ad" data-name="Path 8094" d="m20.84,54.48c.05,1.69.64,3.32,1.7,4.64,1.05,1.31,2.29,2.45,3.69,3.39,2.03,1.5,4.26,2.72,6.62,3.63-2.06-1.01-4.04-2.2-5.91-3.53-1.43-.96-2.73-2.1-3.87-3.39-1.12-1.37-1.89-2.99-2.23-4.73Z" fill="#b09688"/>
    <path id="ae" data-name="Path 8095" d="m22.43,71.39c.71.32,1.4.68,2.09,1.04,1.71.94,3.3,2.08,4.73,3.41,2.55,2.24,4.96,4.62,7.22,7.15,2.08,2.32,3.93,4.83,5.52,7.51,1.95,3.17,2.96,6.83,2.92,10.55-.18,4.96-2.74,9.9-3.4,14.63-.95,7.49-1.29,15.05-1.03,22.6.08,3.38.25,6.75.48,10.12.22,3.25.06,6.93,1.05,10.05.15.48-11.36,2.97-12.24,3.16-6.68,1.41-13.84,4.17-20.69,3.79-2.72-.15-8.08-1.39-8.98-4.47-.31-1.05.14-2.17.24-3.23.14-1.51.07-3.08.11-4.6.01-3.39.34-6.77.98-10.09,1.28-5.81,4.38-10.72,4.93-16.69.73-7.86-.45-15.53-1.42-23.19-.3-2.35-.55-4.72-.7-7.09,0-3.51-.37-6.9.47-10.36.94-3.26,2.47-6.32,4.5-9.03,1.64-2.39,4.12-5.04,6.94-5.96,2.1-.59,4.35-.34,6.27.69Z" fill="#42a888"/>
    <path id="af" data-name="Path 8096" d="m44.54,98.66c-2.63.18-5.26.13-7.88-.17-.84-.11-1.67-.25-2.5-.41-.77-.2-1.52-.47-2.24-.81-.14.61-.12,1.24.05,1.84.09.72.19,1.43.3,2.15l.57,3.87c.25,1.92.6,3.83,1.06,5.71.07.3.18.6.31.88.35.56.85,1.02,1.44,1.32.37.24.75.45,1.14.65,1.53.71,3.07.48,4.72.43" fill="none" stroke="#d0e1d9" stroke-dasharray="0 0 1.12 .72" stroke-linecap="round" stroke-linejoin="round" stroke-width=".54"/>
    <path id="ag" data-name="Path 8097" d="m44.5,102.15c-2.66.08-5.32-.15-7.92-.7-.17-.04-.35-.09-.52-.13l-.49-.13c-1.18-.25-2.32-.67-3.38-1.24" fill="none" stroke="#d0e1d9" stroke-dasharray="0 0 1.12 .72" stroke-linecap="round" stroke-linejoin="round" stroke-width=".54"/>
    <path id="ah" data-name="Path 8098" d="m39.75,87.46c-4-2.57-6.96-5.94-10.57-8.98-2.54-2.19-5.42-3.96-8.52-5.24-1.47-.6-3.04-.89-4.62-.88-1.25.04-2.47.36-3.58.93" fill="none" stroke="#d0e1d9" stroke-dasharray="0 0 1.12 .72" stroke-linecap="round" stroke-linejoin="round" stroke-width=".54"/>
    <path id="ai" data-name="Path 8099" d="m48.14,35.4c-.03-.72-.32-1.41-.82-1.94-.16-.15-.35-.27-.55-.36-.01-.14-.05-.28-.09-.42-1.03-3.24-2.06-7.31-4.69-9.6-6.28-5.47-14.45-3.23-21.57-.8-3.64,1.16-6.99,3.09-9.82,5.65-.49.46-.95.95-1.36,1.48-1.35,1.8-2.16,3.95-2.34,6.19-.2,2.07-.09,4.15.34,6.18-.1.1-.19.2-.28.31-.22.26-.37.57-.43.91-.07.64-.02,1.29.16,1.92.05.35.17.69.35.99.54.61,1.38.84,2.15.59.77-.25,1.49-.63,2.14-1.11,8.18-5.37,18.26-7.15,27.97-7.44,1.61-.05,5.77-.02,6.13-.02l2.2-.02c.2.01.41-.02.59-.1.63-.32-.03-1.89-.08-2.39Z" fill="#42a888"/>
    <path id="aj" data-name="Path 8100" d="m46.66,32.96c-1.64-.26-3.45-.46-5.12-.56-1.76-.1-3.52-.12-5.29-.05-3.56.14-7.1.63-10.56,1.47-6.48,1.48-12.67,4.04-18.31,7.57" fill="none" stroke="#d0e1d9" stroke-dasharray="0 0 1.11 .72" stroke-linecap="round" stroke-miterlimit="10" stroke-width=".54"/>
    <path id="ak" data-name="Path 8101" d="m41.82,45.04c-.59-.03-1.18-.17-1.77-.14-.49.05-.97.14-1.45.27-.23.05-.99.02-.9.42.05.13.13.24.25.32.73.59,1.49,1.14,2.29,1.63.35.24.62.59.76.99-.52-.47-1.1-.86-1.73-1.17-.61-.21-1.16-.56-1.61-1.03-.23-.3-.35-.67-.58-.97-.25-.32-.65-.38-.88-.75.47.32,1.06.39,1.59.18.37-.12.71-.3,1.07-.43.84-.31,1.74-.38,2.61-.2.26.05,1.94.77,2.02.24-.1.66-1.18.65-1.68.63Z" fill="#342823"/>
    <path id="al" data-name="Path 8102" d="m36.42,120.53c-1.62.1-2.21-.3-2.87-1.92-.38-1.15-.65-2.33-.8-3.53-.25-1.29-.57-2.57-.85-3.86-.41-1.95-.93-3.88-1.56-5.78-.21-.96-.75-1.81-1.53-2.4-1.77-1.27-3.7-.49-5.56-.09-1.86.3-3.67.87-5.36,1.7-2.88,1.61-4.29,3.56-3.43,6.89.98,3.34,2.18,6.6,3.61,9.77.69,1.85,1.51,3.65,2.43,5.39.69,1.2,1.23,2.96,2.2,3.95,1.21,1.22,2.8,1.98,4.5,2.18,2.77.43,5.56.7,8.36.82,2.84,0,5.64-.1,8.54-.02,7.41.2,14.86.61,22.3.67,1.21.08,2.43-.08,3.58-.47,1.01-.44,1.79-1.28,2.16-2.32.45-.91.65-1.93.57-2.94-.16-.91-.71-1.69-1.51-2.16-.72-.4-1.52-.63-2.33-.67-3.47-.48-6.78-.41-10.24-1.26-6.19-1.53-12.35-3.41-18.78-3.96-1.14-.09-2.28-.09-3.42-.01Z" fill="#dfc2b4"/>
    <path id="am" data-name="Path 8103" d="m85.4,131.31c.87-.1,1.72-.33,2.52-.66,1.45-.43,2.39-1.39,3.66-2.24.79-.52,2.16-1.24,2.85-.13.28.45-.82,1.36-1.14,1.6-.63.44-1.23.93-1.79,1.46-.73.62-1.57,1.1-2.48,1.41-.59.28-1.19.53-1.78.8-.96.3-1.96.43-2.96.41,1.17.25,2.39.2,3.55-.13.52-.11,1.05-.19,1.58-.24.58-.16,1.13-.38,1.65-.67.43-.27.91-.47,1.4-.59.43-.08,1.43-.11,1.34.47-.15,1.05-1.36,1.65-2.18,2.12l-2.03,1.16c-.55.34-1.13.62-1.73.84-.65.18-1.33.28-2.01.3-.58.04-1.1.3-1.7.32-2,.06-3.77-.83-5.72-1.09-1.24-.13-2.47-.38-3.67-.74-1.69-.67-3.48-1.07-5.29-1.2-.62-.02-1.89.24-2.43-.33-.32-.34.05-.82.17-1.14.5-1.36.6-2.83.29-4.25-.1-.47-1.09-4.01-.62-4.11.37-.08.82.36,1.18.42.64.06,1.29.06,1.93,0,2.45-.19,4.9-.16,7.35.08,1.95.3,3.76,1.1,5.72,1.18.55,0,1.1-.09,1.62-.29.78-.27,1.62-.96,2.32-1.19s2-.22,1.92.66c-.1,1.1-1.52,1.51-2.39,2.04-.95.53-2,.86-3.09.96,1.03-.06,2.06-.21,3.06-.46.81-.2,1.61-.47,2.37-.81.73-.46,1.49-.86,2.29-1.21.47-.2,1-.19,1.45.05,1.22.93-2.04,2.61-2.61,2.93-1.08.59-1.75.95-2.76,1.49-.65.44-1.41.68-2.19.7.11.03.23.04.34.05Z" fill="#8fbad9"/>
    <path id="an" data-name="Path 8104" d="m79.54,135.93c-1.52-.21-2.92-.72-4.44-.85-1.4-.12-2.8-.19-4.21-.25-.65-.03-1.3-.04-1.94-.09-.69-.05-2.08.19-1.98-.9.05-.59.47-1.01.58-1.58.15-.7.2-1.41.16-2.12-.03-.49-.1-1.05.38-1.29.34-.14.7-.22,1.06-.25.84-.08,1.69-.04,2.51.12,1.56.27,3.09.7,4.56,1.3l.14.06c2.03.84,3.54,2.33,5.73,2.68.72.12,8.33.11,5.47,2.63-.35.26-.75.42-1.18.47-2.26.46-4.58.48-6.85.07Z" fill="#99c1dd"/>
    <path id="ao" data-name="Path 8105" d="m29.16,104.37c-.55-.06-1.1-.14-1.67-.15-1.02-.02-2.04.03-3.05.15-2.04.28-4.06.67-6.05,1.17-1.3.18-2.52.74-3.51,1.61-.91.93-1.21,2.3-.78,3.53-.73-.09-1.43-.17-2.15-.33-1.06-.12-1.91-.92-2.1-1.97-.15-1.31-.16-2.68-.38-3.99-.56-3.2-1.16-6.39-1.46-9.63-.56-6.06-.44-13.28,4.47-17.66,4.33-3.86,10.99-.72,13.58,3.57,2.09,3.7,3.55,7.73,4.32,11.91.38,1.79.68,3.61,1,5.41.25,1.78.69,3.53,1.29,5.22.13.25.17.53.12.8-.07.2-.21.36-.39.46-.26.12-.5.29-.7.5-.29.3-.64.52-1.03.66-.11.04-.26.06-.32-.04s.03-.25.13-.34c.26-.27.56-.49.89-.68.11-.04.21-.1.3-.18-.21-.21-1.07.02-1.37.03-.38,0-.76,0-1.14-.05Z" fill="#55b194"/>
    <ellipse id="ap" data-name="Ellipse 1276" cx="85.3" cy="17.96" rx="34.94" ry="17.96" fill="#cec0de"/>
    <path id="aq" data-name="Path 8106" d="m63.39,50.09l9.53-38.5,13.32,6.48-22.85,32.02Z" fill="#cec0de"/>
    <g id="ar" data-name="Ready " isolation="isolate">
      <g isolation="isolate">
        <path d="m68.71,21.78c-.56.51-1.09,1.02-1.09,1.87,0,.72.54,1.42,1.54,1.42.83,0,1.36-.34,1.83-.91l.66.83c-.64.77-1.55,1.22-2.64,1.22-1.63,0-2.66-1.06-2.66-2.37,0-1.23.72-1.9,1.39-2.53.56-.54,1.07-1.02,1.07-1.76,0-.29-.16-.62-.37-.82l.94-.43c.37.38.53.82.53,1.33,0,1.01-.61,1.58-1.2,2.15Zm.3-4.91c-.46,0-.85-.38-.85-.83s.38-.87.85-.87.86.4.86.87-.4.83-.86.83Z" fill="#214b68"/>
        <path d="m72.32,23.06v-10.68h1.28v9.54h3.86v1.14h-5.14Z" fill="#214b68"/>
        <path d="m78.77,13.25c0-.43.37-.79.78-.79s.78.35.78.79-.35.78-.78.78-.78-.35-.78-.78Zm.22,9.81v-7.73h1.14v7.73h-1.14Z" fill="#214b68"/>
        <path d="m82.19,21.34c.45.54,1.18.98,2.02.98.9,0,1.49-.48,1.49-1.22,0-.83-.77-1.17-1.62-1.52-1.06-.42-2.24-.88-2.24-2.37,0-1.15.93-2.08,2.46-2.08,1.02,0,1.81.4,2.35.99l-.54.78c-.38-.51-1.04-.85-1.79-.85-.85,0-1.38.46-1.38,1.09,0,.74.72,1.06,1.54,1.39,1.07.43,2.32.91,2.32,2.5,0,1.28-.99,2.21-2.58,2.21-1.09,0-1.97-.35-2.61-1.09l.58-.82Z" fill="#214b68"/>
        <path d="m88.66,21.5v-5.17h-1.02v-1.01h1.02v-2.11h1.15v2.11h1.31v1.01h-1.31v4.96c0,.59.18.93.62.93.29,0,.53-.13.67-.3l.35.86c-.27.27-.66.46-1.25.46-1.06,0-1.55-.59-1.55-1.75Z" fill="#214b68"/>
        <path d="m92.26,19.18c0-2.18,1.09-4.05,3.14-4.05s3.15,1.87,3.15,4.05-1.07,4.07-3.15,4.07-3.14-1.89-3.14-4.07Zm5.09,0c0-1.55-.59-3.02-1.95-3.02s-1.94,1.47-1.94,3.02.61,3.04,1.94,3.04,1.95-1.47,1.95-3.04Z" fill="#214b68"/>
        <path d="m101.89,16.64c.58-.51,1.09-1.01,1.09-1.86,0-.74-.53-1.44-1.54-1.44-.82,0-1.34.34-1.81.91l-.67-.82c.64-.78,1.57-1.23,2.66-1.23,1.62,0,2.66,1.06,2.66,2.38,0,1.23-.74,1.91-1.41,2.53-.54.53-1.06,1.01-1.06,1.75,0,.29.14.62.35.82l-.94.43c-.37-.37-.53-.82-.53-1.31,0-1.02.62-1.6,1.2-2.16Zm-.3,4.87c.46,0,.85.4.85.85,0,.48-.38.86-.85.86s-.86-.38-.86-.86c0-.45.4-.85.86-.85Z" fill="#214b68"/>
      </g>
    </g>
  </g>
</svg>