<?xml version="1.0" encoding="UTF-8"?><svg xmlns="http://www.w3.org/2000/svg" viewBox="0 0 134.69 100"><g id="a"/><g id="b"><g id="c"><path id="d" d="M114.99,94.69c-.24-1.76,2.72-2.48,4.56-1.88,2.11,.69,3.89,2.29,5.62,3.77s3.67,2.98,5.79,3.36,4.26-.99,3.62-2.93c-1.2,1.17-3.97-.68-4.47-2.51s.28-3.45,.44-5.19c.28-2.95-1.38-6.39-4.18-8.69-2.67-2.27-6.2-3.24-9.66-2.67,.42-.1,1.3-2.44,1.97-2.86,3.05-1.94,6.12,.36,9.19,2.6-1.24-.9-1.99-3.13-2.81-4.31-.94-1.4-2.04-2.68-3.28-3.81-3.33-2.95-7.2-4.78-11.27-4.43-14.32,1.23-16.79,18.65-4.01,28.56,2.05,1.61,4.35,2.88,6.82,3.74,1.16,.43,2.38,.64,3.62,.62,2.53-.39-.23-.84-1.22-1.97-.37-.38-.62-.86-.73-1.38Z" fill="#eae3f1"/><path id="e" d="M122.3,90.71c2.16,1.44,4.02,3.27,5.49,5.41-1.51-1.93-.5-6.16-.77-8.14-.19-1.54-.86-2.97-1.93-4.1-1.29-1.25-2.93-2.08-4.71-2.37-2.4-.45-6.71,.52-7.86-2.93-.24-.78-.21-1.61,.08-2.37,1-3.04,4.19-4.95,7.99-4.81-2.03-1.95-4.59-3.27-7.35-3.79-5.35-.98-10.48,2.56-11.46,7.91-.01,.07-.03,.14-.04,.22-.48,3.5,.17,7.06,1.84,10.17,1.92,3.75,5.97,6.98,9.66,9.52-1.1-1.12-1.46-2.77-.94-4.25,.67-1.26,1.96-2.07,3.39-2.13,2.32-.14,4.63,.44,6.61,1.67Z" fill="#f6f4f9"/><path id="f" d="M103.87,34.95c.73-1.02,.49-2.44-.53-3.17-.04-.03-.08-.06-.13-.08-.75-.45-1.54-.85-2.34-1.2-16.53-7.2-34.57-11.17-42.12-.39s2.57,26.73,14.77,39.45c.61,.63,1.26,1.23,1.94,1.78,.99,.77,2.42,.6,3.19-.38,.03-.04,.06-.08,.08-.12l25.14-35.9Z" fill="#d1c2df"/><g id="g"><path id="h" d="M100.71,74l-8.16-9.66c-1.65-1.95-4.56-2.2-6.51-.55-.31,.26-.58,.55-.8,.88l-3.71,5.3c-1.46,2.09-.96,4.97,1.13,6.44,.33,.23,.68,.42,1.06,.55l11.87,4.36c2.4,.88,5.05-.35,5.93-2.75,.57-1.56,.26-3.31-.81-4.58Z" fill="#b8a2cd"/><path id="i" d="M107.56,64.22l-8.16-9.66c-1.65-1.95-4.56-2.2-6.51-.55-.31,.26-.58,.55-.8,.88l-3.71,5.3c-1.46,2.09-.96,4.97,1.13,6.44,.33,.23,.68,.42,1.06,.55l11.87,4.36c2.4,.88,5.05-.35,5.93-2.74,.57-1.56,.27-3.31-.81-4.58Z" fill="#b8a2cd"/></g><path id="j" d="M91.98,51.92c.73-1.02,.49-2.44-.53-3.17-.04-.03-.08-.06-.13-.08-.75-.45-1.54-.85-2.34-1.2-16.53-7.2-34.57-11.17-42.12-.39s2.57,26.73,14.77,39.45c.61,.63,1.26,1.23,1.94,1.78,.99,.77,2.41,.6,3.19-.38,.03-.04,.06-.08,.09-.12l25.14-35.9Z" fill="#d1c2df"/><rect id="k" x="93.27" y="59.24" width="10.32" height="22.67" rx="4.39" ry="4.39" transform="translate(-15.86 110.67) rotate(-54.98)" fill="#d1c2df"/><path id="l" d="M93.98,67.46c2.71-3.84,4.89-8.04,6.46-12.48-5.01-10.39-14.96-24.31-30.82-32.91C42.74,7.52,14.76-3.65,7.41,6.85s13.16,33.47,35.59,53.24c13.55,11.94,30.02,16.56,41.49,17.71,3.62-3,6.81-6.48,9.48-10.34Z" fill="#eae3f1"/><path id="m" d="M27.13,3.81C17.62,1.52,3.98-2.51,.72,2.15-2.53,6.78,5.95,18.27,11.33,26.41c3.57-2.98,6.73-6.43,9.38-10.25,2.69-3.81,4.84-7.96,6.41-12.35Z" fill="#d1c2df"/><circle id="n" cx="51.7" cy="37.85" r="8.69" fill="#f6f4f9" stroke="#d1c2df" stroke-miterlimit="10" stroke-width="2.48"/><circle id="o" cx="72.78" cy="52.61" r="9.93" fill="#f6f4f9" stroke="#d1c2df" stroke-miterlimit="10" stroke-width="2.48"/><circle id="p" cx="32.65" cy="24.51" r="7.45" fill="#f6f4f9" stroke="#d1c2df" stroke-miterlimit="10" stroke-width="2.48"/></g></g></svg>