<?xml version="1.0" encoding="UTF-8"?><svg xmlns="http://www.w3.org/2000/svg" viewBox="0 0 93.32 115"><g id="a"/><g id="b"><g id="c"><path id="d" d="M.93,86.68c-.04-.1,.15-.37,.3-.44,.84-.43,.77-1.01,.6-1.85-.24-1.19,.06-2.29,1.67-2.19,.53,.03,1.1,.04,1.31-.48,.84-2.14,3.21-1.88,4.74-2.94,1.11-.77,2.88-.62,4.41-.36,.74,.2,1.51-.14,1.87-.81-.86-.08-1.41-.65-2.23-.51-.57,.18-1.18-.1-1.42-.65-.44-1.6-2.04-2.44-2.44-4.07-.18-.71,.15-1.4-.33-2.14-1.16-1.8-.77-5.98,.77-7.53,1.2-1.21,1.48-3.5,3.77-3.49,2.42,.01,1.7-3.22,3.76-3.55,.06,0,.12-.03,.17-.07,.77-1.1,2.47-1.38,2.7-2.91,.05-.69,.55-1.27,1.22-1.43,.5-.13,.89-.51,1.04-1,.35-1.67,1.75-2.08,3.04-2.25,.89,0,1.61-.72,1.61-1.61,.03-.18-.4-.29,0-.54,1.57-1,2.42-3.08,4.71-3.03,.38,0,.8-.54,1.14-.9,.45-.52,1.08-.85,1.77-.94,1.1-.16,2.12-.68,2.91-1.47-1.8-1.69-2.44-3.91-3.38-6-.7-1.54-1.41-2.91-.87-4.62,.22-.59,.16-1.25-.17-1.79-.49-.76-.33-1.76,.36-2.33,1.19-1.39,.96-2.18-.77-2.85-.75-.28-1.55-.42-2.32-.64-1.93-.37-3.46-1.83-3.92-3.74-.39-1.48-.61-2.98-.9-4.46-.51-2.66-.45-5.21,2.71-6.39,.14-.05,.19-.34,.33-.43,1.72-1.12,3.02-2.89,5.38-3.02,2.11-.12,4.27-.99,5.85,1.26,.29,.42,.79,.63,1.29,.53,.74-.15,1.45,.33,1.6,1.07,0,.03,.01,.07,.02,.1,.25,.91,.59,.9,1.58,.46,1.46-.65,2.78-1.43,4.14-2.2,.66-.37,1.24-1.07,2.21-1.12,2.84-.15,5.68-.4,8.5-.73,2.89-.34,5.31,1.78,8.19,1.41,.51-.07,.7,.51,.85,.88,.59,1.39,1.2,.69,1.82,.07h0c.06-.38,.12-.76,.18-1.14-.39-.28-.33-.88-.09-.93,1.73-.33,2.68-2.34,4.64-2.14,1.6-1.38,3.58-.31,5.36-.76,.71-.18,2.27,.43,2.24,1.26-.09,2.46,2.34,2.7,3.36,4.17,1.32,1.93,2.13,6.13,.66,8.04-.17,.25-.34,.51-.48,.77-.9,1.48-1.22,3.43-3.1,4.12-2.38,.88-1.82,3.46-1.66,4.62,.2,1.56,.61,3.14,.69,4.83,.14,3.18-1.31,5.92-1.88,8.89-.03,.14-.23,.28-.39,.35-.86,.51-1.4,1.41-1.45,2.41q-.31-.02,0,0c-.08,.69-.68,.57-1.11,.75-.86,.36-1.7,1.27-1.42,1.93,.45,1.05,.13,2.39,1.17,3.19,1.06,.2,2.01,1.22,1.68,1.86-.64,1.23,.26,1.47,.73,2.05h0c1.72,.66,2.2,2.57,3.61,3.55l.35,.34h.01c1.97,.89,2.81,2.93,4.37,4.22,1.48,1.23,.81,3.82,2.98,4.62,.23,.08-.06,.55-.2,.83-.2,.26-.19,.62,.03,.86,1.02,.97,.82,2.47,1.55,3.56,.97,1.45-.32,3.2,.53,4.57,1,1.61-.83,3.34,.42,4.91,.24,.3-.37,.89-.73,.93-2.05,.23-1.82,1.55-1.58,2.98,.03,.61,.03,1.23,0,1.85,.09,1.71-1.38,3.08-.91,4.96,.18,.72-.91,1.25-1.77,1.07-.85-.2-1.71,.23-2.07,1.02-.71,1.51-1.55,1.65-2.79,.74-.92,1.18-2.38,1.8-3.86,1.63-.58-.09-1.15,.2-1.41,.72-1.71,3.09-3.87,5.91-5.35,9.14h0c.03,2.42-1.04,4.55-1.94,6.67-.32,.75-.28,2.18-1.72,2.2l-.2,.77c.05,.25-.09,.28-.28,.26-1.38,.92-2.26,2.97-4.48,1.99-.07-.26-.17-.51-.29-.75,.13,.24,.23,.49,.29,.75-1.06-.13-1,1.7-2.1,1.3-3.91-1.43-8.12-2.04-11.79-4.16-3.68,.22-5.21-2.67-7.26-4.9-1.07-1.17-.69-2.43-.84-3.69l-1.13-.23c-.87-.06-1.78,.2-2.57-.38-1.39-.11-2.74-.49-3.99-1.11h0c-1.34,.38-2.25,1.63-2.21,3.03-.02,.22-.08,.28-.28,.35-1.58,.61-3.14,1.29-4.9,.95-1.7,.56-3.21-.39-4.78-.68-4.48-.83-9.07-1.23-13.31-3.06-1-.43-2.17-.69-2.64-1.89-.59-.39-1.18-.77-1.77-1.16-.21,.05-.31-.06-.34-.25l-.05-.04c-1.26-.06-1.01-2.07-2.45-1.9-.09-1.67-1.78-2.63-1.76-4.51,.02-1.67,1.54-2.94,.93-4.65Z" fill="#eae3f1"/><path id="e" d="M65.22,28.36c.79-1.5,.67-3.49,2.44-4.53-.7-1.01-1.64,.09-2.31-.26-.85-.44,0-1.58-.75-2.2-.03-.02-1.47,1.19-1.58,1.31-1.04,1.22-1.44,2.87-1.06,4.43,.14,.89,.76,1.09,1.58,1.27,.3,.06,1.48,.36,1.68-.03Z" fill="#b8a2cd"/><path id="f" d="M3.27,90.38c-1.34,1.02-.71,2.4-.66,3.67h0c1.44,.59,2.15,2.22,1.61,3.69l.05,.04,.34,.25,1.77,1.15c.06-.02,.16-.04,.17-.07,.07-.91-.52-2.35,1.03-2.26,.88,.05,2.74,.2,1.88,2.19-.09,.21,0,.46,.21,.55,.03,.01,.07,.02,.1,.03,1.6,.16,2.78,1.32,4.2,1.77,1.95,.62,4.04,1.47,6.18,.43,.17-.07,.37-.06,.53,.03,1.07,1.17,2.24,.46,3.41,.25,2.16-.39,3.06,.43,3.03,2.69,1.76,.34,3.32-.34,4.9-.95,.2-.08,.26-.13,.28-.36-.05-1.4,.86-2.65,2.21-3.03,.02-.58,.63-.52,.88-.83,.3-.39,.23-.96-.17-1.26-.02-.02-.04-.03-.07-.05-.62-.49-.69,.15-.78,.54-.12,.77-.78,1.33-1.56,1.32-.81-.05-.29-.92-.47-1.4-.25-.71-.59-1.04-1.37-.79-.41,.15-.85,.21-1.28,.18-.64-.06-1.15-.54-1.28-1.16-.08-.61,.56-.88,1.17-.89,1.3-.03,1.3-.03,1.48-1.48,.87,.28,1.7,1.41,2.67,.21,.36-.44,.58,.07,.8,.37,.42,.59,.59,.5,.64-.23,.08-1.34,1.21,.31,1.64-.57,.45-.93-1.53-.55-.69-1.63,.62-.77,1.33-1.46,2.11-2.07,.63-.52,.53-1.07,.08-1.34-.26-.15-.75-1.49-1.3-.17-.69,.86-.82,.88-1.56,.04-.83-.93-1.66-1.52-2.7-.28-.42,.5-.83,.17-1.1-.11-1.12-1.2-2.65-1.93-4.29-2.06,.84-1.47,.45-2.15-1.13-2.17-.3,0-.62,.13-.91,.1-.99-.1-2.74-1.84-2.33-2.13,.85-.59,.84-1.08,.07-1.5-.74-.4-1.23,.07-1.58,.8-.25,.52-1.22,.9-1.29,.55-.31-1.66-1.71-1.52-2.76-1.96-.44-.18-.77-.45-.71-.95,.07-.62,.57-.49,.99-.54,.59-.08,1.29-.05,1.37-.92l-2.15-.29c-.11,.05-.31,.07-.33,.14-.54,2.29-2.63,1.71-4.12,2.15-.64,.19-1.26,.06-1,1.01,1.11-.15,1.94-.27,2.16,1.4,.36,2.8-1.97,.61-2.63,1.53l.46-2.92c-.47,.14-1.74-.78-1.09,.88,.19,.48-.47,.79-.87,.63-1.22-.49-2.2-.69-2.52,1.02-.03,.16-.64,.21-1.52,.48,1.39,.28,1.86,1.11,2.68,1.46,.28,.12,.56,.35,.42,.72-.11,.26-.42,.38-.68,.27-.04-.02-.07-.04-.1-.06-1.07-.93-2.33,.12-3.46-.39-.78-.35-1.4,.54-1.17,.92,.54,.92-.3,1.83,.23,2.65,.45-.43,.7-1.18,1.57-.96,.32,.08,.77-.28,.97,.18,.22,.4,.06,.91-.34,1.12h0c-.74,.28-1.4,1.19-2.31,.38Zm19.96,.13l-.02,.02c.3-.63-.5-1.5,.39-1.98,.64-.35,1.3,.04,1.96,.09-.38,1.1,1.42,1.3,.99,2.42,.99,.85,1.65,2.18,3.24,2.19,.25,0,.43,.44,.35,.77-.07,.15-.18,.28-.31,.37-1.15-.86-2.42,.21-3.73-.35-1.38-.64-2.45-1.8-2.98-3.22-.04-.04-.07-.08-.1-.12,.07-.07,.14-.13,.22-.19Zm9.85,1.19c.64,.23,1.54-.14,1.84,.79,.06,.18-.09,.61-.2,.63-.81,.13-.83-1-1.58-1.03-.46,.5-1.39,1.32-1.56,1.06-.69-1.05-2.08-.62-2.68-1.47-.37-.52-1.24-1.24-.45-1.93,.76-.66,1.24,.38,1.63,.75,.82,.75,1.89,1.18,3,1.19Zm-11.93-4.92l.15-.06-.16,.05c-.27,1-1.29,1.59-2.29,1.32-.13-.03-.25-.08-.37-.14-1.04-1.05-1.8-.47-2.9-.22,.97-.35-.46-1.57,.75-1.62,1.1-.05,2.37-.14,2.79,1.49l1.76-3.18c.28,1.05-.38,1.75,.26,2.35h0Zm-13.66,5.02c.71,.19,1.32-.05,1.47-.73,.22-.98-1.03,.02-1.09-.71,.64-1.65,2.19-2.76,3.95-2.86,.81-.15,1.58,.39,1.73,1.2,.03,.18,.03,.37,0,.55-.04,.47-.89,.78-.33,1.16,1.49,1,.74,2.28,.31,3.29-.37,.63-.17,1.44,.45,1.84-1.53-.57-3.01-1.25-4.43-2.06-.73-.44-2.21-.11-2.04-1.67-.41-.2-1.12,.12-1.21-.71,.7-.22,1.19-.17,1.19,.71h0Zm9.07-1.94c-.82,1.51,1.35,1,.97,1.9-.33,.65-1.07,.99-1.78,.81-.66-.26-1.03-.96-.88-1.65,.17-.77,1.09-.38,1.69-1.06h0Zm10.2,5.19c-.85,.51-1.58,1.04-2.41,.25-.29-.27-.4-.78-.05-.96,.96-.49,1.65,.17,2.46,.71h0Zm9.56-4.49c-.21,.44-.7,.68-1.17,.56-.06-.01-.15-.24-.11-.28,.28-.43,.86-.55,1.29-.28h0Z" fill="#d1c2df"/><path id="g" d="M64.09,88.21c-.38,.03-1.01,.26-.81,.5,.93,1.11,.55,2.67,1.32,3.69,.37,.47,.55,1.07,.52,1.67-.03,1.48-.32,2.95-.86,4.34,.36,.53,2.4,.45,.91,2.02,.37,.09,.73,.18,1.1,.27,.65-.15,1.38,1.19,2.01-.15,.17-.35,.7-.18,.89,.22,.33,.71,.57,1.66-.27,1.97-1.97,.73-1.42,1.76-.53,2.87,.38,.47-.1,.79-.04,1.2,.12,.85-.51,1.94,1.55,2.27-2.56,.58-1.39,1.07-.75,1.55,1.44-.02,1.4-1.45,1.72-2.2,.9-2.12,1.97-4.26,1.94-6.67-.83-.48-.42-2.15-1.92-1.98,.45-.9,.48-1.95,.09-2.87-.99-.26-.47-.99-.48-1.55-.33-1.19-1.14-2.18-2.24-2.73-.56-.34-1.33-.7-1.23-1.62-.67-1.25-1.34-2.49-2.91-2.79Z" fill="#eae3f1"/><path id="h" d="M47.13,106.67c-.04-.68-.28-1.33-.7-1.87-.87-1.74-.26-3.86,1.4-4.88-.26-.58-1.72-.2-1.24-1.09,.46-.85-.16-2.67,1.78-2.45h0c0-1.04,1.05-1.63,1.16-2.66,.04-.35,.64-.65-.05-.96-.48-.21-.96-.71-1.48-.09-.15,.18-.17,.61-.32,.64-2.28,.52-2.42,1.74-1.35,3.57,.24,.41-.18,1.17-.86,1.2-.98,.04-.34-.58-.36-.99-.06-1.23-1.73-1.21-1.94-2.36-.35,.08-.81,0-.97,.42-.36,.92-.29,1.92-.68,2.87-.41,1.01,.47,1.58,1.16,2.23,.43,.49,.66,1.13,.63,1.78-.02,.41-.72,.26-1.14,.19,.15,1.25-.23,2.52,.84,3.69,2.05,2.23,3.58,5.12,7.26,4.9-.05-.24-.08-.67-.14-.68-1.46-.09-1.81-1.68-2.97-2.16-.95-.4-.23-.85-.03-1.28Z" fill="#d1c2df"/><path id="i" d="M27.1,104.82c.03-2.26-.87-3.08-3.03-2.69-1.17,.21-2.34,.92-3.41-.25-.16-.1-.36-.11-.53-.03-2.14,1.03-4.23,.19-6.18-.43-1.41-.45-2.6-1.61-4.2-1.77-.23-.04-.38-.25-.34-.48,0-.04,.02-.07,.03-.1,.86-1.99-1-2.14-1.88-2.19-1.56-.09-.96,1.35-1.03,2.26,0,.03-.11,.04-.17,.07,.47,1.2,1.64,1.46,2.64,1.89,4.24,1.83,8.83,2.23,13.31,3.06,1.58,.29,3.08,1.24,4.78,.68Z" fill="#b8a2cd"/><path id="j" d="M76.94,37.75c-.53-1.12,.91-.58,.99-1.21-.28-.35-.72-.22-1.09-.32-1.03-.33-1.9-1.15-3.21-.97,.61,.96-.49,2.15,.74,3.14,.59,.47-1.04,2.92-1.91,2.75-1.44-.29-1.46,.55-1.37,1.57-.58-.18-.43-.96-.99-1.14-.61-.2-1.53,.62-1.87,1.01-.36,.37-.54,.89-.48,1.41,.12,.73,.82,1.23,1.55,1.11h.05c.48-.16,.61-.55,.92-.89,.21-.28,.54-.47,.89-.5,.92-.06,1.84-.2,2.73-.43,.16-.09,.37-.04,.46,.12,.03,.06,.05,.13,.04,.19,.13,1.93,1.6,1.66,2.85,1.76-1.04-.8-.73-2.14-1.17-3.19-.28-.65,.56-1.57,1.42-1.93,.43-.18,1.03-.05,1.11-.75-.85,.06-1.59-.58-1.65-1.43,0-.11,0-.21,0-.32Z" fill="#d1c2df"/><path id="k" d="M47.13,106.67c-.2,.43-.92,.88,.03,1.27,1.16,.48,1.52,2.07,2.97,2.16,.06,0,.1,.44,.14,.68,3.67,2.11,7.88,2.73,11.79,4.16,1.1,.4,1.04-1.43,2.1-1.3-.29-1.02-1-1.88-1.95-2.35l-1.45-.08c-.87,1.47-2.01-.04-2.77,.21-1.74,.56-2.92-.43-4.3-.92-1.58-1-3.17-1.99-4.73-3.02-.55-.39-1.18-.67-1.84-.81Z" fill="#b8a2cd"/><path id="l" d="M41.05,101.97c-.42-2.26-.55-4.57-.38-6.86,.01-1.11,.84-3.23-1.29-3.93-.75,3.43-.66,6.94-.91,10.42,.79,.58,1.7,.32,2.57,.38Z" fill="#d1c2df"/><path id="m" d="M76.8,5.22c-.29-.64-1.75,1.44-1.42-.61h0c-.65-.13-.73,.54-1.1,.77s-.66,.86-1.23,.54c-.48-.27-.09-.76-.16-1.11-.24-1.26-1.5-.52-2.2-.96-.06,.38-.12,.76-.18,1.14q.67,1.17-.86,1.59c.62,1.64,1.75,2.03,3.32,1.43,1.04-.55,1.79-1.61,3.17-1.61,.52,0,.62-.68,.66-1.18Z" fill="#d1c2df"/><path id="n" d="M83.23,52.82l.35,.34-.35-.34Z" fill="#eae3f1"/><path id="o" d="M47.74,78.39c-.4,.11-.97-.16-.69,.8,.56,1.34-.08,2.88-1.42,3.43-.06,.02-.12,.05-.18,.07-1.25,.5-1.39,1.8-1.98,2.76-.15,.44,.09,.91,.52,1.06,.36,.16,.78,0,.93-.37v-.02c.38-1.98,2.46-2.53,3.35-4.07,.67-1.16,.4-3.45-.53-3.67Z" fill="#d1c2df"/><path id="p" d="M37.31,42.44c-.54-.18-1.14,.02-1.45,.5-.79,1-.26,2.77-1.97,3.28-.2,.06,.33,.81,.74,1.1,1.03-.85,2.12-1.48,3.52-.97h-.02c.3-1.04-.95-2.2,.39-3.27,.32-.25-.72-.52-1.21-.65Z" fill="#d1c2df"/><path id="q" d="M59.58,71.03c.82,.8,1.28,1.91,1.28,3.06,.03,.57,.33,1.06,.7,1.02,.84-.07,1.62-.49,2.13-1.17,.42-.59-.19-.66-.5-.92q-2.26-1.85-3.61-1.99Z" fill="#d1c2df"/><path id="r" d="M46.66,88.61c.12-.01,.25,0,.37,.01,1.96,.48,2.43-.5,2.17-2.2,.23-1.13-.5-1.92-1.03-2.83-.21,1.79-1.63,3.17-1.5,5.02Z" fill="#d1c2df"/><path id="s" d="M81.15,56.85c-1.45,1.17,.34,1.88,.4,2.89,.58-.8,1.92-.99,1.69-2.3-.12-.65-.73-.16-1.06-.35l-1.02-.24Z" fill="#eae3f1"/><path id="t" d="M36.79,78.28c-.04-.08-.08-.17-.11-.26,0-.02,.09-.06,.13-.09,.19-.56,.12-1.04-.57-1.07-.41-.02-.63,.33-.73,.72-.18,.49,0,1.04,.42,1.33,.56,.32,.62-.34,.86-.63Z" fill="#eae3f1"/><path id="u" d="M67.04,66.82c-.06,.89-1.02,.38-1.4,.88,.5,.72,1.55,.5,2.1,1.69,.06-1.26,.28-2.08-.7-2.57h0Z" fill="#d1c2df"/><path id="v" d="M38.15,46.36l-1.31,1.05,2.52,.21c-.03-.67-.56-1.21-1.23-1.25h.02Z" fill="#d1c2df"/><path id="w" d="M56.01,76.81c.8-.12,1.44,1.14,2.39,.24-.78-.67-1.52-1.04-2.41-.27l.02,.03Z" fill="#d1c2df"/><path id="x" d="M25.3,67.77l-.13-.19s-.01,.08,0,.1c.03,.04,.07,.07,.12,.09h0Z" fill="#d1c2df"/><path id="y" d="M70.85,66.66l.06,.17-.07-.16h.01Z" fill="#d1c2df"/><path id="a`" d="M55.99,76.78l-.18,.15,.2-.12-.02-.03Z" fill="#d1c2df"/><path id="aa" d="M53.97,37.15c2.09,1.22,4.68,1.18,6.72-.13l.06-.02,1.82-1.91c.4-1.93-.84-3.82-2.77-4.22-.09-.02-.19-.03-.28-.05-1.95-.43-3.97-.28-5.83,.44-1.23,.49-2.1,1.6-2.28,2.91-.3,.8,.11,1.68,.91,1.98,.06,.02,.12,.04,.18,.06,.59,.2,1.22,.27,1.48,.94Z" fill="#b8a2cd"/><path id="ab" d="M72.02,28.66c0-.57,.16-1.28,.13-1.66-.02-.75-.35-1.46-.9-1.97-.59-.5-1.45-.5-2.03,0-.35,.45-.52,1.03-.45,1.6,.06,.57,0,1.14-.19,1.68-.19,.38-.52,.68-.92,.82-.43,.16-.83-.03-1.23,.05-.9,.16-.2,1.2,.17,1.54l2.12,2c.5,.47,1.35,1.02,1.65,1.65,.17,.56,.27,1.13,.29,1.71,.3,1.61-.16,3.26-1.25,4.48-.15,.15-.27,.32-.36,.51-.09,.19-.06,.42,.07,.59,.34,.35,.8-.19,1.08,.06,.17,.15-.02,.73,.08,.97,.09,.28,.4,.44,.68,.34h.02c.45-.25-.05-1.08,.19-1.51,.27-.49,.8-.47,1.3-.37,.87,.18,2.5-2.27,1.91-2.75-1.24-.99-.13-2.19-.74-3.14,1.31-.18,2.18,.64,3.21,.97-.01-.24,.08-.61-.05-.72-1.49-1.27-1.35-2.54-.06-3.84-.42,.07-.76-.2-1.14-.31-.43-.08-.86-.19-1.27-.35-.78-.41-1.49-.94-2.1-1.58-.17-.23-.24-.51-.2-.79Z" fill="#b8a2cd"/><path id="ac" d="M76.8,5.22c-.04,.5-.14,1.18-.66,1.18-1.37,0-2.13,1.05-3.17,1.61-.07,1.17,1.66,.92,1.64,2.05,.38,.17,.4,.46,.46,.86,.02,.89,.76,1.58,1.65,1.56,.38-.01,.75-.16,1.03-.41,.58-.47,1.26-.44,1.8-.81,.55-1.86,.93-2.03,2.54-1.09,.46,.3,.9,.63,1.32,.98,.72,.12,1.4,.18,1.24-.9-1.65-.2-2.31-1.08-2.28-2.79,.01-.64-.21-1.32-.17-2.05,.05-1.18-.53-1.76-1.75-1.02-1.12,.68-2.26,1.32-3.65,.82h0Z" fill="#b8a2cd"/><path id="ad" d="M39.95,33.6c-.06,.7-1.3,.33-.86,1.24,.46,.95,1.36,.98,2.23,1.04,.52,.04,1.16-.07,1.08-.71-.14-1.2,.56-2.11,.87-3.16,.13-.44,.33-1.07-.18-1.06-2.01,.04-3.99-1.17-6.03-.16-.57,.28-.89,.91-.79,1.54,.01,.7,.52,.87,1.09,1.07,.84,.29,1.73-.39,2.59,.21Z" fill="#d1c2df"/><path id="ae" d="M18.19,71.92l1.11,.23c1.1,.5,.99-.86,1.63-1.07-.51-1.07,.17-.82,.85-.92,1.18-.17,2.66-.26,2.04-2.21-.12-.37,0-.77,.31-1.01,.73-.57,1.22-1.04-.27-1.03-.32,.05-.61-.17-.66-.49-.01-.07,0-.14,0-.21,.07-.4,.51-.37,.77-.27,.85,.34,1.36-.26,1.91-.66,1.34-.95-1.73-.72-.48-1.77,.4-.34,2.05-.33,.71-1.54-.05-.04-.09-.08-.15-.12-.68-.41-.62-.91-.08-1.33,.57-.44,.99,.08,1.17,.48,.31,.69,.45,1.42,.99,.14,.13-.31,.32-.25,.58-.15,.46,.17,.64,1.44,1.37,.43,.32-.44-.95-2.67-1.37-2.49-.96,.42-1.13-.19-1.21-.78-.06-.46,0-1.17,.28-1.39,.47-.36,1,.13,1.45,.42,2.11,1.38,3.65,1.34,4.97-.54,.66-.94,.09-2.14-.9-2.89-.63-.48-.88-.57,0-1.34,.94-.83,2.4-2,1.27-3.76,.05-.11,.08-.23,.11-.35,1.03-.85,2.11-1.47,3.51-.97,.29-1.04-.95-2.2,.38-3.27,.32-.25-.72-.52-1.21-.65,.41-.72,1.1-1.23,1.9-1.41,.8-.23,1.59-.02,2.22-.7,.48-.68,.64-1.52,.46-2.33-.04-.72,.9-.27,1.4-.43,.54-.14,1.09-.22,1.65-.26h0c1.28,1.13,.11,2.52,.4,3.75-.56-.23-1.05-.59-1.43-1.05,.38,.46,.87,.82,1.43,1.05,.75,.84,1.76,1.5,1.9,2.74,2.05-.43,4.16-.5,6.24-.22,1.16,.32,2.35,.55,3.55,.7,1.05,.02,2.09-.09,3.11-.32l8.27-1.53c-.16,.75-.55,1.62,.08,2.25,.5,.51,.98,.1,1.41-.35,.98-1.01,2.69-.52,3.99-1.04,.34-.14,.48,.11,.5,.32,.13,1.93,1.6,1.66,2.85,1.76,1.06,.2,2.01,1.22,1.68,1.86-.63,1.23,.26,1.47,.73,2.05-.09,1.35,1.1,1.95,1.69,2.9,.3,.5,1.59,1.54-.43,1.28-.65-.08-.59,1.18-1.21,1.12,1.13,.65,2.2,1.16,2.49,2.51l-1.03-.24c-.31-.37-.97-.61-1.11-.33-.34,.66-.98,1.47-.47,2.21,1.23,1.8-1.4,2.42-1.08,3.89-1.91-.26-1.22,2.27-2.77,2.58-.56,.11-.61,1.09-.56,1.83,.1,1.44,.03,2.87-1.21,3.92-.67,.62-1.25,.78-1.53-.37-.1-.78-.71-1.39-1.48-1.5,.64,1.21,.25,2.52,1.05,3.63,.26,.59,.18,1.27-.22,1.78-1.24,1.93-1.6,4.3-.98,6.51,.3,1.28-.9,.59-1.31,1.04-.91,.78-2.28,.68-3.06-.23-.09-.11-.17-.22-.24-.34-.28-.65-.99-.99-1.67-.82-1.05,.42-2.56,0-3.09,1.51-.49,1.19-1.73,1.87-2.99,1.65-1-.16-2.01,.23-2.63,1.03-.62,.85-1.22,1.08-1.98,.69-1.36-.69-1.57,1.27-2.68,1.04-.58-.91-1.29-.02-1.93-.14,.23-1.13-.5-1.92-1.03-2.83-.21,1.79-1.63,3.17-1.5,5.02-.63,.68-1.51,1.05-2.05,1.86s-1.4,.68-2.21,.45c-1-.35-2.09-.26-3.02,.25-.75,3.43-.66,6.94-.91,10.42-1.39-.11-2.74-.48-3.99-1.1,.02-.58,.63-.52,.88-.83,.3-.39,.23-.96-.17-1.26-.02-.02-.04-.03-.07-.05-.62-.49-.69,.15-.78,.54-.12,.77-.78,1.33-1.56,1.32-.81-.05-.29-.92-.47-1.4-.25-.71-.59-1.04-1.37-.79-.41,.15-.85,.21-1.28,.18-.64-.06-1.15-.54-1.28-1.16-.08-.61,.56-.88,1.17-.89,1.3-.03,1.3-.03,1.48-1.48,.87,.28,1.7,1.41,2.67,.21,.36-.44,.58,.07,.8,.37,.42,.59,.59,.49,.64-.23,.08-1.34,1.21,.31,1.64-.57,.45-.93-1.53-.55-.69-1.63,.62-.77,1.33-1.46,2.11-2.07,.63-.52,.53-1.07,.08-1.34-.26-.15-.75-1.49-1.3-.17-.37-1.11-1.16-2.04-2.2-2.59,.91-.34,1.37-1.36,1.02-2.27-.17-.45-.51-.8-.95-.99-.79-.49-1.46-1.11-2.25-1.58-.22-.11-.43-.24-.62-.4-.53-.5-.71,1.33-1.15,.22-.36-.93,.76-.98,1.26-1.3,1.95-1.26,1.99-2.23,.06-3.64-.3-.25-.58-.51-.84-.8,1.36-2.15,3.18-.94,4.81-.55,.23,.06,.53,.42,.75,.1,.75-1.05,2.09-1.19,2.99-2.01l.04,.06c-.22,2.04-1.71,3.2-3.11,4.41,.19-.56,.12-1.04-.57-1.07-.41-.02-.63,.33-.73,.72-.18,.49,0,1.04,.42,1.33,.56,.32,.62-.34,.86-.63,.92,.27,1.74,.5,2.59-.41,.62-.45,1.46-.44,2.08,.01,.15-1.86,1.83-3.2,1.7-5.19-.04-.7,.75-.43,1.2-.35,.53,.09,.51,.45,.24,.81-.63,.88,.01,2.13-.93,2.97-.28,.32-.24,.8,.08,1.08,.08,.07,.17,.12,.27,.15,.82,.14,.48-.57,.51-1.02-.01-.63,.31-1.22,.84-1.56,.7-.37,.7-.85,.65-1.53-.04-.57-.04-1.39,.92-1.25,1.03,.15,.27,.84,.3,1.29,.11,1.31-1.61,2.23-.82,3.72,2.69-2.64,3.44-2.37,5.36,2.38,.95-1.04,1.83-1.94-.03-2.87-.86-.34-1.29-1.3-.96-2.16,.35-.95,.95-.42,1.59-.04,.25,.15,.99-.56,1.51-.88q1.39,1.43,4.72,1.84c.15-.67-.96-1.15-.28-1.93,.28-.32-.04-.7-.55-.6-.5,.14-1.03-.12-1.23-.61-.2-.78-1.14-1.42-.79-2.18,.4-.87,1.48-.28,2.16-.51,1.89-.65,3.48-.02,5.16,.68,.56,.11,1.14-.07,1.53-.48,.36-.67,.36-1.48-.02-2.14-.21-.44-1.14-.75-.53-1.33,.39-.37,1.04,0,1.57,.23,.46,.17,.93,.31,1.41,.41-.06,.89-1.02,.38-1.4,.88,.5,.72,1.55,.5,2.1,1.69,.06-1.26,.28-2.08-.7-2.57-.34-.9-1.4-1.43-.97-2.79,.19-.6-1.33-.85-1.96-.93-.82-.1-1.24,.95-1.51,1.74-.04,.28-.02,.56,.06,.82-.59,.62-1.26-1.45-1.76,.21-.21,.69-.27,1.63-1.51,1.97,.58-.7,.47-1.74-.23-2.31-.03-.02-.06-.05-.09-.07-.88-1.05-1.14-2.48-.69-3.77,.23-.8,.24-1.49-.97-1.31-.84-.29-1.62-.73-2.3-1.31-.04-.04-.09-.08-.14-.11-.72-.37-.83,1.48-1.95,.39-.77-.75-1.27,.32-1.61,1.05-.37,.79-.4,.77-2.23,.66,.56-.62,1.12-1.15,1.59-1.76,1.1-1.43-.28-2.78-.28-4.2,0-.71-1.22-.21-1.77-.02-.38,.2-.84,.16-1.18-.09-.49-.46,.24-.7,.39-.97,.71-1.25,.54-2-.66-2.94s-1.86-1.13-3.64-.25c-1.26,.62-2.46-.25-3.62-.56-1.96-.53-3.48,.46-3.16,2.38,.13,.59-.01,1.21-.4,1.68-1.22,1.68-2.31,3.45-3.45,5.18l.05,.07c-.02,.11-.05,.22-.08,.33-.21,.88-1.66,.87-1.46,2.04-1,.15-1.68,1.08-1.53,2.08,.02,.12,.05,.24,.09,.35,.06,.24,.21,.61,.11,.71-1.72,1.69,.45,2.1,1.07,2.66,.95,.84,1.05-.83,1.76-1.03,.64,.73,.33,1.31-.28,1.85-1.26,.19-1.04,1.99-2.31,2.09-.13,.86,1.26,.19,.99,.98-.25,.74-.98,.37-1.47,.26-.98-.21-1.76-.3-2.25,.88-.2,.41-.7,.57-1.1,.37-.13-.06-.23-.16-.31-.27-.68-1.02-1.54-.35-2.32-.39-1.47-.07-.91,.94-.89,1.67,.01,.34-.28,.8-.45,.64-1.12-1.08-2.28,.09-3.27-.12-1.17-.24-1.47-1.52-1.15-2.74Zm29.55,6.47c-.4,.11-.97-.16-.69,.8,.56,1.34-.08,2.88-1.42,3.43-.06,.02-.12,.05-.18,.07-1.25,.5-1.39,1.8-1.98,2.76-.15,.44,.09,.91,.52,1.06,.36,.16,.78,0,.93-.37v-.02c.38-1.98,2.46-2.53,3.35-4.07,.67-1.16,.4-3.45-.53-3.67h0Zm8.26-1.61l-.18,.15,.2-.12c.8-.12,1.44,1.14,2.39,.24-.78-.67-1.52-1.04-2.41-.27h0Zm7.19-3.76q-2.26-1.85-3.6-1.99c.82,.8,1.28,1.91,1.28,3.05,.03,.58,.33,1.07,.7,1.02,.84-.07,1.62-.49,2.13-1.17,.41-.59-.2-.66-.51-.92h0Zm6.06-8.17l1.39,.58c-.1-.66-.61-1.19-1.27-1.3-1.38-.88-1.65,.26-2.13,1.22,.75-.08,1.62,.81,2.02-.5h0Zm-25.45-25.1c-.02-.08-.03-.17-.02-.26,0,.09,0,.17,.02,.26h0Zm-4.44,7.87c-.03-.67-.56-1.2-1.22-1.25l-1.3,1.04c.92,.07,1.65,.14,2.52,.21h0Zm-14.18,20.07s.07,.07,.12,.09h0l-.13-.19s-.01,.08,0,.1h0Z" fill="#b8a2cd"/><path id="af" d="M3.27,90.38c.91,.81,1.58-.1,2.3-.39,.4-.21,.56-.71,.35-1.12h0c-.2-.46-.65-.1-.97-.18-.88-.21-1.12,.53-1.57,.96l-.03,.02c-.02,.1-.04,.2-.06,.29v.41Z" fill="#b8a2cd"/><path id="ag" d="M62.57,35.09l-1.82,1.91c1.47,.18,2.18-.35,1.82-1.91Z" fill="#d1c2df"/><path id="ah" d="M15.33,75.63c.03-.12,.07-.24,.1-.35,1.2-.3,2.15-.1,2.51,1.27,.17,.67,.73,.75,1.28,.86l-.15,.67-2.15-.29c.48-1.44-.59-1.04-1.28-1.08-.4-.04-.84,.11-1.19-.21,.29-.3,.19-.99,.89-.86Z" fill="#b8a2cd"/><path id="ai" d="M31.46,19.19l-.51,.09c.02,.05,.05,.1,.08,.15,.15-.06,.3-.13,.45-.2l-.03-.04Z" fill="#d1c2df"/><path id="aj" d="M56.4,8.1l.12,.06s.05-.09,.06-.14c0-.01-.07-.04-.11-.05l-.06,.14Z" fill="#d1c2df"/><path id="ak" d="M.93,86.68c-.04-.1,.15-.37,.3-.44,.84-.43,.77-1.01,.6-1.85-.24-1.19,.06-2.28,1.67-2.19,.53,.03,1.1,.04,1.31-.48,.84-2.14,3.21-1.88,4.74-2.94,1.11-.77,2.88-.62,4.41-.36,.74,.2,1.51-.14,1.87-.81-.86-.08-1.41-.65-2.23-.51-.57,.18-1.18-.1-1.42-.65-.44-1.6-2.03-2.44-2.44-4.07-.18-.71,.15-1.4-.33-2.14-1.16-1.8-.77-5.98,.77-7.53,1.2-1.21,1.48-3.5,3.77-3.49,2.42,.01,1.7-3.22,3.76-3.55,.06,0,.12-.03,.17-.07,.77-1.1,2.47-1.38,2.7-2.91,.05-.69,.54-1.27,1.22-1.43,.5-.13,.89-.51,1.04-1,.35-1.67,1.75-2.08,3.04-2.25,.89,0,1.61-.72,1.61-1.61h0c.03-.18-.4-.29,0-.54,1.57-1,2.41-3.08,4.71-3.03,.38,0,.8-.54,1.14-.9,.45-.52,1.08-.85,1.77-.94,1.1-.16,2.12-.68,2.91-1.47-1.8-1.69-2.44-3.91-3.38-6-.7-1.54-1.41-2.91-.87-4.62,.23-.59,.16-1.25-.17-1.79-.49-.76-.33-1.76,.36-2.33,1.19-1.39,.96-2.18-.77-2.85-.75-.28-1.55-.42-2.32-.64-1.93-.37-3.46-1.83-3.93-3.74-.39-1.48-.61-2.98-.9-4.46-.51-2.65-.45-5.21,2.71-6.39,.14-.05,.19-.34,.33-.43,1.72-1.12,3.02-2.89,5.38-3.02,2.11-.12,4.27-.99,5.85,1.26,.29,.42,.79,.63,1.29,.53,.74-.15,1.45,.33,1.6,1.07,0,.03,.01,.07,.02,.1,.25,.91,.59,.9,1.58,.46,1.46-.65,2.78-1.43,4.14-2.2,.66-.37,1.24-1.07,2.21-1.12,2.84-.14,5.68-.4,8.5-.73,2.89-.34,5.31,1.78,8.19,1.41,.51-.07,.7,.51,.85,.88,.59,1.39,1.2,.69,1.82,.07q.67,1.17-.86,1.59c.62,1.64,1.75,2.03,3.32,1.43-.07,1.17,1.66,.92,1.64,2.05l-.1,.07c-1.27,.08-2.51-.14-3.75,.72-.81,.57-1.48-.64-1.62-1.32-.12-.78-.8-1.36-1.59-1.36-.87,.1-.55,.88-.34,1.58,.12,.58-.05,1.19-.45,1.63-.48,.37-1.18,.04-1.64-.47-.94-1.06-3.07-.52-3.37-2.47-.01-.06-.27-.15-.27-.15-.9,1.58-1.21-.36-1.84-.35-.78,.75,.34,1.52-.15,2.38-.7-.43-1.53-1.21-2.09,.13-.51-1.09-1.57-.3-2.35-.66-.94-.43-2.11-.61-1.37,1.27,.27,.89,.29,1.83,.05,2.73-.2,.97-.7,1.95-2.04,1.39-1.38-.58-1.84,1.42-3.11,1.05-2.2-1.97-3.43-1.87-5.4,.11-.67,.48-1.52,.62-2.3,.38-.55-.24-1.18-.18-1.67,.17-.09,.93,1.23-.11,1.05,.76-.16,.49-.63,.82-1.14,.82-.82,.1-.63,.61-.71,1.19-.21,1.61,.4,3.25-.25,4.85-.18,.45,.04,1.34,.86,.83,.76-.48,1.62,.35,2.4-.42,.19-.19,.52,1.21,.95,1.82,.32,.71,.21,1.53-.28,2.14,.92-.28,1.43-1.37,2.41-1.06,.85,.23,1.53,.88,1.78,1.72,.21,.64,2.63,.42,3.28-.21,.65-.19,1.26-.52,1.78-.96,.46-.44,1.03-.73,1.66-.85,1.44-.36,2.92-.56,4.41-.61,1.7-.06,3.86-.15,5.35,.75,.59,.36,1.07,.8,1.67,1.14,.65,.37,1.27,.78,1.86,1.24,1.46,1.13,3.24,2.61,3.4,4.52,.17,2.1-.33,4.2-1.44,5.99-1.28,2.03-3.27,3.52-5.57,4.18-1.71,.41-3.48,.56-5.23,.46-1.98,.02-3.96-.17-5.89-.58-2.37-.55-4.52-1.78-6.19-3.55-.29-1.23,.88-2.62-.4-3.75-.56,.04-1.11,.13-1.65,.26-.49,.16-1.43-.29-1.4,.43-.03,.59,.16,1.17,.55,1.62,.48,.52,.95,1.04,1.4,1.59,.45,.42,.82,.92,1.07,1.49,.08,.27,.23,1.07,.01,1.31s-.5,.23-.56-.05c-.26-1.29-1.38-1.83-2.24-2.54-1.34-1.1-4.15-.43-4.82,1.03-.54-.18-1.14,.02-1.45,.5-.79,1-.26,2.77-1.97,3.28-.2,.06,.33,.81,.74,1.1-.03,.12-.06,.24-.11,.35-2.07-.16-3.1,1.56-4.27,2.7-1.13,.89-2.15,1.91-3.05,3.04-.09,.14-.12,.39-.35,.25-1.77-1.07-1.38,.57-1.56,1.3-.17,.76-.61,1.43-1.24,1.9-2.14,1.79-4.6,3.24-5.7,6.12-.27,.7-1.83,1.32-3.03,1.46-.64,.08-1.57-.19-1,1.03,.13,.27,.1,.47-.18,.59-2.3,.99-.06,2.03,.15,2.88,.14,.58,1.5,1.23,2.28-.4q.2,2.42-1.9,2.02c.06-.53,.71,.05,.82-.54-.47-.07-.93-.14-1.4-.22-.52-.1-1.02,.21-1.17,.72-.28,.67,.38,.63,.72,.79s.38,.45,.4,.77c-.03,.23-.05,.46-.08,.69,.07,1.03,.62,1.97,1.48,2.54-.04,.12-.07,.23-.1,.35-.7-.13-.6,.57-.89,.86,.35,.32,.79,.17,1.19,.21,.69,.04,1.76-.36,1.28,1.08-.11,.05-.31,.07-.33,.14-.54,2.29-2.63,1.71-4.12,2.15-.63,.19-1.26,.06-1,1.01-.48,.15-1.76-.77-1.1,.89,.19,.48-.47,.79-.88,.63-1.22-.49-2.2-.69-2.52,1.02-.03,.16-.64,.21-1.52,.48,1.39,.28,1.86,1.11,2.68,1.46,.28,.12,.56,.35,.42,.72-.11,.26-.42,.38-.68,.27-.04-.02-.07-.04-.1-.06-1.07-.93-2.33,.12-3.46-.39-.78-.35-1.4,.54-1.17,.92,.54,.92-.3,1.82,.23,2.65l-.03,.02c-.02,.1-.04,.2-.06,.29l-.1-.1,.1,.1v.4c-1.35,1.02-.72,2.4-.67,3.67,1.44,.6,2.15,2.24,1.61,3.7-1.26-.06-1.01-2.07-2.45-1.9-.1-1.67-1.78-2.63-1.76-4.51,.01-1.67,1.53-2.94,.92-4.66ZM56.52,8.15s.05-.09,.06-.14c0-.01-.07-.04-.11-.05l-.06,.14,.12,.06Zm-16.64,2.39c.17-.25,.19-.57,.07-.84-.97-.83-.45-1.72-.04-2.47,.5-.93-.29-1.39-.65-1.25-.74,.3-1.72-1.05-2.46,.71-.35,.84-1.48,2.91-3.51,2.61-.48-.07-.52,.29-.64,.69-.3,.98-.53,2.04-1.61,2.56-.3,.14-.55,.58-.31,.75,1.48,1.01-.01,1.3-.43,1.77-1.34,1.51-1.3,1.75,.67,2.54-.23,.65,.65,.95,.48,1.57l-.51,.09c.02,.05,.05,.1,.08,.15,.15-.06,.3-.13,.45-.2,.98-.12,1.95-.94,2.96,0,.21,.17,.51,.14,.68-.06,.04-.05,.07-.1,.09-.15,.18-.43-.1-.7-.42-.91-1.03-.67-2.27-.51-3.4-.8,.76-.68,2.49-.87,1.05-2.59-.51-.6,.62-1.22,.93-1.84s.99,.08,1.52,.29c-.22,.72-1.21,.55-1.27,1.44,1.29,.24,2.61-.76,3.91,0,.28,.17,.32-.43,.5-.63,.9-1,.76-2.54,1.85-3.44h0Zm7.21,25.17c.03,.24,.15,.5,.44,.44,.1-.02,.18-.3,.21-.47,.03-.24,.01-.5-.31-.54-.25,.06-.4,.31-.34,.55h0Zm-2.48-1.02c-.21,.48-1.29-.34-1.11,.7,.1,.57,.73,.6,1.15,.82,.9,.47,.71-.58,1.1-.83,.09-.08,.18-.17,.24-.27,1.9-.85,3.98-1.41,5.18-3.37,.21-.35,.74-.58,.35-1.05-.56-.68-.76,.36-.86,.3-1.2-.56-2.3,.47-3.46,.17l-2.31,1.11c-1.84-.17-1.06,.69-.57,1.44l.31,.41c.03,.18,.02,.36-.01,.54h0Zm-5.51,.16c.46,.95,1.36,.98,2.23,1.04,.52,.04,1.16-.07,1.08-.71-.14-1.2,.56-2.11,.87-3.16,.13-.44,.33-1.07-.18-1.06-2.01,.04-3.99-1.17-6.03-.16-.57,.28-.89,.91-.79,1.54,.01,.7,.52,.87,1.09,1.07,.84,.29,1.73-.39,2.59,.21-.06,.7-1.3,.33-.86,1.24h0ZM3.08,89.78h0Z" fill="#eae3f1"/><path id="al" d="M62.91,40.47l.18-.16-.21,.12,.03,.04Z" fill="#d1c2df"/><path id="am" d="M2.6,94.05l-.17,.06,.16-.07h0Z" fill="#d1c2df"/><path id="an" d="M64.09,88.21c1.58,.3,2.25,1.54,2.91,2.79,2.25-.81,4.26,.55,6.41,.76,3.49,.34,3.24,.19,5.22-2.9,.96-1.5-.26-2.18,.11-3.27,.47-1.16,.61-2.43,.4-3.66-.09-.41-.17-.87-.8-1.06-.54,.45-.36,1.21-.6,1.79-.18,.45-.42,.6-.75,.11h0c-.89,.07-1.26-.61-1.85-1.62-.23,3.03,.53,5.74-.76,8.23-.33,.48-1.39-1.33-1.59,.51-.03,.27-1.85,.13-2.83-.52-1.68-1.1-3.82-1.03-5.64-1.83l-.23,.68Z" fill="#b8a2cd"/><path id="ao" d="M59.12,95.59c-1.59-1.05-2.58,.95-4.04,.62-.32-.07,.13,.51,.05,.89-.35,1.55-1.25,3-.83,4.7,.41,1.68,1.96,3.23,3.42,2.83,.92-.25,1.68-1.28,2.39-2.08,.55-.62-.28-.92-.52-1.36-.25-.48-1.16-1.16,.29-1.38,.37-.06,.34-.23-.26-.99q-1.44-1.79-.49-3.24Z" fill="#eae3f1"/><path id="ap" d="M57.01,91.96c1.62,.88,3.73,.32,5.15,1.91-.66-1.22-1.05-2.57-1.14-3.96-.59-.07-.61,.21-.71,.43-.19,.42,.06,1.23-.56,1.21-.82-.03-1.1-.93-1.44-1.54-.38-.68,.07-.72,.71-.99,.86-.36,.58-1.46,.45-2.29-.15-.75-.7-1.35-1.42-1.58-.24-.1-.51,0-.47,.34,.1,1.08-.82,1.11-1.45,1.35-.73,.28-1.42,.71-1.09,1.47,.45,1.02,.85-.76,1.61,0-.44,1.6-1.81,3.39-.04,5.2,.34,.02,.14-.39,.19-.61,.06-.29-.19-.62,.21-.93Z" fill="#eae3f1"/><path id="aq" d="M79.18,71.4c-.85,.91-2.65-.32-3.23,1.42,2.12-.32,4.14,.98,4.72,3.04,.04,.15,.26,.25,.39,.36h-.02c1.13-.96,1.78-2.38,1.75-3.87-.1-.15-.2-.3-.29-.45-2.84,1,.08-1.67-1.27-1.66-.2,.85-.78,.85-1.61,.51-.56-.23-.64-.07-.45,.63l.19-.13-.18,.14Z" fill="#b8a2cd"/><path id="ar" d="M78.36,66.04c.43,1.12,.6,2.35,2.16,1.81,.6-.21,1.28,.34,1.68,.94,.28,.41,.68,.72,.99,.2,.32-.4,.26-.99-.14-1.32h-.02c-1.37-1.52-3.35-.41-4.67-1.63Z" fill="#b8a2cd"/><path id="as" d="M70.48,95.35c0,.57-.51,1.29,.48,1.55v.03c.02-.24,.19-.28,.39-.27,.4-1.89,2.73-.91,3.57-2.55-.88,.55-2.04,.29-2.6-.59-.04-.07-.08-.14-.12-.22-.53,.89-.48,2.08-1.72,2.04Z" fill="#b8a2cd"/><path id="at" d="M87.9,75.6c.22-1.29,.53-2.48-.86-3.25-.3-.24-.73-.24-1.03,0-.15,.18-.2,.43-.13,.66,.61,.86,.66,2.16,2.03,2.59Z" fill="#eae3f1"/><path id="au" d="M66.27,100.69c-.37-.09-.73-.18-1.1-.27-.43,.14-1.09-.01-1.05,.74,.03,.58,.41,.85,.97,.92,.67,.08,1.34,.21,2.03,.31,.28-.91-.94-.97-.85-1.71Z" fill="#b8a2cd"/><path id="av" d="M82.5,71.9c.1,.15,.2,.3,.29,.45,.12-.03,.23-.08,.33-.13,.47-.33,1.19-.56,.66-1.37-.23-.35-.46-.8-.99-.53-.75,.38-.47,1-.3,1.58Z" fill="#eae3f1"/><path id="aw" d="M87.6,80.29c-.21,.06-.54,.07-.59,.2-.15,.38,.22,.43,.47,.53h-.01l.12-.74h0Z" fill="#eae3f1"/><g id="ax"><path id="ay" d="M70.96,96.9v.02h-.01v-.02Z" fill="#d1c2df"/><path id="b`" d="M78.91,54.11c.25,.17,.51,.32,.76,.47-.3-.07-.57-.23-.76-.47Z" fill="#b8a2cd"/><path id="ba" d="M81.84,80.88h0Z" fill="#d1c2df"/><path id="bb" d="M51.13,86.57c1.1,.24,1.31-1.73,2.68-1.04,.76,.39,1.36,.16,1.98-.69,.62-.8,1.63-1.2,2.63-1.03,1.26,.22,2.51-.46,2.99-1.65,.52-1.5,2.03-1.08,3.09-1.51,.68-.17,1.39,.18,1.67,.82,.59,1.04,1.92,1.4,2.96,.81,.12-.07,.24-.15,.34-.24,.41-.45,1.6,.24,1.31-1.04-.62-2.21-.26-4.58,.98-6.51,.4-.51,.48-1.19,.22-1.78-.8-1.11-.41-2.42-1.05-3.63,.78,.11,1.38,.72,1.48,1.5,.28,1.14,.85,.99,1.53,.37h0c1.25-1.04,1.31-2.48,1.21-3.92-.05-.74,0-1.72,.56-1.83,1.55-.3,.86-2.84,2.77-2.58-.32-1.47,2.31-2.09,1.08-3.89-.51-.74,.13-1.54,.47-2.21,.14-.27,.8-.04,1.11,.33-1.45,1.17,.34,1.88,.4,2.89,.58-.8,1.92-.99,1.69-2.3-.12-.65-.73-.16-1.06-.35-.3-1.36-1.36-1.87-2.49-2.51,.61,.05,.56-1.21,1.21-1.12,2.02,.26,.73-.78,.43-1.28-.58-.96-1.78-1.55-1.69-2.9,1.72,.66,2.2,2.57,3.61,3.55l.35,.34h.01c-.14,.27-.42,.53-.05,.8,.86,.63,2.52,1.08,.41,2.26-.15,.08-.22,.6,.13,.52,1.14-.29,.79,.41,.59,.87-.23,.52-.03,.77,.31,1.11,.32,.31,1.11,.59,0,1.15-.73,.37-.93,.18-1.32-.33,.19,1.19-1.29,2.73,.91,3.47,.48,.16,.33,.87,.23,1.36h0c.37,.25,.83,.4,.98,.89,1.53-.23,2.03,1.01,2.75,1.93,.18,.4-1.53,.51-.18,1.1h0c.65,1.76,2.17,2.85,3.76,4.55-1.49-.41-2.18-.1-2.16,1.03,.02,.93-.58,.52-1,.5l-.21-.15c.03,.08,.06,.16,.09,.24,.09,1.73,.65,3.54-.92,4.98-.2,.18-.22,.55-.33,.84-.21,.06-.54,.07-.59,.2-.15,.38,.22,.43,.47,.53,.39,.73,.72,1.32-.37,1.89-.86,.45-.91,2.17-2.65,1.55,.7,1.52,.77,3.25,.2,4.82h0c-.53,.11-.61-.9-1.14-.53-.55,.39,.03,1.01-.1,1.51-.92,1.18-2.38,1.8-3.86,1.63-.58-.09-1.15,.2-1.41,.72-1.71,3.09-3.87,5.91-5.35,9.14-.83-.48-.42-2.15-1.92-1.98,.45-.89,.48-1.93,.09-2.85l.38-.26c.4-1.89,2.73-.91,3.57-2.55-.88,.55-2.04,.29-2.6-.59-.04-.07-.08-.14-.12-.22-.53,.89-.48,2.08-1.72,2.04-.33-1.19-1.14-2.18-2.24-2.73-.56-.34-1.33-.7-1.23-1.62,2.25-.81,4.26,.55,6.41,.76,3.49,.34,3.24,.19,5.22-2.9,.96-1.5-.26-2.18,.11-3.27,.47-1.16,.61-2.43,.4-3.66-.09-.41-.17-.87-.8-1.06-.54,.45-.36,1.21-.6,1.79-.18,.45-.42,.6-.74,.12h0c-.89,.06-1.26-.62-1.85-1.63-.23,3.03,.53,5.74-.76,8.23-.33,.48-1.39-1.33-1.59,.51-.03,.27-1.85,.13-2.84-.52-1.68-1.1-3.82-1.03-5.64-1.83-.07,.23-.15,.45-.23,.68-.38,.03-1.01,.26-.81,.5,.93,1.11,.55,2.67,1.32,3.69,.37,.47,.55,1.07,.52,1.67-.03,1.48-.32,2.95-.86,4.34,.36,.53,2.4,.45,.91,2.02-.43,.14-1.09-.01-1.05,.74,.03,.58,.41,.85,.97,.92,.67,.08,1.34,.21,2.03,.31,.28-.91-.94-.97-.85-1.71,.65-.15,1.38,1.19,2.01-.15,.17-.35,.7-.17,.89,.22,.33,.71,.57,1.66-.27,1.97-1.97,.73-1.42,1.76-.53,2.87,.38,.47-.1,.79-.04,1.2,.12,.85-.51,1.94,1.55,2.27-2.56,.58-1.39,1.07-.75,1.55l-.2,.77-.28,.26c-1.38,.92-2.26,2.97-4.48,1.99-.29-1.02-1-1.88-1.95-2.35,.37-1.12,1.23-1.93,1.51-3.22,.48-2.23-1.74-2.75-2.18-4.36-.21-.76-.82,.17-1.09,.56-.25,.36,.76,1.81-.86,.96-.06,.16-.21,.36-.17,.49,.27,.86-.11,1.72-.8,1.81-.86-.02-1.65-.46-2.12-1.18-.94-1.17-2.26-2.01-2.78-3.56-.18-.54-.94-.71-1.54-.93-1.05-.37-2.14-.89-.76-2.13,.36-.33-.4-1.98,1.2-1.02,.26,.15-.11-.83,.1-1.27,1.17,.34,1.61-.03,1.3-1.26-.32-.75-.45-1.56-.39-2.36,.07-.31,0-.7-.41-.66-.79,.06-1.48-.16-1.49-.98,.04-.84,.22-1.67,.54-2.45,.07-.19,1.23,.3,.61-.66-.27-.34-.68-.54-1.12-.53-.52,.08-.36,.69-.4,1.09,0,.32,.03,.64,.09,.96-1.8-1.13-1.84-1.8-.36-4.04Zm31.9-18.9c-1.37-1.51-3.35-.4-4.67-1.62,.43,1.12,.6,2.35,2.16,1.81,.6-.21,1.27,.34,1.68,.94,.28,.41,.68,.72,.99,.2,.32-.4,.26-.99-.14-1.32h-.02Zm1.54-2.67c-.09-.13-.08-.3,0-.43-.09,.13-.09,.3-.01,.43h0Zm1.31,8c.61,.86,.66,2.16,2.03,2.59,.22-1.29,.53-2.48-.86-3.25-.3-.24-.73-.24-1.03,0-.15,.18-.2,.43-.14,.65h0Zm-4.63,4.99c.41,.29-.25,.96-.52,1.42-.34,1.09-.53,2.23-.57,3.37,.23,.91,1.15,1.46,2.06,1.23,.13-.03,.26-.08,.38-.14,.31-.12,.77-.3,.58-.79-.17-.45-.53-.01-.72-.07-.62-.19-.76-.56-.75-1.16,0-.72,.34-.87,1.06-.93,.24-.02,1.2-.19,1.33-.04l.16,.18c-.04-.06-.09-.13-.13-.2-.02-.37,.35-.86-.46-.93-.88-.08-1.36-.75-1.8-1.76,.99,.26,2.04,.12,2.93-.38,.11-.6-.42-.41-.56-.6-.62-.68-1.54-1-2.45-.88-.24,.02-.49-.01-.72-.08,.04,.57-.72,1.13,.18,1.76h0Zm-.57-2.13c.04,.15,.26,.24,.39,.36,1.12-.97,1.76-2.39,1.74-3.87,.12-.03,.23-.08,.33-.13,.47-.33,1.19-.56,.66-1.37-.23-.35-.46-.8-.99-.53-.75,.38-.47,1-.3,1.58-2.84,1,.08-1.67-1.27-1.66-.2,.85-.78,.85-1.61,.51-.56-.23-.64-.07-.45,.63h.01c-.85,.92-2.65-.31-3.23,1.43,2.11-.32,4.14,.98,4.71,3.04h0Zm-26.38,25.95c.41,1.68,1.96,3.23,3.42,2.83,.92-.25,1.68-1.28,2.39-2.08,.55-.62-.28-.92-.52-1.36-.25-.48-1.16-1.16,.29-1.38,.37-.06,.34-.23-.26-.99q-1.44-1.79-.48-3.24c-1.59-1.05-2.58,.95-4.04,.62-.32-.07,.13,.51,.05,.89-.35,1.54-1.26,2.99-.84,4.7h0Zm.74-13.5c.45,1.02,.85-.76,1.61,0-.44,1.6-1.81,3.39-.04,5.2,.34,.02,.14-.39,.19-.61,.06-.28-.18-.61,.21-.92,1.62,.88,3.73,.32,5.15,1.91-.66-1.22-1.05-2.57-1.14-3.96-.59-.07-.61,.21-.71,.43-.19,.42,.06,1.23-.56,1.21-.82-.03-1.1-.93-1.44-1.54-.38-.68,.07-.73,.71-.99,.86-.36,.58-1.46,.45-2.29-.15-.75-.7-1.35-1.42-1.58-.24-.1-.51,0-.47,.34,.1,1.08-.82,1.11-1.45,1.35-.73,.27-1.43,.7-1.09,1.46h0Z" fill="#d1c2df"/></g><path id="bc" d="M88.97,74.39l-.21-.15c.03,.08,.06,.16,.09,.24l.12-.09Z" fill="#eae3f1"/><path id="bd" d="M71.35,96.66c-.2,0-.37,.03-.4,.27l.4-.27Z" fill="#b8a2cd"/><path id="be" d="M84.09,80.88l.16,.18-.13-.2-.03,.02Z" fill="#b8a2cd"/><path id="bf" d="M76.99,82.76l.16-.06-.15,.07h0Z" fill="#b8a2cd"/><path id="bg" d="M7.5,91.8c-.17,1.57,1.3,1.23,2.04,1.67,1.42,.81,2.9,1.49,4.43,2.06-.62-.39-.81-1.2-.45-1.84,.43-1.01,1.18-2.29-.31-3.29-.56-.38,.3-.69,.33-1.16,.16-.81-.37-1.59-1.17-1.74-.18-.04-.37-.04-.55,0-1.76,.1-3.31,1.21-3.95,2.86,.06,.73,1.31-.27,1.09,.71-.15,.69-.76,.92-1.47,.73h.01Z" fill="#eae3f1"/><path id="bh" d="M23.11,90.83c.53,1.42,1.6,2.58,2.98,3.22,1.31,.55,2.58-.52,3.73,.35,.13-.1,.24-.23,.31-.37,.08-.33-.1-.77-.35-.77-1.59,0-2.25-1.33-3.24-2.19-1.21,.47-2.16-.74-3.33-.52l.02-.02c-.02,.11-.06,.22-.12,.31Z" fill="#b8a2cd"/><path id="bi" d="M21.15,86.78c-.64-.6,.02-1.3-.27-2.35l-1.76,3.18c-.43-1.63-1.7-1.54-2.79-1.49-1.2,.05,.23,1.27-.75,1.62,1.1-.25,1.86-.83,2.9,.22,.92,.47,2.05,.1,2.51-.82,.06-.12,.11-.24,.14-.37h0Z" fill="#eae3f1"/><path id="bj" d="M33.08,91.7c-1.11-.02-2.18-.44-3-1.19-.38-.37-.86-1.42-1.63-.75-.79,.69,.07,1.42,.45,1.93,.6,.84,1.99,.41,2.68,1.47,.17,.26,1.1-.55,1.56-1.06l-.06-.39Z" fill="#b8a2cd"/><path id="bk" d="M23.21,90.53c1.17-.21,2.12,1,3.33,.52,.44-1.12-1.37-1.32-.99-2.42-.65-.05-1.32-.44-1.96-.09-.89,.48-.09,1.35-.39,1.98Z" fill="#eae3f1"/><path id="bl" d="M11.45,81.09l-.46,2.92c.66-.92,2.99,1.27,2.63-1.53-.21-1.67-1.04-1.55-2.16-1.4h-.01Z" fill="#eae3f1"/><path id="bm" d="M16.56,89.87c-.6,.68-1.52,.29-1.69,1.06-.15,.69,.22,1.39,.88,1.65,.71,.18,1.45-.16,1.78-.81,.38-.9-1.79-.39-.97-1.9Z" fill="#eae3f1"/><path id="bn" d="M26.76,95.06c-.81-.54-1.5-1.2-2.46-.71-.36,.18-.24,.69,.05,.96,.83,.79,1.56,.26,2.41-.26Z" fill="#b8a2cd"/><path id="bo" d="M33.08,91.7l.07,.39c.74,.03,.77,1.16,1.58,1.03,.1-.02,.25-.45,.2-.63-.3-.93-1.21-.57-1.84-.79Z" fill="#eae3f1"/><path id="bp" d="M7.49,91.8c0-.88-.49-.93-1.2-.71,.09,.83,.8,.51,1.21,.71h0Z" fill="#eae3f1"/><path id="bq" d="M21.15,86.78l.16-.05-.15,.06h0Z" fill="#eae3f1"/><path id="br" d="M23.11,90.83c.06-.1,.1-.2,.12-.31-.08,.06-.15,.12-.22,.19,.03,.04,.06,.09,.1,.12Z" fill="#eae3f1"/><path id="bs" d="M76.8,5.22c1.39,.5,2.53-.14,3.65-.82,1.22-.74,1.8-.16,1.75,1.02-.03,.73,.19,1.41,.17,2.05-.03,1.71,.63,2.58,2.28,2.79,.77-1.18,.61-1.05-.19-2.04-.48-.6-1.45-1.33-1.16-2.15,.57-1.58-.5-2.31-1.33-3.11-.61-.81-1.76-.97-2.56-.37-.16,.12-.3,.27-.41,.43-.68,.78-1.46,1.48-2.19,2.21Z" fill="#d1c2df"/><path id="bt" d="M80.97,13.15c-.11,.91,.92,.8,1.23,1.32,.45,.75,1.16,.61,1.78,.45,.6-.16,.45-.79,.53-1.25,.07-.42-.04-.75-.56-.7-.72,.13-1.46-.07-2.01-.55-.62-.53-.6,.46-.98,.74Z" fill="#d1c2df"/><path id="bu" d="M83.41,11.15c-.42-.35-.86-.68-1.32-.98-1.61-.94-1.98-.76-2.54,1.09,.83-.24,1.72-.17,2.49,.22,.35,.31,.88,.29,1.19-.06,.07-.08,.13-.17,.17-.27Z" fill="#d1c2df"/><path id="bv" d="M70.6,2.93c1.73-.33,2.68-2.34,4.64-2.14,1.6-1.38,3.58-.31,5.36-.76,.71-.18,2.27,.43,2.24,1.26-.08,2.46,2.35,2.7,3.36,4.17,1.32,1.93,2.13,6.13,.66,8.04-.17,.25-.34,.51-.48,.77-.9,1.48-1.22,3.43-3.1,4.12-2.38,.88-1.82,3.46-1.66,4.62,.2,1.56,.61,3.14,.69,4.83,.14,3.18-1.31,5.92-1.88,8.89-.03,.14-.23,.28-.39,.35-.86,.51-1.4,1.41-1.45,2.41-.85,.06-1.58-.57-1.65-1.42,0-.11,0-.21,0-.32l.51-.06-.07-.16-.44,.21c-.53-1.12,.91-.58,.99-1.21-.28-.35-.72-.22-1.09-.32-.01-.25,.08-.61-.05-.72-1.49-1.27-1.35-2.54-.06-3.84,.14-.11,.27-.22,.39-.34-1.02-1.47-.72-2.22,.99-3,.65-.3,1.15-2.33,.79-3.16-.79-1.8,.2-2.59,1.15-3.67,.33-.37,1.36-.74,.72-1.41-.57-.61-1.09,.24-1.55,.56-1.64,1.12-1.67,1.16-2.22-.62-.23-.74-1.36-.32-1.34-1.06,.03-.99,1.14-.39,1.61-.89,.46-.42,.98-.77,1.54-1.03,.41-.14,.84-.24,1.27-.3-1.46-1.2-2.78,.11-3.93-.28,.08-.86,1.05-.46,1.43-1.03-.7-1.15-1.55-1.86-2.98-1.11,.22-.53,1.33-1.25-.33-1.38-.81-.06-.46-.73-.36-1.12,.17-.57,.37-1.14,.61-1.68l.11-.08c.38,.17,.39,.46,.46,.86,.02,.89,.76,1.58,1.65,1.56,.38-.01,.75-.16,1.03-.41,.58-.47,1.26-.44,1.8-.81,.83-.24,1.72-.17,2.49,.22,.35,.31,.88,.29,1.19-.06,.07-.08,.13-.17,.17-.27,.72,.12,1.4,.18,1.24-.9,.77-1.18,.61-1.05-.19-2.04-.48-.6-1.45-1.33-1.16-2.15,.57-1.58-.5-2.31-1.33-3.11-.61-.81-1.76-.97-2.56-.37-.16,.12-.3,.27-.41,.43-.68,.78-1.46,1.48-2.19,2.21h0c-.29-.64-1.74,1.44-1.42-.61-.65-.13-.73,.54-1.1,.77s-.66,.86-1.23,.54c-.48-.27-.09-.76-.16-1.11-.24-1.26-1.5-.52-2.2-.96-.38-.29-.32-.89-.09-.93Zm13.36,10.03c-.72,.13-1.46-.07-2.01-.55-.62-.53-.6,.46-.97,.74-.11,.91,.92,.8,1.23,1.32,.45,.75,1.16,.61,1.78,.45,.6-.16,.45-.79,.53-1.25,.07-.41-.04-.75-.56-.7Zm-8.5-8.47s-.05,.07-.07,.12l.17-.13s-.08,0-.1,.01Z" fill="#eae3f1"/><path id="bw" d="M75.38,4.61l.18-.13s-.08,0-.1,.01c-.03,.04-.06,.08-.08,.12h0Z" fill="#d1c2df"/><path id="bx" d="M53.7,110.5c1.38,.49,2.56,1.48,4.3,.92,.76-.25,1.89,1.26,2.77-.21,0-.06,0-.12,0-.18-1.73-.22-2.33-1.99-3.71-2.69h0c-.15,1.08-.59,1.76-1.86,1.71-.54-.1-1.1,.07-1.5,.44Z" fill="#d1c2df"/><path id="by" d="M42.4,90.93c.8,.23,1.67,.35,2.21-.45s1.42-1.19,2.05-1.86c.12-.01,.25,0,.37,.01,1.96,.48,2.43-.5,2.17-2.2,.64,.12,1.35-.76,1.93,.15-1.49,2.24-1.45,2.91,.35,4.03-.06-.31-.09-.63-.09-.96,.03-.4-.12-1.01,.4-1.09,.43,0,.85,.18,1.12,.53,.62,.96-.54,.47-.61,.66-.32,.78-.51,1.61-.54,2.45,.01,.81,.7,1.04,1.49,.98,.41-.03,.48,.35,.41,.66-.06,.81,.07,1.62,.39,2.36,.3,1.23-.13,1.61-1.3,1.26-.21,.43,.16,1.42-.1,1.27-1.6-.96-.84,.7-1.2,1.02-1.38,1.24-.29,1.75,.76,2.13,.6,.22,1.36,.39,1.54,.93,.52,1.54,1.83,2.39,2.78,3.56,.47,.72,1.26,1.16,2.12,1.18,.68-.09,1.07-.95,.8-1.81-.04-.13,.11-.32,.17-.49,1.61,.85,.61-.6,.86-.96,.28-.4,.89-1.33,1.09-.56,.44,1.61,2.66,2.13,2.18,4.36-.28,1.29-1.15,2.09-1.51,3.22l-1.45-.08c0-.06,0-.12,0-.18-1.73-.22-2.33-1.99-3.7-2.69-.15,1.08-.6,1.76-1.86,1.71-.54-.1-1.1,.07-1.51,.45-1.58-1-3.17-1.99-4.73-3.02-.55-.39-1.18-.67-1.84-.81-.04-.68-.28-1.33-.7-1.87-.87-1.74-.26-3.87,1.4-4.88-.26-.58-1.72-.2-1.24-1.09,.46-.85-.16-2.66,1.78-2.45,0-1.04,1.05-1.63,1.16-2.67,.04-.35,.64-.65-.05-.96-.48-.21-.96-.71-1.48-.09-.15,.18-.17,.61-.32,.64-2.28,.52-2.42,1.74-1.35,3.57,.24,.4-.18,1.17-.86,1.2-.98,.04-.34-.58-.36-.99-.06-1.23-1.73-1.21-1.94-2.36-.35,.08-.81,0-.97,.42-.36,.92-.29,1.92-.68,2.87-.41,1.01,.47,1.58,1.16,2.23,.43,.49,.66,1.13,.63,1.78-.02,.41-.72,.26-1.14,.19l-1.13-.23c-.43-2.26-.55-4.57-.38-6.86,.01-1.11,.84-3.23-1.29-3.93,.92-.51,2.01-.6,3-.26Zm10.22,6.45s.06,.05,.1,.07l-.12-.16s0,.08,.02,.1Zm-1.57,7.03c-.05-.02-.11-.03-.16-.05h0c.05,.02,.11,.03,.16,.05h0Zm-1.91-.65c.34,.75,.38-.52,.76-.17,.31,.28,.65,.51,.98,.76,1.21-.84,.17-1.29-.37-1.75-.32-.27-.78-.05-1.01,.19s-.47,.74-.37,.97Z" fill="#eae3f1"/><path id="c`" d="M52.73,97.45l-.12-.17s0,.08,.01,.1c.03,.03,.07,.06,.12,.07h0Z" fill="#d1c2df"/><path id="ca" d="M48.37,96.38l.06,.17-.07-.17h0Z" fill="#d1c2df"/><path id="cb" d="M57.06,108.35l-.06-.15,.06,.15h0Z" fill="#d1c2df"/><path id="cc" d="M83.59,53.17c1.97,.88,2.81,2.91,4.37,4.21,1.48,1.23,.81,3.82,2.98,4.62,.23,.08-.06,.55-.2,.83-.2,.26-.19,.62,.03,.86,1.02,.97,.82,2.47,1.55,3.56,.97,1.45-.32,3.2,.53,4.57,1,1.61-.83,3.34,.42,4.9,.24,.3-.37,.89-.73,.93-2.05,.23-1.82,1.55-1.58,2.98,.03,.61,.03,1.23,0,1.85,.09,1.71-1.38,3.08-.91,4.96,.18,.72-.91,1.25-1.77,1.07-.85-.2-1.71,.23-2.07,1.02-.71,1.51-1.55,1.65-2.79,.74,.14-.5-.45-1.12,.1-1.51,.53-.38,.62,.64,1.14,.53,.02,.06,.04,.11,.06,.17-.02-.06-.04-.12-.06-.17,.57-1.57,.5-3.3-.2-4.82,1.74,.62,1.8-1.1,2.65-1.55,1.09-.57,.76-1.16,.37-1.88,.1-.03,.23-.05,.35-.08-.11,.03-.25,.05-.35,.08h-.01c.04-.25,.08-.5,.12-.75h.01c.1-.28,.13-.65,.33-.83,1.57-1.44,1-3.25,.92-4.98l.12-.09c.43,.02,1.02,.43,1-.5-.02-1.14,.67-1.44,2.16-1.03-1.59-1.71-3.11-2.79-3.76-4.54l.14-.06-.15,.05c-1.36-.59,.36-.7,.18-1.1-.73-.92-1.23-2.15-2.75-1.93-.16-.49-.61-.64-.98-.89,.1-.49,.25-1.2-.23-1.36-2.2-.74-.72-2.28-.91-3.47,.39,.51,.59,.7,1.32,.33,1.1-.56,.31-.84,0-1.15-.34-.34-.54-.59-.31-1.11,.2-.46,.55-1.16-.59-.87-.35,.09-.28-.43-.13-.52,2.12-1.18,.45-1.64-.41-2.26-.36-.26-.07-.52,.06-.78Z" fill="#eae3f1"/><path id="cd" d="M84.66,89.28l.06,.17-.06-.17h0Z" fill="#d1c2df"/><path id="ce" d="M88.36,68.31l.14-.06-.15,.05h0Z" fill="#d1c2df"/><path id="cf" d="M88.53,67.2l.15-.05-.15,.06h0Z" fill="#d1c2df"/><path id="cg" d="M50.87,66.9c-.44,1.46-.71,2.72,1.17,3.32,.82,.26,1.15,1.12,.98,2.25,1.55-2.16,1.52-2.1-.42-3.5-.66-.62-1.24-1.31-1.73-2.07Z" fill="#b8a2cd"/><path id="ch" d="M35.3,69.4c-.5,.86-2.06-.63-2.03,1.03-.02,1.09,.74,2.04,1.81,2.27,.48,.12,1.02,.21,1.18-.48,.11-.48,.25-.87-.54-1.02-1.09-.2-.15-1.11-.42-1.8Z" fill="#b8a2cd"/><path id="ci" d="M41.37,71.48c.93-.09,.03,1.59,.82,1.08,.72-.68,1.26-1.54,1.56-2.49,.17-.36-.39-.55-.58-.32-.54,.65-1.65,.66-1.86,1.66l.06,.07Z" fill="#eae3f1"/><path id="cj" d="M51.6,63.99c1.21,.2,2.41,.38,2.78-1.28,.09-.39,.18-.74-.3-.88-.24-.09-.52,.03-.61,.28-.02,.06-.03,.12-.03,.18,.04,1.3-1.62,.72-1.83,1.71h-.01Z" fill="#b8a2cd"/><path id="ck" d="M48.47,65.43c-.13,.07-.25,.14-.38,.22,.56,1.16-.04,1.55-1.07,1.74-.09,.02-.22,.48-.15,.67,.16,.42,.37-.03,.56-.03,1.44,0,1.73-.85,1.55-2.07-.04-.28-.19-.43-.52-.52Z" fill="#b8a2cd"/><path id="cl" d="M28.3,73.68c-.15,.7,.4,.68,.79,.72,.34,.03,.94,.45,.95-.37,0-.49,.04-1.11-.53-1.27-.7-.2-.9,.49-1.21,.93Z" fill="#b8a2cd"/><path id="cm" d="M53.89,73.43c.18,.04,.36,.07,.54,.09,.52,.04,1.14,.33,1.37-.46,.15-.32,0-.7-.32-.85-.03-.01-.06-.02-.09-.03-.74-.27-.95,.3-1.21,.79-.09,.16-.2,.31-.3,.46h0Z" fill="#b8a2cd"/><path id="cn" d="M32.37,85.15c.13,.33,.22,.7,.68,.69,.09-.04,.16-.13,.18-.23-.11-.46-.56-.33-.86-.45h0Z" fill="#eae3f1"/><g id="co"><path id="cp" d="M14.08,69.78c.47,.08,.93,.15,1.4,.22-.11,.6-.76,0-.82,.54q2.1,.41,1.9-2.02c-.78,1.63-2.13,.99-2.28,.4-.21-.85-2.45-1.9-.15-2.88,.29-.12,.31-.32,.18-.59-.57-1.22,.36-.95,1-1.03,1.19-.14,2.76-.76,3.03-1.46,1.1-2.89,3.57-4.34,5.7-6.12,.62-.47,1.06-1.14,1.24-1.9,.18-.73-.21-2.38,1.56-1.3,.23,.14,.27-.11,.35-.25,.9-1.13,1.92-2.14,3.05-3.04,1.17-1.14,2.2-2.85,4.27-2.7,1.13,1.76-.33,2.93-1.27,3.76-.87,.77-.62,.86,0,1.34,.99,.75,1.57,1.94,.9,2.89-1.33,1.88-2.86,1.91-4.97,.54-.45-.29-.99-.78-1.45-.42-.29,.22-.35,.93-.28,1.39,.08,.59,.25,1.2,1.21,.78,.42-.18,1.69,2.04,1.37,2.49-.73,1.01-.91-.26-1.37-.43-.27-.1-.45-.16-.58,.15-.53,1.27-.68,.55-.99-.14-.18-.4-.6-.92-1.17-.48-.54,.42-.6,.93,.08,1.33,.05,.03,.1,.07,.15,.12,1.34,1.21-.31,1.2-.71,1.54-1.24,1.05,1.82,.82,.48,1.77-.55,.39-1.07,.99-1.91,.66-.26-.1-.7-.12-.77,.27-.07,.31,.13,.62,.44,.69,.07,.02,.14,.02,.21,0,1.49-.01,.99,.46,.27,1.03-.31,.24-.43,.64-.31,1.01,.62,1.95-.86,2.04-2.04,2.21-.68,.1-1.36-.15-.85,.92-.64,.21-.53,1.57-1.63,1.07l-1.11-.23c-.31,1.23-.02,2.5,1.16,2.76,.99,.22,2.14-.95,3.27,.12,.17,.16,.46-.3,.45-.64-.02-.73-.58-1.75,.89-1.67,.78,.04,1.64-.64,2.32,.39,.26,.38,.77,.47,1.14,.22,.12-.08,.21-.19,.27-.31,.49-1.18,1.27-1.09,2.25-.88,.48,.1,1.22,.48,1.47-.26,.26-.79-1.12-.12-.99-.98,1.28-.11,1.06-1.91,2.31-2.09,.61-.54,.92-1.12,.28-1.85-.71,.19-.81,1.87-1.76,1.03-.62-.55-2.8-.97-1.07-2.66,.1-.1-.05-.47-.11-.71-.34-.95,.15-2,1.1-2.35,.11-.04,.23-.07,.34-.09-.19-1.17,1.26-1.16,1.46-2.04h0c.07-.07,.14-.14,.2-.22-.04-.04-.08-.08-.12-.12l-.05-.07c1.14-1.73,2.23-3.5,3.45-5.18,.39-.47,.53-1.09,.4-1.68-.32-1.91,1.2-2.9,3.16-2.38,1.16,.31,2.36,1.18,3.62,.56,1.78-.88,2.44-.68,3.64,.25s1.38,1.69,.66,2.94c-.15,.26-.88,.51-.39,.97,.34,.26,.8,.29,1.18,.09,.55-.18,1.77-.68,1.77,.02,0,1.42,1.38,2.77,.28,4.2-.47,.61-1.03,1.14-1.59,1.76,1.83,.11,1.86,.13,2.23-.66,.34-.73,.84-1.8,1.61-1.05,1.12,1.08,1.24-.77,1.95-.39,.05,.03,.1,.07,.14,.11,.68,.58,1.46,1.02,2.3,1.31,1.21-.18,1.19,.51,.97,1.31-.44,1.29-.18,2.72,.69,3.77,.74,.53,.91,1.55,.39,2.29-.02,.03-.04,.06-.07,.09,1.24-.33,1.3-1.27,1.51-1.97,.5-1.66,1.17,.42,1.76-.21-.07-.27-.09-.55-.06-.82,.27-.79,.69-1.84,1.51-1.74,.63,.08,2.15,.32,1.96,.93-.43,1.36,.63,1.89,.97,2.79h0c-.48-.11-.95-.25-1.41-.41-.52-.23-1.18-.6-1.57-.23-.61,.58,.32,.89,.53,1.33,.37,.66,.38,1.47,.02,2.14-.39,.41-.97,.59-1.53,.48-1.68-.7-3.27-1.32-5.16-.68-.68,.23-1.76-.36-2.16,.51-.35,.76,.6,1.4,.79,2.18,.2,.49,.72,.75,1.23,.61,.51-.09,.83,.29,.55,.6-.68,.77,.43,1.26,.28,1.93q-3.33-.41-4.72-1.84h0c-.52,.32-1.26,1.02-1.51,.88-.64-.38-1.23-.91-1.59,.04-.32,.86,.11,1.82,.96,2.16,1.86,.92,.97,1.83,.03,2.87-1.92-4.75-2.67-5.02-5.36-2.38-.8-1.49,.92-2.41,.82-3.72-.04-.45,.73-1.14-.3-1.29-.95-.14-.96,.69-.92,1.25,.05,.68,.05,1.16-.65,1.53-.53,.34-.85,.93-.84,1.56-.03,.44,.31,1.16-.51,1.02-.4-.13-.63-.56-.5-.96,.03-.1,.08-.19,.15-.27,.94-.84,.3-2.09,.93-2.97,.26-.37,.29-.72-.24-.81-.45-.08-1.24-.35-1.2,.35,.12,1.99-1.55,3.33-1.7,5.19-.62-.45-1.45-.46-2.08-.01-.85,.91-1.67,.67-2.59,.41-.04-.08-.08-.17-.11-.26,0-.02,.09-.06,.13-.09,1.4-1.22,2.89-2.37,3.11-4.41l.17-.17-.21,.11c-.89,.82-2.23,.96-2.99,2.01-.22,.31-.52-.05-.75-.1-1.63-.39-3.45-1.61-4.81,.55,.26,.29,.54,.55,.84,.8,1.93,1.41,1.89,2.38-.06,3.64-.5,.32-1.62,.37-1.26,1.3,.43,1.11,.62-.73,1.15-.22,.19,.16,.4,.29,.62,.4,.79,.46,1.47,1.09,2.25,1.58,.89,.38,1.31,1.42,.92,2.31-.19,.44-.55,.78-.99,.95-1.8-.24-.42,.71-.12,1.14-.75-.08-1.5-.2-2.24-.38-.5-.15-1.46,.21-1.42-.53,.03-.67,.26-1.67,1.35-1.74,.38-.43,.55-1,.48-1.56-1.35,1.17-3.11-.53-4.48,.81-.05,.05-.54-.24-.73-.46-.26-.29,.12-.38,.27-.54,.79-.88,.7-.82,.02-1.8-.27-.59-.39-1.24-.37-1.89-.05-.47-.18-.87-.66-1.01-.52-.15-1.2,.01-1.32,.42-.75,2.44-2.22,1.06-3.41,.64-.49-.17-.86-.72-1.48-.49-1.2,.45-.69-.55-.82-.98-.12-.38,.47-1.23-.65-.88-.54-.11-1.1-.19-1.28-.86-.36-1.37-1.3-1.57-2.51-1.27-.86-.57-1.41-1.51-1.48-2.54h0c.03-.23,.05-.46,.08-.69-.03-.31-.06-.61-.4-.77s-1-.12-.72-.79c.14-.5,.64-.81,1.16-.72Zm47.45-2.24c-.06-.01-.12-.02-.18-.02,.06,0,.12,0,.18,.02,.06,.01,.12,.04,.17,.08-.05-.04-.11-.06-.17-.07h0Zm-.41,.61c-.06-.09-.11-.18-.16-.24,.05,.06,.1,.16,.16,.24h0Zm-2.61-1.45c.06-.1,.11-.2,.17-.29l-.17,.29h0Zm-4.43-4.87c-.24-.09-.52,.03-.61,.28-.02,.06-.03,.12-.03,.18,.04,1.29-1.61,.72-1.83,1.7,1.21,.2,2.4,.37,2.77-1.28,.09-.38,.18-.73-.3-.87h0Zm1.3,4.65c.09,0,.19,0,.28,0-.09,0-.18,0-.28,0h0Zm.06-.2h0Zm.08-.18h0Zm.39-.11h0s.01,.01,.02,.01-.01-.01-.02-.01Zm-.23,.48s.04,0,.06-.01c-.02,0-.04,0-.06,0h0Zm.09-.01s.04-.01,.05-.02c-.02,0-.04,.02-.05,.02h0Zm.08-.03s.03-.03,.05-.04c-.01,.01-.03,.03-.05,.04h0Zm.13-.33s.02,.03,.02,.04c0,.05-.01,.09-.03,.14,.01-.04,.02-.09,.03-.14,0-.01,0-.03-.02-.04h0Zm-.06,.27s.03-.05,.04-.08c-.01,.03-.02,.05-.04,.07h0Zm-1.5,7.17c.52,.04,1.14,.33,1.37-.46,.15-.32,0-.7-.32-.85-.03-.01-.06-.02-.09-.03-.74-.27-.95,.3-1.21,.79-.08,.16-.2,.31-.3,.46,.18,.04,.36,.07,.55,.09h0Zm1.07-5.51c-.04-.51-.09-1.02-.14-1.53-.76-.08-1.67-.39-2.13,.43-.26,.46,.1,1.04,.73,1.23,.42-1.11,1.04,.14,1.53-.13h0Zm-3.46,2.2c.82,.26,1.15,1.12,.98,2.25,1.55-2.16,1.52-2.1-.42-3.5-.66-.62-1.24-1.31-1.73-2.06-.43,1.44-.71,2.7,1.17,3.3h0Zm-5.16-2.14c.16,.42,.37-.03,.56-.03,1.44,0,1.73-.85,1.55-2.07-.04-.28-.19-.43-.52-.52-.13,.07-.25,.14-.38,.22,.56,1.16-.04,1.55-1.07,1.74-.09,0-.21,.47-.14,.66h0Zm-4.68,4.51c.72-.68,1.26-1.54,1.56-2.49,.17-.36-.39-.55-.58-.32-.54,.65-1.65,.66-1.86,1.66h0l.06,.07c.93-.09,.03,1.59,.83,1.08h0Zm-1.03-.73l-.06,.11h0l.06-.11Zm-.15,.01s.02,.02,.03,.04c-.01-.02-.02-.03-.03-.04h0Zm.48-8.76c.58-.08,.46-.6,.57-.97,.73,.22,1.5-.17,1.75-.89,.1-.22-.29-.88-.6-1.01-1.64-.71-.87,1.07-1.46,1.48-.5,.23-.54,.75-.68,1.19,.11,.11,.26,.19,.42,.2h0Zm-2.32-1.8h0c.07,.82,.55,.66,.64,.13,.26-1.59,1.09-2.96,1.5-4.46,.24-.87-.78-1.19-1.61-1.23l-.04-.05c.31-.58,1.06-1.09,.2-1.82-.25-.21-.22-.75-.79-.55-.46,.16-.41,.45-.46,.85-.16,1.33-1.63,2.69,.16,3.97,.03,.23-.04,.46-.19,.63-2.01,1.38-.13,1.82,.61,2.54h0Zm-5.9,9.16c-.02,1.09,.74,2.04,1.81,2.27,.48,.12,1.02,.21,1.18-.48,.11-.48,.25-.87-.54-1.02-1.09-.2-.15-1.11-.42-1.8-.5,.85-2.06-.63-2.03,1.02h0Zm-.9,14.73c.13,.33,.22,.69,.68,.68,.09-.04,.16-.13,.18-.23-.11-.47-.55-.34-.86-.46h0Zm-3.28-10.76c.34,.03,.94,.45,.95-.37,0-.49,.04-1.11-.53-1.27-.71-.2-.9,.49-1.21,.93-.15,.69,.4,.68,.79,.71h0Zm-11.06-3.7l1.45,.28h0c-.54-1.44-.06-1.98,1.45-1.68,.44,.09,1.03,.43,1.3-.18,.1-.24-.22-.67-.35-1.01-.3-.77-.74-.36-1.18-.15-.17,.07-.35,.11-.53,.12-2.47,.29-2.48,.3-2.14,2.61h0Z" fill="#d1c2df"/><path id="cq" d="M36.32,90.57c-.21,.44-.7,.68-1.17,.56-.06-.01-.15-.24-.11-.28,.28-.43,.86-.55,1.29-.28Z" fill="#d1c2df"/><path id="cr" d="M41.46,77.9h0Z" fill="#d1c2df"/></g><path id="cs" d="M31.51,61.94l.06,.16-.07-.15h.01Z" fill="#b8a2cd"/><path id="ct" d="M33.04,59.58c-.02,.11-.05,.22-.08,.33,.07-.07,.14-.14,.2-.22-.04-.04-.08-.08-.12-.11Z" fill="#b8a2cd"/><path id="cu" d="M39.92,73.52l.17-.17-.21,.11,.04,.06Z" fill="#b8a2cd"/><path id="cv" d="M18.03,70.7l1.45,.28c-.54-1.44-.06-1.98,1.45-1.68,.44,.09,1.03,.43,1.3-.18,.1-.24-.22-.67-.35-1.01-.3-.77-.74-.36-1.18-.15-.17,.07-.35,.11-.53,.12-2.47,.29-2.48,.3-2.14,2.61Z" fill="#b8a2cd"/><path id="cw" d="M58.39,43.16c-.73-.05-1.23,.12-1.28,.83-.08,.35,.06,.72,.37,.92,.58-1.41,1.92,1.31,2.27-.37,.13-.63-.73-1.16-1.36-1.37Z" fill="#b8a2cd"/><path id="cx" d="M52.74,42.37l-.22,.2,.28,.3c.06-.09,.16-.18,.16-.26s-.12-.14-.22-.24Z" fill="#eae3f1"/><g id="cy"><path id="d`" d="M17.69,79c.59-.08,1.29-.05,1.37-.92l.15-.67c1.11-.35,.52,.5,.65,.88,.13,.42-.38,1.43,.82,.98,.62-.23,.99,.31,1.48,.49,1.18,.42,2.66,1.8,3.41-.64,.12-.41,.8-.57,1.32-.42,.48,.14,.6,.54,.66,1.01-.02,.65,.11,1.3,.37,1.89,.68,.99,.78,.93-.02,1.8-.15,.17-.52,.25-.27,.54,.19,.22,.68,.51,.73,.46,1.38-1.34,3.13,.36,4.48-.81,.07,.57-.11,1.14-.48,1.56-1.09,.07-1.31,1.07-1.35,1.74-.04,.74,.92,.38,1.42,.53,.74,.17,1.48,.3,2.24,.38-.3-.43-1.68-1.38,.12-1.14,1.04,.55,1.83,1.48,2.2,2.59-.69,.86-.82,.88-1.56,.04-.83-.93-1.66-1.52-2.7-.28-.42,.5-.83,.17-1.1-.11-1.12-1.2-2.65-1.93-4.29-2.06,.84-1.47,.45-2.15-1.13-2.17-.3,0-.62,.13-.91,.1-.99-.1-2.74-1.84-2.33-2.13,.85-.59,.84-1.08,.07-1.5-.74-.4-1.23,.07-1.58,.8-.25,.52-1.22,.9-1.29,.55-.31-1.66-1.71-1.52-2.76-1.96-.44-.18-.77-.45-.71-.95,.06-.63,.56-.5,.98-.55Z" fill="#eae3f1"/></g><path id="da" d="M74.56,16.96c.4-.83,.42-1.8,.05-2.65-.65,.39-1.05,1.18-1.9-.11-.93-1.41-2.16-.71-3.04,1.64-.74-.21,.06-2.07-1.52-1.4-.61,.26-.88,.57-.2,1,1.42,.89,1.08,1.83-.1,3.03,2.63-.04,4.48,2.62,7.28,1.25-.3-.85-1.35-.02-1.73-.98,.11-.48,1.37-.47,1.1-1.41h0c-.25-.17-.24-.29,.06-.37h0Z" fill="#eae3f1"/><path id="db" d="M57.01,15.25c1.84-.73,2.41-2.61,4.37-3.51-3.1-.1-4.36,.99-4.37,3.51Z" fill="#eae3f1"/><path id="dc" d="M73.14,27.75c1.57,.32,1.37-1.44,2.35-1.66-.1-.27,.09-.64-.28-.8-1.01,.33-1.96,.83-2.81,1.48-.18,.77,.26,.97,.73,.98Z" fill="#eae3f1"/><path id="dd" d="M30.3,15.08c.42-.47,1.91-.75,.43-1.77-.24-.17,.02-.61,.31-.75,1.08-.52,1.31-1.58,1.61-2.56,.12-.4,.16-.76,.64-.69,2.03,.3,3.16-1.77,3.51-2.61,.74-1.77,1.72-.42,2.46-.71,.36-.14,1.15,.32,.65,1.25-.41,.75-.93,1.64,.04,2.47,.12,.27,.1,.59-.07,.84-1.09,.9-.95,2.44-1.85,3.44-.18,.2-.22,.8-.5,.63-1.31-.76-2.62,.25-3.91,0,.06-.88,1.05-.71,1.27-1.44-.53-.21-1.21-.9-1.52-.29s-1.44,1.24-.93,1.84c1.44,1.72-.28,1.91-1.05,2.59h.01l-.44,.31h.01c-1.97-.79-2.01-1.03-.67-2.54Z" fill="#d1c2df"/><path id="de" d="M30.96,17.62l.44-.32-.44,.32Z" fill="#eae3f1"/><path id="df" d="M45.55,34.25c.13,.17,.25,.34,.38,.51,.15-.28,.1-.62-.11-.85l-.27,.34Z" fill="#eae3f1"/><g id="dg"><path id="dh" d="M81.06,76.22h0Z" fill="#b8a2cd"/><path id="di" d="M81.24,77.99c-.9-.63-.13-1.19-.18-1.76,.23,.07,.48,.09,.72,.08,.91-.12,1.83,.2,2.45,.88,.14,.19,.67,0,.56,.6-.89,.5-1.94,.64-2.93,.38,.1,.03,.35,.71,.43,.84,.17,.28,.39,.51,.66,.69,.41,.24,1.62,.23,1.31,1.06-.13,.34-.58,.39-.94,.37-1.06-.05-2.37,1.41-.87,1.88,.18,.06,.54-.38,.72,.07,.19,.49-.27,.67-.58,.79-.83,.44-1.85,.12-2.29-.71-.06-.12-.11-.25-.14-.38,.04-1.14,.23-2.28,.57-3.37,.27-.46,.93-1.13,.52-1.42Z" fill="#b8a2cd"/></g><path id="dj" d="M79.18,71.4l.18-.14-.19,.13v.02Z" fill="#d1c2df"/><path id="dk" d="M39.18,61.27l.17-.07-.17,.06h0Z" fill="#d1c2df"/><path id="dl" d="M39.24,55.95l-.18,.18,.23-.11-.05-.07Z" fill="#d1c2df"/><path id="dm" d="M38.77,58.1c-1.78-1.28-.31-2.63-.16-3.97,.05-.4,0-.7,.46-.85,.57-.19,.54,.34,.79,.55,.86,.73,.1,1.24-.2,1.82l.04,.05-.42,.31-.05-.07-.18,.18,.23-.11,.42-.31c.84,.05,1.85,.37,1.61,1.23-.41,1.5-1.24,2.87-1.5,4.46-.09,.53-.57,.69-.64-.13l.17-.07-.17,.06c-.73-.72-2.61-1.16-.6-2.54,.15-.17,.22-.4,.19-.63Z" fill="#eae3f1"/><path id="dn" d="M41.76,61.68l.32,.44-.32-.44Z" fill="#d1c2df"/><g id="do"><path id="dp" d="M71.16,29.55c-.08,.49-.54,.82-1.03,.76,.03-.42,.21-.81,.51-1.11,.09,.06,.22,.13,.33,.19s.19,.12,.18,.16Z" fill="#d1c2df"/><path id="dq" d="M39.1,18.48c.52,0,.98-.33,1.14-.82,.18-.87-1.14,.17-1.05-.76,.49-.34,1.12-.41,1.67-.17,.78,.24,1.63,.1,2.3-.38,1.97-1.98,3.2-2.08,5.4-.11,1.28,.36,1.74-1.64,3.11-1.05,1.34,.57,1.84-.42,2.04-1.39,.23-.9,.21-1.84-.05-2.73-.74-1.88,.43-1.71,1.37-1.27,.78,.36,1.84-.43,2.35,.66,.56-1.35,1.39-.56,2.09-.13,.49-.85-.63-1.63,.15-2.38,.63,0,.94,1.92,1.84,.35,0,0,.26,.08,.27,.15,.3,1.96,2.42,1.41,3.37,2.47,.45,.51,1.16,.84,1.64,.47,.4-.44,.57-1.04,.45-1.63-.21-.7-.52-1.48,.34-1.58,.79,0,1.47,.58,1.59,1.36,.13,.69,.81,1.89,1.62,1.32,1.24-.86,2.47-.65,3.75-.72-.24,.55-.44,1.11-.61,1.68-.09,.4-.45,1.06,.36,1.12,1.66,.13,.55,.84,.33,1.38-.64,.38-1.04,1.17-1.89-.12-.93-1.41-2.16-.71-3.04,1.64-.74-.21,.06-2.07-1.52-1.4-.61,.26-.88,.57-.2,1,1.42,.89,1.08,1.83-.1,3.03,2.63-.04,4.48,2.62,7.28,1.25-.3-.85-1.35-.02-1.73-.98,.11-.48,1.37-.47,1.1-1.41-.24-.17-.24-.29,.06-.37,.4-.83,.42-1.8,.05-2.64,1.42-.74,2.27-.03,2.97,1.11-.38,.57-1.34,.17-1.43,1.02-.36-.09-.74,.13-.83,.49-.01,.04-.02,.09-.02,.13,.08-.5,.39-.67,.86-.62-.02,.21-.12,.4-.27,.53,.16-.13,.26-.32,.27-.53,1.14,.41,2.46-.91,3.92,.29-.43,.06-.86,.16-1.27,.3-.56,.27-1.08,.62-1.54,1.03-.47,.5-1.58-.1-1.61,.89-.02,.74,1.11,.32,1.34,1.06,.55,1.77,.57,1.75,2.22,.62,.46-.32,.98-1.17,1.55-.56,.63,.68-.4,1.04-.72,1.41-.95,1.07-1.94,1.87-1.15,3.67,.36,.83-.14,2.86-.79,3.16-1.71,.78-2.02,1.53-.99,3-.12,.12-.25,.23-.39,.34-.63,.1-1.13-.55-1.79-.3-.31-.02-.61,.02-.91,.11,.29-.09,.6-.13,.9-.11-.12,0-.45,1.03-.72,1.13-.61,.23-.66-.7-1.22-.74-.31-.02-.41,.17-.62,.32-.25,.2-.6,.2-.85,.01-.53-.27-.76-.85-1.35-1.05-.28-.09-.58-.11-.57-.5,.02-.2,.11-.39,.26-.54,.14-.14,.28-.3,.4-.46,.15-.27,.25-.57,.28-.88,.05-.3,.01-.81,.34-.94,1.04-.4,.35-1.13,.39-1.63,.03-.43-.72-.4-1.08-.34-1.29,.22-.05,.91-.06,.93-.73,.64-1.13,1.46-1.81,2.14-.9,.89-2.23,.38-3.23,1.24-.15,.15-.32,.28-.5,.38-.19,.1-.43,.06-.58-.09-.21-.27,.04-1.26,.23-1.51,.24-.25,.51-.47,.8-.65,.7-.52,.73-1.51,1.05-2.29,.28-.85,.84-1.58,1.59-2.07-.7-1.01-1.64,.09-2.31-.26-.85-.44,0-1.58-.75-2.2-.88,1.07-2.25,1.91-2.61,3.32-.19,.74,.29,1.61-.22,2.14-.66,.5-1.51,.7-2.33,.55l-4.26-.23c-.56-.11-1.13-.16-1.71-.17-.43,.06-.79,.4-1.21,.34-.64,.97-1.6,1.69-2.72,2.02-.65,.63-3.07,.85-3.28,.21-.25-.84-.93-1.5-1.78-1.72-.98-.31-1.49,.78-2.41,1.06,.49-.6,.59-1.43,.28-2.14-.43-.61-.75-2.01-.95-1.82-.78,.76-1.64-.06-2.4,.42-.82,.51-1.04-.38-.86-.83,.65-1.61,.04-3.24,.25-4.85,.09-.58-.1-1.09,.72-1.18Zm34.03,9.27c1.57,.32,1.37-1.44,2.35-1.66-.1-.27,.09-.64-.27-.8-1.01,.33-1.96,.83-2.81,1.48-.18,.78,.26,.97,.73,.99h0Zm-1.53,3.77h0Zm-14.51-16.6s.04,.03,.07,.04c1,.56,3.11-3.25,4.21-3.22-1.15-.14-2.32,.12-3.3,.74-.35,.28-.62,.65-.79,1.06-.14,.33-.54,1.09-.19,1.36h0Zm-6.88,10.05c.09-.02,.18-.04,.27-.05-.18,0-.35,.05-.51,.12,.07-.03,.15-.06,.24-.08h0Zm-.33,.12s-.05,.02-.08,.03c0,0-.02,.01-.02,.01,.03-.02,.07-.04,.11-.05h0Zm-2.07-8.92s.08-.01,.11,0c-.04,0-.08,0-.11,0Zm.64,1.78c.06-.08,.12-.16,.16-.24-.05,.08-.1,.16-.16,.24Zm-.21-.67c-.11-.19-.23-.35-.32-.52,.09,.17,.22,.33,.32,.52h0Zm-2.94,7.76c-.29-.56-.54-1.14-.78-1.73,.24,.59,.49,1.17,.78,1.73h0Z" fill="#d1c2df"/></g><circle id="dr" cx="63.91" cy="26.31" r="2.27" fill="#1d130e"/><circle id="ds" cx="50.23" cy="26.4" r="2.27" fill="#1d130e"/><path id="dt" d="M70.76,48.86c.85,0,1.1,1.2,.94,2.05s-.42,1.88,.21,2.46c.47,.44,1.21,.35,1.82,.56s1,1.21,.4,1.44c-1.03,.23-2.1-.22-2.66-1.12-.58-.03-.99,.67-.92,1.25,.13,.58,.43,1.1,.85,1.51,.42,.41,.72,.94,.86,1.51,.02,1.02-.79,1.86-1.81,1.88-.19,0-.37-.02-.55-.07-1.12-.49-1.76-1.69-1.53-2.9,.17-.58,.27-1.18,.28-1.79-.07-.6-.69-1.19-1.22-.92-.48,.25-.47,.93-.6,1.46-.36,1.13-1.56,1.75-2.69,1.39-.24-.08-.47-.2-.67-.35-.41-.48-.76-1-1.04-1.56-.29-.57-.88-.92-1.52-.91-.61,.09-.98,1.07-.44,1.38-.49,.53-1.4,.19-1.85-.38-.35-.63-.74-1.24-1.16-1.82-.62-.61-1.55-.78-2.34-.42-.81,.38-.64,.95-1.14,1.54-.2,.27-.57,.36-.86,.2-.33-.23-.27-.76-.07-1.12,.25-.33,.42-.71,.51-1.11-.04-.47-.3-.9-.69-1.16-.39-.25-.71-.6-.93-1.02-.17-.44,.08-1.07,.55-1.06s.67,.55,.82,.98c.1,.39,.4,.7,.78,.81,.02-.14,.29-.52,.31-.73,.65,.14,1.1,.78,1.77,1.02,.69,.28,1.48,.06,1.92-.54,.32-.78,.14-1.68-.45-2.28,.56-.67,1.62-.11,2.19,.55s1.27,1.49,2.09,1.24c.69-.21,.94-1.06,1.19-1.75s.82-1.48,1.52-1.28c.71,.2,.78,1.2,.68,1.94s-.1,1.72,.58,2c.39-.42,1.13-1.61,1.65-1.78s.42,.22,.78,.17c.47-.06,.47,.11,1.07-.22,.53-.3,.66-1.07,1.39-1.06Z" fill="#d1c2df"/><path id="du" d="M64.77,53.05c1.15,.34,3.21-.99,4.05-1.62,.35-.26,.8-.52,1.2-.34,.36,.22,.52,.66,.37,1.06-.09,.32-.45,.75,.05,.93,.16,.04,.33,.08,.5,.1,.17,.03,.31,.16,.35,.33,.02,.29-.78,.64-.96,.95-.29,.51-.36,1.11-.18,1.67,.12,.38,.67,1.39-.23,1.32-.73-.06-.58-2.12-.89-2.67-.33-.56-.85-.98-1.46-1.19-1.09-.13-1.65,1.56-2.73,1.28-.7-.18-.91-1.04-1.48-1.46-.63-.47-1.34-.11-1.98-.39-.93-.41,.42-.99,.73-1.25,.48-.4,1.32-1.3,1.84-.42,.35,.58-.23,1.39,.81,1.69Z" fill="#eae3f1"/><path id="dv" d="M31.65,18.65c.94,.15,1.87,.34,2.79,.58,.21,.17,.51,.14,.68-.06,.04-.05,.07-.1,.09-.15,.18-.43-.1-.7-.42-.91-1.03-.67-2.27-.51-3.38-.81-1.01,.73-.57,1.11,.25,1.35Z" fill="#d1c2df"/><path id="dw" d="M46.28,26.65c-.37-.15-.81-1.29-.99-1.64-.19-.38-.35-1.27-.86-1.36-.4-.07-.64,.58-.62,.94,.04,1.11,1.64,1.72,2.47,2.06Z" fill="#eae3f1"/><path id="dx" d="M55.34,66.42l-.04-.02c-.26-.1-.54-.15-.81-.13-.53-.06-1.06,.15-1.4,.56-.17,.44-.02,.95,.38,1.22,.2,.13,.45,.16,.68,.09,.17-.05,.31-.16,.48-.2,.26-.07,.56,.22,.79,.1s.29-.6,.28-.82c-.01-.3-.14-.59-.37-.8Z" fill="#b8a2cd"/><path id="dy" d="M69.36,64.13c.16,.04,.31,.09,.46,.15,.15,.07,.28,.17,.38,.29,.13,.14,.64,.88,.28,.99-.09,.02-.17,0-.24-.06-.06-.06-.12-.12-.17-.19-.11-.12-.25-.22-.4-.28-.15-.05-.29-.11-.43-.18-.4,1.31-1.27,.42-2.02,.5,.49-.96,.76-2.1,2.13-1.22Z" fill="#eae3f1"/><path id="e`" d="M50.9,104.42c.06-.02,.12-.06,.17-.1,.33-.22,.45-.65,.28-1.01-.24-.28-.52-.52-.83-.72-.32-.27-.78-.05-1.01,.19s-.47,.74-.37,.97c.18,.39,.25,.18,.42-.04,.14-.18,.2-.12,.39,.01,.17,.11,.32,.25,.45,.41,.1,.13,.22,.29,.39,.29,.03,0,.07,0,.1-.01Z" fill="#d1c2df"/><path id="ea" d="M41.76,61.68c.59-.41-.18-2.19,1.46-1.48,.31,.13,.7,.8,.6,1.01-.13,.32-.36,.58-.64,.77-.15,.09-.31,.14-.48,.17-.17,.02-.42-.06-.56,.06s-.13,.37-.2,.53c-.07,.19-.25,.31-.45,.33-.16-.02-.3-.09-.41-.21,.14-.44,.18-.95,.68-1.19Z" fill="#b8a2cd"/><path id="eb" d="M44.61,34.67c.12-.32,.06-.68-.15-.96-.17-.27-.5-.42-.67-.68-.15-.22-.11-.53,.1-.7,.23-.15,.57-.06,.82-.06,.37-.06,.72-.2,1.03-.41,.48-.24,.96-.47,1.45-.7,.14,1.21-1.42,1.58-1.37,2.75-.09,.11-.18,.23-.27,.34l.38,.51c.08,.09,.11,.23,.06,.34-.07,.1-.15,.2-.24,.27-.39,.25-.2,1.3-1.1,.83-.42-.22-1.05-.25-1.15-.82-.19-1.04,.9-.23,1.11-.7Z" fill="#b8a2cd"/><path id="ec" d="M44.41,37.72c.09,1.74,.64,3.43,1.59,4.89,1.08,1.59,2.93,2.19,4.72,2.71,3.81,1.05,7.82,1.14,11.67,.27,2.46-.54,4.94-1.1,6.67-3.09,1.42-1.74,2.08-3.99,1.81-6.23-.17-2.18-1.19-4.21-2.83-5.66-.88-.83-1.91-1.51-3.02-1.99-1.33-.55-2.52-1.43-3.84-2.02-2.14-.95-4.54-1.12-6.79-.49-2.65,.75-4.25,2.71-6.32,4.28-2.33,1.7-3.69,4.43-3.65,7.32Z" fill="#eae3f1"/><path id="ed" d="M51.57,34.12c.05,1.54,1.36,2.23,2.56,2.83,1.48,.75,2.96,1.25,4.6,.57,1.49-.62,3.77-1.91,3.71-3.76-.07-1.95-2.55-3.45-5.55-3.35s-5.38,1.76-5.31,3.71Z" fill="#ab90c3"/><path id="ee" d="M51.23,40.49c.11,.81,.73,1.46,1.54,1.61,.85,.19,1.74,.02,2.47-.45,.66-.44,1.15-1.07,1.42-1.81,.24-.7,.37-1.44,.39-2.18h.17c.01,.74,.14,1.48,.38,2.18,.26,.74,.76,1.38,1.41,1.82,.72,.48,1.61,.65,2.46,.47,.81-.14,1.44-.79,1.55-1.6" fill="none" stroke="#ab90c3" stroke-dasharray="0 0 .44 .63" stroke-linecap="round" stroke-linejoin="round" stroke-width=".63"/></g></g></svg>