<?xml version="1.0" encoding="UTF-8"?><svg xmlns="http://www.w3.org/2000/svg" viewBox="0 0 102.76 129.46"><g id="a"/><g id="b"><g id="c"><path id="d" d="M.68,102.72c-.05-.11,.14-.42,.3-.51,.9-.55,.78-1.19,.53-2.11-.36-1.3-.12-2.55,1.69-2.56,.59,0,1.23-.04,1.42-.63,.78-2.45,3.42-2.34,5.05-3.64,1.18-.94,3.16-.92,4.89-.75,.83,.16,1.67-.27,2.02-1.05-.97-.02-1.63-.62-2.52-.4-.62,.24-1.32-.02-1.63-.61-.61-1.74-2.46-2.56-3.04-4.33-.25-.77,.06-1.57-.53-2.35-1.43-1.91-1.32-6.6,.27-8.44,1.24-1.44,1.37-4.01,3.92-4.17,2.69-.17,1.64-3.72,3.91-4.24,.07,0,.13-.04,.18-.09,.77-1.29,2.64-1.73,2.78-3.44,0-.77,.51-1.46,1.25-1.69,.54-.18,.96-.63,1.08-1.19,.26-1.89,1.78-2.45,3.21-2.74,.99-.07,1.74-.92,1.67-1.92,.02-.2-.46-.29-.04-.6,1.67-1.23,2.45-3.62,5.01-3.74,.42-.02,.85-.67,1.2-1.08,.46-.61,1.14-1.03,1.89-1.19,1.21-.27,2.31-.92,3.13-1.86-2.14-1.74-3.02-4.16-4.23-6.42-.89-1.66-1.8-3.13-1.33-5.08,.2-.68,.08-1.41-.33-1.98-.6-.8-.51-1.93,.22-2.63,1.22-1.64,.9-2.51-1.08-3.11-.85-.26-1.76-.34-2.63-.53-2.18-.26-4-1.77-4.66-3.86-.55-1.62-.91-3.27-1.35-4.9-.78-2.92-.9-5.77,2.51-7.32,.16-.07,.19-.39,.34-.51,1.83-1.38,3.14-3.45,5.75-3.78,2.34-.3,4.67-1.43,6.61,.94,.35,.45,.93,.64,1.48,.49,.81-.22,1.64,.26,1.86,1.07,0,.04,.02,.07,.03,.11,.35,1,.72,.95,1.79,.38,1.57-.83,2.98-1.81,4.44-2.77,.7-.46,1.3-1.28,2.37-1.41,3.15-.38,6.29-.89,9.41-1.48,3.19-.6,6.05,1.56,9.22,.93,.57-.11,.81,.51,1.02,.91,.76,1.5,1.38,.68,2.04-.06h0c.04-.43,.07-.85,.11-1.28-.46-.29-.43-.96-.18-1.03,1.91-.5,2.8-2.81,4.99-2.74,1.68-1.66,3.96-.63,5.9-1.27,.78-.26,2.56,.3,2.6,1.23,.1,2.74,2.82,2.82,4.06,4.38,1.62,2.05,2.84,6.66,1.36,8.9-.17,.29-.33,.59-.48,.9-.88,1.71-1.09,3.91-3.13,4.82-2.58,1.16-1.75,4-1.49,5.28,.34,1.72,.92,3.44,1.14,5.32,.41,3.52-1,6.69-1.4,10.04-.02,.16-.24,.33-.41,.42-.91,.63-1.45,1.68-1.42,2.79h0c-.03,.78-.71,.69-1.18,.92-.93,.46-1.79,1.55-1.43,2.26,.58,1.13,.33,2.65,1.55,3.46,1.2,.14,2.33,1.2,2.01,1.94-.61,1.41,.4,1.61,.97,2.22h0c1.97,.59,2.65,2.69,4.29,3.67l.41,.35h.01c2.26,.83,3.36,3.04,5.19,4.36,1.74,1.25,1.2,4.18,3.68,4.91,.26,.08-.02,.62-.16,.94-.2,.3-.16,.7,.1,.95,1.21,1.01,1.11,2.69,2,3.84,1.19,1.54-.1,3.59,.95,5.05,1.23,1.72-.66,3.78,.85,5.43,.29,.32-.34,1.02-.74,1.09-2.26,.42-1.9,1.87-1.53,3.44,.08,.68,.13,1.37,.14,2.06,.23,1.9-1.3,3.54-.63,5.59,.26,.78-.92,1.46-1.89,1.33-.96-.16-1.89,.39-2.23,1.3-.67,1.73-1.6,1.96-3.05,1.04-.93,1.38-2.51,2.18-4.17,2.11-.65-.06-1.26,.31-1.51,.91-1.67,3.57-3.85,6.88-5.24,10.59h0c.22,2.69-.81,5.14-1.64,7.58-.29,.86-.14,2.44-1.74,2.58-.05,.29-.11,.58-.16,.87,.08,.27-.08,.32-.3,.31-1.47,1.13-2.28,3.48-4.83,2.56-.1-.28-.23-.56-.39-.81,.16,.25,.29,.53,.39,.81-1.19-.06-.98,1.97-2.24,1.61-4.47-1.29-9.2-1.64-13.45-3.71-4.08,.53-6.01-2.56-8.46-4.89-1.28-1.21-.96-2.66-1.22-4.04l-1.27-.17c-.97,0-1.96,.36-2.89-.22-1.55-.02-3.09-.33-4.52-.92h0c-1.56,.7-2.15,1.61-2.22,3.54,.02,.19-.1,.37-.29,.42-1.71,.8-3.39,1.68-5.38,1.43-1.85,.76-3.6-.18-5.37-.38-5.05-.57-10.19-.66-15.05-2.37-1.15-.4-2.47-.6-3.09-1.9l-2.06-1.15c-.23,.07-.35-.04-.4-.25l-.06-.05c-1.4,.03-1.29-2.23-2.88-1.92-.24-1.85-2.19-2.79-2.31-4.88-.1-1.85,1.49-3.38,.67-5.25Z" fill="#edf4f9"/><path id="e" d="M67.7,32.8c.76-1.73,.47-3.93,2.36-5.23-.86-1.06-1.82,.23-2.59-.1-.97-.42-.12-1.76-1.01-2.39-.03-.02-1.54,1.44-1.66,1.58-1.07,1.44-1.38,3.3-.84,5.01,.22,.98,.94,1.16,1.85,1.29,.33,.05,1.67,.29,1.87-.16Z" fill="#90bcdb"/><path id="f" d="M3.57,106.65c-1.42,1.24-.6,2.73-.45,4.14h0c1.65,.55,2.57,2.31,2.08,3.98l.06,.05,.4,.25,2.06,1.15c.06-.03,.18-.06,.18-.09,.01-1.01-.77-2.57,.97-2.59,.98-.01,3.06,0,2.26,2.29-.09,.24,.04,.51,.28,.6,.04,.01,.08,.02,.11,.03,1.79,.06,3.2,1.25,4.81,1.65,2.22,.54,4.61,1.32,6.91,0,.19-.09,.41-.09,.59,0,1.28,1.22,2.53,.34,3.81,.02,2.38-.6,3.44,.24,3.59,2.76,1.99,.25,3.67-.64,5.38-1.43,.19-.05,.31-.23,.29-.42,.08-1.93,.66-2.84,2.22-3.54-.03-.64,.66-.63,.92-1,.31-.47,.17-1.09-.29-1.4-.02-.01-.04-.03-.07-.04-.73-.5-.75,.22-.83,.66-.07,.86-.76,1.55-1.63,1.6-.91,0-.4-1-.63-1.52-.33-.77-.74-1.11-1.59-.77-.44,.19-.92,.3-1.41,.3-.71-.02-1.33-.51-1.52-1.19-.14-.68,.56-1.02,1.23-1.08,1.45-.14,1.45-.13,1.54-1.76,.99,.24,2,1.44,2.98,.02,.36-.52,.66,.03,.92,.35,.52,.62,.7,.5,.69-.3-.01-1.5,1.38,.25,1.78-.76,.42-1.07-1.74-.5-.9-1.76,.64-.9,1.37-1.73,2.19-2.47,.66-.63,.51-1.24-.02-1.5-.3-.15-.95-1.59-1.46-.08-.7,1.01-.84,1.04-1.73,.17-.99-.97-1.97-1.56-3.03-.11-.43,.59-.91,.26-1.23-.04-1.34-1.25-3.1-1.95-4.93-1.96,.82-1.7,.33-2.43-1.43-2.33-.34,.02-.68,.19-1.01,.18-1.11-.04-3.2-1.83-2.76-2.19,.9-.72,.85-1.27-.04-1.68-.85-.39-1.37,.17-1.7,1.01-.24,.6-1.29,1.1-1.39,.71-.47-1.82-2.02-1.56-3.22-1.97-.5-.17-.89-.44-.87-1.01,.03-.7,.6-.59,1.06-.68,.65-.13,1.44-.16,1.46-1.13l-2.42-.16c-.12,.06-.34,.1-.35,.18-.43,2.59-2.79,2.11-4.42,2.71-.69,.26-1.4,.16-1.04,1.2,1.23-.25,2.14-.45,2.51,1.39,.62,3.09-2.15,.83-2.81,1.91l.29-3.29c-.51,.2-2-.73-1.15,1.07,.25,.52-.46,.92-.92,.77-1.4-.45-2.5-.6-2.73,1.34-.02,.18-.69,.29-1.66,.66,1.57,.2,2.15,1.09,3.1,1.42,.32,.11,.65,.35,.53,.76-.11,.3-.44,.46-.74,.35-.04-.01-.08-.03-.12-.06-1.26-.96-2.58,.32-3.88-.17-.9-.33-1.51,.71-1.23,1.11,.67,.98-.19,2.05,.46,2.93,.47-.52,.68-1.36,1.67-1.2,.36,.06,.84-.38,1.09,.12,.27,.43,.14,1-.3,1.27h0c-.77,.38-1.44,1.44-2.52,.62Zm22.22-1.41l-.02,.02c.29-.73-.68-1.63,.28-2.24,.69-.44,1.46-.06,2.19-.06-.34,1.25,1.69,1.34,1.29,2.62,1.17,.87,2.01,2.3,3.78,2.18,.27-.02,.51,.46,.45,.83-.07,.17-.18,.32-.32,.44-1.34-.87-2.67,.42-4.18-.09-1.58-.6-2.87-1.81-3.57-3.35-.04-.04-.08-.08-.12-.13,.07-.08,.15-.16,.23-.23Zm11.06,.56c.72,.2,1.7-.28,2.11,.74,.08,.2-.06,.69-.17,.71-.89,.21-1.01-1.05-1.84-1.02-.47,.6-1.45,1.57-1.66,1.3-.85-1.12-2.36-.53-3.1-1.42-.45-.55-1.47-1.29-.65-2.12,.8-.8,1.42,.33,1.87,.71,.97,.77,2.19,1.16,3.43,1.09h0Zm-13.66-4.55l.17-.07-.17,.07c-.38,1.65-2.27,2.04-2.86,1.52-1.24-1.08-2.05-.38-3.25-.02,1.06-.47-.63-1.71,.7-1.86,1.22-.14,2.62-.34,3.22,1.44l1.72-3.67c.4,1.15-.29,1.97,.48,2.59h0Zm-14.81,6.65c.81,.16,1.46-.15,1.58-.93,.17-1.11-1.14,.1-1.27-.71,.79-1.86,1.95-3.21,4.18-3.49,.89-.23,1.79,.31,2.02,1.2,.05,.2,.06,.41,.04,.61,0,.52-.94,.94-.28,1.31,1.74,1,1,2.48,.6,3.64-.36,.73-.07,1.62,.64,2.01-1.75-.51-3.46-1.16-5.1-1.95-.85-.43-2.47,.05-2.4-1.7-.47-.19-1.24,.23-1.4-.69,.77-.3,1.33-.29,1.4,.7h0Zm9.94-2.86c-.8,1.74,1.58,1.01,1.23,2.04-.32,.75-1.12,1.19-1.92,1.04-.75-.24-1.22-.99-1.11-1.77,.13-.87,1.18-.52,1.8-1.32h0Zm11.76,4.98c-.91,.64-1.68,1.29-2.66,.47-.34-.28-.51-.84-.13-1.07,1.03-.62,1.85,.06,2.79,.6h0Zm10.29-5.74c-.2,.51-.73,.81-1.26,.71-.06,0-.18-.25-.15-.31,.28-.5,.91-.68,1.41-.41h0Z" fill="#bed7ea"/><path id="g" d="M71.1,99.5c-.42,.07-1.1,.37-.86,.62,1.12,1.16,.82,2.93,1.76,4.01,.45,.5,.7,1.14,.7,1.81,.08,1.65-.13,3.31-.62,4.89,.45,.57,2.71,.32,1.17,2.17l1.24,.21c.71-.21,1.63,1.21,2.23-.32,.16-.41,.77-.25,1.01,.17,.42,.76,.76,1.81-.14,2.21-2.13,.96-1.44,2.07-.37,3.24,.45,.49-.05,.89,.04,1.34,.2,.94-.41,2.2,1.91,2.4-2.81,.85-1.46,1.3-.71,1.78,1.6-.14,1.45-1.73,1.74-2.58,.83-2.44,1.86-4.89,1.64-7.58-.96-.47-.64-2.36-2.29-2.05,.43-1.03,.39-2.2-.12-3.2-1.12-.22-.6-1.06-.65-1.69-.46-1.29-1.44-2.33-2.71-2.86-.65-.33-1.54-.67-1.5-1.71-.83-1.33-1.68-2.66-3.45-2.88Z" fill="#edf4f9"/><path id="h" d="M53.65,121.37c-.1-.75-.42-1.46-.92-2.02-1.19-1.56-.55-4.42,1.18-5.54-.34-.62-1.93-.09-1.46-1.12,.45-.99-.39-2.95,1.79-2.87h0c-.08-1.16,1.04-1.89,1.08-3.06,.02-.4,.67-.78-.14-1.06-.55-.2-1.13-.72-1.66,.02-.15,.21-.14,.69-.3,.74-2.5,.75-2.56,2.12-1.22,4.08,.3,.43-.11,1.31-.86,1.4-1.08,.12-.42-.62-.48-1.08-.16-1.37-2.02-1.21-2.34-2.48-.38,.12-.9,.07-1.04,.54-.32,1.05-.18,2.16-.53,3.24-.38,1.16,.64,1.72,1.46,2.39,.52,.51,.82,1.2,.84,1.93,.01,.46-.78,.35-1.26,.3,.26,1.38-.06,2.82,1.22,4.04,2.46,2.32,4.39,5.42,8.46,4.89-.07-.26-.14-.74-.21-.74-1.63,0-2.15-1.73-3.48-2.18-1.09-.37-.32-.93-.13-1.42Z" fill="#bed7ea"/><path id="i" d="M31.22,120.87c-.14-2.52-1.21-3.36-3.59-2.76-1.28,.32-2.53,1.2-3.81-.02-.19-.09-.41-.09-.59,0-2.3,1.31-4.69,.54-6.91,0-1.61-.39-3.02-1.59-4.81-1.65-.26-.02-.44-.25-.42-.51,0-.04,.01-.08,.03-.11,.8-2.29-1.28-2.3-2.26-2.29-1.74,.02-.96,1.58-.97,2.59,0,.03-.12,.06-.18,.09,.62,1.3,1.94,1.49,3.09,1.9,4.87,1.71,10,1.8,15.05,2.37,1.78,.2,3.53,1.14,5.37,.38Z" fill="#90bcdb"/><path id="j" d="M81.47,42.34c-.68-1.21,.96-.72,1-1.42-.33-.36-.82-.19-1.24-.27-1.17-.29-2.2-1.13-3.65-.83,.76,1.02-.38,2.43,1.07,3.44,.7,.48-.93,3.33-1.91,3.2-1.63-.21-1.58,.73-1.41,1.85-.66-.15-.56-1.04-1.19-1.19-.69-.17-1.65,.81-2.01,1.27-.38,.45-.53,1.04-.42,1.61,.19,.81,1,1.31,1.8,1.12,.02,0,.04-.01,.06-.02,.52-.21,.64-.65,.95-1.05,.22-.33,.56-.56,.95-.63,1.02-.14,2.03-.37,3.01-.69,.17-.11,.4-.06,.52,.11,.04,.06,.06,.13,.06,.21,.3,2.14,1.91,1.72,3.31,1.74-1.22-.81-.98-2.33-1.55-3.46-.36-.71,.5-1.79,1.43-2.26,.47-.23,1.15-.14,1.18-.92-.94,.13-1.81-.53-1.95-1.47-.02-.11-.02-.23-.01-.34Z" fill="#bed7ea"/><path id="k" d="M53.65,121.37c-.19,.49-.95,1.06,.13,1.42,1.33,.44,1.85,2.19,3.48,2.18,.07,0,.14,.48,.21,.74,4.25,2.07,8.98,2.42,13.45,3.71,1.26,.36,1.05-1.67,2.24-1.61-.41-1.12-1.26-2.01-2.36-2.46l-1.62,.03c-.86,1.71-2.23,.12-3.06,.45-1.9,.76-3.29-.25-4.86-.69-1.83-.99-3.68-1.96-5.5-2.99-.65-.39-1.36-.65-2.11-.76Z" fill="#90bcdb"/><path id="l" d="M46.52,116.61c-.65-2.48-.97-5.04-.95-7.61-.07-1.23,.69-3.66-1.74-4.28-.57,3.88-.2,7.78-.2,11.66,.93,.58,1.92,.22,2.89,.22Z" fill="#bed7ea"/><path id="m" d="M78.79,6.15c-.37-.69-1.83,1.74-1.63-.57h0c-.73-.09-.77,.66-1.17,.95s-.67,1.01-1.33,.7c-.56-.26-.16-.84-.26-1.22-.37-1.39-1.71-.47-2.52-.9-.04,.43-.07,.85-.11,1.28q.83,1.25-.83,1.83c.82,1.77,2.1,2.13,3.8,1.33,1.12-.69,1.87-1.93,3.4-2.03,.58-.04,.64-.8,.65-1.36Z" fill="#bed7ea"/><path id="n" d="M89.65,58.62l.41,.35-.41-.35Z" fill="#edf4f9"/><path id="o" d="M52.13,89.84c-.44,.16-1.09-.1-.7,.95,.72,1.45,.13,3.21-1.32,3.93-.06,.03-.12,.06-.19,.09-1.35,.65-1.41,2.11-1.99,3.23-.13,.5,.17,1.01,.66,1.14,.41,.15,.86-.07,1.01-.48v-.02c.27-2.23,2.54-3,3.41-4.79,.65-1.34,.17-3.87-.89-4.04Z" fill="#bed7ea"/><path id="p" d="M37.72,50.64c-.62-.16-1.26,.12-1.57,.67-.8,1.18-.07,3.11-1.94,3.81-.22,.08,.43,.87,.91,1.16,1.08-1.03,2.24-1.81,3.84-1.35h-.02c.26-1.18-1.23-2.38,.17-3.67,.33-.3-.84-.52-1.4-.62Z" fill="#bed7ea"/><path id="q" d="M64.74,80.73c.98,.83,1.58,2.02,1.66,3.3,.08,.64,.45,1.16,.85,1.08,.93-.14,1.76-.67,2.28-1.46,.42-.69-.26-.72-.63-.98q-2.65-1.88-4.17-1.93Z" fill="#bed7ea"/><path id="r" d="M51.72,101.3c.14-.02,.28-.03,.41-.02,2.22,.38,2.66-.74,2.24-2.62,.17-1.27-.7-2.09-1.37-3.07-.09,2.01-1.56,3.65-1.28,5.71Z" fill="#bed7ea"/><path id="s" d="M87.65,63.27c-1.52,1.42,.52,2.07,.67,3.18,.58-.93,2.06-1.25,1.7-2.69-.18-.71-.82-.12-1.21-.3l-1.16-.19Z" fill="#edf4f9"/><path id="t" d="M39.94,90.57c-.06-.09-.1-.19-.15-.28,0-.02,.09-.07,.14-.1,.17-.64,.05-1.16-.71-1.15-.45,0-.67,.42-.76,.86-.16,.56,.07,1.16,.57,1.45,.65,.31,.67-.43,.91-.78Z" fill="#edf4f9"/><path id="u" d="M72.71,75.46c0,.99-1.1,.5-1.49,1.09,.61,.76,1.76,.44,2.47,1.71-.04-1.41,.15-2.34-.98-2.8h0Z" fill="#bed7ea"/><path id="v" d="M38.96,54.93l-1.38,1.27,2.82,.04c-.09-.74-.72-1.3-1.46-1.3h.02Z" fill="#bed7ea"/><path id="w" d="M61.22,87.44c.88-.2,1.69,1.15,2.68,.08-.92-.69-1.78-1.04-2.7-.11l.02,.03Z" fill="#bed7ea"/><path id="x" d="M26.33,79.76l-.16-.2s0,.09,.02,.12c.04,.04,.09,.07,.14,.09h0Z" fill="#bed7ea"/><path id="y" d="M76.95,74.99l.08,.18-.09-.17h.01Z" fill="#bed7ea"/><path id="a`" d="M61.2,87.41l-.19,.18,.21-.15-.02-.03Z" fill="#bed7ea"/><path id="aa" d="M55.86,43.45c2.42,1.2,5.31,.94,7.47-.67l.07-.03,1.87-2.27c.07-2.62-1.23-4.15-3.73-4.52-2.2-.33-4.45,0-6.46,.95-1.33,.64-2.21,1.94-2.31,3.41-.27,.91,.25,1.87,1.17,2.14,.07,.02,.14,.04,.21,.05,.67,.17,1.37,.2,1.72,.93Z" fill="#90bcdb"/><path id="ab" d="M75.29,32.6c-.03-.64,.08-1.44,.02-1.86-.08-.84-.5-1.6-1.16-2.12-.69-.51-1.65-.44-2.26,.16-.36,.53-.49,1.18-.38,1.81,.11,.63,.09,1.27-.08,1.88-.18,.44-.52,.8-.96,.99-.47,.21-.92,.03-1.37,.15-.99,.25-.13,1.35,.31,1.71l2.52,2.07c.74,.45,1.41,1.03,1.96,1.7,.24,.6,.39,1.24,.46,1.88,.46,1.76,.07,3.64-1.05,5.08-.15,.18-.27,.38-.36,.6-.09,.22-.04,.47,.13,.65,.41,.37,.88-.27,1.2-.02,.21,.16,.04,.82,.16,1.07,.13,.31,.48,.45,.78,.33h.02c.48-.31-.13-1.19,.1-1.7,.26-.57,.86-.59,1.42-.51,.98,.13,2.61-2.72,1.91-3.2-1.45-1.01-.32-2.42-1.07-3.44,1.44-.3,2.48,.54,3.65,.83-.03-.27,.04-.68-.11-.79-1.76-1.3-1.7-2.72-.36-4.27-.46,.11-.86-.17-1.29-.25-.49-.05-.97-.15-1.44-.29-.9-.39-1.73-.93-2.46-1.59-.2-.24-.3-.55-.28-.86Z" fill="#90bcdb"/><path id="ac" d="M78.79,6.15c0,.56-.06,1.32-.64,1.36-1.53,.1-2.28,1.34-3.4,2.03,.02,1.31,1.92,.9,1.98,2.16,.44,.16,.47,.48,.58,.93,.1,.98,.97,1.7,1.96,1.61,.42-.04,.82-.23,1.11-.54,.61-.56,1.37-.58,1.95-1.05,.47-2.11,.87-2.33,2.74-1.41,.53,.3,1.05,.63,1.54,.99,.81,.08,1.57,.09,1.31-1.1-1.85-.1-2.66-1.02-2.75-2.92-.03-.71-.33-1.45-.35-2.26-.04-1.31-.72-1.92-2.03-1-1.19,.84-2.41,1.65-3.99,1.2h0Z" fill="#90bcdb"/><path id="ad" d="M39.98,40.59c-.02,.78-1.42,.47-.86,1.45,.59,1.03,1.59,.98,2.56,.98,.58,0,1.28-.16,1.15-.87-.25-1.33,.46-2.4,.72-3.58,.11-.5,.29-1.22-.29-1.17-2.24,.2-4.53-.99-6.72,.29-.62,.36-.92,1.08-.76,1.77,.07,.77,.65,.93,1.29,1.1,.96,.26,1.89-.57,2.9,.03Z" fill="#bed7ea"/><path id="ae" d="M18.74,84.95l1.26,.17c1.27,.47,1.04-1.04,1.73-1.31-.65-1.15,.13-.93,.88-1.09,1.3-.28,2.95-.5,2.1-2.62-.16-.4-.05-.86,.27-1.15,.77-.69,1.28-1.25-.38-1.13-.35,.08-.69-.14-.77-.49-.02-.08-.02-.16,0-.24,.05-.44,.54-.45,.83-.36,.97,.31,1.49-.4,2.08-.88,1.42-1.16-1.98-.67-.68-1.93,.42-.41,2.25-.53,.67-1.77-.05-.04-.11-.08-.17-.12-.78-.4-.76-.97-.19-1.47,.6-.54,1.11,0,1.34,.44,.4,.74,.61,1.54,1.11,.08,.12-.36,.33-.31,.64-.21,.52,.15,.82,1.55,1.56,.37,.32-.52-1.27-2.9-1.71-2.66-1.04,.55-1.27-.12-1.41-.78-.11-.51-.1-1.3,.21-1.57,.49-.44,1.13,.07,1.65,.36,2.46,1.37,4.17,1.21,5.49-.98,.67-1.1-.07-2.39-1.23-3.14-.74-.48-1.02-.57-.11-1.49,.98-1,2.52-2.42,1.12-4.28,.04-.13,.08-.26,.09-.4,1.07-1.02,2.23-1.8,3.83-1.35,.24-1.18-1.23-2.38,.17-3.67,.33-.31-.84-.53-1.4-.62,.4-.83,1.12-1.45,2.01-1.72,.87-.32,1.77-.15,2.42-.95,.48-.79,.6-1.75,.33-2.63-.1-.8,.98-.37,1.52-.59,.59-.19,1.2-.33,1.81-.42h0c1.51,1.16,.32,2.79,.74,4.14-.64-.21-1.21-.57-1.67-1.06,.46,.48,1.04,.85,1.67,1.06,.9,.87,2.08,1.53,2.33,2.9,2.28-.46,4.47-1.05,6.93-.73,1.32,.26,2.66,.43,4,.5,1.17-.06,2.32-.26,3.44-.6l9.09-2.35c-.12,.84-.48,1.84,.26,2.5,.6,.53,1.1,.04,1.54-.5,1.01-1.2,2.96-.79,4.36-1.47,.17-.11,.41-.06,.52,.11,.04,.06,.06,.13,.06,.2,.3,2.14,1.91,1.72,3.31,1.74,1.2,.14,2.33,1.2,2.01,1.94-.61,1.41,.4,1.61,.97,2.22,0,1.51,1.38,2.08,2.1,3.1,.38,.53,1.89,1.59-.38,1.46-.73-.04-.57,1.36-1.26,1.35,1.31,.63,2.54,1.12,2.97,2.6l-1.15-.19c-.38-.39-1.13-.6-1.26-.28-.32,.76-.97,1.71-.35,2.49,1.51,1.91-1.37,2.8-.9,4.42-2.15-.14-1.18,2.63-2.89,3.09-.62,.17-.59,1.26-.48,2.08,.22,1.59,.26,3.19-1.04,4.45-.7,.74-1.33,.97-1.73-.29-.18-.85-.9-1.49-1.77-1.55,.81,1.3,.47,2.78,1.45,3.96,.34,.63,.3,1.4-.1,2-1.23,2.25-1.45,4.91-.59,7.32,.43,1.4-.96,.73-1.37,1.26-.92,1.16-2.86,.82-3.72-.38-.37-.7-1.18-1.03-1.93-.79-1.14,.55-2.85,.2-3.32,1.92-.45,1.36-1.78,2.22-3.2,2.07-1.13-.1-2.22,.42-2.85,1.36-.62,1-1.28,1.3-2.15,.93-1.57-.66-1.65,1.54-2.9,1.36-.72-.96-1.44,.07-2.16-.01,.17-1.28-.7-2.09-1.37-3.07-.1,2.01-1.56,3.65-1.28,5.71-.65,.8-1.6,1.29-2.14,2.23s-1.51,.86-2.42,.68c-1.14-.31-2.35-.12-3.34,.52-.57,3.88-.2,7.78-.2,11.66-1.55-.02-3.09-.33-4.52-.92-.03-.64,.66-.63,.92-1,.31-.47,.17-1.09-.29-1.4-.02-.01-.04-.03-.07-.04-.73-.5-.75,.22-.83,.66-.07,.86-.76,1.55-1.63,1.6-.91,0-.4-1-.63-1.52-.33-.77-.74-1.11-1.59-.77-.44,.19-.92,.3-1.41,.3-.71-.02-1.33-.51-1.52-1.19-.14-.68,.56-1.02,1.23-1.08,1.45-.14,1.45-.13,1.54-1.76,.99,.24,2,1.44,2.98,.02,.36-.52,.65,.03,.92,.35,.52,.62,.7,.5,.69-.3-.01-1.5,1.38,.25,1.78-.76,.42-1.07-1.74-.5-.9-1.76,.64-.9,1.37-1.73,2.19-2.47,.66-.63,.51-1.24-.02-1.5-.3-.15-.95-1.59-1.46-.08-.5-1.21-1.45-2.18-2.65-2.71,1.54-.94,1.56-2.71-.18-3.64-.91-.48-1.71-1.13-2.63-1.58-.26-.1-.5-.23-.72-.39-.63-.52-.69,1.54-1.26,.34-.48-1,.77-1.15,1.3-1.54,2.08-1.55,2.04-2.63-.21-4.06-.35-.25-.68-.53-.99-.82,1.35-2.5,3.46-1.29,5.31-.98,.27,.05,.62,.42,.84,.06,.76-1.23,2.24-1.49,3.17-2.47l.05,.06c-.09,2.29-1.66,3.69-3.12,5.15,.17-.64,.06-1.16-.71-1.15-.45,0-.67,.42-.76,.86-.16,.56,.07,1.16,.57,1.45,.65,.32,.67-.43,.91-.77,1.05,.23,1.97,.42,2.85-.65,.66-.55,1.59-.61,2.31-.15,.03-2.08,1.78-3.7,1.49-5.91-.1-.78,.8-.54,1.3-.49,.6,.06,.6,.46,.33,.89-.63,1.03,.18,2.37-.8,3.38-.28,.38-.2,.91,.18,1.2,.09,.07,.2,.12,.31,.14,.92,.09,.49-.68,.49-1.17-.06-.7,.25-1.39,.81-1.81,.75-.47,.72-1,.61-1.75-.09-.63-.15-1.55,.92-1.47,1.16,.09,.36,.91,.44,1.42,.22,1.45-1.62,2.6-.62,4.2,2.79-3.15,3.64-2.91,6.15,2.23,.97-1.23,1.89-2.31-.25-3.19-.98-.31-1.53-1.34-1.24-2.33,.32-1.08,1.02-.54,1.77-.17,.29,.14,1.06-.7,1.61-1.1q1.65,1.48,5.39,1.68c.12-.75-1.16-1.2-.46-2.12,.29-.37-.1-.78-.66-.63-.55,.19-1.16-.05-1.42-.58-.28-.85-1.38-1.49-1.05-2.36,.38-1,1.62-.43,2.36-.74,2.06-.87,3.88-.29,5.8,.35,.63,.08,1.26-.16,1.67-.65,.35-.77,.28-1.67-.19-2.38-.27-.48-1.33-.75-.7-1.44,.4-.45,1.16-.08,1.76,.14,.53,.15,1.06,.27,1.6,.35,0,.99-1.1,.5-1.49,1.09,.61,.76,1.76,.44,2.47,1.71-.04-1.41,.15-2.34-.98-2.8-.45-.98-1.67-1.48-1.29-3.03,.17-.69-1.55-.84-2.25-.88-.92-.05-1.31,1.15-1.55,2.05-.02,.31,.03,.62,.13,.91-.6,.74-1.51-1.52-1.94,.37-.18,.79-.17,1.84-1.53,2.3,.59-.82,.39-1.97-.43-2.56-.03-.02-.07-.05-.11-.07-1.06-1.1-1.46-2.67-1.07-4.15,.19-.91,.15-1.68-1.18-1.39-.96-.26-1.86-.69-2.66-1.28-.05-.04-.11-.08-.17-.11-.82-.36-.81,1.71-2.14,.59-.92-.77-1.39,.45-1.71,1.29-.35,.91-.39,.89-2.43,.91,.58-.73,1.16-1.37,1.63-2.08,1.11-1.68-.53-3.07-.64-4.65-.06-.79-1.37-.14-1.97,.11-.41,.25-.92,.25-1.32-.01-.58-.47,.21-.8,.36-1.11,.7-1.44,.45-2.27-.96-3.21s-2.16-1.11-4.07,0c-1.36,.79-2.75-.08-4.07-.34-2.23-.43-3.84,.79-3.33,2.89,.2,.65,.08,1.35-.31,1.9-1.22,1.96-2.3,4.01-3.44,6.03l.06,.08c-.01,.13-.03,.25-.06,.38-.16,1-1.78,1.1-1.47,2.39-1.1,.25-1.79,1.34-1.55,2.44,.03,.13,.07,.26,.13,.38,.08,.26,.28,.66,.18,.78-1.79,2.02,.67,2.31,1.4,2.88,1.12,.87,1.1-1.01,1.88-1.28,.77,.76,.46,1.43-.17,2.08-1.38,.31-1,2.29-2.41,2.51-.08,.97,1.41,.11,1.18,1.01-.22,.85-1.06,.48-1.61,.41-1.1-.16-1.98-.2-2.43,1.15-.2,.47-.73,.69-1.2,.49-.14-.06-.27-.16-.37-.28-.83-1.09-1.74-.27-2.61-.25-1.64,.03-.94,1.12-.86,1.93,.04,.38-.26,.91-.45,.75-1.34-1.11-2.53,.28-3.65,.12-1.3-.18-1.73-1.57-1.48-2.96Zm33.39,4.9c-.44,.16-1.09-.1-.7,.95,.72,1.45,.13,3.21-1.32,3.93-.06,.03-.12,.06-.18,.08-1.35,.65-1.41,2.11-1.99,3.23-.13,.5,.17,1.01,.66,1.14,.41,.15,.86-.07,1.01-.48v-.02c.27-2.23,2.54-3,3.41-4.79,.65-1.35,.16-3.87-.89-4.04h0Zm9.07-2.43l-.19,.18,.21-.15c.88-.2,1.69,1.15,2.68,.08-.92-.69-1.78-1.04-2.7-.11h0Zm7.71-4.74q-2.65-1.89-4.17-1.93c.98,.83,1.58,2.02,1.66,3.3,.08,.64,.45,1.16,.85,1.08,.93-.14,1.76-.67,2.28-1.46,.42-.7-.26-.73-.63-.99h0Zm6.11-9.56l1.59,.54c-.16-.73-.77-1.28-1.52-1.35-1.6-.87-1.81,.42-2.28,1.52,.83-.15,1.86,.77,2.21-.72h0Zm-30.28-25.95c-.03-.09-.04-.19-.04-.29,0,.1,.01,.19,.04,.28h0Zm-4.33,9.11c-.09-.74-.71-1.3-1.46-1.3l-1.36,1.26,2.82,.04Zm-14.23,23.44s.09,.07,.14,.09h0c-.05-.07-.11-.14-.16-.21,0,.04,0,.09,.02,.11h0Z" fill="#90bcdb"/><path id="af" d="M3.57,106.65c1.08,.83,1.74-.24,2.53-.61,.43-.27,.57-.84,.3-1.27h0c-.25-.5-.73-.06-1.09-.13-.99-.17-1.2,.68-1.67,1.2l-.03,.03c0,.11-.02,.22-.05,.33l.02,.45Z" fill="#90bcdb"/><path id="ag" d="M65.27,40.49l-1.87,2.27c1.65,.09,2.4-.56,1.87-2.27Z" fill="#bed7ea"/><path id="ah" d="M15.85,89.3c.02-.14,.05-.27,.09-.4,1.31-.43,2.39-.28,2.89,1.22,.24,.73,.88,.77,1.49,.85l-.12,.76-2.42-.16c.43-1.64-.73-1.11-1.51-1.1-.45-.01-.93,.19-1.35-.14,.3-.35,.13-1.12,.92-1.03Z" fill="#90bcdb"/><path id="ai" d="M29.4,25.22l-.56,.15c.03,.05,.06,.11,.1,.16,.17-.08,.33-.17,.49-.25l-.03-.05Z" fill="#bed7ea"/><path id="aj" d="M56.31,10.93l.14,.05c.03-.05,.04-.1,.05-.16,0-.02-.08-.04-.13-.05l-.06,.16Z" fill="#bed7ea"/><path id="ak" d="M.68,102.72c-.05-.11,.14-.42,.3-.51,.9-.54,.78-1.19,.53-2.11-.36-1.3-.12-2.55,1.69-2.56,.59,0,1.23-.04,1.42-.63,.78-2.45,3.42-2.34,5.05-3.64,1.18-.94,3.16-.92,4.89-.75,.83,.16,1.67-.27,2.02-1.05-.97-.02-1.63-.62-2.52-.4-.62,.24-1.32-.02-1.63-.61-.61-1.74-2.45-2.56-3.04-4.34-.25-.77,.06-1.57-.53-2.35-1.43-1.91-1.32-6.6,.27-8.44,1.24-1.44,1.37-4.01,3.92-4.17,2.69-.17,1.64-3.72,3.91-4.24,.07,0,.13-.04,.18-.09,.77-1.29,2.64-1.73,2.78-3.44,0-.77,.51-1.46,1.25-1.69,.54-.18,.96-.63,1.08-1.19,.26-1.89,1.78-2.45,3.21-2.74,.99-.07,1.74-.92,1.67-1.92,.02-.2-.46-.29-.04-.6,1.67-1.23,2.45-3.62,5.01-3.74,.42-.02,.85-.67,1.2-1.08,.47-.61,1.14-1.03,1.89-1.18,1.21-.27,2.31-.92,3.13-1.86-2.14-1.74-3.02-4.16-4.23-6.42-.89-1.66-1.8-3.13-1.33-5.08,.2-.68,.08-1.41-.33-1.98-.6-.8-.51-1.93,.22-2.63,1.22-1.64,.9-2.51-1.08-3.11-.85-.26-1.76-.34-2.63-.53-2.18-.26-4-1.77-4.66-3.86-.55-1.61-.91-3.27-1.35-4.9-.78-2.92-.9-5.77,2.51-7.32,.16-.07,.19-.39,.34-.51,1.83-1.38,3.14-3.45,5.75-3.78,2.34-.3,4.67-1.43,6.61,.94,.35,.45,.93,.64,1.48,.49,.81-.22,1.64,.26,1.86,1.07,0,.04,.02,.07,.03,.11,.35,1,.72,.95,1.79,.38,1.57-.83,2.98-1.81,4.44-2.77,.7-.46,1.3-1.28,2.37-1.41,3.15-.38,6.29-.89,9.41-1.48,3.19-.6,6.05,1.56,9.22,.93,.57-.11,.81,.51,1.02,.91,.76,1.5,1.38,.68,2.04-.07q.83,1.25-.83,1.83c.82,1.77,2.1,2.13,3.8,1.33,.02,1.31,1.92,.9,1.98,2.16l-.11,.09c-1.41,.18-2.8,.04-4.11,1.1-.86,.69-1.7-.6-1.9-1.35-.2-.86-1-1.45-1.88-1.39-.96,.18-.54,1.02-.26,1.79,.18,.64,.04,1.33-.38,1.85-.51,.45-1.31,.14-1.86-.39-1.13-1.11-3.46-.34-3.94-2.49-.02-.07-.31-.15-.32-.15-.88,1.82-1.38-.3-2.07-.24-.81,.89,.5,1.67,.02,2.66-.81-.42-1.8-1.23-2.31,.31-.66-1.18-1.77-.21-2.67-.55-1.08-.41-2.4-.51-1.43,1.53,.37,.97,.46,2.02,.27,3.03-.15,1.09-.63,2.23-2.16,1.7-1.58-.54-1.94,1.72-3.39,1.41-2.6-2.02-3.97-1.81-6.01,.54-.7,.59-1.64,.81-2.54,.6-.63-.22-1.32-.1-1.84,.32-.03,1.05,1.36-.22,1.23,.76-.15,.56-.63,.96-1.21,1-.91,.17-.66,.73-.7,1.39-.11,1.81,.69,3.58,.1,5.42-.17,.52,.15,1.49,1.02,.85,.81-.59,1.83,.26,2.64-.65,.2-.23,.67,1.31,1.2,1.95,.41,.76,.35,1.69-.14,2.4,1-.38,1.48-1.64,2.59-1.37,.97,.18,1.77,.86,2.11,1.78,.28,.7,2.96,.27,3.64-.49,.71-.26,1.36-.67,1.91-1.21,.47-.52,1.09-.9,1.78-1.07,1.58-.51,3.21-.85,4.86-1.02,1.89-.2,4.29-.47,6.01,.42,.68,.35,1.25,.81,1.95,1.14,.75,.36,1.47,.77,2.16,1.23,1.71,1.15,3.81,2.65,4.14,4.77,.36,2.32-.04,4.7-1.14,6.78-1.27,2.36-3.36,4.17-5.88,5.08-1.88,.59-3.83,.89-5.79,.92-2.2,.18-4.41,.11-6.6-.19-2.68-.43-5.17-1.63-7.17-3.47-.42-1.35,.78-2.99-.74-4.14-.62,.09-1.22,.23-1.81,.42-.53,.22-1.62-.22-1.52,.59,.01,.66,.27,1.29,.73,1.76,.57,.54,1.14,1.09,1.69,1.66,.54,.43,.98,.96,1.31,1.57,.11,.3,.34,1.17,.11,1.45s-.54,.3-.63-.02c-.39-1.41-1.68-1.93-2.69-2.65-1.58-1.12-4.65-.16-5.28,1.52-.62-.16-1.26,.12-1.57,.67-.8,1.18-.07,3.11-1.94,3.81-.22,.08,.43,.87,.91,1.16-.02,.14-.05,.27-.09,.4-2.31-.01-3.33,1.98-4.54,3.33-1.19,1.08-2.25,2.3-3.16,3.62-.09,.16-.1,.44-.38,.3-2.05-1.05-1.49,.74-1.63,1.57-.14,.86-.57,1.64-1.23,2.21-2.24,2.16-4.87,3.96-5.87,7.26-.24,.8-1.94,1.61-3.25,1.86-.7,.13-1.76-.09-1.03,1.22,.16,.29,.15,.51-.16,.67-2.49,1.28,.09,2.27,.39,3.2,.2,.64,1.77,1.25,2.5-.63q.41,2.68-1.95,2.39c.02-.6,.79,0,.87-.67-.53-.05-1.05-.09-1.58-.14-.58-.07-1.12,.32-1.24,.89-.26,.77,.47,.67,.87,.82s.45,.48,.51,.82c-.01,.26-.03,.52-.04,.78,.34,1.09,.66,2.19,1.84,2.71-.04,.13-.06,.27-.09,.4-.79-.09-.62,.68-.92,1.03,.42,.33,.89,.13,1.35,.14,.78,0,1.93-.54,1.51,1.1-.12,.06-.34,.1-.35,.18-.43,2.59-2.79,2.11-4.42,2.71-.69,.26-1.4,.16-1.04,1.2-.53,.21-2.02-.72-1.16,1.08,.25,.52-.46,.92-.92,.77-1.4-.45-2.5-.6-2.73,1.34-.02,.18-.69,.29-1.66,.66,1.57,.2,2.15,1.09,3.1,1.42,.32,.11,.65,.35,.53,.76-.11,.3-.44,.46-.74,.35-.04-.01-.08-.03-.12-.06-1.26-.96-2.58,.32-3.88-.17-.9-.33-1.51,.71-1.23,1.11,.67,.98-.19,2.05,.46,2.93l-.03,.03c0,.11-.03,.22-.05,.33l-.12-.1,.12,.1c0,.15,.02,.3,.02,.45-1.41,1.24-.61,2.72-.45,4.13,1.65,.56,2.56,2.32,2.07,3.99-1.4,.03-1.29-2.23-2.88-1.92-.23-1.85-2.19-2.79-2.3-4.88-.11-1.86,1.47-3.39,.66-5.26ZM56.44,10.98c.03-.05,.04-.1,.05-.16,0-.02-.08-.04-.13-.05l-.06,.16,.14,.05Zm-18.33,3.95c.17-.29,.17-.64,.01-.94-1.15-.85-.63-1.88-.24-2.75,.49-1.07-.43-1.53-.82-1.34-.8,.39-2-1.04-2.69,.99-.33,.96-1.43,3.36-3.7,3.18-.54-.04-.55,.36-.66,.82-.26,1.11-.43,2.32-1.59,2.98-.32,.18-.57,.69-.29,.86,1.72,1.01,.09,1.45-.34,2-1.38,1.79-1.31,2.05,.94,2.77-.21,.74,.8,1,.66,1.71l-.56,.15c.03,.05,.06,.11,.1,.16,.17-.08,.32-.17,.49-.25,1.08-.2,2.1-1.19,3.29-.23,.24,.17,.58,.12,.75-.12,.04-.05,.07-.11,.08-.18,.17-.5-.17-.77-.54-.97-1.2-.66-2.56-.4-3.84-.63,.8-.82,2.7-1.16,.96-2.96-.61-.63,.59-1.4,.89-2.12s1.11,.01,1.71,.2c-.18,.82-1.3,.71-1.3,1.7,1.45,.17,2.84-1.05,4.36-.31,.33,.16,.32-.5,.51-.74,.92-1.17,.65-2.88,1.79-3.97Zm9.98,27.45c.06,.26,.2,.54,.52,.46,.11-.03,.18-.35,.2-.54,.02-.27-.03-.56-.39-.58-.27,.08-.42,.37-.34,.64v.02Zm-2.84-.96c-.2,.55-1.47-.28-1.18,.87,.16,.63,.86,.62,1.34,.83,1.04,.45,.74-.7,1.16-1,.1-.1,.18-.21,.25-.32,2.05-1.09,4.32-1.88,5.5-4.15,.21-.4,.78-.7,.31-1.19-.67-.71-.81,.45-.94,.41-1.38-.54-2.53,.7-3.84,.46l-2.49,1.42c-2.06-.05-1.13,.85-.52,1.65l.38,.44c.04,.2,.05,.4,.02,.59Zm-6.12,.61c.59,1.03,1.59,.98,2.56,.98,.57,0,1.28-.16,1.15-.87-.25-1.33,.46-2.4,.72-3.58,.11-.5,.29-1.22-.29-1.17-2.24,.2-4.53-.99-6.72,.29-.62,.36-.92,1.08-.76,1.77,.07,.77,.65,.93,1.29,1.1,.96,.26,1.89-.57,2.9,.03-.02,.78-1.42,.47-.86,1.45h0ZM3.31,105.99h0Z" fill="#edf4f9"/><path id="al" d="M66.07,46.45l.19-.19-.22,.15,.03,.04Z" fill="#bed7ea"/><path id="am" d="M3.11,110.79l-.18,.08,.17-.09h0Z" fill="#bed7ea"/><path id="an" d="M71.1,99.5c1.78,.21,2.62,1.54,3.46,2.88,2.44-1.08,4.79,.28,7.19,.35,3.91,.1,3.63-.04,5.58-3.64,.95-1.74-.45-2.41-.13-3.65,.43-1.33,.49-2.75,.17-4.11-.14-.45-.25-.95-.98-1.12-.56,.54-.31,1.37-.53,2.04-.17,.52-.43,.71-.83,.18h0c-.98,.15-1.45-.58-2.19-1.67-.02,3.39,1.04,6.35-.2,9.22-.33,.56-1.65-1.37-1.73,.69-.01,.3-2.05,.29-3.2-.36-1.96-1.1-4.33-.85-6.42-1.6l-.2,.78Z" fill="#90bcdb"/><path id="ao" d="M66.14,108.1c-1.85-1.04-2.8,1.26-4.45,1.01-.36-.06,.19,.55,.12,.99-.27,1.75-1.16,3.43-.56,5.3,.59,1.84,2.43,3.44,4.02,2.88,1.01-.35,1.77-1.56,2.49-2.5,.57-.73-.38-1-.68-1.47-.32-.51-1.38-1.2,.21-1.56,.41-.09,.36-.29-.37-1.08q-1.74-1.88-.79-3.56Z" fill="#edf4f9"/><path id="ap" d="M63.51,104.22c1.88,.85,4.18,.07,5.88,1.73-.83-1.31-1.36-2.78-1.58-4.32-.66-.04-.67,.28-.76,.53-.18,.48,.16,1.36-.53,1.39-.92,.03-1.29-.95-1.72-1.6-.47-.73,.02-.81,.71-1.16,.93-.46,.54-1.67,.33-2.58-.22-.82-.88-1.45-1.71-1.65-.28-.1-.56,.04-.5,.41,.2,1.2-.82,1.3-1.5,1.61-.79,.36-1.53,.9-1.1,1.72,.58,1.1,.89-.91,1.8-.13-.37,1.82-1.75,3.91,.36,5.79,.39,0,.13-.44,.16-.69,.04-.32-.26-.67,.16-1.05Z" fill="#edf4f9"/><path id="aq" d="M86.58,79.61c-.87,1.07-2.98-.16-3.48,1.83,2.33-.53,4.68,.77,5.49,3.02,.06,.16,.31,.25,.47,.38h-.02c1.38-1.17,1.6-2.78,1.65-4.45-.12-.16-.24-.31-.36-.47-3.08,1.34-.04-1.86-1.54-1.74-.15,.96-.8,1.01-1.76,.69-.64-.21-.71-.03-.45,.73l.2-.16-.19,.17Z" fill="#90bcdb"/><path id="ar" d="M85.25,73.72c.57,1.21,.85,2.57,2.55,1.85,.66-.28,1.45,.28,1.94,.92,.34,.44,.81,.75,1.12,.15,.33-.47,.21-1.13-.26-1.46h-.02c-1.64-1.59-3.76-.2-5.32-1.46Z" fill="#90bcdb"/><path id="as" d="M78.77,106.95c.05,.63-.46,1.48,.65,1.69v.03c0-.27,.19-.32,.41-.33,.3-2.13,2.97-1.22,3.78-3.12-.94,.69-2.25,.48-2.94-.45-.06-.08-.11-.15-.15-.24-.52,1.03-.37,2.35-1.76,2.41Z" fill="#90bcdb"/><path id="at" d="M96.61,83.61c.14-1.45,.39-2.8-1.21-3.55-.36-.24-.83-.21-1.15,.08-.16,.22-.19,.49-.1,.74,.75,.91,.91,2.35,2.46,2.73Z" fill="#edf4f9"/><path id="au" d="M74.5,113.22l-1.24-.21c-.47,.19-1.21,.07-1.11,.91,.08,.64,.52,.91,1.16,.94,.75,.04,1.5,.13,2.28,.19,.24-1.04-1.12-1.01-1.08-1.83Z" fill="#90bcdb"/><path id="av" d="M90.32,79.92c.12,.16,.24,.31,.36,.47,.13-.04,.25-.1,.36-.17,.5-.41,1.28-.71,.63-1.57-.28-.37-.57-.85-1.14-.51-.8,.48-.45,1.15-.21,1.78Z" fill="#edf4f9"/><path id="aw" d="M96.65,88.86c-.22,.08-.6,.12-.64,.26-.14,.44,.28,.46,.57,.56h-.01l.07-.83h.01Z" fill="#edf4f9"/><g id="ax"><path id="ay" d="M79.41,108.64v.02h0v-.02Z" fill="#bed7ea"/><path id="b`" d="M84.94,60.4c.3,.17,.59,.32,.89,.46-.34-.05-.65-.21-.89-.46Z" fill="#90bcdb"/><path id="ba" d="M90.28,89.96h0Z" fill="#bed7ea"/><path id="bb" d="M56.54,98.68c1.25,.18,1.33-2.03,2.9-1.36,.88,.37,1.53,.07,2.15-.93,.63-.94,1.72-1.46,2.85-1.36,1.42,.15,2.76-.71,3.2-2.07,.46-1.71,2.18-1.36,3.32-1.92,.75-.24,1.56,.09,1.93,.79,.86,1.19,2.8,1.54,3.72,.38,.42-.53,1.8,.14,1.37-1.26-.86-2.41-.64-5.08,.59-7.32,.4-.6,.44-1.37,.1-2-.98-1.18-.64-2.66-1.45-3.96,.87,.06,1.59,.7,1.77,1.55,.4,1.25,1.02,1.03,1.73,.29h0c1.31-1.26,1.27-2.86,1.04-4.45-.11-.81-.14-1.91,.48-2.08,1.7-.46,.74-3.22,2.89-3.08-.47-1.62,2.41-2.51,.9-4.42-.62-.78,.03-1.73,.35-2.49,.14-.32,.89-.11,1.26,.28-1.52,1.42,.52,2.07,.67,3.18,.58-.93,2.06-1.25,1.7-2.69-.18-.71-.82-.12-1.21-.3-.44-1.49-1.66-1.97-2.97-2.6,.69,.01,.53-1.39,1.26-1.35,2.27,.13,.76-.93,.38-1.46-.72-1.02-2.1-1.59-2.1-3.1,1.97,.59,2.65,2.69,4.29,3.67l.41,.35h.01c-.13,.31-.43,.62,0,.89,1.01,.63,2.89,1.01,.63,2.49-.16,.1-.2,.69,.18,.57,1.25-.41,.92,.39,.73,.93-.21,.59,.02,.86,.44,1.21,.38,.32,1.28,.57,.1,1.28-.78,.47-1.02,.27-1.5-.26,.31,1.31-1.23,3.14,1.28,3.79,.55,.14,.43,.94,.36,1.5h0c.43,.25,.95,.38,1.16,.92,1.68-.37,2.33,.97,3.21,1.93,.23,.44-1.67,.69-.11,1.24h0c.86,1.91,2.64,3,4.54,4.77-1.69-.34-2.43,.05-2.32,1.32,.09,1.03-.6,.63-1.08,.64l-.24-.16c.04,.09,.08,.17,.12,.26,.23,1.92,1,3.89-.64,5.61-.21,.22-.21,.63-.3,.96-.22,.08-.6,.12-.64,.26-.14,.44,.28,.46,.57,.56,.49,.78,.9,1.41-.27,2.13-.92,.56-.85,2.48-2.83,1.93,.9,1.63,1.11,3.56,.6,5.35h0c-.58,.17-.75-.96-1.31-.5-.59,.48,.11,1.12,0,1.69-.93,1.38-2.51,2.18-4.17,2.11-.65-.06-1.26,.31-1.51,.91-1.67,3.57-3.85,6.88-5.24,10.59-.96-.47-.64-2.36-2.29-2.05,.43-1.02,.39-2.19-.12-3.18l.4-.32c.3-2.13,2.97-1.22,3.78-3.12-.94,.69-2.25,.48-2.94-.45-.06-.08-.11-.15-.15-.24-.52,1.03-.37,2.35-1.76,2.41-.46-1.29-1.44-2.33-2.71-2.86-.65-.33-1.54-.67-1.5-1.71,2.44-1.08,4.79,.28,7.19,.35,3.91,.1,3.63-.04,5.58-3.64,.95-1.74-.45-2.41-.13-3.65,.43-1.33,.49-2.75,.17-4.11-.14-.45-.25-.95-.98-1.12-.56,.54-.31,1.37-.53,2.04-.17,.51-.42,.7-.82,.19h0c-.98,.14-1.45-.59-2.19-1.68-.02,3.39,1.04,6.35-.2,9.22-.33,.56-1.65-1.37-1.73,.69-.01,.3-2.05,.29-3.2-.36-1.96-1.1-4.33-.85-6.42-1.6-.07,.26-.13,.52-.2,.78-.42,.07-1.1,.37-.86,.62,1.12,1.16,.82,2.93,1.76,4.01,.45,.5,.7,1.14,.7,1.81,.08,1.65-.13,3.31-.62,4.89,.45,.57,2.71,.32,1.17,2.17-.47,.19-1.21,.07-1.11,.91,.08,.64,.52,.91,1.16,.94,.75,.04,1.5,.13,2.28,.19,.24-1.04-1.12-1.01-1.08-1.83,.71-.21,1.63,1.21,2.23-.32,.16-.41,.77-.25,1.01,.17,.42,.76,.76,1.81-.14,2.21-2.13,.96-1.44,2.07-.36,3.24,.45,.49-.05,.89,.04,1.34,.2,.94-.42,2.2,1.91,2.4-2.81,.85-1.46,1.3-.71,1.78l-.16,.87-.3,.31c-1.47,1.13-2.28,3.48-4.83,2.56-.41-1.12-1.26-2.01-2.36-2.46,.32-1.28,1.22-2.24,1.43-3.7,.36-2.52-2.15-2.92-2.77-4.69-.29-.83-.9,.25-1.17,.71-.25,.42,.98,1.96-.88,1.13-.06,.19-.2,.41-.15,.56,.39,.71,.14,1.6-.57,1.99-.06,.03-.12,.06-.18,.08-.96,.05-1.87-.38-2.45-1.15-1.14-1.22-2.67-2.06-3.36-3.74-.24-.58-1.1-.72-1.79-.91-1.19-.33-2.45-.82-1.01-2.31,.38-.39-.6-2.17,1.26-1.23,.3,.15-.19-.92,.01-1.42,1.33,.29,1.79-.16,1.35-1.51-.41-.8-.62-1.7-.61-2.6,.05-.35-.06-.78-.51-.7-.87,.13-1.66-.06-1.73-.97-.02-.94,.12-1.88,.42-2.77,.06-.22,1.39,.24,.62-.78-.33-.36-.8-.54-1.28-.5-.57,.13-.35,.79-.36,1.24,.03,.36,.09,.71,.18,1.06-2.08-1.11-2.18-1.86-.7-4.47Zm34.03-23.52c-1.64-1.57-3.76-.18-5.32-1.44,.57,1.21,.85,2.57,2.55,1.85,.66-.28,1.45,.28,1.94,.92,.34,.44,.81,.75,1.12,.15,.33-.47,.21-1.12-.26-1.45h-.02v-.02Zm1.51-3.08c-.1-.14-.11-.33-.03-.48-.09,.15-.08,.34,.03,.48h0Zm2.08,8.8c.74,.91,.9,2.35,2.46,2.73,.14-1.45,.39-2.8-1.21-3.55-.36-.24-.83-.21-1.15,.08-.16,.22-.19,.5-.1,.75h0Zm-4.77,5.91c.48,.29-.2,1.09-.46,1.62-.29,1.24-.42,2.52-.37,3.79,.33,.99,1.4,1.53,2.39,1.21,.14-.05,.28-.11,.41-.19,.33-.16,.83-.39,.58-.92-.23-.49-.59,.03-.8-.02-.7-.17-.89-.57-.93-1.23-.05-.81,.32-.99,1.11-1.12,.26-.04,1.32-.3,1.47-.15l.19,.18-.16-.21c-.05-.41,.32-.98-.58-1-.99-.02-1.57-.73-2.14-1.82,1.12,.21,2.28-.02,3.23-.65,.08-.68-.5-.43-.67-.62-.75-.7-1.79-1-2.8-.79-.27,.04-.54,.03-.81-.03,.09,.63-.71,1.32,.34,1.95h0Zm-.8-2.34c.06,.16,.3,.25,.46,.37,1.37-1.18,1.58-2.78,1.63-4.44,.13-.04,.25-.1,.36-.17,.5-.41,1.28-.71,.63-1.57-.28-.37-.57-.85-1.14-.51-.8,.48-.45,1.15-.21,1.78-3.08,1.34-.04-1.86-1.54-1.74-.15,.96-.8,1.01-1.76,.69-.64-.21-.71-.03-.45,.73v.02c-.86,1.07-2.97-.16-3.47,1.83,2.33-.52,4.68,.77,5.48,3.02h0Zm-27.34,30.93c.59,1.84,2.43,3.44,4.02,2.88,1.01-.35,1.77-1.56,2.49-2.5,.57-.73-.38-1-.68-1.47-.32-.51-1.38-1.2,.21-1.56,.41-.09,.36-.29-.37-1.08q-1.74-1.88-.79-3.56c-1.85-1.04-2.8,1.26-4.45,1.01-.36-.06,.19,.55,.12,.99-.27,1.75-1.16,3.44-.56,5.3h0Zm-.23-15.09c.58,1.1,.89-.91,1.8-.13-.37,1.82-1.75,3.91,.36,5.79,.39,0,.13-.44,.16-.69,.05-.32-.25-.67,.17-1.05,1.88,.85,4.18,.07,5.88,1.73-.83-1.31-1.36-2.78-1.58-4.32-.66-.04-.67,.28-.76,.53-.18,.48,.16,1.36-.53,1.39-.92,.03-1.29-.95-1.72-1.6-.47-.73,.02-.81,.71-1.16,.93-.46,.54-1.67,.33-2.58-.22-.82-.88-1.45-1.71-1.65-.28-.1-.56,.04-.5,.41,.2,1.2-.82,1.3-1.5,1.61-.8,.36-1.54,.89-1.11,1.71h0Z" fill="#bed7ea"/></g><path id="bc" d="M97.71,82.18l-.24-.16c.04,.09,.08,.17,.12,.26l.12-.1Z" fill="#edf4f9"/><path id="bd" d="M79.83,108.35c-.22,0-.41,.06-.42,.33l.42-.33Z" fill="#90bcdb"/><path id="be" d="M92.78,89.78l.19,.18c-.05-.07-.11-.14-.16-.21l-.03,.03Z" fill="#90bcdb"/><path id="bf" d="M85.03,92.43l.17-.08-.16,.09h0Z" fill="#90bcdb"/><path id="bg" d="M8.39,107.9c-.07,1.76,1.55,1.27,2.4,1.7,1.64,.79,3.35,1.44,5.1,1.95-.72-.39-1-1.28-.64-2.01,.4-1.16,1.13-2.64-.6-3.64-.65-.38,.28-.79,.28-1.31,.11-.91-.53-1.74-1.44-1.85-.2-.03-.41-.01-.61,.04-2.23,.28-3.38,1.63-4.18,3.49,.13,.81,1.44-.4,1.27,.71-.12,.78-.78,1.09-1.58,.93h0Z" fill="#edf4f9"/><path id="bh" d="M25.69,105.6c.7,1.54,1.99,2.75,3.57,3.35,1.51,.51,2.83-.78,4.18,.09,.14-.12,.25-.27,.32-.44,.06-.37-.18-.85-.45-.83-1.78,.12-2.61-1.31-3.78-2.18-1.31,.62-2.46-.65-3.75-.32l.02-.02c-.02,.12-.05,.25-.1,.36Z" fill="#90bcdb"/><path id="bi" d="M23.19,101.25c-.76-.62-.08-1.45-.48-2.59l-1.71,3.68c-.6-1.78-2.01-1.58-3.22-1.44-1.33,.15,.35,1.4-.7,1.86,1.2-.36,2.01-1.07,3.25,.02,.59,.51,2.48,.12,2.86-1.52h0Z" fill="#edf4f9"/><path id="bj" d="M36.85,105.8c-1.24,.06-2.46-.33-3.43-1.09-.45-.39-1.07-1.51-1.87-.71-.83,.83,.19,1.57,.65,2.12,.74,.89,2.25,.3,3.1,1.42,.21,.28,1.19-.7,1.66-1.3-.04-.14-.07-.29-.1-.43Z" fill="#90bcdb"/><path id="bk" d="M25.77,105.27c1.29-.33,2.44,.94,3.75,.32,.4-1.28-1.63-1.37-1.29-2.62-.73,0-1.5-.38-2.19,.06-.95,.61,0,1.51-.28,2.24Z" fill="#edf4f9"/><path id="bl" d="M11.96,95.67l-.29,3.29c.67-1.08,3.43,1.19,2.81-1.91-.37-1.84-1.28-1.64-2.51-1.39h-.01Z" fill="#edf4f9"/><path id="bm" d="M18.32,105.05c-.62,.8-1.67,.44-1.8,1.32-.12,.78,.35,1.53,1.11,1.77,.81,.14,1.6-.29,1.92-1.04,.35-1.04-2.03-.3-1.23-2.04Z" fill="#edf4f9"/><path id="bn" d="M30.08,110.03c-.94-.54-1.76-1.22-2.79-.6-.38,.23-.21,.79,.13,1.07,.99,.82,1.76,.17,2.66-.47Z" fill="#90bcdb"/><path id="bo" d="M36.85,105.8c.04,.14,.07,.29,.1,.43,.83-.03,.94,1.23,1.84,1.02,.11-.03,.25-.52,.17-.71-.4-1.02-1.38-.54-2.1-.74Z" fill="#edf4f9"/><path id="bp" d="M8.38,107.91c-.07-.98-.62-1-1.39-.7,.16,.92,.93,.5,1.4,.69h-.01Z" fill="#edf4f9"/><path id="bq" d="M23.19,101.25l.17-.07-.17,.07h0Z" fill="#edf4f9"/><path id="br" d="M25.69,105.6c.05-.11,.09-.23,.1-.36-.08,.07-.15,.15-.23,.23,.04,.05,.08,.09,.13,.13Z" fill="#edf4f9"/><path id="bs" d="M78.79,6.14c1.59,.45,2.8-.36,3.99-1.2,1.3-.92,1.99-.31,2.03,1,.02,.81,.32,1.55,.35,2.26,.09,1.9,.9,2.83,2.75,2.92,.76-1.37,.6-1.22-.37-2.26-.58-.63-1.72-1.37-1.46-2.31,.51-1.8-.74-2.53-1.72-3.35-1.09-.91-2.28-1.07-3.31,.3-.69,.93-1.51,1.76-2.27,2.63Z" fill="#bed7ea"/><path id="bt" d="M84.04,14.64c-.06,1.02,1.09,.82,1.47,1.37,.56,.8,1.34,.59,2.02,.36,.65-.22,.44-.92,.49-1.44,.05-.47-.1-.83-.68-.73-.79,.2-1.63,.03-2.28-.46-.73-.54-.63,.55-1.03,.9Z" fill="#bed7ea"/><path id="bu" d="M86.6,12.23c-.49-.36-1.01-.69-1.54-.99-1.87-.92-2.27-.7-2.74,1.41,.9-.34,1.9-.32,2.79,.05,.41,.32,1,.25,1.32-.16,.07-.09,.13-.2,.16-.31Z" fill="#bed7ea"/><path id="bv" d="M71.7,4.07c1.91-.5,2.8-2.81,4.99-2.74,1.68-1.66,3.96-.63,5.9-1.27,.78-.26,2.56,.3,2.6,1.23,.1,2.74,2.82,2.82,4.06,4.38,1.62,2.05,2.84,6.66,1.36,8.9-.18,.29-.33,.59-.48,.9-.88,1.71-1.09,3.91-3.13,4.82-2.58,1.16-1.75,3.99-1.49,5.28,.34,1.72,.92,3.44,1.14,5.32,.41,3.52-1,6.69-1.4,10.04-.02,.16-.24,.33-.41,.42-.91,.63-1.45,1.68-1.42,2.79-.94,.13-1.81-.52-1.94-1.46-.02-.11-.02-.23-.01-.34l.56-.11-.09-.17-.47,.27c-.68-1.21,.96-.72,1-1.42-.33-.36-.82-.19-1.24-.27-.03-.27,.04-.68-.11-.79-1.76-1.3-1.7-2.72-.36-4.27,.14-.13,.28-.26,.41-.41-1.25-1.56-.97-2.42,.87-3.42,.7-.38,1.1-2.68,.63-3.58-1.02-1.94,.02-2.9,.99-4.17,.34-.44,1.45-.93,.69-1.63-.69-.64-1.19,.35-1.68,.74-1.74,1.38-1.76,1.42-2.52-.52-.31-.8-1.54-.25-1.57-1.07-.05-1.1,1.23-.52,1.72-1.11,.48-.5,1.03-.93,1.63-1.27,.45-.19,.91-.34,1.39-.44-1.72-1.22-3.08,.34-4.4-.01,.02-.97,1.13-.59,1.51-1.25-.87-1.22-1.87-1.95-3.4-1,.2-.61,1.38-1.49-.47-1.51-.91,0-.56-.77-.49-1.22,.14-.65,.32-1.29,.55-1.92l.11-.09c.44,.16,.47,.48,.58,.93,.1,.98,.97,1.7,1.96,1.61,.42-.04,.82-.23,1.11-.54,.61-.56,1.37-.58,1.94-1.05,.9-.34,1.9-.32,2.79,.05,.41,.32,1,.25,1.32-.16,.07-.09,.13-.2,.16-.31,.81,.08,1.57,.09,1.31-1.1,.76-1.37,.6-1.22-.37-2.26-.58-.63-1.72-1.37-1.46-2.31,.51-1.8-.74-2.53-1.72-3.35-1.09-.91-2.28-1.07-3.31,.3-.69,.92-1.51,1.76-2.27,2.63h0c-.37-.69-1.83,1.73-1.63-.57-.73-.09-.77,.66-1.16,.95s-.67,1.01-1.33,.7c-.56-.26-.16-.84-.26-1.22-.37-1.39-1.71-.47-2.52-.9-.46-.29-.43-.96-.18-1.03Zm15.65,10.13c-.79,.2-1.63,.03-2.28-.46-.73-.54-.63,.56-1.03,.9-.06,1.02,1.09,.82,1.47,1.37,.56,.8,1.34,.59,2.02,.36,.65-.22,.44-.92,.49-1.44,.05-.47-.1-.83-.68-.73h0Zm-10.12-8.77s-.06,.09-.07,.14l.18-.16s-.09,0-.11,.02Z" fill="#edf4f9"/><path id="bw" d="M77.15,5.57l.19-.16s-.09,0-.11,.02c-.03,.04-.06,.09-.07,.14h0Z" fill="#bed7ea"/><path id="bx" d="M61.26,125.13c1.58,.44,2.97,1.45,4.86,.69,.83-.33,2.2,1.26,3.06-.45,0-.07,0-.13-.02-.2-1.94-.1-2.74-2.04-4.33-2.7h0c-.08,1.21-.52,2-1.94,2.04-.61-.06-1.22,.16-1.64,.62Z" fill="#bed7ea"/><path id="by" d="M47.17,104.21c.91,.19,1.89,.26,2.42-.68s1.49-1.43,2.14-2.23c.14-.02,.27-.03,.41-.02,2.22,.38,2.66-.74,2.24-2.62,.72,.08,1.44-.95,2.16,.01-1.48,2.61-1.39,3.35,.71,4.46-.09-.35-.15-.7-.18-1.06,0-.45-.21-1.12,.36-1.24,.48-.04,.96,.14,1.28,.5,.77,1.02-.56,.56-.62,.78-.3,.89-.44,1.83-.42,2.77,.07,.91,.86,1.1,1.73,.97,.45-.07,.57,.35,.51,.7,0,.9,.2,1.8,.61,2.6,.43,1.35-.02,1.8-1.35,1.51-.2,.5,.29,1.57-.01,1.42-1.86-.94-.88,.84-1.26,1.23-1.44,1.49-.18,1.97,1.01,2.31,.69,.19,1.55,.33,1.79,.91,.7,1.68,2.22,2.52,3.36,3.74,.57,.77,1.49,1.2,2.45,1.15,.75-.3,1.12-1.15,.83-1.9-.02-.06-.05-.12-.08-.18-.06-.14,.09-.37,.15-.56,1.86,.82,.63-.72,.88-1.13,.28-.46,.88-1.55,1.17-.71,.61,1.76,3.13,2.16,2.77,4.69-.21,1.46-1.11,2.42-1.43,3.7l-1.62,.03c0-.07,0-.13-.02-.2-1.94-.1-2.74-2.03-4.33-2.7-.08,1.21-.53,2-1.94,2.04-.61-.06-1.22,.16-1.64,.61-1.83-.99-3.68-1.96-5.5-2.99-.65-.39-1.36-.65-2.11-.76-.1-.75-.42-1.46-.92-2.02-1.19-1.56-.55-4.42,1.18-5.54-.34-.62-1.93-.09-1.47-1.12,.45-.99-.39-2.95,1.79-2.87-.08-1.16,1.04-1.89,1.08-3.06,.02-.4,.67-.78-.14-1.06-.55-.2-1.13-.72-1.66,.02-.15,.21-.14,.69-.3,.74-2.5,.75-2.56,2.12-1.22,4.08,.3,.43-.11,1.31-.86,1.4-1.08,.12-.42-.62-.48-1.08-.16-1.37-2.02-1.21-2.34-2.48-.38,.12-.9,.07-1.04,.54-.32,1.05-.18,2.16-.53,3.24-.38,1.16,.64,1.72,1.46,2.39,.52,.51,.82,1.2,.84,1.93,.01,.46-.78,.35-1.26,.3l-1.27-.17c-.65-2.48-.97-5.04-.95-7.61-.07-1.23,.69-3.66-1.74-4.28,.99-.64,2.2-.83,3.34-.51Zm11.88,6.38s.08,.05,.12,.07l-.14-.17s0,.09,.02,.11Zm-1.2,7.94c-.06-.02-.12-.03-.19-.05h0c.06,.02,.13,.03,.19,.05h0Zm-2.17-.58c.44,.8,.38-.6,.83-.25,.36,.28,.77,.52,1.15,.77,1.28-1.04,.09-1.45-.55-1.92-.37-.27-.87,0-1.11,.29s-.47,.86-.33,1.11h0Z" fill="#edf4f9"/><path id="c`" d="M59.17,110.67l-.15-.18s0,.09,.02,.11c.04,.03,.09,.06,.14,.07h0Z" fill="#bed7ea"/><path id="ca" d="M54.23,109.82l.08,.19-.09-.18h0Z" fill="#bed7ea"/><path id="cb" d="M64.84,122.46l-.08-.16,.08,.16h0Z" fill="#bed7ea"/><path id="cc" d="M90.08,58.98c2.26,.82,3.36,3.03,5.19,4.34,1.74,1.25,1.2,4.18,3.68,4.91,.26,.08-.02,.62-.16,.94-.15,.33-.21,.7,.1,.95,1.21,1.01,1.11,2.69,2,3.84,1.19,1.54-.1,3.59,.95,5.05,1.23,1.72-.66,3.78,.85,5.43,.29,.32-.34,1.02-.74,1.09-2.26,.42-1.9,1.87-1.53,3.44,.08,.68,.13,1.37,.14,2.06,.23,1.9-1.3,3.54-.63,5.59,.26,.78-.92,1.46-1.89,1.33-.96-.15-1.89,.39-2.22,1.3-.67,1.73-1.6,1.96-3.05,1.04,.11-.57-.59-1.21,0-1.69,.56-.46,.74,.67,1.31,.5,.03,.06,.06,.12,.08,.19-.03-.06-.06-.12-.08-.19,.51-1.79,.3-3.71-.6-5.35,1.98,.55,1.91-1.36,2.83-1.93,1.17-.71,.76-1.35,.27-2.12,.11-.04,.26-.07,.38-.11-.12,.04-.27,.07-.38,.11h-.02c.03-.28,.05-.56,.07-.84h.01c.09-.32,.09-.73,.3-.95,1.63-1.72,.87-3.7,.63-5.61l.12-.1c.48,0,1.17,.4,1.08-.64-.11-1.26,.63-1.66,2.32-1.32-1.9-1.78-3.68-2.87-4.54-4.76l.15-.08-.16,.07c-1.56-.56,.34-.8,.11-1.24-.88-.96-1.53-2.3-3.21-1.93-.21-.53-.73-.67-1.16-.92,.07-.56,.18-1.36-.36-1.5-2.51-.66-.97-2.48-1.28-3.79,.48,.54,.71,.73,1.5,.26,1.18-.71,.28-.96-.1-1.28-.41-.35-.65-.62-.44-1.21,.19-.53,.52-1.34-.73-.93-.38,.12-.34-.46-.18-.57,2.26-1.47,.38-1.85-.63-2.49-.43-.28-.13-.59,0-.89Z" fill="#edf4f9"/><path id="cd" d="M94.07,99.09l.08,.19-.08-.19h0Z" fill="#bed7ea"/><path id="ce" d="M96.56,75.46l.15-.08-.16,.07h0Z" fill="#bed7ea"/><path id="cf" d="M96.67,74.21l.17-.07-.16,.08h0Z" fill="#bed7ea"/><path id="cg" d="M54.72,76.81c-.37,1.66-.58,3.08,1.56,3.6,.94,.23,1.37,1.15,1.26,2.43,1.56-2.52,1.53-2.46-.74-3.87-.78-.64-1.48-1.36-2.08-2.16Z" fill="#90bcdb"/><path id="ch" d="M37.59,80.81c-.49,.99-2.34-.54-2.18,1.3,.07,1.22,.99,2.21,2.19,2.38,.55,.09,1.15,.15,1.28-.62,.09-.54,.21-.99-.68-1.09-1.23-.14-.25-1.22-.61-1.97Z" fill="#90bcdb"/><path id="ci" d="M44.51,82.65c1.03-.17,.16,1.77,1,1.14,.8-.6,1.15-1.86,1.54-2.89,.16-.41-.48-.58-.67-.31-.55,.77-1.78,.86-1.94,1.99l.07,.07Z" fill="#edf4f9"/><path id="cj" d="M55.31,73.52c1.37,.12,2.71,.23,2.99-1.65,.07-.44,.14-.83-.4-.95-.28-.08-.57,.08-.65,.36-.02,.07-.03,.13-.02,.2,.14,1.44-1.75,.93-1.91,2.05h-.01Z" fill="#90bcdb"/><path id="ck" d="M51.94,75.36c-.11,.07-.41,.26-.4,.28,.72,1.25,.08,1.73-1.06,2.02-.1,.03-.2,.55-.11,.75,.21,.46,.41-.07,.62-.08,1.6-.12,1.86-1.08,1.56-2.43-.05-.3-.31-.53-.62-.54Z" fill="#90bcdb"/><path id="cl" d="M30.13,86.11c-.12,.79,.5,.73,.94,.73,.38,0,1.08,.43,1.03-.49-.03-.55-.04-1.24-.69-1.38-.8-.17-.96,.62-1.28,1.13Z" fill="#90bcdb"/><path id="cm" d="M58.59,83.85c.2,.03,.4,.05,.61,.06,.58,0,1.29,.28,1.49-.61,.14-.37-.05-.79-.42-.92-.03-.01-.07-.02-.1-.03-.84-.24-1.03,.4-1.28,.97-.08,.19-.2,.36-.29,.54h0Z" fill="#90bcdb"/><path id="cn" d="M35.56,98.56c.17,.35,.3,.76,.81,.71,.1-.05,.17-.16,.18-.27-.16-.51-.65-.33-1-.44h0Z" fill="#edf4f9"/><g id="co"><path id="cp" d="M14,82.88c.52,.05,1.05,.09,1.58,.14-.07,.67-.84,.07-.87,.67q2.36,.29,1.95-2.39c-.74,1.88-2.3,1.26-2.5,.63-.3-.93-2.88-1.92-.39-3.2,.31-.16,.32-.38,.16-.67-.73-1.31,.33-1.08,1.03-1.22,1.31-.25,3.01-1.06,3.25-1.86,1-3.3,3.63-5.1,5.87-7.26,.66-.57,1.09-1.35,1.23-2.21,.14-.83-.42-2.63,1.63-1.57,.27,.14,.29-.14,.38-.3,.91-1.32,1.97-2.54,3.16-3.62,1.21-1.35,2.23-3.34,4.54-3.33,1.4,1.87-.14,3.29-1.12,4.28-.91,.92-.63,1.01,.11,1.49,1.16,.75,1.89,2.04,1.23,3.14-1.33,2.2-3.03,2.35-5.49,.98-.52-.29-1.16-.79-1.65-.36-.31,.27-.31,1.06-.21,1.57,.14,.65,.37,1.32,1.41,.78,.45-.24,2.04,2.14,1.71,2.66-.74,1.18-1.04-.21-1.56-.37-.3-.09-.52-.15-.64,.21-.49,1.46-.71,.66-1.11-.08-.23-.43-.74-.98-1.34-.44-.56,.51-.59,1.08,.19,1.47,.06,.03,.12,.07,.17,.12,1.58,1.24-.25,1.36-.67,1.77-1.3,1.26,2.09,.78,.68,1.93-.59,.48-1.11,1.19-2.08,.88-.3-.09-.79-.08-.83,.36-.05,.35,.19,.68,.54,.74,.08,.01,.16,0,.24,0,1.66-.13,1.14,.44,.38,1.13-.32,.29-.43,.75-.27,1.15,.84,2.12-.8,2.34-2.1,2.62-.75,.16-1.53-.06-.88,1.09-.7,.28-.47,1.79-1.73,1.31l-1.26-.17c-.25,1.39,.18,2.79,1.5,2.98,1.11,.16,2.31-1.23,3.65-.12,.2,.17,.49-.37,.45-.75-.08-.81-.78-1.9,.86-1.93,.87-.02,1.78-.84,2.61,.25,.31,.4,.89,.47,1.29,.15,.12-.1,.22-.22,.28-.37,.46-1.35,1.33-1.31,2.43-1.15,.55,.08,1.39,.44,1.61-.41,.23-.9-1.26-.05-1.18-1.01,1.41-.22,1.03-2.2,2.41-2.51,.64-.65,.94-1.32,.17-2.08-.78,.27-.76,2.15-1.88,1.28-.74-.57-3.19-.86-1.4-2.88,.1-.12-.09-.52-.18-.78-.46-1.04,.01-2.24,1.05-2.7,.12-.05,.24-.09,.37-.12-.3-1.28,1.31-1.38,1.47-2.38h0c.07-.08,.14-.17,.2-.26-.05-.04-.09-.08-.14-.12l-.06-.08c1.13-2.02,2.21-4.07,3.44-6.03,.39-.55,.51-1.25,.31-1.9-.51-2.1,1.1-3.32,3.33-2.89,1.32,.26,2.72,1.13,4.07,.34,1.92-1.12,2.66-.95,4.07,0s1.66,1.77,.96,3.21c-.15,.31-.94,.63-.36,1.11,.4,.26,.92,.26,1.32,.01,.6-.25,1.92-.9,1.97-.11,.11,1.58,1.75,2.97,.64,4.65-.47,.71-1.06,1.35-1.63,2.08,2.04-.02,2.08,0,2.43-.91,.33-.84,.8-2.06,1.71-1.29,1.33,1.12,1.32-.95,2.14-.59,.06,.03,.12,.07,.17,.11,.8,.59,1.7,1.02,2.66,1.28,1.33-.29,1.37,.47,1.18,1.39-.39,1.47,.01,3.05,1.07,4.15,.86,.53,1.14,1.66,.61,2.52-.02,.04-.05,.07-.07,.11,1.36-.47,1.35-1.52,1.53-2.3,.43-1.88,1.34,.38,1.94-.37-.1-.29-.15-.6-.13-.91,.24-.9,.63-2.1,1.55-2.05,.71,.04,2.42,.19,2.25,.88-.38,1.55,.85,2.05,1.29,3.03h0c-.54-.08-1.07-.2-1.6-.35-.6-.21-1.36-.58-1.76-.14-.63,.7,.43,.97,.7,1.44,.47,.71,.54,1.61,.19,2.38-.41,.49-1.04,.73-1.67,.65-1.92-.65-3.74-1.22-5.8-.35-.74,.31-1.98-.26-2.36,.74-.33,.88,.77,1.51,1.05,2.36,.26,.52,.86,.77,1.41,.58,.56-.15,.94,.26,.66,.63-.7,.92,.58,1.37,.46,2.12q-3.74-.2-5.39-1.68h0c-.55,.4-1.33,1.24-1.61,1.1-.74-.37-1.44-.92-1.77,.17-.29,.98,.26,2.02,1.24,2.33,2.14,.88,1.22,1.96,.25,3.19-2.51-5.14-3.36-5.38-6.15-2.23-1.01-1.6,.84-2.75,.62-4.2-.08-.5,.72-1.33-.44-1.42-1.07-.08-1.01,.84-.92,1.47,.11,.75,.14,1.28-.61,1.75-.57,.42-.87,1.1-.81,1.81,0,.5,.43,1.26-.49,1.17-.46-.11-.74-.57-.63-1.03,.03-.11,.08-.22,.14-.31,.98-1.01,.17-2.35,.8-3.38,.26-.43,.27-.82-.33-.89-.5-.05-1.41-.29-1.3,.49,.29,2.21-1.46,3.83-1.49,5.91-.72-.46-1.65-.4-2.31,.15-.88,1.07-1.81,.88-2.85,.65-.06-.09-.1-.19-.15-.28,0-.02,.09-.07,.14-.1,1.46-1.46,3.03-2.86,3.12-5.15l.18-.2-.23,.14c-.93,.98-2.41,1.24-3.17,2.47-.22,.36-.58-.01-.84-.06-1.85-.31-3.96-1.52-5.31,.98,.31,.3,.64,.57,.99,.82,2.26,1.42,2.29,2.51,.21,4.06-.53,.39-1.78,.54-1.3,1.54,.57,1.2,.63-.86,1.26-.34,.23,.16,.47,.29,.73,.39,.92,.45,1.72,1.1,2.63,1.58,1.74,.92,1.71,2.7,.18,3.64-2.02-.13-.41,.82-.04,1.28-.84-.03-1.69-.11-2.52-.24-.57-.13-1.61,.35-1.62-.48-.01-.75,.15-1.88,1.37-2.04,.39-.51,.54-1.15,.41-1.78-1.42,1.41-3.5-.35-4.93,1.25-.06,.06-.62-.22-.85-.45-.31-.3,.1-.43,.26-.62,.82-1.04,.72-.96-.12-2.01-.34-.64-.53-1.35-.56-2.07-.09-.52-.26-.95-.81-1.07-.59-.13-1.33,.11-1.44,.57-.64,2.77-2.39,1.35-3.74,.98-.56-.15-1.01-.73-1.68-.43-1.3,.6-.81-.56-.99-1.02-.16-.41,.43-1.41-.79-.93-.61-.08-1.24-.13-1.49-.86-.5-1.49-1.57-1.64-2.89-1.22-1.18-.52-1.5-1.62-1.84-2.71h0c.01-.26,.02-.52,.04-.78-.05-.34-.11-.67-.51-.82s-1.12-.06-.87-.82c.12-.57,.65-.96,1.23-.9Zm52.64-6.18c-.07-.01-.13-.02-.2-.01,.07,0,.13,0,.2,.01,.07,.01,.14,.04,.2,.07-.06-.04-.13-.06-.2-.07h0Zm-.41,.71c-.07-.09-.14-.19-.2-.26,.06,.07,.13,.17,.2,.26h0Zm-3.01-1.41c.06-.11,.11-.23,.17-.34l-.17,.34Zm-5.31-5.08c-.28-.08-.57,.08-.65,.36-.02,.07-.03,.14-.02,.2,.14,1.44-1.74,.93-1.9,2.04,1.36,.12,2.7,.22,2.98-1.65,.06-.44,.14-.83-.41-.95h0Zm1.81,5.07c.1,0,.21,0,.31-.02-.1,.01-.2,.02-.31,.02h0Zm.05-.22h0Zm.08-.2h0Zm.15-.13h0Zm.27-.02h0s.01,.01,.02,.01-.02-.01-.02-.01Zm-.22,.56s.05-.01,.07-.02c-.02,0-.05,.01-.07,.01h0Zm.1-.02s.04-.02,.06-.03c-.02,.01-.04,.02-.06,.02h0Zm.09-.04s.03-.03,.05-.05c-.01,.02-.03,.03-.05,.05h0Zm.12-.38s.02,.03,.02,.04c0,.05,0,.1-.02,.15,.01-.05,.02-.1,.02-.15,0-.02-.01-.03-.02-.05h0Zm-.05,.31s.03-.06,.04-.09c0,.03-.02,.06-.04,.08h0Zm-1.11,8.11c.58,0,1.29,.28,1.49-.61,.14-.37-.05-.79-.42-.92-.03-.01-.07-.02-.1-.03-.84-.24-1.03,.4-1.28,.97-.08,.19-.2,.36-.29,.54,.2,.03,.4,.05,.6,.06h0Zm.76-6.21l-.27-1.69c-.86-.03-1.89-.31-2.34,.64-.25,.53,.19,1.15,.91,1.31,.37-1.27,1.17,.07,1.7-.27h0Zm-3.68,2.72c.94,.23,1.37,1.15,1.26,2.43,1.56-2.52,1.53-2.46-.74-3.87-.78-.64-1.48-1.36-2.08-2.16-.37,1.65-.58,3.07,1.56,3.59h0Zm-5.91-1.98c.21,.46,.41-.07,.62-.08,1.6-.11,1.86-1.08,1.56-2.43-.05-.3-.31-.53-.62-.54-.14,.08-.27,.18-.4,.28,.72,1.25,.08,1.73-1.06,2.02-.1,.02-.21,.54-.11,.74h0Zm-4.86,5.38c.8-.6,1.15-1.86,1.54-2.89,.16-.41-.48-.58-.67-.31-.55,.77-1.78,.86-1.94,1.99h0l.07,.07c1.03-.18,.16,1.77,1.01,1.14h0Zm-1.2-.73l-.06,.13h0l.06-.13Zm-.17,.03s.03,.03,.04,.04c-.01-.01-.03-.03-.04-.05h0Zm-.15-9.79c.64-.13,.47-.7,.56-1.13,.83,.19,1.66-.31,1.88-1.13,.09-.25-.39-.96-.75-1.08-1.87-.66-.88,1.26-1.51,1.76-.54,.3-.54,.87-.66,1.37,.13,.12,.3,.19,.47,.2h0Zm-2.72-1.83h0c.14,.91,.67,.69,.72,.09,.16-1.79,.98-3.38,1.32-5.08,.2-.98-.96-1.26-1.89-1.25l-.05-.06c.3-.67,1.1-1.3,.08-2.05-.29-.22-.31-.81-.92-.56-.5,.21-.43,.53-.45,.98-.07,1.49-1.6,3.12,.48,4.4,.05,.25-.01,.51-.17,.72-2.14,1.7-.01,2.04,.86,2.78h0Zm-5.86,10.66c.07,1.22,.99,2.21,2.19,2.38,.55,.09,1.15,.15,1.28-.62,.09-.54,.21-.99-.68-1.09-1.23-.14-.25-1.22-.61-1.97-.49,.99-2.34-.54-2.18,1.3h0Zm.15,16.46c.17,.35,.31,.76,.81,.71,.1-.05,.17-.16,.18-.27-.16-.51-.64-.33-.99-.44h0Zm-4.49-11.72c.38,0,1.08,.43,1.03-.49-.03-.55-.04-1.24-.69-1.38-.8-.17-.96,.62-1.28,1.13-.12,.78,.5,.72,.93,.73h0Zm-12.6-3.25l1.64,.2h0c-.71-1.56-.22-2.2,1.48-1.98,.5,.06,1.18,.39,1.44-.3,.1-.27-.3-.72-.47-1.09-.39-.83-.85-.34-1.32-.08-.18,.09-.38,.15-.58,.18-2.73,.51-2.74,.52-2.18,3.07h0Z" fill="#bed7ea"/><path id="cq" d="M40.37,104.29c-.2,.51-.73,.81-1.26,.71-.06,0-.18-.25-.15-.31,.28-.5,.91-.68,1.41-.41Z" fill="#bed7ea"/><path id="cr" d="M45.1,89.78h0Z" fill="#bed7ea"/></g><path id="cs" d="M32.79,72.8l.08,.18-.09-.17h.01Z" fill="#90bcdb"/><path id="ct" d="M34.31,70.05c-.01,.13-.03,.25-.06,.38,.07-.08,.14-.17,.2-.26-.04-.04-.09-.08-.14-.12Z" fill="#90bcdb"/><path id="cu" d="M43.05,85.03l.18-.2-.23,.14,.05,.06Z" fill="#90bcdb"/><path id="cv" d="M18.47,83.6l1.64,.2c-.71-1.56-.22-2.2,1.48-1.98,.5,.06,1.18,.39,1.44-.3,.1-.27-.3-.72-.47-1.09-.39-.83-.85-.34-1.32-.08-.18,.09-.38,.15-.58,.18-2.73,.52-2.74,.53-2.18,3.07Z" fill="#90bcdb"/><path id="cw" d="M61.25,49.8c-.82,0-1.36,.23-1.36,1.02-.06,.4,.13,.79,.48,.99,.54-1.61,2.24,1.31,2.5-.59,.1-.71-.91-1.23-1.62-1.42Z" fill="#90bcdb"/><path id="cx" d="M54.89,49.36l-.23,.24,.34,.32c.06-.1,.17-.21,.16-.3s-.15-.15-.26-.25Z" fill="#edf4f9"/><g id="cy"><path id="d`" d="M18.74,92.86c.65-.13,1.44-.16,1.46-1.13l.12-.76c1.21-.48,.62,.52,.79,.93,.18,.46-.31,1.62,.99,1.02,.67-.3,1.13,.27,1.68,.43,1.35,.37,3.1,1.79,3.74-.98,.11-.46,.85-.69,1.44-.57,.55,.12,.72,.55,.81,1.07,.03,.72,.22,1.43,.56,2.07,.84,1.04,.94,.97,.12,2.01-.15,.19-.56,.32-.26,.62,.23,.23,.8,.51,.85,.45,1.43-1.59,3.51,.16,4.93-1.25,.12,.62-.03,1.27-.41,1.78-1.21,.17-1.38,1.29-1.37,2.04,.02,.82,1.05,.35,1.62,.48,.83,.13,1.68,.21,2.52,.24-.37-.45-1.98-1.4,.04-1.28,1.2,.53,2.14,1.5,2.65,2.71-.7,1.01-.84,1.04-1.73,.17-.99-.97-1.97-1.56-3.03-.11-.43,.59-.91,.26-1.23-.04-1.34-1.25-3.1-1.95-4.93-1.96,.82-1.7,.33-2.43-1.43-2.33-.34,.02-.68,.19-1.01,.18-1.11-.04-3.2-1.83-2.76-2.19,.9-.73,.85-1.27-.04-1.68-.85-.39-1.37,.17-1.7,1.01-.24,.6-1.29,1.1-1.39,.71-.47-1.82-2.02-1.56-3.22-1.97-.5-.17-.89-.44-.87-1.01,.03-.69,.6-.59,1.07-.68Z" fill="#edf4f9"/></g><path id="da" d="M77.2,19.39c.38-.96,.33-2.04-.15-2.95-.69,.49-1.08,1.4-2.13,.03-1.14-1.5-2.46-.62-3.26,2.06-.84-.17-.1-2.3-1.8-1.44-.66,.34-.93,.7-.14,1.12,1.65,.88,1.35,1.96,.12,3.38,2.93-.26,5.19,2.57,8.2,.82-.41-.92-1.51,.09-2-.96,.09-.54,1.48-.63,1.12-1.66h0c-.29-.17-.29-.31,.04-.42h0Z" fill="#edf4f9"/><path id="db" d="M57.54,18.85c1.99-.96,2.48-3.09,4.59-4.24-3.45,.14-4.77,1.44-4.59,4.24Z" fill="#edf4f9"/><path id="dc" d="M76.46,31.5c1.77,.23,1.42-1.7,2.49-2.03-.13-.29,.05-.72-.37-.87-1.1,.44-2.12,1.07-3.01,1.86-.14,.88,.37,1.07,.89,1.04Z" fill="#edf4f9"/><path id="dd" d="M27.8,20.73c.43-.56,2.07-.99,.34-2-.29-.17-.03-.68,.29-.86,1.16-.66,1.33-1.86,1.59-2.98,.1-.45,.12-.86,.66-.82,2.28,.18,3.38-2.22,3.7-3.18,.69-2.03,1.89-.6,2.69-.99,.39-.19,1.3,.27,.82,1.34-.39,.86-.91,1.9,.24,2.75,.16,.29,.15,.65-.01,.94-1.14,1.09-.87,2.79-1.79,3.97-.19,.24-.18,.9-.51,.74-1.52-.74-2.9,.48-4.36,.31,0-.98,1.11-.88,1.3-1.7-.6-.19-1.42-.91-1.71-.2s-1.5,1.48-.89,2.12c1.74,1.8-.17,2.15-.96,2.96h.01l-.47,.38h.01c-2.25-.73-2.32-.99-.94-2.79Z" fill="#bed7ea"/><path id="de" d="M28.73,23.52l.47-.39-.47,.39Z" fill="#edf4f9"/><path id="df" d="M46.26,40.88c.15,.18,.31,.36,.46,.54,.14-.32,.07-.69-.19-.93l-.27,.4Z" fill="#edf4f9"/><g id="dg"><path id="dh" d="M89.05,84.84h0Z" fill="#90bcdb"/><path id="di" d="M89.39,86.79c-1.05-.63-.24-1.31-.33-1.94,.27,.06,.54,.07,.81,.03,1.01-.21,2.05,.08,2.8,.79,.17,.2,.74-.06,.67,.62-.95,.63-2.11,.86-3.23,.65,.12,.03,.44,.77,.55,.9,.21,.29,.47,.54,.79,.72,.47,.24,1.82,.13,1.54,1.08-.11,.39-.61,.48-1.02,.49-1.18,.02-2.53,1.75-.82,2.16,.21,.05,.57-.47,.8,.02,.25,.53-.25,.77-.58,.92-.89,.55-2.05,.28-2.6-.61-.08-.13-.14-.26-.19-.41-.05-1.28,.08-2.55,.37-3.79,.26-.53,.95-1.33,.46-1.62Z" fill="#90bcdb"/></g><path id="dj" d="M86.58,79.61l.19-.17-.2,.16v.02Z" fill="#bed7ea"/><path id="dk" d="M41.27,71.46l.18-.09-.18,.08h0Z" fill="#bed7ea"/><path id="dl" d="M40.92,65.53l-.19,.22,.25-.15-.06-.07Z" fill="#bed7ea"/><path id="dm" d="M40.57,67.96c-2.08-1.28-.55-2.91-.48-4.4,.02-.45-.05-.78,.45-.98,.61-.26,.63,.34,.92,.56,1.02,.75,.21,1.38-.08,2.05l.05,.06-.44,.38-.06-.07-.19,.22,.25-.15,.44-.38c.94-.01,2.09,.26,1.89,1.25-.34,1.7-1.16,3.29-1.32,5.08-.05,.6-.58,.81-.72-.09l.18-.09-.18,.08c-.87-.74-3-1.09-.86-2.79,.16-.2,.22-.47,.17-.72Z" fill="#edf4f9"/><path id="dn" d="M44.17,71.71l.39,.46-.39-.46Z" fill="#bed7ea"/><g id="do"><path id="dp" d="M74.4,33.66c-.06,.55-.53,.96-1.09,.93,0-.47,.17-.92,.48-1.27,.1,.06,.26,.12,.39,.19s.22,.11,.22,.16Z" fill="#bed7ea"/><path id="dq" d="M37.86,23.83c.58-.04,1.06-.44,1.21-1,.13-.98-1.25,.28-1.23-.76,.52-.42,1.21-.54,1.84-.32,.89,.21,1.83-.01,2.54-.6,2.04-2.35,3.4-2.57,6.01-.54,1.45,.31,1.81-1.96,3.39-1.41,1.53,.53,2.01-.61,2.16-1.7,.19-1.02,.09-2.07-.27-3.03-.97-2.04,.35-1.93,1.43-1.53,.9,.34,2.02-.62,2.67,.55,.52-1.54,1.5-.73,2.31-.31,.48-.99-.83-1.77-.02-2.66,.7-.06,1.19,2.07,2.07,.24,0,0,.3,.07,.32,.15,.48,2.16,2.81,1.38,3.94,2.49,.55,.53,1.35,.84,1.86,.39,.42-.52,.55-1.21,.38-1.85-.28-.77-.7-1.6,.26-1.79,.88-.06,1.68,.53,1.88,1.39,.2,.75,1.05,2.04,1.9,1.35,1.31-1.06,2.7-.91,4.11-1.1-.22,.63-.41,1.27-.55,1.92-.07,.45-.42,1.21,.49,1.22,1.86,.01,.68,.9,.47,1.51-.68,.47-1.07,1.38-2.11,.01-1.14-1.5-2.46-.62-3.26,2.06-.84-.17-.1-2.3-1.8-1.44-.66,.34-.93,.7-.14,1.12,1.65,.88,1.35,1.96,.12,3.38,2.93-.26,5.19,2.57,8.2,.82-.41-.92-1.51,.09-2-.96,.09-.54,1.48-.63,1.12-1.66-.29-.17-.29-.31,.03-.42,.38-.96,.33-2.03-.15-2.94,1.53-.93,2.52-.2,3.39,1.01-.37,.66-1.48,.29-1.51,1.24-.52-.01-.85,.2-.9,.76,.04-.56,.38-.77,.91-.76,0,.23-.1,.45-.26,.61,.17-.16,.26-.38,.26-.61,1.3,.36,2.67-1.2,4.39,.02-.48,.1-.94,.24-1.39,.44-.6,.34-1.15,.77-1.63,1.27-.49,.59-1.77,.01-1.72,1.11,.03,.82,1.26,.27,1.57,1.07,.75,1.93,.77,1.9,2.52,.52,.49-.39,1-1.38,1.68-.74,.76,.7-.36,1.19-.69,1.63-.97,1.27-2.01,2.23-.99,4.17,.47,.9,.07,3.2-.63,3.58-1.84,1.01-2.13,1.86-.87,3.42-.13,.14-.26,.28-.41,.41-.69,.16-1.3-.52-2.01-.2-.34,0-.68,.07-1,.19,.32-.12,.66-.19,1-.19-.13,0-.42,1.18-.71,1.31-.66,.3-.78-.73-1.41-.72-.35,0-.44,.22-.67,.4-.26,.24-.65,.27-.94,.08-.61-.27-.91-.89-1.59-1.06-.31-.08-.65-.08-.67-.51,0-.23,.09-.45,.24-.62,.15-.17,.28-.35,.41-.54,.15-.31,.23-.65,.24-1,.04-.34-.05-.9,.31-1.07,1.13-.52,.3-1.28,.3-1.85,0-.48-.83-.39-1.23-.3-1.42,.34,.02,1.02,0,1.04-.76,.77-1.15,1.71-1.85,2.52-.93,1.06-2.45,.6-3.5,1.63-.15,.18-.33,.33-.53,.46-.21,.12-.47,.1-.65-.06-.25-.28-.06-1.41,.14-1.69,.25-.3,.53-.56,.84-.79,.74-.64,.7-1.73,.99-2.63,.25-.97,.81-1.82,1.6-2.43-.86-1.06-1.82,.23-2.59-.1-.98-.42-.12-1.76-1.01-2.39-.89,1.26-2.35,2.3-2.65,3.9-.16,.84,.45,1.78-.08,2.4-.7,.61-1.63,.9-2.55,.8l-4.76,.08c-.63-.07-1.27-.09-1.91-.06-.48,.1-.84,.5-1.32,.47-.64,1.13-1.66,2-2.87,2.46-.68,.76-3.35,1.19-3.64,.49-.35-.92-1.15-1.59-2.11-1.78-1.11-.27-1.6,.99-2.59,1.37,.49-.71,.55-1.64,.14-2.4-.53-.65-1-2.18-1.2-1.95-.81,.91-1.83,.06-2.64,.65-.88,.63-1.19-.34-1.02-.85,.6-1.84-.2-3.61-.1-5.42,.05-.65-.2-1.2,.71-1.38Zm38.6,7.67c1.77,.24,1.42-1.7,2.49-2.03-.13-.29,.05-.72-.37-.87-1.1,.44-2.12,1.07-3.01,1.86-.14,.88,.37,1.06,.89,1.04Zm-1.41,4.32h0Zm-17.44-17.35s.05,.03,.08,.05c1.16,.54,3.21-3.86,4.44-3.91-1.29-.06-2.57,.32-3.61,1.08-.37,.34-.64,.77-.79,1.24-.13,.39-.51,1.26-.11,1.53h0Zm-6.87,11.72c.11-.04,.2-.05,.3-.07-.2,.02-.38,.08-.56,.18,.08-.04,.16-.07,.26-.1Zm-.36,.15s-.06,.03-.09,.04c-.01,0-.02,.01-.03,.02,.04-.02,.08-.04,.12-.06Zm-3-9.76s.08-.02,.13-.02c-.04,0-.09,0-.13,.02h0Zm.85,1.94c.06-.09,.12-.18,.16-.28-.05,.1-.1,.19-.16,.28Zm-.29-.72c-.13-.2-.28-.37-.4-.55,.12,.18,.27,.35,.4,.55h0Zm-2.67,8.87c-.36-.6-.69-1.22-1-1.86,.31,.64,.64,1.26,1,1.86h0Z" fill="#bed7ea"/></g><circle id="dr" cx="66.07" cy="30.62" r="2.53" fill="#1d130e"/><circle id="ds" cx="50.86" cy="31.78" r="2.53" fill="#1d130e"/><path id="dt" d="M75.45,55.18c.94-.06,1.32,1.25,1.21,2.2s-.32,2.13,.42,2.72c.56,.45,1.37,.29,2.06,.48s1.21,1.26,.56,1.57c-1.13,.34-2.35-.08-3.05-1.04-.65,.02-1.05,.82-.92,1.47,.19,.63,.56,1.19,1.07,1.62,.5,.42,.88,.99,1.07,1.61,.1,1.13-.73,2.14-1.86,2.24-.21,.02-.43,0-.64-.04-1.29-.46-2.09-1.75-1.93-3.11,.15-.66,.21-1.34,.17-2.01-.12-.67-.86-1.28-1.43-.92-.51,.32-.45,1.07-.55,1.67-.31,1.28-1.6,2.07-2.88,1.76-.28-.07-.54-.18-.77-.34-.49-.5-.92-1.06-1.28-1.66-.37-.61-1.05-.95-1.76-.89-.68,.15-1.01,1.27-.38,1.57-.5,.63-1.55,.32-2.09-.27-.44-.67-.92-1.32-1.43-1.94-.74-.63-1.79-.74-2.64-.28-.87,.49-.64,1.11-1.14,1.8-.2,.32-.6,.44-.94,.29-.39-.23-.35-.82-.17-1.24,.25-.38,.42-.82,.48-1.28-.08-.52-.4-.98-.86-1.24-.46-.25-.84-.62-1.11-1.06-.22-.48,0-1.2,.52-1.23s.79,.56,.99,1.03c.14,.42,.5,.74,.94,.84,.01-.16,.28-.6,.29-.83,.74,.1,1.28,.79,2.05,1,.79,.26,1.65-.05,2.1-.75,.29-.9,.02-1.88-.68-2.51,.57-.79,1.8-.24,2.48,.44s1.53,1.56,2.42,1.21c.76-.29,.97-1.25,1.18-2.04s.8-1.71,1.59-1.54c.81,.17,.96,1.27,.91,2.11s.02,1.92,.8,2.19c.4-.5,1.14-1.88,1.69-2.11s.49,.21,.88,.13c.52-.1,.54,.09,1.18-.33,.57-.37,.65-1.23,1.47-1.28Z" fill="#bed7ea"/><path id="du" d="M69.11,60.31c1.3,.29,3.49-1.35,4.39-2.11,.37-.31,.85-.65,1.31-.48,.42,.21,.62,.7,.49,1.15-.08,.37-.44,.86,.13,1.03,.19,.03,.38,.05,.57,.07,.2,.02,.36,.15,.42,.34,.05,.32-.81,.78-.99,1.13-.29,.59-.31,1.27-.07,1.87,.16,.41,.86,1.5-.16,1.49-.82,0-.81-2.31-1.2-2.9-.41-.59-1.02-1.02-1.72-1.2-1.22-.06-1.72,1.87-2.94,1.64-.79-.14-1.09-1.08-1.76-1.51-.73-.47-1.5-.02-2.23-.28-1.07-.39,.39-1.13,.71-1.44,.5-.48,1.37-1.55,2.02-.62,.43,.62-.15,1.56,1.03,1.82Z" fill="#edf4f9"/><path id="dv" d="M29.58,24.6c1.06,.09,2.11,.23,3.15,.43,.24,.17,.58,.12,.75-.12,.04-.05,.07-.11,.08-.18,.17-.5-.17-.77-.54-.97-1.2-.66-2.56-.4-3.83-.64-1.06,.89-.55,1.28,.39,1.48Z" fill="#bed7ea"/><path id="dw" d="M46.48,32.36c-.42-.14-1-1.37-1.23-1.75-.24-.4-.49-1.38-1.07-1.45-.45-.05-.66,.7-.62,1.1,.13,1.23,1.96,1.79,2.91,2.09Z" fill="#edf4f9"/><path id="dx" d="M59.66,75.93s-.03-.02-.04-.02c-.3-.09-.61-.12-.92-.08-.6-.02-1.17,.25-1.52,.74-.16,.51,.05,1.06,.51,1.33,.24,.13,.52,.14,.77,.04,.18-.07,.34-.2,.52-.26,.28-.09,.64,.2,.89,.05s.28-.69,.25-.93c-.04-.34-.2-.64-.46-.86Z" fill="#90bcdb"/><path id="dy" d="M75.09,72.29c.18,.03,.35,.07,.52,.13,.17,.07,.32,.17,.45,.3,.16,.15,.78,.93,.39,1.07-.09,.03-.19,0-.27-.05-.07-.06-.14-.13-.21-.2-.13-.13-.29-.22-.46-.28-.17-.04-.33-.1-.49-.16-.34,1.49-1.38,.56-2.21,.71,.47-1.11,.68-2.4,2.28-1.53Z" fill="#edf4f9"/><path id="e`" d="M57.68,118.56c.07-.03,.13-.07,.19-.12,.35-.27,.45-.76,.24-1.15-.29-.29-.62-.54-.98-.73-.37-.27-.87,0-1.11,.29s-.47,.86-.33,1.11c.23,.42,.29,.18,.47-.08,.15-.21,.21-.15,.44-.02,.2,.11,.38,.26,.53,.43,.13,.14,.27,.3,.45,.3,.04,0,.07-.01,.11-.03Z" fill="#bed7ea"/><path id="ea" d="M44.18,71.71c.63-.5-.37-2.42,1.51-1.76,.35,.12,.84,.83,.75,1.08-.12,.36-.35,.67-.66,.9-.16,.11-.33,.18-.52,.22-.19,.04-.47-.03-.62,.12s-.12,.42-.18,.61c-.07,.21-.25,.37-.47,.4-.18-.01-.34-.08-.47-.2,.12-.5,.12-1.07,.66-1.37Z" fill="#90bcdb"/><path id="eb" d="M45.25,41.43c.1-.37,.01-.77-.24-1.05-.22-.29-.59-.43-.8-.7-.19-.24-.16-.58,.06-.79,.24-.19,.63-.11,.91-.14,.41-.09,.79-.28,1.12-.54,.52-.3,1.04-.59,1.56-.89,.25,1.34-1.46,1.87-1.31,3.16l-.27,.4c.15,.18,.31,.36,.46,.54,.1,.1,.14,.25,.09,.38-.07,.12-.15,.23-.25,.33-.42,.3-.12,1.46-1.16,1-.48-.21-1.19-.2-1.34-.83-.28-1.15,.99-.33,1.19-.87Z" fill="#90bcdb"/><path id="ec" d="M45.26,44.83c.23,1.93,.98,3.77,2.16,5.32,1.33,1.69,3.44,2.21,5.46,2.65,4.32,.87,8.79,.66,13.01-.61,2.7-.79,5.41-1.61,7.18-3.96,1.45-2.05,2-4.6,1.53-7.07-.36-2.41-1.65-4.59-3.59-6.07-1.05-.86-2.24-1.53-3.52-1.98-1.53-.51-2.91-1.39-4.44-1.95-2.45-.89-5.14-.89-7.6-.02-2.89,1.04-4.52,3.34-6.7,5.26-2.46,2.08-3.77,5.22-3.49,8.43Z" fill="#edf4f9"/><path id="ed" d="M52.95,40.27c.18,1.72,1.69,2.37,3.07,2.96,1.71,.72,3.4,1.16,5.17,.27,1.61-.81,4.05-2.42,3.83-4.48-.22-2.16-3.11-3.64-6.44-3.29s-5.85,2.38-5.63,4.54Z" fill="#3574a2"/><path id="ee" d="M53.06,47.39c.18,.9,.92,1.57,1.83,1.67,.96,.14,1.94-.11,2.71-.7,.69-.54,1.2-1.29,1.44-2.13,.22-.8,.31-1.63,.27-2.46h.19c.07,.81,.27,1.62,.59,2.39,.35,.81,.95,1.48,1.71,1.92,.84,.48,1.85,.6,2.78,.33,.89-.22,1.54-.99,1.6-1.9" fill="none" stroke="#3574a2" stroke-dasharray="0 0 .49 .7" stroke-linecap="round" stroke-linejoin="round" stroke-width=".7"/></g></g></svg>