<?xml version="1.0" encoding="UTF-8"?>
<svg id="b" data-name="Layer 2" xmlns="http://www.w3.org/2000/svg" xmlns:xlink="http://www.w3.org/1999/xlink" viewBox="0 0 331 278">
  <defs>
    <clipPath id="ac">
      <path d="m193.58,139.82l5.3-7.41c.15-.21.79-.25,1.44-.09l23.04,5.57c.65.16,1.05.45.9.66l-5.3,7.41c-.15.21-.79.25-1.44.09l-23.04-5.57c-.65-.16-1.05-.45-.9-.66Z" fill="none"/>
    </clipPath>
  </defs>
  <g id="c" data-name="Layer 1">
    <rect id="d" data-name="Rectangle 378-2" x="0" width="331" height="278" fill="#d8ede7"/>
    <rect id="e" data-name="Rectangle 378-3" x="0" y="174" width="331" height="103.34" fill="#8fbad9"/>
    <path d="m284.24,144.32H0v95.55h284.24c6.84,0,12.39-5.54,12.39-12.39v-70.78c0-6.84-5.54-12.39-12.39-12.39Z" fill="#3475a1"/>
    <path d="m125.91,187.84c-1.52-6.6-9.69-5.84-14.93-6.09-7.96-.39-15.93-.62-23.9-.77-15.78-.29-31.56-.22-47.34-.19-13.25.02-26.5.21-39.74.56v38.34c13.7.77,27.42,1.02,41.14.97,14.12-.07,28.24-.37,42.34-.89,8.23-.3,16.49-.42,24.66-1.52,2.95-.4,7.28-.69,10.94-1.83,3.86-1.21,7-3.36,7-7.58v-19.39c0-.54-.06-1.07-.18-1.59Z" fill="#3b80b3"/>
    <rect id="f" data-name="Rectangle 451" x="272.13" y="121.94" width="33.45" height="67.48" fill="#3475a1"/>
    <path id="g" data-name="Path 13878" d="m319.31,264.16c-5.45,1.27-11.13,1.22-16.55-.16l-3.43-36.88,27.67,1.68-7.68,35.35Z" fill="#7c5227"/>
    <path d="m331,134.86h-15.63c-4.07,0-14.23-.17-14.99,0-.7.13-1.33.5-1.78,1.04-1.52,1.85-1.91,33.1-2.47,45.87l-.97,21.93c-.38,8.53-1.85,16.93-1.58,25.5.07,2.45.39,4.08,2.3,5.86,1.54,1.41,3.55,2.2,5.64,2.19h18.58c3.71,0,7.52.44,10.9-1.14v-101.25Z" fill="#3b80b3"/>
    <path d="m331,119.46c-2.06-1.07-4.12-2.09-6.09-3.09-8.46-4.33-17.27-8.25-26.64-10.09-2.43-.38-4.89-.51-7.35-.4l-17.31-.03c-.5,0-.96.01-1.42.03s-.88.06-1.28.1c-.37.04-.74.1-1.11.18-.3.06-.61.14-.9.23-.26.08-.51.19-.75.33-.14.08-.24.2-.3.34-.03.13-.01.26.06.38.09.16.19.3.31.44.53.59,1.1,1.15,1.71,1.66.65.55,1.36,1.11,2.1,1.67.74.56,1.5,1.12,2.24,1.69s1.47,1.14,2.14,1.72l7.03,6.09c1.05.91,2.44,2.16,3.96,3.55,1.53,1.39,3.23,2.93,4.87,4.38,1.09.97,2.2,1.93,3.32,2.87.52.37.99.79,1.42,1.27.44.47.79,1.02,1.03,1.63.08.55.11,1.1.09,1.66l.14,1.87c2.39-1.95,5.45-2.92,8.53-2.69,3.55.27,7.08.13,10.64.2,4.59.09,9.13.69,13.57,1.75v-17.73Z" fill="#468ec1"/>
    <path id="h" data-name="Path 13879" d="m135.06,153.41h142.94c5.02,0,9.09-4.07,9.09-9.09h0v-51.18c0-5.77.15-11.54.16-17.32,0-5.63-1.94-9.96-4.93-14.65-2.79-4.37-8.6-7.54-13.5-8.9-6.65-1.84-13.38-3.38-20.19-4.59-37.71-6.75-76.51-3.81-112.77,8.55-6.93,2.38-9.62,2.84-9.89,10.18-.11,3.11,0,6.26,0,9.37v68.52c0,5.02,4.06,9.09,9.09,9.1h0Z" fill="#468ec1"/>
    <path id="i" data-name="Path 13880" d="m135.06,164.14h142.94c5.02,0,9.09-4.07,9.09-9.09v-51.17c0-8.91.36-17.92,0-26.83-.34-8.29-3.52-9.53-11.26-11.96-8.92-2.8-18-5.02-27.2-6.66-37.71-6.75-76.51-3.81-112.77,8.55-6.93,2.38-9.62,2.84-9.89,10.18-.11,3.11,0,6.26,0,9.37v68.52c0,5.02,4.07,9.09,9.09,9.09Z" fill="#3b80b3"/>
    <path id="j" data-name="Path 13151-2" d="m132.79,164.44c.86-.14,1.77-.25,2.68-.33s1.83-.17,2.73-.23,1.77-.12,2.6-.17,1.6-.09,2.29-.14c1.92-.13,3.85-.23,5.77-.31,1.93-.08,3.85-.14,5.78-.18,1.93-.05,3.86-.09,5.79-.11,1.93-.03,3.86-.06,5.78-.1,3.3-.06,6.59-.11,9.89-.16,3.3-.05,6.59-.09,9.88-.12,3.29-.03,6.58-.06,9.88-.08s6.59-.03,9.87-.04c3.67,0,7.34,0,11.01.02s7.35.05,11.03.1c3.68.05,7.38.12,11.07.2,3.7.08,7.41.19,11.13.32,1.86.06,3.72.13,5.59.2,1.86.07,3.73.15,5.61.24,1.87.08,3.75.18,5.63.27,1.88.1,3.77.2,5.66.31,1.35.08,2.88.14,4.44.23s3.18.23,4.69.48c1.43.2,2.82.58,4.16,1.11,1.14.43,2.13,1.18,2.87,2.16,1.71,2.47,3.35,5,5.14,7.41,2.97,4.02,2.25,10.47,1.74,15.28,0,.48-.17.94-.51,1.28-.65.5-1.56-.08-2.18-.62-8.72-7.5-19.43-9.45-30.56-9.25-3.99.07-7.98.13-11.98.18-4,.05-8.01.1-12.03.14-4.02.04-8.05.07-12.08.09s-8.07.03-12.12.04l-12.03.02h-12.06c-4.02,0-8.04,0-12.07-.03s-8.06-.04-12.08-.08c-2.04-.02-4.07-.04-6.11-.07-2.04-.03-4.07-.06-6.11-.09-2.04-.03-4.07-.07-6.11-.11-4.48-.09-8.14.16-12.25,2.22-1.86.93-3.59,2.09-5.16,3.44-.74.64-4.04,3.28-3.92,4.32-.89-7.98-.14-16.17-.03-24.2,0-.51.2-.99.55-1.36.41-.43.9-.78,1.44-1.02.68-.32,1.39-.57,2.12-.75.79-.19,1.67-.36,2.59-.5Z" fill="#468ec1"/>
    <path id="k" data-name="Path 13882" d="m132.92,216.4c3.67,1.14,7.99,1.43,10.95,1.83,8.17,1.1,16.43,1.22,24.66,1.52,14.11.52,28.22.81,42.34.89,15.73.06,31.46-.28,47.15-1.34,7.84-.53,15.66-1.26,23.46-2.18,5.57-.67,14.36-.56,14.36-8.31v-19.39c0-5.66-7.04-6.74-11.42-6.95-8.12-.4-16.26-.67-24.39-.92-15.92-.49-31.84-.75-47.76-.77-15.78-.02-31.56-.1-47.34.19-7.97.15-15.94.39-23.9.77-5.24.25-13.41-.51-14.93,6.09-.12.52-.18,1.05-.18,1.59v19.39c0,4.22,3.13,6.37,7,7.58Z" fill="#3b80b3"/>
    <path id="l" data-name="Path 11543" d="m306.08,127.28c-1.47,2.54-3.19,4.91-4.8,7.36-5.56,8.49-7.39,18.2-11.82,27.17-2.09,4.41-5.01,8.38-8.6,11.69-4.29,3.78-8.5-1.82-11.16-5.23-6.21-7.97-13.44-15.09-21.51-21.17-3.57-2.69-7.47-5.39-9.26-9.48-1.82-4.16-1.08-8.97.03-13.37,1.95-7.71,4.94-15.11,8.89-22.01.89-1.84,2.23-3.43,3.89-4.62,2.5-1.52,5.66-1.2,8.56-.82,10.83,1.41,21.66,2.88,32.48,4.41,2.7.38,5.41.77,8.11,1.16,1.71.25,4.69.02,6.25.72,3.29,1.48,2.97,8.71,3.08,11.86.16,4.37-1.47,7.75-3.65,11.46-.16.28-.33.56-.49.84Z" fill="#8fbad9"/>
    <path id="m" data-name="Path 13884" d="m220.71,112.8c-.51-.33-1.05-.59-1.62-.8-.29-.15-.62-.22-.95-.21-.72.08-1.11.91-1.12,1.63-.02,1.72.26,3.72,1.68,4.89.62.57,1.56.63,2.25.15.41-.45.65-1.03.68-1.64.14-.66.19-1.34.17-2.01-.02-.8-.42-1.55-1.09-2Z" fill="#931b1e"/>
    <path id="n" data-name="Path 13885" d="m277.86,150.13c-.54.27-1.06.59-1.53.97-.28.18-.51.42-.67.71-.19.72.15,1.47.82,1.8,1.46.91,3.32,1.7,5.05,1.08.81-.24,1.34-1.01,1.29-1.85-.18-.58-.55-1.09-1.05-1.43-.5-.46-1.04-.86-1.63-1.19-.7-.4-1.55-.43-2.27-.09Z" fill="#931b1e"/>
    <path id="o" data-name="Path 13886" d="m283.02,94.52s-.3,3.12-.32,3.38c-.05,1.26.02,2.53.22,3.78.14.86.34,1.7.61,2.52.44,1.34,1.08,2.6,1.9,3.74.81,1.12,1.83,1.75.92,3.44-.94,1.74-2.86,2.86-4.21,4.05-3.27,3-7.54,4.67-11.98,4.7-5.89-.08-11.52-3.43-15.38-8.69-.51-.62-.87-1.35-1.03-2.14-.32-2.14,1.51-3.86,3.05-5.05,2.97-2.3,3.58-6.74,3.15-10.72-.03-.36-.13-.71-.3-1.03,1.32.43,2.62.98,3.94,1.41,1.03.33,2.05.66,3.1.89,5.21,1.14,10.98-.18,16.33-.28Z" fill="#a26d34"/>
    <path id="p" data-name="Path 13887" d="m231.14,124.07c-.42.29-.86.55-1.26.82-1.69,1.16-3.43,2.24-5.23,3.22-3.56,1.94-7.28,3.57-11.11,4.88-6.66,2.3-13,5.45-18.86,9.37-.56.29-.99.77-1.22,1.35-.06.8.24,1.59.81,2.15,2.86,3.74,5.22,7.83,7.03,12.18,1.74,4.19,3.57,8.64,3.95,13.14.17,1.95.69,4.11,2.35,5.14,1.44.89,3.28.64,4.95.36l18.95-3.16c4.14-.69,8.44-1.44,12.13-3.56,1.61-.93,2.98-2.13,4.58-3.04,1.99-1.14,3.71-2.7,5.04-4.57.82-1.45,1.76-2.84,2.81-4.14,1.25-1.33,2.43-2.73,3.54-4.19,1.33-1.66,2.75-4.43,4.49-5.65,1.06-.74,3.42-.81,4.72-.84.69-.08,1.38,0,2.03.24.74.35,1.48.72,2.21,1.07,1.3.53,2.56,1.14,3.79,1.81.78.51,1.47,1.14,2.04,1.87.28.36.54.75.76,1.15.08.15.47,1.17.5,1.18.77.2,1.58.02,2.19-.47.85-.76,1.55-1.66,2.08-2.67.57-.86,1.09-1.76,1.56-2.68,1-1.91,1.86-3.88,2.67-5.88.55-1.35,1.05-2.72,1.58-4.07,2.11-5.34,4.44-9.37,3.34-15.45-1.06-5.9-4.44-11.28-7.39-16.4-.66-1.14-1.02-2.08-2.51-1.69-.91.39-1.76.9-2.54,1.5-1.07.61-2.07,1.36-3.13,1.99-2.11,1.27-4.35,2.29-6.7,3.03-3.62,1.19-7.52,1.23-11.16.11-1.32-.4-2.53-1.11-3.53-2.07-1.2-1.04-1.68-2.69-1.22-4.21.28-.7.66-1.36,1.13-1.95.22-.27,1.19-1.48,1.57-1.42-5.76-1.02-11.03-3.05-17.02-1.99-4.2,1.02-8.24,2.65-11.98,4.81-3.65,2.11-6.68,4.72-10.67,6.09-.32.09-.63.24-.89.45-.49.55-.56,1.36-.17,1.99.51.92,1.53,1.34,2.2,2.1.87.99,1.41,2.22,2.37,3.16,2.79,2.76,3.49,6.1,3.2,9.83,2.53-1.05,4.91-2.45,7.06-4.15,3.17-2.75,4-6.68,4.53-10.65-.61,2.45-1.63,4.78-3.03,6.88-.52.82-1.1,1.59-1.75,2.32-.26.26-.54.5-.85.7Z" fill="#a91f23"/>
    <g id="q" data-name="Group 2769">
      <path id="r" data-name="Path 13888" d="m285.16,104.83c-.24-.57-.79-1.81-1.72-1.76s-1.58,1.04-2.2,1.51c-3.2,2.41-6.21,4.71-10.02,6.13-2.49.96-5.19,1.21-7.81.73-2.41-.41-5.7-.77-6.5-3.57-.22-1.05-.07-2.15.42-3.11.26-.72.72-1.36.98-2.08.13-.35.26-.38.25-.65s.02-.19-.33-.37c-.56-.25-1.18-.37-1.79-.33-.52.08-1.37.24-1.76.32s-.57.12-.5.43.56.14.73.51-.3.96-.41,1.31c-.45,1.43-1.15,2.71-.77,4.27.52,2.17,3.07,3.99,4.96,4.89,2.52,1.12,5.27,1.64,8.03,1.52,2.26-.05,4.5-.53,6.59-1.39,2.05-1.01,3.99-2.22,5.8-3.62,1.12-.74,2.13-1.69,3.19-2.46.93-.74,2.05-1.2,3.22-1.33-.09-.33-.21-.64-.36-.95Z" fill="#204c68"/>
    </g>
    <path id="s" data-name="Path 13925" d="m266.15,130.97c-.34,1.26-.88,2.45-1.6,3.53-1,1.78-1.76,3.68-2.25,5.66-.29,1.07-.47,2.17-.53,3.28-.01.33,0,.66.02.99.01.36.12.71.32,1.01.14.19.35.31.58.34.24,0,.48,0,.71.04-.64.11-1.53.19-1.95-.39-.28-.5-.41-1.07-.37-1.64,0-.7.04-1.4.14-2.1.13-1.09.34-2.17.63-3.22.8-2.81,2.27-5.38,4.29-7.49Z" fill="#931b1e"/>
    <path id="t" data-name="Path 13926" d="m239.05,119.68c-3.81,1.02-7.39,2.74-10.57,5.07-.54.4-3.47,2.43-3.18,3.01,2.14-1.19,3.97-2.8,6.13-3.98,2.52-1.38,5.07-2.75,7.62-4.1Z" fill="#931b1e"/>
    <path id="u" data-name="Path 13928" d="m221.97,119.14c-.96-.95-1.49-2.17-2.37-3.16-.47-.53-1.1-.9-1.61-1.38-1.21.95-2.48,1.84-3.79,2.65-.61.37-1.26.66-1.83,1.07-.53.41-1.12.73-1.74.97-.88.19-1.78.24-2.67.17-1.1.07-2.2.2-3.29.34-2.1.26-10.18.93-12.1,1.08-4.98.38-9.72,2.03-14.79,1.81-2.2-.1-4.03-1.18-6.27-.99-2.77.39-5.43,1.38-7.78,2.91-.9.64-1.69,1.42-2.35,2.32-.28.39-.48.82-.6,1.28-.23.6-.42,1.21-.59,1.84-.26.23-.5.49-.72.77-.24.34-.51.85-.74,1.25-.14.26-.33.7-.15.95.4.56,1.14.76,1.77.48.65-.19,1.02-.7,1.62-.93,1.01-.5,2.07-.88,3.16-1.15,1.4-.25,3.08.03,4.6-.08.21-.01,1.02-.24.94.37-.05.41-1.33.47-1.55.47-.67-.03-1.36,0-2.03-.07-1.52-.16-2.65-.07-3.62,1.42-.34.45-.25,1.09.2,1.42.02.01.03.03.05.04.3.15.7-.04,1.08-.06.55,0,1.09.03,1.64.11.92.25,1.86.42,2.81.48,2.74-.25,5.42-1.3,8.07-1.94,4.69-1.15,9.76-1,14.54-.74,5.07.27,10.14.83,15.22.92,3.39.19,6.76-.49,9.81-1.99,1.2-.64,2.55-1.05,3.78-1.62,1.35-.63,2.67-1.3,3.97-2.01.19-.1.38-.22.57-.33.21-3.21-.98-6.36-3.25-8.64Z" fill="#a26d34"/>
    <path d="m125.91,168.08c0-.51-.2-.99-.55-1.36-.41-.43-.9-.78-1.44-1.02-.68-.32-1.39-.57-2.12-.75-.79-.19-1.66-.36-2.58-.5-.87-.14-1.77-.25-2.68-.33s-1.83-.17-2.73-.23c-.9-.06-1.77-.12-2.6-.17-.83-.05-1.6-.09-2.29-.14-1.92-.13-3.85-.23-5.77-.31-1.93-.08-3.85-.14-5.78-.18-1.93-.05-3.86-.09-5.79-.11-1.93-.03-3.86-.06-5.78-.1-3.3-.06-6.59-.11-9.89-.16-3.3-.05-6.59-.09-9.88-.12-3.29-.03-6.58-.06-9.88-.08-3.3-.02-6.59-.03-9.87-.04-3.67,0-7.34,0-11.01.02-3.67.01-7.35.05-11.03.1-3.68.05-7.37.12-11.07.2-3.7.08-7.41.19-11.13.32-.67.02-1.35.05-2.02.07v19.19c.58,0,1.15.02,1.73.03,4,.05,8.01.1,12.03.14,4.02.04,8.05.07,12.08.09s8.07.03,12.12.04l12.03.02h12.05c4.02,0,8.04,0,12.07-.03s8.06-.04,12.08-.08c2.04-.02,4.07-.04,6.11-.07,2.04-.03,4.07-.06,6.11-.09,2.04-.03,4.07-.07,6.11-.11,4.48-.09,8.14.16,12.25,2.22,1.86.93,3.59,2.09,5.16,3.44.74.64,4.04,3.28,3.92,4.32.89-7.98.14-16.17.04-24.2Z" fill="#468ec1"/>
    <path d="m126.04,66.42c-.27-7.34-2.96-7.8-9.89-10.18-36.26-12.36-75.06-15.3-112.77-8.55-1.13.2-2.25.43-3.38.64v105.08h116.95c5.02,0,9.09-4.08,9.09-9.1v-68.52c0-3.12.11-6.26,0-9.37Z" fill="#468ec1"/>
    <path d="m126.04,77.15c-.27-7.34-2.96-7.8-9.89-10.18-36.26-12.36-75.07-15.3-112.78-8.55-1.13.2-2.25.44-3.37.66v105.06h116.94c5.02,0,9.09-4.07,9.09-9.09v-68.52c0-3.12.11-6.26,0-9.37Z" fill="#3b80b3"/>
    <path d="m22.12,151.4c-1.65-3.48-3.76-6.79-4.55-10.61-1.55-7.5-2.34-15.63-6.43-22.37-1.59-2.62-3.36-4.71-4.36-7.71-.7-2.12-.33-7.14-2.91-7.94-.98-.18-1.99-.03-2.88.42-.33.13-.66.24-.99.37v60.48c7.25-.17,14.48.68,21.74.14,1.04-.08,2.26-.31,2.68-1.28,1.37-3.12-.97-8.71-2.3-11.51Z" fill="#8fbad9"/>
    <path d="m220,168.79c-2.21-6.41-7.63-11.16-13.2-15.04-1.87-1.3-3.64-2.66-5.59-3.8-1.93-1.05-3.68-2.38-5.21-3.96-2.96-3.26-2.29-7.19-4.03-10.91-1.43-3.16-4.01-5.66-7.21-7-5.61-2.38-11.44-4.22-17.41-5.49-11.28-2.47-23.09-3.27-34.44-3.66-13.24-.45-26.52-1.41-39.77-.59-7.88.49-15.72,1.41-23.5,2.74-10.3,1.74-18.53,3.92-27.92,8.46-11.19,5.41-24.13,6.1-33.5,15.04-3.71,3.58-6.38,8.06-8.22,12.87v29.2c2.01,2.01,4.41,3.61,6.4,5.64,2.18,2.23,3.82,4.91,5.78,7.33,5.62,6.91,11.9,6.04,19.09,2.3,8.48-4.41,16.87-8.72,26.41-10.34,14.42-2.45,29.1,1.2,43.7,2.15,5.62.34,11.25.35,16.86.03,15.75-.84,31.48-1.92,47.21-3.04,14.74-1.03,29.94,2.71,44.44,5.15,2.69.45,5.81.79,7.82-1.06,1.45-1.34,1.86-3.44,2.12-5.4.77-5.98,2.16-14.85.16-20.62Z" fill="#b6a0cb"/>
    <g>
      <path d="m256.37,92.45c2.38,2.71,5.1,4.98,7.57,7.59,1.37,1.45,3.72,2.7,5.52,3.03,1.66.3,3.34-.08,4.86-.78s2.89-1.72,4.25-2.73c1.33-.98,2.93-1.85,3.96-3.21" fill="#7b5227"/>
      <path d="m248.84,81.32c.87,3.27,2.93,6.08,5.11,8.61,3.33,3.85,7.15,6.96,10.89,10.26,1.43,1.26,4.02,2.36,5.83,2.49,2.35.17,4.44-1.16,6.38-2.45,1.21-.81,2.43-1.61,3.64-2.42,2.67-1.77,5.37-3.57,7.42-6.12,2.65-3.29,4.05-7.74,3.85-12.26-.12-2.71-.78-5.49-.2-8.08.28-1.24.84-2.42.83-3.72-.04-2.67-2.42-4.69-4.62-6.06-3.05-1.89-6.26-3.45-9.56-4.64-2.67-.96-5.42-1.68-8.18-1.99-1.9-.21-3.81-.22-5.71-.18-2.26.04-4.41.59-6.62.65-2.2.06-4.15,1.29-5.92,2.48-1.07.72-2.2,1.57-2.51,2.91-.2.87,0,1.82.19,2.72.3,1.38.74,2.65.55,4.06-.17,1.24-.75,2.42-1.03,3.58-.78,3.26-1.27,6.75-.36,10.16Z" fill="#a26d35"/>
      <path d="m247.18,65.87c-1.09,0-2.21.41-2.86,1.24-1.05,1.34-1.22,4.63-.73,6.37.17.61.49,1.18.83,1.72,1.11,1.75,2.64,3.39,4.53,3.75-.44-3.22-.1-6.51.98-9.44.89-2.4-.88-3.64-2.75-3.64Z" fill="#a26d35"/>
      <path d="m294.61,72.95c1.07.32,2.11,1.05,2.65,2.06.86,1.62.59,4.9-.11,6.47-.25.55-.63,1.01-1.03,1.44-.94,1-1.97,1.66-3.21,2.17-.41.17-.97.5-1.41.49-.14,0-1.3-.42-1.25-.46,1.2-.81,1.4-2.6,1.47-4.17.13-2.83-1.83-9.42,2.91-8Z" fill="#a26d35"/>
      <path d="m250.51,67.28c.39-1.17.74-2.33.67-3.64-.05-.95-.88-2.35-.56-3.07.51-1.16,2.79-2.01,3.85-2.47,1.68-.73,3.54-1.05,5.37-1.2,1.31-.11,2.65-.11,3.95.23,2.14.55,4.03,1.97,5.86,3.35,1.09.82,2.18,1.64,3.27,2.46.54.41,1.14.83,1.77.78,1.08-.09,1.56-1.51,1.44-2.69-.12-1.18-.6-2.36-.47-3.53,2.89,2.61,5.83,5.16,8.82,7.64,1.2,1,2.69,1.83,4.18,1.99.74.08,1.5-.01,2.12-.43.35-.24,1.26-1.25,1.6-.45.08.2.08.42.08.63-.07,1.87-.76,3.48-1.28,5.21-.18.6-.35,1.27-.23,1.92.08.46.88,1.22.89,1.45-.16-3.4,3.23-4.91,4.21-8.02.7-2.22.8-4.66.56-7.05-.09-.89-.23-1.78-.12-2.65.11-.87.53-1.72,1.27-2.05.19-.08.41-.15.5-.34.08-.17.02-.39-.05-.58-.75-2.12-2.53-3.72-4.45-4.64-1.92-.92-4-1.26-6.05-1.59,2.21-1.2,3.45-4.09,2.92-6.82-1.37,1.72-3.91,1.41-6.09,1.2-3.88-.38-7.78-.03-11.47,1.03-1.19.34-2.42.76-3.65.44-.16-.04-.33-.1-.45-.24-.17-.2-.17-.48-.17-.74.01-.79.02-1.59.03-2.38-3.36-.76-6.92.32-9.26,2.8-.14-2.47-2.09-4.81-4.37-5.22.78,1.54.98,3.38.55,4.99-1.24-.8-2.94-.53-4.18.1-1.23.63-2.21,1.7-3.14,2.76-1.26,1.44-2.51,2.94-3.25,4.78-.35.88-.58,1.83-.78,2.77-.55,2.51-.96,5.2-.18,7.73.45,1.43,1.32,2.59,1.81,3.98.02.06.05.13.09.17.06.06.14.07.22.09.8.12,1.83.07,2.55.53.31.2.57.55.76.88.11.19.2.39.25.6.03.13.03.26.04.39,0,.13,0,.27.06.4.09-.11.15-.32.22-.46.08-.16.24-.85.3-1.04Z" fill="#0f0b0b" stroke="#000" stroke-linecap="round" stroke-linejoin="round" stroke-width=".08"/>
      <path d="m247.65,66.99c.28.06.63.13.81.41.09.15.12.38-.06.44-.18.05-.41-.12-.58-.17-.55-.17-1.15-.12-1.65.13-.29.15-.53.37-.69.66-.18.33-.2.72-.4,1.03-.04.06-.08.12-.15.13-.16.03-.17-.23-.16-.33.09-.82.54-1.56,1.18-1.96.48-.3,1.11-.46,1.69-.33Z" fill="#7b5227" stroke="#7b5227" stroke-miterlimit="10" stroke-width=".06"/>
      <path d="m274.91,82.74c.09-.31.08-.68-.01-.99-.06-.2-.18-.38-.26-.56-.1-.22-.07-.54.15-.31.2.21.31.55.41.83.25.66.21,1.41-.27,1.88-.35.35-.85.47-1.33.45-.51-.02-1.01-.23-1.5-.2s-.97.1-1.46.13c-.2.01-.4,0-.6-.02-.39-.05-.78-.16-1.14-.32-.23-.1-.49-.15-.73-.23-.47-.15-.78-.28-1.26-.36s-.94-.22-1.29-.59c-.34-.35-.51-.87-.52-1.37,0-.37.07-.78.22-1.09.08-.15.18-.31.34-.36.24-.08.35.04.15.24-.11.11-.2.24-.26.4-.11.27-.13.58-.14.88,0,.27,0,.57.16.79.22.31.63.33.97.29.6-.08,1.07.03,1.62.37.51.32.9.88,1.49,1.01.48.11,1.13.25,1.54-.08.29-.22.5-.37.86-.44.41-.07.84-.07,1.24.08.44.16.91.43,1.3.09.15-.13.25-.32.31-.52Z" fill="#7b5227" stroke="#7b5227" stroke-linecap="round" stroke-linejoin="round" stroke-width=".1"/>
      <path d="m268.82,73.38c-.1.92-.34,1.81-.7,2.63-.14.33-.47.33-.33-.1.11-.33.26-.64.35-.98.35-1.41.35-2.86-.02-4.31-.16-.63-.48-1.22-.74-1.82-.07-.17-.18-.4.03-.49.62-.26,1.12,1.73,1.22,2.11.24.98.3,1.99.19,2.96Z" fill="#7b5227"/>
      <path d="m272.47,80.65s-.02.06-.04.08c-.05.06-.15.07-.23.04-.13-.04-.22-.19-.32-.28-.11-.1-.22-.2-.35-.28-.23-.16-.49-.28-.76-.36-.54-.16-1.1-.15-1.61,0-.19.06-.36.14-.52.26-.14.1-.25.24-.39.34-.08.06-.18.08-.28.05s-.18-.14-.15-.23c.03-.14.32-.27.44-.34.19-.11.39-.21.6-.29.41-.15.86-.24,1.31-.21.5.03.98.23,1.42.48.15.08.91.46.88.73Z" fill="#7b5227" stroke="#7b5227" stroke-linecap="round" stroke-linejoin="round" stroke-width=".1"/>
      <path d="m294,73.9c-.28-.02-.64-.05-.85.16-.11.11-.17.34,0,.45.17.1.41,0,.59,0,.56,0,1.15.22,1.6.62.26.23.47.52.59.85.14.38.1.76.26,1.13.03.07.06.14.13.17.15.08.2-.17.2-.28.02-.83-.32-1.69-.9-2.27-.43-.44-1.03-.78-1.62-.83Z" fill="#7b5227" stroke="#7b5227" stroke-miterlimit="10" stroke-width=".06"/>
      <g>
        <path d="m265.85,89.33c.68-.14,1.3-.45,1.95-.66s1.39-.32,2.06-.03c.2.08.38.2.58.26.51.18,1.05.03,1.58,0,1.98-.14,3.96,1.25,5.93,1.07-.54-.08-.93.43-1.26.85-1.64,2.09-4.58,2.86-7.28,2.24-2-.46-3.84-1.59-5.6-2.74-.42-.28-2.89-1.78-1.27-1.36,1.11.29,2.2.6,3.32.37Z" fill="#b15537"/>
        <path d="m275.15,89.66c.79.25,1.62.22,2.39.31-.7.42-.88,1.19-1.47,1.7-.58.52-1.27.91-2,1.19-1.41.53-3.01.62-4.54.27-2-.46-3.84-1.59-5.6-2.74-.42-.28-2.89-1.78-1.27-1.36,1.11.29,2.2.6,3.32.37.68-.14,1.3-.45,1.95-.66s1.39-.32,2.06-.03c.2.08.38.2.58.26.51.18,1.05.03,1.58,0,1.02-.07,2.04.38,3.01.69Z" fill="none" stroke="#7b5227" stroke-linecap="round" stroke-miterlimit="10" stroke-width=".5"/>
        <path d="m277.33,90.18c-.68.56-1.77.72-2.57.86-1.09.19-2.2.23-3.31.24-1.53.01-3.12.03-4.6-.59.43.07.88.17,1.31.2s.86,0,1.28,0c.89,0,1.78.01,2.66-.05.81-.05,1.61-.15,2.4-.3.35-.06.7-.14,1.06-.21.38-.08.75-.16,1.13-.24.18-.04.76-.29.91-.19-.08.1-.17.19-.28.28Z" fill="#7b5227"/>
      </g>
      <path d="m280.55,66.04c.79.12,1.57.31,2.34.55,1.33.42,2.76.99,3.76,1.92.19.17.37.34.54.53.31.33.57.7.84,1.05.16.2.57.87.03.86-.17,0-.32-.15-.44-.24-.1-.07-.18-.17-.28-.24-.1-.07-.21-.13-.31-.19-.26-.15-.52-.29-.79-.43-.25-.13-.52-.23-.78-.33-.17-.07-.34-.13-.51-.19-.94-.33-1.91-.55-2.88-.72-.95-.17-1.91-.23-2.87-.32-.53-.05-1.09-.05-1.6-.24-.52-.2-.88-.59-.86-1.05.02-.4.26-.78.67-.95.41-.17.88-.21,1.35-.2.6.02,1.19.1,1.79.19Z" fill="#0f0b0b" stroke="#0f0b0b" stroke-miterlimit="10" stroke-width=".09"/>
      <path d="m286.73,75.29c-1.14-.44-2.08-1.33-3.12-1.98s-2.14-1.08-3.28-1.24c-.91-.13-1.82.14-2.6.59-.46.26-.91.61-1.3.97-.32.29-.97.28-1.01.87.32.18.7.24,1.05.26,1.52.09,3.04.3,4.55.62,1.01.22,2.03.48,3.02.31.86-.15,1.85-.73,2.69-.4Z" fill="#fff"/>
      <path d="m280.05,72.1c.94-.07,1.95.33,2.55,1.16.37.52,1.08,1.63.48,2.14-.28.23-1,.2-1.35.22-.56.03-1.08-.2-1.64-.33-.51-.13-1.02-.26-1.53-.35-.35-.06-1,0-1.28-.24-.49-.42-.13-1.22.2-1.6.6-.71,1.48-.83,2.35-.97.07-.01.15-.02.23-.03Z" fill="#0f0b0b" stroke="#0f0b0b" stroke-miterlimit="10" stroke-width=".1"/>
      <path d="m287.24,74.06c-1.14-.78-2.29-1.55-3.54-2.16s-2.6-1.05-3.96-1.12-2.73.27-3.67,1.07c.76-.96,2.06-1.6,3.43-1.58,1.62.03,3.17.82,4.63,1.6,1.14.62,2.27,1.24,3.11,2.18Z" fill="#7b5227" stroke="#7b5227" stroke-linecap="round" stroke-linejoin="round" stroke-width=".13"/>
      <ellipse cx="279.46" cy="74.37" rx=".44" ry=".49" transform="translate(-8.48 101.21) rotate(-20.23)" fill="#7b5227" stroke="#7b5227" stroke-linecap="round" stroke-linejoin="round" stroke-width=".09"/>
      <g>
        <path d="m276.62,74.46c0-.23-.14-.56-.26-.65-.17-.14-.28-.04-.43.06-.07.05-.71.46-.5.58.2.12.45.2.68.22.07,0,.41.04.45,0,.05-.04.07-.12.07-.2Z" fill="#7b5227"/>
        <path d="m285.07,74.43c-.07.02-.13.07-.18.16-.07.12-.08.27-.09.41-.04.61.42.3.75.22.38-.09.79-.13,1.18.02-.34-.13-.66-.31-.98-.5-.19-.12-.47-.37-.68-.31Z" fill="#7b5227"/>
      </g>
      <path d="m286.73,75.29c-1.14-.44-2.08-1.33-3.12-1.98s-2.14-1.08-3.28-1.24c-.91-.13-1.82.14-2.6.59-.46.26-.91.61-1.3.97-.32.29-.97.28-1.01.87.32.18.7.24,1.05.26,1.52.09,3.04.3,4.55.62,1.01.22,2.03.48,3.02.31.86-.15,1.85-.73,2.69-.4Z" fill="none" stroke="#0f0b0b" stroke-linecap="round" stroke-linejoin="round" stroke-width=".39"/>
      <path d="m277.98,72.49c.35-.22.74-.38,1.13-.48.38-.1.9-.15,1.3-.08,1.35.25,2.6,1.1,3.56,2.18.41.46.81.95,1.31,1.29.28.19.6.31.91.29-.38-.28-.75-.59-1.09-.92s-.62-.68-.95-1c-.78-.77-1.8-1.15-2.76-1.53" fill="none" stroke="#0f0b0b" stroke-linecap="round" stroke-linejoin="round" stroke-width=".39"/>
      <path d="m261.25,63.47c-.79-.09-1.58-.11-2.36-.07-1.35.06-2.82.25-3.91.89-.2.12-.4.24-.59.37-.34.25-.64.54-.94.82-.18.16-.65.71-.12.84.17.04.33-.06.46-.12.11-.05.19-.12.3-.16.1-.04.22-.08.33-.1.27-.07.55-.15.82-.21.26-.06.54-.08.81-.12.17-.02.35-.04.52-.06.96-.08,1.94-.04,2.92.05.96.09,1.91.28,2.86.45.53.09,1.08.24,1.6.18.53-.06.93-.35.95-.81.02-.4-.18-.83-.57-1.11-.38-.27-.85-.44-1.31-.55-.59-.14-1.18-.22-1.78-.28Z" fill="#0f0b0b" stroke="#0f0b0b" stroke-miterlimit="10" stroke-width=".09"/>
      <path d="m254.2,70.95c1.17-.14,2.19-.76,3.28-1.12s2.22-.5,3.36-.36c.91.11,1.78.62,2.51,1.27.43.38.83.85,1.19,1.3.29.37.93.54.9,1.13-.33.09-.72.05-1.06-.02-1.51-.31-3.03-.51-4.55-.59-1.01-.05-2.06-.06-3.01-.49-.83-.37-1.74-1.21-2.61-1.11Z" fill="#fff"/>
      <path d="m253.83,69.6c1.2-.46,2.42-.92,3.71-1.19s2.67-.35,4.02-.05,2.66.99,3.51,2.03c-.65-1.15-1.87-2.12-3.22-2.46-1.6-.4-3.21-.03-4.73.35-1.19.3-2.37.62-3.3,1.33Z" fill="#7b5227" stroke="#7b5227" stroke-linecap="round" stroke-linejoin="round" stroke-width=".13"/>
      <g>
        <path d="m264.25,72.81c.02-.23.2-.51.32-.57.18-.09.28.03.42.17.07.06.66.64.44.71-.21.06-.47.08-.69.04-.07-.01-.4-.07-.44-.12-.04-.06-.06-.13-.05-.22Z" fill="#7b5227"/>
        <path d="m255.92,70.54c.06.04.12.1.16.2.05.14.05.29.04.43-.03.62-.44.18-.76.02-.37-.19-.76-.34-1.16-.29.35-.04.69-.13,1.02-.23.2-.07.5-.24.71-.12Z" fill="#7b5227"/>
      </g>
      <path d="m254.2,70.95c1.17-.14,2.19-.76,3.28-1.12s2.22-.5,3.36-.36c.91.11,1.78.62,2.51,1.27.43.38.83.85,1.19,1.3.29.37.93.54.9,1.13-.33.09-.72.05-1.06-.02-1.51-.31-3.03-.51-4.55-.59-1.01-.05-2.06-.06-3.01-.49-.83-.37-1.74-1.21-2.61-1.11Z" fill="none" stroke="#0f0b0b" stroke-linecap="round" stroke-linejoin="round" stroke-width=".39"/>
      <path d="m263.12,70.5c-.32-.31-.69-.57-1.07-.78-.36-.2-.88-.39-1.27-.42-1.36-.11-2.68.4-3.74,1.2-.45.34-.9.72-1.43.92-.29.11-.62.15-.93.04.4-.18.8-.39,1.17-.62s.68-.5,1.04-.73c.85-.55,1.9-.66,2.88-.78" fill="none" stroke="#0f0b0b" stroke-linecap="round" stroke-linejoin="round" stroke-width=".39"/>
      <path d="m261.12,69.57c-1.02-.35-2.06-.08-2.96.45-.66.4-1.66,1.33-.87,2.1.49.48,1.2.28,1.81.48.55.18,1.09.09,1.65.11s1.15.07,1.72.06c1.04-.03.74-1.64.35-2.21-.44-.64-1.02-.75-1.69-.99Z" fill="#0f0b0b" stroke="#0f0b0b" stroke-miterlimit="10" stroke-width=".1"/>
      <ellipse cx="259.54" cy="71.85" rx=".44" ry=".49" transform="translate(-8.83 94.17) rotate(-20.23)" fill="#7b5227" stroke="#7b5227" stroke-linecap="round" stroke-linejoin="round" stroke-width=".09"/>
    </g>
    <path id="v" data-name="Path 13929" d="m230.02,142.05c-.02.12-.05.26-.09.42-.32,1.38-.78,2.76-1.53,3.98-.3.48-.67.86-1,1.3-.34.47-.66.93-1.2,1.2-.93.46-2.16.14-3.15.04-1.39-.14-7.46-1.35-9.14-1.68-1.99-.38-3.97-.76-5.96-1.16-3.96-.79-7.91-1.65-11.8-2.76-3.58-1.02-13.37-3.74-14.64-4.23-.84-.32-1.84-.6-2.45-1.31-.21-.24-.33-.58-.25-.89.1-.41.6-.64.86-.96.37-.45.66-.95,1.06-1.37.8-.85,1.73-1.56,2.68-2.23,1.21-.84,2.61-2.1,4.11-1.74,2.05.51,4.1,1.02,6.16,1.53,6.37,1.58,12.73,3.16,19.1,4.73,4.95,1.23,9.9,2.45,14.85,3.68.42.1.83.21,1.25.31,1.01.25,1.27.35,1.15,1.13Z" fill="#e0e9f2"/>
    <path d="m233.22,139.87l-6.31,8.83c-.29.41-1.57.49-2.85.19l-43.5-10.51c-1.28-.31-2.08-.89-1.78-1.31l6.31-8.83c.29-.41,1.57-.49,2.85-.19l43.5,10.51c1.28.31,2.08.89,1.78,1.31Z" fill="#fbfdff" stroke="#e0e9f1" stroke-miterlimit="10" stroke-width=".2"/>
    <path d="m184.57,133.19c.35.08.22.26-.12.17-.35-.08-.22-.26.12-.17" fill="#2b2b2b"/>
    <path d="m227.97,143.28c1.71.42,1.11,1.26-.6.84-1.71-.42-1.11-1.25.6-.84Z" fill="none" stroke="#e0e9f1" stroke-miterlimit="10" stroke-width=".11"/>
    <path d="m228.12,143.67l-.17.24-.74-.18.17-.24.74.18Zm-.75-.22c-.73.02-.13.52.59.5.73-.02.13-.52-.59-.5" fill="#e5eff7"/>
    <polygon points="228.64 138.42 221.91 147.83 183.32 138.51 190.05 129.09 228.64 138.42" fill="#bdd7ea"/>
    <polygon id="w" data-name="Bar" points="183.32 138.51 190.05 129.09 195.9 130.51 189.17 139.92 183.32 138.51" fill="#e3edf5"/>
    <path d="m188.37,136.51l.71.08s.12.03.1.05l-.04.05s-.04.02-.08.01l-.73-.08-.02.03.64.15c.05.01.08.03.07.05l-.03.05s-.05.02-.11,0l-1.64-.4c-.06-.01-.08-.03-.06-.05l.08-.11c.07-.1.24-.12.5-.05l.28.07c.18.04.28.09.3.15Zm-.26.04s-.03-.06-.12-.09l-.28-.07c-.09-.02-.16-.02-.19.01l-.03.04.59.14.03-.04Z" fill="#468ec1"/>
    <path d="m188.71,136.15c.06.02.09.04.08.06l-.09.12.28.07c.08.02.12.02.13,0s0-.04-.09-.06h-.05c-.06-.03-.08-.04-.07-.06l.03-.04s.05-.02.1,0h.06c.22.07.29.13.23.22s-.19.1-.41.04l-.79-.19c-.22-.05-.29-.12-.23-.2s.19-.1.41-.05l.4.1Zm-.22.13l.05-.06-.28-.07c-.08-.02-.12-.02-.13,0s0,.04.09.06l.28.07Z" fill="#468ec1"/>
    <path d="m188.74,135.9l-.27-.07c-.08-.02-.12-.02-.13,0s0,.04.09.06h.06c.05.03.08.04.06.06l-.03.04s-.05.02-.11,0l-.06-.02c-.22-.05-.29-.12-.23-.2s.19-.1.41-.05l1.02.25c.05.01.08.03.07.05l-.03.04s-.05.02-.1,0h-.01c.05.04.07.08.05.11-.03.04-.13.05-.31,0l-.25-.06c-.22-.05-.29-.12-.23-.2l.02-.03Zm.19.08s.01.04.09.06l.17.04c.08.02.12.02.13,0s0-.04-.09-.06l-.27-.07-.02.03Z" fill="#468ec1"/>
    <path d="m189.77,135.68c.05.01.08.03.07.05l-.03.04s-.05.02-.1,0h-.01c.05.04.07.08.05.11-.03.04-.13.05-.31,0l-.91-.22c-.18-.04-.24-.1-.21-.14.02-.03.08-.05.17-.06l-.6-.14c-.05-.01-.08-.03-.07-.05l.03-.04s.05-.02.1,0l1.83.44Zm-.36.09c.08.02.12.02.13,0s0-.04-.09-.06l-.73-.18c-.08-.02-.12-.02-.14,0s.01.04.09.06l.74.18Z" fill="#468ec1"/>
    <path d="m188.61,135.25l.67.13.47.1h0s-.45-.13-.45-.13l-.64-.18s-.07-.03-.05-.05l.02-.03s.05-.02.12,0l1.67.5s.07.03.05.05l-.02.03s-.05.02-.12,0l-.38-.12v.02s-.06.02-.11,0l-1.27-.24c-.08-.01-.1-.04-.09-.05l.02-.03s.05-.02.1-.01Z" fill="#468ec1"/>
    <path d="m189.02,134.91s-.05.02-.11,0h-.05c-.06-.02-.08-.04-.06-.06l.02-.02-.25-.06c-.22-.05-.3-.12-.24-.21l.02-.02s.05-.02.11,0h.05c.06.02.08.04.07.06l-.02.02s.02.04.09.06l.25.06.03-.04s.05-.02.11,0h.05c.05.02.08.04.07.06l-.03.04,1.11.27c.05.01.08.03.07.05l-.03.04s-.05.02-.11,0l-1.11-.27-.02.02Z" fill="#468ec1"/>
    <path d="m189.45,134.45l.79.19c.22.05.29.12.23.2s-.19.1-.41.05l-.79-.19c-.22-.05-.29-.12-.23-.2s.19-.1.41-.05Zm-.1.16l.78.19c.08.02.12.02.13,0s0-.04-.09-.06l-.78-.19c-.08-.02-.12-.02-.13,0s0,.04.09.06Z" fill="#468ec1"/>
    <path d="m189.93,134.21c.05.01.08.03.07.05l-.03.04s-.05.02-.1,0l-.23-.06c-.08-.02-.12-.02-.13,0s.01.04.09.06l.99.24c.05.01.08.03.06.05l-.03.04s-.05.02-.11,0l-1.24-.3c-.06-.01-.08-.03-.06-.05l.03-.04s.05-.02.11,0h.01c-.05-.04-.07-.08-.05-.11.03-.04.13-.05.31,0l.32.08Z" fill="#468ec1"/>
    <path d="m189.5,133.63l1.48.36c.05.01.08.03.07.05l-.03.05s-.05.02-.11,0l-1.48-.36-.06.08s-.05.02-.11,0l-.07-.02c-.06-.01-.08-.03-.06-.05l.19-.26s.05-.02.11,0l.07.02c.05.01.08.03.07.05l-.06.08Z" fill="#468ec1"/>
    <path d="m190.2,133.4l.79.19c.22.05.29.12.23.2s-.19.1-.41.05l-.79-.19c-.22-.05-.29-.12-.23-.2s.19-.1.41-.05Zm-.1.16l.78.19c.08.02.12.02.13,0s0-.04-.09-.06l-.78-.19c-.08-.02-.12-.02-.13,0s0,.04.09.06Z" fill="#468ec1"/>
    <path d="m191.44,133.34c.05.01.08.03.07.05l-.03.04s-.05.02-.1,0l-.99-.24c-.08-.02-.12-.02-.13,0s.01.04.09.06l.99.24c.05.01.08.03.06.05l-.03.04s-.05.02-.11,0l-1.24-.3c-.06-.01-.08-.03-.06-.05l.03-.04s.05-.02.11,0h.01c-.05-.04-.07-.08-.05-.11.03-.04.13-.05.31,0l1.08.26Z" fill="#468ec1"/>
    <path d="m191.67,133.18c-.06.08-.19.1-.41.05l-.12-.03c-.05-.01-.08-.03-.07-.05l.03-.04s.05-.02.11,0l.11.03c.08.02.12.02.13,0s-.01-.04-.09-.06c-.1-.02-.13-.03-.23-.02l-.24.02c-.14.01-.23,0-.43-.04-.22-.05-.29-.12-.23-.2s.19-.1.41-.05l.11.03c.06.01.08.03.06.05l-.03.04s-.05.02-.11,0l-.11-.03c-.08-.02-.12-.02-.13,0s0,.04.09.06c.1.02.13.02.23.02l.24-.02c.14-.01.23,0,.43.04.22.05.29.12.23.2Z" fill="#468ec1"/>
    <path d="m189.91,132.49s.11-.04.21-.01.15.06.13.09-.11.04-.21.01-.15-.06-.13-.09Zm1.86.4c.05.01.08.03.07.05l-.03.04s-.05.02-.11,0l-1.24-.3c-.06-.01-.08-.03-.06-.05l.03-.04s.05-.02.11,0l1.24.3Z" fill="#468ec1"/>
    <path d="m191.88,132.73c.05.01.08.03.07.05l-.03.04s-.05.02-.11,0l-1.83-.44c-.05-.01-.08-.03-.06-.05l.03-.04s.05-.02.11,0l1.83.44Z" fill="#468ec1"/>
    <path d="m191.99,132.57c.05.01.08.03.07.05l-.03.04s-.05.02-.11,0l-1.83-.44c-.05-.01-.08-.03-.06-.05l.03-.04s.05-.02.11,0l1.83.44Z" fill="#468ec1"/>
    <path d="m191.6,132.11c.06.02.09.04.08.06l-.09.12.28.07c.08.02.12.02.13,0s0-.04-.09-.06h-.05c-.06-.03-.08-.04-.07-.06l.03-.04s.05-.02.1,0h.06c.22.07.29.13.23.22s-.19.1-.41.04l-.79-.19c-.22-.05-.29-.12-.23-.2s.19-.1.41-.05l.4.1Zm-.22.13l.05-.06-.28-.07c-.08-.02-.12-.02-.13,0s0,.04.09.06l.28.07Z" fill="#468ec1"/>
    <path d="m191.59,131.75c.05.01.08.03.07.05l-.03.04s-.05.02-.1,0l-.17-.04c-.08-.02-.12-.02-.13,0s0,.04.09.06l.78.19c.08.02.12.02.13,0s0-.04-.09-.06l-.17-.04c-.05-.01-.08-.03-.07-.05l.03-.04s.05-.02.11,0l.18.04c.22.05.29.12.23.2s-.19.1-.41.04l-.79-.19c-.22-.05-.29-.12-.23-.2s.19-.1.41-.05l.18.04Z" fill="#468ec1"/>
    <path d="m191.17,131.54l-.31-.07c-.06-.01-.08-.03-.06-.05l.03-.04s.05-.02.11,0l.31.07.03-.04s.05-.02.11,0h.05c.05.02.08.04.07.06l-.03.04.85.21c.08.02.13.02.14,0l.02-.02s.05-.02.11,0h.05c.05.02.08.04.07.06l-.02.02c-.06.09-.2.1-.42.05l-.86-.21-.02.02s-.05.02-.11,0h-.05c-.06-.02-.08-.04-.06-.06l.02-.02Z" fill="#468ec1"/>
    <path d="m191.81,131.16l.79.19c.22.05.29.12.23.2s-.19.1-.41.05l-.79-.19c-.22-.05-.29-.12-.23-.2s.19-.1.41-.05Zm-.1.16l.78.19c.08.02.12.02.13,0s0-.04-.09-.06l-.78-.19c-.08-.02-.12-.02-.13,0s0,.04.09.06Z" fill="#468ec1"/>
    <path d="m191.81,130.81c-.05-.04-.07-.09-.05-.12.03-.04.13-.05.31,0l1.08.26c.05.01.08.03.06.05l-.03.04s-.05.02-.11,0l-.99-.24c-.08-.02-.12-.02-.13,0s.01.04.09.06l.99.24c.05.01.08.03.07.05l-.03.04s-.05.02-.1,0l-.99-.24c-.08-.02-.12-.02-.13,0s.01.04.09.06l.99.24c.05.01.08.03.06.05l-.03.04s-.05.02-.11,0l-1.24-.3c-.06-.01-.08-.03-.06-.05l.03-.04s.05-.02.11,0h.01c-.05-.04-.07-.08-.05-.11.02-.03.07-.04.16-.03Z" fill="#468ec1"/>
    <path d="m191.99,130.51l.67.13.47.1h0s-.45-.13-.45-.13l-.64-.18s-.07-.03-.05-.05l.02-.03s.05-.02.12,0l1.67.5s.07.03.05.05l-.02.03s-.05.02-.12,0l-.38-.12v.02s-.06.02-.11,0l-1.27-.24c-.08-.01-.1-.04-.09-.05l.02-.03s.05-.02.1-.01Z" fill="#468ec1"/>
    <line id="x" data-name="Line 12" x1="185.95" y1="138.41" x2="186.31" y2="137.91" fill="none" stroke="#468ec1" stroke-linecap="round" stroke-width=".14"/>
    <line id="y" data-name="Line 13" x1="187.51" y1="138.79" x2="187.87" y2="138.28" fill="none" stroke="#468ec1" stroke-linecap="round" stroke-width=".14"/>
    <line id="z" data-name="Line 14" x1="186.73" y1="138.6" x2="187.09" y2="138.09" fill="none" stroke="#468ec1" stroke-linecap="round" stroke-width=".14"/>
    <polygon id="aa" data-name="Rectangle 82" points="185.95 138.41 186.31 137.91 187.87 138.28 187.51 138.79 185.95 138.41" fill="none"/>
    <path id="ab" data-name="Rectangle 80" d="m193.63,139.73l5.19-7.26c.18-.25.95-.3,1.73-.11l22.57,5.45c.78.19,1.26.54,1.08.79l-5.19,7.26c-.18.25-.95.3-1.73.11l-22.57-5.45c-.78-.19-1.26-.54-1.08-.79Z" fill="#dcaf88"/>
    <g clip-path="url(#ac)">
      <path id="ad" data-name="Path 3684" d="m216.36,140.98c.3-.39.45-.81.45-1.26,0-.43-.24-.91-.87-1.38-.96-.72-2.81-1.35-4.65-1.66s-3.66-.32-5.03-.1c-1.33.22-2.49.65-2.89,1.21-.39.55-.15,1.33.48,2.01.67.72,1.93,1.47,3.6,2.02s3.74.88,5.31.78c1.03-.06,1.8-.3,2.35-.6.55-.3.97-.64,1.25-1.02Zm-12.98-3.2l.13.03c-.07,0-.11-.02-.13-.03h0Z" fill="#be5865"/>
      <g id="ae" data-name="Group 336">
        <path id="af" data-name="Path 3685" d="m215.63,138.91c.19-.05.35-.12.49-.19.3-.16.03-.35-.33-.58-1.13-.7-3.06-1.28-4.9-1.52s-3.56-.16-4.79.13c-.07.02-.1.05-.16.07.58-.03,1.33.13,1.93.33s1.07.46,1.52.71.92.5,1.51.71c1.28.46,2.97.62,4.1.47.23-.03.44-.07.63-.13Z" fill="#ef6f7f"/>
        <g id="ag" data-name="Group 335">
          <ellipse id="ah" data-name="Ellipse 125" cx="209.21" cy="137.11" rx=".08" ry=".22" transform="translate(36.85 318.39) rotate(-79.68)" fill="#f28991"/>
          <ellipse id="ai" data-name="Ellipse 126" cx="212.03" cy="138.51" rx=".08" ry=".22" transform="translate(37.78 322.31) rotate(-79.68)" fill="#f28991"/>
          <ellipse id="aj" data-name="Ellipse 127" cx="212.19" cy="137.46" rx=".08" ry=".22" transform="translate(38.95 321.6) rotate(-79.68)" fill="#f28991"/>
          <ellipse id="ak" data-name="Ellipse 128" cx="213.53" cy="138.66" rx=".08" ry=".22" transform="translate(38.87 323.91) rotate(-79.68)" fill="#f28991"/>
          <ellipse id="al" data-name="Ellipse 129" cx="209.98" cy="137.78" rx=".08" ry=".22" transform="translate(36.83 319.69) rotate(-79.68)" fill="#f28991"/>
          <ellipse id="am" data-name="Ellipse 130" cx="214.23" cy="137.77" rx=".08" ry=".22" transform="translate(40.32 323.87) rotate(-79.68)" fill="#f28991"/>
          <ellipse id="an" data-name="Ellipse 131" cx="213.38" cy="138.12" rx=".08" ry=".22" transform="translate(39.27 323.32) rotate(-79.68)" fill="#f28991"/>
          <ellipse id="ao" data-name="Ellipse 132" cx="210.76" cy="136.98" rx=".08" ry=".22" transform="translate(38.25 319.8) rotate(-79.68)" fill="#f28991"/>
          <ellipse id="ap" data-name="Ellipse 133" cx="211.44" cy="137.97" rx=".08" ry=".22" transform="translate(37.84 321.29) rotate(-79.68)" fill="#f28991"/>
          <ellipse id="aq" data-name="Ellipse 134" cx="207.49" cy="136.84" rx=".08" ry=".22" transform="translate(35.71 316.46) rotate(-79.68)" fill="#f28991"/>
          <ellipse id="ar" data-name="Ellipse 135" cx="215.36" cy="138.53" rx=".08" ry=".22" transform="translate(40.5 325.6) rotate(-79.68)" fill="#f28991"/>
        </g>
      </g>
      <g id="as" data-name="Group 338">
        <path id="at" data-name="Path 3686" d="m213.37,142.07c.07.12.11.23.11.34.02.23-.41.26-.94.27-1.65.03-3.71-.36-5.3-.95s-2.71-1.35-3.22-2.07c-.03-.04-.01-.07-.03-.11.38.26,1.09.46,1.76.56s1.31.12,1.94.13,1.26.03,1.93.12c1.46.2,2.85.79,3.46,1.36.13.12.22.24.29.35Z" fill="#ef6f7f"/>
        <g id="au" data-name="Group 337">
          <ellipse id="av" data-name="Ellipse 136" cx="206.65" cy="140.7" rx=".08" ry=".22" transform="translate(31.22 318.81) rotate(-79.68)" fill="#f28991"/>
          <ellipse id="aw" data-name="Ellipse 137" cx="210.34" cy="140.87" rx=".08" ry=".22" transform="translate(34.08 322.58) rotate(-79.68)" fill="#f28991"/>
          <ellipse id="ax" data-name="Ellipse 138" cx="209.18" cy="141.67" rx=".08" ry=".22" transform="translate(32.33 322.1) rotate(-79.68)" fill="#f28991"/>
          <ellipse id="ay" data-name="Ellipse 139" cx="211.58" cy="141.38" rx=".08" ry=".22" transform="translate(34.6 324.23) rotate(-79.68)" fill="#f28991"/>
          <ellipse id="az" data-name="Ellipse 140" cx="208" cy="140.55" rx=".08" ry=".22" transform="translate(32.48 320.02) rotate(-79.68)" fill="#f28991"/>
          <ellipse id="ba" data-name="Ellipse 141" cx="210.99" cy="142.3" rx=".08" ry=".22" transform="translate(33.21 324.4) rotate(-79.68)" fill="#f28991"/>
          <ellipse id="bb" data-name="Ellipse 142" cx="210.82" cy="141.7" rx=".08" ry=".22" transform="translate(33.66 323.74) rotate(-79.68)" fill="#f28991"/>
          <ellipse id="bc" data-name="Ellipse 143" cx="207.58" cy="141.43" rx=".08" ry=".22" transform="translate(31.26 320.32) rotate(-79.68)" fill="#f28991"/>
          <ellipse id="bd" data-name="Ellipse 144" cx="209.27" cy="141.01" rx=".08" ry=".22" transform="translate(33.06 321.64) rotate(-79.68)" fill="#f28991"/>
          <ellipse id="be" data-name="Ellipse 145" cx="205.1" cy="140.18" rx=".08" ry=".22" transform="translate(30.45 316.86) rotate(-79.68)" fill="#f28991"/>
          <ellipse id="bf" data-name="Ellipse 146" cx="212.72" cy="142.23" rx=".08" ry=".22" transform="translate(34.69 326.04) rotate(-79.68)" fill="#f28991"/>
        </g>
      </g>
      <path id="bg" data-name="Path 3687" d="m214.62,142.78s.01-.02.02-.02c.09-.09.14-.2.21-.29l2.19-3.06c.19-.27.4-.48.76-.67.32-.17.45-.36.16-.65-.3-.3-.89-.58-1.48-.84-1.27-.56-2.69-1.1-4.29-1.44-1-.21-2.03-.34-3.02-.42-2.57-.22-5.03-.17-6.84.22s-2.91,1.16-2.76,2.12c.16,1.01,1.61,2.13,3.2,3.18,1.04.69,2.25,1.41,3.93,1.91,1.69.5,3.58.68,5.36.84.74.07,1.54.13,2,0,.09-.03.17-.06.22-.1.3-.2.17-.54.34-.75Zm-7.79-1.65h-.02c-1.35-.76-2.84-1.57-2.75-2.33.04-.31.62-.53,1.54-.15.32.13.55.29.85.43s.72.28,1.09.29c.38.01.58-.12.5-.28s-.38-.32-.73-.45-.75-.23-1.15-.33c-2.61-.65-.77-1.25.5-1.44,1.08-.16,2.42-.16,3.84.02,1.21.15,6.64,1.23,5.63,1.85-.37.23-1.17.16-1.27.47-.12.34-.36.65-.59.97h0c-.29.42-.57.83-.84,1.24-.11.17-.27.33-.19.53.07.16.35.31.34.48,0,.14-.21.26-.58.25-.19,0-.41-.04-.62-.08-1.89-.33-4.17-.71-5.57-1.47h0Z" fill="#f28393"/>
      <path id="bh" data-name="Path 3688" d="m206.95,135.74c-.05.06-.12.11-.21.16-.17.08-.43.11-.74.11-.09,0-.73-.04-.74-.12.01.12.02.24-.07.34s-.3.17-.61.17c-.36,0-.76-.12-1.12-.22.29.06.56.14.83.22.27.09.48.2.59.31.11.13.04.24-.02.34l-.22.34c-.1.16-.24.32-.65.35-.47.03-1.14-.13-1.66-.28.41.08.82.18,1.14.33.65.28.46.54.27.76-.09.11-.18.24-.3.34-.14.11-.4.17-.75.18-.37,0-.79-.11-1.18-.17.59.08,1.21.33,1.34.56.11.19-.17.49-.81.39,1.02.16,1.74.76,1.19.97-.04.02-.08.05-.09.08-.57-.13-.96-.38-1.26-.6-1.4-1.07-1.79-2.17-1.27-3.05s1.93-1.55,3.84-1.95c.28-.06.58-.11.94-.12.45,0,.96.06,1.39.23.12.04.21.1.25.15.02.05,0,.09-.04.12-.01.02-.03.03-.04.05Z" fill="#fff"/>
      <path id="bi" data-name="Path 3689" d="m199.68,139.51c-.55-.37-1.05-.74-1.43-1.09-.39-.37-.56-.75-.27-1.02.26-.24.88-.38,1.09-.64.21-.26-.01-.61.12-.89.22-.46,1.35-.65,2.49-.76,2.28-.21,4.87-.21,7.55-.04,1.57.1,3.38.44,4.77.97,1.28.49,2.53,1,3.82,1.49.42.16.79.47.1.39-.47-.05-1.61-.57-2.03-.72-1.37-.49-2.8-.99-4.36-1.33-1.42-.31-3.52-.35-4.73-.28-1.85.1-3.66.26-4.48.89-.35.27-.18.64-.45.91-.35.36-.74.55-.71.99.02.37.1.75.52,1.15.89.85,2,1.79,3.66,2.58,1.33.64,2.92.97,4.64,1.2.75.1,1.49.2,2.19.23.18,0,2.67.34,2.57.47l-.1.13c-1.98-.21-3.96-.41-5.95-.65-1.16-.14-2.08-.32-3.03-.71-1.65-.68-3.12-1.42-4.33-2.19-.53-.34-1.12-.7-1.67-1.07Z" fill="#f6b1b9"/>
      <path id="bj" data-name="Path 3690" d="m211.44,142.38c-.29-.51-.35-1.02.03-1.35.29-.24.81-.42,1.09-.66.44-.38.26-.91.36-1.37.12-.53.66-.91,1.54-1.21.87-.3,1.7-.54,3.3-.39,1.73.16,3.53.89,4.9,1.44,1.75.69,3.17,1.51,3.99,2.34,1.13,1.14,2.19,2.29.53,3.02-1.02.44-3,.72-4.73.78-1.39.04-2.9-.03-4.46-.21-2.12-.25-4.73-.49-5.86-1.53-.3-.29-.54-.57-.69-.85Z" fill="#f28991"/>
    </g>
    <path id="bk" data-name="Rectangle 90" d="m221.61,142.23l-25.38-6.13h0l2.65-3.7c.15-.21.79-.25,1.44-.09h0l23.04,5.57c.65.16,1.05.45.9.66h0l-2.65,3.7h0Z" fill="#468ec1"/>
    <path d="m207.03,137.94l1.06.22.65.14h0s-.63-.18-.63-.18l-1.01-.28c-.07-.02-.1-.04-.08-.07l.04-.05s.07-.04.19,0l1.79.52c.07.02.11.04.09.07l-.07.1s-.07.03-.15.01l-.88-.18-.64-.14h0s.63.17.63.17l.84.24c.07.02.11.04.09.07l-.07.1s-.07.03-.15.01l-1.9-.37c-.12-.02-.15-.05-.13-.08l.04-.05s.07-.03.14-.02l1.06.22.65.14h0s-.63-.18-.63-.18l-1.01-.28c-.07-.02-.1-.04-.08-.07l.05-.08s.07-.03.14-.02Z" fill="#e3edf5"/>
    <path d="m209.38,137.74c.08.02.12.05.1.07l-.04.05s-.08.03-.16.01l-1.49-.36c-.12-.03-.18-.03-.2,0s.02.06.14.09l1.48.36c.08.02.12.05.1.07l-.04.05s-.08.03-.16.01l-2.74-.66c-.08-.02-.12-.05-.1-.07l.04-.05s.08-.03.16-.01l.9.22c-.08-.06-.11-.12-.08-.16.04-.06.19-.08.47-.01l1.62.39Z" fill="#e3edf5"/>
    <path d="m208.5,137.15l-.4-.1c-.12-.03-.18-.02-.2,0s.01.06.13.09l.09.02c.08.02.12.05.1.07l-.04.05s-.08.03-.16.01l-.1-.02c-.33-.08-.44-.18-.35-.3s.29-.15.62-.07l1.53.37c.08.02.12.05.1.07l-.04.05s-.08.03-.16.01h-.02c.08.06.11.12.08.16-.04.06-.19.08-.47.01l-.38-.09c-.33-.08-.44-.18-.35-.3l.03-.05Zm.28.13s.02.06.13.09l.25.06c.12.03.17.03.2,0s-.01-.06-.13-.09l-.41-.1-.03.05Z" fill="#e3edf5"/>
    <path d="m207.81,136.66l-.46-.11c-.08-.02-.12-.05-.1-.07l.04-.05s.08-.03.16-.01l.46.11.04-.06s.08-.03.16-.01l.07.02c.08.02.12.05.1.07l-.04.06,1.28.31c.12.03.19.03.22,0l.02-.03s.08-.03.16-.01l.07.02c.08.02.12.05.1.07l-.02.03c-.09.13-.3.15-.63.07l-1.29-.31-.03.04s-.08.03-.16.01l-.07-.02c-.08-.02-.12-.05-.1-.07l.03-.04Z" fill="#e3edf5"/>
    <path d="m209.27,136.06l-.4-.1c-.12-.03-.18-.02-.2,0s.01.06.13.09l.09.02c.08.02.12.05.1.07l-.04.05s-.08.03-.16.01l-.1-.02c-.33-.08-.44-.18-.35-.3s.29-.15.62-.07l1.53.37c.08.02.12.05.1.07l-.04.05s-.08.03-.16.01h-.02c.08.06.11.12.08.16-.04.06-.19.08-.47.01l-.38-.09c-.33-.08-.44-.18-.35-.3l.03-.05Zm.28.13s.02.06.13.09l.25.06c.12.03.17.03.2,0s-.01-.06-.13-.09l-.41-.1-.03.05Z" fill="#e3edf5"/>
    <path d="m209.67,135.46c.08.02.12.05.1.07l-.04.05s-.08.03-.16.01l-.35-.08c-.12-.03-.18-.03-.2,0s.02.06.14.09l1.48.36c.08.02.12.05.1.07l-.04.05s-.08.03-.16.01l-1.87-.45c-.08-.02-.12-.05-.1-.07l.04-.05s.08-.03.16-.01h.02c-.08-.05-.11-.12-.08-.16.04-.06.19-.08.47-.01l.48.12Z" fill="#e3edf5"/>
    <path d="m210.21,135.07c.09.02.14.05.12.08l-.13.18.43.1c.12.03.18.02.2,0s-.01-.06-.13-.09l-.08-.02c-.08-.02-.12-.05-.1-.07l.04-.05s.07-.03.16-.01l.09.02c.33.08.44.18.35.3s-.29.15-.62.07l-1.19-.29c-.33-.08-.44-.18-.35-.3s.29-.15.62-.07l.6.15Zm-.33.19l.07-.1-.42-.1c-.12-.03-.18-.02-.2,0s.01.06.13.09l.42.1Z" fill="#e3edf5"/>
    <path d="m210.74,138.97l-.46-.11c-.08-.02-.12-.05-.1-.07l.04-.05s.08-.03.16-.01l.46.11.04-.06s.08-.03.16-.01l.07.02c.08.02.12.05.1.07l-.04.06,1.28.31c.12.03.19.03.22,0l.02-.03s.08-.03.16-.01l.07.02c.08.02.12.05.1.07l-.02.03c-.09.13-.3.15-.63.07l-1.29-.31-.03.04s-.08.03-.16.01l-.07-.02c-.08-.02-.12-.05-.1-.07l.03-.04Z" fill="#e3edf5"/>
    <path d="m211.7,138.39l1.19.29c.33.08.44.18.35.3s-.29.15-.62.07l-1.19-.29c-.33-.08-.44-.18-.35-.3s.29-.15.62-.07Zm-.15.23l1.17.28c.12.03.18.02.2,0s-.01-.06-.13-.09l-1.17-.28c-.12-.03-.18-.02-.2,0s.01.06.13.09Z" fill="#e3edf5"/>
    <path d="m213.56,138.3c.08.02.12.05.1.07l-.04.05s-.08.03-.16.01l-1.49-.36c-.12-.03-.18-.03-.2,0s.02.06.14.09l1.48.36c.08.02.12.05.1.07l-.04.05s-.08.03-.16.01l-1.87-.45c-.08-.02-.12-.05-.1-.07l.04-.05s.08-.03.16-.01h.02c-.08-.05-.11-.12-.08-.16.04-.06.19-.08.47-.01l1.62.39Z" fill="#e3edf5"/>
    <path d="m213.9,138.06c-.09.13-.29.15-.62.07l-.17-.04c-.08-.02-.12-.05-.1-.07l.04-.05s.08-.03.16,0l.16.04c.12.03.18.02.2,0s-.02-.06-.13-.09c-.15-.04-.19-.04-.34-.02l-.36.03c-.22.02-.35.01-.65-.06-.33-.08-.44-.17-.35-.3s.29-.15.62-.07l.17.04c.08.02.12.05.1.07l-.04.05s-.08.03-.16.01l-.16-.04c-.12-.03-.18-.02-.2,0s.01.06.13.09c.15.04.19.04.34.02l.36-.03c.22-.02.35-.01.65.06.33.08.44.18.35.3Z" fill="#e3edf5"/>
    <path d="m211.26,137.02s.16-.06.31-.02.23.09.19.14-.16.06-.31.02-.23-.09-.19-.14Zm2.79.59c.08.02.12.05.1.07l-.04.05s-.08.03-.16.01l-1.86-.45c-.08-.02-.12-.05-.1-.07l.04-.05s.08-.03.16-.01l1.86.45Z" fill="#e3edf5"/>
    <path d="m214.21,137.38c.08.02.12.05.1.07l-.04.05s-.08.03-.16.01l-2.74-.66c-.08-.02-.12-.05-.1-.07l.04-.05s.08-.03.16-.01l2.74.66Z" fill="#e3edf5"/>
    <path d="m214.56,137.15c-.09.13-.29.15-.62.07l-.17-.04c-.08-.02-.12-.05-.1-.07l.04-.05s.08-.03.16,0l.16.04c.12.03.18.02.2,0s-.02-.06-.13-.09c-.15-.04-.19-.04-.34-.02l-.36.03c-.22.02-.35.01-.65-.06-.33-.08-.44-.17-.35-.3s.29-.15.62-.07l.17.04c.08.02.12.05.1.07l-.04.05s-.08.03-.16.01l-.16-.04c-.12-.03-.18-.02-.2,0s.01.06.13.09c.15.04.19.04.34.02l.36-.03c.22-.02.35-.01.65.06.33.08.44.18.35.3Z" fill="#e3edf5"/>
    <path d="m212.92,135.95c.51.12.53.3.93.4l.14.03c.08.02.12.05.1.07l-.03.04s-.08.03-.16,0l-.1-.02c-.59-.14-.58-.3-.94-.38l-.09-.02c-.14-.03-.24-.04-.28.01s.04.09.18.12l.2.05c.08.02.12.05.1.07l-.04.06s-.08.03-.16.01l-.2-.05c-.39-.09-.54-.2-.43-.35s.34-.17.73-.07h.05Zm1.45.6s.16-.06.31-.02.23.1.2.14-.16.06-.32.02-.23-.1-.2-.14Z" fill="#e3edf5"/>
    <g id="bl" data-name="Group 2776">
      <path id="bm" data-name="Path 13941" d="m276.55,157.09c-2.4,3.29-5.07,6.37-7.98,9.22-2.98,3.1-5.83,5.97-10.4,6.01-1.61.02-3-1.09-4.44-1.39-1.32-.24-2.61-.64-3.84-1.2-2.94-1.4-5.69-3.16-8.66-4.52-4.71-2.15-9.38-4.53-14.4-5.82-2.13-.55-4.2.08-6.27-.62-2.46-.99-4.78-2.29-6.9-3.89-.79-.65-1.51-1.38-2.17-2.16-.27-.33-.48-.7-.62-1.1-.22-.55-.47-1.09-.75-1.61-.2-.29-.48-.44-.67-.78-.24-.4-.44-.82-.61-1.26-.1-.36-.18-.8.02-1.05.46-.53,1.18-.73,1.85-.52.72.1,1.25.54,1.95.66,1.32.22,2.59.55,3.91.82s2.6.38,3.95.79c.18.06.7.27.76-.2s-.73-.67-.95-.73c-.69-.19-1.02-.22-1.66-.35-1.46-.31-2.55-.5-3.56-1.83-.24-.5-.04-1.09.45-1.34.08-.04.16-.06.24-.08.46-.04.93,0,1.39.1.46.09,1.16.12,1.62.19.92.15,1.56-.16,2.48.2,2.61,1.03,5.29,2.71,7.8,3.97,2.11,1.05,4.31,1.91,6.57,2.58,3.33,1.01,6.76,1.72,10.08,2.7,2.81.83,5.48,1.65,8.28,2.55.58.29,1.25.38,1.89.24.78-.35,1.42-.96,1.8-1.73,1.01-1.67,2.13-3.61,3.1-5.25s.98-3.46,3.07-3.89c2.58-.52,5.14.55,7.52,1.47,2,.87,3.87,1.99,5.57,3.35.41.3.79.64,1.14,1.02.29.26.49.59.58.97.28,1.07-1.9,4.11-2.16,4.47Z" fill="#a26d34"/>
    </g>
  </g>
</svg>