<?xml version="1.0" encoding="UTF-8"?><svg id="Layer_2" xmlns="http://www.w3.org/2000/svg" viewBox="0 0 331 326"><g id="Layer_1-2"><rect id="Rectangle_381" width="331" height="326" fill="#ab90c3"/><path id="Path_12942" d="M331,305.41H173.17l-4.65-5.02-27.36-29.5-42.24-45.54-45.91-49.5c-15.26-16.45-36.88-30.91-24.14-55.49,4.56-8.8,11.98-15.78,19.81-21.86" fill="none" stroke="#adadad" stroke-linejoin="round" stroke-width="8.54"/><line id="Line_54" x1="62.48" y1="148.2" x2="331" y2="148.2" fill="none" stroke="#adadad" stroke-miterlimit="10" stroke-width="8.54"/><path d="M249.74,257.2l-3.88-4.19h85.15v-52.65c-6.14,.04-12.28,.07-18.42,.07h-115.42l-9.27-10.02-24.05-25.96-28.63-30.91-22.97-24.8c-7.7-8.31-14.06-18.64-24.16-24.34-11.94-6.75-26.43-4.28-38.36,1.18-5.19,2.37-16.25,6.99-15.04,14.36,.51,2.12,1.45,4.11,2.77,5.84,2.92,4.44,6.68,7.24,10.36,11.06l14.01,14.52c.08,.31,.24,.59,.45,.82l70.01,75.6c-1.04,1.98-1.59,4.18-1.59,6.41v25.09c0,7.59,6.15,13.75,13.75,13.75h29.74l36.97,39.92c.76,.82,2.04,.87,2.86,.11l35.61-32.98c.82-.76,.87-2.04,.11-2.86h0Z" fill="#3a82b5"/><path id="Path_12941" d="M135.28,164.49c-2.05-3.88-4.3-7.65-6.74-11.3-1.11-1.67-4.63-7.68-4.1-9.47,1.21-4.03,8.56-1.91,11.57-1.94,4.14-.05,9.18,.06,12.95-1.94,5.06-2.69,3.7-9.48,9.65-11.32,5.82-1.79,14.2,3.3,19.17,6.12,20.42,11.58,31.47,31.37,37.01,53.82,2.84,11.53,4.31,18.56-1.77,28.97-4.15,7.1-12.92,19.95-21.76,11.28-6.9-6.77-14.01-13.3-20.9-20.08-13.38-13.17-26.23-27.29-35.08-44.14Z" fill="#edf4f9"/><line id="Line_51" x1="229.22" y1="148.71" x2="229.22" y2="227.5" fill="none" stroke="#adadad" stroke-linecap="round" stroke-miterlimit="10" stroke-width="5.7"/><line id="Line_52" x1="309.85" y1="148.71" x2="309.85" y2="227.5" fill="none" stroke="#adadad" stroke-linecap="round" stroke-miterlimit="10" stroke-width="5.7"/><path d="M331,245.31H200.77c-.77,0-3.24-3.5-3.72-4.02l-18.8-20.3-28.23-30.49-30.39-32.82-25.27-27.29c-12.57-13.58-39.3-53.88-61.01-34.88-6.96,6.09-15.08,15.71-13.02,25.71,.9,4.32,3.26,8.19,5.85,11.76,4.47,5.87,9.28,11.47,14.42,16.76l21.31,23.02,34.18,36.9,36.91,39.86,29.52,31.87c4,4.32,8,8.64,12,12.95,2.14,2.31,5.18,3.6,8.33,3.53,.09,0,.19,.01,.28,.01h147.88v-52.57Z" fill="#3574a2"/><path id="Path_12945" d="M189.33,111.04c.46,.59,.88,1.21,1.24,1.86,1.03,2.28,.22,4.97-1.9,6.3-1.59,1.05-3.25,1.99-4.97,2.8-1.74,.78-3.39,1.76-4.91,2.91-1.44,1.18-2.24,2.97-2.18,4.83,.26,3.65,1.65,7.12,3.97,9.94,2.51,2.9,6.14,2.3,9.43,3.41,3.13,1.06,10.68,5.18,9.97,9.29-.48,2.81-7.29,4.55-9.62,4.88-4.01,.57-8.08,.09-12.1,.44-6.01,.52-11.92,1.93-17.96,2.08-.78,.02-2.14,.29-2.87-.07-.8-.4-.93-1.67-1.11-2.53-.36-2.21-.58-4.43-.65-6.67-.07-2.38-.67-4.71-1.76-6.82-.55-.81-1.05-1.66-1.48-2.53-.55-1.25-1.22-2.45-2.01-3.56-2.81-4.09-6.85-7.14-10.82-10.11-5.75-4.32-12.01-8.1-16.08-14.17-2.38-3.6-4-7.64-4.77-11.89-.66-3.59-1.62-7.23-1.33-10.91,.7-7.4,4.4-14.2,10.24-18.8,13.71-10.88,42.31-9.49,47.55,10.48,.68,2.85,1.95,5.53,3.75,7.84,.97,1.23,2.25,2.19,3.7,2.79,1.11,.44,2.41,.36,3.24,1.35,1.13,1.35,.07,2.47-.64,3.69-.38,.55-.51,1.24-.34,1.88,.24,.57,.58,1.08,1,1.53,.28,.37,.53,.75,.76,1.16,.18,.34-.01,.7-.09,1.06-.27,1.3-.45,1.42-1.64,2.15-.76,.47-2.15,.85-1.92,1.98,0,.26,2-.19,2.24-.28,.63-.23,1.55-.6,2.11-.03,.23,.31,.38,.68,.42,1.06,.33,.97,.85,1.86,1.52,2.63Z" fill="#f6d4a6"/><path d="M331,188.4c-1.96-.49-3.92-.93-5.91-1.31-10.56-2.03-22.44-1.46-33.15-1.44-10.35,.02-20.64,.66-30.96,1.39-6.84,.49-15.44-.69-20.82-5.25-12.94-10.97-25.84-25.83-40.36-34.47-1.81-1.07-4.09-2.84-6.31-3.68-.59-.23-1.21-.39-1.83-.45-1.66-.15-3.71,.49-5.39,.65-5.4,.51-10.96,.81-16.32,1.79-16.61,3.03-4.94,21.76-.42,30.11,9.94,18.34,24.77,33.55,38.74,48.86,6.19,6.79,13.22,13.07,21.68,16.64,8.85,3.74,17.6,1.13,26.9,1.48l34.84,1.3c10.29,.38,20.64,.76,30.83-.69,2.85-.41,5.69-.97,8.49-1.71v-53.22Z" fill="#bed7ea"/><rect width="331" height="326" fill="none"/><path id="Path_12946" d="M169.35,88.45c.18-.13,.37-.23,.58-.29,.31-.17,.7-.05,.87,.26v.03c.14,.23,.25,.47,.34,.72,.47,1.08,1.42,1.87,2.57,2.13-.68,.03-1.34-.22-1.83-.69-.46-.55-.84-1.16-1.14-1.81-.15-.26-.33-.65-.64-.67-.34,.08-.66,.22-.95,.41-1.33,.51-2.51,1.36-3.41,2.48-.29,.42-.54,.86-.75,1.32-.32,.66-.62,1.32-.91,2,.89-.83,1.22-2.08,1.88-3.1,.59-.85,1.37-1.56,2.26-2.08,.58-.36,1.49-1.04,2.23-.85" fill="#b79d7b" stroke="#b79d7b" stroke-linecap="round" stroke-linejoin="round" stroke-width=".24"/><path id="Path_12947" d="M171.42,84.31c-.75,.35-1.54,.6-2.35,.74-1.08,.2-2.11,.62-3.02,1.23-.88,.67-1.7,1.42-2.45,2.23-.6,.57-1.15,1.21-1.62,1.89-.1,.16-.98,2.22-1.32,1.61-.07-.13,.12-.49,.17-.61,.29-.8,.64-1.58,1.07-2.32,1.06-1.53,2.41-2.83,3.98-3.83,1.04-.74,2.14-1.38,3.3-1.92,.53-.27,1.11-.42,1.7-.44,.9,.04,1.49,.86,.55,1.4Z" fill="#0f0f15"/><g id="Group_2445"><path id="Path_12948" d="M184.41,97.07c-.41,.35-.75,.76-1.02,1.23-.09,.16-.35,.5-.34,.69,0,.13,.1,.24,.23,.24,.05,0,.09-.01,.13-.04,.42-.26,.81-.58,1.14-.94,.24-.28,.55-.6,.48-1.01-.05-.31-.38-.35-.62-.16Z" fill="#b79d7b"/><path id="Path_12949" d="M181.41,99.22c-.2-.39-.22-.85-.06-1.26,.06-.1,.21-.27,.35-.22,.18,.07,.06,.27,.04,.41-.07,.26-.01,.55,.16,.76,.14,.17,.56,.41,.19,.6-.27,.07-.55-.05-.69-.29Z" fill="#b79d7b"/></g><path id="Path_12950" d="M179.84,124.2c-3.73,.98-7.54,1.96-11.39,1.66s-7.79-2.13-9.6-5.53c2.07,2.49,4.9,4.24,8.06,4.96,2.11,.35,4.27,.43,6.4,.21,.96-.06,5.29-.99,6.52-1.31Z" fill="#b79d7b" stroke="#b79d7b" stroke-linecap="round" stroke-linejoin="round" stroke-width=".16"/><path id="Path_12951" d="M172.8,74.67c-.35-.62-.63-1.1-.69-1.21-10.21-16.97-32.24-11.14-45.89-2.9-7.15,4.31-13.76,9.47-17.11,17.38-3.93,9.3-3.38,19.93,.06,29.29,3.24,8.72,8.52,16.54,15.42,22.79,3.46,3.13,7.45,5.71,11.06,8.57,4.18,3.32,9.87,7.75,15.34,4.39,.32-.17,.59-.4,.81-.68,.2-.37,.29-.79,.26-1.21-.03-1.22-.23-2.43-.6-3.59,.26,.66,.62,1.27,1.08,1.8,.87,1.08,2.34,1.48,3.64,.98,1.27-.64,1.7-2.24,2.71-3.24,.93-.77,2.02-1.31,3.19-1.61,2-.73,3.94-1.6,5.82-2.61,1.72-.9,3.37-1.09,2.82-2.98-1.57-5.4-10.58-8.35-14.26-12.2-2.03-2.13-2.77-4.47-4.5-6.93-1.69-2.42-5.52-4.42-6.77-6.84-2.83-5.48,4.29-8.56,5.39-13.66,.14-.65,.22-1.31,.25-1.97-.09-.61-.09-1.22-.02-1.83,.22-.5,1.27-.96,1.72-1.27,1.39-.83,2.85-1.75,4.18-2.68,.44-.27,.81-.64,1.07-1.09,.19-.52,.24-1.08,.12-1.63l-.68-5.43c.57,1.22,1.14,2.45,1.71,3.67,1.39-.46,2.69-1.16,3.84-2.07,.48-.33,.87-.78,1.12-1.31,.22-.89,.07-1.83-.42-2.6-1.88-4.19-2.9-8.72-3-13.31,.1,2.19,.76,4.31,1.91,6.17,1.13,1.72,2.9,5.9,5.06,6.29,2.39,.43,5.19-1.52,7.11-2.74,.21-.14-.95-2.31-1.75-3.74Z" fill="#0f0f15" stroke="#0f0f15" stroke-miterlimit="10" stroke-width=".45"/><path id="Path_12952" d="M141.44,107.11c-1.05,1.06-1.61,2.51-1.54,4,.21,2.33,2.94,5.71,4.92,6.94,.71,.41,1.47,.7,2.27,.87,2.55,.64,5.42,.75,7.47-.74-2.02-1.72-3.79-3.72-5.24-5.94-1.1-1.67-.77-3.21-1.58-4.96-1.22-2.65-4.64-1.9-6.3-.16Z" fill="#f6d4a6"/><g id="Group_2446"><path id="Path_12953" d="M142.77,107.66c.34-.25,.76-.37,1.18-.33,.35,.06,.34,.35,.04,.51-.28,.15-.54,.33-.79,.52-.62,.39-1.06,1.01-1.22,1.72,0,.85,.16,1.69,.5,2.47,.03,.11,.05,.26-.04,.33-.07,.04-.16,.03-.22-.02-.06-.05-.11-.12-.15-.19-.5-.66-.78-1.46-.79-2.29,.05-.79,.35-1.54,.85-2.15,.19-.22,.41-.41,.65-.57Z" fill="#b79d7b" stroke="#b79d7b" stroke-miterlimit="10" stroke-width=".1"/></g><g id="Group_2447"><path id="Path_12954" d="M185.93,102.54c.66-.42,1.32-.61,1.63,.12,.42,1-.19,1.6-.15,2.55,.26,.19,.52,.39,.76,.6,.22,.3,.36,.66,.38,1.04,.11,1.4-1.1,1.47-2.12,1.47-1.53,0-3.07,.12-4.6,.19-.5,.02-2.1,.35-2.47,0-.54-.52,.09-1.02,.47-1.28,1.57-1.07,3.06-2.28,4.55-3.45,.49-.44,1.01-.86,1.55-1.24Z" fill="#db9d95"/></g><path id="Path_12955" d="M153.89,159.22c.16,.86,.37,1.72,.62,2.56,1.53,4.61,4.01,8.86,7.28,12.45,.77,.96,1.69,1.79,2.72,2.45,3.53,2.04,3.71-.21,3.84-3.02,.2-4.33,.12-8.68-.24-13-.24-2.85-.63-5.79-2.13-8.23-.93-1.52-2.88-3.67-4.92-3.33-1.26,.34-2.49,.76-3.7,1.25-2.59,.77-3.82,1.58-3.88,4.34-.03,1.52,.11,3.04,.39,4.53Z" fill="#a6cae1"/><path id="Path_12957" d="M183.26,147.95c-2.31,.09-4.7,.1-6.96,.22-2.27,.09-4.54,.37-6.76,.82-1.53,.34-3.04,.8-4.5,1.38-.69,.43-1.46,.72-2.27,.87-.18,0-.36-.03-.53-.1-.57-.28,.08-1.06,.51-1.56,1.84-2.15,4.4-3.56,7.2-3.95,5.36-.98,10.92-1.28,16.32-1.79,1.68-.16,3.73-.8,5.39-.65,.63,.07,1.25,.22,1.83,.45,1.13,.46,2.22,1.04,3.24,1.71-4.12,2.04-8.87,2.42-13.46,2.59Z" fill="#a6cae1"/><g id="Group_2449"><path id="Path_12958" d="M211.95,169.66c-.88-.6-1.4-1.72-2.68-1.78,.09-.76,.93-.43,1.2-.82,.34-.49-.47-.87-.23-1.44,0-.02,1.16,.23,1.26,.26,.93,.37,1.64,1.16,1.89,2.13,.19,.53-.1,.83-.49,1.17-.15,.12-.71,.64-.94,.48Z" fill="#955f3e"/><path id="Path_12959" d="M210.17,185.42c.09-.46,.51-.85-.2-1.34-.37-.26-.15-1.09,.38-1.52,.66-.42,1.55-.71,1.05-1.81-.06-.1-.03-.23,.06-.29,.03-.02,.08-.03,.12-.03,.87-.09,1.67-.87,2.51-.6,.37,.12,.75,.21,.88-.22,.16-.53-.31-.9-.62-1.26l5.01-1.59c.63-.17,1.24-.42,1.81-.74,.62-.43,1.2-.91,1.75-1.43,1.46-1.2,3.2-1.46,4.84-2.28,.19,.07,.34-.02,.29-.19-.23-.79,.22-1.42,.49-2.06,.6-1.03,1.9-1.41,2.96-.85-.23,.21-.72,.67-.48,.71,1.05,.19,.7,1.21,1.18,1.69-.35,.22-.49,.67-.31,1.05l1.33-.86-1.03-.19c.58-.58,1.45-.78,2.22-.5,.05,.06,.1,.11,.16,.16-.11,1.3,1.05,1.52,1.81,1.7,.7,.17,.6,.29,.39,.74-.41,.61-.25,1.44,.35,1.86,1.28,.65,2.14,.21,2.9-1.17,.16-.29,.31-.72,.68-.66,.23,.04,.46,.41,.57,.68,.13,.35,.22,.74-.44,.79-.28,.02-.33,1.62-.02,1.77,.7,.34,.43-.41,.63-.64,.12-.13,.2-.22,.37-.09,.67,.55,.53,.1,.5-.37-.02-.27,.06-.68,.51-.61,.42,.07,.6,.33,.35,.76-.02,.03-.03,.07-.05,.11-.38,1.06,.53,.57,.85,.64,.99,.21-.76,.99,.25,1.12,.42,.05,.88,.23,1.25-.2,.11-.13,.35-.28,.5-.08,.13,.15,.11,.38-.04,.51-.03,.03-.07,.05-.11,.07-.82,.43-.41,.55,.16,.65,.24,.04,.43,.23,.47,.47,.23,1.26,1.08,.87,1.78,.62,.4-.15,.7-.48,.74,.26,.41-.08,.75,.71,1.21,.11l.55-.45c.53,.58,.75,1.38,.18,1.86-.48,.41-1.46,.1-1.77,1.03-.05,.14-.34-.03-.44-.22-.2-.41-.19-1.13-.98-.66-.42,.25-1.09,.13-1.16,.9-.03,.28-.28,.49-.57,.46-.09,0-.17-.04-.24-.09-.62-.51-1.02-.23-1.5,.18-.24,.2-.53,.62-.89,.29-.38-.36,.58-.4,.26-.83-.73,.32-1.14-.74-1.89-.47-.49-.12-.84-.35-.7-.94,.45-.1,1,.79,1.27,.05,.18-.49,1.26-1.36-.19-1.78-.08-.03-.11-.27-.15-.42-.09-.62-.67-1.06-1.29-.97-.08,.01-.15,.03-.22,.05-.24-.7-1.04-.27-1.41-.69,.12-.18,.06-.24-.14-.22-1.14-.62-2.26-1.27-3.42-1.84-.35-.14-.62-.44-.72-.81-.38-1.15-1.51-1.25-2.44-.38-.55,.51-.95,1.34-1.83,1.37-1.24,.04-1.55,.34-1.93,1.21s-.26,1.33,.5,1.81c.16,.1,.63,.02,.5,.42-.08,.24-.31,.34-.62,.4-.36,.06-1.18,.15-.97,.54,.42,.78,.06,1.93,1.08,2.4,.44,.2,.9,.33,1.39,.5-.97,.6-.99,.62-1.43,.29-.41-.3-.99-.74-1.2-.1-.3,.93-.91-.06-1.19,.36-.02,.03-.03,.07-.05,.1-.2,.52-.5,.99-.88,1.4-.72,.26-.51,.63-.15,1.01,.63,.58,.9,1.45,.73,2.28-.25,.51-.05,1.12,.46,1.38,.02,.01,.04,.02,.07,.03-.78,.18-1.09-.32-1.41-.64-.77-.76-.53,.58-1.03,.4-.04-.17-.11-.33-.21-.47-.38-.36-.92-.81-1.34-.51-.32,.23-1.09,.81-.81,1.09,.64,.62,.21,1.23,.29,1.82-.39,.56-.03,.94,.37,1.62-.04-.82,.6-1,.66-1.55-.36-.16-.74,.4-1.03-.07,.23-.2,.45-.42,.66-.64,.22-.28,.47-.68,.8-.59,.51,.14,.08,.59,.1,.89-.01,.48,.22,.92,.62,1.19,.34,.11,.71,.04,.98-.19,.6-.95,1.55-1.63,2.65-1.89,.44-.07,.86-.71,1.34-.35,.42,.32,.08,.95,.2,1.43,.04,.33-.18,.63-.5,.7-.31,.1-.37,.4-.12,.49,.6,.23,.13,.82,.41,1.14q1.72-1.21,2.06-2.4c.38,.02,1,.19,1.09,.04,.24-.4,.41-.86,.89-.44,.43,.38,.47,1.04,.1,1.47-.75,1.06,0,1.3,.83,1.59-.34-3.19,0-3.55,2.26-2.89,0-1.06-1.22-1.06-1.54-1.81-.11-.26-.74-.41-.21-.8,.48-.36,.73,.1,.87,.42,.17,.39,.31,.65,.81,.65,.39,.03,.74,.26,.92,.61,.15,.24,.17,.73,.58,.41,.18-.19,.18-.49,0-.68-.05-.05-.1-.08-.16-.1-.77-.19-.78-1.06-1.39-1.37-.25-.12-.37-.31-.1-.52,.22-.17,.58-.56,.76-.16,.52,1.14,1.84,1.38,2.47,2.36v.31h.11l-.12-.31c.2-.44,.67-.69,1.14-.62,.74,.25,1.12-.12,1.55-.54,.22,.09,.45,.44,.66,.1,.15-.29,.08-.64-.16-.86-.17-.19-.4-.32-.62-.18-.37,.22-.26,.51,0,.76-1.13-.26-2.29-.45-3.01-1.52v-.05c.74,.19,1.52-.13,2.24,.23,.21,.1,.27-.18,.38-.28,.79-.7,1.43-1.9,2.81-1.11-.06,.23-.13,.46-.23,.69-.65,1.35-.34,1.87,1.11,1.99,.37,.03,1-.28,1.07,.34,.09,.74-.56-.22-.7,.21-.06,.14-.14,.28-.23,.4-.3,.49-.49,1.03-.78,1.53-.38,.47-.3,1.17,.17,1.55,.23,.19,.53,.27,.83,.23-.41,.61-.57,1.35-.45,2.07-.69-.57-.57,.32-.67,.47-.17,.28-.07,.61,.44,.71,.61,.11,1.2,.28,1.77,.52,.78,.35-.42,.72,.1,1.1,.5,.36,.63-.88,1.07-.17,.24,.38,.36,.39,.42-.06,.03-.23,0-.58,.33-.44,.89,.38,1.01-.49,1.41-.9,.53,.75,.53,.75,1.25,.38,.34-.17,.77-.21,.91,.15,.12,.38-.03,.79-.36,1.02-.23,.14-.49,.24-.76,.28-.51,.09-.59,.38-.52,.84,.05,.31,.59,.64,.16,.91-.43,.23-.96,.12-1.25-.27-.17-.19-.4-.52-.59-.07-.15,.27-.06,.62,.22,.77,.01,0,.03,.01,.04,.02,.23,.1,.55-.11,.73,.2-.5,.71-1.14,1.31-1.87,1.78-1.05-1.91-2.25-3.74-3.57-5.47-.66-.01-1.29,.26-1.74,.75-.38,.36-.82,.69-1.35,.4-.55-.19-1.11-.33-1.68-.42-.48-1.06-1.66-1.4-2.31-2.32-.02,.66-.19,1.31,.27,1.87-.32,.25-.97-.02-1.02,.65-.54,.45-1.23-.57-1.78,.22-.31,.44-.7,.49-1.3,.2-.58-.26-1.25-.18-1.76,.2-.63,.49-1.52,.48-2.14-.03-.73-.68-1.44,0-2.15,.08-.43,.05-.65,.49-.68,.95-.02,.75-.64,1.34-1.39,1.32-.09,0-.18-.01-.26-.03-.36-.13-.81,.6-1.03-.19-.31-1.4-1.21-2.6-2.46-3.3-.34-.19-.69-.56-.64-.92,.11-.85-.49-1.45-.49-2.31-.39,.29-.55,.8-.38,1.26,.18,.72-.18,.8-.73,.65-.88-.25-1.56-.93-1.82-1.8-.19-.42-.5-.95-.84-.84-.94,.29-1.31-1.31-2.29-.6-.26-.91-1.89-.47-1.74-1.83,.06-.56-.53-.81-.91-1.08-.16-.11-.45,.21-.52,.51l-.49,.43c-.29-1.02,.43-1.68,.92-2.6-.4,1.21-.85-.09-1.28,.22-1.04,.74-.63-.21-.61-.58,.05-.72,.53-1.4,.08-2.12Zm9.96,7.01v0l-.02-.1,.02,.1Zm25.43-12.8l-.19,.26,.1,.04,.09-.29s.03-.05,.04-.08c0-.02-.02-.04-.03-.06v.14Zm-14.28,14.03h.15l-.14-.02c-.71-.17-1.02,.26-1.25,.86,.79,.21,.77-.67,1.24-.84h0Zm-10.81-2.7c.61,.6,.82-.14,1.26-.32-.55-.39-1.03-.94-1.53-.05-.33,.26-.46,.7-.32,1.09l.59-.73Zm19.91,1.95c.13-.14,.33-.37,.14-.49-.8-.5-1.14-1.4-1.82-2.11-.24,1.52,0,1.89,1.27,2.23,.16,.04,.28,.25,.42,.38-.03,.12-.15,.27,.11,.28l-.12-.28Zm-4.06-.82c-.45,.4,.07,1.74,.78,2.18,.94,.59,2.25,.28,3.04,1.26,.19,.16,.47,.13,.62-.05h0c.2-.22,.18-.55-.03-.75-.61-.36-1.07-1.03-1.9-.94-.89,.15-1.74-.45-1.89-1.35,0-.04-.01-.07-.02-.11-.13-.61-.37-.3-.62-.24h0Zm-8.7-.57c-.71,.47-.7,.47-1.4,2.16-.1,.23-.41,.45,0,.66,.48,.22,1.03,.23,1.52,.02,.21-.08,.24-.44,.08-.77-.34-.63-.41-1.38-.19-2.06h0Zm-1.35,7.47c-.03,.06-.08,.14-.07,.18s.11,.07,.16,.11l.09-.25-.19-.04Zm-2.35-6.01c0,.07,0,.16,.03,.2s.12,.07,.18,.1c0-.07,0-.15-.03-.2s-.12-.07-.18-.1h0Zm20.89-14.12c-.07-.03-.13-.07-.19-.07-.04,0-.07,.09-.1,.14,.06,.03,.13,.09,.18,.08s.08-.1,.12-.16h0Zm-12.99,13.76l.09-.18c-.06,0-.14,0-.19,.03s-.06,.11-.09,.17l.19-.02Zm-6.78-5.51c-.07,.03-.16,.03-.19,.08s.01,.13,.02,.2c.06-.02,.15-.03,.17-.07,.03-.05,0-.14,0-.21h0Z" fill="#955f3e"/><path id="Path_12960" d="M231.49,169.2c-1.05-.56-2.36-.18-2.96,.85-.27,.64-.72,1.27-.49,2.06,.05,.18-.1,.26-.29,.19-.34-.34-.47-.83-.34-1.3,.18-.57,.21-1.19,.43-1.72,.12-.4,.06-.83-.18-1.18-.19-.41-.58,.12-.9,.17-.34,.08-.67,.2-.98,.34-.37,1,.68,1.42,.88,2.19-.4,1.47-1.22,2.78-2.37,3.78-.95,.79-1.98,1.48-3.08,2.06-.94,.57-1.96,1.01-3.02,1.29-2.84,.62-5.72-.86-6.86-3.54-.48-1.1,.07-2.44,.54-3.49,.19-.42,.41-.83,.66-1.23,.23-.37,.36-.75,.58-1.12,.71-.9,1.66-1.59,2.73-1.99,.83-.41,1.71-.73,2.61-.96,.38-.12,.78-.13,1.16-.02,.42,.09,.85,.09,1.26,0,.55,.16,1.95-.43,1.87-.85-.11-.54,.07-1.1,.47-1.47,.45-.46,1.05,0,1.64-.12-.46-.27-.83-.69-.78-1.1,.06-.46-.18-1.33-.01-1.28,.66,.19,.89-.52,1.45-.48,.6,.04,.46-.51,.23-.71-.83-.69-.98-1.78-1.57-2.6-.21-.3-.26-.64-.74-.45-.28,.15-.64,.11-.87-.11-.36-.43,.68-.24,.35-.73-.37-.05-.74,.11-.97,.4-.36,.37-.87,.54-1.38,.47-1.67-.51-2.38-.2-3.01,1.53-.6,.58-1.44-.39-2.03,.34-.57,.7-1.14,.31-1.53-.16-.39-.43-.66-.95-.77-1.52-.15-1.26-.74-.81-1.13-.3-.32,.43-1.14,.3-1.1,1.06-.7-.58-.93,.1-1.19,.54-.52-.32-.13-1.08-.78-1.27-.35,.18,.05,1.34-.91,.73,0,0-.12,.12-.11,.16,.41,1.17-.92,1.49-1.13,2.35-.1,.42-.39,.8-.77,.74-.35-.12-.62-.41-.73-.76-.09-.45-.15-.97-.65-.77-.44,.23-.64,.75-.48,1.22,.13,.42,.11,1.28-.5,1.21-.81,0-1.61,.24-2.28,.7h-.08c-.34-.63,.68-1,.3-1.62,.77,.03,1.42-.57,1.45-1.34,0-.14-.01-.28-.05-.42q-.96,.22-.94-.62c.53,.16,1.07,.36,.98-.57-.02-.25-.09-.62,.21-.73,1.7-.64,2.41-2.53,4.1-3.19,1.66-.65,3.3-1.34,4.9-2.1,.5-.14,1.04-.16,1.55-.04,.98,.02,1.94,.07,2.93,0,.68-.05,.87-.14,.73-.71-.17-.44,.05-.93,.49-1.1,.02,0,.04-.01,.06-.02,.3-.09,.52-.36,.56-.68,.21-1.7,1.66-1.86,2.86-2.42,1.34-.62,2.57-.03,3.85,.08,.11,.01,.22,.15,.31,.14,2.09-.28,2.87,1.11,3.37,2.73,.28,.9,.6,1.79,.82,2.72,.31,1.19-.11,2.45-1.06,3.22-.36,.35-.76,.66-1.09,1.04-.76,.88-.66,1.38,.41,1.8,.58,.23,.93,.54,.89,1.18-.02,.39,.14,.78,.43,1.04,.65,.78,.97,1.79,.88,2.81,.26,1.43,.23,2.89-.1,4.3,.67,.2,1.38,.18,2.04-.05,.4-.15,.85-.15,1.25,0,.29,.1,.69,.27,.89,.16,1.25-.7,2.33,.2,3.49,.28,.29,.02,.09,.21,.16,.3,.26,.49,.87,.67,1.36,.41h0c.76-.45,1.74-.31,2.34,.34,.23,.23,.56,.32,.87,.25,.42-.11,.86,.06,1.09,.43,.58,.77,1.6,.42,2.34,.81,.04,.01,.08,0,.11-.01,1.23-.43,1.79,1.57,3.12,.85,1.26-.68,2.08,.5,3.1,.81,1.52,.74,2.52,2.24,2.64,3.93-.05,.55,.34,.83,.45,1.27,.25,1.01-.38,1.95-.15,2.96,.08,.36-.23,.66-.59,.78-.49,.16-.62,.64-1.08,.94,.39,.27,.92,.23,1.27-.1,.69-.66,1.59-1.05,2.54-1.1,1.16,.13,2.38-.71,3.48,.22,.27,.22,.58,.05,.86-.12,.86-.53,1.34-.01,1.56,.71,.16,.51,.29,.85,.88,.84,.1,0,.28,.09,.29,.16,.17,1.13,1.38,1.38,1.88,2.29,.57,1.03-.08,2.05,.36,3-.85,.33-.12,1.36-.79,1.77-.73-.65-.82-1.76-.2-2.51h0c-.35-.71-.41-1.66-1.45-1.82l-.12-.22,.05-.17-.17,.03h-.02c.05-.61-.68-.86-.65-1.53,.01-.28-.59-.59-.92-.16-.47,.62-1.47,.41-1.79,1.23-.08,.16-.27,.23-.43,.15-.02-.01-.04-.02-.06-.04-.18-.16-.1-.37,.02-.52,.35-.44,.36-1.03,1.05-1.6-.57,.11-.92,.26-.98,.18-.68-.85-1.16-.45-1.69,.18-.17,.21-.63,.23-.67-.09-.13-1.11-.56-.23-.87-.17-.14-.6-.44-.34-.85-.26-.95,.2-1.93,1.13-2.9,.03-.03-.03-.15,.01-.22,.02-.69-.65,.02-.74,.39-.97,.21-.14,.5-.18,.6-.47-.25-.08-.4-.49-.74-.22-.05-.06-.1-.11-.16-.16,.31-.57,.33-1.25,.07-1.83l-.25-.36c-.11-.16-.11-.38,0-.54,.15-.19,.52-.36,.17-.65-.23-.23-.6-.26-.85-.05-.23,.18-.47,.36-.71,.54,.23,.3,.42-.22,.61,.06q-1.04,.84-1.64-.55c.91,.67,1.47-.08,1.37-.45-.14-.53,.79-1.77-.77-1.63-.19,.02-.27-.09-.28-.27-.05-.84-.48-.42-.85-.27-.7,.27-1.75,.39-2.1,.08-1.46-1.27-3.24-1.34-4.95-1.7-.48-.07-.92-.31-1.24-.68-.31-.35-.58-1.37-1.24-.26-.09,.15-.18,.02-.27-.03-.83-.36-1.69-.62-2.58-.78-.98-.28-2.05-.92-3.15-.23-.06-.05-.11-.1-.16-.16,.14-.28,.21-.85,.09-.82-1.1,.22-1.32-.91-2.05-1.23-.31-.18-.71-.11-.95,.15Zm-7.16-3.37l-1.6,.07c-.55,.51-1.46,.26-1.96,.92-.05,.06-.46-.45-.57,.09-.08,.38,.28,.34,.5,.47,1.23,.73,2.55,.43,3.84,.33,.07,.04,.14,.06,.22,.08,.29,.02,.49,.66,.85,.13,.17-.24,.51-.45,.39-.79-.21-.63-.56,.14-.82-.06-.08-.06-.11-.19-.17-.29l.05-.32c.05-.56,.22-1.26-.74-.63h0Zm3.54-11.14c.1,0,.2-.01,.31-.02,0-.03,0-.07,0-.1l-.31,.1c-.28-.3,.12-.72-.2-1.01,.85-1.01,.81-1.16-.38-1.6-.37-.14-1.28,.15-.76-.85,.08-.16-.19-.33-.39-.32-.75,.03-1.19-.49-1.64-.94-.18-.18-.31-.37-.55-.19-1.03,.76-2.26-.05-2.7-.41-.93-.76-1.07,.28-1.57,.33-.24,.03-.54,.52,.01,.88,.44,.29,1,.63,.7,1.37-.04,.1,.16,.42,.29,.44,.87,.18,1.24,1.07,2.03,1.35,.16,.06,.35,.38,.46,.2,.5-.8,1.52-.64,2.16-1.15-.29-.47-.79-.08-1.12-.42,.23-.27,.4-.85,.75-.61s1.16,.26,1.05,.74c-.29,1.37,.72,.97,1.34,1.12-.54,.49-1.26,.77-1.64,1.44-.12,.21-.2,.44,.03,.62,.12,.11,.31,.11,.42,0,.03-.03,.05-.06,.06-.1,.29-.81,1.06-.65,1.63-.87h0Zm-.44,10.41c.3-.58,.99-.47,1.37-.88,.26-.28,.48-.52,.29-.91-.13-.38-.49-.63-.89-.62-1.42,.05-2.15,1.3-3.27,1.86-.29,.15,0,.43,.21,.64,.48,.48,1.13,.78,1.41,1.48,.15,.37,.53,.24,.8,.07,.46-.29,.95-.57,.92-1.23-.02-.63-.59-.06-.83-.43h0Zm-3.67,3.05c-.17,.12-.1,.27-.01,.39,.06,.09,.19,.21,.25,.2,.18-.05,.16-.23,.11-.37-.04-.16-.19-.25-.35-.22h0Zm30.27,10.84c0,.07-.01,.16,.02,.2s.12,.07,.18,.1c0-.07,0-.15-.02-.2s-.12-.06-.18-.09h0Zm-43.17-23.1l-.08-.06s-.05,.06-.05,.06c.02,.02,.05,.04,.07,.06l.05-.07Z" fill="#d9a67d"/><path id="Path_12961" d="M219.67,195.7c.56,.15,.93,.07,.74-.65-.17-.46-.02-.97,.38-1.26,0,.86,.6,1.46,.49,2.31-.05,.36,.31,.73,.64,.92,1.25,.7,2.15,1.9,2.46,3.3,.21,.79,.67,.06,1.03,.19,.73,.16,1.45-.29,1.62-1.02,.02-.09,.03-.17,.03-.26,.03-.46,.25-.9,.68-.95,.71-.08,1.41-.75,2.15-.08,.62,.51,1.51,.52,2.14,.03,.5-.38,1.18-.46,1.76-.2,.59,.29,.99,.23,1.3-.2,.55-.78,1.24,.24,1.78-.22,1.48,.8,1.66,1.18,.99,2.33-.06-.19-.14-.38-.23-.56-.14-.21-.23-.59-.54-.48-.24,.12-.41,.35-.46,.62-.06,.71,.43,.1,.53,.18,.41,.33,.75,.74,1.02,1.19,.23,.45-.08,.78-.53,.97-.24,.1-.17,.33-.03,.49,.27,.43,.44,.91,.48,1.42,.19,.77,.54,.85,1.09,.31h0c.24,.18,.33,.83,.43,.67,.6-1,.67,.14,.96,.21,1.13,.28,.67,.88,.21,1.4-.27,.3-.64,.61-.58,.96,.02,.95-.15,1.89-.48,2.78-.04,.53-.35,1.01-.82,1.27-.4,.15-.87-.21-.97-.76-.02-.08-.16-.15-.24-.22-.64,.95-.51-.15-.76-.28-.27-.14-.88-.47-.77,.01,.23,1.02-.84,1.96,.08,3.05,.53,.63,1.25,.82,1.78,1.33-.39,.54-.52,1.22-.39,1.87-.94,1.19-2.03,.32-3.06,.22l-.23-.06-.34-.37c.21-.45,.71-1.06-.87-.63,1.04-.79,.37-1.2,.19-1.71-.09-.24-.45-.28-.38-.65,.16-.88,.16-1.6-1.14-1.43-.55,.07-.7-.52-.73-1.01-.02-.27,.23-.53,.43-.38,.74,.55,.75-.4,1.15-.51,.27,.38-.39,.77,.03,1.19,.35-.26,.68-.53,1.02-.77,.29-.15,.41-.5,.27-.79-.2-.43-.52-.15-.8-.1-1.28-.42-.14-.98-.09-1.38-.7-.6-1.3-1.33-1.75-2.14-.2-.32-.27-.7-.21-1.07,.13-.79-.54-1.54-.36-2.43,.04-.19-.38-.13-.59-.04l-.33-.31c-.77,.98-1.97,1.57-2.57,2.67-.35,.65-1.31,1.26-1.41,1.12-.65-.95-.7,.35-1.03,.19-1.44-.99-1.82-2.71-2.84-4.31-.03,.73-.03,1.22-.54,1.45h0c-.03,.36-.21,.35-.45,.15-.31-.25-.43-.72-.86-.81-.21,.22-.27,.55-.13,.82,.25,.74,.7,1.4,1.3,1.9,.52,.49,.05,1.22,1.02,1.77,2,1.12,1.91,1.28,3.73,.06,1.12-.74,1.83-2.09,3.31-2.3,.33,.48,0,.9-.2,1.26-.44,.63-.6,1.41-.43,2.16-.68,.39-1-.29-1.55-.62-.02,.83-.48,1.17-1.26,1.24,.95,.66,1.94-.57,2.72,.35l.3,.03h-.02c.05,.61,.38,1.18,.89,1.54-.88,.34-.16,1.15-.48,1.66-1.76-1.34-3.79-2.27-5.64-3.46-.3-.21-.7-.2-.99,.02-.77,.53-1.76,.62-2.61,.24-.22-.24-.08-.75-.5-.8-.4-.05-.15,.54-.47,.63h0c-.78-.7-1.25-1.67-1.31-2.72-.78,.85-1.31-.08-1.92-.07-.77,0-.76-.42-.76-.93,.11-.13,.3-.27,.1-.43-.06-.05-.25,.04-.38,.07-.14-.12-.27-.32-.43-.36-1.29-.33-1.51-1.5-1.97-2.47l-.02-.16-.07,.15c-.23,.14-.44,.54-.7,.02-.32-.63-.79-.6-1.49,.07,.37-1.41,.89-2.45,.74-3.61h0c.57-.73-.4-.29-.42-.56h0c.13-.72,.04-1.55,.95-1.88,.2,.09,.44,0,.53-.2,.02-.04,.03-.09,.04-.14,.07-.24,.02-.43-.29-.45-.2-.24-.49-.59-.27-.82,.99-1.06-.28-1.47-.52-2.18-.07,.4-.12,.56-.63,.57-.77,.02-.42-.37-.34-.64,.09-.29,.12-.48-.15-.7-.25-.2-.65-.48,.07-.66,.22-.05,.02-.32-.08-.32-1.51-.03-.73-.77-.44-1.37,.12-.26-.11-.32-.26-.42h0l.09-.3c.49-.95,.19-2.15,.94-3.02,.45,.72-.04,1.4-.08,2.1-.02,.36-.43,1.32,.61,.58,.43-.31,.88,.99,1.28-.22-.49,.92-1.21,1.58-.92,2.6-.13,.2-.61,.11-.48,.51,.26,.79,1.05,.5,1.61,.77-.26-.57,.51-1.49-.63-1.71,.06-.3,.36-.62,.52-.51,.38,.27,.97,.52,.91,1.08-.15,1.35,1.48,.92,1.74,1.83,.98-.7,1.34,.89,2.29,.6,.34-.1,.66,.42,.84,.84,.26,.87,.95,1.54,1.82,1.79-.27,.22-.32,.62-.1,.89l.02,.03c.09,.14,.29,.09,.39-.05,.26-.38-.34-.45-.29-.77,0-.04-.02-.07-.04-.11Zm-2.74,1.78c-.1-.44-.19-.5-.43-.21-.36,.43-.68,.6-1.04,.2-.75,.39,1.65,1-.21,1.29-.07-.37-.11-.79-.63-.78-.37,0-.36,.32-.39,.58-.06,.6,.41,.51,.77,.56,.08,0,.15,0,.22-.03,.43,.83,1.2,1.42,2.11,1.62-.11,.11-.24,.19-.38,.26-.54,.2-.95,.65-1.09,1.21-.02,.14-.37,.2-.13,.49,.64,.01,1.26-.22,1.73-.65,.06,.69-.01,1.2-.47,1.5-.42,.28-.08,.44,.02,.65v.15l.02-.14,1.25-.66h-.01c.24,.43,.85,.79,.29,1.35-.08,.08-.41-.05-.38,.25,.04,.32,.35,.29,.55,.26,.58,0,1.06-.48,1.05-1.06,0-.08-.01-.17-.03-.25-.36-.62-.8-1.19-1.31-1.69-.28-.17-.84-.35-.7-.63,.31-.61-.29-.69-.42-1.03,.04-.11,.13-.22,.11-.32-.29-1.3,.44-2.62,1.7-3.07-.83-.79-1.46,.42-2.2,.17h0Zm18.18,7.43q.95,.52,.69,1.93c-.11,.59-.07,.7,.15,.62,.86-.3,.56,.34,.57,.68,0,.31-.37,.72,.11,.9,.59,.31,1.26,.47,1.93,.44,.92-.21,1.32-1.52,1.05-2.56s-1.2-1.59-1.84-2.35c-.16-.19-.08-.64-.24-.5-.71,.61-1.84-.21-2.41,.84h0Zm.09-2.62c.31,.06,.27,.31,.39,.45,.09,.11,.1,.39,.28,.28,.44-1.52-.83-2.1-1.55-2.85,.2-.64,.94,.22,.89-.47-.04-.52-.55-.55-1.03-.49-.42,.05-.93,.31-1.19-.32-.03-.11-.15-.16-.25-.13-.05,.01-.08,.04-.11,.08-.33,.34-.46,.83-.32,1.29,.17,.5,.35,1.18,.92,1.13,.43-.04,.69-.15,.68,.34,0,.44,.1,1.02-.34,1.27-.34,.2-.44-.32-.67-.5-.12-.09-.21-.24-.52-.03,.35,.79,.54,1.65,.54,2.52,.32-1.3,1.64-1.61,2.28-2.57Zm-19.4-8c-.37,1.06-1.79,1.04-2.09,2.27-.13,.29,0,.64,.29,.78h0c.32,.2,.45-.1,.49-.4,.05-.45,.25-.95,.65-1.01,1.03-.17,.76-.9,.67-1.64h0Zm-2.45,8.08c.63-.64,.27-1.37,.35-2.03,.01-.1-.15-.29-.27-.32-.25-.07-.44,.1-.57,.31-.53,.83-.01,1.39,.49,2.04h0Zm9.76,.1c-.1,.39,.13,.78,.51,.9,.08-.42-.07-.67-.51-.9h0Zm13.75,.9c.11-.41-.15-.59-.43-.81-.02,.37-.07,.7,.43,.81h0Zm-16.66,4.07c.07,.03,.14,.08,.2,.08,.04,0,.08-.09,.12-.14-.06-.03-.13-.1-.19-.09s-.08,.1-.13,.15h0Zm-6.77-14.72s.02,.07,.04,.1c0,0,.05-.01,.08-.02,0-.04-.02-.07-.04-.1,0-.01-.05,.01-.08,.02h0Z" fill="#bd865e"/><path id="Path_12962" d="M264.36,185.61c1.04,.17,1.1,1.11,1.45,1.83h0c-.62,.75-.53,1.86,.2,2.51v.04l-.13,.24-.64,1.16s-.1,.03-.11,.01c-.31-.48-.4-1.45-1.23-.94-.47,.29-1.45,.91-.39,1.76,.11,.09,.13,.25,.05,.36-.01,.02-.03,.03-.05,.05-.83,.56-1.15,1.55-1.79,2.21-.89,.92-1.8,2-3.28,2.06-.1,0-.26,.09-.28,.17-.24,.96-1.1,.92-1.8,1.14-1.31,.42-1.56,1.14-.88,2.38-.88,.59-1.92,.91-2.98,.92-.1,.03-.21-.02-.26-.11-.38-.78-1.26-1.21-2.11-1.02-.18-.31-.5-.1-.73-.2-.28-.13-.41-.46-.28-.75,0-.01,.01-.03,.02-.04,.2-.45,.42-.12,.59,.07,.29,.39,.82,.51,1.25,.27,.43-.27-.11-.59-.16-.91-.07-.46,.02-.75,.52-.84,.27-.04,.53-.13,.76-.28,.33-.22,.48-.64,.36-1.02-.14-.36-.57-.32-.91-.15-.73,.37-.73,.37-1.25-.38-.4,.41-.52,1.28-1.41,.9-.33-.14-.3,.21-.33,.44-.06,.45-.18,.45-.42,.06-.44-.71-.58,.53-1.07,.17-.52-.38,.68-.76-.1-1.1-.57-.24-1.16-.41-1.77-.52-.5-.1-.61-.44-.44-.71,.1-.16-.02-1.04,.67-.47,.63,.27,.71,.24,.88-.44,.18-.76,.47-1.33,1.41-.95,.38,.15,.51-.15,.57-.39,.27-.99,.89-1.85,1.76-2.4-.9-.56-.88-1.06-.02-1.53,.17-.09,.38-.11,.53-.21,.51-.35,.97-1.82,.65-1.86-.64-.08-.78-.35-.48-.81,.29-.44,.7-.32,1.11-.03,.29,.21,.94,.14,.87-.08-.32-1.01,.49-1.34,.94-1.89,.21-.18,.26-.5,.11-.74-.22-.32-.46-.1-.71,0-.35,.13-.73,.35-1.03-.1l1.1-.8c.08,0,.19-.05,.22-.02,.97,1.1,1.95,.17,2.9-.03,.4-.08,.71-.34,.85,.26-.66,.24-1.15,.42-.78,1.41,.63,1.65,1.27-.24,1.9,.07l-1.11-1.47c.3-.06,.73-.94,.86,.17,.04,.32,.49,.3,.67,.09,.53-.63,1.01-1.03,1.69-.18,.06,.08,.42-.07,.98-.18-.69,.56-.7,1.16-1.05,1.6-.12,.15-.2,.36-.02,.52,.14,.11,.35,.09,.46-.05,.02-.02,.03-.04,.04-.06,.31-.83,1.32-.62,1.79-1.23,.32-.43,.93-.11,.92,.16-.03,.67,.7,.92,.65,1.53-.38-.1-.73-.44-1.15-.07-.15,.14-.51,.07-.48,.38,.03,.28,.23,.55,.52,.52,.48-.06,1.12,.25,1.38-.47Zm-10.96,5.95h.02c-.35-.25-.16-.97-.8-.97-.46,0-.71,.41-1.05,.62,.53,.49-.4,1.14,.17,1.62-.3,.76-.27,1.69-1.14,2.16-.14,.07-.11,.37,.04,.53,.08,.06,.18,.1,.28,.11,.38-.81,1.39-.6,1.95-1.29,.57-.76,.82-1.71,.7-2.65,0-.03,.01-.07,.02-.1-.06-.02-.12-.03-.17-.04h0Zm-5.08,3.56c-.28,.31-.89,.38-.78,.98,.02,.12,.23,.31,.29,.29,.48-.17,.16-.8,.57-1.03,.4,.14,1.16,.32,1.17,.12,.07-.78,.96-.96,1.05-1.6,.05-.4,.32-1.05-.32-1.2-.62-.14-.57,.58-.68,.9-.23,.65-.69,1.2-1.3,1.54h0Zm5.13-6.22h0c.44,.47,1.18,.49,1.65,.05,.06-.06,.11-.12,.16-.19,.27-.88,.86-.79,1.54-.97-.64,.09-.21-1-.89-.67-.62,.3-1.35,.62-1.1,1.65l-1.9-1.24c.15,.66,.72,.85,.54,1.37h0Zm9.01-1.25c-.22,.29-.64,.34-.93,.12-.03-.03-.07-.06-.09-.09-.41-.48,.57-.29,.39-.71-.84-.72-2.02-.88-3.02-.41-.49,.16-.76,.68-.6,1.17,.04,.11,.09,.21,.16,.3,.16,.25,.72,.17,.53,.54-.53,.99,.26,1.47,.8,1.9,.39,.24,.52,.75,.29,1.14,.68-.76,1.29-1.58,1.84-2.44,.28-.46,1.19-.71,.63-1.52,.17-.23,.66-.26,.46-.74-.46,.09-.71,.26-.45,.75h0Zm-5.57,1.6c.9,.59-.45,.95,.03,1.33,.38,.26,.88,.23,1.22-.08,.29-.34,.29-.83,0-1.17-.32-.37-.72,.11-1.24-.09h0Zm-4.09,5.86c.62,.03,1.18,.11,1.4-.57,.08-.23,0-.55-.26-.55-.67,.01-.86,.58-1.14,1.11h0Zm-6.59,.34c.25,.18,.58,.17,.81-.04,.02-.06,.02-.13-.02-.19-.28-.15-.63-.05-.79,.23h0Z" fill="#bd865e"/><path id="Path_12963" d="M207.87,179.73c-.32-.53-.88-.87-1.51-.9-.11,.01-.23-.01-.32-.08-1.19-1.47-2.8-2.55-3.65-4.34-.46-.96-.69-1.94-1.04-2.86-.26-.68-.71-2.28-2.28-2.06-1.24,.17-1.99-.81-2.92-1.36-.16-.1-.32-.2-.49-.29-1.37-.62-2.16-3.17-2-4.62,.12-1.11,1.39-1.96,.62-3.29-.26-.45,.42-1.25,.87-1.36,1.12-.28,1.9-1.46,3.19-1.15v.1l-.02-.1c1.02-.69,2.13,.14,3.19-.19,.14-.04,.35,.27,.22,.54-.26,.44-1.16,.41-.93,1.18,.06,.21,.43,.37,.24,.66-.22,.34-.56,.08-.84,.06s-.51-.36-.83-.1c-.02-.02-.05-.03-.08-.05-.02,0-.04,.01-.06,.02l.14,.02c.78,1.04-.63,.32-.6,.76h0c-.62-.19-1.26-.34-1.86-.57-.56-.29-1.25-.07-1.54,.49-.06,.11-.1,.23-.12,.35-.22,.68-.6,1.4,.18,2.1,.4,.36,.09,1.06,0,1.53-.15,.78-.27,.76,.5,1.18,.23,.64,.59,.41,.95,.13,.22,.19,.55,.17,.75-.05,.04-.05,.08-.11,.1-.17,.31-.44,.78-.75,1.31-.86,.41,.05,.78-.17,1.23-.08,.54,.14,1.08-.19,1.21-.72,.06-.23,.03-.48-.08-.7-.08-.24-.16-.4,0-.61h.08c.29,.24,.57,.49,.83,.76,.17,.19,.56,.45,.13,.73-.88,.56-.06,.63,.22,.86-1.01,0-1.27,.65-1.32,1.49,.38,.2,.79-.31,1.09,.15-.52,.56-1.63,.22-2.08,1.31,.61-.26,1.3-.29,1.94-.09,.41,.13,.84-.52,1.15,.02,.23,.4-.52,.5-.43,.98,.22,1.14,.2,1.13-1.04,.99-.35-.04-.88-.36-1.02,.15-.15,.56,.52,.46,.81,.57,.84,.31,1.62,.46,1.71,1.68,.04,.57,.92,1.54,1.36,1.51,1.17-.07,1.56,.25,1.43,1.36,.1,.03,.21,.05,.32,.07,1.1,.33,1.55,.99,1.1,2.13-.04,.1,.12,.27,.18,.41-.18,.16-.46,.22-.51,.5,.23,.32,.86-.4,.9,.38h-.31v.12l.31-.11c.3,.44,.2,1.04-.24,1.34-.05,.04-.11,.07-.17,.1Zm-9.07-13.82c-.29-.04-.57-.59-.76-.12-.16,.43-.51,.76-.95,.9-.3,.12-.26,.34-.1,.55,.18,.23,.29,.63,.66,.54,.39-.09,.82-.23,.85-.77,.02-.38,.62-.63,.29-1.09h0Zm8,9.75c-.14-.02-.25-.08-.32-.05s-.19,.16-.18,.23c.03,.18,.17,.22,.31,.11,.07-.05,.11-.17,.19-.3h0Z" fill="#d9a67d"/><path id="Path_12964" d="M238.02,214.49c-.53-.51-1.25-.7-1.78-1.33-.92-1.09,.15-2.03-.08-3.05-.11-.48,.5-.15,.77-.01,.24,.12,.12,1.22,.76,.28,.08,.07,.22,.14,.24,.22,.1,.56,.57,.91,.97,.76,.47-.26,.77-.74,.82-1.27,.33-.89,.5-1.83,.48-2.78-.06-.35,.31-.67,.58-.96,.47-.51,.92-1.12-.21-1.4-.3-.07-.36-1.21-.96-.21-.1,.16-.18-.5-.43-.67,.02-.02,.03-.05,.04-.07,0-.02-.01-.04-.02-.06l-.02,.13c-.55,.54-.9,.46-1.09-.31-.04-.5-.21-.99-.48-1.42-.13-.15-.2-.39,.03-.49,.45-.2,.77-.52,.53-.97-.27-.45-.61-.86-1.02-1.19-.09-.08-.59,.53-.53-.18,.05-.27,.22-.5,.46-.62,.31-.11,.4,.27,.54,.48,.09,.18,.17,.36,.23,.56,.66-1.15,.49-1.53-.99-2.33,.05-.67,.7-.39,1.02-.65,.36,1.01,.9,1.42,1.84,.57,.06-.04,.13-.08,.2-.11,.57,.09,1.13,.23,1.68,.42,.53,.29,.97-.04,1.35-.4,.45-.49,1.08-.76,1.74-.75-.97,1.01,.12,1.94,.45,2.55,.77,1.21,1.38,2.52,1.81,3.89l-.55,.46c-.21,.16-.55,.45-.69,.23-.21-.35-.27-.77-.18-1.17,.19-.56,.51-1.13-.02-1.57-.49-.41-.75-.98-1.22-1.38-.21-.18-.44,0-.66,.05,.23,.7-.7,1.18-.37,1.87,.11,.23,.64,.39,.09,.65-.28,.14-.63,.03-.77-.26-.02-.05-.04-.1-.05-.15,.05-1.32-.38-1.96-1.79-1.57-.09,.03-.23-.2-.36-.26-.47-.19-.59,.23-.79,.49-.3,.37,.13,.36,.25,.54,.37,.54,1.12,.55,1.43,1.13v0c1-.69,1.19,.49,1.69,.83,.53,.35-.39,.57-.36,.97,1.22,.07,2.18,1.06,2.21,2.28-.07,.42-.01,.85,.16,1.23-.32,.28-.58,.61-.77,.99-.56,1.03-1.14,2.04-1.72,3.05-.33-.09-.69-.01-.96,.2-.46,.33-1.1,.23-1.43-.23-.04-.05-.07-.11-.1-.17v0c-.55,.79-.36,1.94-1.25,2.57,.01,.03,.03,.07,.05,.1l-.77,.48Zm4.2-7.17c.11-.23,.23-.46,.32-.71,.11-.3,.5,.38,.47-.13,0-.16-.29-.36-.49-.43s-.52-.05-.61,.19c-.17,.41-.61,.97,.32,1.07-.1,.11-.24,.21-.15,.39,.05,.04,.12,.05,.18,.02,.14-.14,.02-.28-.05-.41h0Z" fill="#d9a67d"/><path id="Path_12965" d="M212.51,202.03c.46,.98,.68,2.14,1.97,2.47,.16,.04,.29,.24,.43,.36h0c-.12,.12-.3,.26-.11,.43,.06,.06,.26-.04,.39-.06h0c0,.52,0,.94,.76,.93,.6,0,1.14,.92,1.92,.07,.06,1.04,.53,2.02,1.31,2.72l.02,.11-.02-.11c.32-.09,.07-.68,.47-.63,.42,.05,.28,.56,.5,.8-.41,.87-.92,1.04-1.76,.42-.43-.33-1.03-.31-1.44,.05-.42,.35-1.18,.38-1.29-.07-.29-1.17-1.51-1.5-1.96-2.46-.2-.33-.38-.67-.55-1.02-.29-.85-.55-1.65-1.75-1.18-.21,.08-.72-.06-.68-.3,.23-1.23-1.29-1.65-1.21-2.83,.06-1-1.16-1.59-1.05-2.68,.08-.81-.47-1.58-.19-2.42,.07-.21-.07-.37-.24-.48s-.45-.28-.35-.4c.96-1.08-.17-2.31,.28-3.42,.48-1.17,.35-2.54,1.17-3.61,.15,.1,.39,.16,.26,.42-.29,.6-1.07,1.34,.44,1.37,.11,0,.3,.27,.08,.32-.71,.18-.32,.46-.07,.66,.28,.22,.24,.41,.15,.7-.08,.26-.44,.65,.34,.64,.51-.01,.57-.18,.63-.57,.24,.71,1.52,1.12,.52,2.18-.22,.23,.07,.58,.27,.82-.13,.25-.34,.47-.28,.78-.91,.32-.82,1.16-.95,1.88h0c.02,.27,.99-.17,.42,.55h0c.16,1.17-.36,2.21-.74,3.62,.7-.66,1.17-.7,1.49-.07,.26,.52,.47,.12,.7-.02l.09,.02Zm4.77,5.33s-.05,.04-.05,.06c0,.03,.02,.06,.04,.09l.09-.1-.08-.06Z" fill="#d9a67d"/><path id="Path_12966" d="M230.19,202.32c.22-.09,.63-.15,.59,.04-.18,.89,.48,1.63,.36,2.43-.06,.37,0,.75,.21,1.07,.45,.81,1.05,1.53,1.75,2.14-.04,.4-1.19,.96,.09,1.38l-.53,.47c-.4,.11-.41,1.06-1.15,.51-.2-.15-.44,.11-.43,.38,.03,.49,.18,1.08,.73,1.01,1.3-.18,1.3,.55,1.14,1.43-.07,.37,.29,.41,.38,.65,.18,.51,.85,.92-.19,1.71,1.58-.43,1.08,.18,.87,.63-.8,.41-1.2-.39-1.59-.71-1.22-.81-2.25-1.87-3.03-3.11,.31-.51-.4-1.31,.48-1.66-.51-.36-.84-.93-.89-1.56,.47-.44-.03-.68-.19-1-.17-.75-.01-1.54,.43-2.16,.21-.35,.53-.78,.2-1.26-.14-.88,.15-1.77,.79-2.39Z" fill="#d9a67d"/><path id="Path_12967" d="M244.98,207.5c-.18-.39-.23-.82-.16-1.23-.03-1.22-.99-2.21-2.21-2.28-.03-.4,.89-.62,.36-.97-.51-.33-.69-1.52-1.7-.83h0c-.31-.58-1.06-.59-1.43-1.13-.12-.18-.55-.17-.25-.54,.2-.26,.32-.68,.79-.49,.14,.06,.27,.29,.36,.26,1.41-.39,1.84,.24,1.79,1.57,.06,.31,.36,.52,.67,.46,.05-.01,.1-.03,.15-.05,.55-.27,.02-.42-.09-.65-.33-.7,.6-1.18,.37-1.87,.22-.06,.45-.23,.66-.05,.47,.4,.73,.97,1.22,1.38,.53,.44,.21,1.01,.02,1.57-.1,.4-.03,.82,.18,1.17,.13,.22,.47-.07,.69-.23,.29,.73,.87,1.32,.62,2.28-.47,1.83-.47,3.88-2.56,4.84-.04-.14-.15-.39-.12-.41,.78-.48,.5-1.46,1-2.07,.41-.49-.12-.53-.36-.71Z" fill="#bd865e"/><path id="Path_12968" d="M255.47,200.59c-.68-1.24-.43-1.95,.88-2.38,.7-.23,1.56-.18,1.8-1.14,.02-.08,.18-.17,.28-.17,1.48-.06,2.39-1.14,3.28-2.06,.65-.66,.96-1.65,1.79-2.21,.11-.09,.13-.25,.05-.36-.01-.02-.03-.03-.05-.05-1.06-.85-.08-1.47,.39-1.76,.83-.51,.93,.46,1.23,.94,0,.01,.07,0,.11-.01,.09,.8-.48,1.28-.9,1.82-1.8,2.26-4.21,3.83-6.44,5.6-.78,.63-1.33,1.6-2.43,1.79Z" fill="#955f3e"/><path id="Path_12969" d="M208.26,178.28c-.04-.78-.67-.05-.9-.38,.05-.27,.33-.33,.51-.5,.47-.49,.71-1.19,1.48-1.48-.06,.71,.91,1.04,.52,1.95-.19,.44,1.43,1.31,1.86,.95,.71-.59,.97-.13,1.22,.46,.27-.27-.04-.66,.21-.92,.28-.29,1.03-.11,1.33,0,.31,.1,.56,.33,.68,.64,.15,.44-.09,.92-.53,1.07h-.03c-.31,.07-.5-.11-.76-.21-.2-.09-.43-.1-.64-.01-.53,.24-1.07,.43-1.63,.57-.12,0-.21,.09-.21,.2,0,.04,.01,.08,.03,.12,.5,1.1-.39,1.39-1.05,1.81,.34-.75-.23-1.4-.29-2.1-.04-.44-.77-.7-1.35-.64-.29,.03-.58,.27-.83-.09,.49-.22,.71-.79,.49-1.28-.03-.06-.06-.12-.1-.17Z" fill="#bd865e"/><path id="Path_12970" d="M244.98,207.5c.24,.18,.77,.22,.36,.71-.5,.61-.23,1.59-1,2.07-.03,.02,.08,.27,.12,.41-1.4,2.25-3.54,3.82-5.28,5.76-.49,.55-1-.48-1.54-.1-.14-.65,0-1.33,.39-1.87l.78-.47c.92,.55,1.09-.61,1.59-.7,1.13-.2,1.49-1.09,2.1-1.77,.57-1.02,1.16-2.03,1.72-3.05,.19-.38,.45-.71,.77-.99Z" fill="#955f3e"/><path id="Path_12971" d="M246.95,203.12c-.43-1.37-1.04-2.68-1.81-3.89-.33-.61-1.42-1.53-.45-2.55,1.32,1.74,2.51,3.57,3.57,5.47-.27,.55-.85,.68-1.31,.96Z" fill="#bd865e"/><path id="Path_12972" d="M198.76,160.32c-.03-.44,1.39,.28,.6-.76h0c.32-.26,.56,.08,.83,.1s.62,.28,.84-.06c.19-.29-.18-.45-.24-.66-.24-.77,.67-.73,.93-1.18l.43,.57q-.02,.84,.94,.62c.2,.75-.24,1.52-.99,1.72-.14,.04-.28,.05-.42,.05-.74,0-1.46-.36-2.22,.05-.28,.16-.53-.19-.71-.45Z" fill="#bd865e"/><path id="Path_12973" d="M209.23,188.44l-.09,.29,.09-.29Z" fill="#d9a67d"/><path id="Path_12974" d="M265.88,190.22l.11-.24c.04,.12,.02,.2-.11,.24Z" fill="#d9a67d"/><path id="Path_12975" d="M234.35,216.52l.23,.06c-.1,.07-.19,.09-.23-.06Z" fill="#d9a67d"/><path id="Path_12976" d="M253.28,179.03c.26,.59,.24,1.27-.07,1.83-.75,.19-1.21,.58-1.01,1.44,.1,.42-.19,.63-.45,.85-.72,.13-.14,.43-.1,.68,.05,.27,.63,.67-.17,.78-.41,.06-.45,.46-.67,.7-.53,.58-.94,1.78-2.07,.65-.19-.19-.61-.08-.85,.16-.22,.22-.18,.47-.07,.75,.2,.35,.32,.75,.35,1.15-.09,.74-.16,.74,.54,.99,.13,.05,.36-.02,.31,.22-.04,.18-.22,.48-.27,.47-1.15-.33-1.62,1.12-2.71,.88,.15,.47,.48,.56,.73,.72-.13,.16-.42,.22-.34,.51,.04,.05,.1,.08,.17,.07,.26-.13,.2-.36,.17-.58,.62-.28,1.04,.2,1.26,.56,.24,.4-.4,.48-.63,.71-.36,.31-.73,.6-1.12,.87,.04-.33,.52-1.26-.4-.59-.6,.08-1.15-.35-1.23-.95-.04-.3,.05-.59,.23-.83,.29-.5,.48-1.05,.78-1.53,.09-.12,.17-.26,.23-.4,.14-.43,.79,.53,.7-.21-.07-.62-.71-.31-1.07-.34-1.45-.12-1.75-.64-1.11-1.99,.09-.22,.17-.45,.23-.69-1.39-.79-2.03,.42-2.81,1.11-.11,.1-.17,.38-.38,.28-.73-.36-1.51-.04-2.24-.23h-.15l.14,.04c.72,1.06,1.89,1.26,3.01,1.52,.03,0,.09,0,.1,0,0,.06,.01,.12,.02,.18-.43,.42-.81,.79-1.55,.54-.48-.06-.94,.19-1.14,.62h0c-.63-.98-1.95-1.23-2.47-2.36-.18-.4-.54-.02-.76,.16-.27,.21-.15,.4,.1,.52,.61,.3,.62,1.18,1.39,1.37,.25,.09,.37,.37,.27,.62-.02,.06-.06,.12-.1,.16-.41,.32-.43-.18-.58-.41-.18-.35-.53-.58-.92-.61-.5,0-.64-.26-.81-.65-.14-.33-.39-.78-.87-.42-.52,.39,.1,.54,.21,.8,.33,.75,1.55,.75,1.54,1.81-2.26-.66-2.59-.3-2.26,2.89-.83-.29-1.58-.53-.83-1.59,.37-.44,.33-1.09-.1-1.47-.48-.42-.65,.05-.89,.44-.09,.15-.71-.02-1.09-.04-.1-.06-.2-.1-.3-.17-.29-.19-.57-.44-.9-.08-.16,.15-.16,.41-.01,.57,.01,.02,.03,.03,.05,.04,.36,.36,.61,.02,.89-.15,.09-.07,.18-.14,.27-.21q-.34,1.2-2.06,2.41c-.28-.32,.19-.92-.41-1.14-.25-.09-.18-.4,.12-.49,.32-.07,.54-.37,.5-.7-.12-.49,.21-1.12-.2-1.43-.48-.36-.9,.28-1.34,.35-1.1,.26-2.05,.94-2.65,1.89-.27,.23-.65,.3-.98,.19-.4-.26-.63-.71-.62-1.19-.02-.31,.41-.75-.1-.89-.32-.09-.57,.31-.8,.59-.21,.23-.42,.44-.66,.64h0c-.08-.6,.35-1.2-.29-1.82-.28-.28,.48-.86,.81-1.09,.42-.3,.96,.16,1.34,.51,.1,.14,.17,.3,.21,.47,.51,.17,.27-1.17,1.03-.4,.32,.32,.63,.82,1.41,.64-.52-.22-.77-.82-.56-1.34,0-.02,.02-.04,.03-.07,.17-.84-.1-1.7-.73-2.28-.36-.38-.57-.75,.15-1.01,.38-.41,.68-.88,.88-1.4,.01-.03,.03-.07,.05-.1,.28-.42,.89,.57,1.19-.36,.21-.64,.79-.2,1.2,.1,.44,.32,.45,.31,1.43-.29-.49-.17-.96-.3-1.39-.5-1.03-.46-.66-1.61-1.08-2.4-.21-.39,.61-.47,.97-.54,.32-.05,.54-.16,.62-.4,.13-.4-.34-.32-.5-.42-.76-.48-.89-.94-.5-1.81s.69-1.17,1.93-1.21c.88-.03,1.28-.86,1.83-1.37,.93-.87,2.06-.77,2.44,.38,.1,.37,.36,.66,.72,.81,1.16,.57,2.29,1.22,3.42,1.84v.06l-.04,.1c.06,.03,.11,.04,.17,.06h0c.37,.43,1.17-.01,1.41,.69v0c.59-.21,1.24,.1,1.46,.7,.03,.07,.04,.15,.05,.22,.04,.15,.06,.4,.15,.42,1.45,.43,.37,1.29,.19,1.78-.28,.75-.82-.15-1.27-.05-.63-.03-1.19,.36-1.4,.95,.6,.54,1.51,.53,2.1-.02,.75-.27,1.16,.79,1.89,.47,.32,.44-.64,.47-.26,.83,.36,.34,.65-.08,.89-.29,.48-.4,.88-.68,1.5-.18,.23,.16,.55,.11,.72-.12,.05-.07,.08-.16,.09-.24,.07-.77,.74-.65,1.16-.9,.79-.47,.78,.25,.98,.66,.09,.19,.39,.36,.44,.22,.3-.93,1.29-.62,1.77-1.03,.57-.49,.36-1.28-.18-1.86l.56-.41h-.01c.39,.47,.78,.32,1.17,0,.32,0,.63-.14,.86-.36Zm-23.41,9.25c.3-.29,.32-.72,.05-.9-.5-.32-.91,.12-1.3,.39-.12-.13-.24-.29-.44-.12-.02,.03-.03,.07-.01,.1,.15,.22,.3,.08,.46,0l.38,.89c-.09,.17-.04,.38,.13,.47,.02,.02,.07,0,.11,0l-.24-.47c.36,.01,.33-.88,.89-.38l-.08,.41h.16l-.1-.4Zm.09-2.99c.09,.04,.1,.32,.29,.1l-.29-.09c-.41-.48-1.15,.32-1.51-.4-.08-.15-.26-.2-.4-.13-.03,.02-.06,.04-.08,.06-.22,.22-.07,.39,.09,.57,.69,.8,1.3,.35,1.91-.11Zm4.74-4.17c-.45-.05-.55-1.26-1.24-.39-.13,.16-.15,.64-.03,.73,.35,.32,.89,.31,1.23-.03,.17,.18,.26,.5,.6,.37,.08-.06,.14-.14,.17-.24-.21-.2-.38-.48-.72-.45h0Zm3.1,5.29l.29,.18s.02-.07,.03-.11c-.1-.05-.2-.08-.3-.12-.41-.48-1.02-.17-1.52-.36-.17-.07-.42,.2-.22,.35,.44,.43,.99,.75,1.59,.91,.59,.05-.4-.62,.14-.84h0Zm-3.72-9.18c-.45,.27-.91,.75-.53,1.15,.75,.63,1.46,1.3,2.14,2.02,.2,.27,.52,.21,.31-.26h0c.19-.61,1.1-1.41-.42-1.58-.11-.01-.31-.25-.29-.29,.61-1.23-.6-1.54-1.08-2.23-.15-.21-.21-.38-.51-.33-.37,.06-.2,.35-.27,.54-.26,.66,.31,.72,.65,.94v.04Zm-2.87,9.45c-.05,.56-.16,1.11-.34,1.65-.66,1.34-.69,1.32,.8,2.06-.43-.58-.5-1.14-.12-1.53,.86-.89,.34-1.5-.33-2.17h0Zm9.32-3.2c.05,.46,.84,.68,.3,1.12-.39,.31-.2,.49,0,.72,.29,.33,.56,.12,.79-.08,.52-.44,.66-1.19,.33-1.78-.47-.92-.89,.35-1.42,.03h0Zm-8.43,1.69c-.14,.1-.19,.28-.13,.44,.26,.72,.67,1.11,1.46,.69,.11-.06,.36,.13,.32-.15-.02-.12-.22-.34-.28-.32-.62,.2-1.07,.16-1.1-.65,0,0-.2,0-.28-.01h0Zm13.54-1.39c-.3-.15-.61-.48-.94-.16-.27,.26-.07,.59,.08,.86,.25,.45,.45,.04,.63-.07,.2-.13,.52-.29,.22-.63h0Zm-19.7,6.43c-.18-.19-.31-.14-.43-.03-.11,.1-.12,.26-.03,.38l.02,.02c.04,.1,.16,.15,.26,.1,.04-.02,.08-.05,.1-.09,.05-.12,.08-.24,.08-.37h0Zm.99-1.38l-.18-.11c-.04,.06-.11,.13-.1,.18s.11,.08,.17,.11l.11-.18Zm15.46-3.46c-.02-.06-.04-.12-.07-.18-.01-.02-.1-.01-.1,0-.02,.05-.03,.11-.04,.17h.22Zm-2.07-1.09l-.06,.08s.06,.05,.06,.04c.02-.02,.05-.05,.06-.08l-.07-.05Z" fill="#bd865e"/><path id="Path_12977" d="M234.56,171.27c1.09-.7,2.17-.05,3.15,.23,.89,.16,1.75,.42,2.58,.78,.09,.05,.18,.18,.27,.03,.66-1.11,.93-.09,1.24,.26,.32,.37,.76,.61,1.24,.68,1.7,.36,3.49,.43,4.95,1.7,.35,.31,1.4,.19,2.1-.08,.37-.15,.81-.57,.85,.27,.01,.19,.08,.29,.28,.27,1.56-.14,.63,1.1,.77,1.63,.09,.36-.47,1.12-1.37,.45q.6,1.39,1.64,.55c-.19-.28-.37,.24-.61-.06,.24-.18,.47-.35,.71-.54,.25-.21,.62-.18,.85,.05,.35,.29-.02,.46-.17,.65-.11,.16-.11,.38,0,.54-.3,.27-.73-.12-1.03,.18l-.75,.56h.01c-.2-.31-.58-.16-.83-.31q-.5-1.37-1.95-.81c-.1,.05-.22,.08-.33,.09-.3,.01-.66-.08-.6,.43,.03,.23-.03,.56,.1,.66,.33,.26,.55-.11,.77-.29,.74-.61,1.17-.45,1.29,.5l.44,.59c-.46,.6-.8-.18-1.21-.11-.04-.74-.34-.4-.74-.26-.7,.26-1.55,.64-1.78-.62-.04-.24-.23-.43-.47-.47-.57-.1-.98-.21-.16-.65,.19-.07,.29-.27,.22-.46-.01-.04-.04-.08-.07-.11-.15-.2-.39-.06-.5,.08-.37,.44-.83,.26-1.25,.2-1.02-.13,.74-.91-.25-1.12-.32-.07-1.23,.42-.85-.64,.01-.04,.03-.07,.05-.11,.25-.42,.07-.68-.35-.76-.44-.08-.52,.33-.51,.61,.03,.47,.17,.92-.5,.37-.17-.14-.25-.05-.37,.09-.2,.23,.07,.98-.63,.64-.31-.15-.26-1.75,.02-1.77,.66-.05,.57-.44,.44-.79-.1-.27-.34-.64-.57-.68-.36-.06-.52,.37-.68,.66-.76,1.38-1.61,1.81-2.9,1.17-.6-.42-.76-1.25-.35-1.86,.21-.45,.32-.57-.39-.74-.76-.18-1.91-.4-1.81-1.7Z" fill="#bd865e"/><path id="Path_12978" d="M245.89,192.84c.92-.66,.44,.27,.4,.59,.39-.27,.77-.55,1.12-.87,.23-.23,.87-.31,.63-.71-.22-.36-.63-.85-1.26-.56h0c-.25-.17-.58-.25-.73-.72,1.09,.25,1.56-1.21,2.71-.88,.05,.01,.23-.29,.27-.47,.06-.23-.18-.17-.31-.22-.7-.25-.63-.24-.54-.99-.03-.41-.15-.8-.35-1.15-.11-.28-.16-.53,.07-.75,.24-.23,.66-.34,.85-.16,1.13,1.13,1.54-.07,2.07-.65,.22-.24,.26-.65,.67-.7,.8-.11,.21-.51,.17-.78-.04-.24-.62-.54,.1-.68l.28,.33c.3,.45,.68,.23,1.03,.1,.25-.09,.49-.31,.71,0,.15,.24,.1,.55-.11,.74-.45,.55-1.26,.89-.94,1.89,.07,.21-.58,.29-.87,.08-.41-.3-.82-.41-1.11,.03-.3,.46-.16,.73,.48,.81,.32,.04-.14,1.51-.65,1.86-.16,.1-.37,.12-.53,.21-.86,.47-.88,.97,.02,1.53-.86,.55-1.49,1.41-1.76,2.4-.07,.24-.2,.54-.57,.39-.94-.37-1.22,.2-1.41,.95-.17,.68-.24,.71-.88,.44-.12-.72,.04-1.47,.45-2.07Zm2.77-6.27s-.05,.04-.05,.06c0,.03,.02,.06,.04,.08l.09-.1-.08-.04Z" fill="#d9a67d"/><path id="Path_12979" d="M236.32,192.09c.25-.06,.49-.37,.62,.24,.09,.9,.89,1.56,1.8,1.47,.04,0,.07,0,.11-.02,.84-.09,1.3,.58,1.9,.94,.21,.2,.22,.53,.03,.74-.15,.19-.43,.22-.62,.07h-.01c-.79-.99-2.09-.68-3.04-1.27-.71-.44-1.23-1.78-.78-2.18Z" fill="#bd865e"/><path id="Path_12980" d="M231.49,169.2c.24-.26,.63-.32,.95-.15,.73,.32,.96,1.45,2.05,1.23,.13-.03,.05,.54-.09,.82-.78-.28-1.64-.08-2.22,.5h.01c-.47-.49-.13-1.5-1.18-1.69-.25-.04,.24-.49,.48-.71Z" fill="#bd865e"/><path id="Path_12981" d="M226.45,172.96c-.36-.76,.04-1.45,.21-2.16,.47-.7,.92-1.38-.34-1.76-.2-.06-.36-.28-.54-.42,.32-.14,.65-.26,.98-.34,.32-.05,.7-.58,.9-.17,.24,.34,.3,.78,.18,1.18-.21,.53-.25,1.15-.43,1.72-.13,.46,0,.96,.34,1.3l-1.3,.66Z" fill="#bd865e"/><path id="Path_12982" d="M227.62,191.52c-.22,.69-.15,1.43,.19,2.06,.15,.33,.13,.69-.08,.77-.48,.21-1.04,.21-1.52-.02-.41-.2-.09-.42,0-.66q.7-1.68,1.4-2.16Z" fill="#bd865e"/><path id="Path_12983" d="M239.92,197.4c-.07,.03-.14,.07-.2,.11-.94,.84-1.48,.44-1.84-.57-.46-.55-.29-1.2-.26-1.86,.64,.93,1.83,1.27,2.31,2.32Z" fill="#bd865e"/><path id="Path_12984" d="M240.4,192.91c-.14-.13-.26-.34-.42-.38-1.28-.34-1.51-.7-1.27-2.23,.68,.71,1.03,1.61,1.82,2.11,.19,.12-.01,.35-.14,.49h.01Z" fill="#bd865e"/><path id="Path_12985" d="M211.56,190.05c1.14,.22,.37,1.14,.63,1.71-.55-.27-1.35,.02-1.61-.77-.13-.39,.35-.3,.48-.51l.49-.43Z" fill="#d9a67d"/><path id="Path_12986" d="M241.71,182.26c-.59,.55-1.5,.55-2.1,.02,.21-.59,.77-.98,1.4-.95-.14,.59,.21,.82,.7,.94Z" fill="#d9a67d"/><path id="Path_12987" d="M220.2,190.59c.5-.89,.98-.34,1.53,.05-.44,.18-.65,.92-1.26,.32l-.27-.36Z" fill="#bd865e"/><path id="Path_12988" d="M242.32,188.81c0-.06,0-.12-.02-.18,0,0-.06,0-.1,0-.27-.25-.37-.54,0-.76,.22-.13,.44,0,.62,.18,.24,.22,.31,.57,.16,.86-.22,.34-.45,0-.66-.1Z" fill="#d9a67d"/><path id="Path_12989" d="M222.27,191.39c.29,.47,.67-.09,1.03,.07-.06,.54-.7,.73-.66,1.55-.4-.68-.76-1.06-.37-1.62h0Z" fill="#bd865e"/><path id="Path_12990" d="M250.16,180.28c-.15-.2-.29-.4-.44-.59l.72-.58c.26,.16,.63,0,.83,.31l-.56,.41-.55,.45Z" fill="#d9a67d"/><path id="Path_12991" d="M232.18,171.61l1.03,.19-1.33,.86c-.18-.38-.05-.83,.31-1.05h-.01Z" fill="#bd865e"/><path id="Path_12992" d="M231.29,193.65c-.47,.17-.46,1.05-1.24,.83,.23-.6,.53-1.02,1.25-.86v.02Z" fill="#bd865e"/><path id="Path_12993" d="M220.2,190.59l.27,.36-.59,.73c-.14-.39-.01-.84,.32-1.09Z" fill="#d9a67d"/><path id="Path_12994" d="M226.28,198.99l.19,.04-.09,.25c-.06-.04-.14-.06-.16-.11s.04-.12,.07-.18Z" fill="#bd865e"/><path id="Path_12995" d="M223.93,192.98c.06,.03,.15,.05,.18,.1s.02,.13,.03,.2c-.06-.03-.15-.05-.18-.1s-.02-.13-.03-.2Z" fill="#bd865e"/><path id="Path_12996" d="M244.82,178.86c-.04,.06-.07,.15-.12,.15s-.12-.05-.18-.08c.03-.05,.06-.14,.1-.14,.07,0,.13,.04,.2,.07Z" fill="#bd865e"/><path id="Path_12997" d="M231.83,192.62l-.19,.02c.03-.06,.05-.14,.09-.17s.12-.02,.19-.03l-.09,.18Z" fill="#bd865e"/><path id="Path_12998" d="M225.04,187.11c0,.07,.03,.16,0,.21-.02,.04-.11,.05-.17,.07-.01-.07-.05-.15-.02-.2s.12-.06,.19-.08Z" fill="#bd865e"/><path id="Path_12999" d="M239.63,189.97l.12,.3h-.11v-.3h-.02Z" fill="#bd865e"/><path id="Path_13000" d="M245.57,179.63l-.09,.29-.1-.04,.19-.26h0Z" fill="#bd865e"/><path id="Path_13001" d="M240.39,192.91l.12,.28c-.26,0-.14-.16-.11-.28h-.01Z" fill="#bd865e"/><path id="Path_13002" d="M245.56,179.63l.02-.14s.03,.04,.03,.06c0,.03-.02,.06-.04,.08h0Z" fill="#bd865e"/><path id="Path_13003" d="M220.13,192.43l.02,.11v-.11h-.02Z" fill="#bd865e"/><path id="Path_13004" d="M220.14,192.43l-.02-.1v.1h.02Z" fill="#bd865e"/><path id="Path_13005" d="M238.89,177.34c.19-.02,.25,.04,.14,.22h0c-.05-.05-.1-.11-.14-.16v-.06Z" fill="#bd865e"/><path id="Path_13006" d="M231.29,193.63l.14,.03h-.15v-.03Z" fill="#bd865e"/><path id="Path_13007" d="M202.66,164.68c-.28-.23-1.1-.3-.22-.86,.43-.27,.04-.54-.13-.73-.26-.27-.54-.52-.83-.75,.67-.46,1.46-.71,2.28-.7,.61,.07,.63-.79,.5-1.21-.17-.47,.04-.99,.48-1.22,.51-.2,.56,.32,.65,.77,.11,.36,.38,.64,.73,.76,.38,.06,.67-.32,.77-.74,.21-.86,1.54-1.19,1.13-2.35-.01-.04,.1-.17,.11-.16,.96,.6,.56-.55,.91-.73,.65,.18,.26,.94,.78,1.27,.26-.44,.49-1.12,1.19-.54-.04-.75,.78-.63,1.1-1.06,.39-.52,.99-.96,1.13,.3,.11,.57,.38,1.09,.77,1.52,.4,.47,.96,.87,1.53,.16,.59-.73,1.43,.24,2.03-.34,.08,.32,.08,.69,.56,.9-.09-.26-.1-.54-.06-.81,0-.76-.33-.1-.51-.08,.63-1.74,1.34-2.05,3.01-1.54,.51,.07,1.02-.11,1.38-.47,.23-.29,.6-.45,.97-.4,.32,.49-.71,.3-.35,.73,.23,.22,.59,.27,.87,.11,.48-.19,.53,.15,.74,.45,.59,.83,.74,1.91,1.57,2.6,.23,.2,.37,.75-.23,.71-.56-.04-.79,.67-1.45,.48-.16-.05,.07,.82,.01,1.28-.05,.41,.32,.83,.78,1.1-.59,.12-1.19-.33-1.64,.12-.4,.38-.58,.93-.47,1.47,.07,.42-1.33,1.01-1.87,.85,0-.34-.05-.69-.14-1.02-.23-.61-.49-1.27-1.25-1.24-.78,.03-.69,.47-.55,1.07,.09,.23,.08,.49-.02,.72-.21,.36-.59,.21-.91,.32-.31,.17-.61,.37-.89,.6l-2.28,1.38c-.41,.33-.93,.47-1.45,.38-.44-.14-.43-.76-.75-1.11-.62-.67-1.62-.73-2.42-1.06-.23,.57,.57,.94,.23,1.44-.27,.39-1.11,.06-1.2,.82,.56,.05,1.08,.29,1.48,.68,.4,.34,.71,.87,1.25,.95,.22,.01,.43,.06,.63,.12,.18,.08,.61,.55,.57,.76-.04,.13-.16,.22-.29,.22-.13,0-.26-.02-.39-.06-.8-.18-1.39,.49-2.15,.27-.57-.17-1.04-.51-1.63-.64-.01,0,.46-.75-.31-.49-.22,.07-.64,.28-.49,.51,.17,.27,0,.87,.69,.79,.36-.05,.56,.34,.56,.74-.07,.12-.21,.31-.18,.34,.19,.24,.54,.29,.79,.12,1.11,.26-.51,.55,0,.82-.4,.28-.88,.44-1.15,.89-.02,.04-.05,.07-.09,.1-.38-.08-.77,0-1.1,.2-.43,.06-.52,.56-.9,.69-.11-.02-.21-.04-.32-.07,.13-1.11-.26-1.43-1.43-1.36-.45,.03-1.32-.94-1.36-1.51-.09-1.22-.87-1.37-1.71-1.68-.29-.11-.96,0-.81-.57,.14-.51,.67-.19,1.02-.15,1.24,.14,1.26,.15,1.04-.99-.09-.47,.65-.57,.43-.98-.31-.54-.74,.12-1.15-.02-.64-.21-1.33-.17-1.94,.09,.45-1.09,1.57-.76,2.07-1.32,.11,.2,.36,.27,.56,.16,.04-.02,.07-.04,.1-.07,.17,.09,.39,.05,.51-.1,.13,.6,.82,.22,1.02,.45,.08,.64-.75,.49-.66,1.05,1.95-.06,2.18-2.08,3.64-2.83-1-.31-1.47-.73-.95-1.64,.25-.44,.01-.53-.4-.49-1.06,.09-.08,.88-.42,1.22-1.18-1.04-2.06-1.06-2.16-.01-.08,.96-.53,.64-1,.62Zm9.97-4.66c-.75-1.38-1.76-1.61-3.44-.65,1.35-.08,2.21,.79,3.44,.65h0Zm-5.21,11.63c.25-.14,.44-.38,.11-.76-.66-.11-1.33-.11-1.98,.01-.15,.19,.06,.35,.08,.52,.61-.16,1.02,.86,1.79,.22h0Zm14.48-8.51c1.11-1.33,1.09-2.08-.02-2.35,.1,.78,.11,1.57,.02,2.35h0Z" fill="#bd865e"/><path id="Path_13008" d="M220.74,171.19c-.79,1.29-2.24,2.03-3.74,1.91h-.04l-1.56-.51c-.79-.95-.66-2.36,.29-3.15,.05-.04,.09-.07,.14-.11,.95-.81,2.11-1.32,3.34-1.47,.82-.09,1.63,.26,2.11,.93,.4,.35,.44,.96,.08,1.36-.03,.03-.05,.06-.08,.08-.27,.28-.59,.5-.54,.96Z" fill="#955f3e"/><path id="Path_13009" d="M227.35,153.61c-.62-.15-1.63,.26-1.34-1.12,.1-.48-.7-.49-1.05-.74s-.53,.34-.75,.61c.33,.33,.83-.05,1.12,.42-.64,.51-1.66,.35-2.16,1.15-.11,.17-.3-.14-.46-.2-.79-.28-1.16-1.17-2.03-1.35-.13-.03-.32-.34-.29-.44,.29-.74-.26-1.08-.7-1.37-.55-.36-.25-.85-.01-.88,.49-.06,.64-1.09,1.57-.33,.44,.36,1.68,1.17,2.7,.41,.24-.18,.37,0,.55,.19,.45,.45,.89,.97,1.64,.94,.2,0,.48,.16,.39,.32-.52,.99,.39,.71,.76,.85,1.19,.44,1.23,.59,.38,1.6h0l-.34-.05h.01Zm-.47-1.03c-.03,.09-.07,.16-.05,.2s.11,.06,.16,.1c.03-.08,.05-.17,.06-.25-.05-.02-.11-.04-.17-.05h0Z" fill="#bd865e"/><path id="Path_13010" d="M209.21,171.72c0-.39-.2-.78-.56-.74-.69,.09-.52-.52-.69-.79-.14-.23,.28-.43,.49-.51,.78-.26,.29,.49,.31,.49,.71-.02,1.21,.65,1.9,.7,.18,.02,.36-.01,.52-.09,.13-.07,.26-.32,.38-.35,.53-.11,.42,.63,.33,.91l-.58,1.73c-.22,.44-.36,.91-.42,1.39,.07,.36,.18,.7,.34,1.03,.31,.97,1.05,1.75,2.01,2.1,.12,.04,.24,.1,.35,.18,.11,.08,.16,.21,.13,.35-.08,.29-.5,.13-.58,.35-.05,.14,.22,.4,.24,.56,.03,.18-.09,.36-.27,.39h-.01c-.32,0-.29-.6-.55-.77-.29-.19-.58-.02-.82,.18-.43,.35-2.05-.52-1.86-.95,.39-.91-.57-1.24-.52-1.95-.77,.29-1.01,.99-1.48,1.48-.07-.14-.22-.31-.18-.41,.45-1.14,0-1.8-1.1-2.13,.38-.13,.46-.64,.9-.69,.43,.28,.91,.86,1.1-.2,.04-.03,.07-.06,.09-.1,.75,.18,.97-.33,1.15-.89-.52-.27,1.1-.56-.01-.82-.14-.22-.35-.39-.61-.46Z" fill="#955f3e"/><path id="Path_13011" d="M198.76,160.32c.17,.26,.43,.61,.71,.46,.76-.41,1.48-.04,2.22-.05,.38,.63-.64,.99-.3,1.61-.16,.21-.08,.37,0,.61,.25,.49,.05,1.09-.44,1.34-.22,.11-.46,.14-.7,.08-.46-.08-.82,.13-1.23,.08-.85-.86-1.11-.84-1.72,.14-.16,.3-.31,.61-.44,.93-.36,.28-.72,.51-.95-.13,.71-.38,.97-1.27,.59-1.98-.04-.08-.09-.16-.15-.23-.2-.35-.28-.79-.51-1.18-.37-.64-.23-1.12,.66-1.08,.81,.17,1.65-.06,2.25-.62h0Z" fill="#955f3e"/><path id="Path_13012" d="M227.43,165.11c.24,.36,.81-.2,.84,.43,.03,.66-.46,.94-.92,1.23-.27,.17-.66,.3-.8-.07-.28-.7-.93-1-1.41-1.48-.2-.21-.5-.49-.21-.64,1.12-.57,1.85-1.82,3.27-1.86,.4-.01,.76,.24,.89,.62,.2,.39-.03,.63-.29,.91-.38,.41-1.07,.29-1.37,.88Z" fill="#bd865e"/><path id="Path_13013" d="M218.42,165.05c-.15-.76-.16-1.46,.81-1.69,1-.23,1.27,.51,1.52,1.2,.08,.33,.13,.68,.14,1.02-.86,.17-1.76-.02-2.47-.54Z" fill="#955f3e"/><path id="Path_13014" d="M227.87,154.7c-.57,.22-1.35,.06-1.63,.87-.06,.15-.23,.23-.39,.17-.04-.01-.07-.04-.1-.06-.23-.19-.15-.42-.03-.62,.37-.67,1.1-.95,1.64-1.44h-.01l.34,.05h0c.32,.29-.08,.71,.2,1.01v.03Z" fill="#bd865e"/><path id="Path_13015" d="M252.03,183.48l-.28-.33c.27-.22,.55-.43,.45-.85-.21-.86,.26-1.25,1.01-1.44,.06,.05,.11,.11,.16,.16l.15,.68c-.37,.23-1.08,.32-.39,.97l-1.1,.8Z" fill="#955f3e"/><path id="Path_13016" d="M225.78,168.62c.18,.14,.34,.36,.54,.42,1.26,.38,.82,1.06,.34,1.76-.2-.77-1.26-1.19-.88-2.19Z" fill="#955f3e"/><path id="Path_13017" d="M264.36,185.61c-.27,.71-.9,.41-1.38,.46-.29,.03-.49-.24-.52-.52-.03-.31,.33-.25,.48-.38,.42-.38,.77-.04,1.15,.07h.02s.08,.1,.12,.14l.12,.23Z" fill="#955f3e"/><path id="Path_13018" d="M224.28,167.01c-.32-.66-1.28-.4-1.56-1.11,.53-.02,1.07-.05,1.6-.07,.17,.28,.43,.51,.74,.63-.02,.11-.03,.21-.05,.32l-.48,.33-.24-.11Z" fill="#955f3e"/><path id="Path_13019" d="M224.53,167.11l.48-.33c.05,.1,.08,.23,.17,.29,.26,.2,.61-.57,.82,.06,.11,.34-.22,.55-.39,.79-.35,.52-.56-.11-.85-.13-.08-.02-.15-.04-.22-.08-.06-.05-.09-.13-.07-.21,.02-.13,.04-.26,.06-.39Z" fill="#bd865e"/><path id="Path_13020" d="M215.4,172.59l1.56,.52c-.76,.53-1.31,.45-1.56-.52Z" fill="#bd865e"/><path id="Path_13021" d="M252,178.86c.3-.3,.72,.09,1.03-.18l.25,.36c-.22,.23-.53,.37-.85,.38l-.43-.55Z" fill="#955f3e"/><path id="Path_13022" d="M225.06,166.46c-.31-.12-.57-.34-.74-.63,.96-.64,.79,.07,.74,.63Z" fill="#bd865e"/><path id="Path_13023" d="M253.52,181.71l-.15-.68c.35-.28,.5,.14,.74,.21-.1,.28-.39,.33-.6,.47Z" fill="#bd865e"/><path id="Path_13024" d="M254.02,179c.06,.03,.15,.05,.18,.1s.02,.13,.02,.2c-.06-.03-.15-.05-.18-.1s-.02-.13-.02-.2Z" fill="#bd865e"/><path id="Path_13025" d="M227.87,154.66l.31-.1s0,.07,0,.1c-.1,.01-.2,.02-.31,.02v-.02Z" fill="#bd865e"/><path id="Path_13026" d="M210.85,155.89l-.05,.06s-.05-.04-.07-.06c0,0,.03-.04,.05-.06l.08,.06Z" fill="#bd865e"/><path id="Path_13027" d="M216.79,175.65l-.14-.04h.15v.04Z" fill="#bd865e"/><path id="Path_13028" d="M264.24,185.39s-.08-.09-.12-.14l.17-.03-.05,.17Z" fill="#bd865e"/><path id="Path_13029" d="M265.81,187.44l.11-.02h-.11v.02Z" fill="#bd865e"/><path id="Path_13030" d="M230.19,202.32c-.64,.62-.93,1.52-.79,2.4-1.48,.21-2.19,1.56-3.31,2.3-1.83,1.21-1.73,1.06-3.73-.06-.97-.55-.5-1.28-1.02-1.77-.6-.5-1.05-1.16-1.3-1.9-.14-.27-.08-.6,.13-.82,.43,.09,.56,.56,.86,.81,.23,.19,.41,.21,.45-.16h0c.51-.22,.51-.7,.54-1.44,1.02,1.6,1.4,3.32,2.84,4.31,.32,.17,.37-1.14,1.03-.19,.1,.14,1.06-.47,1.41-1.12,.6-1.1,1.8-1.69,2.57-2.67l.33,.31Z" fill="#955f3e"/><path id="Path_13031" d="M235.11,204.92c.57-1.05,1.7-.23,2.41-.85,.16-.13,.08,.32,.24,.5,.65,.75,1.57,1.28,1.84,2.35s-.13,2.35-1.05,2.56c-.67,.02-1.33-.13-1.93-.44-.49-.18-.11-.59-.11-.9,0-.34,.29-.98-.57-.68-.22,.08-.26-.03-.15-.62q.27-1.41-.69-1.92Z" fill="#d9a67d"/><path id="Path_13032" d="M235.2,202.3c-.64,.96-1.96,1.27-2.28,2.57,0-.87-.18-1.73-.54-2.52,.3-.21,.4-.06,.52,.03,.23,.18,.33,.7,.67,.5,.44-.26,.33-.83,.34-1.27,0-.49-.25-.38-.68-.34-.58,.06-.75-.63-.92-1.13-.14-.46-.01-.95,.32-1.29,.06-.09,.18-.12,.28-.06,.04,.03,.07,.06,.08,.11,.26,.63,.78,.37,1.19,.32,.48-.06,.99-.03,1.03,.49,.06,.7-.69-.17-.89,.47,.71,.75,1.99,1.33,1.55,2.85-.18,.11-.19-.17-.28-.28-.12-.14-.08-.39-.39-.45Z" fill="#d9a67d"/><path id="Path_13033" d="M218.27,203.5l-1.25,.66h-.02c-.1-.21-.44-.37-.02-.65,.46-.3,.53-.81,.47-1.5-.47,.43-1.09,.67-1.73,.65-.24-.3,.11-.35,.13-.49,.15-.56,.55-1.01,1.09-1.21,.14-.07,.27-.15,.38-.26h-.01c.14,.33,.74,.41,.42,1.03-.14,.28,.42,.46,.7,.63,.51,.5,.95,1.07,1.31,1.69,.14,.57-.2,1.14-.77,1.28-.08,.02-.17,.03-.25,.03-.2,.03-.51,.06-.55-.26-.04-.3,.29-.16,.38-.25,.56-.57-.05-.93-.29-1.35,.07-.4,.1-.78-.34-1.04-.2,.5,.17,.73,.36,1.03Z" fill="#955f3e"/><path id="Path_13034" d="M216.93,197.49c.73,.25,1.37-.96,2.2-.17-1.26,.45-1.99,1.76-1.7,3.07,.02,.09-.07,.21-.11,.32h.01c-.91-.2-1.68-.8-2.11-1.62l.03-.33c1.86-.28-.54-.9,.21-1.29,.36,.41,.68,.24,1.04-.2,.24-.29,.33-.22,.43,.21h-.14l.13,.02Z" fill="#955f3e"/><path id="Path_13035" d="M215.81,194.29c.09,.75,.36,1.47-.66,1.64-.39,.06-.6,.56-.65,1.01-.03,.31-.16,.6-.49,.4-.3-.13-.43-.47-.3-.77h0c.31-1.24,1.72-1.21,2.09-2.28Z" fill="#955f3e"/><path id="Path_13036" d="M228.77,208.13c.16,.31,.66,.56,.19,1h.02c-.09-.11-.19-.08-.3-.02-.78-.92-1.77,.3-2.72-.35,.78-.07,1.24-.41,1.26-1.24,.55,.33,.88,1,1.55,.62Z" fill="#955f3e"/><path id="Path_13037" d="M213.36,202.37c-.5-.65-1.02-1.21-.48-2.04,.13-.2,.32-.38,.57-.31,.11,.03,.28,.22,.27,.32-.08,.65,.27,1.38-.35,2.03Z" fill="#d9a67d"/><path id="Path_13038" d="M232.67,209.84l.53-.47c.28-.05,.6-.33,.8,.1,.14,.29,.03,.65-.27,.79-.34,.24-.68,.51-1.02,.77-.42-.42,.23-.81-.04-1.19Z" fill="#955f3e"/><path id="Path_13039" d="M215.25,198.75l-.03,.33c-.07,.02-.15,.03-.22,.03-.36-.05-.82,.04-.77-.56,.02-.26,.02-.57,.39-.58,.52-.01,.56,.41,.63,.78Z" fill="#d9a67d"/><path id="Path_13040" d="M211.49,196.06c-.06-.31,.15-.53,.28-.78,.3,.02,.35,.2,.29,.45-.02,.22-.21,.38-.43,.37-.05,0-.09-.02-.14-.04Z" fill="#955f3e"/><path id="Path_13041" d="M219.67,195.7s.04,.07,.03,.11c-.05,.31,.56,.39,.29,.77-.1,.14-.29,.19-.39,.05-.24-.26-.21-.66,.05-.9l.03-.03h-.01Z" fill="#955f3e"/><path id="Path_13042" d="M223.12,202.48c.44,.23,.58,.48,.51,.9-.38-.12-.61-.51-.51-.9Z" fill="#955f3e"/><path id="Path_13043" d="M236.87,203.37c-.5-.1-.45-.44-.43-.81,.28,.22,.54,.4,.43,.81Z" fill="#d9a67d"/><path id="Path_13044" d="M214.91,204.87c.13-.03,.32-.12,.38-.07,.2,.17,0,.3-.1,.43h0l-.29-.38h0Z" fill="#d9a67d"/><path id="Path_13045" d="M220.21,207.44c.05-.06,.08-.15,.13-.16s.12,.06,.19,.09c-.04,.05-.07,.14-.12,.14-.06,0-.13-.05-.2-.08Z" fill="#955f3e"/><path id="Path_13046" d="M213.45,192.72s.07-.03,.08-.02c.02,.03,.03,.06,.04,.1-.03,0-.07,.03-.08,.02-.02-.03-.03-.07-.04-.1Z" fill="#955f3e"/><path id="Path_13047" d="M212.42,202.02l.07-.15,.02,.16h-.09Z" fill="#d9a67d"/><path id="Path_13048" d="M228.69,209.11c.11-.06,.21-.09,.3,.03l-.3-.03Z" fill="#d9a67d"/><path id="Path_13049" d="M217.02,204.16l-.04,.14v-.15h.04Z" fill="#955f3e"/><path id="Path_13050" d="M221.49,203.11h0Z" fill="#955f3e"/><path id="Path_13051" d="M262.44,187.64c.56,.81-.36,1.06-.63,1.52-.55,.86-1.16,1.68-1.84,2.44,.22-.4,.09-.9-.29-1.14-.53-.43-1.32-.91-.8-1.9,.2-.37-.37-.29-.53-.54-.32-.4-.26-.98,.13-1.31,.09-.07,.19-.13,.3-.16,1-.47,2.18-.3,3.02,.41,.18,.42-.8,.24-.39,.71,.24,.28,.66,.31,.94,.07,.03-.03,.06-.06,.09-.09h0Z" fill="#d9a67d"/><path id="Path_13052" d="M253.56,191.7c.12,.94-.13,1.9-.7,2.65-.56,.69-1.58,.47-1.95,1.29-.1-.01-.2-.05-.28-.11-.14-.16-.17-.46-.04-.53,.88-.47,.85-1.4,1.14-2.16,.81-.1,.97-1.04,1.68-1.27h-.02s.1,.09,.16,.13Z" fill="#955f3e"/><path id="Path_13053" d="M253.45,188.89c.18-.52-.39-.71-.55-1.37l1.9,1.24c-.24-1.03,.48-1.35,1.1-1.65,.68-.33,.25,.77,.89,.67-.68,.19-1.27,.09-1.54,.97-.37,.53-1.1,.66-1.62,.29-.07-.05-.13-.1-.19-.16h0Z" fill="#d9a67d"/><path id="Path_13054" d="M248.32,195.11c.61-.34,1.07-.89,1.3-1.54,.1-.32,.06-1.04,.68-.9,.64,.15,.38,.8,.32,1.2-.09,.64-.98,.81-1.05,1.6-.02,.19-.77,.02-1.17-.12l-.08-.24Z" fill="#955f3e"/><path id="Path_13055" d="M253.41,191.56c-.71,.23-.88,1.17-1.68,1.27-.57-.49,.36-1.13-.17-1.62,.35-.22,.6-.63,1.05-.62,.63,0,.45,.72,.8,.98Z" fill="#d9a67d"/><path id="Path_13056" d="M257.11,182.9l1.11,1.47c-.64-.31-1.28,1.58-1.9-.07-.37-.98,.12-1.16,.78-1.41h0Z" fill="#d9a67d"/><path id="Path_13057" d="M256.89,189.24c.53,.19,.93-.29,1.25,.09,.29,.34,.29,.83,0,1.17-.34,.31-.85,.34-1.22,.08-.48-.39,.87-.74-.02-1.33Z" fill="#d9a67d"/><path id="Path_13058" d="M252.79,195.1c.29-.54,.47-1.1,1.15-1.11,.25,0,.34,.31,.26,.55-.22,.68-.78,.6-1.4,.57Z" fill="#955f3e"/><path id="Path_13059" d="M248.32,195.11l.08,.24c-.4,.23-.08,.87-.57,1.03-.06,.02-.27-.17-.29-.29-.11-.6,.5-.67,.78-.98Z" fill="#d9a67d"/><path id="Path_13060" d="M262.45,187.64c-.26-.49,0-.66,.45-.74,.2,.48-.29,.51-.46,.74h0Z" fill="#d9a67d"/><path id="Path_13061" d="M246.2,195.45c.16-.28,.51-.38,.79-.23,.04,.06,.04,.13,.02,.19-.23,.2-.57,.22-.81,.04Z" fill="#d9a67d"/><path id="Path_13062" d="M253.45,188.88l-.1,.02h.1v-.02Z" fill="#d9a67d"/><path id="Path_13063" d="M253.56,191.7c-.06-.04-.11-.08-.16-.14,.06,.01,.12,.02,.18,.04,0,.03-.01,.07-.02,.1Z" fill="#d9a67d"/><path id="Path_13064" d="M198.76,160.31c-.61,.56-1.45,.79-2.25,.62-.89-.05-1.04,.44-.66,1.08,.23,.39,.31,.83,.51,1.18,.51,.62,.42,1.54-.21,2.05-.07,.06-.15,.11-.23,.15-.77-.42-.65-.4-.49-1.18,.09-.47,.41-1.16,0-1.53-.78-.7-.4-1.42-.18-2.1,.1-.62,.68-1.05,1.3-.96,.12,.02,.24,.06,.35,.12,.61,.23,1.24,.38,1.86,.57Z" fill="#bd865e"/><path id="Path_13065" d="M198.8,165.91c.33,.47-.27,.71-.29,1.09-.03,.55-.46,.68-.85,.77-.37,.09-.48-.3-.66-.54-.16-.21-.2-.43,.1-.55,.44-.14,.79-.47,.95-.9,.19-.47,.47,.08,.76,.12Z" fill="#bd865e"/><path id="Path_13066" d="M202.43,166.32c-.3-.45-.71,.06-1.09-.15,.05-.84,.31-1.48,1.32-1.49h0c.05,.58,.34,1.1,.81,1.45l-.38,.28h0c-.12-.2-.38-.27-.59-.15-.03,.02-.05,.03-.07,.06h.01Z" fill="#bd865e"/><path id="Path_13067" d="M196.87,165.53c.13-.32,.27-.63,.44-.93,.61-.99,.87-1,1.72-.14-.53,.11-1,.41-1.31,.85-.1,.27-.4,.42-.67,.32-.06-.02-.12-.06-.17-.1Z" fill="#bd865e"/><path id="Path_13068" d="M206.8,175.66c-.08,.14-.11,.25-.18,.3-.14,.1-.29,.07-.31-.11-.01-.07,.09-.2,.18-.23s.18,.02,.32,.05Z" fill="#bd865e"/><path id="Path_13069" d="M208.26,178.29l-.3,.11v-.11h.3Z" fill="#bd865e"/><path id="Path_13070" d="M199.37,159.56l-.14-.02s.04-.03,.06-.02c.03,.01,.05,.03,.08,.05h0Z" fill="#bd865e"/><path id="Path_13071" d="M242.49,211.54c-.62,.68-.97,1.57-2.1,1.77-.49,.09-.67,1.25-1.59,.7-.02-.03-.04-.07-.05-.1,.89-.63,.7-1.78,1.25-2.57h0c.24,.51,.84,.74,1.36,.5,.06-.03,.12-.06,.17-.1,.27-.21,.62-.29,.95-.2Z" fill="#bd865e"/><path id="Path_13072" d="M242.23,207.32c-.93-.11-.49-.66-.32-1.07,.09-.24,.41-.26,.61-.19s.48,.27,.49,.43c.03,.51-.36-.17-.47,.13-.09,.24-.21,.47-.32,.71h0Z" fill="#bd865e"/><path id="Path_13073" d="M242.22,207.32c.07,.13,.18,.27,.04,.41-.06,.02-.13,.01-.18-.02-.1-.18,.05-.28,.15-.39h0Z" fill="#bd865e"/><path id="Path_13074" d="M239.18,204.07l.02-.13s.03,.04,.02,.06c-.01,.03-.03,.05-.04,.07h0Z" fill="#bd865e"/><path id="Path_13075" d="M241.27,202.19l.02,.11v-.11h-.02Z" fill="#bd865e"/><path id="Path_13076" d="M240,211.35v0h0Z" fill="#bd865e"/><path id="Path_13077" d="M214.91,204.86l.29,.38c-.14,.03-.33,.12-.39,.06-.2-.17-.01-.31,.11-.44Z" fill="#bd865e"/><path id="Path_13078" d="M217.27,207.36l.08,.05-.09,.1s-.03-.06-.04-.09c0-.02,.03-.04,.05-.06Z" fill="#bd865e"/><path id="Path_13079" d="M219.17,208.96l.02,.11-.02-.11h0Z" fill="#bd865e"/><path id="Path_13080" d="M210.96,198.49h0Z" fill="#bd865e"/><path id="Path_13081" d="M210.54,197.93l-.1,.02h.1v-.02Z" fill="#bd865e"/><path id="Path_13082" d="M236,180.14c.2,.47-.11,.53-.31,.26-.68-.71-1.39-1.38-2.14-2.02-.39-.41,.08-.88,.53-1.15l.32,.05h.16l-.16-.05-.32-.04c-.34-.23-.91-.29-.65-.94,.07-.19-.1-.48,.27-.54,.3-.05,.36,.13,.51,.33,.48,.69,1.69,1,1.08,2.23-.02,.04,.18,.28,.29,.29,1.52,.17,.61,.97,.42,1.58l-.11,.02h.11Z" fill="#d9a67d"/><path id="Path_13083" d="M231.21,186.68c.67,.67,1.19,1.29,.33,2.17-.38,.39-.31,.95,.12,1.53-1.49-.73-1.46-.71-.8-2.06,.18-.53,.29-1.09,.34-1.65Z" fill="#955f3e"/><path id="Path_13084" d="M240.53,183.48c.53,.32,.95-.95,1.42-.03,.33,.6,.19,1.34-.33,1.78-.23,.21-.5,.41-.79,.08-.2-.23-.39-.41,0-.72,.54-.43-.25-.66-.3-1.12Z" fill="#955f3e"/><path id="Path_13085" d="M237.79,186.41c-.54,.22,.45,.89-.14,.84-.6-.16-1.15-.48-1.59-.91-.2-.15,.05-.42,.22-.35,.49,.2,1.1-.12,1.52,.36v.05Z" fill="#d9a67d"/><path id="Path_13086" d="M234.65,181.45c-.34,.34-.88,.35-1.23,.03-.12-.09-.1-.57,.03-.73,.69-.87,.79,.34,1.24,.39h0l-.05,.33h0Z" fill="#955f3e"/><path id="Path_13087" d="M229.95,185.29c-.61,.47-1.22,.92-1.91,.11-.16-.19-.31-.35-.09-.57,.11-.12,.3-.13,.42-.02,.03,.02,.05,.05,.06,.08,.36,.72,1.11-.08,1.51,.4h0Z" fill="#955f3e"/><path id="Path_13088" d="M228.61,187.78c.4-.27,.81-.71,1.3-.39,.28,.18,.25,.61-.05,.9h.01c-.56-.5-.54,.39-.89,.38h0l-.38-.89h0Z" fill="#955f3e"/><path id="Path_13089" d="M232.1,185.16c.07,0,.27,0,.27,.01,.03,.81,.48,.85,1.1,.65,.06-.02,.26,.2,.28,.32,.04,.28-.21,.09-.32,.15-.79,.42-1.2,.04-1.46-.69-.06-.16,0-.34,.13-.44Z" fill="#955f3e"/><path id="Path_13090" d="M245.65,183.77c.29,.34-.02,.49-.22,.63-.18,.12-.39,.53-.63,.07-.15-.27-.35-.6-.08-.86,.33-.32,.64,0,.94,.16Z" fill="#955f3e"/><path id="Path_13091" d="M231.47,191.17c-.09,.08-.18,.15-.27,.21-.27,.17-.53,.52-.89,.15-.18-.13-.21-.38-.08-.56,.01-.02,.03-.03,.04-.05,.33-.36,.61-.12,.9,.08,.09,.06,.2,.11,.3,.17h0Z" fill="#955f3e"/><path id="Path_13092" d="M252,178.86l.43,.55c-.39,.32-.78,.47-1.17,0l.75-.56Z" fill="#d9a67d"/><path id="Path_13093" d="M234.69,181.12c.35-.02,.52,.25,.72,.45-.03,.1-.08,.18-.17,.24-.34,.13-.43-.19-.6-.37h0l.05-.33h0Z" fill="#955f3e"/><path id="Path_13094" d="M225.95,190.2c0,.13-.02,.25-.07,.37-.05,.1-.17,.14-.27,.09-.04-.02-.08-.06-.09-.1-.11-.1-.11-.27,0-.38l.02-.02c.12-.1,.25-.16,.43,.03Z" fill="#955f3e"/><path id="Path_13095" d="M246.78,191.29c.02,.22,.08,.45-.17,.58-.06,0-.13-.02-.17-.07-.07-.29,.21-.35,.34-.51h0Z" fill="#d9a67d"/><path id="Path_13096" d="M228.61,187.77c-.15,.08-.31,.21-.46,0-.01-.03,0-.07,.01-.1,.2-.17,.32,0,.44,.12h0Z" fill="#955f3e"/><path id="Path_13097" d="M226.94,188.82l-.11,.18c-.06-.04-.16-.07-.17-.11s.06-.12,.1-.18l.18,.11Z" fill="#955f3e"/><path id="Path_13098" d="M228.98,188.66l.24,.47s-.08,.02-.11,0c-.16-.1-.22-.31-.13-.47h0Z" fill="#955f3e"/><path id="Path_13099" d="M242.41,185.36h-.22c0-.07,.02-.12,.04-.18,0-.02,.09-.02,.1,0,.03,.06,.06,.12,.08,.18Z" fill="#955f3e"/><path id="Path_13100" d="M229.86,188.28l.1,.4h-.16l.08-.4h-.01Z" fill="#955f3e"/><path id="Path_13101" d="M229.95,185.3l.29,.09c-.18,.22-.19-.06-.29-.1h0Z" fill="#955f3e"/><path id="Path_13102" d="M240.33,184.26l.07,.05s-.04,.05-.06,.08c0,0-.04-.03-.06-.04l.06-.08Z" fill="#955f3e"/><path id="Path_13103" d="M237.81,186.36c.1,.04,.2,.08,.3,.12,0,.04-.01,.07-.03,.11l-.29-.18v-.05Z" fill="#d9a67d"/><path id="Path_13104" d="M240.42,178.25l.02,.11v-.1h-.02Z" fill="#955f3e"/><path id="Path_13105" d="M238.88,177.39c.05,.06,.09,.11,.14,.16-.06-.02-.12-.04-.17-.06l.03-.1Z" fill="#955f3e"/><path id="Path_13106" d="M239.2,187.1l-.14-.04h.15v.04Z" fill="#955f3e"/><path id="Path_13107" d="M250.43,179.11l-.72,.58c-.13-.95-.55-1.11-1.29-.5-.22,.18-.44,.54-.77,.29-.13-.1-.07-.43-.1-.66-.06-.51,.3-.42,.6-.43,.11-.01,.22-.04,.33-.09,1.45-.57,1.46-.56,1.95,.81Z" fill="#955f3e"/><path id="Path_13108" d="M220.07,175.81c.39-.25,.71-.29,.95,.08,.15,.17,.18,.42,.07,.61-.74-.6-.67,1.29-1.36,.46-.26-.31,.06-.85,.34-1.16Z" fill="#955f3e"/><path id="Path_13109" d="M222.96,173.71l.18,.04-.07,.25c-.06-.03-.14-.05-.16-.1s.03-.11,.05-.19Z" fill="#d9a67d"/><path id="Path_13110" d="M248.66,186.57l.08,.05-.09,.1s-.03-.05-.04-.08c0-.02,.03-.04,.05-.06Z" fill="#bd865e"/><path id="Path_13111" d="M203.46,166.12c-.47-.34-.76-.87-.81-1.45,.47,.03,.93,.34,1.02-.62,.1-1.05,.98-1.03,2.16,.01,.35-.33-.64-1.12,.42-1.22,.41-.04,.65,.06,.4,.49-.52,.91-.06,1.33,.95,1.64-1.46,.75-1.7,2.77-3.64,2.83-.08-.56,.74-.41,.66-1.05-.2-.23-.89,.14-1.02-.45h0c.09-.17,.05-.23-.14-.19h0Z" fill="#d9a67d"/><path id="Path_13112" d="M212.62,160.02c-1.23,.14-2.09-.73-3.44-.65,1.68-.96,2.69-.74,3.44,.65Z" fill="#d9a67d"/><path id="Path_13113" d="M207.41,171.65c-.77,.64-1.18-.39-1.79-.22-.02-.18-.24-.33-.08-.52,.66-.12,1.33-.12,1.98-.01,.33,.38,.14,.61-.11,.76Z" fill="#d9a67d"/><path id="Path_13114" d="M221.89,163.14c.09-.78,.08-1.57-.02-2.35,1.11,.28,1.13,1.03,.02,2.35Z" fill="#d9a67d"/><path id="Path_13115" d="M208.59,173.98c-.19,1.06-.67,.47-1.1,.2,.33-.21,.72-.28,1.1-.2Z" fill="#d9a67d"/><path id="Path_13116" d="M217.56,158.09c.18-.01,.51-.68,.51,.08-.05,.27-.03,.55,.06,.81-.49-.2-.49-.57-.56-.9h0Z" fill="#d9a67d"/><path id="Path_13117" d="M209.83,173c-.18,.56-.4,1.07-1.15,.89,.27-.45,.76-.61,1.15-.89Z" fill="#d9a67d"/><path id="Path_13118" d="M209.21,171.72c.25,.07,.47,.24,.61,.46-.25,.18-.6,.13-.79-.12-.03-.04,.12-.23,.18-.34Z" fill="#d9a67d"/><path id="Path_13119" d="M202.42,166.31c.17-.16,.44-.15,.6,.02,.02,.02,.04,.05,.06,.07-.16,.16-.43,.16-.59,0-.03-.03-.05-.06-.07-.09Z" fill="#d9a67d"/><path id="Path_13120" d="M203.08,166.41l.38-.28h0l.14,.19h0c-.13,.15-.34,.18-.51,.09Z" fill="#d9a67d"/><path id="Path_13121" d="M226.89,152.58c.06,.01,.11,.03,.17,.05-.01,.08-.03,.17-.06,.25-.06-.03-.14-.05-.16-.1s.02-.11,.05-.2Z" fill="#d9a67d"/><path id="Path_13122" d="M227.68,153.66l-.34-.05,.34,.05Z" fill="#d9a67d"/><path id="Path_13123" d="M224.53,167.11c-.02,.13-.04,.26-.06,.39-.16-.11-.24-.31-.19-.5l.25,.11Z" fill="#d9a67d"/><path id="Path_13124" d="M218.27,203.5c-.18-.3-.56-.53-.35-1.04,.45,.26,.41,.64,.34,1.04h.01Z" fill="#bd865e"/><path id="Path_13125" d="M216.93,197.49l-.14-.03h.14v.03Z" fill="#bd865e"/><path id="Path_13126" d="M236,180.14h0Z" fill="#bd865e"/><path id="Path_13127" d="M234.4,177.22l.16,.05c-.05,0-.11,0-.16,0v-.05Z" fill="#bd865e"/><path id="Path_13128" d="M234.08,177.18l.32,.04v.05l-.33-.05v-.04Z" fill="#bd865e"/><path id="Path_13129" d="M234.7,181.12l-.05,.33,.05-.33Z" fill="#bd865e"/><path id="Path_13130" d="M203.59,166.31l-.14-.19c.19-.05,.23,.02,.14,.19Z" fill="#bd865e"/><circle id="Ellipse_1651" cx="212.08" cy="168.14" r="1.42" fill="#1d130e"/><circle id="Ellipse_1652" cx="219.64" cy="164.16" r="1.42" fill="#1d130e"/><path id="Path_13131" d="M226.19,168.69c.47,.99,.66,2.08,.56,3.17-.24,1.14-.88,2.16-1.81,2.88-1.79,1.7-3.97,2.93-6.35,3.58-1.51,.43-3.05,.85-4.58,.26-1.3-.54-2.32-1.59-2.83-2.9-.55-1.25-.58-2.67-.1-3.95,.24-.72,.61-1.39,1.08-1.99,.57-.7,.97-1.53,1.53-2.24,.9-1.15,2.17-1.95,3.6-2.27,1.68-.37,3.14,.24,4.75,.5,1.79,.26,3.34,1.36,4.16,2.96Z" fill="#d9a67d"/><path id="Path_13132" d="M221.18,168.82c.43,.87-.1,1.63-.58,2.32-.49,.89-1.36,1.51-2.37,1.67-1,.1-2.64,.06-3.15-.98-.54-1.09,.39-2.65,2.08-3.48s3.48-.61,4.02,.48Z" fill="#6c4328"/><path id="Path_13133" d="M223.24,172.23c.18,.48,.03,1.02-.37,1.34-.41,.35-.95,.52-1.49,.48-.49-.05-.95-.25-1.32-.58-.34-.32-.63-.68-.86-1.09l-.09,.05c.21,.41,.36,.86,.44,1.31,.07,.49-.01,.98-.24,1.42-.26,.48-.7,.83-1.22,.98-.49,.16-1.02,0-1.32-.42" fill="none" stroke="#6c4328" stroke-dasharray="0 0 .27 .39" stroke-linecap="round" stroke-linejoin="round" stroke-width=".39"/><path id="Path_13134" d="M214.94,182.59c-.46,.25-.26,.98,.08,1.41s.79,.91,.61,1.42c-.13,.38-.56,.55-.83,.84s-.2,.96,.2,.91c.64-.18,1.09-.74,1.14-1.4,.31-.19,.74,.07,.87,.42,.1,.36,.09,.73-.02,1.09-.11,.35-.12,.73-.03,1.09,.29,.57,.99,.79,1.55,.5,.1-.05,.2-.12,.28-.2,.47-.6,.47-1.45-.01-2.05-.27-.27-.5-.57-.68-.9-.14-.35,.03-.86,.4-.86,.34,0,.53,.38,.76,.63,.53,.51,1.37,.5,1.89-.03,.11-.11,.2-.25,.26-.39,.08-.38,.12-.77,.11-1.17,0-.4,.22-.77,.57-.95,.37-.13,.85,.3,.65,.63,.43,.15,.83-.31,.91-.75,0-.45,.04-.9,.1-1.35,.16-.52,.63-.89,1.17-.92,.56-.03,.63,.33,1.08,.52,.19,.09,.42,.03,.53-.15,.11-.23-.08-.5-.29-.64-.23-.11-.44-.27-.6-.46-.12-.27-.1-.58,.04-.84,.14-.26,.22-.54,.21-.83-.04-.29-.36-.57-.61-.43s-.21,.5-.16,.78c.06,.24-.01,.5-.19,.68-.05-.07-.31-.2-.39-.31-.32,.27-.38,.76-.68,1.08-.3,.36-.8,.47-1.22,.27-.4-.34-.57-.89-.42-1.39-.5-.2-.93,.42-1.04,.95s-.26,1.19-.79,1.3c-.44,.09-.83-.3-1.17-.62s-.89-.57-1.21-.26-.08,.89,.2,1.27,.56,.92,.27,1.28c-.34-.12-1.1-.55-1.43-.49s-.17,.24-.38,.32c-.28,.11-.23,.2-.66,.19-.38-.01-.67-.4-1.08-.18Z" fill="#bd865e"/><path id="Path_13135" d="M219.47,183.13c-.53,.52-2.06,.4-2.71,.3-.27-.04-.59-.05-.76,.16-.13,.23-.09,.52,.11,.69,.15,.15,.47,.28,.25,.53-.08,.07-.16,.14-.25,.2-.09,.07-.13,.18-.1,.29,.07,.17,.62,.13,.81,.24,.31,.19,.52,.51,.59,.87,.05,.24,.04,.97,.52,.66,.39-.25-.31-1.34-.29-1.73,.02-.4,.18-.79,.46-1.08,.56-.39,1.37,.37,1.88-.09,.33-.3,.19-.84,.38-1.24,.21-.44,.7-.45,.97-.8,.39-.5-.52-.42-.77-.47-.38-.08-1.11-.33-1.14,.31-.02,.43,.54,.7,.06,1.18Z" fill="#d9a67d"/></g><g id="Group_2454"><g id="Group_2453"><path id="Path_13137" d="M240.39,161.94c-.79,.79-1.87,.73-2.81,1.21-2.86,1.46-4.84,4.96-6.05,7.81-.51,1.21-.61,2.74-1.49,3.76-.66,.76-1.28,1.5-1.93,2.28-3.3,3.87-7.39,6.99-12,9.15-2.48,1.24-4.77,2.82-6.83,4.68-2.25-5.16-4.8-10.23-8.55-14.4-2.54-2.83-4.52-5.94-7.61-7.99s-5.85-1.12-8.97,.4c-5.43,2.64-10.63,8.43-7.64,14.44,5.89,11.84,15.68,20.43,25.2,28.64,2.31,2.06,5.38,3.07,8.46,2.77,2.62-.24,4.6-2.18,6.88-3.26,2.21-1.07,4.19-2.57,5.82-4.42,4.9-5.41,9.29-11.27,13.09-17.5,.9-1.34,1.93-2.58,3.07-3.72,.88-.92,1.89-2.24,3.14-2.56,.91-.31,1.79-.71,2.62-1.19,.93-.46,1.85-.95,2.75-1.47,1.99-1.09,3.87-2.37,5.6-3.83,1.49-1.35,4.54-4.33,2.96-6.54-.39-.41-.84-.75-1.34-1.01-.02-.02-.08-.03-.1-.04-.75-.75-1.15-1.91-1.92-2.6s-1.96-.82-2.62-1.53c-.46-.49-.63-1.19-1.12-1.66-.52-.5-1.18-.82-1.89-.92-.52-.07-.83-.03-1.23-.45s-.53-.85-1.06-1.12c-.45-.27-.96-.4-1.48-.38-.67,.04-1.33,.24-1.91,.57-.39,.25-.74,.55-1.05,.89Z" fill="#f7d5a7"/></g><path id="Path_13138" d="M209.4,190.36c-1.47,2.73-2.5,5.68-3.04,8.73" fill="none" stroke="#b99f7c" stroke-linecap="round" stroke-miterlimit="10" stroke-width=".37"/></g><g id="Group_2460"><g id="Group_2455"><path id="Path_13139" d="M204.05,176.53c.12-.29,.19-.59,.21-.9-.07-.97-.44-1.89-1.06-2.64-.66-.94-1.44-1.8-2.32-2.54-1.59-1.4-3.41-2.52-4.99-3.92-4.15-3.66-7.47-8.79-11.15-12.95-1.3-1.49-2.74-2.87-4.29-4.1,2.49,5.54,5.83,10.66,9.9,15.17,2.25,2.5,4.65,4.87,7.11,7.18,.56,.52,1.11,1.04,1.68,1.56,.55,.45,1.06,.94,1.54,1.47,.46,.49,.9,1,1.31,1.53,.19,.3,.36,.61,.5,.93,.04,.09,.4,.85,.33,.9,.54-.46,.96-1.04,1.24-1.69Z" fill="#a6cae1"/></g><g id="Group_2459"><g id="Group_2456"><path id="Path_13140" d="M168.56,146.49c-4.03,.3-7.78,2.18-10.42,5.24-2.91,3.21-4.24,7.56-3.61,11.85,.67,4.98,3.6,8.83,6.34,12.83,2.5,3.66,5.25,7.13,8.02,10.57,2.53,3.14,4.85,6.36,8.5,8.27,1.33,.76,2.89,1,4.38,.68,2.5-.66,4.37-3.2,6.17-4.87,4.75-4.4,10.19-7.34,14.52-12.23,.75-.87,1.29-1.9,1.55-3.02,.58-2.1-4.36-4.91-5.64-6-3.21-2.56-6.2-5.39-8.94-8.45-2.32-2.76-3.56-6.21-6.03-8.95-3.63-4.35-9.21-6.58-14.84-5.93Z" fill="#bed7ea"/></g><path id="Path_13141" d="M164.43,148.51c-2.91,9.09,2.08,18.24,7.04,25.49,3.97,5.82,8.99,10.83,14.81,14.79" fill="none" stroke="#cadfee" stroke-linecap="round" stroke-miterlimit="10" stroke-width=".42"/><g id="Group_2457"><circle id="Ellipse_1655" cx="160.38" cy="155.68" r="1.86" fill="none" stroke="#b0bfc8" stroke-miterlimit="10" stroke-width=".54"/><circle id="Ellipse_1656" cx="160.38" cy="155.68" r="1.86" fill="none" stroke="#dfe5e9" stroke-miterlimit="10" stroke-width=".27"/></g><g id="Group_2458"><circle id="Ellipse_1657" cx="166.52" cy="172.31" r="1.86" fill="none" stroke="#b0bfc8" stroke-miterlimit="10" stroke-width=".54"/><circle id="Ellipse_1658" cx="166.52" cy="172.31" r="1.86" fill="none" stroke="#dfe5e9" stroke-miterlimit="10" stroke-width=".27"/><circle id="Ellipse_1659" cx="180.66" cy="188.63" r="1.86" fill="none" stroke="#b0bfc8" stroke-miterlimit="10" stroke-width=".54"/><circle id="Ellipse_1660" cx="180.66" cy="188.63" r="1.86" fill="none" stroke="#dfe5e9" stroke-miterlimit="10" stroke-width=".27"/></g></g></g><path id="Path_13142" d="M170.02,93.13c.32-.04,.64-.1,.95-.19,1.28-.29,2.37-1.11,3.01-2.26,.02,.64-.22,1.27-.66,1.73-1.09,1.21-3.05,1.58-4.6,1.8-.88,.15-1.75,.37-2.59,.68-.11,.05-.24,.07-.36,.08-.13,0-.24-.06-.32-.16-.07-.17-.03-.36,.1-.49,.57-.54,1.31-.86,2.09-.92,.78-.16,1.58-.18,2.37-.28Z" fill="#0f0f15" stroke="#0f0f15" stroke-miterlimit="10" stroke-width=".31"/><path d="M331,180.81c-7.51-.75-15.03-1.35-22.62-1.6-7.36-.24-14.72-.26-22.08-.07-3.5,.09-7.35,.76-10.82,.39-2.93-.35-5.87-.54-8.81-.57-3.73,.04-7.54,.22-11.01,1.59-10.27,4.06-16.85,17.13-19.33,27.17-4.34,17.5-9.2,37.17-8.9,55.18,.18,10.65-3,33.27,7.96,40.17,8.23,5.19,23.21,1.48,32.43,1.77l47.14,1.5c5.34,.17,10.69,.34,16.04,.5v-126.03Z" fill="#edf4f9"/><rect x="186.22" y="305.33" width="140.59" height="16.5" fill="#adadad" stroke="#adadad" stroke-linecap="round" stroke-width="8.06"/><rect x="173.51" y="305.33" width="145.02" height="16.5" fill="#adadad" stroke="#adadad" stroke-linecap="round" stroke-linejoin="round" stroke-width="8.18"/></g></svg>