<?xml version="1.0" encoding="UTF-8"?>
<svg id="b" data-name="Layer 2" xmlns="http://www.w3.org/2000/svg" viewBox="0 0 331 278">
  <g id="c" data-name="Layer 1">
    <rect id="d" data-name="Rectangle 378" width="331" height="278" fill="#dcb088"/>
    <rect width="331" height="278" fill="none"/>
    <path id="e" data-name="Path 3684" d="m165.1,257.91c15.68.22,31.33-1.43,46.61-4.92,14.71-3.41,29.08-9.73,39.87-20.29,16.46-16.12,22.77-41.17,18.2-63.76s-19.18-42.49-38.04-55.73c-18.24-12.81-42.3-22.1-64.83-22.1-21.92,0-46.31,8.77-64.35,20.98-19.08,12.91-34.05,32.55-39.01,55.05s.91,47.66,17.09,64.06c10.6,10.75,24.86,17.32,39.51,20.98,14.72,3.64,29.8,5.56,44.96,5.72Zm2.01-166.71v1.65c-.26-.79-.28-1.37,0-1.65h0Z" fill="#bf5865"/>
    <path id="f" data-name="Path 12938" d="m91.14,164.29c4.31-4.56-1.09-12.36.31-18.63,1.09-4.89,5.98-7.56,10.35-9.6,19.57-9.11,4.22,12.68,17,24.04,3.79,3.37,8.65,5.33,12.01,9.17,2.97,3.4,5.46,9.64,4.76,14.38-.84,5.66-4.81,5.36-8.72,8.18-3.28,2.37-3.4,7.33-3.12,11.5.57,8.51-3.17,15.98-10.6,19.91-4.57,2.42-9.89,2.56-14.99,2.4-8.76-.27-18.1-1.55-24.76-7.55-8.64-7.78-13.08-28.16-11.07-39.88,3.64-21.2,20.42-5.02,28.83-13.93Z" fill="#fff6ee"/>
    <path id="g" data-name="Path 12939" d="m202.39,173.64c2.96,5.73,12.54,3.81,16.7,8.74,3.92,4.65.52,11.6.48,17.68-.08,12.52,13.13,24.74,24.43,27.62,5.29,1.35,11.3.9,15.63-2.42,5.26-4.03,6.92-11.16,7.53-17.75,1.62-17.58-1.58-35.27-9.27-51.17-2.04-4.2-4.45-8.33-7.99-11.36-4.25-3.63-9.37-3.38-13.93-5.33-3.8-1.63-6.42-4.5-10.78-5.38-8.02-1.61-14.25,1.8-10.48,10.6,2.34,5.45,2,8.32-2.55,12.66-4.08,3.9-13.48,8.93-9.77,16.11Z" fill="#fff6ee"/>
    <path id="h" data-name="Path 3687" d="m89.93,252.91c.32,0,.65.02.97.03,3.88.22,7.84,0,11.72,0h121.95c10.73,0,19.42.62,29.13,3.07,8.43,2.13,15.8,2.1,23.22-3.35,7.59-5.58,12.29-14.2,16.31-22.72,8.6-18.21,15.37-38.01,13.85-58.09-.95-12.62-5.16-24.8-10.44-36.3-13.68-29.75-35.34-56.29-63.54-72.94s-63.11-22.75-94.55-13.61c-32.9,9.56-59.11,34.19-81.9,59.78-14.94,16.77-29.56,35.55-32.52,57.81-2.97,22.39,6.34,44.37,15.45,65.04,3.79,8.59,8.24,17.88,16.76,21.81,1.7.77,3.49,1.31,5.33,1.63,9.34,1.7,19.6-2.32,28.26-2.16Zm-7.96-97.97l.21-.3c14.41-20.63,29.6-43.15,56.39-48.13,10.9-2.02,23.15,2.63,17.6,15.7-1.94,4.57-5.37,8.34-7.74,12.71s-3.54,9.99-.82,14.15c2.78,4.25,8.97,5.35,13.6,3.27s7.74-6.67,9.24-11.52,1.6-10,1.68-15.07c.52-33.51,36.06-18.11,53.04-5.73,14.38,10.54,25.16,25.25,30.89,42.14,4.82,14.33,12.71,82.05-16.51,75.91-10.65-2.24-15.02-11.5-26.24-10.24-12.65,1.41-25.17,1.18-37.86,1.18h-.52c-16.21.06-32.41.09-48.62.4-6.66.12-13.35-.45-19.49,2.09-4.77,1.97-7.82,6.24-13.33,7.44-4.87,1.06-10.6-.2-13.4-4.32-1.46-2.15-1.96-4.78-2.44-7.34-4.31-23.26-10.08-51.11,4.33-72.33h0Z" fill="#f28393"/>
    <path id="i" data-name="Path 3688" d="m266.06,114.15c-2.41-.05-4.81-.41-7.14-1.05-3.97-1.25-7.4-3.82-9.71-7.28-.67-1-4.5-8.27-2-8.96-3.98,1.08-8.05,2.14-12.17,1.92s-8.37-1.92-10.69-5.33c-2.71-3.97-2.29-9.21-1.76-13.99.18,3.61-.09,7.23-.81,10.78-.74,3.58-2.8,6.74-5.77,8.87-3.37,2.19-7.63,2.33-11.65,2.39l-13.49.23c-6.1.1-12.94-.07-17.24-4.41-4.81-4.86-5.06-13.47-4.22-20.25.6,5.07.46,10.39-1.69,15.01-4.3,9.26-14.7,9.23-23.6,8.93-4.59-.16-9.61-.07-14.14-.65-4.76-.66-9.09-3.08-12.16-6.77-3.28-3.93-2.59-9.5-3.96-14.15,2.2,7.05-1.31,15.75-7.86,18.98-5.47,2.69-18.18,2.03-19.98-5.78,2.85,12.35-11.4,24.96-23.32,20.64-1.14-.31-2.33-.44-3.51-.37-.23-7.25,4.92-13.49,10.18-18.49,24.84-23.59,58.95-36.52,93.18-37.69s68.42,9.02,97.75,26.7c4.33,2.61,8.62,5.44,11.85,9.32,4.05,4.88,5.71,10.99,3.69,16.99-.49,1.67-1.63,3.08-3.16,3.91-1.45.55-3,.74-4.54.57-.69-.03-1.4-.05-2.1-.08Z" fill="#fff"/>
    <path id="j" data-name="Path 3689" d="m78.33,64.23c8-8.83,16.46-17.27,25.33-24.13,9.24-7.13,20.8-11.93,32.42-10.85,10.49.98,20.22,6.6,30.75,6.89,10.62.29,20.69-4.9,31.3-5.61,17.36-1.16,33.16,9.65,46.13,21.26,25.92,23.19,47.02,51.5,63.45,82.16,9.59,17.88,12.81,40.36,6.13,59.64-6.18,17.83-13.09,35.43-19.19,53.34-2.01,5.89-9.53,12.37-12.5,4.16-2-5.53,6.29-22.08,7.95-27.82,5.45-18.79,10.55-38.23,9.33-57.98-1.11-17.92-17.15-41.13-29.36-53.77-18.77-19.43-38.77-37.95-66.89-41.93-12.09-1.71-23.06,2.97-34.72,2.16-15.11-1.06-24.74-3.84-39.61-.05-12.37,3.16-24.55,6.92-34.88,14.72-21.62,16.35-44.23,35.81-57.7,60.12-10.82,19.52-8.95,39.5-2.56,60.06,2.78,8.94,5.6,17.85,10.03,25.79,1.12,2.01,10.57,31.83,5.23,31.73l-5.08-.09c-9.19-23.26-18.77-46.45-26.63-70.07-4.58-13.77-6.12-25.18-.61-38.7,9.56-23.38,22.71-45.13,38.96-64.46,7.08-8.42,14.66-17.69,22.71-26.58Z" fill="#f6b1b9"/>
    <path id="k" data-name="Path 3932" d="m190.5,192.79c-5.02,7.95-14.83,13.16-24.88,13.21s-19.95-5.07-25.12-12.97" fill="none" stroke="#204c68" stroke-linecap="round" stroke-linejoin="round" stroke-width="2"/>
    <path id="l" data-name="Path 3933" d="m138.65,188.98l9.48,1.71c.69.12,1.15.79,1.03,1.48-.05.29-.21.56-.44.75l-9.48,7.92c-.54.45-1.34.38-1.79-.16-.19-.23-.3-.52-.3-.82v-9.63c0-.7.57-1.27,1.27-1.27.08,0,.15,0,.23.02Z" fill="#204c68"/>
    <path id="m" data-name="Path 3934" d="m192.35,188.98l-9.48,1.71c-.69.13-1.15.79-1.03,1.48.05.29.21.56.44.75l9.48,7.92c.54.45,1.34.38,1.79-.16.19-.23.3-.52.3-.82v-9.63c0-.7-.57-1.27-1.27-1.27-.08,0-.15,0-.23.02Z" fill="#204c68"/>
    <path d="m299.96,278c2.35-11.28,2.69-22.67-1.7-32.74-8.11-18.6-22.9-25.8-40.33-32.96-17.52-7.2-34.68-10.16-53.72-7.31-16.5,2.47-32.81,8.55-49.4,6.76-10.69-1.15-20.82-5.54-31.5-6.78-14.17-1.64-31.08,3.03-46.02,10.15-8.23,3.88-16.01,8.64-23.22,14.2-17.08,13.41-17.21,31.04-12.78,48.68h258.68Z" fill="#f28991"/>
    <g id="n" data-name="thanks scabs " isolation="isolate">
      <g isolation="isolate">
        <path d="m95.24,243.3c.05-.53.31-.82.84-.82h.77c.53,0,.79.29.82.82l.5,10.68c.05.53-.29.82-.82.82h-1.8c-.53,0-.86-.29-.82-.82l.5-10.68Zm1.22-2.71c-.98,0-1.66-.67-1.66-1.66s.67-1.63,1.66-1.63,1.63.67,1.63,1.63-.67,1.66-1.63,1.66Z" fill="#214b68"/>
        <path d="m107.99,252.63c0,2.14-1.18,3.17-3.74,3.17h-1.51c-.53,0-.82-.29-.82-.82v-.46c0-.53.29-.84.82-.84h1.51c.74,0,1.03-.38,1.03-1.13v-2.5c-.7.67-1.63,1.06-2.47,1.06-1.18,0-2.16-.74-2.16-2.52v-8.78c0-1.78.98-2.52,2.16-2.52.84,0,1.78.38,2.47,1.06v-.12c0-.53.29-.82.82-.82h1.08c.53,0,.82.29.82.82v14.4Zm-4.61-4.87c0,.77.26,1.06.91,1.06s.98-.31.98-1.08v-7.06c0-.77-.34-1.1-.98-1.1s-.91.31-.91,1.06v7.13Z" fill="#214b68"/>
        <path d="m117.25,242.86c0,.5-.29.82-.82.82h-1.08c-.53,0-.82-.31-.82-.82v-2.23c0-.74-.29-1.06-.94-1.06s-.96.34-.96,1.1v9.5c0,.5-.31.82-.84.82h-1.06c-.53,0-.84-.31-.84-.82v-11.95c0-.53.31-.82.84-.82h1.06c.53,0,.84.29.84.82v.12c.67-.67,1.61-1.06,2.45-1.06,1.18,0,2.16.74,2.16,2.52v3.05Z" fill="#214b68"/>
        <path d="m123.32,243.06v-2.59c0-.77-.31-1.06-.96-1.06s-.94.29-.94,1.06v.55c0,.53-.31.82-.84.82h-1.06c-.53,0-.84-.29-.84-.82v-.62c0-2.09,1.18-3.1,3.67-3.1s3.67,1.01,3.67,3.1v9.79c0,.5-.29.82-.82.82h-1.08c-.53,0-.82-.31-.82-.82v-.12c-.7.67-1.63,1.06-2.47,1.06-1.18,0-2.16-.74-2.16-2.52v-2.45c0-2.09,1.18-3.1,3.67-3.1h.96Zm-.96,2.04c-.62,0-.94.31-.94,1.06v1.61c0,.77.26,1.06.91,1.06s.98-.31.98-1.08v-2.64h-.96Z" fill="#214b68"/>
        <path d="m135.3,242.1c0,.53-.29.82-.82.82h-1.08c-.53,0-.82-.29-.82-.82v-1.63c0-.77-.31-1.06-.96-1.06s-.94.29-.94,1.06v7.49c0,.74.31,1.06.94,1.06s.96-.31.96-1.06v-1.63c0-.53.29-.84.82-.84h1.08c.53,0,.82.31.82.84v1.7c0,2.11-1.18,3.1-3.67,3.1s-3.67-1.01-3.67-3.12v-7.61c0-2.09,1.18-3.1,3.67-3.1s3.67,1.01,3.67,3.1v1.71Z" fill="#214b68"/>
        <path d="m138.59,232.64c.94,0,1.61.67,1.61,1.61s-.67,1.61-1.61,1.61-1.61-.65-1.61-1.61.65-1.61,1.61-1.61Zm1.37,17.52c0,.53-.31.84-.84.84h-1.06c-.53,0-.84-.31-.84-.84v-11.93c0-.53.31-.82.84-.82h1.06c.53,0,.84.29.84.82v11.93Z" fill="#214b68"/>
        <path d="m146.51,243.06v-2.59c0-.77-.31-1.06-.96-1.06s-.94.29-.94,1.06v.55c0,.53-.31.82-.84.82h-1.06c-.53,0-.84-.29-.84-.82v-.62c0-2.09,1.18-3.1,3.67-3.1s3.67,1.01,3.67,3.1v9.79c0,.5-.29.82-.82.82h-1.08c-.53,0-.82-.31-.82-.82v-.12c-.7.67-1.63,1.06-2.47,1.06-1.18,0-2.16-.74-2.16-2.52v-2.45c0-2.09,1.18-3.1,3.67-3.1h.96Zm-.96,2.04c-.62,0-.94.31-.94,1.06v1.61c0,.77.26,1.06.91,1.06s.98-.31.98-1.08v-2.64h-.96Z" fill="#214b68"/>
        <path d="m154.64,251.12c-2.52,0-3.67-.98-3.67-3.1v-1.1c0-.53.29-.84.82-.84h1.08c.53,0,.82.31.82.84v1.03c0,.74.31,1.06.96,1.06s.94-.31.94-1.06c0-.98-.14-1.2-.98-1.97l-1.99-1.82c-1.22-1.1-1.63-1.85-1.63-3.77,0-2.09,1.15-3.1,3.67-3.1s3.67,1.01,3.67,3.1v1.1c0,.53-.31.82-.84.82h-1.06c-.53,0-.84-.29-.84-.82v-1.03c0-.77-.31-1.06-.94-1.06s-.96.29-.96,1.06c0,.98.14,1.18.98,1.97l1.99,1.82c1.22,1.1,1.66,1.85,1.66,3.77,0,2.09-1.18,3.1-3.67,3.1Z" fill="#214b68"/>
        <path d="m162.15,253.54c-.14.5-.41.7-.82.7h-.36c-.5,0-.84-.31-.79-.91l.31-5.16c.05-.53.38-.74.84-.74h1.58c.65,0,.94.48.77,1.08l-1.54,5.04Z" fill="#214b68"/>
        <path d="m178.18,242.1c0,.53-.29.82-.82.82h-1.08c-.53,0-.82-.29-.82-.82v-1.63c0-.77-.31-1.06-.96-1.06s-.94.29-.94,1.06v7.49c0,.74.31,1.06.94,1.06s.96-.31.96-1.06v-1.63c0-.53.29-.84.82-.84h1.08c.53,0,.82.31.82.84v1.7c0,2.11-1.18,3.1-3.67,3.1s-3.67-1.01-3.67-3.12v-7.61c0-2.09,1.18-3.1,3.67-3.1s3.67,1.01,3.67,3.1v1.71Z" fill="#214b68"/>
        <path d="m187.45,240.39v7.63c0,2.09-1.18,3.1-3.67,3.1s-3.67-1.01-3.67-3.1v-7.63c0-2.09,1.18-3.1,3.67-3.1s3.67,1.01,3.67,3.1Zm-4.61.07v7.49c0,.74.31,1.06.94,1.06s.96-.31.96-1.06v-7.49c0-.77-.31-1.06-.96-1.06s-.94.29-.94,1.06Z" fill="#214b68"/>
        <path d="m192.87,251.12c-2.52,0-3.67-.98-3.67-3.1v-1.1c0-.53.29-.84.82-.84h1.08c.53,0,.82.31.82.84v1.03c0,.74.31,1.06.96,1.06s.94-.31.94-1.06c0-.98-.14-1.2-.98-1.97l-1.99-1.82c-1.22-1.1-1.63-1.85-1.63-3.77,0-2.09,1.15-3.1,3.67-3.1s3.67,1.01,3.67,3.1v1.1c0,.53-.31.82-.84.82h-1.06c-.53,0-.84-.29-.84-.82v-1.03c0-.77-.31-1.06-.94-1.06s-.96.29-.96,1.06c0,.98.14,1.18.98,1.97l1.99,1.82c1.22,1.1,1.66,1.85,1.66,3.77,0,2.09-1.18,3.1-3.67,3.1Z" fill="#214b68"/>
        <path d="m198.99,237.42v-2.98c0-.53.31-.82.84-.82h1.06c.53,0,.84.29.84.82v2.98h1.2c.53,0,.84.29.84.82v.46c0,.53-.31.84-.84.84h-1.2v8.21c0,.77.26,1.15,1.03,1.15h.65c.53,0,.84.29.84.82v.46c0,.53-.31.84-.84.84h-.65c-2.59,0-3.77-1.03-3.77-3.19v-8.28h-.72c-.53,0-.84-.31-.84-.84v-.46c0-.53.31-.82.84-.82h.72Z" fill="#214b68"/>
        <path d="m212.67,242.86c0,.5-.29.82-.82.82h-1.08c-.53,0-.82-.31-.82-.82v-2.23c0-.74-.29-1.06-.94-1.06s-.96.34-.96,1.1v9.5c0,.5-.31.82-.84.82h-1.06c-.53,0-.84-.31-.84-.82v-11.95c0-.53.31-.82.84-.82h1.06c.53,0,.84.29.84.82v.12c.67-.67,1.61-1.06,2.45-1.06,1.18,0,2.16.74,2.16,2.52v3.05Z" fill="#214b68"/>
        <path d="m218.74,243.06v-2.59c0-.77-.31-1.06-.96-1.06s-.94.29-.94,1.06v.55c0,.53-.31.82-.84.82h-1.06c-.53,0-.84-.29-.84-.82v-.62c0-2.09,1.18-3.1,3.67-3.1s3.67,1.01,3.67,3.1v9.79c0,.5-.29.82-.82.82h-1.08c-.53,0-.82-.31-.82-.82v-.12c-.7.67-1.63,1.06-2.47,1.06-1.18,0-2.16-.74-2.16-2.52v-2.45c0-2.09,1.18-3.1,3.67-3.1h.96Zm-.96,2.04c-.62,0-.94.31-.94,1.06v1.61c0,.77.26,1.06.91,1.06s.98-.31.98-1.08v-2.64h-.96Z" fill="#214b68"/>
        <path d="m226.88,251.12c-2.52,0-3.67-.98-3.67-3.1v-1.1c0-.53.29-.84.82-.84h1.08c.53,0,.82.31.82.84v1.03c0,.74.31,1.06.96,1.06s.94-.31.94-1.06c0-.98-.14-1.2-.98-1.97l-1.99-1.82c-1.22-1.1-1.63-1.85-1.63-3.77,0-2.09,1.15-3.1,3.67-3.1s3.67,1.01,3.67,3.1v1.1c0,.53-.31.82-.84.82h-1.06c-.53,0-.84-.29-.84-.82v-1.03c0-.77-.31-1.06-.94-1.06s-.96.29-.96,1.06c0,.98.14,1.18.98,1.97l1.99,1.82c1.22,1.1,1.66,1.85,1.66,3.77,0,2.09-1.18,3.1-3.67,3.1Z" fill="#214b68"/>
        <path d="m235.76,245.1c-.02.53-.29.84-.82.84h-.77c-.53,0-.79-.31-.84-.84l-.5-10.66c-.05-.53.29-.82.82-.82h1.8c.53,0,.86.29.82.82l-.5,10.66Zm-1.2,2.74c.96,0,1.63.67,1.63,1.63s-.67,1.66-1.63,1.66-1.66-.67-1.66-1.66.67-1.63,1.66-1.63Z" fill="#214b68"/>
      </g>
    </g>
  </g>
</svg>