<?xml version="1.0" encoding="UTF-8"?>
<svg id="b" data-name="Layer 2" xmlns="http://www.w3.org/2000/svg" viewBox="0 0 1024 1024">
  <g id="c" data-name="Layer 1">
    <g>
      <rect id="d" data-name="Rectangle 333" x="148.22" y="77.47" width="727.55" height="934.53" rx="47.78" ry="47.78" fill="#bc855e"/>
      <rect id="e" data-name="Rectangle 334" x="195.33" y="133.74" width="633.33" height="822" fill="#fffdf0"/>
      <g id="f" data-name="Group 2249">
        <path id="g" data-name="Path 12036-2" d="m434.71,76.29c1.7-.02,3.4.23,5.02.75,16.6,4.57,33.18,9.11,49.73,13.62,7.9,13.54,25.28,18.12,38.82,10.22,3.14-1.83,5.9-4.24,8.12-7.11.45,0,.91.14,1.3.24,16.43,4.6,33.08,8.4,49.22,14.06-.5,7.06-.03,14.15,1.41,21.08,1.15,5.8,5.15,10.63,10.63,12.85,5.15,2.04,10.43,3.76,15.79,5.15,5.38,1.36,10.49,3.62,15.11,6.69,3.38,2.45,5.96,5.84,7.41,9.76-8.52-.59-16.89-2.48-24.83-5.61-23.68-6.04-47.23-12.67-70.83-19.09-31.83-8.63-63.65-17.29-95.47-25.98-2.64-.49-5.35-.42-7.96.22-.36-7.58-1.29-15.12-2.8-22.55l-.43-4.48c-.3-3.26-.39-6.54-.26-9.81Z" fill="#e1e8e9"/>
        <path id="h" data-name="Path 12037-2" d="m437.48,59.41c3.53-14,12.26-26.13,24.42-33.92,15.8-9.6,34.11-14.26,52.58-13.36,14.55-.8,29.05,2.18,42.1,8.66,16.13,7.19,27.88,21.63,31.64,38.89,1.77,8.64,2.34,17.49,1.72,26.29-.57,1.45-.77,3.03-.6,4.58l-2.33,17.46c-16.14-5.66-32.79-9.47-49.22-14.06-.39-.1-.86-.17-1.3-.24,9.7-12.38,7.52-30.27-4.85-39.97-12.38-9.7-30.27-7.52-39.97,4.85-7.22,9.22-8.06,21.92-2.12,32.01-16.6-4.57-33.18-9.11-49.73-13.62-1.62-.52-3.32-.78-5.02-.75.09-5.71.99-11.37,2.69-16.82Z" fill="#edf1f1"/>
        <path id="i" data-name="Path 12038-2" d="m638.79,168.07c-.39-1.55-.87-3.07-1.44-4.56-8.52-.59-16.89-2.48-24.83-5.61-23.68-6.04-47.23-12.67-70.83-19.09-31.83-8.63-63.65-17.29-95.47-25.98-2.64-.49-5.35-.42-7.96.22l-.34,4.25c-.12,4.54-.75,9.05-1.89,13.45-.98,3.79-3.38,7.05-6.71,9.12-7.27,3.87-15.06,6.69-23.12,8.39-7.08,1.21-13.45,5.02-17.85,10.7-1.06,1.49-1.88,3.12-2.45,4.85-.41,1.23-.65,2.51-.69,3.81v.45h253.57Z" fill="#b3c6c7"/>
      </g>
      <g>
        <path d="m488.61,250.28v-18.31l-6,18.31h-2.2l-5.92-18.31v18.31h-5.32v-26.67h7.19l5.16,15.99,5.2-15.99h7.15v26.67h-5.28Z" fill="#468fc3"/>
        <path d="m498.58,250.28v-26.67h15.27v4.68h-9.92v6.12h9.64v4.64h-9.64v6.56h9.92v4.68h-15.27Z" fill="#468fc3"/>
        <path d="m517.82,250.28v-26.67h8.59c7.36,0,11.6,5.52,11.6,13.35s-4.2,13.31-11.6,13.31h-8.59Zm5.35-4.72h3.24c3.96,0,6.12-3.52,6.12-8.6s-2.08-8.63-6.12-8.63h-3.24v17.23Z" fill="#468fc3"/>
        <path d="m541.7,250.28v-26.67h5.35v26.67h-5.35Z" fill="#468fc3"/>
        <path d="m550.7,236.97c0-8.07,4.36-13.79,11.19-13.79,5.2,0,7.63,3.32,8.99,6.4l-4.44,1.96c-.8-2.12-2.36-3.6-4.56-3.6-3.52,0-5.68,3.8-5.68,9.03s2.16,9.04,5.68,9.04c2.28,0,3.84-1.68,4.6-3.88l4.44,1.92c-1.32,3.2-3.76,6.72-9.03,6.72-6.84,0-11.19-5.72-11.19-13.79Z" fill="#468fc3"/>
        <path d="m574.1,250.28v-26.67h5.35v26.67h-5.35Z" fill="#468fc3"/>
        <path d="m598.61,250.28l-9.11-16.99v16.99h-5.32v-26.67h5.44l8.75,16.31v-16.31h5.36v26.67h-5.12Z" fill="#468fc3"/>
        <path d="m608.42,250.28v-26.67h15.27v4.68h-9.92v6.12h9.64v4.64h-9.64v6.56h9.92v4.68h-15.27Z" fill="#468fc3"/>
      </g>
      <g>
        <path d="m688.11,250.28v-26.67h8.59c7.36,0,11.6,5.52,11.6,13.35s-4.2,13.31-11.6,13.31h-8.59Zm5.35-4.72h3.24c3.96,0,6.12-3.52,6.12-8.6s-2.08-8.63-6.12-8.63h-3.24v17.23Z" fill="#468fc3"/>
        <path d="m722.02,223.18c7,0,11.16,5.88,11.16,13.79s-4.16,13.79-11.16,13.79-11.11-5.84-11.11-13.79,4.16-13.79,11.11-13.79Zm0,4.76c-3.64,0-5.6,3.88-5.6,9.03s1.96,9.04,5.6,9.04,5.68-3.96,5.68-9.04-2-9.03-5.68-9.03Z" fill="#468fc3"/>
        <path d="m737.79,243.21c1.48,1.64,3.8,2.84,6.4,2.84,2.4,0,3.68-1.32,3.68-2.96,0-2.04-1.92-2.92-4.36-3.96-3.36-1.32-7.56-2.92-7.56-8.2,0-4.2,3.28-7.76,8.8-7.76,3.24,0,6.04,1.04,8.08,2.96l-2.56,4c-1.6-1.52-3.64-2.24-5.64-2.24s-3.2,1.12-3.2,2.72c0,1.8,1.84,2.64,4.24,3.64,3.44,1.36,7.64,3.12,7.64,8.4,0,4.68-3.2,8.12-9.03,8.12-4.04,0-7-1.32-9.12-3.44l2.64-4.12Z" fill="#468fc3"/>
        <path d="m756.79,250.28v-26.67h15.27v4.68h-9.92v6.12h9.64v4.64h-9.64v6.56h9.92v4.68h-15.27Z" fill="#468fc3"/>
      </g>
      <line x1="655.52" y1="186.75" x2="655.52" y2="903.41" fill="none" stroke="#468fc3" stroke-linecap="round" stroke-miterlimit="10" stroke-width="5.82"/>
      <line x1="220.33" y1="437.02" x2="803.67" y2="437.02" fill="none" stroke="#468fc3" stroke-linecap="round" stroke-miterlimit="10" stroke-width="5.25"/>
      <line x1="220.33" y1="905.73" x2="803.67" y2="905.73" fill="none" stroke="#468fc3" stroke-linecap="round" stroke-miterlimit="10" stroke-width="5.25"/>
      <line x1="220.33" y1="749.49" x2="803.67" y2="749.49" fill="none" stroke="#468fc3" stroke-linecap="round" stroke-miterlimit="10" stroke-width="5.25"/>
      <line x1="220.33" y1="593.26" x2="803.67" y2="593.26" fill="none" stroke="#468fc3" stroke-linecap="round" stroke-miterlimit="10" stroke-width="5.25"/>
      <line x1="220.33" y1="280.78" x2="803.67" y2="280.78" fill="none" stroke="#468fc3" stroke-linecap="round" stroke-miterlimit="10" stroke-width="5.25"/>
      <line x1="436.59" y1="186.75" x2="436.59" y2="903.41" fill="none" stroke="#468fc3" stroke-linecap="round" stroke-miterlimit="10" stroke-width="5.82"/>
      <g>
        <circle cx="271.24" cy="515.14" r="27.56" fill="#468fc3"/>
        <line id="j" data-name="Line 32" x1="271.24" y1="473.47" x2="271.24" y2="482.56" fill="none" stroke="#468fc3" stroke-linecap="round" stroke-miterlimit="10" stroke-width="3.49"/>
        <line id="k" data-name="Line 32" x1="250.41" y1="479.05" x2="254.95" y2="486.92" fill="none" stroke="#468fc3" stroke-linecap="round" stroke-miterlimit="10" stroke-width="3.49"/>
        <line id="l" data-name="Line 32" x1="235.15" y1="494.31" x2="243.02" y2="498.85" fill="none" stroke="#468fc3" stroke-linecap="round" stroke-miterlimit="10" stroke-width="3.49"/>
        <line id="m" data-name="Line 32" x1="229.57" y1="515.14" x2="238.66" y2="515.14" fill="none" stroke="#468fc3" stroke-linecap="round" stroke-miterlimit="10" stroke-width="3.49"/>
        <line id="n" data-name="Line 32" x1="235.15" y1="535.97" x2="243.02" y2="531.43" fill="none" stroke="#468fc3" stroke-linecap="round" stroke-miterlimit="10" stroke-width="3.49"/>
        <line id="o" data-name="Line 32" x1="250.41" y1="551.22" x2="254.95" y2="543.35" fill="none" stroke="#468fc3" stroke-linecap="round" stroke-miterlimit="10" stroke-width="3.49"/>
        <line id="p" data-name="Line 32" x1="271.24" y1="556.81" x2="271.24" y2="547.72" fill="none" stroke="#468fc3" stroke-linecap="round" stroke-miterlimit="10" stroke-width="3.49"/>
        <line id="q" data-name="Line 32" x1="292.07" y1="551.22" x2="287.53" y2="543.35" fill="none" stroke="#468fc3" stroke-linecap="round" stroke-miterlimit="10" stroke-width="3.49"/>
        <line id="r" data-name="Line 32" x1="307.32" y1="535.97" x2="299.45" y2="531.43" fill="none" stroke="#468fc3" stroke-linecap="round" stroke-miterlimit="10" stroke-width="3.49"/>
        <line id="s" data-name="Line 32" x1="312.91" y1="515.14" x2="303.82" y2="515.14" fill="none" stroke="#468fc3" stroke-linecap="round" stroke-miterlimit="10" stroke-width="3.49"/>
        <line id="t" data-name="Line 32" x1="307.32" y1="494.31" x2="299.45" y2="498.85" fill="none" stroke="#468fc3" stroke-linecap="round" stroke-miterlimit="10" stroke-width="3.49"/>
        <line id="u" data-name="Line 32" x1="292.07" y1="479.05" x2="287.53" y2="486.92" fill="none" stroke="#468fc3" stroke-linecap="round" stroke-miterlimit="10" stroke-width="3.49"/>
      </g>
      <g>
        <path d="m342.85,526.36l-7.59-14.16v14.16h-4.43v-22.22h4.53l7.29,13.59v-13.59h4.46v22.22h-4.26Z" fill="#468fc3"/>
        <path d="m359.39,503.77c5.83,0,9.29,4.9,9.29,11.49s-3.46,11.49-9.29,11.49-9.26-4.86-9.26-11.49,3.46-11.49,9.26-11.49Zm0,3.96c-3.03,0-4.66,3.23-4.66,7.53s1.63,7.53,4.66,7.53,4.73-3.3,4.73-7.53-1.67-7.53-4.73-7.53Z" fill="#468fc3"/>
        <path d="m380.13,503.77c5.83,0,9.29,4.9,9.29,11.49s-3.46,11.49-9.29,11.49-9.26-4.86-9.26-11.49,3.46-11.49,9.26-11.49Zm0,3.96c-3.03,0-4.66,3.23-4.66,7.53s1.63,7.53,4.66,7.53,4.73-3.3,4.73-7.53-1.67-7.53-4.73-7.53Z" fill="#468fc3"/>
        <path d="m404.52,526.36l-7.59-14.16v14.16h-4.43v-22.22h4.53l7.29,13.59v-13.59h4.46v22.22h-4.26Z" fill="#468fc3"/>
      </g>
      <path id="v" data-name="Path 10332" d="m312.95,858.27c-23.02,0-41.68-18.66-41.68-41.68h0c-.01-11.64,4.86-22.76,13.43-30.64-22.47.75-40.29,19.17-40.3,41.65,0,23.02,18.66,41.68,41.68,41.68h0c10.47.01,20.57-3.93,28.25-11.05-.46.02-.92.04-1.39.04Z" fill="#468fc3"/>
      <g>
        <path d="m340.55,835.5l-7.59-14.16v14.16h-4.43v-22.22h4.53l7.29,13.59v-13.59h4.46v22.22h-4.26Z" fill="#468fc3"/>
        <path d="m348.73,835.5v-22.22h4.46v22.22h-4.46Z" fill="#468fc3"/>
        <path d="m365.62,812.91c3.86,0,6.19,2.3,7.4,5.07l-3.63,1.66c-.7-1.57-1.93-2.76-3.76-2.76-2.83,0-4.8,2.76-4.8,7.53s1.97,7.53,4.8,7.53c1.5,0,2.7-.6,3.4-1.33v-3.4h-4.2v-3.87h8.4v9.03c-1.87,2.2-4.33,3.53-7.59,3.53-5.63,0-9.4-4.6-9.4-11.49s3.77-11.49,9.4-11.49Z" fill="#468fc3"/>
        <path d="m388.49,835.5v-9.46h-7.36v9.46h-4.46v-22.22h4.46v8.83h7.36v-8.83h4.5v22.22h-4.5Z" fill="#468fc3"/>
        <path d="m400.62,835.5v-18.29h-4.96v-3.93h14.36v3.93h-4.93v18.29h-4.46Z" fill="#468fc3"/>
      </g>
      <g>
        <path id="w" data-name="Path 10342" d="m327.56,334.28c-20.97,0-39.09,14.67-43.46,35.18h86.91c-4.37-20.51-22.48-35.18-43.45-35.18Z" fill="#eae2f0" stroke="#468fc3" stroke-miterlimit="10" stroke-width="1.33"/>
        <line id="x" data-name="Line 31" x1="288.5" y1="322.91" x2="296.95" y2="334.98" fill="none" stroke="#468fc3" stroke-linecap="round" stroke-miterlimit="10" stroke-width="5.65"/>
        <line id="y" data-name="Line 32" x1="327.56" y1="310.6" x2="327.56" y2="325.33" fill="none" stroke="#468fc3" stroke-linecap="round" stroke-miterlimit="10" stroke-width="5.65"/>
        <line id="z" data-name="Line 33" x1="366.63" y1="322.91" x2="358.18" y2="334.98" fill="none" stroke="#468fc3" stroke-linecap="round" stroke-miterlimit="10" stroke-width="5.65"/>
        <line id="aa" data-name="Line 34" x1="391.56" y1="355.41" x2="377.72" y2="360.45" fill="none" stroke="#468fc3" stroke-linecap="round" stroke-miterlimit="10" stroke-width="5.65"/>
        <line id="ab" data-name="Line 35" x1="263.56" y1="355.41" x2="277.41" y2="360.45" fill="none" stroke="#468fc3" stroke-linecap="round" stroke-miterlimit="10" stroke-width="5.65"/>
        <path d="m371.05,369.6c-4.2-20.17-22.07-35.32-43.49-35.32s-39.29,15.15-43.49,35.32h86.98Z" fill="#468fc3"/>
      </g>
      <g>
        <path d="m279.75,406.24v-15.26l-5,15.26h-1.83l-4.93-15.26v15.26h-4.43v-22.22h6l4.3,13.32,4.33-13.32h5.96v22.22h-4.4Z" fill="#468fc3"/>
        <path d="m296.42,383.65c5.83,0,9.29,4.9,9.29,11.49s-3.46,11.49-9.29,11.49-9.26-4.86-9.26-11.49,3.47-11.49,9.26-11.49Zm0,3.96c-3.03,0-4.66,3.23-4.66,7.53s1.63,7.53,4.66,7.53,4.73-3.3,4.73-7.53-1.67-7.53-4.73-7.53Z" fill="#468fc3"/>
        <path d="m319.05,406.24l-3.4-8.06h-2.4v8.06h-4.46v-22.22h8.29c4.07,0,6.76,2.93,6.76,7.03,0,3.83-2.03,5.76-3.86,6.36l4.03,8.83h-4.96Zm-2.63-18.32h-3.17v6.4h3.17c1.73,0,2.86-1.3,2.86-3.2s-1.13-3.2-2.86-3.2Z" fill="#468fc3"/>
        <path d="m339.19,406.24l-7.59-14.16v14.16h-4.43v-22.22h4.53l7.29,13.59v-13.59h4.46v22.22h-4.26Z" fill="#468fc3"/>
        <path d="m347.36,406.24v-22.22h4.46v22.22h-4.46Z" fill="#468fc3"/>
        <path d="m367.79,406.24l-7.59-14.16v14.16h-4.43v-22.22h4.53l7.29,13.59v-13.59h4.46v22.22h-4.26Z" fill="#468fc3"/>
        <path d="m384.46,383.65c3.86,0,6.19,2.3,7.4,5.07l-3.63,1.66c-.7-1.57-1.93-2.76-3.76-2.76-2.83,0-4.8,2.76-4.8,7.53s1.97,7.53,4.8,7.53c1.5,0,2.7-.6,3.4-1.33v-3.4h-4.2v-3.87h8.4v9.03c-1.87,2.2-4.33,3.53-7.59,3.53-5.63,0-9.39-4.6-9.39-11.49s3.76-11.49,9.39-11.49Z" fill="#468fc3"/>
      </g>
      <g>
        <path id="ac" data-name="Path 10342" d="m327.56,647.24c-20.97,0-39.09,14.67-43.46,35.18h86.91c-4.37-20.51-22.48-35.18-43.45-35.18Z" fill="#eae2f0" stroke="#468fc3" stroke-miterlimit="10" stroke-width="1.33"/>
        <line id="ad" data-name="Line 31" x1="288.5" y1="635.87" x2="296.95" y2="647.94" fill="none" stroke="#468fc3" stroke-linecap="round" stroke-miterlimit="10" stroke-width="5.65"/>
        <line id="ae" data-name="Line 32" x1="327.56" y1="623.56" x2="327.56" y2="638.29" fill="none" stroke="#468fc3" stroke-linecap="round" stroke-miterlimit="10" stroke-width="5.65"/>
        <line id="af" data-name="Line 33" x1="366.63" y1="635.87" x2="358.18" y2="647.94" fill="none" stroke="#468fc3" stroke-linecap="round" stroke-miterlimit="10" stroke-width="5.65"/>
        <line id="ag" data-name="Line 34" x1="391.56" y1="668.37" x2="377.72" y2="673.41" fill="none" stroke="#468fc3" stroke-linecap="round" stroke-miterlimit="10" stroke-width="5.65"/>
        <line id="ah" data-name="Line 35" x1="263.56" y1="668.37" x2="277.41" y2="673.41" fill="none" stroke="#468fc3" stroke-linecap="round" stroke-miterlimit="10" stroke-width="5.65"/>
        <path d="m371.05,682.56c-4.2-20.17-22.07-35.32-43.49-35.32s-39.29,15.15-43.49,35.32h86.98Z" fill="#468fc3"/>
      </g>
      <g>
        <path d="m258.36,719.2l-1.04-3.96h-7.26l-1.03,3.96h-4.63l6.6-22.22h5.4l6.6,22.22h-4.63Zm-4.66-18.26l-2.73,10.39h5.46l-2.73-10.39Z" fill="#468fc3"/>
        <path d="m264.9,719.2v-22.22h12.72v3.9h-8.26v5.1h8.03v3.86h-8.03v9.36h-4.46Z" fill="#468fc3"/>
        <path d="m284.36,719.2v-18.29h-4.96v-3.93h14.36v3.93h-4.93v18.29h-4.46Z" fill="#468fc3"/>
        <path d="m296.43,719.2v-22.22h12.72v3.9h-8.26v5.1h8.03v3.86h-8.03v5.47h8.26v3.9h-12.72Z" fill="#468fc3"/>
        <path d="m322.72,719.2l-3.4-8.06h-2.4v8.06h-4.46v-22.22h8.29c4.07,0,6.76,2.93,6.76,7.03,0,3.83-2.03,5.76-3.86,6.36l4.03,8.83h-4.96Zm-2.63-18.32h-3.17v6.4h3.17c1.73,0,2.86-1.3,2.86-3.2s-1.13-3.2-2.86-3.2Z" fill="#468fc3"/>
        <path d="m342.85,719.2l-7.59-14.16v14.16h-4.43v-22.22h4.53l7.29,13.59v-13.59h4.46v22.22h-4.26Z" fill="#468fc3"/>
        <path d="m359.39,696.61c5.83,0,9.29,4.9,9.29,11.49s-3.46,11.49-9.29,11.49-9.26-4.86-9.26-11.49,3.46-11.49,9.26-11.49Zm0,3.96c-3.03,0-4.66,3.23-4.66,7.53s1.63,7.53,4.66,7.53,4.73-3.3,4.73-7.53-1.67-7.53-4.73-7.53Z" fill="#468fc3"/>
        <path d="m380.13,696.61c5.83,0,9.29,4.9,9.29,11.49s-3.46,11.49-9.29,11.49-9.26-4.86-9.26-11.49,3.47-11.49,9.26-11.49Zm0,3.96c-3.03,0-4.66,3.23-4.66,7.53s1.63,7.53,4.66,7.53,4.73-3.3,4.73-7.53-1.67-7.53-4.73-7.53Z" fill="#468fc3"/>
        <path d="m404.52,719.2l-7.59-14.16v14.16h-4.43v-22.22h4.53l7.29,13.59v-13.59h4.46v22.22h-4.26Z" fill="#468fc3"/>
      </g>
    </g>
    <rect width="1024" height="1024" fill="none"/>
  </g>
</svg>