<?xml version="1.0" encoding="UTF-8"?>
<svg id="b" data-name="Layer 2" xmlns="http://www.w3.org/2000/svg" viewBox="0 0 1024 1024">
  <g id="c" data-name="Layer 1">
    <rect id="d" data-name="Rectangle 333" x="148.22" y="77.47" width="727.55" height="934.53" rx="47.78" ry="47.78" fill="#bb845e"/>
    <rect id="e" data-name="Rectangle 334" x="195.33" y="133.74" width="633.33" height="822" fill="#fffcef"/>
    <g id="f" data-name="Group 2249">
      <path id="g" data-name="Path 12036-2" d="m434.71,76.29c1.7-.02,3.4.23,5.02.75,16.6,4.57,33.18,9.11,49.73,13.62,7.9,13.54,25.28,18.12,38.82,10.22,3.14-1.83,5.9-4.24,8.12-7.11.45,0,.91.14,1.3.24,16.43,4.6,33.08,8.4,49.22,14.06-.5,7.06-.03,14.15,1.41,21.08,1.15,5.8,5.15,10.63,10.63,12.85,5.15,2.04,10.43,3.76,15.79,5.15,5.38,1.36,10.49,3.62,15.11,6.69,3.38,2.45,5.96,5.84,7.41,9.76-8.52-.59-16.89-2.48-24.83-5.61-23.68-6.04-47.23-12.67-70.83-19.09-31.83-8.63-63.65-17.29-95.47-25.98-2.64-.49-5.35-.42-7.96.22-.36-7.58-1.29-15.12-2.8-22.55l-.43-4.48c-.3-3.26-.39-6.54-.26-9.81Z" fill="#e0e7e8"/>
      <path id="h" data-name="Path 12037-2" d="m437.48,59.41c3.53-14,12.26-26.13,24.42-33.92,15.8-9.6,34.11-14.26,52.58-13.36,14.55-.8,29.05,2.18,42.1,8.66,16.13,7.19,27.88,21.63,31.64,38.89,1.77,8.64,2.34,17.49,1.72,26.29-.57,1.45-.77,3.03-.6,4.58l-2.33,17.46c-16.14-5.66-32.79-9.47-49.22-14.06-.39-.1-.86-.17-1.3-.24,9.7-12.38,7.52-30.27-4.85-39.97-12.38-9.7-30.27-7.52-39.97,4.85-7.22,9.22-8.06,21.92-2.12,32.01-16.6-4.57-33.18-9.11-49.73-13.62-1.62-.52-3.32-.78-5.02-.75.09-5.71.99-11.37,2.69-16.82Z" fill="#ecf0f0"/>
      <path id="i" data-name="Path 12038-2" d="m638.79,168.07c-.39-1.55-.87-3.07-1.44-4.56-8.52-.59-16.89-2.48-24.83-5.61-23.68-6.04-47.23-12.67-70.83-19.09-31.83-8.63-63.65-17.29-95.47-25.98-2.64-.49-5.35-.42-7.96.22l-.34,4.25c-.12,4.54-.75,9.05-1.89,13.45-.98,3.79-3.38,7.05-6.71,9.12-7.27,3.87-15.06,6.69-23.12,8.39-7.08,1.21-13.45,5.02-17.85,10.7-1.06,1.49-1.88,3.12-2.45,4.85-.41,1.23-.65,2.51-.69,3.81v.45h253.57Z" fill="#b2c5c6"/>
    </g>
    <line x1="655.52" y1="186.75" x2="655.52" y2="903.41" fill="none" stroke="#468fc3" stroke-linecap="round" stroke-miterlimit="10" stroke-width="5.82"/>
    <line x1="220.33" y1="437.02" x2="803.67" y2="437.02" fill="none" stroke="#468fc3" stroke-linecap="round" stroke-miterlimit="10" stroke-width="5.25"/>
    <line x1="220.33" y1="905.73" x2="803.67" y2="905.73" fill="none" stroke="#468fc3" stroke-linecap="round" stroke-miterlimit="10" stroke-width="5.25"/>
    <line x1="220.33" y1="749.49" x2="803.67" y2="749.49" fill="none" stroke="#468fc3" stroke-linecap="round" stroke-miterlimit="10" stroke-width="5.25"/>
    <line x1="220.33" y1="593.26" x2="803.67" y2="593.26" fill="none" stroke="#468fc3" stroke-linecap="round" stroke-miterlimit="10" stroke-width="5.25"/>
    <line x1="220.33" y1="280.78" x2="803.67" y2="280.78" fill="none" stroke="#468fc3" stroke-linecap="round" stroke-miterlimit="10" stroke-width="5.25"/>
    <line x1="436.59" y1="186.75" x2="436.59" y2="903.41" fill="none" stroke="#468fc3" stroke-linecap="round" stroke-miterlimit="10" stroke-width="5.82"/>
    <g>
      <circle cx="271.24" cy="515.14" r="27.56" fill="#468fc3"/>
      <line id="j" data-name="Line 32" x1="271.24" y1="473.47" x2="271.24" y2="482.56" fill="none" stroke="#468fc3" stroke-linecap="round" stroke-miterlimit="10" stroke-width="3.49"/>
      <line id="k" data-name="Line 32" x1="250.41" y1="479.05" x2="254.95" y2="486.92" fill="none" stroke="#468fc3" stroke-linecap="round" stroke-miterlimit="10" stroke-width="3.49"/>
      <line id="l" data-name="Line 32" x1="235.15" y1="494.31" x2="243.02" y2="498.85" fill="none" stroke="#468fc3" stroke-linecap="round" stroke-miterlimit="10" stroke-width="3.49"/>
      <line id="m" data-name="Line 32" x1="229.57" y1="515.14" x2="238.66" y2="515.14" fill="none" stroke="#468fc3" stroke-linecap="round" stroke-miterlimit="10" stroke-width="3.49"/>
      <line id="n" data-name="Line 32" x1="235.15" y1="535.97" x2="243.02" y2="531.43" fill="none" stroke="#468fc3" stroke-linecap="round" stroke-miterlimit="10" stroke-width="3.49"/>
      <line id="o" data-name="Line 32" x1="250.41" y1="551.22" x2="254.95" y2="543.35" fill="none" stroke="#468fc3" stroke-linecap="round" stroke-miterlimit="10" stroke-width="3.49"/>
      <line id="p" data-name="Line 32" x1="271.24" y1="556.81" x2="271.24" y2="547.72" fill="none" stroke="#468fc3" stroke-linecap="round" stroke-miterlimit="10" stroke-width="3.49"/>
      <line id="q" data-name="Line 32" x1="292.07" y1="551.22" x2="287.53" y2="543.35" fill="none" stroke="#468fc3" stroke-linecap="round" stroke-miterlimit="10" stroke-width="3.49"/>
      <line id="r" data-name="Line 32" x1="307.32" y1="535.97" x2="299.45" y2="531.43" fill="none" stroke="#468fc3" stroke-linecap="round" stroke-miterlimit="10" stroke-width="3.49"/>
      <line id="s" data-name="Line 32" x1="312.91" y1="515.14" x2="303.82" y2="515.14" fill="none" stroke="#468fc3" stroke-linecap="round" stroke-miterlimit="10" stroke-width="3.49"/>
      <line id="t" data-name="Line 32" x1="307.32" y1="494.31" x2="299.45" y2="498.85" fill="none" stroke="#468fc3" stroke-linecap="round" stroke-miterlimit="10" stroke-width="3.49"/>
      <line id="u" data-name="Line 32" x1="292.07" y1="479.05" x2="287.53" y2="486.92" fill="none" stroke="#468fc3" stroke-linecap="round" stroke-miterlimit="10" stroke-width="3.49"/>
    </g>
    <path id="v" data-name="Path 10332" d="m312.95,858.27c-23.02,0-41.68-18.66-41.68-41.68h0c-.01-11.64,4.86-22.76,13.43-30.64-22.47.75-40.29,19.17-40.3,41.65,0,23.02,18.66,41.68,41.68,41.68h0c10.47.01,20.57-3.93,28.25-11.05-.46.02-.92.04-1.39.04Z" fill="#468fc3"/>
    <g>
      <path id="w" data-name="Path 10342" d="m327.56,334.28c-20.97,0-39.09,14.67-43.46,35.18h86.91c-4.37-20.51-22.48-35.18-43.45-35.18Z" fill="#e9e1ef" stroke="#468fc3" stroke-miterlimit="10" stroke-width="1.33"/>
      <line id="x" data-name="Line 31" x1="288.5" y1="322.91" x2="296.95" y2="334.98" fill="none" stroke="#468fc3" stroke-linecap="round" stroke-miterlimit="10" stroke-width="5.65"/>
      <line id="y" data-name="Line 32" x1="327.56" y1="310.6" x2="327.56" y2="325.33" fill="none" stroke="#468fc3" stroke-linecap="round" stroke-miterlimit="10" stroke-width="5.65"/>
      <line id="z" data-name="Line 33" x1="366.63" y1="322.91" x2="358.18" y2="334.98" fill="none" stroke="#468fc3" stroke-linecap="round" stroke-miterlimit="10" stroke-width="5.65"/>
      <line id="aa" data-name="Line 34" x1="391.56" y1="355.41" x2="377.72" y2="360.45" fill="none" stroke="#468fc3" stroke-linecap="round" stroke-miterlimit="10" stroke-width="5.65"/>
      <line id="ab" data-name="Line 35" x1="263.56" y1="355.41" x2="277.41" y2="360.45" fill="none" stroke="#468fc3" stroke-linecap="round" stroke-miterlimit="10" stroke-width="5.65"/>
      <path d="m371.05,369.6c-4.2-20.17-22.07-35.32-43.49-35.32s-39.29,15.15-43.49,35.32h86.98Z" fill="#468fc3"/>
    </g>
    <g>
      <path id="ac" data-name="Path 10342" d="m327.56,647.24c-20.97,0-39.09,14.67-43.46,35.18h86.91c-4.37-20.51-22.48-35.18-43.45-35.18Z" fill="#e9e1ef" stroke="#468fc3" stroke-miterlimit="10" stroke-width="1.33"/>
      <line id="ad" data-name="Line 31" x1="288.5" y1="635.87" x2="296.95" y2="647.94" fill="none" stroke="#468fc3" stroke-linecap="round" stroke-miterlimit="10" stroke-width="5.65"/>
      <line id="ae" data-name="Line 32" x1="327.56" y1="623.56" x2="327.56" y2="638.29" fill="none" stroke="#468fc3" stroke-linecap="round" stroke-miterlimit="10" stroke-width="5.65"/>
      <line id="af" data-name="Line 33" x1="366.63" y1="635.87" x2="358.18" y2="647.94" fill="none" stroke="#468fc3" stroke-linecap="round" stroke-miterlimit="10" stroke-width="5.65"/>
      <line id="ag" data-name="Line 34" x1="391.56" y1="668.37" x2="377.72" y2="673.41" fill="none" stroke="#468fc3" stroke-linecap="round" stroke-miterlimit="10" stroke-width="5.65"/>
      <line id="ah" data-name="Line 35" x1="263.56" y1="668.37" x2="277.41" y2="673.41" fill="none" stroke="#468fc3" stroke-linecap="round" stroke-miterlimit="10" stroke-width="5.65"/>
      <path d="m371.05,682.56c-4.2-20.17-22.07-35.32-43.49-35.32s-39.29,15.15-43.49,35.32h86.98Z" fill="#468fc3"/>
    </g>
    <rect width="1024" height="1024" fill="none"/>
    <g>
      <path d="m493.38,250.18v-16.49l-5.4,16.49h-1.98l-5.33-16.49v16.49h-4.79v-24.01h6.48l4.64,14.4,4.68-14.4h6.44v24.01h-4.75Z" fill="#468fc3"/>
      <path d="m502.35,250.18v-24.01h13.75v4.21h-8.93v5.51h8.67v4.18h-8.67v5.9h8.93v4.21h-13.75Z" fill="#468fc3"/>
      <path d="m519.67,250.18v-24.01h7.74c6.62,0,10.44,4.97,10.44,12.02s-3.78,11.99-10.44,11.99h-7.74Zm4.82-4.25h2.92c3.56,0,5.51-3.17,5.51-7.74s-1.87-7.78-5.51-7.78h-2.92v15.51Z" fill="#468fc3"/>
      <path d="m541.16,250.18v-24.01h4.82v24.01h-4.82Z" fill="#468fc3"/>
      <path d="m549.26,238.19c0-7.27,3.92-12.42,10.08-12.42,4.68,0,6.88,2.99,8.1,5.76l-4,1.76c-.72-1.91-2.12-3.24-4.1-3.24-3.17,0-5.11,3.42-5.11,8.13s1.94,8.13,5.11,8.13c2.05,0,3.46-1.51,4.14-3.49l4,1.73c-1.19,2.88-3.38,6.05-8.13,6.05-6.16,0-10.08-5.15-10.08-12.42Z" fill="#468fc3"/>
      <path d="m570.32,250.18v-24.01h4.82v24.01h-4.82Z" fill="#468fc3"/>
      <path d="m592.38,250.18l-8.21-15.3v15.3h-4.79v-24.01h4.9l7.88,14.69v-14.69h4.82v24.01h-4.61Z" fill="#468fc3"/>
      <path d="m614.09,250.18l-1.12-4.28h-7.85l-1.12,4.28h-5l7.13-24.01h5.83l7.13,24.01h-5Zm-5.04-19.73l-2.95,11.23h5.9l-2.95-11.23Z" fill="#468fc3"/>
    </g>
    <g>
      <path d="m687.8,250.18v-24.01h7.74c6.62,0,10.44,4.97,10.44,12.02s-3.78,11.99-10.44,11.99h-7.74Zm4.82-4.25h2.92c3.56,0,5.51-3.17,5.51-7.74s-1.87-7.78-5.51-7.78h-2.92v15.51Z" fill="#468fc3"/>
      <path d="m718.33,225.77c6.3,0,10.04,5.29,10.04,12.42s-3.74,12.42-10.04,12.42-10.01-5.25-10.01-12.42,3.74-12.42,10.01-12.42Zm0,4.28c-3.28,0-5.04,3.49-5.04,8.13s1.76,8.13,5.04,8.13,5.11-3.56,5.11-8.13-1.8-8.13-5.11-8.13Z" fill="#468fc3"/>
      <path d="m732.51,243.81c1.33,1.48,3.42,2.56,5.76,2.56,2.16,0,3.31-1.19,3.31-2.66,0-1.84-1.73-2.63-3.92-3.56-3.02-1.19-6.8-2.63-6.8-7.38,0-3.78,2.95-6.98,7.92-6.98,2.92,0,5.44.94,7.27,2.66l-2.3,3.6c-1.44-1.37-3.28-2.02-5.08-2.02s-2.88,1.01-2.88,2.45c0,1.62,1.66,2.38,3.82,3.28,3.1,1.22,6.88,2.81,6.88,7.56,0,4.21-2.88,7.31-8.13,7.31-3.64,0-6.3-1.19-8.21-3.1l2.38-3.71Z" fill="#468fc3"/>
      <path d="m749.61,250.18v-24.01h4.82v24.01h-4.82Z" fill="#468fc3"/>
      <path d="m759.51,243.81c1.33,1.48,3.42,2.56,5.76,2.56,2.16,0,3.31-1.19,3.31-2.66,0-1.84-1.73-2.63-3.92-3.56-3.02-1.19-6.8-2.63-6.8-7.38,0-3.78,2.95-6.98,7.92-6.98,2.92,0,5.44.94,7.27,2.66l-2.3,3.6c-1.44-1.37-3.28-2.02-5.08-2.02s-2.88,1.01-2.88,2.45c0,1.62,1.66,2.38,3.82,3.28,3.1,1.22,6.88,2.81,6.88,7.56,0,4.21-2.88,7.31-8.13,7.31-3.64,0-6.3-1.19-8.21-3.1l2.38-3.71Z" fill="#468fc3"/>
    </g>
    <g>
      <path d="m282.18,406.64v-16.49l-5.4,16.49h-1.98l-5.33-16.49v16.49h-4.79v-24.01h6.48l4.64,14.4,4.68-14.4h6.44v24.01h-4.75Z" fill="#468fc3"/>
      <path d="m304.04,406.64l-1.12-4.28h-7.85l-1.12,4.28h-5l7.13-24.01h5.83l7.13,24.01h-5Zm-5.04-19.73l-2.95,11.23h5.9l-2.95-11.23Z" fill="#468fc3"/>
      <path d="m324.09,406.64l-8.21-15.3v15.3h-4.79v-24.01h4.9l7.88,14.69v-14.69h4.82v24.01h-4.61Zm-6.08-28.51c-.61,0-1.12.72-1.12,2.34h-2.23c0-2.92,1.22-4.82,3.46-4.82,1.26,0,1.91.83,2.45,1.58.4.5.76.97,1.26.97.61,0,1.08-.72,1.08-2.34h2.23c0,2.92-1.19,4.82-3.46,4.82-1.22,0-1.87-.83-2.45-1.55-.4-.54-.72-1.01-1.22-1.01Z" fill="#468fc3"/>
      <path d="m345.8,406.64l-1.12-4.28h-7.85l-1.12,4.28h-5l7.13-24.01h5.83l7.13,24.01h-5Zm-5.04-19.73l-2.95,11.23h5.9l-2.95-11.23Z" fill="#468fc3"/>
      <path d="m365.85,406.64l-8.21-15.3v15.3h-4.79v-24.01h4.9l7.88,14.69v-14.69h4.82v24.01h-4.61Z" fill="#468fc3"/>
      <path d="m387.55,406.64l-1.12-4.28h-7.85l-1.12,4.28h-5l7.13-24.01h5.83l7.13,24.01h-5Zm-5.04-19.73l-2.95,11.23h5.9l-2.95-11.23Z" fill="#468fc3"/>
    </g>
    <g>
      <path d="m286.72,719.2v-19.76h-5.36v-4.25h15.51v4.25h-5.33v19.76h-4.82Z" fill="#468fc3"/>
      <path d="m310.95,719.2l-1.12-4.28h-7.85l-1.12,4.28h-5l7.13-24.01h5.83l7.13,24.01h-5Zm-5.04-19.73l-2.95,11.23h5.9l-2.95-11.23Z" fill="#468fc3"/>
      <path d="m329.09,719.2l-3.67-8.71h-2.59v8.71h-4.82v-24.01h8.96c4.39,0,7.31,3.17,7.31,7.59,0,4.14-2.2,6.23-4.18,6.88l4.36,9.54h-5.36Zm-2.84-19.8h-3.42v6.91h3.42c1.87,0,3.1-1.4,3.1-3.46s-1.22-3.46-3.1-3.46Z" fill="#468fc3"/>
      <path d="m337.84,719.2v-24.01h7.74c6.62,0,10.44,4.97,10.44,12.02s-3.78,11.99-10.44,11.99h-7.74Zm4.82-4.25h2.92c3.56,0,5.51-3.17,5.51-7.74s-1.87-7.78-5.51-7.78h-2.92v15.51Z" fill="#468fc3"/>
      <path d="m359.33,719.2v-24.01h13.75v4.21h-8.93v5.51h8.67v4.18h-8.67v5.9h8.93v4.21h-13.75Z" fill="#468fc3"/>
    </g>
    <g>
      <path d="m323.2,835.76l-8.21-15.3v15.3h-4.79v-24.01h4.9l7.88,14.69v-14.69h4.82v24.01h-4.61Z" fill="#468fc3"/>
      <path d="m341.06,811.35c6.3,0,10.04,5.29,10.04,12.42s-3.74,12.42-10.04,12.42-10.01-5.25-10.01-12.42,3.74-12.42,10.01-12.42Zm0,4.28c-3.28,0-5.04,3.49-5.04,8.13s1.76,8.13,5.04,8.13,5.11-3.56,5.11-8.13-1.8-8.13-5.11-8.13Z" fill="#468fc3"/>
      <path d="m353.44,823.77c0-7.27,3.92-12.42,10.08-12.42,4.68,0,6.88,2.99,8.1,5.76l-4,1.76c-.72-1.91-2.12-3.24-4.1-3.24-3.17,0-5.11,3.42-5.11,8.13s1.94,8.13,5.11,8.13c2.05,0,3.46-1.51,4.14-3.49l4,1.73c-1.19,2.88-3.38,6.05-8.13,6.05-6.16,0-10.08-5.15-10.08-12.42Z" fill="#468fc3"/>
      <path d="m387.28,835.76v-10.22h-7.96v10.22h-4.82v-24.01h4.82v9.54h7.96v-9.54h4.86v24.01h-4.86Z" fill="#468fc3"/>
      <path d="m396.39,835.76v-24.01h13.75v4.21h-8.93v5.51h8.67v4.18h-8.67v5.9h8.93v4.21h-13.75Z" fill="#468fc3"/>
    </g>
    <g>
      <path d="m301.53,527.61v-24.01h13.75v4.21h-8.93v5.51h8.67v4.18h-8.67v5.9h8.93v4.21h-13.75Z" fill="#468fc3"/>
      <path d="m318.85,527.61v-24.01h7.74c6.62,0,10.44,4.97,10.44,12.02s-3.78,11.99-10.44,11.99h-7.74Zm4.82-4.25h2.92c3.56,0,5.51-3.17,5.51-7.74s-1.87-7.78-5.51-7.78h-2.92v15.51Z" fill="#468fc3"/>
      <path d="m340.34,527.61v-24.01h4.82v24.01h-4.82Z" fill="#468fc3"/>
      <path d="m358.44,503.21c6.3,0,10.04,5.29,10.04,12.42s-3.74,12.42-10.04,12.42-10.01-5.25-10.01-12.42,3.74-12.42,10.01-12.42Zm0,4.28c-3.28,0-5.04,3.49-5.04,8.13s1.76,8.13,5.04,8.13,5.11-3.56,5.11-8.13-1.8-8.13-5.11-8.13Z" fill="#468fc3"/>
      <path d="m371.8,527.61v-24.01h7.74c6.62,0,10.44,4.97,10.44,12.02s-3.78,11.99-10.44,11.99h-7.74Zm4.82-4.25h2.92c3.56,0,5.51-3.17,5.51-7.74s-1.87-7.78-5.51-7.78h-2.92v15.51Z" fill="#468fc3"/>
      <path d="m393.29,527.61v-24.01h4.82v24.01h-4.82Zm3.74-26.02h-2.88l3.85-5.18h3.85l-4.82,5.18Z" fill="#468fc3"/>
      <path d="m415.25,527.61l-1.12-4.28h-7.85l-1.12,4.28h-5l7.13-24.01h5.83l7.13,24.01h-5Zm-5.04-19.73l-2.95,11.23h5.9l-2.95-11.23Z" fill="#468fc3"/>
    </g>
    <path d="m277.63,527.61v-16.49l-5.4,16.49h-1.98l-5.33-16.49v16.49h-4.79v-24.01h6.48l4.64,14.4,4.68-14.4h6.44v24.01h-4.75Z" fill="#fffcef"/>
  </g>
</svg>