<?xml version="1.0" encoding="UTF-8"?>
<svg id="b" data-name="Layer 2" xmlns="http://www.w3.org/2000/svg" xmlns:xlink="http://www.w3.org/1999/xlink" viewBox="0 0 1024 1024">
  <defs>
    <clipPath id="d">
      <rect width="1024" height="1024" fill="none"/>
    </clipPath>
  </defs>
  <g id="c" data-name="Layer 1">
    <g clip-path="url(#d)">
      <g id="e" data-name="Group 982">
        <g id="f" data-name="Group 981">
          <g id="g" data-name="Group 971">
            <path id="h" data-name="Path 5413" d="m877.26,1211.4c4.61,21.37,11.38,42.68,15.99,63.91,1.34,6.15-2.44,12.73-4.72,18.41-4.33,10.74-11.55,20.1-15.74,30.95-2.09,5.42-1.88,13.61-5.86,18.07-4.41,4.94-11.1,8.18-17.63,11.31l-46.59,22.3c-2.39,1.44-5.2,2.03-7.97,1.66-2.37-.57-4.28-2.31-5.06-4.62-3.15-9.96,7.89-18.59,16.52-23.44,7.86-4.4,16.65-8.26,21.77-14.76,4.51-5.72,5.64-12.72,7.91-19.22,2.22-6.31,7.43-11.04,9.41-17.33,1.89-7.56,2.46-15.39,1.69-23.15-.12-3-.83-5.8-.72-8.75.08-2.24,1.27-5.27-.39-7.44-2.89-3.77-7.01-.55-9.13,1.34-3.17,2.86-5.88,6.2-8.02,9.89-3.99,7.22-6.77,15.03-8.23,23.15-3.22,15.14-5.55,31.47-18.07,42.59-1.83,1.85-4.23,3.02-6.81,3.33-6.98.46-10.86-7.1-10.82-12.73.11-14.52,8.65-27.66,10.23-42.02,1.05-9.5-2.27-16.97-3.48-25.92-1.47-10.89-.85-22.96-1.44-34.03-.87-16.28,7.14-33.54,10.32-49.47,3.96-18.02,5.36-36.51,4.14-54.92-1.99-23.15-9.65-45.36-16.27-67.63-17.61-59.24-28.05-120.35-35.27-181.66-3.61-30.76-6.43-61.6-8.96-92.48-2.25-27.53-8.69-56.46-6.71-83.91,2.31-32.04,4.62-64.07,6.94-96.11,1.03-14.32,2.09-28.79,6.36-42.5,4.27-13.71,12.11-26.8,24.14-34.65,8.88,1.06,17.01,5.52,22.68,12.44,5.58,6.87,10.17,14.5,13.62,22.66,0,5.64,7.28,15.61,9.64,20.87,2.98,6.66,7.06,13.75,8.94,20.81,4.16,15.67,3.86,34.05,5.58,50.18,3.62,34.04,7.01,68.1,10.15,102.19,2.22,23.99,9.73,46.94,12.99,71,3.47,25.67,4.69,51.58,5.89,77.44,2.13,45.84,4.26,91.68,6.4,137.52,1.86,40.03-.51,79.44-.51,119.55-.62,4.53-.78,9.11-.49,13.67.4,4.6,2.73,9.01,3.14,13.54.9,9.41,2.38,18.75,4.43,27.97Z" fill="#6e381f"/>
          </g>
          <path id="i" data-name="Path 5414" d="m385.8,569.37c-14.03,10.06-15.92,29.93-15.54,47.19,2.13,95.02,43.01,185.42,25.25,281.71l-27.72,150.47c-1.45,7.89-6.47,22.04-1.29,28.08,4.76,5.55,26.14,7.87,33.31,9.75,22.52,5.89,45.36,10.47,68.41,13.72,41.42,5.85,88.84,11.07,130.44,4.2,40.79-6.73,82.17-18.53,122.65-28.1,21.92-5.18,44.32-10.04,37.15-35.64-6.66-23.75-18.39-45.53-24.1-69.86-5.71-24.91-8.92-50.34-9.58-75.89-1.46-47.07,8.1-93.25,16.32-139.44,5.09-28.58,12.15-57.31,12.93-86.43.53-14.44-1.26-28.86-5.3-42.73-2.02-6.85-4.71-13.48-8.05-19.79-2.5-4.62-7.64-9.08-8.48-14.3" fill="#43ab8b"/>
          <g id="j" data-name="Group 972">
            <path id="k" data-name="Path 5415" d="m349.99,730.81c-16.47,40.76-33.3,81.65-56.96,118.68-8.65,13.54-13.87,25.35-29.14,32.04-6.96,3.05-16.43,9.62-24.07,9.61-6.84,0-13.67-.63-20.41-1.86-12.65-2.31-10.77-10.49-15.87-20.17-11.43-21.71-16.21-47.28-20.1-71.59-4.53-28.31-6.94-56.92-7.21-85.59-.32-33.75,4.98-66.95,6.15-100.68,1.26-36.16,5.12-72.98,4.96-109.43-.09-22.27-6.74-33.69-17.16-52.67-4.07-6.52-7.7-13.29-10.89-20.28-2.65-7.48-6.37-14.53-11.04-20.95-6.38-8.13-11.08-19.15-15.35-28.53-2.1-4.61-4.42-9.89.33-13.83,12.5-10.39,21.55,18.77,25.84,25.3,2.5,3.81,5.03,7.61,7.53,11.43,1.47,2.24,2.79,5.98,5.47,7.03.2-6.19-4.38-12.16-7.59-17.1-2.72-4.19-6.23-7.81-8.64-12.33-4.76-8.88-7.05-19.32-10.71-28.38-2.16-5.35-6.13-10.16-7.7-15.64-1.16-3.59-.64-7.5,1.41-10.67,10.31-14.26,19.85,7.46,22.65,15.46,2.16,5.58,4.86,10.94,8.07,15.99,1.46,2.47,2.89,4.95,4.31,7.44.78,1.37,1.56,2.74,2.34,4.11,2.06,3.61,4.16,7.17,6.29,10.74.25.42,1.17,1.66,1.11,2.1.34-2.18-2.08-4.89-3.09-6.73-1.47-2.65-2.88-5.33-4.25-8.03-3.1-6.1-5.79-12.39-8.6-18.64-4.37-9.73-5.98-20.14-10.96-29.75-3.3-6.38-8.46-14.45-3.68-21.45,2.42-3.44,6.67-5.09,10.78-4.19,6.15,1.46,9.47,7.99,11.99,13.81,4.1,9.48,6.99,19.13,11.25,28.45,3.48,7.6,5.18,15.43,9.96,22.61,2.36,3.56,3.88,7.55,6.18,11.16,2.72,4.3,9.12,9.8,8.82,1.39-.41-4.27-1.38-8.47-2.9-12.49-2.33-7.32-5.4-14.43-7.06-21.96-1.04-6.02-2.4-11.98-4.08-17.85-2.66-7.87-12.11-24.83,1.83-28.19,5.6-1.35,9.66,2.86,12.69,6.95,8.03,10.84,8.25,26.22,12.27,38.67,5.54,17.17,15.5,32.22,23.59,48.2,2.42,4.79,6.22,20.75,10.9,23.03,12.94,6.3,12.01-23.21,12.24-29.99.24-6.88-.07-15.44,4.94-20.81,3.74-3.88,9.73-4.52,14.2-1.52,5.35,4.32,1.71,11.27,2.89,16.98,2.06,10.01,3.99,17.45,2.15,27.69-1.3,7.23-.2,13.78-.63,20.93-.72,11.93-7,20.29-9.92,31.66-1.97,8.88-5.34,17.39-9.99,25.21-4.66,7.47-8.2,15.58-10.53,24.07-4.14,12.38-7.91,18.01-8.42,29.57-.08,1.76-.08,3.66,0,5.75,1.78,44.81,3.19,89.7,4.95,134.4,1.8-23.46,6.43-47.17,18.87-67.52,4.19-7.33,9.83-13.73,16.58-18.8,11.77-8.27,27.15-10.03,41.37-7.87,10.78,1.92,21.28,5.11,31.3,9.52,7.67,3.14,17.35,4.32,20.45,13.18,1.6,5.78,1.74,11.87.41,17.72-4.08,25.36-13.77,49.42-23.39,73.24l-15.14,37.44-1.6,3.95Z" fill="#6e381f"/>
            <path id="l" data-name="Path 5416" d="m286.13,797.86c.14-25.07-4.77-48.36-11.05-72.44-2.64-10.14-5.6-20.21-8.29-30.31-2.34-8.8-5.68-16.4-5.09-25.48" fill="none" stroke="#462515" stroke-linecap="round" stroke-miterlimit="10" stroke-width="2.71"/>
          </g>
          <path id="m" data-name="Path 5417" d="m475.16,407.12c-1.4,10.06-4.23,19.88-8.42,29.14-4.81,10.62-11.52,21.01-11.6,32.67.37,7.59,2.36,15.01,5.85,21.76,16.33,36.23,44.08,68.6,80.78,83.87,7.7,3.55,16.08,5.39,24.57,5.41,12.34-.94,23.87-6.49,32.31-15.54,8.32-9.01,15.02-19.4,19.8-30.7,12.25-26.5,19.87-54.9,22.55-83.98.74-4.01.24-8.14-1.44-11.85-2.33-3.13-5.35-5.69-8.82-7.49-11.4-8.12-19.85-19.71-24.1-33.04-4.18-13.27-5.99-27.17-5.35-41.07.11-7.79.74-15.57,1.88-23.29.95-4.12.66-8.44-.83-12.4-2.18-3.53-5.45-6.24-9.32-7.74-27.88-13.47-59.8-6.85-89.15-2.6-10.54,1.16-20.29,6.12-27.43,13.95-10.35,12.35-6.01,22.63-3.32,36.79,3.18,15.16,3.87,30.73,2.05,46.11Z" fill="#6e381f" stroke="#6e381f" stroke-miterlimit="10" stroke-width="1.82"/>
          <path id="n" data-name="Path 5418" d="m651.39,648.08c13.3-1.18,26.47-3.55,39.35-7.08l27.31-6.62c-.66,10.12-1.97,20.18-3.92,30.13l-4.72,27.14c-2.05,13.52-4.98,26.88-8.77,40.02-.59,2.16-1.46,4.24-2.57,6.18-3.09,4.07-7.2,7.26-11.91,9.24-3.06,1.68-6.21,3.19-9.43,4.52-14.43,5.67-30.73,3.99-45.76.15-4.65-.87-9.02-2.87-12.72-5.83-6.15-5.69-6.73-15.03-7.11-23.4-1.07-23.45-3.89-46.79-8.45-69.82-.49-2.48-1.35-4.86-1.9-7.3-.72-3.25,1.34-2,4.03-1.52,5.14.91,10.29,1.78,15.46,2.5,10.29,1.58,20.7,2.15,31.1,1.69Z" fill="none" stroke="#d9eee8" stroke-dasharray="0 0 7.66 4.96" stroke-linecap="round" stroke-miterlimit="10" stroke-width="3.72"/>
          <path id="o" data-name="Path 5419" d="m605.59,665.89l12.45,2.16c2.75.48,5.5.95,8.27,1.35,17.35,2.46,35.01,1.59,52.04-2.57,1.51-.37,3.02-.77,4.52-1.16l4.25-1.11c10.13-2.66,20.42-5.4,29.37-10.84" fill="none" stroke="#d9eee8" stroke-dasharray="0 0 7.66 4.96" stroke-linecap="round" stroke-miterlimit="10" stroke-width="3.72"/>
          <g id="p" data-name="Group 973">
            <path id="q" data-name="Path 5420" d="m396.79,653.03c-2.3,10.88-6.32,21.32-11.9,30.94-3.37,5.66-6.76,11.32-10.09,16.98-2.8,4.75-8.47,3.8-13.34,2.03-4.28-1.78-8.33-4.05-12.06-6.79-14.98-9.96-30.59-18.96-46.72-26.93-8.06-3.99-16.25-7.71-24.55-11.18-2.77-1.16-5.31-2.82-8.17-3.78-1.27-.5-2.64-.67-4-.5-1.07.25-2.04.82-2.77,1.64-.36.32-.72,2.04-1.6.49-.4-1.21-.57-2.48-.49-3.75-.32-5.49-.25-11,.21-16.49.31-6.29,1-12.56,2.05-18.77.63-3.7,1.39-7.38,2.15-11.06,1.21-5.99,2.88-11.89,4.99-17.62,2.26-6.07,4.76-12.05,7.42-17.96,9.96-22.17,18.01-45.56,29.27-66.97,2.91-5.55,5.69-11.01,8.47-16.6,5.67-11.07,13.75-20.73,23.63-28.27,8.92-6.71,20.72-7.79,30.83-11.87,11.38-4.26,23.35-6.73,35.49-7.31,10.79-.73,23.22,1.53,33.57-1.17,11.34-2.92,22.06-7.88,31.63-14.63-.92,2.18-1.62,4.45-2.11,6.76-1.19,2.86-2.64,5.6-4.34,8.19-10.29,16.31,5.9,27.19,15.82,38.08,9.2,10.07,20.31,18.12,30.16,27.51,9.37,8.92,17.2,18.7,25.81,28.08l26.24,28.62c1.16,1.33,2.42,2.57,3.75,3.73,5.54,4.61,7.75-7.54,9.62-11.32,3.88-7.82,7.98-15.55,11.97-23.32,6.78-13.21,13.72-26.89,20.52-40.3,6.75-13.32,14.34-26.33,18.56-40.71,1.32-3.86,2.25-7.83,2.77-11.88.32-4-1.89-7.61-3.43-11.31,4.85,2.01,9.58,4.31,14.15,6.89,8.65,4.16,17.29,5.66,26.49,7.77,15.97,3.65,32.12,6.53,48.07,10.27,22.73,5.33,45.8,10.79,66.21,22.15,22.31,12.41,34.64,29.92,44.59,52.67,7.84,17.5,13.37,35.95,16.44,54.89,2.42,15.4,6.99,30.38,13.57,44.51,2.41,4.49,4.54,9.12,6.38,13.87,1.11,3.37,3.5,6.42,4.06,9.9,1.01,6.24-4.33,13.21-9.93,15.54-4.99,2.07-10.77,6.86-16.48,5.97-2.36-.37-1.97-.68-2.46-3.15-.09-1.78-.45-3.54-1.06-5.21-1.07-1.15-2.67-1.65-4.2-1.3-3.82.61-7.46,2.04-10.67,4.19-6.54,3.75-12.16,8.88-18.62,12.69-16.58,9.8-35.89,11.24-53.74,17.48-1.77.94-3.88.97-5.67.09-.72-.62-1.28-1.4-1.64-2.28-9.64-19.34-14.97-40.55-15.61-62.16" fill="#43ab8b"/>
          </g>
          <path id="r" data-name="Path 5421" d="m559.71,595.48c5.94-8.83,9.54-19.01,10.47-29.61-1.83-.14-3.01,2.12-3.77,4.11-3.83,10.27-7.13,20.74-9.89,31.36.78-2.09,1.85-4.06,3.19-5.85Z" fill="#2e7660" stroke="#d9eee8" stroke-linecap="round" stroke-linejoin="round" stroke-width="2.71"/>
          <path id="s" data-name="Path 5422" d="m660.53,440.21c.41,22-6.38,40.32-16.65,59.15-9.37,17.16-20.81,33.11-29.84,50.46-5.92,11.38-11.27,23.04-16.05,34.96-1.53,3.83-3.1,13.14-6.6,15.6-3.57,2.52-14.55,1.43-18.93,1.66-4.18.23-11.23,1.85-15.08-.24-6.5-3.52-10.84-14.98-15.54-20.69-4.77-5.77-9.54-11.55-14.65-17.03-7.53-8.07-15.76-15.46-23.97-22.84-9.62-8.64-18.65-17.83-27.82-27.04-10.47-10.51-19.97-21.95-28.38-34.16-4.5-5.96-7.9-12.68-10.01-19.84-2.08-7.27-.78-15.09,3.56-21.29" fill="none" stroke="#d9eee8" stroke-dasharray="0 0 7.66 4.96" stroke-linecap="round" stroke-miterlimit="10" stroke-width="3.72"/>
          <ellipse id="t" data-name="Ellipse 882" cx="635.79" cy="635.06" rx="29.09" ry="30.31" fill="#acacad"/>
          <circle id="u" data-name="Ellipse 883" cx="635.79" cy="633.52" r="27.22" fill="#caccce"/>
          <ellipse id="v" data-name="Ellipse 884" cx="635.79" cy="634.71" rx="20.67" ry="21.61" fill="#acacad"/>
          <path id="w" data-name="Path 5423" d="m401.82,645.48c3.66,33.67,7.51,68.04,21.72,98.78,6.06,13.1,14.66,26.01,27.8,31.98,13.14,5.97,31.47,2.13,37.3-11.07" fill="none" stroke="#caccce" stroke-linecap="round" stroke-miterlimit="10" stroke-width="6.3"/>
          <path id="x" data-name="Path 5424" d="m474.36,645.48c-3.66,33.67-7.51,68.04-21.72,98.78-6.06,13.1-14.66,26.01-27.8,31.98-13.14,5.97-31.47,2.13-37.3-11.07" fill="none" stroke="#caccce" stroke-linecap="round" stroke-miterlimit="10" stroke-width="6.3"/>
          <g id="y" data-name="Group 974">
            <path id="z" data-name="Path 5425" d="m439.71,579.85c3.41-15.38-.49-28.19-3.02-43.09-7.49-44.06-8.55-102.78,34.63-129.31,26.25-16.12,58.05-21.88,88.49-18.84,29.17,2.92,58.08,7.18,78.78,29.75,20,21.8,20.72,48.16,20.47,75.91-.63,29.19-4.17,58.24-10.56,86.72-2.77,15.25-7.09,30.18-12.89,44.56" fill="none" stroke="#666868" stroke-linecap="round" stroke-miterlimit="10" stroke-width="16"/>
            <path id="aa" data-name="Path 5426" d="m475.42,642.05c2.97-13.44.88-27.51-5.86-39.51-16.47-29.06-45.81-28.16-61.77,0-6.74,12-8.82,26.07-5.86,39.51" fill="none" stroke="#666868" stroke-linecap="round" stroke-miterlimit="10" stroke-width="16"/>
          </g>
          <circle id="ab" data-name="Ellipse 885" cx="635.79" cy="633.52" r="18.9" fill="#caccce"/>
          <path id="ac" data-name="Path 5427" d="m621.33,428.21c.99-1.03,2.12-1.91,3.37-2.61-8.3-7.75-14.51-17.46-18.07-28.24-1.95-5.82-3.34-11.81-4.14-17.89-22.55-5.64-46.77-16.49-70.19-10.1-19.3,5.27-36.01,15.23-56.26,15.74.38,7.35.08,14.72-.89,22.02-1.01,7.15-2.74,14.17-5.17,20.97.3.3.6.61.89.95,1.32,1.55,148.32,1.4,150.46-.83Z" fill="#6e381f" stroke="#6e381f" stroke-miterlimit="10" stroke-width="1.82"/>
          <path id="ad" data-name="Path 5428" d="m464.25,354.08c6.48,9.53,14.44,17.97,23.57,25.01,10.16,8.26,21.53,14.89,33.72,19.67,9.93,3.69,20.67,4.65,31.1,2.77,12.69-2.31,24.07-11.75,33.25-22.41,8.05-9.34,16.22-18.48,24.48-27.52-6.21-7.13-141.75-.74-146.12,2.49Z" fill="#462515"/>
          <path id="ae" data-name="Path 5429" d="m671.31,310.84c-1.49,13.78-11.35,25.74-23.61,32.23-5.71,3.22-12.18,4.88-18.74,4.8-6.62-.13-12.85-3.13-17.09-8.2-5.39-6.94-5.3-16.54-4.8-25.31.47-8.22,1.23-16.86,5.83-23.69,2.77-4.09,6.72-5.4,10.01-8.49,3.07-2.88,4.57-7.13,7.49-10.29,2.86-3.36,6.93-5.45,11.33-5.81,5.58-.17,10.54,3.38,14.63,7.18,10.62,9.48,16.15,23.41,14.93,37.59Z" fill="#311a0f"/>
          <g id="af" data-name="Group 975">
            <path id="ag" data-name="Path 5430" d="m646.94,211.32c6.35.68,12.15,3.92,16.06,8.97,11.14,16.09.98,35.97-6.5,50.65-.74,1.61-1.67,3.13-2.77,4.51-2.65,2.79-6.26,4.45-10.1,4.64-15.5,1.36-9.79-7.43-9.48-18.96.31-10.99-1.19-21.96-4.44-32.47-4.24-13.62,6.43-18.82,17.23-17.35Z" fill="#6e381f" stroke="#6e381f" stroke-miterlimit="10" stroke-width="1.82"/>
            <path id="ah" data-name="Path 5431" d="m430.78,211.32c-6.35.68-12.15,3.92-16.06,8.97-11.14,16.09-.97,35.97,6.51,50.65.74,1.61,1.67,3.13,2.77,4.51,2.65,2.79,6.26,4.45,10.1,4.64,15.5,1.36,9.79-7.43,9.48-18.96-.3-10.99,1.2-21.96,4.44-32.47,4.23-13.62-6.44-18.82-17.24-17.35Z" fill="#6e381f" stroke="#6e381f" stroke-miterlimit="10" stroke-width="1.82"/>
          </g>
          <path id="ai" data-name="Path 5432" d="m650.31,210.54c-.64-13.37.16-26.68.06-40.1.29-7.76-1.56-15.45-5.36-22.22-4.07-6.7-7.66-13.68-10.75-20.89-3.39-7.38-9.82-12.38-15.51-18.28-6.47-6.71-13.46-18.59-21.81-22.68-7.93-3.88-19.78-4.56-28.47-5.21-27.81-2.05-57.19-3.8-82.1,8.71-19.33,9.71-33.41,26.84-45.23,44.49-6.18,9.22-6.32,13.09-4.99,23.54,1.14,12.55.92,25.18-.65,37.68-.69,7.49-.61,15.26-2.95,22.32-2.27,6.52-4.18,13.15-5.72,19.88-.43,2-.8,4.02-1.11,6.07-1.63,9.71-2.3,19.57-2,29.41.53,10.42,4.08,18.59,7.26,28.27,3.94,11.98,10.72,21.29,18.29,31.12,7.14,9.28,14.03,18.76,21.32,27.93,6.2,7.55,13.61,14.02,21.92,19.15,9.39,6.16,19.59,11,30.31,14.38,9.06,2.71,18.6,3.41,27.95,2.03,11.4-1.68,21.64-8.59,29.88-16.37,10.7-10.12,21.62-20,32.77-29.64,6.35-5.49,10.02-12.16,14.83-19.07,5.1-7.35,10.34-14.6,15.26-22.07,6.63-10.04,8.66-26.58,9.99-38.41,2.3-20.1-2.21-39.98-3.17-60.04Z" fill="#6e381f" stroke="#6e381f" stroke-miterlimit="10" stroke-width="1.82"/>
          <g id="aj" data-name="Group 977">
            <g id="ak" data-name="Group 976">
              <path id="al" data-name="Path 5433" d="m565.98,209.09c.98-.82,2.06-1.51,3.22-2.06,2.29-1.08,4.22-2.75,6.56-3.82,1.52-.7,3.05-1.39,4.66-1.96.58-.21,1.18-.39,1.78-.55,2.7-.66,5.49-.96,8.27-.88.23,0,.45-.02.68-.02,1.56,0,3.13.11,4.67.34,1.79.17,3.56.38,5.3.69,2.83.86,5.73,1.44,8.67,1.74,1.85-.02,3.45-.75,5.46-.82-.53,1.04-1.32,2.13,1.15,1.86.17-.02.51.1.54.19.42,1.28,1.73.96,2.87.88,2.28-.16,2.85,2.06,2.18,2.8-.16-.53-.17-1.11-1.07-1.13-.37,0-.52.46-.52.76,0,.71.68.55,1.24.57-.04,0-.07.04-.12.05l.34-.02c.09.01.18.04.26.09-.02-.03-.03-.07-.05-.11.67-.05,1.42-.11,2.22-.22,1.22-.12,2.42-.43,3.54-.93.45-.24,1.75.35,1.24,1.27-.27.67-.69,1.27-1.23,1.75-1.58,1.11-.65,1.84.6,2.42.9.42.69.57.17,1.11-1.4,1.55-3.14,2.75-5.09,3.5-1.59.58-.88,1.48.66,1.14.35-.08-.49,1.52-.8,1.71-1.13.44-2.31.74-3.52.86-2.46.55-4.94,1.05-7.43,1.49-6.73,1.15-13.54,1.81-20.37,1.99-6.54.62-13.15.07-19.5-1.64-1.78-.43-3.46-1.2-4.95-2.27-.58-.54-.64-1-1.47-1.27s-1.66-.02-2.47-.32c-1.09-.5-1.77-1.61-1.7-2.81.08-1.17.5-2.3,1.2-3.24.77-1.17,1.72-2.22,2.79-3.12Z" fill="#0e0a0a"/>
              <path id="am" data-name="Path 5434" d="m621.66,207.65c.13-.03.25-.1.35-.2.02.07.05.14.08.21l-.21.02c-.07-.01-.14-.02-.21-.02Z" fill="#0e0a0a"/>
            </g>
            <path id="an" data-name="Path 5435" d="m617.37,211.88c.32,1.72-1.05,3.49-3.19,4.74-2.45,1.29-5.11,2.13-7.86,2.46-2.93.39-5.88.62-8.83.69l-9.86.42c-3.67.16-9.38,1.28-12.62-.8-.98-.78-2.07-1.41-3.23-1.89-.81-.25-1.66-.25-2.5-.44-6.74-1.48,3.65-7.46,5.31-8.22,4.3-1.89,8.89-3.05,13.57-3.44,5.86-.5,11.77-.08,17.5,1.26,2.51.59,4.8,1.32,7.32,1.8,2,.18,3.7,1.5,4.38,3.39Z" fill="#fff"/>
          </g>
          <path id="ao" data-name="Path 5436" d="m421.52,123.26c6.28-16.55,15.77-31.69,27.94-44.55,8.18-9.3,17.28-17.76,27.14-25.25,9-6.53,20.68-6.71,31.16-9.55,8.61-2.03,17.33-3.55,26.12-4.58,17.21-2.09,34.66-.15,50.99,5.65,27.2,9.72,50.87,27.35,67.98,50.62,5.39,7.08,9.88,14.81,13.37,22.99,2.14,5.51,1.91,10.97,2.97,16.68,3.59,19.49,7.89,36.18,3.36,56.18-2.39,9.46-5.48,18.73-9.25,27.73-2.63,6.75-6.14,14.34-13.11,16.32-.7-5.99-1.73-11.94-3.09-17.82-1.29-6.75,1.06-13.9.87-20.73-.23-8.84-1.4-17.63-3.51-26.22-4.09-16.86-11.73-32.66-22.4-46.34-5.74-7.69-12.93-14.19-21.18-19.1-13.66-7.66-29.91-8.78-45.54-9.71-15.75-.95-31.9-1.86-46.98,2.77-9.78,3.18-18.89,8.14-26.87,14.63-17.51,13.95-30.56,32.72-37.54,53.99-3.51,10.59-3.78,21.22-6.09,31.95,0,4.08-4.19,8.21-5.12,12.1-1.24,5.14-.74,11.55-1.14,16.87-3.83-.78-5.81-4.92-7.21-8.56-10.06-25.87-11.15-48.6-7.69-75.97.87-6.86,2.49-13.6,4.83-20.11Z" fill="#311a0f"/>
          <g id="ap" data-name="Group 979">
            <g id="aq" data-name="Group 978">
              <path id="ar" data-name="Path 5437" d="m507.11,209.09c-.98-.82-2.07-1.51-3.22-2.06-2.29-1.08-4.22-2.75-6.56-3.82-1.52-.7-3.05-1.39-4.66-1.96-.58-.21-1.18-.39-1.78-.55-2.7-.66-5.49-.96-8.27-.88-.23,0-.45-.02-.68-.02-1.56,0-3.13.11-4.67.34-1.79.17-3.56.38-5.31.69-2.83.86-5.73,1.44-8.67,1.74-1.85-.02-3.46-.75-5.46-.82.53,1.04,1.32,2.13-1.15,1.86-.17-.02-.51.1-.54.19-.42,1.28-1.73.96-2.87.88-2.29-.16-2.85,2.06-2.18,2.8.16-.53.16-1.11,1.07-1.13.37,0,.52.46.52.76,0,.71-.68.55-1.24.57.04,0,.07.04.12.05l-.34-.02c-.09.01-.18.04-.26.09.02-.03.03-.07.05-.11-.67-.05-1.42-.11-2.22-.22-1.22-.12-2.42-.43-3.54-.93-.45-.24-1.75.35-1.23,1.27.27.67.69,1.27,1.23,1.75,1.58,1.11.65,1.84-.6,2.42-.9.42-.7.57-.17,1.11,1.4,1.55,3.14,2.75,5.09,3.5,1.58.58.88,1.48-.67,1.14-.35-.08.49,1.52.8,1.71,1.13.44,2.31.73,3.52.86,2.46.55,4.94,1.05,7.43,1.49,6.73,1.15,13.54,1.81,20.37,1.99,6.54.62,13.15.07,19.5-1.64,1.78-.43,3.46-1.2,4.95-2.27.58-.54.64-1,1.48-1.27.8-.25,1.66-.02,2.47-.32,1.09-.5,1.77-1.61,1.71-2.81-.09-1.17-.5-2.3-1.2-3.24-.78-1.17-1.72-2.22-2.8-3.12Z" fill="#0e0a0a"/>
              <path id="as" data-name="Path 5438" d="m451.43,207.65c-.13-.03-.25-.1-.35-.2-.02.07-.05.14-.08.21l.21.02c.07-.01.14-.02.21-.02Z" fill="#0e0a0a"/>
            </g>
            <path id="at" data-name="Path 5439" d="m455.72,211.88c-.32,1.72,1.05,3.49,3.19,4.74,2.45,1.29,5.11,2.13,7.86,2.46,2.93.39,5.88.62,8.83.69l9.86.42c3.67.16,9.38,1.28,12.62-.8.98-.78,2.07-1.41,3.23-1.89.81-.25,1.66-.25,2.5-.44,6.74-1.48-3.65-7.46-5.31-8.22-4.3-1.89-8.89-3.05-13.57-3.44-5.86-.5-11.77-.08-17.5,1.26-2.52.59-4.8,1.32-7.32,1.8-2,.18-3.7,1.5-4.38,3.39Z" fill="#fff"/>
          </g>
          <path id="au" data-name="Path 5440" d="m522.48,217.23c.45-3.04-.03-6.15-1.39-8.92-.4-.83-1.03-2.06.73-2.61,1.36-.53,2.91.06,3.58,1.35.82,1.86,1.3,3.85,1.43,5.88,1.27,5.45-1.25,12.41-4.04,17.39-2.34,3.87-4.91,7.59-7.71,11.14-2.09,2.81-3.28,6.19-3.4,9.69.16,1.21-.27,2.43-1.15,3.27-2.61,1.77-4.64,4.28-5.83,7.21-.86,1.86-1.07,3.96-.59,5.95.69,2.19,3.68,2.94,7.34,2.13,4.34-.96,8.86-2.06,12.73.83,1.37,1.02,2.51,2.3,3.88,3.3,2.56,1.88,5.77,2.64,8.9,2.11,2.9-1.06,5.65-2.47,8.2-4.2,2.59-1.36,5.4-2.24,8.3-2.59,2.92-.05,5.83.38,8.6,1.29.89.19,2.94.75,3.35,1.72.55,1.3-.9,1.65-1.96,1.63-5.21-.36-10.45-.27-15.64.28-.84.11-1.66.29-2.47.53-2.04.67-2.92,2.38-4.67,3.33-1.9,1.04-4.03,1.58-6.2,1.54-2.6-.16-5.13-.97-7.34-2.35-1.71-1.3-3.65-2.27-5.71-2.87-1.3-.12-2.61-.14-3.91-.07-4.44.02-7.99-2.05-12.15-2.81-3.23-.3-5.61-3.15-5.31-6.38,0-.03,0-.06,0-.09.05-3.76,1.62-7.34,4.34-9.93,2.13-1.88,2.11-4.64,2.85-7,1.25-4.12,3.38-7.91,6.24-11.13,3.49-3.8,6.08-8.34,7.56-13.28.62-2.09,1.1-4.21,1.42-6.37Z" fill="#462515"/>
          <path id="av" data-name="Path 5441" d="m573.38,266.4c-.06,1.81-1.06,3.46-2.64,4.35-.45.28-.87.62-1.39.22-.46-.34-.56-.99-.23-1.45,2.11-4.26-.28-6.92-2.92-9.43-1.34-1.47-2.42-3.16-3.19-4.99-.31-.6-.57-1.41.04-1.94s1.19,0,1.78.33c3.32,1.82,8.77,8.06,8.54,12.93Z" fill="#462515"/>
          <path id="aw" data-name="Path 5442" d="m610.66,228.46c-14.55,1.39-29.23-.13-43.19-4.47,13.22,7.21,28.78,8.82,43.19,4.47Z" fill="#462515" stroke="#462515" stroke-linejoin="round" stroke-width=".46"/>
          <path id="ax" data-name="Path 5443" d="m499.51,182.49c3.1,1.75,6.2,3.63,9.83,1.66.83-.46,3.85-4.58,3.2-6.75-.55-1.92-2.07-2.39-3.08-3.54-2.72-3.11-6.68-3.7-10.27-4.76-3.31-.68-6.68-.97-10.06-.86-3.83-.22-7.67-.17-11.5.14-2.95.12-5.89.57-8.74,1.36-2.39.85-5.06.73-7.19,2.47-.75.61-1.91.44-2.77.62-1.2.21-2.33.7-3.29,1.43-1.03.83-2.14.73-3.03,1.93-1.11,1.51-2.54,2.77-3.69,4.27-.62.8-.97,1.78-1.54,2.57-.47.64-1.11.95-1.61,1.6-.34.4-.46.95-.29,1.45.18.47.72.71,1.19.53.02,0,.05-.02.07-.03.32-.21.44-.61.62-.95.34-.64,2.25-1.43,2.92-1.9,4.69-3,10.06-4.78,15.61-5.17,4.58-.85,9.28-.8,13.84.16,1.8.15,3.61.11,5.41-.11,2.08-.21,4.17-.03,6.18.53,1.46.31,2.87.79,4.21,1.44l1.36.59c.9.41,1.77.86,2.63,1.35Z" fill="#311a0f"/>
          <path id="ay" data-name="Path 5444" d="m507.88,203.66c-5.39-4.3-11.92-6.92-18.79-7.54-7.25-.77-14.57-.39-21.69,1.14-7.05,1.39-14.11,3.74-18.52,7.97,7.42-6.86,17-10.91,27.09-11.45,11.27-.41,22.79,1.52,31.39,9.33" fill="#462515" stroke="#462515" stroke-linejoin="round" stroke-width="1.82"/>
          <path id="az" data-name="Path 5445" d="m500.47,219.73c-.26-.58-.8-1.18-.98-1.71-.28-1.73-.27-3.49.02-5.22-.34-4.38-3.19-8.16-7.31-9.69-9.22-4.11-30.14-.22-31.28,9.39-.47,2.06-1.76,3.83-3.56,4.93-.37.3-.79.72-.55,1.11.28.45,1.92.55,2.5.76,1.23.47,2.36,1.14,3.61,1.61,2.47.95,5.06,1.55,7.69,1.81,3.8.26,7.62.24,11.42-.07l14.68-.8c.96,0,1.91-.15,2.83-.44,1.17-.46,1.22-1.06.95-1.68Z" fill="#0e0a0a"/>
          <path id="ba" data-name="Path 5446" d="m464.7,214.3c.02,3.28,2.4,6.07,5.64,6.6,3.32.69,6.73.91,10.11.66,3.61.19,7.24.15,10.85-.12,3.48-.96,5.95-4.05,6.1-7.66-.09-5.55-7.49-9.94-16.52-9.79-9.03.14-16.28,4.77-16.19,10.32Z" fill="#47160d"/>
          <path id="bb" data-name="Path 5447" d="m495.14,215.98c-.2,2.81-1.99,5.25-4.61,6.3-3.18,1.29-8.32.3-11.93.15-1.97-.02-3.94-.22-5.87-.6-3.44-.77-6.08-2.64-6.12-5.39-.07-4.63,6.25-8.49,14.13-8.6,7.88-.12,14.34,3.51,14.4,8.14Z" fill="#0e0a0a"/>
          <ellipse id="bc" data-name="Ellipse 886" cx="478.6" cy="212.19" rx="3.24" ry="2.41" transform="translate(-3.35 7.73) rotate(-.92)" fill="#b09077"/>
          <path id="bd" data-name="Path 5448" d="m565.95,203.66c5.39-4.3,11.92-6.92,18.79-7.54,7.25-.77,14.57-.39,21.69,1.14,7.05,1.39,14.11,3.74,18.52,7.97-7.42-6.85-17-10.91-27.09-11.45-11.27-.41-22.79,1.52-31.39,9.33" fill="#462515" stroke="#462515" stroke-linejoin="round" stroke-width="1.82"/>
          <path id="be" data-name="Path 5449" d="m573.36,219.73c.26-.58.8-1.18.98-1.71.28-1.73.27-3.49-.02-5.22.34-4.38,3.2-8.16,7.32-9.69,9.22-4.11,30.14-.22,31.27,9.39.47,2.06,1.76,3.83,3.56,4.93.37.3.79.72.55,1.11-.28.45-1.92.55-2.48.76-1.23.47-2.36,1.14-3.61,1.61-2.47.95-5.06,1.55-7.69,1.81-3.8.26-7.62.24-11.42-.07l-14.68-.8c-.96,0-1.91-.15-2.82-.44-1.18-.46-1.24-1.06-.96-1.68Z" fill="#0e0a0a"/>
          <path id="bf" data-name="Path 5450" d="m609.14,214.3c-.02,3.28-2.41,6.07-5.65,6.6-3.32.69-6.73.91-10.11.66-3.62.19-7.24.15-10.85-.12-3.48-.96-5.95-4.05-6.1-7.66.09-5.55,7.49-9.94,16.52-9.79,9.03.14,16.28,4.77,16.19,10.32Z" fill="#47160d"/>
          <path id="bg" data-name="Path 5451" d="m578.51,215.98c.2,2.81,1.99,5.25,4.61,6.3,3.18,1.29,8.32.3,11.93.15,1.97-.02,3.94-.22,5.87-.6,3.44-.77,6.08-2.64,6.12-5.39.07-4.63-6.25-8.49-14.13-8.6-7.88-.12-14.32,3.51-14.41,8.14Z" fill="#0e0a0a"/>
          <ellipse id="bh" data-name="Ellipse 887" cx="590.87" cy="212.19" rx="2.41" ry="3.24" transform="translate(369.19 799.57) rotate(-89.08)" fill="#b09077"/>
          <path id="bi" data-name="Path 5452" d="m575.07,181.99c-3.21,1.47-6.92,1.35-10.03-.33-2.24-1.65-2.99-4.66-1.8-7.18,1.42-2.06,3.59-3.48,6.05-3.97,1.29-.59,2.64-1.02,4.03-1.3,3.57-.06,7.12-.35,10.65-.89,1.96-.3,3.95-.24,5.89.17,4.87.55,9.75.93,14.62,1.39,3.28.11,6.51.84,9.53,2.14,1.47.75,2.66,1.68,4.16,2.38,1.61.68,3,1.78,4.03,3.19,1.27,1.87,2.98,3.42,4.14,5.37.22.37,3.27,6.56,2,6.51-1.41,0-2.77-.55-3.78-1.54-.81-1.1-1.69-2.15-2.63-3.15-1.8-1.73-3.99-3.02-6.38-3.75-.78-.32-1.96-1.36-2.74-1.46-5.29-.67-10.59-1.03-15.85-1.62-4.53-.18-9.07.16-13.53,1-1.47.25-2.9.67-4.27,1.26l-1.39.54c-.92.37-1.83.79-2.71,1.26Z" fill="#311a0f"/>
          <path id="bj" data-name="Path 5453" d="m463.16,228.46c14.55,1.39,29.23-.13,43.19-4.47-13.22,7.21-28.78,8.82-43.19,4.47Z" fill="#462515" stroke="#462515" stroke-linejoin="round" stroke-width=".46"/>
          <path id="bk" data-name="Path 5454" d="m529.61,264.75c5.28,1.18,10.77,1.05,15.98-.39,1.1-.46,2.37-.15,3.15.75.7,1.15-.94,1.11-1.8,1.44-5.99,1.84-12.35,2.06-18.45.64-1.06-.2-2.1-.51-3.09-.92-1.19-.51-1.89-1.05-1.44-1.92.47-.91,1.5-.31,2.38-.12,1.08.22,2.18.36,3.27.53Z" fill="#462515"/>
          <g id="bl" data-name="Group 980">
            <path id="bm" data-name="Path 5455" d="m676.88,160.96c.69-4.69-.28-9.48-2.73-13.54-.84-1.18-1.85-2.24-2.99-3.13.08-.93.06-1.87-.07-2.8-1.6-17.44-4.76-34.71-9.43-51.59-18.34-60.53-91.37-58.37-142.49-52.83-24.16,2.62-48.18,9.16-68.67,21.8-3.66,2.21-7.14,4.7-10.41,7.45-10.76,9.65-18.53,22.18-22.39,36.11-3.85,12.96-5.73,26.43-5.57,39.96-.74.49-1.46.99-2.15,1.55-1.7,1.35-3.02,3.12-3.83,5.14-1.28,4.02-1.75,8.26-1.39,12.46-.12,2.33.22,4.66,1,6.85,1.97,4.64,7.6,6.97,12.76,6.85,5.13-.48,10.15-1.83,14.82-4.01,58.05-22.39,123.52-19.1,184.86-6.9,10.16,2.02,36.27,8.26,38.51,8.75l13.85,3.05c1.25.38,2.58.46,3.86.22,4.38-1.19,2.17-12.17,2.45-15.4Z" fill="#43ab8b"/>
            <path id="bn" data-name="Path 5456" d="m413.11,141.45c9.95-3.37,21.14-6.6,31.49-9.12,10.91-2.64,21.96-4.8,33.15-6.48,22.5-3.37,45.24-4.76,67.98-4.16,42.06,1.11,84.21,7.35,123.77,20.98" fill="none" stroke="#d9eee8" stroke-dasharray="0 0 7.66 4.96" stroke-linecap="round" stroke-miterlimit="10" stroke-width="3.72"/>
          </g>
          <path id="bo" data-name="Path 5457" d="m514.73,303.88c13.17-1,26.38-1.28,39.58-.85,5.6.24,10.96-.72,16.63.11,2.41.35,4.79.85,7.13,1.5,1.5.41,2.99,1.16,4.49,1.5,1.5.1,3,.28,4.48.55,7.43,2.57-4.61,11.4-7,13.14-5.87,4.34-12.4,7.72-19.33,10.02-8.04,2.27-16.42,3.13-24.76,2.54-8.67-.21-17.27-1.66-25.53-4.32-8.98-2.89-20.6-7-25.27-15.62-.8-1.36-1.38-2.85-1.71-4.4-.36-2.22.5-2.05,2.67-2.18,9.51-.6,19.05-1.37,28.61-1.99Z" fill="#7d4337"/>
          <path id="bp" data-name="Path 5458" d="m506.59,307c.85.16,1.68.39,2.5.67,1.9.38,3.78-.71,5.71-.9,1.08-.08,2.16.04,3.19.37.81.39,1.69.65,2.58.75,1.81-.16,3.48-1.21,5.34-1.24,1.92.17,3.81.65,5.58,1.42,2.57.63,5.28.4,7.7-.66,2.81-.83,4.9.55,7.67.55,2.02-.27,4.06-.41,6.1-.42,2.08.59,4.22.94,6.38,1.03,1.34-.22,2.69-.32,4.04-.32,1.53.23,2.97.82,4.23,1.72,1.23.73,3.13.23,4.59.7.61.2,1.19.46,1.8.65,1.89.49,3.7,1.29,5.33,2.37,1.86,1.29,2.69,3.62,2.06,5.8-1.25,3.29-6.35,4.05-9.29,4.95-3.82,1.16-7.69,2.11-11.61,2.86-7.74,1.44-15.6,2.22-23.47,2.31-11.68.18-23.71-1-34.09-6.35-2.47-1.39-4.87-2.9-7.19-4.53-1.19-.87-2.47-1.62-3.82-2.22-.76-.28-2.05-.23-2.5-.99-.25-.54-.35-1.15-.28-1.75-.21-1.72.36-3.45,1.55-4.72,3.92-2.93,9.08,1.42,13.09-.88.73-.56,1.56-.97,2.46-1.18.11-.01.23-.02.34-.01Z" fill="#fffaf6"/>
          <path id="bq" data-name="Path 5459" d="m595.42,306.99c.26-.68-.02-1.46-.66-1.81-.6-.22-1.24-.27-1.86-.16-5.7-.02-11.35-1.03-16.71-2.97-6.83-1.96-14.61-4.74-21.85-4.86-7.41-.12-14.9,1.7-22.18,1.3-8.18-.45-16.13-2.76-24.37-1.66-5.01.66-9.86,2.22-14.81,3.29-4.92,1.29-10.07,1.35-15.01.16-1.2-.35-2.77-.7-3.47.33-.82,1.19,4.28,4.84,5.27,5.93,1.96,2.34,3.68,4.88,5.12,7.56,1.51,2.38,3.14,4.68,4.89,6.89,5.88,7.99,12.13,15.31,21.34,19.48,3.02,1.33,6.11,2.48,9.27,3.42,2.7.82,5.5,1.29,8.32,1.39,5.4.58,10.86.5,16.25-.24,5-.56,9.85-1.99,14.35-4.24,5.83-3.6,11.3-7.75,16.34-12.39,3.17-2.82,5.53-6.32,8.42-9.43,1.93-2.08,3.97-4.06,6.1-5.93,2.06-1.81,4.65-3.16,5.24-6.05Zm-9.33,5.32c-.74.51-1.57.89-2.44,1.11-5.66,1.81-10.84,4.18-16.4,6.27-5.78,2.36-11.74,4.26-17.82,5.67-4.23,1.01-8.56,1.54-12.91,1.57-4.67-.08-9.33-.67-13.87-1.75-3.84-.91-7.41-2.71-11.2-3.63-3.93-1.23-7.75-2.81-11.4-4.72-4.29-1.93-8.47-4.08-12.54-6.45-.63-.3-1.17-.76-1.58-1.33-.41-.59-.32-1.4.2-1.9.46-.26.99-.35,1.51-.25,2.14.34,4.31.48,6.48.44,1.92-.2,3.93-.82,5.87-1.11,9.27-1.15,18.65-1.08,27.89.22,10.1,1.15,20.1-.28,30.19-.5,5.03-.11,10.06.26,15.02,1.11,2.28.39,4.52.99,6.76,1.53,1.93.19,3.84.5,5.73.93,1.31.54,1.63,1.87.52,2.76Z" fill="#55240e"/>
          <path id="br" data-name="Path 5460" d="m609.67,306.91c-1.19,2.83-2.7,5.51-4.52,7.99l-6.33,9.38c1.86-2.08,3.93-3.96,6.16-5.62,2.39-2.16,4.6-4.51,6.6-7.04,1.72-2.68,2.65-5.79,2.69-8.97.28-1.79.55-14.33-2.86-10.59-1.2,1.32-.24,5.55-.31,7.18-.08,2.62-.56,5.2-1.43,7.67Z" fill="#462515" stroke="#462515" stroke-linejoin="round" stroke-width=".92"/>
          <path id="bs" data-name="Path 5461" d="m461.66,296.55c-.4,2.96-.05,5.97,1.02,8.76,1.05,2.73,2.33,5.36,3.83,7.87-1.64-5.92-1.91-12.13-.79-18.17.32-1.71,2.27-5.95-.55-4.81-1.95.78-3.17,4.33-3.5,6.35Z" fill="#462515" stroke="#462515" stroke-linejoin="round" stroke-width=".88"/>
          <circle id="bt" data-name="Ellipse 888" cx="387.53" cy="765.32" r="9.47" fill="#caccce"/>
          <circle id="bu" data-name="Ellipse 889" cx="489" cy="765.32" r="9.47" fill="#caccce"/>
        </g>
      </g>
    </g>
  </g>
</svg>