<?xml version="1.0" encoding="UTF-8"?>
<svg id="b" data-name="Layer 2" xmlns="http://www.w3.org/2000/svg" viewBox="0 0 1024 1024">
  <g id="c" data-name="Layer 1">
    <g>
      <ellipse cx="305.55" cy="468.14" rx="25.53" ry="44.8" transform="translate(-252.65 498.68) rotate(-60)" fill="#2f7761"/>
      <path d="m437.95,167.98l44.49,87.77c5.54,10.93-2.83,23.75-15.06,23.08l-98.25-5.36c-12.23-.67-19.16-14.33-12.46-24.59l53.77-82.41c6.69-10.26,21.98-9.43,27.52,1.5Z" fill="#63bfa4"/>
      <path d="m579.98,216.11l-8.38,98.04c-1.04,12.21-14.91,18.71-24.96,11.7l-80.71-56.28c-10.05-7.01-8.74-22.26,2.35-27.46l89.09-41.76c11.09-5.2,23.65,3.56,22.61,15.76Z" fill="#63bfa4"/>
      <path d="m655.28,355.34l-65.96,73.01c-8.21,9.09-23.19,5.88-26.95-5.78l-30.25-93.63c-3.77-11.66,6.5-23.02,18.48-20.45l96.21,20.62c11.98,2.57,16.69,17.14,8.47,26.23Z" fill="#63bfa4"/>
      <path d="m611.11,486.83l-82.98,52.88c-10.33,6.58-23.91-.49-24.45-12.72l-4.3-98.3c-.54-12.24,12.38-20.47,23.25-14.81l87.28,45.42c10.87,5.66,11.54,20.95,1.21,27.54Z" fill="#63bfa4"/>
      <path d="m509.97,884.64c-15.66,1.98-31.89,3.12-47.63,1.43-7.12-.77-16.37-1.78-22.12-6.6-3.32-2.78-9.11-13.35-.2-12.04-2.31,6.61-11.72,7.02-17.73,7.23-12.97.46-60.13,9.68-61.95-12.45-.45-5.47,4.56-9.39,9.11-11.93,4.55-2.55,10.51-2.63,15.28-4.7,16.97-7.39,11.85-16.03,1.55-28.38-33.43-40.08-29.04-83.84-17.06-132.61,6.04-24.56,13.65-47.69,12.96-74.72-.12-4.79-3.4-35.61-7.09-36.63-40.94-11.32-78.04-16.37-114.48-36.17-27.59-15-49.28-37.13-58.63-66.69-4.45-14.08-7.29-29.66,10.16-33.44,20.81-4.51,41.1,1.69,59.13,12.08,18.5,10.67,31.34,25.78,53.5,29.78,1.24.22,2.52.41,3.73.09s2.34-1.29,2.46-2.54c.47-5.03-11.13-4.63-14.07-5.54-7.75-2.41-16.51-7.79-23.85-11.63-8.55-4.48-16.61-9.96-23.47-16.77-14.9-14.79-31.16-28.76-44.26-45.42-17.69-22.5-28.72-45.73-29.76-75.39-.77-21.78,10.37-46.16,29.82-56.82,22.1-12.12,41.14,4.54,64.6-2.43,14.27-4.24,26.28-15.07,40.4-23.07,34.54-19.56,78.09-28.4,117.24-23.31,41.68,5.41,79.23,20.69,106.91,50.91,69.23,75.55,55.73,182.64-3.95,259.67-9.43,12.17-26.27,24.26-31.58,40.26-4.25,12.79-6.67,32.66-.71,44.79,7.78,15.85,27.34,7.92,39.08,1.45,13.04-7.19,23.05-17.72,32.05-29.51,15.8-20.7,27.4-42.99,36.7-67.43,9.3-24.44,14.37-51.43,36.02-68.29,15.56-12.12,34.39-14.15,53.55-11.79,32.14,3.96,59.28,19.39,87.56,34.41,28.28,15.02,54.34,31.48,86.79,37.09,32.45,5.61,62.53-2.17,85.73-26.08,4.4-4.53,7.84-10.16,14.35-8.67,3.32.76,5.14,3.34,6.34,6.34,11.67,29.04,4.6,58.42-18.66,79.4-23.25,20.99-51.78,25.82-81.71,27.85-24.38,1.65-49.25-.97-67.42,17.14-12.53,12.49-12.76,30.46-24.27,43.33-12.42,13.88-30.01,18.41-48.05,18.99-54.4,1.75-104.47,3.03-150.64,34.94,29.96,15.99,57.23,33.9,75.88,62.9,10.41,14.91,15.87,31.96,34.1,39.51,19.5,8.09,41.37,3.48,62.59,8.59,21.21,5.1,48.15,11.52,60,32.47,10.19,18.02,11.78,40.31.21,58.66-10.83,17.18-34.06,27.22-53.43,32.25-19.38,5.03-33.72,2.04-54.84,3.11-23.98,1.21-63.85,6.42-64.23,38.58-.06,5.22,3.27,9.98.15,14.53-2.22,3.25-5.75,4.2-9.52,3.86-18.24-1.63-31.4-15.55-30.45-33.81.58-11.08,7.44-20.01,15.08-26.62,26.32-22.75,64.37-20.01,96.65-24.74,17.01-2.49,28.79-5.01,40.92-17.01,8.33-8.24,23.59-26.32,6.32-34.09-17.02-7.66-52.95,5.28-72.9,1.98-8.83-1.46-31.61-8.7-27.27-22.1-7.54,13.26-11.12,26.79-11.7,41.99-.17,4.47.07,8.93-3.67,11.83-2.02,1.57-4.32,1.48-6.74,1.54-11.86.28-22.49.24-34.93-.08-6.23-.16-23.84,3.16-28.14-2.05-10.47-12.67,2.39-20.46,12.47-24.67,2.61-1.09,4.31-2.91,4.78-5.71-17.94-.32-35.8,3.29-54.11,1.93-5.92-.44-11.78,1.87-16.69-2.53-2.11-1.89-3.28-4.58-6.61-4.64-3.32-.06-5.12,2.85-6.19,5.9-1.07,3.05.3,6.16-1.43,9.29-4.89,8.87-10.3,11.52-22.04,13Z" fill="#45a98c"/>
      <path id="d" data-name="Path 10471" d="m24.78,229.44c-5.56-26.99-3.34-55.18,11.77-76.83,18.18-26.04,44.1-43.73,51.56-76.21,2.42-10.53-.84-20.94-6.97-29.46-1.42-1.98-13.95-14.77-12.09-17.14,4.09-5.12,26.98,9.42,30.35,12.83,8.77,8.87,13.02,23.21,14.22,35.32,3.08,30.91-15.3,58.97-13.01,88.59,1.66,21.51,25.21,41.65,45.32,30,10.96-6.35,14.58-20.23,16.64-32.72,1.93-11.69-.33-21.14-6.97-30.76,8.18-1.9,22.34,5.45,28.62,10.2,32.73,24.71,37.46,81.57,26.21,118.58-7.35,24.19-26.66,47.14-30.61,71.75-3.63,22.61,10.2,48.99,27.07,63.04,11.85,9.87,26.38,15.87,39.36,24.19,14.92,9.56,28.05,25.84,41.16,37.98-14.32-9.92-30.92-9.24-47.34-7.35-12.16,1.4-23.64,7.32-34.27,13.01-29.98,16.05-58.97,18.35-91.3,6.47-33.09-12.16-62.8-39.42-78.59-70.82-9.9-19.69-10.69-40.52-2.46-61.19,1.35-3.39,2.99-6.78,5.7-9.21,1.99-1.79,4.33-2.77,7.02-2.57,1.64.12,1.68,18.52,2.5,21.15,3.94,12.58,17.3,23.05,30.79,20.78,45.76-7.71-16.01-64.65-25.87-77-13.24-16.59-23.96-39.15-28.8-62.62Z" fill="#f69320"/>
      <path d="m153.94,454.22c-9.91,0-20.08-1.97-31.09-6.01-26.71-9.81-51.5-32.05-64.9-58.16,5.73,2.29,11.82,3.52,17.94,3.52,2.55,0,5.1-.21,7.59-.63,23.92-4.03,32.11-18.2,34.87-26.28,9.2-26.97-13.58-54.65-39.81-83.01-2.41-2.61-5.14-5.56-6.04-6.68-11.32-14.17-20.07-33.27-24.01-52.4-2.78-13.48-5.45-38.95,7.91-58.09,5.09-7.29,11.11-14.09,17.49-21.28,1.46-1.64,2.94-3.31,4.42-5.01-1.66,8.95-2.59,18.38-1.83,28.22,2.34,30.22,28.44,55.76,56.99,55.76,8.67,0,16.95-2.25,24.6-6.69,15.47-8.97,22.26-24.13,25.58-36.24,9.53,21.1,10.38,51.35,3.63,73.57-2.53,8.32-7.33,17.35-12.42,26.92-7.53,14.16-16.07,30.21-18.93,48.05-5.43,33.89,14.58,68.06,35.48,85.47,8.51,7.09,17.78,12.37,26.17,17-8.02,2.95-15.6,6.83-23.2,10.89-13.95,7.47-27.18,11.1-40.44,11.1Z" fill="#ffce05"/>
      <path d="m658.4,554.81c2.95-13.51,3.54-27.5,7.25-40.82,8.67-31.12,38.81-40.87,68.06-30.37,17.02,6.11,31.58,17.42,46.25,27.99,52.15,37.57,133.26,31.79,187.41,1.3-3.96,2.24-6.49,24.36-10.07,30.27-5.41,8.94-11.12,14.29-20.94,18.21-17.52,7.01-38.15,3.6-56.51,4.94-27.12,1.98-50.02,5.63-71.7,23.77-12.33,10.31-16.82,24.28-26.58,35.27-25.75,29.01-69.41,13.62-102.16,12.41-36.39-1.35-69.34,11.65-96.68,32.39-10.73,8.14-17.21,9.97-29.88,2.92-7.21-4.01-19.57-13.69-13.02-23.11,4.32-6.21,41.55-9.08,50.94-13.49,33-15.49,59.76-45.68,67.63-81.68Z" fill="#63bfa4"/>
      <ellipse cx="396.42" cy="350.76" rx="42.76" ry="34.51" transform="translate(-132.73 337.26) rotate(-40.04)" fill="#2f7761"/>
      <ellipse cx="394" cy="341.08" rx="42.76" ry="34.51" transform="translate(-123.21 404.78) rotate(-47.9)" fill="#d9eee8"/>
      <ellipse cx="390.92" cy="333.92" rx="37.15" ry="27.41" transform="translate(-93.72 505.51) rotate(-60)" fill="#19372d"/>
      <path d="m257.27,317.4c7.42,1.88,2.28-39.52-20.14-31.45-4.65,1.68-7.35,8.11-4.25,11.96,8.58.68,16.6,6.31,20.15,14.16.97,2.15,1.96,4.75,4.25,5.33Z" fill="#2f7761"/>
      <path d="m447.45,344.05c-.75-15.28-2.19-30.07-14.62-41.68-10.58-9.88-27.39-9.78-40.94-10.22-2.87-.09-5.93-.09-8.36,1.45-4.26,2.71-1.66,6.27-3.41,9.53-2.61,4.85-7.95,7.98-11.98,11.5-4.12,3.59-6.64,8.69-8.7,13.66-2.04,4.93-3.8,10.08-6.79,14.54-2.46,3.67-6.1,6.97-5.97,11.76.21,7.56,5.79,17.62,9.22,24.27,4.48,8.65,13.63,14.78,23.15,16.51,4.66.84,8,.47,11.76-2.17,2.2-1.55,1.53-5.29-.63-6.89-3.14-2.32-7.84-1.34-11.39-2.75-4.39-1.75-9-5.25-12.2-8.68-8.25-8.83-6.63-24.67-5.06-35.74,1.61-11.35,8.63-24.91,18.86-30.91,8.74-5.13,20.41-8.92,29.94-2.86s20.73,18.02,22.99,29.34c.89,4.44,2.31,8.52,2.76,12.93.49,4.84.47,8.81,3.33,13.07,1.17,1.74,2.96,3.43,5.04,3.18,2.77-.34,3.93-3.8,3.71-6.59-.35-4.42-.51-8.86-.72-13.27Z" fill="#2f7761"/>
      <circle cx="384.13" cy="324.93" r="6.05" fill="#63bfa4"/>
      <path d="m535.22,861.03c8.51,1.49,17.02,2.95,25.59,3.72,9.96.89,19.97,1.51,29.97,1.31,7.23-.14,20.21.89,26-4.47.09-.08,1.66-1.98,1.27-1.96-17.7.84-37.47.99-54.62-4.13-15.81-4.72-30.97-14.65-44.98-23.22-14.53-8.89-28.34-18.97-41.22-30.12-20.18-17.47-39.46-36.34-53.66-59.22-12.53-20.17-20.69-43.65-19.59-67.37,2.16-46.52,38.81-86.87,37.93-133.42-16.63,27.21-49.41,33.7-78.69,27.97-.03,0-.06-.01-.1-.02,3.96,1.01,7.93,2.05,11.96,3.17,3.69,1.02,6.96,31.84,7.09,36.63.69,27.02-6.92,50.16-12.96,74.72-9.23,37.56-15.16,78.29,4.18,113.8,9.49,17.42,16.47,25.12,34.71,33.7,18.65,8.77,38.34,15.33,58.52,19.55,10.9,2.28,21.91,2.93,32.9,4.5,11.83,1.69,23.95,2.82,35.69,4.88Z" fill="#63bfa4"/>
      <path d="m539.36,824.7c-.28,7.22-.57,14.44-.85,21.66-.31,7.99-2.71,9.31-5.06,15.98-1.07,3.05.3,6.16-1.43,9.29-4.89,8.87-10.3,11.52-22.04,13-14.68,1.86-80.33,8.54-74.42-17.77,1.13-5.04,11.21-9.13,14.57-13.41,8.83-11.26,8.55-25.25,9.87-38.66,1.42-14.43,9.21-28.11,20.89-36.69,7.18-5.28,16.11-8.7,24.97-7.65,11.7,1.39,21.38,10.4,26.76,20.89,5.38,10.48,7.21,21.58,6.75,33.36Z" fill="#43ab8b"/>
    </g>
    <rect width="1024" height="1024" fill="none"/>
  </g>
</svg>