<?xml version="1.0" encoding="UTF-8"?>
<svg id="b" data-name="Layer 2" xmlns="http://www.w3.org/2000/svg" viewBox="0 0 1024 1024">
  <g id="c" data-name="Layer 1">
    <rect x="92.78" y="92.78" width="838.44" height="838.44" fill="none" stroke="#6aa5cf" stroke-linejoin="round" stroke-width="96.57"/>
    <g>
      <g>
        <path d="m854.38,747.53c-.88,1.59-1.05,3.54-1.44,5.61-.19,1.03-.38,2.12-.06,3.12.72,2.19,3.56,2.9,5.82,2.47,4.31-.82,10.95-2.28,12.64-7,.59-1.65,1.4-3.08.59-4.87-.62-1.35-1.86-2.35-3.23-2.93s-2.87-.79-4.35-.9c-1.75-.13-3.54-.15-5.23.35-2.2.65-3.67,2.19-4.75,4.16Z" fill="#941b1e"/>
        <path d="m740.13,551.03s-1.3,13.89-1.33,15.03c-.15,5.65.41,11.33,1.65,16.84.87,3.87,2.08,7.66,3.65,11.3,2.65,6.16,6.33,11.87,10.83,16.84,4.6,5.09,10.24,7.97,5.45,15.43-4.93,7.68-15.34,12.46-22.58,17.64-18.76,13.42-42.06,20.45-65.11,19.79-32.28-.92-63.52-16.37-85.32-40.19-2.57-2.81-5.11-5.91-5.89-9.64-2-9.57,7.8-17.04,16.11-22.2,15.99-9.94,18.83-29.67,15.98-47.46-.26-1.6-.79-3.32-1.79-4.6,7.31,2.03,14.45,4.61,21.76,6.65,5.66,1.58,11.33,3.15,17.09,4.27,28.75,5.59,60.22.23,89.51.31Z" fill="#a36d35"/>
        <path d="m611.92,542.62c11.26,11.83,24.27,21.63,36.01,33.04,6.49,6.3,17.85,11.58,26.6,12.74,8.09,1.08,16.37-.96,23.89-4.41,7.52-3.45,14.38-8.29,21.21-13.09,6.65-4.68,14.61-8.91,19.85-15.21" fill="#7b5227"/>
        <path d="m576.65,493.6c3.81,14.64,13.47,27.02,23.8,38.07,15.77,16.86,34.04,30.22,51.88,44.51,6.82,5.46,19.35,9.98,28.19,10.24,11.47.35,21.93-6.05,31.6-12.21,6.06-3.86,12.12-7.73,18.18-11.59,13.31-8.48,26.82-17.13,37.21-29.01,13.43-15.35,20.92-35.77,20.6-56.17-.2-12.23-3.06-24.72.15-36.53,1.55-5.68,4.48-11.1,4.57-16.98.19-12.07-11.18-20.81-21.77-26.61-14.65-8.03-30.15-14.52-46.16-19.31-12.96-3.88-26.28-6.66-39.78-7.54-9.3-.6-18.63-.3-27.93.19-11.06.58-21.68,3.46-32.5,4.1-10.76.64-20.51,6.57-29.32,12.27-5.33,3.45-11.02,7.48-12.69,13.61-1.09,3.99-.27,8.22.56,12.27,1.26,6.19,3.24,11.87,2.12,18.28-.99,5.65-4.01,11.08-5.53,16.37-4.28,14.88-7.17,30.76-3.2,46.04Z" fill="#a36d35"/>
        <path d="m570.7,423.97c-5.32.18-10.87,2.23-14.21,6.13-5.33,6.24-6.63,21.17-4.49,28.98.75,2.75,2.22,5.25,3.81,7.62,5.17,7.73,12.47,14.9,21.68,16.17-1.72-14.51.43-29.46,6.16-42.91,4.7-11.03-3.78-16.3-12.95-15.99Z" fill="#a36d35"/>
        <path d="m801.98,447.58c5.17,1.25,10.19,4.39,12.67,8.87,3.96,7.19,2.22,22.07-1.46,29.29-1.29,2.54-3.24,4.69-5.27,6.7-4.76,4.69-9.91,7.88-16.05,10.38-2.04.83-4.8,2.45-7,2.47-.7,0-6.33-1.66-6.05-1.84,6-3.87,7.21-12,7.78-19.12,1.03-12.82-7.64-42.3,15.37-36.75Z" fill="#a36d35"/>
        <path d="m586.8,429.75c2.07-5.35,3.96-10.67,3.79-16.57-.13-4.28-3.96-10.49-2.32-13.79,2.65-5.34,13.96-9.61,19.19-11.88,8.32-3.61,17.5-5.37,26.47-6.38,6.43-.73,12.98-.96,19.32.34,10.38,2.13,19.46,8.19,28.25,14.11,5.22,3.52,10.44,7.04,15.66,10.57,2.58,1.74,5.46,3.56,8.56,3.22,5.32-.59,7.84-7.1,7.43-12.44-.42-5.33-2.58-10.59-1.81-15.88,13.79,11.31,27.82,22.31,42.09,33,5.74,4.3,12.92,7.82,20.17,8.28,3.63.23,7.33-.32,10.45-2.31,1.77-1.13,6.34-5.89,7.91-2.32.38.88.35,1.87.28,2.82-.6,8.48-4.23,15.88-7,23.8-.95,2.73-1.88,5.8-1.4,8.73.34,2.08,4.14,5.38,4.16,6.41-.28-15.36,16.49-22.8,21.74-37.07,3.74-10.16,4.6-21.22,3.73-32.01-.32-3.99-.87-8.03-.19-11.97.68-3.95,2.85-7.89,6.51-9.51.93-.41,2.02-.74,2.48-1.65.41-.81.15-1.78-.15-2.63-3.38-9.46-11.87-16.38-21.16-20.22-9.29-3.83-19.42-5-29.4-6.13,11-5.82,17.49-19.14,15.29-31.39-6.97,8.02-19.37,7.09-29.98,6.52-18.97-1.03-38.11,1.24-56.3,6.68-5.86,1.75-11.97,3.85-17.96,2.63-.79-.16-1.62-.41-2.17-1-.79-.86-.79-2.16-.73-3.32.16-3.59.33-7.19.49-10.78-16.36-2.84-33.95,2.67-45.77,14.33-.32-11.16-9.57-21.39-20.64-22.84,3.58,6.84,4.31,15.12,1.99,22.49-5.96-3.41-14.34-1.87-20.48,1.2-6.14,3.08-11.05,8.08-15.77,13.07-6.38,6.75-12.72,13.77-16.57,22.22-1.85,4.06-3.09,8.37-4.23,12.68-3.04,11.46-5.46,23.7-1.96,35.03,1.98,6.41,6.1,11.48,8.3,17.68.1.28.2.56.42.76.28.26.7.31,1.08.35,3.89.39,8.95,0,12.4,1.94,1.51.84,2.73,2.4,3.62,3.84.51.82.94,1.72,1.16,2.66.14.58.12,1.18.12,1.77,0,.6-.06,1.23.23,1.79.44-.51.77-1.48,1.12-2.11.41-.73,1.3-3.91,1.62-4.74Z" fill="#0f0b0b" stroke="#000" stroke-linecap="round" stroke-linejoin="round" stroke-width=".3"/>
        <path d="m572.83,428.94c1.34.22,3.08.5,3.91,1.71.44.64.53,1.71-.37,1.98-.87.26-1.97-.46-2.8-.67-2.67-.67-5.63-.34-8.09.89-1.42.71-2.64,1.75-3.48,3.1-.95,1.52-1.08,3.27-2.11,4.74-.19.27-.42.54-.73.61-.79.17-.8-.99-.73-1.46.56-3.72,2.85-7.14,6.07-9.09,2.39-1.45,5.51-2.27,8.34-1.8Z" fill="#7b5227" stroke="#7b5227" stroke-miterlimit="10" stroke-width=".23"/>
        <path d="m704.12,495.38c.49-1.44.5-3.09.08-4.48-.27-.89-.82-1.67-1.2-2.51-.45-.98-.27-2.45.8-1.41.97.93,1.42,2.46,1.88,3.69,1.11,2.95.81,6.36-1.57,8.54-1.77,1.63-4.22,2.28-6.58,2.29-2.5,0-4.9-.87-7.31-.65-2.34.21-4.78.63-7.17.86-.98.1-1.96.1-2.93.03-1.89-.14-3.78-.6-5.53-1.24-1.12-.41-2.37-.6-3.53-.92-2.27-.61-3.79-1.13-6.14-1.4s-4.55-.82-6.24-2.45c-1.6-1.54-2.38-3.86-2.33-6.12.04-1.67.44-3.53,1.24-4.98.39-.71.93-1.44,1.72-1.71,1.21-.41,1.73.1.72,1.06-.56.53-1.02,1.14-1.34,1.86-.55,1.25-.71,2.64-.8,4.01-.08,1.23-.07,2.58.67,3.55,1.04,1.37,3.03,1.39,4.7,1.12,2.95-.49,5.25-.05,7.89,1.39,2.47,1.35,4.3,3.84,7.13,4.32,2.36.4,5.48.91,7.56-.63,1.43-1.05,2.52-1.77,4.27-2.13,2-.41,4.1-.46,6.06.15,2.13.67,4.37,1.79,6.35.17.75-.62,1.28-1.47,1.6-2.42Z" fill="#7b5227" stroke="#7b5227" stroke-linecap="round" stroke-linejoin="round" stroke-width=".36"/>
        <path d="m675.6,454.1c-.62,4.17-1.93,8.26-3.79,12.05-.74,1.5-2.35,1.57-1.61-.4.57-1.52,1.39-2.94,1.85-4.51,1.91-6.45,2.12-13.02.51-19.52-.7-2.81-2.18-5.42-3.36-8.1-.34-.77-.83-1.77.23-2.22,3.07-1.31,5.26,7.64,5.67,9.32,1.06,4.37,1.17,8.94.5,13.39Z" fill="#7b5227"/>
        <path d="m692.45,486.36c-.02.13-.08.26-.2.38-.27.29-.75.34-1.15.24-.65-.16-1.04-.82-1.51-1.23-.51-.45-1.06-.85-1.65-1.2-1.13-.68-2.38-1.18-3.68-1.49-2.6-.62-5.39-.49-7.9.31-.93.29-1.8.71-2.58,1.25-.7.49-1.26,1.12-1.95,1.59-.39.26-.9.41-1.37.28s-.84-.6-.72-1.03c.19-.65,1.6-1.28,2.19-1.6.96-.54,1.96-1.01,3-1.4,2.03-.77,4.22-1.23,6.44-1.18,2.43.05,4.75.88,6.87,1.93.72.36,4.4,1.91,4.22,3.14Z" fill="#7b5227" stroke="#7b5227" stroke-linecap="round" stroke-linejoin="round" stroke-width=".38"/>
        <path d="m798.88,452.02c-1.36-.05-3.12-.13-4.18.88-.56.54-.87,1.57-.03,2.02.8.43,2.02-.05,2.88-.09,2.75-.12,5.58.81,7.75,2.51,1.25.98,2.23,2.25,2.79,3.74.63,1.68.4,3.43,1.11,5.07.13.3.3.61.59.74.74.33.98-.81,1.01-1.29.2-3.76-1.35-7.57-4.11-10.13-2.05-1.9-4.94-3.34-7.81-3.45Z" fill="#7b5227" stroke="#7b5227" stroke-miterlimit="10" stroke-width=".23"/>
        <path d="m734.11,418.82c3.84.43,7.65,1.13,11.36,2.08,6.45,1.65,13.37,3.99,18.16,8.02.89.75,1.78,1.48,2.59,2.28,1.47,1.46,2.7,3.07,3.98,4.62.74.89,2.66,3.83.02,3.89-.85.02-1.52-.62-2.14-1.02-.49-.32-.85-.72-1.35-1.03-.48-.29-1.02-.57-1.51-.8-1.26-.61-2.52-1.23-3.8-1.8-1.2-.54-2.52-.93-3.78-1.36-.81-.28-1.64-.54-2.47-.78-4.55-1.33-9.28-2.16-14.02-2.76-4.64-.59-9.34-.7-14.01-.93-2.58-.12-5.34-.04-7.78-.82-2.51-.81-4.21-2.5-4.04-4.6.15-1.82,1.39-3.56,3.43-4.41,2.01-.84,4.35-1.11,6.64-1.14,2.94-.04,5.79.23,8.72.56Z" fill="#0f0b0b" stroke="#0f0b0b" stroke-miterlimit="10" stroke-width=".32"/>
        <path d="m763.06,459.58c-5.52-1.81-10-5.66-15-8.4-4.89-2.69-10.3-4.5-15.87-5.05-4.45-.43-8.92.95-12.83,3.12-2.29,1.27-4.52,2.94-6.52,4.63-1.63,1.38-4.81,1.46-5.06,4.13,1.54.76,3.4.95,5.1.98,7.43.15,14.85.83,22.18,2.02,4.89.8,9.89,1.82,14.76.87,4.23-.82,9.14-3.65,13.23-2.3Z" fill="#fff"/>
        <path d="m729.83,460.33c5.22.8,10.43,1.93,14.32-2.29,1.45-1.57,3.66-6.36,1.97-8.26-1.17-1.32-4.65-1.92-6.35-2.38-2.46-.66-4.99-1.09-7.55-1.2-2.07-.09-4.19.07-6.17.62-.9.25-4.59,1.39-4.68,2.46-1.86,1.75-1.51,4.35-.41,6.45,1.69,3.22,5.31,4.05,8.86,4.59Z" fill="#0f0b0b" stroke="#0f0b0b" stroke-miterlimit="10" stroke-width=".38"/>
        <path d="m765.71,453.92c-5.47-3.31-10.99-6.61-17.01-9.14-6.02-2.54-12.59-4.3-19.24-4.36-6.65-.06-13.4,1.71-18.12,5.5,3.84-4.49,10.32-7.6,17.01-7.75,7.92-.17,15.41,3.14,22.43,6.43,5.52,2.58,10.93,5.23,14.94,9.33Z" fill="#7b5227" stroke="#7b5227" stroke-linecap="round" stroke-linejoin="round" stroke-width=".49"/>
        <circle cx="730.78" cy="452.03" r="2.19" fill="#7b5227" stroke="#7b5227" stroke-linecap="round" stroke-linejoin="round" stroke-width=".34"/>
        <g>
          <path d="m713.67,457.64c.04-1.05-.62-2.5-1.18-2.91-.82-.59-1.36-.13-2.13.34-.37.22-3.56,2.22-2.55,2.72.98.49,2.19.83,3.29.87.34.01,1.98.09,2.2-.1.24-.21.35-.54.37-.92Z" fill="#7b5227"/>
          <path d="m755.06,455.99c-.32.1-.62.32-.88.73-.35.56-.42,1.24-.49,1.89-.27,2.78,2.01,1.27,3.64.87,1.87-.46,3.88-.74,5.75-.12-1.64-.54-3.21-1.27-4.72-2.09-.93-.51-2.24-1.6-3.31-1.28Z" fill="#7b5227"/>
        </g>
        <path d="m763.06,459.58c-5.52-1.81-10-5.66-15-8.4-4.89-2.69-10.3-4.5-15.87-5.05-4.45-.43-8.92.95-12.83,3.12-2.29,1.27-4.52,2.94-6.52,4.63-1.63,1.38-4.81,1.46-5.06,4.13,1.54.76,3.4.95,5.1.98,7.43.15,14.85.83,22.18,2.02,4.89.8,9.89,1.82,14.76.87,4.23-.82,9.14-3.65,13.23-2.3Z" fill="none" stroke="#0f0b0b" stroke-linecap="round" stroke-linejoin="round" stroke-width="1.45"/>
        <path d="m720.6,448.45c1.75-1.04,3.66-1.85,5.63-2.38,1.87-.51,4.45-.84,6.37-.57,6.57.91,12.59,4.53,17.13,9.22,1.93,2,3.84,4.17,6.26,5.61,1.33.79,2.88,1.3,4.42,1.13-1.82-1.22-3.57-2.54-5.23-3.97-1.59-1.36-2.95-2.95-4.5-4.34-3.73-3.34-8.67-4.89-13.32-6.45" fill="none" stroke="#0f0b0b" stroke-linecap="round" stroke-linejoin="round" stroke-width="1.45"/>
        <path d="m639.94,410.58c-3.86-.25-7.73-.21-11.55.08-6.64.51-13.86,1.61-19.28,4.74-1.01.58-2.01,1.14-2.95,1.8-1.7,1.18-3.19,2.55-4.73,3.86-.88.75-3.29,3.31-.69,3.82.83.17,1.61-.35,2.28-.63.54-.23.96-.57,1.51-.78.52-.2,1.11-.38,1.62-.53,1.35-.38,2.69-.77,4.06-1.11,1.28-.32,2.64-.48,3.96-.69.85-.13,1.7-.25,2.56-.34,4.71-.52,9.51-.51,14.29-.28,4.67.23,9.32.93,13.96,1.52,2.56.32,5.27.89,7.81.54,2.61-.36,4.59-1.73,4.78-3.82.17-1.82-.75-3.75-2.62-4.94-1.83-1.17-4.09-1.84-6.34-2.27-2.89-.55-5.74-.78-8.68-.96Z" fill="#0f0b0b" stroke="#0f0b0b" stroke-miterlimit="10" stroke-width=".32"/>
        <path d="m604.35,445.7c5.75-.83,10.83-3.84,16.23-5.67,5.29-1.8,10.93-2.65,16.51-2.21,4.45.35,8.62,2.48,12.09,5.3,2.03,1.65,3.94,3.68,5.62,5.7,1.37,1.64,4.49,2.28,4.26,4.94-1.65.48-3.52.34-5.2.08-7.34-1.14-14.77-1.76-22.2-1.86-4.96-.07-10.06.07-14.69-1.7-4.02-1.55-8.37-5.18-12.63-4.57Z" fill="#fff"/>
        <path d="m636.94,452.21c-5.29-.12-10.61.09-13.71-4.74-1.15-1.8-2.5-6.9-.51-8.48,1.38-1.1,4.92-1.08,6.67-1.24,2.54-.22,5.11-.21,7.64.13,2.05.28,4.11.79,5.97,1.68.84.4,4.27,2.16,4.18,3.24,1.53,2.04.73,4.55-.72,6.42-2.23,2.88-5.94,3.06-9.52,2.98Z" fill="#0f0b0b" stroke="#0f0b0b" stroke-miterlimit="10" stroke-width=".38"/>
        <path d="m602.72,439.66c5.96-2.31,11.97-4.6,18.34-6.05,6.37-1.45,13.15-2.05,19.71-.96,6.56,1.1,12.9,4.01,16.89,8.57-3-5.08-8.84-9.28-15.41-10.58-7.77-1.55-15.72.42-23.2,2.43-5.88,1.58-11.68,3.25-16.33,6.59Z" fill="#7b5227" stroke="#7b5227" stroke-linecap="round" stroke-linejoin="round" stroke-width=".49"/>
        <circle cx="633.64" cy="443.53" r="2.19" fill="#7b5227" stroke="#7b5227" stroke-linecap="round" stroke-linejoin="round" stroke-width=".34"/>
        <g>
          <path d="m653.33,452.36c.14-1.04,1.04-2.35,1.67-2.66.9-.44,1.36.11,2.04.7.32.28,3.12,2.8,2.04,3.12-1.05.31-2.3.44-3.39.29-.34-.05-1.97-.26-2.15-.48-.2-.25-.25-.59-.2-.97Z" fill="#7b5227"/>
          <path d="m612.85,443.54c.3.15.56.43.74.88.25.61.2,1.29.15,1.95-.21,2.79-2.19.9-3.73.22-1.77-.78-3.69-1.4-5.65-1.12,1.71-.25,3.38-.69,5.01-1.24,1-.34,2.49-1.18,3.48-.69Z" fill="#7b5227"/>
        </g>
        <path d="m604.35,445.7c5.75-.83,10.83-3.84,16.23-5.67,5.29-1.8,10.93-2.65,16.51-2.21,4.45.35,8.62,2.48,12.09,5.3,2.03,1.65,3.94,3.68,5.62,5.7,1.37,1.64,4.49,2.28,4.26,4.94-1.65.48-3.52.34-5.2.08-7.34-1.14-14.77-1.76-22.2-1.86-4.96-.07-10.06.07-14.69-1.7-4.02-1.55-8.37-5.18-12.63-4.57Z" fill="none" stroke="#0f0b0b" stroke-linecap="round" stroke-linejoin="round" stroke-width="1.45"/>
        <path d="m648.1,442.11c-1.54-1.33-3.28-2.45-5.13-3.32-1.75-.82-4.23-1.6-6.18-1.67-6.63-.24-13.18,2.27-18.47,6.11-2.25,1.63-4.5,3.44-7.14,4.44-1.45.55-3.07.78-4.55.35,2-.88,3.95-1.89,5.84-3,1.81-1.06,3.42-2.39,5.18-3.49,4.25-2.65,9.39-3.31,14.24-4.04" fill="none" stroke="#0f0b0b" stroke-linecap="round" stroke-linejoin="round" stroke-width="1.45"/>
        <path d="m717.26,524.71c.27-.06.52-.14.84-.2.32-.06.72-.19,1.03,0,2.35,1.4-1.4,4.06-2.14,4.73-2.28,2.08-3.97,3.85-5.93,5.73-2.77,2.65-5.37,5.67-8.51,7.63-3.14,1.96-5.87,3.47-9.47,4.14-7.22,1.34-14.35,1-21.54-.24-4.4-.76-8.32-2.23-12.12-4.31-3.79-2.08-6.39-5.09-9.47-7.94-3.09-2.86-6.01-5.58-9.48-8.27-.85-.66-2.92-1.83-1.65-3.2.33-.36.93-.27,1.46-.2,3.17.47,6.18,1.31,9.42,1.54,3.24.23,5.79-.39,9.17-.95,3.38-.56,7.19-1.56,10.93-1.52s7.26,1.43,11.23,1.37c3.97-.05,8.35-.42,12.37.71,4.02,1.12,8.12,2.04,12.29,2.35,2.59.19,4.99-.14,7.51-.49,1.39-.19,2.69-.57,4.07-.88Z" fill="#b25537" stroke="#7b5227" stroke-linecap="round" stroke-miterlimit="10" stroke-width="1.92"/>
        <path d="m683.45,529.75c-2.73.07-5.16.11-7.81-.16-4.36-.44-8.46-1.03-12.88-1.35-4.42-.32-9.03-.98-13.47-1.69-.42-.07-1.13-.47-1,.37.61,4.07,10.74,7.61,13.05,8.45,5.51,2.01,8.59,2.59,13.19,3.21,4.6.62,8.52.34,12.72.39,4.19.05,7.6-.56,11.31-1.76,2.21-.71,4.47-1.88,6.25-2.77,1.78-.89,2.76-1.57,4.25-2.45.67-.4,1.53-.98,1.9-1.36.38-.38.76-1.26.23-1.26-3.27.04-6.88.39-10.13.11-3.25-.28-6.5-.28-9.59-.18-1.73.06-3.87.24-5.21.31-1.33.07-1.85.13-2.8.15Z" fill="#7b5227"/>
        <path d="m703.7,531.68c.22-.37.82-1.79.7-2-.04-.07-.14-.09-.23-.09-1.4-.12-2.81-.35-4.21-.39-3.12-.07-6.18-.27-9.31-.13-2.97.13-5.94.29-8.92.27-2.35-.01-4.7-.19-7.02-.6-3.27-.58-6.58-.94-9.9-1.19-1.51-.11-3-.14-4.52-.22-2.7-.16-5.39-.11-8.09-.26-.14,0-.3-.01-.42.06-.19.11-.21.37-.16.58.12.5.54.89.95,1.23,2.05,1.67,4.51,2.52,7.05,3.26,6.93,2.03,14.52,3.11,21.72,3.59,4.04.27,8.1.3,12.12.08,3.73-.2,8.26-.84,10.23-4.19Z" fill="#fffaf7"/>
        <path d="m463.01,882.79h57.38c1.28-10.43,2.46-20.9,2.85-31.45.45-11.93,1.31-24.32,4.12-36.36,4.81-20.68,8.61-41.68,10.06-62.88,1.1-16.09-3.53-32.09,13.13-41.1,6.84-3.7,14.67-6.1,20.02-11.75,7.33-7.74,8.09-19.42,8.43-30.08.39-12.16.4-25.47-7.23-34.93-7.22-8.96-19.73-12.08-31.2-11.29-30.89,2.15-55.71,28.69-65.64,58.02-3.33,9.83-4.45,18.34-4.31,28.47.15,11.19-3.06,22.75-3.89,33.98-1.78,24-.72,48.67.44,72.31,1.08,21.97-4.21,44.59-4.16,67.06Z" fill="#a36d35"/>
        <path d="m793.98,782.64c4.82,11.86,10.88,23.21,18.07,33.82,9.45,13.93,22.53,33.76,40.44,36.61,12.01,1.91,27.35-2.3,36.26-10.34,7.72-6.96,12.7-15.49,18.65-23.83,4.58-6.41,9.36-11.04,12.95-18.29,9.19-18.57,16.2-38.14,19.94-58.55,1.88-10.26,3.6-20.55,5.12-30.87,2.88-19.51,3.25-42.66,17.66-58.07,3.19-3.41,7.04-5.74,10.6-8.76,3.61-3.05,6.89-6.46,9.79-10.14,2.28-2.9,3.85-4.46,6.87-6.55,3.18-2.2,6.37-4.45,8.94-7.32,2.58-2.88,10.79-11.78,6.24-15.87-.76-.68-1.85-.83-2.88-.94-7.76-.87-10.38,6.07-15.5,10.26-2.2,1.8-4.4,3.59-6.59,5.39-1.29,1.06-2.75,3.02-4.57,3.17.97-3.66,4.8-6.37,7.63-8.7,2.4-1.98,5.16-3.5,7.43-5.73,4.46-4.39,7.69-10.1,11.51-14.78,2.55-3.12,5.19-4.91,6.06-9.09.4-1.93.16-4.07-1.1-5.63-4.59-5.67-10.55,2.2-13.01,5.53-2.2,2.97-4.97,5.48-7.73,7.97-1.32,1.19-2.63,2.4-3.93,3.61-.71.67-1.43,1.34-2.15,2-1.89,1.76-3.8,3.48-5.72,5.2-.23.2-1,.77-1.04,1.04.18-1.34,2.12-2.51,3.07-3.41,1.36-1.3,2.69-2.62,4-3.97,2.96-3.04,5.71-6.26,8.51-9.43,3.79-4.28,6.6-9.28,10.22-13.7,2.64-3.23,5.16-7.55,2.51-11.69-2.84-4.42-7.42-3.8-10.36-.38-4.16,4.85-7.62,10-11.85,14.72-3.45,3.85-5.87,8.14-10.04,11.52-2.07,1.68-3.7,3.75-5.72,5.47-2.41,2.05-7.27,4.16-5.62-.72.83-2.43,2.49-4.71,3.96-6.82,2.71-3.88,5.83-7.52,8.16-11.64,1.85-3.28,3.42-6.7,5.62-9.75,1.83-2.53,3.15-5.39,2.72-8.62-.27-2.04-1.45-4.04-3.34-5-9.13-4.61-15.35,14.36-18.74,19.19-6.39,9.1-15.1,16.19-22.83,24.16-2.32,2.39-7.43,11.08-10.69,11.61-8.98,1.45-3.23-15.68-2.18-19.69,1.42-5.43,3.53-11.53-3.5-14.13-7.65-2.83-6.53,2.71-8.98,7.18-3.01,5.51-5.5,9.53-6.17,15.85-.48,4.46-2.3,8.11-3.3,12.37-1.43,6.12-1.52,12.54-.59,18.74.88,5.89.87,12.32,2.72,18.03,5.66,17.38.12,37.68-8.6,52.94-8.78,15.36-15.76,31.7-21.64,48.37-1.41,4-2.63,8.08-4.06,12.08-1.24,3.48-2.8,4.18-4.57.69-2.04-4.02-1.05-8.92-2.23-13.13-2.86-10.25-7.01-20.12-11.14-29.95-3.13-7.45-6.75-15.68-13.47-20.86-6.68-5.15-12.15-1.84-20.12-1.58-11.79.39-31.22,3.39-33.73,16.64-5.01,19.42.44,37.46,5.86,56.02,1.76,6.02,3.82,11.94,6.18,17.74Z" fill="#a36d35"/>
        <path d="m459.43,737.32c18.2,8.14,34.95,15.02,53.65,23.97,5.25,2.52,23.84,11.6,27.78,2.83,5.9-13.15,6.99-25.82,12.79-38.61-.31.73-.4,1.46-.52,2.18-4.54,26.11-5.55,52.54-7.86,78.91-2.23,25.47-5.78,50.74-9,76.18h225.03c-.91-13.82-.55-27.71.23-41.57,1.32-31.55,5.88-63.05,10.17-94.29-.31,9.46,8.28,20.08,11.68,28.76,4.1,10.48,25.69-1.09,32.82-3.69,13.17-4.8,25.89-10.8,37.81-18.19,2.56-1.58,4.82-3.49,7.83-4.58,1.42-.51,2.93-.72,4.43-.81.76-.05,1.51-.06,2.27-.06.43,0,1.43.27,1.58-.16.34-.98.77-1.97,1.03-2.98.15-.58-.07-1.12-.22-1.71-.34-1.32-.7-2.64-1.07-3.96-1.17-4.16-2.25-8.44-3.79-12.48-3.41-8.93-5.23-18.37-6.88-27.75-2.19-12.45-4.15-25.08-9.1-36.71-7.05-16.55-19.17-24.81-34.8-32.17-8.21-3.86-16.45-8.33-24.76-12.23-8.19-3.85-17.29-8.23-26.42-9.06-2.75-.25-5.66-.3-8.39.15-2.6.43-4.19,2.3-6.43,3.66-6.66,4.04-11.46,9.46-17.93,13.58-21.39,13.63-42.63,22.59-68.42,19.65-25.79-2.94-43.6-16.82-60.51-35.25-4.69-5.11-7.71-11.72-12.99-15.26-5.28-3.55-7.38-2.56-12.83-1.35-.73.16-1.3.59-2.02.83-6.02,2-12.51,1.59-18.65,2.19-11.78,1.15-23.56.93-34.63,5.43-16.02,6.5-28.63,16.85-38.45,30.93-8.96,12.84-12.16,27.54-16.83,42.11-5.15,16.07-7.92,32.53-11.69,48.95-.56,2.44-1.09,4.79-.2,7.31.89,2.52,2.81,4.16,5.3,5.27Z" fill="#aa1f23"/>
        <path d="m769.72,607.28c-2.61-3.74-4.3-9.06-9.89-8.16-4.01.64-7.2,5.84-9.94,8.56-9.62,9.54-19.87,18.56-31.5,25.5-11.63,6.95-24.73,11.77-38.26,12.41-18.71.89-37.21-6.34-52.24-17.52-7.74-5.76-14.66-12.54-20.91-19.88-3.14-3.68-6.1-7.51-8.93-11.43-1.51-2.09-5.12-10.14-7.72-10.38-3.03-.26-5.45,1.42-7.86,2.97-2.44,1.57-5.06,2.92-7.62,4.32-.74.41-1.6,1.08-1.38,1.89,5.96.42,8.78,4.03,12.08,8.52,3.21,4.38,6.59,8.65,10.15,12.75,6.92,7.96,14.56,15.33,23.01,21.66,16.32,12.22,35.98,20.53,56.35,21.27,10.08.36,20.22-1.13,29.77-4.38,13.7-4.66,25.33-13.62,36.09-23.06,5.35-4.69,10.52-9.58,15.82-14.33,4.76-4.27,7.98-8.46,14.71-7.44,0-1.44-.85-2.02-1.72-3.27Z" fill="#204c68"/>
      </g>
      <g>
        <path d="m502.2,707.98c-3.03,3.02-7.07,4.7-11.02,6.28-10.04,4.01-20.16,7.79-30.36,11.36-5.64,1.97-13.06,3.12-18.2,6.11-3.94,2.29-18.11,8.83-13.52-1.97,1.16-2.72,3.39-4.93,5.39-7.04,3.88-4.11,9.12-6.65,14.09-9.16,11.71-5.9,23.96-10.69,36.53-14.31,3.84-1.1,14.45-5.81,18.15-3.62,4.84,2.86,2.11,9.2-1.07,12.36Z" fill="#468fc3"/>
        <path d="m418.92,696.36c7.5,16.54,12.89,34.03,16.07,51.9,3.7,20.84,2.61,41.55,7.06,62.25,2.75,12.8,3.7,25.96,4.25,38.63.49,11.28,1.72,22.48,3.04,33.64h53.73c-.15-13.97-2.03-27.86-3.35-41.76-2.5-26.3-.86-52.89-2.56-79.34-1.9-29.47-5.92-58.81-12.06-87.7-1.8-8.46-3.82-17.01-7.98-24.6-6.54-11.92-17.85-20.51-29.76-27.07-8.02-4.42-16.76-8.15-25.92-8.17-20.52-.05-30.53,18.27-25.41,36.4,4.66,16.52,15.85,30.31,22.88,45.81Z" fill="#f6d4a6"/>
        <path d="m372.55,315.31c24.71,8.57,44.64,28.78,54.99,52.8,2.89,6.7,5.08,13.68,7.14,20.68,3.39,11.56,6.42,23.28,7.77,35.25,3.74,33.21-5.4,65.93-9.29,98.67-.98,8.28-1.66,16.6-1.71,24.94-.03,5.68,2.8,15.09,1.15,20.32-2.61,8.26-15.72,4.09-22.05,6.2-5.45,1.82-12.71,5.71-14.33-2-1.32-6.27-1.01-13.72-3-19.62-.99,4.38-.86,9.24-1.97,13.77-.78,3.18-2.05,6.57-4.89,8.22-2.04,1.19-4.52,1.25-6.89,1.29-4.76.09-9.77.3-13.85,2.76-1.79,1.08-3.46,2.6-5.54,2.74-1.14.07-2.27-.29-3.38-.57-4.28-1.08-8.89.06-13.17.6-4.67.59-9.33,1.22-13.99,1.86-9.11,1.26-18.21,2.59-27.33,3.85-15.6,2.16-32.52,3.29-48.25,1.5-3.78-.43-7.71-1.07-11.31.17-4.26,1.46-7.69,5.44-12.2,5.49-4.28.04-7.83-3.72-9.01-7.83-1.17-4.11-.52-8.5.15-12.72-.5,5.75-1.45,11.94-3.99,17.18-.58,1.2-1.29,2.41-2.43,3.09-.97.58-2.13.71-3.25.82-1.64.17-3.29.32-4.93.46-2.32.2-4.77.36-6.88-.64-1.12-.53-2.02-1.34-2.81-2.28-2.54-3-3.92-7.54-5.58-11.06-2.17-4.59-4.3-9.19-6.38-13.82-4.16-9.25-8.12-18.6-11.74-28.08-7.2-18.88-13.05-38.34-16.3-58.32-6.03-37.12-2.52-76.84,16.28-109.4,18.8-32.57,54.55-56.5,92.13-55.12,9.68.36,18.63,2.67,26.97,7.6,5.4,3.19,5.53,2.89,10.88-.61,3.92-2.56,7.99-4.81,12.32-6.62,17.81-7.45,38.45-7.91,56.66-1.59Z" fill="#0a0a13" stroke="#0a0a13" stroke-miterlimit="10" stroke-width="1.23"/>
        <path d="m265.07,602.04c-7.58,9.4-19.85,15.99-29.7,22.75-2.07,1.42-4.23,2.94-5.31,5.21-3.97,8.38,14.95,10.73,19.78,13.01,4.01,1.9,9.18,5.73,10.88,10.05,2.04,5.2.15,11.42,2.68,16.9,2.02,4.36,5.8,7.87,10.29,9.56,4.83,1.82,8.61.01,13.35.34,4.31.3,8.91,2.08,13.29,2.63,18.68,2.34,38.06,3,55.91-2.99,12.08-4.05,23.51-11.57,31.02-21.99,2.77-3.84,4.59-12.53,8.01-15.18,4.87-3.78,12.52-2.63,14.6-9.03,2.57-7.89,2.01-18.62-4.76-24.21-4.19-3.45-9.52-5.12-14.7-6.72-9.77-3-20.18-6.61-24.04-17.39-1.32-3.68-5.26-39.71-1.47-40.19-13.31,1.71-26.74,2.59-40.16,2.62-6.49.02-12.99-.16-19.48.18-8.83.47-17.57,1.92-26.29,3.37-2.27.38-4.58.75-6.73,1.6-.88.35-1.6.99-2.42,1.33-.89.38-2,.3-2.77.96-.18.16-.34.35-.53.49-.24.17-.52.25-.8.33-.99.28-1.99.56-2.98.84,1.1,1.43,1.45,2.85,1.97,4.47.51,1.61,1.48,2.84,2.21,4.36.81,1.68,1.51,3.4,2.1,5.17,4.6,13.69,2.32,23.75-3.95,31.54Z" fill="#f6d4a6"/>
        <path d="m365.33,546.16c-7.44,8.22-15.2,16.1-23.52,23.28-3.9,3.37-7.96,6.6-12.5,8.89-11.02,5.57-24.61,5.03-35.34-1.42-3.15-1.89-6.03-4.24-9.08-6.3-6.64-4.49-13.98-7.61-20.99-11.39-.08-.04-.15-.08-.23-.12" fill="#b79e7c"/>
        <path d="m200.68,449.61c-4.84,1.14-9.55,4.15-11.9,8.55-3.76,7.05-2.25,21.84,1.11,29.06,1.19,2.55,2.98,4.72,4.86,6.74,6.12,6.6,14.1,12.26,22.76,11.83-4.19-13.84-4.92-28.8-2.1-42.95,2.31-11.61-6.4-15.2-14.74-13.24Z" fill="#f6d4a6"/>
        <path d="m408.88,432.78c4.91.76,9.84,3.39,12.53,7.6,4.29,6.73,3.94,21.59,1.15,29.06-.98,2.63-2.61,4.93-4.32,7.1-5.59,7.05-13.11,13.32-21.77,13.57,3.1-14.12,2.67-29.09-1.24-42.98-3.21-11.39,5.2-15.65,13.66-14.35Z" fill="#f6d4a6"/>
        <path d="m394.71,401.7c-.76,20.45,3.35,40.75,4.58,61.18,1.22,20.43-.84,42.11-12.46,58.96-2.76,4-6.01,7.64-9.28,11.25-11.22,12.37-22.86,24.45-35.86,34.94-3.92,3.16-8,6.2-12.55,8.37-11.05,5.26-24.63,4.83-35.32-1.12-3.13-1.75-6.01-3.92-9.04-5.83-6.61-4.16-13.93-7.02-20.91-10.5-24.85-12.37-46.52-34.6-50.69-62.04-.99-6.51-.98-13.12-.97-19.7.01-8.56.02-17.13.03-25.69.01-7.94,0-16.01-2.22-23.63-5.23-17.9,3.16-37.81,15.95-51.39,18.76-19.91,46.22-31.33,73.56-30.58,4.53.12,9.05.56,13.56,1,8.14.79,16.34,1.6,24.21,3.82,6.17,1.74,12.06,4.33,17.89,6.98,9.64,4.39,19.35,9.08,27.13,16.26,7.78,7.18,12.78,17.14,12.38,27.73Z" fill="#f6d4a6"/>
        <path d="m399.41,399.82c-9.79,8.81-22.4,14.01-35.26,16.82-12.87,2.81-26.1,3.39-39.26,3.95-13.41.57-26.58,1.45-39.95.04-.57-.06-1.19-.15-1.58-.56-.3-.31-.42-.76-.51-1.19-2.37-10.52-1.39-22.96-1.24-33.61.14-9.95,3.89-20.94,9.35-29.18-10.64,16.9-17.79,36-20.86,55.73-.56,3.57-1.21,7.57-4.13,9.7-1.76,1.28-4.02,1.61-6.19,1.74-5.45.32-10.95-.42-16.12-2.16.8-5.46,1.61-10.91,2.41-16.37-3.08,6.6-6.15,13.21-9.23,19.81-.91,1.96-1.92,4.03-3.76,5.18-1.63,1.02-3.64,1.14-5.56,1.13-8.02-.05-16.02-2.01-23.15-5.68-6.11-12.33-3.64-29.02,2.92-41.12,6.55-12.1,17.08-21.55,28.09-29.8,4.56-3.42,9.27-6.69,14.4-9.18,10.66-5.17,22.68-6.71,34.48-7.79,15.15-1.39,30.61-2.13,45.43,1.31,11.67,2.71,22.59,7.92,33.31,13.26,9.72,4.84,19.58,9.95,27.03,17.84,7.46,7.89,12.03,19.57,9.41,30.1Z" fill="#0a0a13"/>
        <path d="m203.44,453.67c1.51,0,3.03.35,4,1.26.89.84.31,1.64-.83,1.52-1.09-.11-2.16-.06-3.24,0-2.46.15-5.01.74-6.72,2.64-1.94,2.16-2.34,5.32-3.2,8-.12.38-.33.84-.73.85-.27.01-.51-.21-.6-.47-.1-.25-.08-.53-.07-.81.15-3,.16-5.48,2.04-8.03,1.58-2.15,3.9-3.78,6.44-4.56.83-.26,1.87-.42,2.93-.41Z" fill="#b79e7c" stroke="#b79e7c" stroke-miterlimit="10" stroke-width=".31"/>
        <path d="m406.45,437.14c-1.5.12-3,.59-3.89,1.56-.83.9-.18,1.66.95,1.45,1.07-.2,2.15-.22,3.23-.24,2.47-.04,5.05.35,6.91,2.11,2.1,2.01,2.75,5.13,3.81,7.73.15.37.4.81.8.79.27-.01.49-.25.57-.51s.04-.54,0-.81c-.39-2.98-.59-5.46-2.66-7.85-1.74-2.02-4.18-3.47-6.78-4.05-.85-.19-1.9-.27-2.95-.19Z" fill="#b79e7c" stroke="#b79e7c" stroke-miterlimit="10" stroke-width=".31"/>
        <g>
          <path d="m341.62,521.69c-.49.09-.97.36-1.41.56-2.96,1.34-5.88,2.74-8.84,4.08-2.04.93-3.95,2.08-6.02,2.98-1.17.51-2.37.96-3.57,1.4-1.03.38-2,.97-3.04,1.38-2.33.91-4.83,1.41-7.32,1.43-2.69.03-5.38.41-8.08.39-2.69-.01-5.11-.37-7.74-.82-1.92-.33-3.83-.72-5.71-1.21-1.58-.42-3.77-.8-5.11-1.71-.22-.15-.36-.46-.21-.68.12-.19.38-.26.61-.3,2.53-.5,5.05-1.01,7.58-1.51,2.36-.47,4.3-1.54,6.56-2.28,1.48-.49,3.08-.61,4.64-.48,1.28.11,2.58.4,3.82.07.57-.15,1.1-.43,1.64-.67,3.2-1.41,6.86-1.37,10.38-1.3,2.49.05,4.99.1,7.48.14,2.36.05,4.7.28,7.03-.1,1.92-.31,3.83-.66,5.74-1.04.26-.05,1.89-.41,1.58-.35Z" fill="#da9c94"/>
          <path d="m281.66,530.15c2.29,1.75,4.6,3.47,7.09,4.95,5.29,3.16,11.75,4.38,17.92,4.8,9.55.65,18.98-3.88,25.78-10.03,1.14-1.04,2.35-2.14,3.32-3.32,1.1-1.35,2.06-2.58,3.61-3.54" fill="#da9c94" stroke="#ad827f" stroke-linecap="round" stroke-miterlimit="10" stroke-width="1.3"/>
          <path d="m343.58,520.3c.03.91-2.85,2.92-3.27,3.15-3.41,1.85-7.08,3.29-10.67,4.82-2.23.95-4.45,1.6-6.81,2.21-8.37,2.17-17.06,3.52-25.72,2.98-3.49-.21-6.79-.99-10.2-1.54-3.22-.52-6.6-.93-9.54-2.34-.67-.32-1.5-.94-1.4-1.68,1.72-.16,3.71.27,5.46.42,4.76.43,8.9-1.06,13.53-2.1,2.79-.63,5.87-2.68,8.69-2.74,1.49-.03,2.9.48,4.45.3,2.25-.25,4.09-1.36,6.34-1.48,2.61-.14,5.21.11,7.8.33,6.69.54,13.81.11,20.04-2.54.33-.14.71-.29,1.04-.14.17.08.25.2.25.34Zm-8.48,3.69s.01-.06,0-.08c-.11-.16-.36-.16-.56-.15-1.82.16-3.66.4-5.49.48-1.65.07-3.35-.14-4.99-.24-3.28-.2-6.81-.46-10.06,0-2.26.32-4.3,1.67-6.55,1.75-1.27.05-2.41-.56-3.64-.54-1.12.02-2.51.43-3.58.74-3.29.95-6.3,2.36-9.66,3.11-1,.22-2.03.35-3.06.44-.36.03-1.7-.17-1.26.57.13.21.71.37.94.46.77.29,1.55.24,2.33.45.9.24,1.82.31,2.73.48.8.15,1.49.08,2.31.12,2.14.09,4.29.12,6.44.07,4.29-.09,8.58-.46,12.83-1.1,3.16-.48,6.3-1.1,9.4-1.88,1.57-.39,3.13-.83,4.68-1.29,1.26-.38,2.56-.91,3.7-1.56.33-.19,3.3-1.39,3.5-1.83Z" fill="#ae847f"/>
        </g>
        <path d="m271.95,433.56c-2.97.23-6.78-.85-8.93-1.31-4.17-.9-7.59-1.5-11.9-.76-3.98.68-7.92,2.08-11.63,3.44-2.77,1.01-5.84,2.07-8.35,3.65-.57.36-6.77,5.75-6.91,3.21-.03-.54,1.16-1.42,1.53-1.75,2.3-2.04,4.58-4.32,7.22-5.94,5.86-3.43,12.48-5.37,19.19-6.24,4.61-.6,9.26-1.3,13.92-1.04,2.05.12,4.47.25,6.29,1.24,2.89,1.57,3.54,5.19-.42,5.5Z" fill="#0a0a13"/>
        <path d="m313.77,499.62c-.49.07-1.11.07-1.33-.49-.22-.55.14-.94.48-1.36,1.75-2.19,4.15-2.62,6.54-3.59,4.94-2.01,1.95-6.5.29-9.9-2.51-5.14-4.94-9.93-6-15.6-1.4-7.51-.68-14.56,2.03-21.78.57-1.52,4.32-10.26,6.63-8.77,1.6,1.03-1.6,4.06-2.19,5.1-1.32,2.32-2.43,4.76-3.15,7.34-2.15,7.76-2.09,15.32.15,23.03,1.29,4.43,3.55,8.18,5.65,12.19,1.03,1.96,2.15,3.89,1.78,6.15-.26,1.59-1.28,2.44-2.52,3.26-1.24.82-1.73,1.54-3.07,2.45-1.34.91-3.52,1.69-5.28,1.96Z" fill="#b79e7c"/>
        <path d="m294.94,452.22c.11,1.16.14,2.15.15,2.52.17,4.38.58,9.03-.3,13.36-.11.55-.99,3.37-1.73,1.64-.33-.78.12-2.72.15-3.58.05-1.38.12-2.77.16-4.15.08-2.77.07-5.56-.35-8.31-.25-1.65-.46-3.29-1.19-4.8-.38-.79-.38-1.46.51-1.84,2.06-.88,2.49,4.06,2.6,5.16Z" fill="#b79e7c" stroke="#b79e7c" stroke-miterlimit="10" stroke-width=".53"/>
        <path d="m316.04,488.68s-.02.08-.04.11c-.14.33-.53.49-.88.49s-.7-.15-1.03-.27c-2-.74-4.18-.97-6.29-.72-1.08.13-2.14.39-3.16.77-.69.26-2.03,1.32-2.75,1.03-1.75-.69.22-2.18,1.09-2.55,3.61-1.54,8.1-1.41,11.8-.21.34.11.69.24.95.48.23.22.37.56.3.86Z" fill="#b79e7c"/>
        <path d="m293.55,496.05c1.96.13,3.86.65,5.65,1.45.61.27,2.1.73,2.47,1.3.37.57.06,1.33-.65,1.37-1.81.1-3.62.06-5.38-.36-1.32-.32-2.92-.61-3.57-1.97-.49-1.02.38-1.86,1.49-1.78Z" fill="#b79e7c"/>
        <path d="m288.42,495.17c-.03-1.33.69-3.05,1.57-3.65.43-.29,1-.52,1.4-.05.42.49-.94,1.53-1.08,2.16-.19.84.1,1.26.51,1.89.36.55.48,1.05-.32,1.26-1.49.39-2.06-.46-2.08-1.61Z" fill="#b79e7c" stroke="#b79e7c" stroke-miterlimit="10" stroke-width=".53"/>
        <path d="m332.83,429.71c2.96-.29,6.53-2.01,8.57-2.84,3.95-1.61,7.22-2.8,11.59-2.82,4.04-.02,8.16.67,12.05,1.36,2.9.51,6.12,1.02,8.86,2.14.63.26,7.67,4.49,7.36,1.96-.07-.54-1.39-1.2-1.81-1.45-2.62-1.61-5.26-3.46-8.14-4.6-6.37-2.36-13.23-3.12-19.98-2.81-4.64.21-9.35.33-13.89,1.4-1.99.47-4.36,1.03-5.98,2.32-2.57,2.04-2.58,5.73,1.37,5.34Z" fill="#0a0a13"/>
        <path d="m368.45,445.07c-3.32-1.42-6.7-2.86-10.28-3.27-6.67-.76-14.54.28-19.61,4.99-1.5,1.4-2.67,3.13-3.42,5.04-.27.67-.26,1.42-.5,2.1-.31.88-.78,1.73-1.17,2.59-.24.53-.47,1.26-.04,1.75.2.22.46.37.72.52,1.64.91,3.25,1.94,5.02,2.55,1.31.45,2.59.95,3.87,1.49,2.02.86,4.56.81,6.66.42,1.79-.33,3.55-.78,5.32-1.17,2.81-.61,5.62-1.5,8.02-3.14,2.19-1.49,4.24-3.26,6.02-5.15,1.32-1.4,3.93-2.97,3.74-5.19-.17-1.94-2.86-2.88-4.35-3.52Z" fill="#fff"/>
        <ellipse cx="350.74" cy="452.41" rx="11.03" ry="9.85" transform="translate(-37.88 32.09) rotate(-4.97)" fill="#0a0a13" stroke="#0f0b0b" stroke-miterlimit="10" stroke-width="1.17"/>
        <path d="m365.23,457.02c-1.16.88-2.32,1.75-3.56,2.52-3.66,2.25-7.89,3.4-12.11,4.18-1.42.26-2.59.29-4.02.1-1.31-.18-2.63-.44-3.85-.97-1.86-.81-3.7-1.69-5.51-2.62-1.22-.63-3.01-1.25-3.18-2.84-.07-.64.07-1.34.29-1.93.18-.5.58-.85.81-1.34.33-.69.53-1.46.88-2.15.71-1.4,1.62-2.71,2.7-3.85,5.3-5.59,14.5-6.68,21.79-5.75.7.09,1.39.18,2.08.32,4.05.83,9.61,1.28,12.28,4.88.19.26.14.64-.03.92s-.42.49-.65.72c-.65.63-1.18,1.38-1.75,2.08-1.04,1.29-4.17,4.05-4.48,4.28-.61.44-1.1,1-1.7,1.45Z" fill="none" stroke="#0a0a13" stroke-linecap="round" stroke-linejoin="round" stroke-width="1.17"/>
        <path d="m358.95,442.3c1.13.03,2.26.07,3.39.16,1.8.15,3.59.35,5.37.67,1.68.3,3.45.65,4.97,1.43,1.1.56,2.13,1.24,3.19,1.87.68.4,1.32.65,2.09.81-.34.37-.85.66-1.26.96-.23.17-.46.34-.72.46-.38.18-.8.25-1.21.36-.93.24-1.81.68-2.57,1.27-.2.16-.71,1.04-.46.6.25-.44.81-1.41.87-2.17.08-.93-.4-1.84-1.08-2.49-.68-.65-1.55-1.08-2.42-1.46-2.5-1.09-5.15-1.87-7.85-2.31" fill="#0a0a13" stroke="#0a0a13" stroke-linecap="round" stroke-miterlimit="10" stroke-width="1.17"/>
        <path d="m332.7,458.58c-.5-.82-.48-1.89-.15-2.79.38-1.02,1.3-1.65,1.72-2.6.08-.18.21-.37.26-.57s.05-.4.1-.59c-1.32,1.32-2.64,2.63-3.96,3.95-.39.39-.8.8-1.03,1.3s-.25,1.12.1,1.54c.25.3.63.45,1,.59,1.28.49,2.56.98,3.85,1.47,1.94.74,4.06.83,5.99,1.58.5.19,1.01.38,1.51.56" fill="#0a0a13" stroke="#0a0a13" stroke-linecap="round" stroke-miterlimit="10" stroke-width="1.17"/>
        <circle cx="347.53" cy="451.17" r="2.56" fill="#d7e7f2"/>
        <path d="m334.2,443.68c7.15-3.83,14.64-7.74,22.91-7.52,2.29.06,4.58.44,6.86.87,3.25.6,6.5,1.29,9.73,2.07-6.05-3.37-13.34-4.66-20.38-3.83-7.04.84-14.08,3.73-19.13,8.41Z" fill="#b79e7c" stroke="#b79e7c" stroke-linecap="round" stroke-linejoin="round" stroke-width="1.04"/>
        <path d="m238.25,456.46c3.02-1.98,6.1-3.98,9.56-5,6.43-1.91,14.37-2.25,20.18,1.51,1.72,1.11,3.17,2.62,4.25,4.37.38.61.51,1.36.86,1.98.46.81,1.07,1.57,1.6,2.34.33.48.68,1.16.34,1.72-.16.25-.39.45-.62.63-1.46,1.18-2.87,2.48-4.5,3.38-1.21.67-2.39,1.39-3.55,2.14-1.84,1.19-4.35,1.59-6.49,1.57-1.82-.01-3.63-.15-5.44-.22-2.88-.11-5.79-.5-8.44-1.7-2.41-1.09-4.74-2.47-6.83-4.03-1.54-1.15-4.39-2.24-4.58-4.46-.17-1.95,2.31-3.33,3.68-4.23Z" fill="#fff"/>
        <ellipse cx="256.97" cy="460.61" rx="11.03" ry="9.85" transform="translate(-39.39 24.3) rotate(-5.03)" fill="#0a0a13" stroke="#0f0b0b" stroke-miterlimit="10" stroke-width="1.17"/>
        <path d="m243.5,467.67c1.29.66,2.59,1.33,3.94,1.86,3.99,1.58,8.36,1.98,12.66,2.01,1.44.01,2.61-.16,3.98-.6,1.26-.4,2.52-.89,3.62-1.62,1.69-1.12,3.35-2.3,4.97-3.53,1.09-.83,2.75-1.75,2.64-3.35-.04-.64-.3-1.3-.62-1.85-.27-.46-.72-.74-1.03-1.17-.44-.62-.77-1.34-1.24-1.96-.94-1.26-2.06-2.39-3.33-3.32-6.19-4.58-15.44-4.06-22.46-1.88-.67.21-1.34.42-1.99.67-3.85,1.53-9.24,2.93-11.24,6.94-.14.29-.03.65.18.9s.5.41.77.6c.75.51,1.4,1.15,2.08,1.75,1.25,1.09,4.81,3.27,5.16,3.44.67.32,1.26.79,1.92,1.13Z" fill="none" stroke="#0a0a13" stroke-linecap="round" stroke-linejoin="round" stroke-width="1.17"/>
        <path d="m247.13,452.08c-1.11.23-2.21.46-3.31.75-1.74.46-3.48.97-5.17,1.59-1.6.58-3.28,1.23-4.65,2.28-.98.75-1.89,1.59-2.82,2.39-.6.51-1.19.87-1.92,1.16.4.3.95.5,1.41.72.26.13.51.25.79.33.41.11.83.11,1.25.14.96.08,1.9.35,2.75.8.23.12.88.9.55.51-.32-.39-1.04-1.25-1.24-1.99-.24-.91.07-1.88.63-2.64.56-.76,1.34-1.33,2.13-1.86,2.27-1.51,4.74-2.74,7.33-3.64" fill="#0a0a13" stroke="#0a0a13" stroke-linecap="round" stroke-miterlimit="10" stroke-width="1.17"/>
        <path d="m275.8,463.56c.35-.9.15-1.94-.34-2.77-.55-.94-1.56-1.4-2.15-2.26-.11-.17-.27-.33-.35-.51s-.11-.38-.2-.56c1.53,1.07,3.06,2.13,4.58,3.2.46.32.93.65,1.24,1.1.31.45.44,1.06.17,1.53-.19.33-.54.55-.88.75-1.18.71-2.36,1.41-3.53,2.12-1.78,1.07-3.85,1.52-5.63,2.59-.46.28-.93.55-1.39.82" fill="#0a0a13" stroke="#0a0a13" stroke-linecap="round" stroke-miterlimit="10" stroke-width="1.17"/>
        <circle cx="255.02" cy="459.27" r="2.56" fill="#d7e7f2"/>
        <path d="m271.74,449.15c-7.7-2.53-15.76-5.08-23.87-3.43-2.24.46-4.43,1.23-6.61,2.04-3.1,1.16-6.17,2.4-9.22,3.72,5.37-4.37,12.32-6.91,19.4-7.31,7.08-.4,14.52,1.22,20.3,4.96Z" fill="#b79e7c" stroke="#b79e7c" stroke-linecap="round" stroke-linejoin="round" stroke-width="1.04"/>
        <path d="m344.16,518.59c.26-.07.51-.13.77-.2.34-.09.7-.17,1.03-.06,2.51.78-1.73,4-2.33,4.55-1.85,1.69-3.64,3.45-5.38,5.27-2.44,2.56-4.56,5.4-7.32,7.61-2.32,1.85-4.84,3.55-7.64,4.62-5.61,2.15-12.14,3.22-18.15,2.87-3.68-.21-7.71-1.04-11.09-2.47-3.5-1.49-6.14-3.8-9.09-6.09-2.91-2.26-5.96-4.34-9.15-6.22-.78-.46-3.17-1.41-2.06-2.77.29-.35.82-.37,1.28-.36,2.76.06,5.58.29,8.34.19,2.52-.09,5.23-1.23,7.6-2.08,3.02-1.08,6.12-2.38,9.31-2.88,3.28-.51,6.58.55,9.92-.18,3.9-.85,7.18-2.04,11.25-1.2,3.82.79,7.74,1.04,11.64,1.08,2.42.02,4.82-.34,7.19-.8,1.31-.25,2.6-.56,3.88-.89Z" fill="#da9c94" stroke="#ad827f" stroke-linecap="round" stroke-miterlimit="10" stroke-width="1.26"/>
        <path d="m313.39,526.47c-2.34.42-4.69.74-7.05.81-3.9.11-7.9.06-11.77.39-4.05.36-8.13.46-12.19.29-.39-.02-.86.02-1.02.38-.74,1.73,12.19,5.88,13.78,6.24,3.8.86,7.72,1.19,11.61,1.07,2.99-.1,5.95-.45,8.87-1.01,5.72-1.09,11.92-2.53,16.63-6.41,1.2-.99,2.45-1.9,3.7-2.82.31-.23,3.03-1.69,2.32-2.09-.15-.08-.32-.06-.49-.04-2.91.35-5.79.72-8.71.81-2.87.09-5.72.49-8.53,1-1.58.29-3.15.61-4.72.92-.81.16-1.62.31-2.43.46Z" fill="#ad827f"/>
        <path d="m289.72,527.97c-.69.02-2.23.03-2.38.73-.08.4.56,1.03.78,1.32,1.18,1.52,3.05,1.95,4.91,2.18,6.18.77,12.78.57,18.96-.11,3.47-.38,6.91-.98,10.28-1.8,2.93-.71,7.41-1.35,9.52-3.48.33-.33.59-.73.72-1.16.11-.35.28-1.2-.04-1.49-.61-.23-1.51-.12-2.16-.11-.76.01-1.51.05-2.26.1-1.51.1-3.02.26-4.53.38-4.49.36-8.89,1.55-13.38,1.98-1.61.15-3.23.23-4.85.22-3.64-.02-7.28.27-10.89.71-1.5.18-2.99.44-4.5.52-.05,0-.11,0-.17,0Z" fill="#fffaf7"/>
        <path d="m226.57,762.66c-4.54,6.01-23.64-2.41-28.49-3.69-8.71-3.44-18.81-5.03-27.88-7.38-3.46-.9-6.63-2.37-10.1-3.31-2.49-.68-5.01-1.2-7.54-1.67-2.24-.42-3.92-1.05-6.02-1.83-1.24-.46-2.49-.92-3.56-1.69-1.55-1.12-2.58-2.72-1.5-4.47.98-1.59,2.77-2.66,4.43-3.41,2.12-.96,4.44-1.52,6.7-2.06,4.26-1.01,8.66-1.09,13-.61,8.84.99,17.28,4.09,26.04,5.5,7.35,1.19,14.75,3.51,21.43,6.81,3.51,1.74,7,3.83,9.72,6.69,1.91,2.01,5.4,6.94,4.44,9.82-.16.49-.39.91-.67,1.29Z" fill="#468fc3"/>
        <path d="m210.23,789.62c-3.2,9.4-7.26,18.63-13,26.37-6.01,8.12-9.35,21.43-17.87,27.32-9.59,6.63-22.58,10.26-33.67,5.32-7.38-3.29-12.88-9.67-17.8-16.07-18.17-23.63-30.18-51.67-36.59-80.69-2.99-13.52-4.24-27.39-6.92-40.85-3-15.06-1.44-29.76-8.14-44.2-3.41-7.34-9.03-12.35-13.39-18.94-3.8-5.74-6.62-11.72-11.62-16.66-2.21-2.18-20.74-22.68-7.99-22.47,5.64.09,9.11,6.33,12.26,10.16,1.68,2.04,3.56,3.65,5.32,5.67,1.04,1.19,2.13,2.67,3.68,3.26-.91-3.33-3.59-6.23-5.76-8.54-2.65-2.81-5.65-5.65-7.88-8.72-2.69-3.71-4.66-7.93-7.21-11.73-2.05-3.06-4-5.28-4.69-8.86-.32-1.65-.04-3.81,1.28-4.85,4.83-3.79,8.54,2.24,11.05,5.44,2.52,3.21,4.65,5.21,6.96,7.96,1.11,1.32,2.19,2.62,2.99,3.65.8,1.04,1.12,1.5,1.68,2.28,1.49,2.04,2.78,3.69,4.39,5.6.19.23.68.66.75,1.04-.43-1.54-1.36-2.26-2.34-3.54-.99-1.28-1.94-2.74-2.87-4.19-2.09-3.28-4.2-6.47-6.6-9.62-3.25-4.25-6.37-8.56-9.04-13.27-1.96-3.45-3.98-7.33-1.52-10.99,2.47-3.66,5.97-2.96,8.73.2,3.94,4.51,6.6,9.85,10.86,14.05,4.53,4.46,9.09,9.4,12.74,14.6.65.92,2.04,4.33,3.2,2.05.88-1.73-3.07-5.22-3.87-6.48-1.91-3.02-5.07-5.42-7.25-8.33-2.76-3.67-6.32-7.17-7.77-11.64-1.22-3.77-1.02-9.68,4.22-9.17,1.18.11,2.27.63,3.3,1.22,7.89,4.54,12.18,12.95,18.4,19.25,3.96,4.01,7.56,8.34,10.77,12.98,2.8,4.06,6.18,7.43,9.12,11.42,1.27,1.73,2.77,3.6,4.9,3.86,5.13.65.31-12.81.05-15.49-.45-4.69-1.07-13.38,4.37-15.67,4.89-2.05,7.2,5.94,8.48,8.91,2.16,5.06,4.36,10.03,5.05,15.69.49,4,1.79,8.17,2.39,12.26.87,5.87.38,11.97-.59,17.72-.97,5.75-2.2,11.04-3.74,16.59-4.7,16.87-2.53,31.14,4.44,46.63,4.68,10.4,8.4,21.22,11.11,32.29,2.11,8.61,4.05,16.98,5.58,25.77-1.44-8.28,2.15-18.52,2.88-26.99.73-8.46,1.27-18.06,6.56-25.13,6.23-8.33,15.16-8.3,24.62-8.97,10-.7,18.67,2.98,27.53,7.24,11.76,5.65,10.54,16.16,9.95,27.24-.77,14.49-3.11,28.89-6.92,42.89-1.35,4.95-2.82,10.05-4.54,15.1Z" fill="#f6d4a6"/>
        <path d="m399.5,603.76c-14.11.45-17.33,57.87-18.22,57.76-19.15-2.24-38.48-2.92-57.75-2.33-9.75.3-19.49.92-29.21,1.83-9.08.85-18.89,2.16-27.6,4.61,1.7-.48-4.52-19.19-5.11-20.78-3.8-10.24-8.92-19.97-15.55-28.63-.51-.66-28.76,11.19-31.53,12.21-23.42,8.61-41.59,20.77-50.12,45.15-.82,2.34-1.55,4.71-2.22,7.09-2.57,9.15-4.29,18.51-6.72,27.69-1.2,4.56-2.58,9.08-4.32,13.46-.86,2.17-1.82,4.31-2.88,6.4-.53,1.04-1.09,2.07-1.68,3.09-.41.7-1.5,1.84-1.62,2.63-.04.27.03.55.11.81.22.8.46,1.57.63,2.38,1.57-1.08,3-1.65,4.84-1.96,1.93-.32,3.89-.52,5.84-.61,3.89-.17,7.79.1,11.64.66,8.07,1.18,16.06,3.37,23.66,6.32,10.65,4.14,27.9,9.82,35.66,18.3-8.34-35.56,11.91-30.02,38.24-28.93,26.51,1.09,52.99-2.47,79.18-6.11,18.87-2.63,37.72-5.57,56.72-7.09,5.18-.42,10.35-1.85,15.58-1.44,3.55.28,6.89,3.38,8.58,6.49.89,1.63,1.22,3.46,1.35,5.29.16,2.21.18,5.39,1.79,7.1-.34-7.15,8.96-10.03,14.01-12.62,6.87-3.52,13.84-6.83,20.9-9.93,10.43-4.58,21.5-9.86,32.63-12.36.97-.22,9.27-1.91,9.63-1.01-2.45-6.19-5.56-11.95-9.4-17.41-3.34-4.74-6.62-9.55-8.92-14.89-5.17-11.98-9.55-24.64-18.06-34.54-17.23-20.06-44.63-22.21-68.49-28.44-.55-.14-1.08-.2-1.6-.19Z" fill="#91bcdb"/>
        <path d="m191.69,741.54c10.65,4.14,27.9,9.82,35.66,18.3-.54-.58-.64-2.84-.81-3.69-.27-1.37-.52-2.74-.72-4.12-.41-2.8-.63-5.63-.55-8.46.07-2.78.5-5.46,1.15-8.16.41-1.68,1.68-3.86,1.53-5.59,2.32,22.02,6.28,43.82,10.41,65.55,3.83,20.16,11.03,39.21,15.51,59.13,2.06,9.17,2.8,18.78,3.55,28.27h170.33c-.18-2.52-.4-5.04-.76-7.52-4.13-28.34.6-56.79.58-85.17,0-15.14.68-30.49-.69-45.64-.74-8.16.39-20.99-4.69-27.87,1.69,2.29,3.3,4.64,4.63,7.17.18.35,1.93,4.7,1.67,4.85,16.33-10.71,34.7-17.84,52.91-24.9,7.49-2.9,15.3-5.86,23.31-5.25-.27-2.91-1.86-5.14-3.17-7.64-1.47-2.81-3.05-5.53-4.75-8.2-3.25-5.11-6.74-10.11-9.15-15.69-5.17-11.98-9.55-24.64-18.06-34.54-17.23-20.06-44.63-22.21-68.49-28.44-.55-.14-1.08-.2-1.6-.19-14.11.45-17.33,57.87-18.22,57.76-19.15-2.24-38.48-2.92-57.75-2.33-9.75.3-19.49.92-29.21,1.83-9.08.85-18.89,2.16-27.61,4.61,1.7-.48-4.52-19.19-5.11-20.77-3.8-10.24-8.92-19.97-15.55-28.63-.51-.66-28.76,11.19-31.53,12.21-23.42,8.61-41.59,20.77-50.12,45.15-6.77,19.36-7.82,41.69-18.83,59.32.58.98,1.02,2.04,1.32,3.15,13.09-4.41,33.97,1.28,44.8,5.49Z" fill="#91bcdb"/>
      </g>
    </g>
    <rect width="1024" height="1024" fill="none"/>
  </g>
</svg>