<?xml version="1.0" encoding="UTF-8"?>
<svg id="b" data-name="Layer 2" xmlns="http://www.w3.org/2000/svg" viewBox="0 0 1024 1024">
  <g id="c" data-name="Layer 1">
    <rect width="1024" height="1024" fill="none"/>
    <g>
      <path d="m186.12,30.52c5.02,4.07,11.14,7.2,17.6,9.42,11.8,4.04,24.68,5.27,37.39,6.23,41.5,3.13,83.63,3.79,124.53-2.83,8.78-1.42,17.78-3.29,24.79-7.91,2.44-1.61,4.54-3.65,6.15-5.9-31.82-4.76-67.92-7.53-106.4-7.53s-73.71,2.7-105.25,7.35c.42.47.81.87,1.18,1.17Z" fill="#f1f3f5"/>
      <path d="m443.87,287.17c-7.14-16.14-31.79-16.26-43.8-28.32-15.83-15.9-15.3-39.83-14.75-59.31.11-3.94.47-9.03.75-14.7.95-19.23,1.06-45.14-12.08-55.3-20.59-15.94-58.52-10.22-83.89-10.55-26.77-.35-61.85-6.34-83.69,10.55-13.14,10.17-13.03,36.07-12.08,55.3.28,5.67.63,10.76.75,14.7.55,19.48,1.08,43.41-14.75,59.31-12.01,12.06-36.66,12.17-43.8,28.32,11.73.21,97.43-3.24,153.68-4.82,56.25,1.58,141.94,5.02,153.68,4.82Z" fill="#efa6a9"/>
      <path d="m197.61,261.73h185.15c81.39,0,147.48,66.08,147.48,147.48v548.13c0,24.65-20.02,44.67-44.67,44.67H94.81c-24.65,0-44.67-20.02-44.67-44.67V409.21c0-81.39,66.08-147.48,147.48-147.48Z" fill="#efa6a9"/>
      <path d="m186.79,29.25h206.81c18.39,0,33.32,14.93,33.32,33.32v87c0,4.3-3.49,7.8-7.8,7.8H161.26c-4.3,0-7.8-3.49-7.8-7.8V62.57c0-18.39,14.93-33.32,33.32-33.32Z" fill="#fff"/>
      <path d="m167.27,171.14h245.84c7.62,0,13.81,6.19,13.81,13.81v4.96c0,1.78-1.45,3.23-3.23,3.23H156.69c-1.78,0-3.23-1.45-3.23-3.23v-4.96c0-7.62,6.19-13.81,13.81-13.81Z" fill="#efa6a9"/>
      <path d="m67.84,335.1c-11.29,18.37-17.7,39.17-17.7,61.23v564.91c0,22.51,21.91,40.77,48.94,40.77h382.22c27.03,0,48.94-18.25,48.94-40.77V396.32c0-22.06-6.41-42.86-17.7-61.23H67.84Z" fill="#d72028"/>
      <g>
        <path d="m163.78,414.57h367.21v507.96H163.78c-21.72,0-39.35-17.63-39.35-39.35v-429.26c0-21.72,17.63-39.35,39.35-39.35Z" fill="#fff" stroke="#fff" stroke-linecap="round" stroke-linejoin="round" stroke-width="5.01"/>
        <rect x="158.31" y="442.79" width="338.8" height="451.52" fill="#bdd7ea"/>
      </g>
      <path d="m89.48,415.79h3.77v507.96h-3.77c-21.72,0-39.35-17.63-39.35-39.35v-429.26c0-21.72,17.63-39.35,39.35-39.35Z" transform="translate(143.37 1339.55) rotate(-180)" fill="#fff" stroke="#fff" stroke-linecap="round" stroke-linejoin="round" stroke-width="5.01"/>
      <path d="m826.21,627.6c59.3,0,112.25-9.24,147.2-23.72-34.95-14.47-87.91-23.7-147.2-23.7s-112.24,9.23-147.2,23.7c34.95,14.48,87.9,23.72,147.2,23.72Z" fill="#91bcdb"/>
      <path d="m826.21,631.93c-59.56,0-112.72-9.32-147.67-23.91l30.92,353.68h.29c32.21,8.49,72.59,13.56,116.47,13.56s84.25-5.07,116.47-13.56h.29l30.92-353.68c-34.95,14.59-88.11,23.91-147.67,23.91Z" fill="#e4eef6" stroke="#e4eef6" stroke-linecap="round" stroke-linejoin="round" stroke-width="9.44"/>
      <g>
        <path d="m826.21,970.53c-40.92,0-79.68-4.37-112.34-12.65l-16.51-188.86c35.5,10.91,80.9,16.88,128.85,16.88s93.35-5.97,128.85-16.88l-16.51,188.86c-32.66,8.28-71.42,12.65-112.34,12.65Z" fill="#d72028"/>
        <path d="m702.66,775.5c34.87,9.8,78.1,15.13,123.55,15.13s88.68-5.33,123.55-15.13l-15.62,178.61c-31.6,7.66-68.75,11.7-107.93,11.7s-76.34-4.04-107.93-11.7l-15.61-178.61m257.73-13.16h0,0Zm0,0c-34.44,11.64-81.84,18.84-134.18,18.84s-99.74-7.2-134.18-18.84l17.43,199.35h.29c32.21,8.49,72.59,13.56,116.47,13.56s84.25-5.07,116.47-13.56h.28l17.43-199.35h0Z" fill="#e4eef6"/>
      </g>
      <path d="m826.21,781.19c-52.34,0-99.74-7.2-134.18-18.84l17.43,199.35h.29c32.21,8.49,72.59,13.56,116.47,13.56s84.25-5.07,116.47-13.56h.29l17.43-199.35c-34.44,11.64-81.84,18.84-134.18,18.84Z" fill="none" stroke="#e4eef6" stroke-linecap="round" stroke-linejoin="round" stroke-width="9.44"/>
    </g>
  </g>
</svg>