<?xml version="1.0" encoding="UTF-8"?>
<svg id="b" data-name="Layer 2" xmlns="http://www.w3.org/2000/svg" viewBox="0 0 1024 1024">
  <g id="c" data-name="Layer 1">
    <g>
      <g>
        <g>
          <path d="m116.58,448.89c-17.99-20.64-14.89-52.62-3.8-77.66,15.03-33.94,42.28-61.53,73.7-81.3,55.47-34.9,121.46-49.84,186.5-50.48,62.03-.61,123.38,7.64,165.18,58.36,18.08,21.94,29.54,52.94,17.99,78.92-4.79,10.78-13.46,21.76-9.83,32.99,2.07,6.4,7.7,10.84,11.92,16.08,9.67,11.99,11.89,28.15,13.77,43.44,8.66,70.74,17.31,141.47,25.97,212.21,1.4,11.41,2.52,24.01-4.09,33.42-7.1,10.1-20.55,12.97-32.71,15.05-56.02,9.61-112.04,19.22-168.06,28.83-42.01,7.21-84.01,14.41-126.02,21.62-14.91,2.56-30.02,5.13-45.1,3.87-15.08-1.25-30.38-6.77-40.47-18.04-14.9-16.66-15.33-41.23-16.6-63.55-3.25-56.63-19.21-109.11-27.9-164.91-1.66-10.65-5.37-23.24-4.44-33.98.85-9.76,6.1-18.43,4.38-28.6-1.89-11.17-13.41-18.29-20.36-26.26Z" fill="#c17329"/>
          <path d="m246.95,763.48c-16.34,5.22-36.53,9.17-49.15-4.96-12.16-13.07-8.34-41.38-10.71-57.97-3.58-25.01-7.79-49.94-12.63-74.74-5.32-27.26-14.57-52.18-21.23-78.92-3.35-13.45-4.38-28.21-.22-41.61,2.28-14.02,7.96-23.56,5.51-38.41-2.44-14.81-10.54-19.12-22.23-27.86-3.46-2.59-6.98-5.25-9.39-8.84-7.93-11.84-1-39.37,4.27-51.28,15.22-34.39,43.6-57.47,64.72-70.78,34.11-21.48,74.11-35.96,118.9-43.05,19.23-3.05,39.3-4.69,59.66-4.89,75.38-.73,118.14,13.54,147.56,49.27,16.42,19.93,30.38,46.99,18.67,72.5-5,10.89-11.86,15.95-8.23,27.3,3.2,9.99,10.03,19.48,13.75,29.49,12.03,32.37,13.51,65.95,16.21,99.92,3.25,40.93,7.78,82.51,19.11,121.96,4.57,16.8,3.88,37.64-10.06,48.05-8.01,5.98-18.55,7.04-28.51,7.9-69.61,5.97-137.78,6.01-206.63,21.43-28.02,6.28-55.89,13.89-83.01,23.35-2.03.71-4.17,1.44-6.37,2.14Z" fill="#f9ce7a"/>
          <path d="m538.59,426.55c-5.85,1.49-10.41,4.17-11.47,10.87-.55,3.44-3.49,6.12-6.49,5.17-3.28-1.04-3.08-5.35-2.12-8.1,1.99-5.74-.16-11.24-.12-19.64,4.63,10.13,10.08,12.04,16.94,5.69,2.38,1.3,3.16,3.47,3.27,6.01Z" fill="#f3b554"/>
          <path d="m136.51,436.03c.34-.38.74-.71,1.02-1.13,2.63-3.98,3.08-10.4,10.13-9.36,1,.15,2.64,2.3,2.45,3.18-1.17,5.28-3.9,9.36-9.86,10.1-1.24-.93-2.49-1.86-3.73-2.78Z" fill="#f0aa39"/>
          <path d="m294.17,412.1c-1.04,4.83-2.85,9.18-8.52,9.51-3.98.23-7.55-1.54-6.8-6.21.79-4.9,3.95-8.49,9.26-8.93,3.7-.3,5.5,2.17,6.06,5.63Z" fill="#d07328"/>
          <path d="m204.05,518.31c.57,5.79-3.31,7.07-7.81,7.7-.53-1.99-1.53-3.98-1.51-5.97.04-5.12-5.77-13.11,1.66-14.63,6.84-1.39,6.31,7.66,7.66,12.89Z" fill="#f0aa39"/>
          <path d="m221.51,421.24c-3.25-9.37-2.37-15.5,4.01-19.93.74-.51,3.67.37,3.8.99,1.65,7.63-1.19,13.51-7.81,18.94Z" fill="#f3b554"/>
          <path d="m471.58,382.11c-1.86-1.09-3.21-1.4-3.42-2.07-1.68-5.37-3.96-10.89-1.65-16.46.73-1.75,3.76-1.53,5.33.28,5.44,6.26,1.5,11.92-.26,18.24Z" fill="#f3b554"/>
          <path d="m363.19,416.58c-.34,4.08-3.26,6.5-7.83,7.06-3.5.43-6.52-.8-5.9-4.81.72-4.59,4.76-6.54,8.79-7.42,2.83-.61,4.79,1.2,4.93,5.17Z" fill="#f3b554"/>
          <path d="m473.17,317.63c5.14,10.33,3.2,15.93-2.98,20.15-1.09.74-5.04-.25-5.37-1.22-2.86-8.42,6.35-10.05,8.35-18.93Z" fill="#f3b554"/>
          <path d="m204.56,563.38c.1.78.26,1.55.47,2.31-3.66,3.58-7.5,6.56-11.44.53-2.3-3.53-1.91-7.83,1.71-9.65,6.48-3.26,7.79,2.29,9.26,6.82Z" fill="#f0aa39"/>
          <path d="m475.78,444.6c4.18-.42,7.95.89,9.42,5.67.92,2.98-.58,5.2-3.71,5.48-4.66.42-8.26-1.99-10.14-5.95-1.49-3.14,1.2-4.5,4.43-5.21Z" fill="#f3b554"/>
          <path d="m331.31,307.19c-10.38-.51-19.04,6.44-27.44-1.93,8.48,3.73,17.25-9.73,27.44,1.93Z" fill="#f3b554"/>
          <path d="m398.63,333.34c6.75-4.42,11.74-5.57,16.96-1.72.85.63,1.36,3.46.84,3.91-5.38,4.67-10.48,2.09-17.81-2.19Z" fill="#f3b554"/>
          <path d="m167.69,400.82c-4.32-6.78-2.25-12.18,1.99-17.04,1.54-1.76,4.84-1.1,5.08.81.8,6.39-1.31,11.91-7.07,16.22Z" fill="#f0aa39"/>
          <path d="m429.1,406.62c.5,3.41-.83,5.41-3.89,5.55-4.5.2-8.08-2.19-10.05-5.9-1.6-3.03.89-4.83,3.79-4.66,4.07.23,8.16.98,10.14,5.01Z" fill="#f3b554"/>
          <path d="m230.09,725.68c7.02.71,8.8,5.4,5.79,15.26-7.81,1.7-10.7-7.06-17.65-8.26-4.12-.71-2.03-5.46,1.14-6.47,3.3-1.04,7.12-.42,10.72-.53Z" fill="#f0aa39"/>
          <path d="m439.99,521.01c-7.36.19-10.94-4.71-12.68-11.08-1.16-4.24-3.3-10.67,4.03-10.74,7.18-.08,12.24,5.13,14.51,12.04,1.6,4.88-1.27,7.85-5.86,9.78Z" fill="#d07328"/>
          <path d="m424.69,566.29c-3.89.11-5.68-2.14-5.84-5.65-.23-5.15,1.49-9.41,7.3-9.77,4.06-.26,4.63,3.38,4.96,6.46.51,4.8-1.73,7.81-6.42,8.97Z" fill="#d07328"/>
          <path d="m295.87,578.21c5.11.37,5.11,4.42,5.61,7.99.38,2.75-.08,5.65-3.22,6.21-5.3.96-5.72-3.29-6.29-6.91-.52-3.3-.23-6.36,3.9-7.29Z" fill="#e69329"/>
          <path d="m340.28,547.73c-5.52-8.64-10.71-12.41-8.26-18.98.86-2.31,3.98-2.54,5.35-1.19,4.5,4.46,3.91,10,2.91,20.17Z" fill="#e69329"/>
          <path d="m458.33,651.11c-3.64-.02-9.01,2.69-9.71-3.71-.54-4.94,4.43-4.94,7.87-5.52,3.47-.58,8.03-1.93,9.09,3.01,1.09,5.07-3.61,5.32-7.24,6.23Z" fill="#d07328"/>
          <path d="m241.09,660.64c5.95.02,8.33,4.9,10.59,9.46,1.03,2.08-.68,4.23-2.97,4.29-5.77.15-9.85-2.83-11.73-8.19-1-2.86.66-4.87,4.1-5.55Z" fill="#d07328"/>
          <path d="m375.9,685.7c8.97-.13,15.06,1.87,18.62,8.29,1.15,2.08-1.19,4.01-3.29,4-7.29-.04-12.5-3.22-15.33-12.29Z" fill="#d07328"/>
          <path d="m356.71,637.01c.41,4.66-1.7,6.71-4.97,7.64-3.41.96-6.5-.32-7.91-3.34-1.56-3.32.19-6.3,3.59-7.26,3.79-1.06,6.79,1.13,9.3,2.96Z" fill="#d07328"/>
          <path d="m512.05,604.3c5.11.37,5.11,4.42,5.61,7.99.38,2.75-.08,5.65-3.22,6.21-5.3.96-5.72-3.29-6.29-6.91-.52-3.3-.23-6.36,3.9-7.29Z" fill="#e69329"/>
          <path d="m519.74,564.08c9.26-4.4,15.66-4.85,17.07-11.72.49-2.41-2.03-4.27-3.91-3.84-6.18,1.39-8.61,6.41-13.16,15.56Z" fill="#e69329"/>
          <path d="m526.66,683.64c.41,4.66-1.7,6.71-4.97,7.64-3.41.96-6.5-.32-7.91-3.34-1.56-3.32.19-6.3,3.59-7.26,3.79-1.06,6.79,1.13,9.3,2.96Z" fill="#d07328"/>
        </g>
        <g>
          <path d="m733.38,441.47c-.43-15.63,3.51-31.36,11.27-44.94,7.76-13.58,19.3-24.97,32.98-32.53,7.46-4.13,15.54-7.13,23.88-8.89,11.03-2.32,22.51-2.43,33.58-.34,4.57.86,8.99,2.38,13.46,3.63-4.42,2.87-7.49,7.46-9.56,12.31-2.07,4.85-3.23,10.02-4.64,15.1-3.04,11-7.22,21.67-12.45,31.81-4.4,8.53-9.94,17.04-18.43,21.52-5.78,3.05-12.42,3.94-18.9,4.79-17.48,2.28-34.22,2.23-51.2-2.46Z" fill="#46aa8b"/>
          <path d="m716.03,326.18c.38,1.25.18,2.68.09,4.02-.43,6.47,2.1,12.71,4.34,18.79,5.35,14.52,9.24,29.57,11.63,44.85,2.35,15.08,3.97,31.06,1.89,46.25-.13.96-.28,1.92-.44,2.87,0,.6-13.11.69-14.48.6,2.13-29.51-6.76-59.69-24.53-83.35-4.07-5.41-8.57-10.48-12.53-15.97-2.08-2.88-4-6.89-1.88-9.74,1.07-1.43,2.87-2.07,4.56-2.63,7.58-2.52,15.15-5.04,22.73-7.56,2.83-.94,6.61-1.58,8.21.94.19.29.32.6.42.93Z" fill="#7b5227"/>
          <path d="m650.31,411.22c-35.17-3.71-70.66,14.26-92.52,42.06-21.86,27.8-31,64.17-30.11,99.52.89,35.35,11.19,69.89,24.92,102.48,11.94,28.33,39.07,59.01,64.28,76.41,14.26,9.84,31.27,16.47,48.64,17.58,18.22,1.16,32.65-7.98,50.17-9.55,28.72-2.58,53.01,17.56,82.11,9.23,14.61-4.18,27.63-12.71,39.37-22.37,55.8-45.98,86.92-124.49,82.67-196.14-2.89-48.66-27.78-98.77-77.28-113.44-19.93-5.91-43.01-5.02-63.05.13-19.15,4.92-33.09,22.74-54.28,22.16-11.96-.33-22.82-9.87-33.21-14.96-13.16-6.44-27.07-11.56-41.72-13.1Z" fill="#a0ce62"/>
          <path d="m839.26,478.59c8.75,9.81,14.48,21.86,21.25,33.13,1.64,2.74,4.2,5.83,7.32,5.13,2.45-.54,3.76-3.19,4.49-5.6,4.53-14.9-.47-31.85-11.13-43.2-10.66-11.36-26.32-17.34-41.89-17.88-4.71-.17-10.14.59-14.11,3.31-2.33,1.59-4.33,4.73-3.5,7.6,1.76,6.07,14.12,4.26,19.1,5.76,7.11,2.14,13.52,6.2,18.47,11.75Z" fill="#b4d680"/>
        </g>
      </g>
      <g>
        <circle cx="512" cy="512" r="475" fill="none" stroke="#d72028" stroke-miterlimit="10" stroke-width="47.5"/>
        <line x1="176.12" y1="847.88" x2="847.88" y2="176.12" fill="none" stroke="#d72028" stroke-miterlimit="10" stroke-width="47.5"/>
      </g>
    </g>
    <rect width="1024" height="1024" fill="none"/>
  </g>
</svg>