<?xml version="1.0" encoding="UTF-8"?>
<svg id="b" data-name="Layer 2" xmlns="http://www.w3.org/2000/svg" viewBox="0 0 1024 1024">
  <g id="c" data-name="Layer 1">
    <g>
      <path id="d" data-name="Path 6511" d="m77.15,930.32l370.7-212.29c2.72-1.58,5.23-3.5,7.45-5.73,3.4-2.27,6.68-4.72,9.82-7.34l497.02-417.03c47.57-40.4,53.38-111.72,12.98-159.28-40.06-47.16-110.59-53.34-158.23-13.86l-497.01,417.06c-3.12,2.63-6.1,5.42-8.92,8.37-2.58,1.82-4.92,3.95-6.96,6.36L30.56,874.77c-13.04,15.61-10.95,38.83,4.65,51.87,11.83,9.88,28.57,11.35,41.94,3.68Z" fill="#478fc4"/>
      <path id="e" data-name="Path 6512" d="m818.26,261.14c-25.85-30.74-42.09-68.42-46.69-108.32l-451.68,379.02c-3.12,2.63-6.1,5.42-8.92,8.37-2.58,1.82-4.92,3.95-6.96,6.36L30.56,874.77c-13.04,15.61-10.95,38.83,4.65,51.87,11.83,9.88,28.57,11.35,41.94,3.68l370.7-212.29c2.71-1.59,5.22-3.51,7.45-5.73,3.41-2.28,6.69-4.73,9.85-7.35l451.65-379.01c-38.49-11.47-72.76-34-98.55-64.79Z" fill="#e4eef6"/>
      <circle id="f" data-name="Ellipse 1057" cx="887.07" cy="203.4" r="67.19" fill="#8ca0ae"/>
      <rect id="g" data-name="Rectangle 233" x="436.6" y="344.79" width="408.66" height="130.2" transform="translate(-113.54 507.79) rotate(-39.99)" fill="#c0c1c4"/>
      <rect id="h" data-name="Rectangle 234" x="436.76" y="344.78" width="408.66" height="130.2" transform="translate(-113.49 507.89) rotate(-39.99)" fill="#c0c1c4"/>
      <path id="i" data-name="Path 6513" d="m437.42,580.71c-25.85-30.74-42.09-68.42-46.69-108.32l-70.85,59.46c-3.12,2.63-6.1,5.42-8.92,8.37-2.58,1.82-4.92,3.95-6.96,6.36L30.56,874.77c-13.04,15.61-10.95,38.83,4.65,51.87,11.83,9.88,28.57,11.35,41.94,3.68l370.7-212.29c2.71-1.59,5.22-3.51,7.45-5.73,3.41-2.28,6.69-4.73,9.85-7.35l70.82-59.45c-38.49-11.47-72.76-34-98.55-64.79Z" fill="#478fc4"/>
      <path d="m591.33,505.9l-44.03-52.47-.99,18.34-8.41-.9,2-27.94,6.56-5.49,52.25,62.27-7.38,6.19Z" fill="#090a13"/>
      <path d="m576.13,410.96c14.56-12.21,33.06-.22,46.44,15.76,13.41,15.96,22.07,36.35,7.5,48.56-14.55,12.24-33.12.14-46.53-15.81-13.39-15.97-21.98-36.27-7.42-48.51Zm5.55,6.63c-9.51,7.98-.81,23.1,9.55,35.46,10.24,12.21,23.69,23.66,33.3,15.6,9.61-8.06.75-23.37-9.5-35.59-10.35-12.34-23.74-23.53-33.35-15.47Z" fill="#090a13"/>
      <path d="m657.34,362.08c-5.16-6.17-4.42-15.53,1.84-20.79,6.26-5.26,15.59-4.34,20.78,1.81,5.22,6.26,4.44,15.51-1.83,20.75-6.26,5.26-15.55,4.46-20.8-1.78Zm4.39-3.69c3.2,3.83,8.89,4.31,12.72,1.1,3.81-3.21,4.41-8.95,1.18-12.78-3.13-3.74-8.96-4.25-12.8-1.04-3.83,3.23-4.24,8.99-1.1,12.72Z" fill="#090a13"/>
      <path d="m732.28,387.63l-52.25-62.27,32.03-26.88,5.49,6.56-24.56,20.6,17.33,20.64,23.9-20.06,5.45,6.52-23.88,20.05,23.96,28.58-7.48,6.27Z" fill="#090a13"/>
      <path d="m671.48,438.64l-44.03-52.47-.99,18.34-8.41-.9,2-27.94,6.56-5.49,52.25,62.27-7.38,6.19Z" fill="#090a13"/>
      <path d="m126.89,841.29c-12.32-14.69-22.36-30.16-30.31-45.75l-66.02,79.24c-13.04,15.61-10.95,38.83,4.65,51.87,11.83,9.88,28.57,11.35,41.94,3.68l89.51-51.26c-13.97-10.53-27.46-23.1-39.78-37.78Z" fill="#c0c1c4"/>
    </g>
    <rect width="1024" height="1024" fill="none"/>
  </g>
</svg>