<?xml version="1.0" encoding="UTF-8"?>
<svg id="b" data-name="Layer 2" xmlns="http://www.w3.org/2000/svg" viewBox="0 0 180 30">
  <g id="c">
    <path id="d" d="m99.85,29.87l-9.76-5.05-9.69,5.18,1.79-10.84-7.92-7.62,10.86-1.65,4.8-9.89,4.93,9.82,10.89,1.51-7.82,7.72,1.93,10.82Z" fill="#ecf4f9"/>
    <path id="e" d="m62.72,29.87l-9.76-5.05-9.69,5.18,1.79-10.84-7.92-7.62,10.86-1.65L52.79,0l4.93,9.82,10.89,1.51-7.82,7.72,1.93,10.82Z" fill="#ecf4f9"/>
    <path id="f" d="m136.98,29.87l-9.76-5.05-9.69,5.18,1.79-10.84-7.92-7.62,10.86-1.65,4.8-9.89,4.93,9.82,10.89,1.51-7.82,7.72,1.93,10.82Z" fill="#ecf4f9"/>
    <path id="g" d="m174.11,29.87l-9.76-5.05-9.69,5.18,1.79-10.84-7.92-7.62,10.86-1.65,4.8-9.89,4.93,9.82,10.89,1.51-7.82,7.72,1.93,10.82Z" fill="#ecf4f9"/>
    <path id="h" d="m25.58,29.87l-9.76-5.05-9.69,5.18,1.79-10.84L0,11.54l10.86-1.65L15.66,0l4.93,9.82,10.89,1.51-7.82,7.72,1.93,10.82Z" fill="#ecf4f9"/>
  </g>
</svg>