<?xml version="1.0" encoding="UTF-8"?>
<svg id="b" data-name="Layer 2" xmlns="http://www.w3.org/2000/svg" viewBox="0 0 87.5 42.74">
  <g id="c" data-name="Layer 1">
    <path d="m24.57,8.23c3.64-2.32,7.93-3.23,12.13-3.88,4.42-.68,9.02-1.62,13.51-1.84,5.9-.28,13.51,5.64,16.35,10.6,2.14,3.74.6,8.56-1.34,12.05-2.31,4.14-4.37,9.51-9.65,10.35-5.99.96-12.21,1.97-18.34,2.17-8.32.27-16.96-4.15-19.43-12.61-1.5-5.11,2.45-14.09,6.76-16.83Z" fill="#faf5b1"/>
    <path d="m10.66,13.52c-1.67-.81-3.49-1.27-5.49-1.31-1.24-.03-2.57.45-3.24,1.51-.76,1.2-.47,2.75-.31,4.16.4,3.71-2.56,7.87-1.32,11.49.51,1.5,1.88,2.56,2.6,3.97,1.54,2.99.22,7.42,2.94,9.4,4.36.21,8.7-2.63,10.25-6.71.77-2.02.89-4.23,1.44-6.33.73-2.83,2.71-4.64,1.6-7.67-.9-2.45-2.98-4.42-4.87-6.06-1.14-1-2.33-1.82-3.61-2.44Z" fill="#468fc3"/>
    <path d="m7.28,17.11c-.79-.19-1.62-.37-2.42-.21s-1.57.76-1.69,1.57c-.13.93.61,1.74,1.29,2.39,1.11,1.06,2.22,2.13,3.33,3.19,1.21,1.16,2.52,2.58,2.34,4.25-.14,1.28-1.13,2.27-1.95,3.26-.87,1.06-1.61,2.28-1.77,3.64-.25,2.03.98,5.17,2.95,2.5,1.76-2.36,4-4.14,6.09-6.24,1.19-1.2,3.03-2.28,3.86-3.76.85-1.51.71-3.48.14-5.06-.63-1.75-1.85-2.31-3.49-3.04-2.77-1.22-5.75-1.79-8.67-2.5Z" fill="#3574a2"/>
    <path d="m75.15,6.98c1.01-1.41,1.65-3.07,2.65-4.49S80.37-.13,82.08.01c1.51.13,2.79,1.32,3.46,2.71s.85,2.97.98,4.51c.31,3.46-.95,7.1-.7,10.66.26,3.72,3.14,7.29.72,11.01-1.25,1.93-3.97,2.4-6.11,1.64s-3.81-2.47-5.3-4.22-2.89-3.63-4.78-4.9c-1.18-.8-2.55-1.36-3.51-2.42-1.77-1.97-2.6-6.56,0-7.74,3.17-1.45,5.94-.93,8.31-4.27Z" fill="#468fc3"/>
    <path d="m73.35,11.83c1.05-.34,1.86-1.01,2.81-2.69.81-1.43,1.48-3,2.61-4.15,1.01-1.02,3.76-2.21,3.84.3.06,2.03-2.05,4.8-3.35,6.08-1.19,1.17-2.77,2.1-3.67,3.57-1.46,2.37,2.39.97,3.41.48,1.39-.67,2.91-1.43,4.37-.97,1.82.57,2.71,3.22,1.63,4.88-.46.72-1.18,1.2-1.75,1.81-1.96,2.09.26,1.61,1.54,2.71,1.97,1.71-.44,3.6-2.16,3.55-1.21-.03-2.34-.63-3.37-1.31-1.59-1.05-3.3-1.79-4.82-2.9s-2.88-2.39-4.61-2.94c-1.97-.62-3.91-1.81-4.38-4.1-.58-2.83,3.08-3.55,5.09-3.84,1.16-.17,2.04-.24,2.8-.49Z" fill="#3574a2"/>
    <ellipse cx="42.63" cy="18.37" rx="17.94" ry="8.16" transform="translate(-2.35 6.89) rotate(-9)" fill="#e05359"/>
    <g isolation="isolate">
      <path d="m36.83,18.37c.02.12-.04.19-.15.21l-.33.05c-.12.02-.19-.04-.21-.15l-.15-.96c-.06-.39-.21-.62-.68-.54-.47.07-.54.33-.47.72l.57,3.61c.06.39.21.61.67.54.47-.07.54-.33.47-.72l-.15-.97c-.02-.12.04-.18.15-.2l.33-.05c.12-.02.19.03.21.14l.15.97c.12.78-.09,1.25-1.07,1.41-.99.16-1.33-.23-1.46-1.01l-.57-3.61c-.12-.78.09-1.25,1.07-1.41.99-.16,1.33.23,1.46,1.01l.15.96Z" fill="#fff"/>
      <path d="m38.27,18.71l1.15-.18-.4-2.51c-.02-.12.04-.18.15-.2l.33-.05c.12-.02.19.03.21.14l.89,5.59c.02.11-.04.19-.15.21l-.33.05c-.12.02-.19-.04-.21-.15l-.4-2.51-1.15.18.4,2.51c.02.11-.04.19-.15.21l-.33.05c-.12.02-.19-.04-.21-.15l-.89-5.59c-.02-.12.04-.18.15-.2l.33-.05c.12-.02.19.03.21.14l.4,2.51Z" fill="#fff"/>
      <path d="m41.94,21.29c.02.11-.04.19-.15.21l-.33.05c-.12.02-.19-.04-.21-.15l-.89-5.59c-.02-.12.04-.18.15-.2l.33-.05c.12-.02.19.03.21.14l.89,5.59Z" fill="#fff"/>
      <path d="m44.55,17.14c.02.12-.04.19-.15.21l-.33.05c-.12.02-.19-.04-.21-.15l-.15-.96c-.06-.39-.21-.62-.67-.54s-.54.33-.47.72l.57,3.61c.06.39.21.61.67.54.47-.07.54-.33.47-.72l-.15-.97c-.02-.12.04-.18.15-.2l.33-.05c.12-.02.19.03.21.14l.15.97c.12.78-.09,1.25-1.07,1.41-.99.16-1.33-.23-1.46-1.01l-.57-3.61c-.12-.78.09-1.25,1.07-1.41.99-.16,1.33.23,1.46,1.01l.15.96Z" fill="#fff"/>
      <path d="m46.42,20.18l1.35-.21c.12-.02.19.03.21.14l.04.22c.02.11-.04.19-.15.21l-1.86.29c-.12.02-.19-.04-.21-.15l-.89-5.59c-.02-.12.04-.18.15-.2l.33-.05c.12-.02.19.03.21.14l.82,5.2Z" fill="#fff"/>
      <path d="m49.5,14.18c.11-.02.19.03.21.14l.04.22c.02.12-.04.19-.15.21l-1.35.21.33,2.11,1.04-.16c.11-.02.19.03.21.14l.04.22c.02.12-.04.19-.15.21l-1.04.16.33,2.11,1.35-.21c.11-.02.19.03.21.14l.04.22c.02.11-.04.19-.15.21l-1.86.29c-.12.02-.19-.04-.21-.15l-.89-5.59c-.02-.12.04-.18.15-.2l1.86-.29Z" fill="#fff"/>
    </g>
  </g>
</svg>