<?xml version="1.0" encoding="UTF-8"?><svg id="Layer_2" xmlns="http://www.w3.org/2000/svg" xmlns:xlink="http://www.w3.org/1999/xlink" viewBox="0 0 52.35 87.5"><defs><clipPath id="clippath"><path d="M27.5,86.33l3.58-31.13c.09-.78-.52-1.47-1.31-1.47h-7.17c-.79,0-1.4,.69-1.31,1.47l3.58,31.13c.18,1.56,2.45,1.56,2.63,0Z" fill="none"/></clipPath></defs><g id="Layer_1-2"><g><path d="M27.5,86.33l3.58-31.13c.09-.78-.52-1.47-1.31-1.47h-7.17c-.79,0-1.4,.69-1.31,1.47l3.58,31.13c.18,1.56,2.45,1.56,2.63,0Z" fill="#fbfae1"/><g clip-path="url(#clippath)"><path d="M32.56,56.45c-3.18,3.88-8.74,5.63-13.57,4.27,.03,1.04-.21,2.47-.18,3.51,3.96,1.27,8.46,.72,12-1.46,1.1-.68,2.15-1.56,2.66-2.76s.11-2.75-.91-3.56Z" fill="#df5f48"/><path d="M32.56,65.14c-3.18,3.88-8.74,5.63-13.57,4.27,.03,1.04-.21,2.47-.18,3.51,3.96,1.27,8.46,.72,12-1.46,1.1-.68,2.15-1.56,2.66-2.76s.11-2.75-.91-3.56Z" fill="#df5f48"/><path d="M32.37,73.83c-3.18,3.88-8.74,5.63-13.57,4.27,.03,1.04-.21,2.47-.18,3.51,3.96,1.27,8.46,.72,12-1.46,1.1-.68,2.15-1.56,2.66-2.76s.11-2.75-.91-3.56Z" fill="#df5f48"/></g><path d="M27.09,.04c.63,.05,1.25,.16,1.86,.32,2.99,.8,5.6,2.95,6.96,5.73,1.86,3.8,3.76,1.07,6.77,2.77,1.7,.96,2.97,2.95,3.29,4.86,.23,1.36-.08,3.22,.43,4.46,.33,.79,1.15,1.23,1.84,1.75,1.59,1.22,2.4,3.06,2.73,4.99,.48,2.81-.8,5.84-3.15,7.46,3.4,2.21,5.81,9.22,3.75,12.92-.65,1.18-1.61,2.13-2.22,3.32-.73,1.45-1.18,2.93-2.19,4.25-1.1,1.44-2.65,2.61-4.43,2.92-1.55,.27-3.11-.12-4.66,.06-1.39,.16-2.06,.88-3.22,1.58-2.29,1.39-5,2.1-7.67,1.98-3.64-.16-7.19-1.87-9.6-4.61-2.9,1.43-6.59,1.12-9.21-.79-1.16-.85-2.09-1.99-2.71-3.28s-.44-2.81-.93-4.09c-.8-2.06-3.58-2.94-4.34-5.17-.68-1.98-.42-4.2,.43-6.11,.51-1.15,1.23-2.24,1.38-3.49,.2-1.64-.62-3.2-1.03-4.8-.86-3.34,.21-7.1,2.69-9.5,1-.96,2.22-1.74,2.91-2.94,.68-1.19,.73-2.63,1.11-3.95,.57-1.99,2.01-3.66,3.79-4.69,1.38-.8,2.97-.38,4.38-.92,1.51-.58,2.61-2.32,3.99-3.24C22.1,.47,24.63-.17,27.09,.04Z" fill="#d0e3f0"/><path d="M21.78,8.86c1.94,1.13,3.44,3.24,5.56,4.11,2.55,1.05,5.49,.14,8.19,.71,3.29,.7,5.6,3.32,8.14,5.31,2.88,2.26,6.65,2.09,7.31,5.94,.48,2.81-.8,5.84-3.15,7.46,3.4,2.21,5.81,9.22,3.75,12.92-.65,1.18-1.61,2.13-2.22,3.32-.73,1.45-1.18,2.93-2.19,4.25-1.1,1.44-2.65,2.61-4.43,2.92-1.55,.27-3.11-.12-4.66,.06-1.39,.16-2.06,.88-3.22,1.58-2.29,1.39-5,2.1-7.67,1.98-3.64-.16-7.19-1.87-9.6-4.61-2.9,1.43-6.59,1.12-9.21-.79-1.16-.85-2.09-1.99-2.71-3.28s-.44-2.81-.93-4.09c-.8-2.06-3.58-2.94-4.34-5.17-.68-1.98-.42-4.2,.43-6.11,.51-1.15,1.23-2.24,1.38-3.49,.2-1.64-.62-3.2-1.03-4.8-.86-3.34,.21-7.1,2.69-9.5,2.92-2.82,6.43-3.77,9.5-6.51,1.87-1.67,4.19-3.32,6.66-2.88,.63,.11,1.2,.35,1.74,.66Z" fill="#bdd7ea"/><path d="M45.72,51.24c-1.31,.24-2.65,.22-3.98,.21-2.55-.03-5.24-.22-7.63,.85-1.44,.64-2.76,1.75-4.33,1.75-2.6,.01-4.28-2.87-6.77-3.63-3.48-1.06-6.93-.03-10.3-1.92-2.24-1.25-3.45-3.34-5.23-5.1-1.3-1.28-3.2-1.88-4.22-3.5-1.17-1.86-.6-4.26-.52-6.45,.05-1.23-.08-2.46-.37-3.66,.08,.13,.17,.26,.26,.38,.72,.99,1.69,1.83,2.1,2.98,.35,.99,.25,2.09,.58,3.08,.77,2.32,3.58,3.25,6.02,3.31,2.44,.06,4.99-.4,7.27,.49,1.85,.72,3.05,2.27,4.87,3.01,2.11,.85,4.38,1.32,6.65,1.36,1,.02,2.02-.05,2.95-.41,.97-.37,1.27-1.05,1.99-1.66,.79-.68,1.63-1.05,2.74-1.24,1.24-.22,2.58-.11,3.7-.7,.93-.49,1.55-1.39,2.14-2.26,.77-1.14,1.47-2.41,2.35-3.47,.51-.61,1.73-1.37,1.55-2.22-2.23,.48-4.13,1.97-6.4,2.4-2.33,.44-4.74,.43-7.08,.16-5.04-.59-9.95-2.22-15.02-2.39-2.61-.09-5.67,0-7.25-2.07-1.07-1.41-.9-3.22-2.24-4.48-.24-.23-.5-.44-.75-.67-.42-.38-.81-.79-1.06-1.3-.42-.86-.34-1.86-.44-2.81-.18-1.8-1.32-4.08-3.4-2.93-1.41,.78-2.12,2.98-2.5,4.43-.74,2.81,.25,5.09,.32,7.83,.04,1.63-.3,3.22-.99,4.7-.84,1.78-.94,4.31-.3,6.17,.76,2.23,3.54,3.11,4.34,5.17,.49,1.27,.28,2.75,.93,4.09,.63,1.29,1.55,2.43,2.71,3.28,2.61,1.91,6.3,2.23,9.21,.79,2.41,2.74,5.96,4.44,9.6,4.61,2.68,.12,5.38-.59,7.67-1.98,1.16-.7,1.83-1.42,3.22-1.58,1.55-.18,3.11,.21,4.66-.06,1.9-.33,3.51-1.62,4.6-3.16,1.72-2.4,.23-1.75-1.63-1.41Z" fill="#aacbe3"/></g></g></svg>