<?xml version="1.0" encoding="UTF-8"?>
<svg id="b" data-name="Layer 2" xmlns="http://www.w3.org/2000/svg" viewBox="0 0 300 300.82">
  <g id="c" data-name="Layer 1">
    <ellipse cx="150" cy="150.41" rx="150" ry="150.41" fill="#bdd7ea"/>
    <path d="m203.04,276.13c-1.34-4.21-2.16-8.59-2.43-13-.05-.89-.01-11.79.01-11.79-22.8,1.94-46.93,8.25-69.69,5.86-4.56-.48-9.08-1.32-13.6-2.16-5.83-1.09-11.57-2.61-17.39-3.69.86.93,1.39,2.23,1.7,3.46,3.14,12.51,2.21,27.27-6.94,35.46,17.11,6.81,35.77,10.55,55.29,10.55,21.04,0,41.07-4.35,59.25-12.2-1-1.22-1.86-2.58-2.6-3.95-1.47-2.73-2.67-5.6-3.61-8.54Z" fill="#a26d35"/>
    <path d="m100.25,253.53c9.57,8.44,20.36,15.18,30.28,23.26,5.48,4.46,14.68,7.8,21.57,8.11,6.37.29,12.68-1.86,18.3-5.06,5.61-3.2,10.63-7.43,15.61-11.63,4.86-4.1,10.76-7.93,14.42-13.19" fill="#7b5227"/>
    <path d="m69.46,217.78c3.96,11.13,12.32,20.12,21.12,28.01,13.42,12.05,28.55,21.2,43.41,31.11,5.68,3.79,15.74,6.45,22.64,6.05,8.95-.51,16.65-6.2,23.77-11.66,4.45-3.42,8.91-6.84,13.36-10.26,9.78-7.51,19.71-15.16,26.99-25.12,9.41-12.86,13.85-29.27,12.21-45.12-.99-9.51-4.06-19.04-2.37-28.44.82-4.53,2.73-8.94,2.4-13.53-.68-9.41-10.12-15.43-18.76-19.23-11.95-5.25-24.46-9.25-37.24-11.89-10.35-2.14-20.91-3.4-31.48-3.16-7.28.16-14.52,1.03-21.72,2.05-8.57,1.21-16.64,4.17-25.02,5.41-8.33,1.23-15.52,6.51-21.99,11.55-3.92,3.05-8.07,6.57-8.95,11.46-.58,3.18.35,6.42,1.27,9.51,1.41,4.73,3.33,9.02,2.89,14.08-.39,4.46-2.36,8.9-3.19,13.12-2.32,11.87-3.49,24.43.65,36.05Z" fill="#a26d35"/>
    <path d="m60.09,163.98c-4.13.5-8.31,2.48-10.64,5.74-3.73,5.22-3.72,16.93-1.52,22.86.77,2.09,2.09,3.94,3.49,5.67,4.55,5.66,10.72,10.75,17.97,11.11-2.32-11.18-1.67-22.96,1.87-33.82,2.91-8.91-4.05-12.43-11.17-11.57Z" fill="#a26d35"/>
    <path d="m241.72,166.61c4.11.62,8.23,2.72,10.47,6.05,3.57,5.33,3.23,17.03.86,22.9-.83,2.07-2.2,3.87-3.65,5.57-3.39,3.97-7.17,6.8-11.78,9.17-1.53.79-3.57,2.24-5.28,2.4-.54.05-5.04-.86-4.83-1.02,4.41-3.42,4.79-9.83,4.75-15.41-.07-10.05-8.82-32.41,9.46-29.65Z" fill="#a26d35"/>
    <path d="m73.01,167.39c1.25-4.3,2.36-8.58,1.82-13.16-.39-3.32-3.8-7.89-2.75-10.57,1.7-4.34,10.21-8.43,14.13-10.56,6.23-3.38,13.26-5.37,20.17-6.77,4.95-1,10.04-1.63,15.06-1.05,8.22.95,15.71,5.05,22.95,9.06,4.3,2.39,8.61,4.77,12.91,7.16,2.13,1.18,4.49,2.4,6.88,1.92,4.1-.82,5.62-6.06,4.93-10.19s-2.73-8.06-2.49-12.24c11.5,7.86,23.18,15.47,35.01,22.82,4.76,2.95,10.59,5.2,16.27,5.07,2.84-.07,5.68-.75,7.98-2.51,1.3-1,4.53-5.02,6-2.34.36.66.4,1.43.41,2.18.11,6.64-2.21,12.65-3.82,19-.56,2.19-1.07,4.65-.5,6.89.41,1.6,3.59,3.91,3.67,4.71-1.26-11.93,11.28-18.87,14.4-30.33,2.22-8.16,2.14-16.83.73-25.17-.52-3.08-1.22-6.19-.96-9.31.26-3.12,1.68-6.34,4.42-7.85.69-.38,1.52-.71,1.82-1.45.26-.65,0-1.39-.3-2.04-3.27-7.13-10.36-11.94-17.85-14.3-7.49-2.35-15.46-2.57-23.31-2.77,8.17-5.28,12.31-16.09,9.76-25.48-4.88,6.71-14.6,6.84-22.89,7.12-14.83.49-29.58,3.56-43.37,9.03-4.44,1.76-9.05,3.81-13.8,3.27-.63-.07-1.29-.21-1.76-.63-.67-.61-.76-1.63-.8-2.54-.12-2.81-.24-5.62-.35-8.43-12.93-1.1-26.25,4.39-34.65,14.27-1.01-8.67-8.91-16-17.62-16.37,3.25,5.08,4.39,11.48,3.08,17.37-4.87-2.25-11.29-.48-15.86,2.33-4.57,2.81-8.05,7.04-11.38,11.25-4.51,5.69-8.96,11.59-11.39,18.43-1.16,3.29-1.83,6.72-2.43,10.16-1.59,9.13-2.64,18.82.86,27.4,1.98,4.86,5.53,8.52,7.66,13.19.1.21.2.43.38.56.24.18.56.19.87.2,3.05.04,6.97-.61,9.79.66,1.23.55,2.29,1.68,3.08,2.74.45.61.85,1.27,1.08,1.99.14.44.17.91.21,1.37.04.47.04.96.3,1.37.31-.43.5-1.2.73-1.72.27-.6.74-3.13.94-3.8Z" fill="#0f0b0b" stroke="#000" stroke-linecap="round" stroke-linejoin="round" stroke-width=".3"/>
    <path d="m62.09,167.7c1.06.08,2.43.18,3.16,1.06.38.47.53,1.29-.16,1.57-.66.26-1.57-.23-2.23-.33-2.13-.34-4.4.12-6.24,1.24-1.06.65-1.93,1.54-2.5,2.65-.64,1.25-.62,2.62-1.32,3.83-.13.22-.29.45-.53.52-.6.19-.69-.72-.67-1.09.19-2.93,1.73-5.75,4.11-7.49,1.77-1.29,4.13-2.14,6.37-1.97Z" fill="#7b5227" stroke="#7b5227" stroke-miterlimit="10" stroke-width=".23"/>
    <path d="m168.8,210.48c.28-1.15.18-2.44-.24-3.5-.27-.68-.75-1.24-1.1-1.87-.42-.73-.38-1.89.53-1.16.82.66,1.27,1.81,1.72,2.74,1.06,2.22,1.07,4.89-.64,6.76-1.27,1.39-3.13,2.06-4.97,2.23-1.95.18-3.87-.35-5.73-.01-1.81.33-3.68.82-5.52,1.16-.75.14-1.52.21-2.28.22-1.48.02-2.98-.21-4.39-.59-.9-.24-1.88-.31-2.81-.47-1.81-.32-3.03-.62-4.87-.67s-3.6-.33-5.02-1.48c-1.35-1.09-2.12-2.84-2.23-4.6-.09-1.3.1-2.78.63-3.96.26-.58.63-1.18,1.22-1.45.91-.4,1.35-.04.63.78-.4.45-.72.96-.92,1.54-.35,1.01-.38,2.11-.35,3.18.02.96.12,2.01.76,2.72.9,1,2.45.88,3.73.55,2.26-.58,4.08-.4,6.23.55,2.01.89,3.61,2.7,5.84,2.88,1.86.15,4.32.34,5.84-1,1.04-.92,1.84-1.55,3.18-1.95,1.53-.45,3.16-.64,4.73-.3,1.7.38,3.53,1.1,4.95-.3.54-.53.9-1.23,1.08-1.99Z" fill="#7b5227" stroke="#7b5227" stroke-linecap="round" stroke-linejoin="round" stroke-width=".36"/>
    <path d="m143.79,180.29c-.2,3.29-.94,6.56-2.13,9.64-.47,1.22-1.72,1.38-1.28-.2.34-1.22.88-2.39,1.13-3.64,1.05-5.15.77-10.28-.93-15.23-.73-2.14-2.07-4.07-3.17-6.08-.32-.58-.77-1.32.02-1.75,2.3-1.22,4.62,5.59,5.05,6.87,1.12,3.33,1.52,6.88,1.3,10.38Z" fill="#7b5227"/>
    <path d="m159.1,204.25c0,.1-.05.21-.13.31-.19.24-.56.32-.88.27-.52-.08-.87-.56-1.26-.85-.43-.31-.89-.59-1.37-.82-.92-.45-1.93-.76-2.97-.91-2.07-.31-4.23-.02-6.13.78-.7.29-1.36.67-1.93,1.15-.51.43-.9.96-1.41,1.37-.28.23-.67.38-1.05.32s-.69-.41-.63-.75c.1-.52,1.16-1.1,1.59-1.4.71-.48,1.46-.92,2.24-1.3,1.53-.74,3.2-1.24,4.93-1.36,1.89-.13,3.76.36,5.48,1.04.58.23,3.56,1.19,3.5,2.16Z" fill="#7b5227" stroke="#7b5227" stroke-linecap="round" stroke-linejoin="round" stroke-width=".37"/>
    <path d="m239.61,170.27c-1.06.05-2.44.11-3.19.97-.4.46-.57,1.28.11,1.57.65.28,1.57-.18,2.24-.27,2.13-.28,4.4.25,6.2,1.42,1.04.68,1.89,1.6,2.42,2.72.6,1.27.54,2.64,1.21,3.87.12.22.27.46.51.54.6.2.71-.7.7-1.07-.1-2.94-1.56-5.8-3.89-7.61-1.73-1.34-4.07-2.26-6.31-2.15Z" fill="#7b5227" stroke="#7b5227" stroke-miterlimit="10" stroke-width=".23"/>
    <g>
      <path d="m135.68,238.03c2.56-.8,4.85-2.21,7.3-3.26,2.45-1.06,5.23-1.77,7.83-1.09.76.2,1.48.51,2.25.66,1.99.38,3.99-.39,5.98-.77,7.48-1.44,15.28,2.57,22.74,1-2.08-.04-3.44,1.96-4.6,3.6-5.81,8.16-16.86,12.26-27.22,11.34-7.7-.68-14.9-3.79-21.84-7.03-1.67-.78-11.32-4.93-5.11-4.2,4.29.5,8.46,1.08,12.67-.24Z" fill="#b15537"/>
      <path d="m171.09,234.84c3.07.52,6.19,0,9.16-.03-2.58,1.8-3.13,4.61-5.24,6.7-2.12,2.1-4.64,3.82-7.37,5.14-5.26,2.55-11.33,3.63-17.21,3.11-7.7-.68-14.9-3.79-21.84-7.03-1.67-.78-11.32-4.93-5.11-4.2,4.29.5,8.46,1.08,12.67-.24,2.56-.8,4.85-2.21,7.3-3.26s5.23-1.77,7.83-1.09c.76.2,1.48.51,2.25.66,1.99.38,3.99-.39,5.98-.77,3.85-.74,7.81.37,11.58,1.01Z" fill="none" stroke="#7b5227" stroke-linecap="round" stroke-miterlimit="10" stroke-width="1.84"/>
      <path d="m179.45,235.63c-2.48,2.3-6.58,3.38-9.59,4.24-4.1,1.17-8.32,1.84-12.53,2.4-5.8.76-11.84,1.56-17.58.06,1.65.03,3.37.19,5.02.1s3.25-.4,4.86-.58c3.38-.39,6.76-.79,10.1-1.42,3.06-.57,6.08-1.3,9.06-2.19,1.33-.39,2.65-.82,3.97-1.25,1.42-.46,2.84-.91,4.25-1.37.67-.22,2.82-1.39,3.43-1.1-.29.4-.62.77-.99,1.11Z" fill="#7b5227"/>
    </g>
    <g>
      <path d="m186.93,148.84c3.02.07,6.03.36,8.99.85,5.13.85,10.67,2.2,14.68,5,.74.52,1.49,1.03,2.17,1.6,1.24,1.04,2.31,2.2,3.42,3.33.63.64,2.33,2.8.28,3.02-.66.07-1.23-.38-1.73-.65-.4-.21-.71-.51-1.12-.71-.39-.19-.83-.37-1.23-.52-1.02-.39-2.04-.79-3.08-1.14-.97-.33-2.02-.55-3.04-.8-.65-.16-1.31-.31-1.97-.44-3.63-.73-7.37-1.05-11.1-1.19-3.65-.14-7.32.09-10.97.23-2.02.08-4.16.34-6.11-.11-2.01-.46-3.45-1.66-3.46-3.3,0-1.43.84-2.86,2.37-3.66,1.51-.79,3.31-1.16,5.09-1.34,2.29-.23,4.52-.21,6.82-.16Z" fill="#0f0b0b" stroke="#0f0b0b" stroke-miterlimit="10" stroke-width=".32"/>
      <g>
        <g>
          <path d="m212.24,178.6c-4.42-1.04-8.17-3.72-12.25-5.52-3.99-1.76-8.33-2.8-12.7-2.85-3.49-.03-6.88,1.34-9.77,3.3-1.69,1.14-3.32,2.6-4.76,4.05-1.18,1.18-3.65,1.47-3.66,3.56,1.25.49,2.71.5,4.04.42,5.79-.39,11.61-.37,17.4.06,3.86.29,7.83.74,11.55-.33,3.23-.93,6.87-3.46,10.14-2.69Z" fill="#fff"/>
          <path d="m186.43,181.45c4.12.27,8.25.79,10.99-2.76,1.02-1.32,2.42-5.2.97-6.56-1-.95-3.75-1.18-5.1-1.42-1.96-.35-3.96-.51-5.96-.42-1.62.07-3.26.34-4.76.9-.68.26-3.47,1.39-3.47,2.23-1.33,1.48-.88,3.49.12,5.05,1.54,2.39,4.41,2.79,7.21,2.97Z" fill="#0f0b0b" stroke="#0f0b0b" stroke-miterlimit="10" stroke-width=".38"/>
          <path d="m213.92,174.02c-4.48-2.21-9.01-4.39-13.86-5.96-4.86-1.56-10.09-2.49-15.28-2.09s-10.32,2.24-13.73,5.52c2.68-3.75,7.51-6.62,12.71-7.19,6.15-.67,12.21,1.4,17.89,3.47,4.47,1.63,8.87,3.32,12.26,6.24Z" fill="#7b5227" stroke="#7b5227" stroke-linecap="round" stroke-linejoin="round" stroke-width=".49"/>
          <circle cx="186.6" cy="174.92" r="1.71" fill="#7b5227" stroke="#7b5227" stroke-linecap="round" stroke-linejoin="round" stroke-width=".34"/>
          <g>
            <path d="m173.66,180.45c-.04-.82-.65-1.9-1.12-2.18-.67-.4-1.06,0-1.63.41-.27.2-2.62,1.97-1.8,2.29.8.31,1.76.5,2.62.46.26-.01,1.55-.07,1.71-.23.17-.18.24-.44.22-.74Z" fill="#7b5227"/>
            <path d="m205.77,176.35c-.25.1-.46.29-.64.63-.23.46-.24.99-.25,1.51-.02,2.19,1.65.85,2.89.43,1.43-.49,2.97-.84,4.47-.49-1.31-.31-2.58-.77-3.82-1.31-.76-.33-1.85-1.09-2.66-.77Z" fill="#7b5227"/>
          </g>
          <path d="m212.24,178.6c-4.42-1.04-8.17-3.72-12.25-5.52-3.99-1.76-8.33-2.8-12.7-2.85-3.49-.03-6.88,1.34-9.77,3.3-1.69,1.14-3.32,2.6-4.76,4.05-1.18,1.18-3.65,1.47-3.66,3.56,1.25.49,2.71.5,4.04.42,5.79-.39,11.61-.37,17.4.06,3.86.29,7.83.74,11.55-.33,3.23-.93,6.87-3.46,10.14-2.69Z" fill="none" stroke="#0f0b0b" stroke-linecap="round" stroke-linejoin="round" stroke-width="1.44"/>
          <path d="m178.43,172.83c1.29-.93,2.72-1.69,4.22-2.24,1.42-.52,3.4-.96,4.92-.88,5.18.26,10.11,2.67,13.96,6.01,1.64,1.42,3.27,2.98,5.25,3.94,1.09.53,2.33.81,3.52.58-1.5-.82-2.95-1.74-4.34-2.73-1.33-.95-2.5-2.09-3.8-3.07-3.13-2.35-7.08-3.22-10.81-4.11" fill="none" stroke="#0f0b0b" stroke-linecap="round" stroke-linejoin="round" stroke-width="1.44"/>
        </g>
        <g>
          <path d="m113.07,148.84c-3.02.07-6.03.36-8.99.85-5.13.85-10.67,2.2-14.68,5-.74.52-1.49,1.03-2.17,1.6-1.24,1.04-2.31,2.2-3.42,3.33-.63.64-2.33,2.8-.28,3.02.66.07,1.23-.38,1.73-.65.4-.21.71-.51,1.12-.71.39-.19.83-.37,1.23-.52,1.02-.39,2.04-.79,3.08-1.14.97-.33,2.02-.55,3.04-.8.65-.16,1.31-.31,1.97-.44,3.63-.73,7.37-1.05,11.1-1.19,3.65-.14,7.32.09,10.97.23,2.02.08,4.16.34,6.11-.11,2.01-.46,3.45-1.66,3.46-3.3,0-1.43-.84-2.86-2.37-3.66-1.51-.79-3.31-1.16-5.09-1.34-2.29-.23-4.52-.21-6.82-.16Z" fill="#0f0b0b" stroke="#0f0b0b" stroke-miterlimit="10" stroke-width=".32"/>
          <g>
            <path d="m87.76,178.6c4.42-1.04,8.17-3.72,12.25-5.52,3.99-1.76,8.33-2.8,12.7-2.85,3.49-.03,6.88,1.34,9.77,3.3,1.69,1.14,3.32,2.6,4.76,4.05,1.18,1.18,3.65,1.47,3.66,3.56-1.25.49-2.71.5-4.04.42-5.79-.39-11.61-.37-17.4.06-3.86.29-7.83.74-11.55-.33-3.23-.93-6.87-3.46-10.14-2.69Z" fill="#fff"/>
            <path d="m113.57,181.45c-4.12.27-8.25.79-10.99-2.76-1.02-1.32-2.42-5.2-.97-6.56,1-.95,3.75-1.18,5.1-1.42,1.96-.35,3.96-.51,5.96-.42,1.62.07,3.26.34,4.76.9.68.26,3.47,1.39,3.47,2.23,1.33,1.48.88,3.49-.12,5.05-1.54,2.39-4.41,2.79-7.21,2.97Z" fill="#0f0b0b" stroke="#0f0b0b" stroke-miterlimit="10" stroke-width=".38"/>
            <path d="m86.08,174.02c4.48-2.21,9.01-4.39,13.86-5.96,4.86-1.56,10.09-2.49,15.28-2.09,5.18.41,10.32,2.24,13.73,5.52-2.68-3.75-7.51-6.62-12.71-7.19-6.15-.67-12.21,1.4-17.89,3.47-4.47,1.63-8.87,3.32-12.26,6.24Z" fill="#7b5227" stroke="#7b5227" stroke-linecap="round" stroke-linejoin="round" stroke-width=".49"/>
            <circle cx="110.41" cy="174.92" r="1.71" fill="#7b5227" stroke="#7b5227" stroke-linecap="round" stroke-linejoin="round" stroke-width=".34"/>
            <g>
              <path d="m126.34,180.45c.04-.82.65-1.9,1.12-2.18.67-.4,1.06,0,1.63.41.27.2,2.62,1.97,1.8,2.29-.8.31-1.76.5-2.62.46-.26-.01-1.55-.07-1.71-.23-.17-.18-.24-.44-.22-.74Z" fill="#7b5227"/>
              <path d="m94.23,176.35c.25.1.46.29.64.63.23.46.24.99.25,1.51.02,2.19-1.65.85-2.89.43-1.43-.49-2.97-.84-4.47-.49,1.31-.31,2.58-.77,3.82-1.31.76-.33,1.85-1.09,2.66-.77Z" fill="#7b5227"/>
            </g>
            <path d="m87.76,178.6c4.42-1.04,8.17-3.72,12.25-5.52,3.99-1.76,8.33-2.8,12.7-2.85,3.49-.03,6.88,1.34,9.77,3.3,1.69,1.14,3.32,2.6,4.76,4.05,1.18,1.18,3.65,1.47,3.66,3.56-1.25.49-2.71.5-4.04.42-5.79-.39-11.61-.37-17.4.06-3.86.29-7.83.74-11.55-.33-3.23-.93-6.87-3.46-10.14-2.69Z" fill="none" stroke="#0f0b0b" stroke-linecap="round" stroke-linejoin="round" stroke-width="1.44"/>
            <path d="m121.57,172.83c-1.29-.93-2.72-1.69-4.22-2.24-1.42-.52-3.4-.96-4.92-.88-5.18.26-10.11,2.67-13.96,6.01-1.64,1.42-3.27,2.98-5.25,3.94-1.09.53-2.33.81-3.52.58,1.5-.82,2.95-1.74,4.34-2.73s2.5-2.09,3.8-3.07c3.13-2.35,7.08-3.22,10.81-4.11" fill="none" stroke="#0f0b0b" stroke-linecap="round" stroke-linejoin="round" stroke-width="1.44"/>
          </g>
        </g>
      </g>
    </g>
    <path d="m61.88,168.12c1.06.08,2.44.18,3.16,1.07.39.47.53,1.3-.16,1.57-.66.26-1.57-.23-2.23-.33-2.13-.34-4.41.12-6.25,1.25-1.06.65-1.94,1.55-2.5,2.66-.64,1.25-.62,2.63-1.32,3.85-.13.22-.29.45-.53.52-.6.19-.69-.72-.67-1.09.19-2.95,1.73-5.78,4.11-7.52,1.77-1.3,4.14-2.15,6.38-1.98Z" fill="#7b5227" stroke="#7b5227" stroke-miterlimit="10" stroke-width=".3"/>
    <g>
      <path d="m121.98,200.34c-7.07,10.4-11.96,22.47-12.81,35.02-.85,12.55,2.55,25.56,10.46,35.34,7.91,9.77,20.51,15.92,33.05,14.94,13.22-1.03,25.18-9.89,31.46-21.56,6.29-11.67,7.26-25.77,4.26-38.68-3-12.91-9.74-24.73-18.03-35.09-4.6-5.75-11.09-11.63-18.94-11.87-7.29-.22-15.66,6.51-20.56,11.24-3.34,3.22-6.28,6.83-8.89,10.66Z" fill="#f2f7fb"/>
      <path d="m188.43,228.63c-1.5-9.84-5.19-19-10.43-27.46-3.45-5.56-7.54-10.66-12.65-14.83-1.02.81-1.91.74-2.88-.21-1.17-1.14-2.46-2.15-3.74-3.16-4.39-3.49-10.58-3.98-17.4.84-8.91,6.29-15.62,14.49-20.91,23.95-7.13,12.77-9.44,26.59-8.71,41,.28,5.4,2.12,10.48,4.7,15.23.48.88.76,1.59.55,2.52.21.59.32,1.25.65,1.76,6.34,9.74,17.23,15.56,28.56,16.61,3.27.3,6.57.21,9.81-.3,11.49-1.8,20.05-8.05,26.4-17.53,7.93-11.84,8.07-25.03,6.04-38.4Zm-62.11-24.53c-6.28,9.56-10.62,20.64-11.38,32.17-.47,7.09.5,14.34,2.95,20.96.14.84,1.15,2.96,1.37,3.29.39.84.8,1.67,1.24,2.49-2.71-.55-4.99-6.8-5.88-8.95-7.93-19.24,2.68-41.86,14.44-57.13.74-.96,1.48-1.83,2.41-2.61.57-.48,1.03-1.6,1.97-.89.42.31.59.66.62,1.03-2.9,2.92-5.48,6.18-7.75,9.64Zm23.79,48.8c-7,0-12.67-5.67-12.67-12.67,0-7,5.67-12.67,12.67-12.67,7,0,12.67,5.67,12.67,12.67,0,7-5.67,12.67-12.67,12.67Z" fill="#d7e7f2"/>
      <g>
        <path d="m165.35,186.34c-1.02.81-1.91.74-2.88-.21-1.17-1.14-2.46-2.15-3.74-3.16-4.39-3.49-10.58-3.98-17.4.84-8.91,6.29-15.62,14.49-20.91,23.95-7.13,12.77-9.44,26.59-8.71,41,.28,5.4,2.12,10.48,4.7,15.23.48.88.76,1.59.55,2.52-1.72-.07-2.2-1.53-2.74-2.69-3.14-6.79-4.93-13.76-4.95-21.42-.02-10.29,1.99-20.05,5.78-29.44,2.78-6.89,6.85-13.13,11.66-18.85,3.4-4.04,7.07-7.8,11.43-10.78,5.16-3.53,10.75-6.1,17.14-3.91,3.91,1.34,7.44,3.56,10.06,6.95Z" fill="#f2f7fb"/>
        <path d="m164.34,207.95c-1.16.11-3.2-5.27-3.81-6.17-1.49-2.22-3.4-4.35-5.9-5.43-8.27-3.55-17,10.47-20.22,16.14-4.6,8.09-7.32,17.1-8.24,26.35-.4,4.05-.38,8.29.65,12.24.5,1.92,1.25,3.76,2.45,5.35.39.51,3.08,3.87,3.79,1.6.66-2.11,3.03-5.73,1.93-7.85-3.26-6.26-3.27-12.53-.15-18.84.73-1.47.11-3.49-.83-4.72,0-.26-.77-1-.89-1.34-.08-.23-.12-.52-.13-.83-.02-.61.06-1.31.04-1.81,0-.98.24-1.87.6-2.73.63.73,1.24,1.47,1.98,2.07,3.42,2.78,4.12,3.27,6.22.74,1.51-.86,2.36-2.47,4.33-2.96,2.68-.66,5.17.51,7.79.15,2.18-.3,3.41-.74,2.91-3.36-.5-2.63.92-3.73,3.48-3.01.54.15,1.18.44,1.45-.16.36-.79,1.12-1.7.52-2.55-1.76-2.49-.14-2.67,2.05-2.88Z" fill="#f2f7fb"/>
        <path d="m173.4,260.74c-1.22-1.55-.75-2.82-.36-3.98,1.84-5.44,2.02-11.22,1.59-16.9-.42-5.71-1.08-11.01-2.6-16.57-1.24-4.52-2.94-8.91-5-13.12-1.17-2.39-2.84-4.43-4.11-6.72-.47-.86-1.53-2.13-.53-2.91,3.89-3.05,10.24,14.78,11,16.65,2.35,5.83,3.49,12,4.46,18.19,1.39,8.88.46,17.73-4.46,25.38Z" fill="#f2f7fb"/>
        <path d="m133.5,261.9c-.63-.57-1.19-1.17-1.57-1.81-.24-.39-.47-.83-.39-1.28.12-.72.94-1.06,1.64-1.28,1.26-.39,2.52-.78,3.78-1.16,2-.62,4.24-.06,5.89,1.23.41,1.33,1.19,2.15,2.69,2.23.7.04,1.97-.48,1.95.75-.02,1.35.66,3.16-.83,3.97-1.2.65-.77,2.14-1.91,2.62-1,.43-3.31-.44-4.28-.78-2.64-.93-4.93-2.62-6.97-4.5Z" fill="#f2f7fb"/>
        <path d="m170.08,200.25c-.37-.54-.76-1.08-1.17-1.6-.79-1-4.04-5.5-5-6.1,1.94,1.18,3.15,1.98,4.64,3.69,1.62,1.85,3.07,3.84,4.35,5.93,2.56,4.19,4.41,8.82,5.4,13.63-1.43-3.07-3.19-5.97-4.61-9.03-1.06-2.29-2.19-4.47-3.6-6.53Z" fill="#f2f7fb"/>
      </g>
      <path d="m140.1,203.98c-.14-.19-.16-.17-.02.01,0,0,.02-.01.02-.01Z" fill="#cce8df"/>
      <path d="m142.3,201.79c-.08-.04-.16-.08-.24-.12.07.05.15.09.22.14,0,0,.02-.02.02-.02Z" fill="#cce8df"/>
      <path d="m141.2,202.89c-.08-.04-.15-.08-.23-.12.07.04.14.09.22.13,0,0,.01-.01.01-.01Z" fill="#cce8df"/>
      <path d="m138.46,205.09c.04-.08.08-.16.12-.23-.04.07-.09.15-.13.22,0,0,.02.02.02.02Z" fill="#cce8df"/>
      <path d="m142.82,230.8c-.09.52.02,1.22-.29,1.55-4.03,4.36-4.06,9.23-1.93,14.4-.61-.02-.96.32-1.31.79-.3.4-.77.68-1.21,1.04-1.51-1.91-2.05-4.22-2.83-6.39-.66-1.84.72-3.24,1.67-4.53,1-1.35,1.62-2.82,2.01-4.35.66-2.62,1.37-3.18,3.89-2.5Z" fill="#9bd2c1"/>
      <path d="m159.78,248.28c.69-1.46,1.48-2.87,2.06-4.38,1.59-4.17-.08-7.76-2.14-11.27,2.72-2.26,3.43.13,4.39,1.9,2.68,4.94.43,9.65-.81,14.36-.18.7-1.55,1.08-2.38,1.61l.03.03c.62-1.26.17-1.98-1.15-2.26Z" fill="#9bd2c1"/>
      <polygon points="160.91 250.52 160.76 250.63 160.94 250.55 160.91 250.52" fill="#9bd2c1"/>
      <path d="m167.52,249.91c1.74-2.9,2.74-6.28,2.74-9.9,0-4.18-1.33-8.04-3.59-11.2-.54-.75.91-2.2,1.24-2.73,1.06-1.71,1.31-4.17-.81-5.32-.94-.51-1.61.59-2.15,1.26-1.06,1.34-2.16,2.02-3.47,1.82-3.02-1.97-6.63-3.11-10.5-3.11-3.11,0-6.04.74-8.64,2.04-.09.02-.18.04-.26.05-.04.05-.09.1-.13.15-.82.44-1.61.93-2.35,1.47-.89-.09-1.92-.91-3.71-2.36-1.32-1.08-3.16-3.64-4.47-.87-1.27,2.68,1.06,4.36,2.93,6.01.51.45.85.92,1.05,1.43-2.32,3.18-3.7,7.1-3.7,11.35,0,4.4,1.48,8.46,3.97,11.71-.04.75-.4,1.46-1.04,2.11-1.2,1.22-2.37,2.47-3.55,3.7-.63.65-.13,2.45.33,3.05,1.93,2.52,4.73-.87,5.95-2.31,1.14-1.35,2.32-1.98,3.61-1.78,2.92,1.78,6.35,2.8,10.01,2.8,3.62,0,7-1,9.9-2.73,2.04-.55,3.59.26,5.04,2.18.44.58.94,1.21,1.79.89,1.09-.42,2-4.47,1.07-5.28-1.54-1.35-1.71-2.78-1.26-4.43Zm-16.67,1.56c-6.18,0-11.19-5.01-11.19-11.19,0-6.18,5.01-11.19,11.19-11.19,6.18,0,11.19,5.01,11.19,11.19,0,6.18-5.01,11.19-11.19,11.19Z" fill="#468fc3"/>
      <g>
        <path d="m130.9,209.67c2.44-7.86,12.52-17.06,18.63-16.99-4.65,1.13-7.35,4.39-10.54,7.32-3.19,2.93-5.02,6.75-8.09,9.68Z" fill="#bdd7ea"/>
        <path d="m129.48,213.74c-1.63,2.85-3.09,5.79-4.19,8.89-.25.72-.25,1.34-1.11.54.86-3.1,1.75-6.19,3.64-8.87.43-.61.49-1.85,1.77-1.07,0,.19,0,.37-.01.56l-.09-.05Z" fill="#bdd7ea"/>
        <path d="m186.57,237.66c.34,3.77.21,7.59-.39,11.33-.46,2.93-1.21,5.81-2.23,8.6-.62,1.7-1.98,6.71-3.93,7.2-.34.09.84-2.58.88-2.65.59-1.2,1.12-2.43,1.6-3.68.92-2.41,1.64-4.9,2.14-7.43,1.9-9.57-.35-18.6-.87-28.12,1.51,4.13,1.96,8.39,2.55,12.7.09.68.17,1.37.23,2.06Z" fill="#bdd7ea"/>
        <path d="m153.67,282.09s0-.03,0-.05c-.05-.47,6.88-1.82,7.7-2.11,2.94-1.03,5.66-2.63,8.14-4.5,3.47-2.63,6.49-5.79,9.49-8.93-2.6,4.52-6.34,8.34-10.74,11.13-2.21,1.4-4.56,2.63-7.03,3.5-.74.26-7.22,2.09-7.54.96Z" fill="#bdd7ea"/>
        <path d="m120.06,210.92c-3.55,8.22-6.87,16-7.8,25.07-.92,8.95.23,18.16,4.1,26.34-9.49-17.49-4.5-40.22,5.37-56.5,3.93-6.49,8.42-13.12,14.07-18.3,3.26-2.98,7.21-5.64,11.49-6.85,3.69-1.05,10.21-.98,11.46,3.67-3.41-3.49-9.11-3.88-13.65-2.1-4.54,1.78-8.14,5.34-11.35,9.02-5.06,5.78-10.62,12.54-13.69,19.65Z" fill="#bdd7ea"/>
        <path d="m125.65,274.04c-2.6-2.43-4.78-5.27-6.34-8.34,1.14,2.25,4.31,4.54,6.08,6.36s3.99,2.97,6.09,4.45c4.14,2.91,8.71,3.97,13.5,4.64.9.13,2.11-.42,2.35,1.1-7.87.65-15.84-2.76-21.68-8.22Z" fill="#bdd7ea"/>
        <path d="m156.94,277.48c-6.16.94-12.7.25-18.22-1.52-6.5-2.08-12.42-6.13-16.26-11.83-1.48-2.19-2.65-4.43-3.58-6.94-2.02-5.48-2.9-11.38-2.52-17.22.14-2.17.71-4.69,2.7-5.56-.99.44-.98,6.82-1,7.87-.07,2.93.19,5.86.76,8.73,1.23,6.16,3.66,10.68,7.74,15.33,5.36,6.12,12.09,9.43,20.22,9.9,4.66,0,9.15-.16,13.67-1.29,4.57-1.14,8.38-3.45,12.47-5.7-4.58,4.35-9.5,7.52-15.99,8.23Z" fill="#bdd7ea"/>
        <path d="m171.62,264.09c-.12.14-.25.27-.37.4-.58.61-2.91,3.21-3.82,1.85-.49-.73-.39-1.3.2-1.93,1.6-1.71,3.12-3.48,4.22-5.58.87.34,1.55,1.59,2.69.54-.21.19-.47,1.46-.69,1.83-.26.44-.58.83-.88,1.23-.43.57-.87,1.12-1.34,1.66Z" fill="#bdd7ea"/>
        <path d="m123.95,228.82c-.59,5.56-2.09,11.06-1.56,16.71.58,6.12,1.42,11.11,5.38,16.01,3.4,4.2,7.98,7.45,13.12,9.13,4.05,1.33,8.4,1.67,12.62,1.09,2.18-.3,4.32-.85,6.37-1.64,1.08-.41,4.04-2.6,5.12-2.16.6.25.94,1,.72,1.61-.24.67-.95,1.01-1.61,1.29-8.16,3.48-18.08,3.48-26.16-.3-6.14-2.87-12.34-8.39-14.84-14.84-2.94-7.59-2.25-16.48-.86-24.34.21-1.19.69-2,1.7-2.56Z" fill="#bdd7ea"/>
        <path d="m126.93,207.84c1.19-4.78,4.08-8.5,7.53-11.86-2.3,4.09-5.02,7.91-7.53,11.86Z" fill="#bdd7ea"/>
      </g>
    </g>
    <g>
      <path d="m182.16,236.47c.92,5.06-.81,10.03-.31,15.16.3,3.07,1.16,5,3.58,6.43.99-3.27,1.31-6.6.72-10,.67-3.75-.59-8.91,5.81-8.5-2.8-2.63-6.45-2.35-9.8-3.09Z" fill="#d3d5d4"/>
      <path d="m191.96,239.56c-6.4-.41-5.13,4.75-5.81,8.5,1.9.48,3.75.49,5.73.18,2.75-.44,2.99-1.85,3.21-4.28.24-2.57.17-4.75-3.13-4.4Z" fill="#468fc3"/>
    </g>
    <ellipse cx="150" cy="150.41" rx="150" ry="150.41" fill="none"/>
    <path d="m177.6,267.53c.62-2.63,3.58-10.78,4.83-4.56.69,3.46.64,7.51.97,11.23.28,3.17,1.74,5.53,5.29,4.41.51-6.18-.32-11.92-2.56-17.69-1.31-3.38-3.91-5.67-4.25-9.41-.45-4.99.96-10.13.24-15.17-1.71-1.64-3.62-1.69-5.86-1.96-3.22-.39-5.55-.72-7.91-3.18-1.69-1.75-3.91-.53-6-.51-4,.03-7.84-.75-11.82-.34.45.99.96,1.85,1.53,2.6.99,1.29,2.21,2.21,3.66,2.77,1.17.45,2.49.68,4.01.65.03,0,.05,0,.08,0,.88-.04,1.69-.34,2.47-.32.49.01.96.16,1.44.56.57.49.41,1.28.02,1.83-.02.03-.04.06-.06.09-.41.53-.86.74-1.34.81-.7.09-1.46-.14-2.23-.21-.08,0-.17-.02-.25-.02-.81-.02-1.59-.1-2.36-.19-1.12-.11-2.22-.21-3.35-.15-.06,0-.11,0-.17,0-.94.09-1.62.31-2.09.67-.66.53-.9,1.34-.86,2.37.02.26.05.55.1.85,1.33-.53,2.63-.83,3.91-.96,2.02-.21,4-.02,6.02.27,1.81.26,3.65.6,5.58.82.03,0,.07,0,.1.01.59.06.97.32,1.25.7.34.47.49,1.13.59,1.86,0,0,0,.01,0,.02.06.44.12.94.18,1.47.12,1.07.26,2.24.38,3.2,1.54,1.86,1.18,3.77,1.55,6.03.37,2.26.42,3.72-1.4,5.47-1.01.97-1.22,1.99-1.11,3.57.58,8.84-.89,14.04-.17,23.85.25,3.48.55,7.05.94,10.64,4.5-.57,8.93-1.35,13.3-2.31-1.55-5.48-3.61-10.61-4.76-16.26-.89-4.41-.9-9.32.1-13.53Z" fill="#dee0df"/>
    <path d="m189.73,278.76c-.89-6.87.68-14.96-6.78-19.01-4.56-2.47-14.8-1.87-15.29,5.11-.82,11.6-2.41,23.37-1.7,35.12,8.95-.95,17.67-2.69,26.08-5.15-.87-5.23-1.57-10.42-2.3-16.07Z" fill="#e7e7e8"/>
    <g>
      <path d="m54.02,45.31c.28-.24.68-.39,1.09-.12l3.67,2.47,3.1,2.37.16-.14-1.97-3.37-1.94-3.99c-.21-.45-.02-.83.26-1.07l1.07-.94c.6-.52,1.19-.21,1.45.41l4.61,10.57,3.91,4.47c.38.44.37.91-.07,1.29l-1.15,1.01c-.44.38-.9.34-1.28-.1l-3.91-4.47-9.88-5.94c-.56-.36-.79-.99-.2-1.51l1.07-.94Z" fill="#204c68"/>
      <path d="m72.13,40.19l5.05,6.71c1.38,1.84,1.02,3.5-1.18,5.16-2.19,1.66-3.89,1.56-5.27-.28l-5.05-6.71c-1.38-1.84-1.02-3.5,1.17-5.16s3.89-1.55,5.27.28Zm-4,3.13l4.96,6.58c.49.65.97.72,1.52.31.57-.43.63-.91.14-1.57l-4.96-6.58c-.51-.67-.97-.72-1.54-.29-.55.41-.63.88-.12,1.55Z" fill="#204c68"/>
      <path d="m84.16,49.57c.17.55.04.89-.33,1.14l-.33.22c-.46.31-.96.22-1.28-.36l-2.83-4.93c-.28-.51-.1-.92.32-1.2l1.46-.96c.59-.39,1.15-.13,1.36.53l1.64,5.57Z" fill="#204c68"/>
      <path d="m83.94,29.96c-.26-.52-.1-.96.41-1.22l1.04-.53c.52-.27.96-.14,1.23.38l4.78,9.34c.38.75.79.9,1.42.58s.81-.8.42-1.55l-4.77-9.31c-.26-.52-.13-.94.39-1.21l1.06-.55c.52-.26.94-.13,1.21.39l6,11.71c.25.49.13.95-.39,1.21l-1.06.54c-.52.27-.96.11-1.21-.39l-.06-.12c-.34,1.01-1.07,1.86-1.89,2.28-1.15.59-2.49.36-3.38-1.38l-5.2-10.16Z" fill="#204c68"/>
      <path d="m102.74,36.66c-2.56,1.07-4.14.56-5.04-1.58l-.47-1.12c-.22-.54-.06-.98.47-1.2l1.1-.46c.54-.22.96-.03,1.18.51l.44,1.05c.31.76.76.94,1.42.67.63-.27.82-.72.5-1.47-.42-1-.65-1.16-1.83-1.58l-2.79-1.01c-1.71-.6-2.44-1.18-3.25-3.13-.88-2.12-.14-3.64,2.42-4.71,2.53-1.06,4.15-.54,5.04,1.58l.47,1.12c.22.54.03.96-.51,1.19l-1.07.45c-.54.23-.97.07-1.2-.47l-.44-1.05c-.32-.78-.76-.94-1.39-.68-.66.28-.85.7-.53,1.48.42,1,.64,1.13,1.83,1.58l2.79,1.01c1.71.6,2.46,1.17,3.27,3.12.88,2.12.12,3.65-2.42,4.71Z" fill="#204c68"/>
      <path d="m110.01,24.53l-.88-2.71c-.26-.8-.69-1-1.37-.78-.65.21-.88.62-.62,1.43l.19.58c.18.55-.05.96-.6,1.14l-1.1.36c-.55.18-.98-.01-1.16-.56l-.21-.65c-.71-2.19.17-3.65,2.78-4.5,2.61-.86,4.18-.21,4.9,1.98l3.34,10.25c.17.53-.02.95-.57,1.13l-1.13.37c-.55.18-.96-.05-1.13-.57l-.04-.13c-.5.94-1.35,1.67-2.22,1.96-1.23.41-2.51-.04-3.12-1.9l-.84-2.56c-.71-2.19.17-3.65,2.78-4.5l1-.33Zm-.31,2.47c-.65.21-.87.65-.62,1.43l.55,1.68c.26.8.64,1.01,1.31.79.68-.22.92-.67.66-1.47l-.9-2.76-1,.33Z" fill="#204c68"/>
      <path d="m124.88,28.66c.13.54-.1.95-.66,1.08l-1.15.28c-.56.14-.95-.12-1.08-.66l-2.45-10.24c-.19-.8-.58-1.06-1.27-.89-.69.17-.94.61-.74,1.43l2.44,10.18c.13.54-.12.95-.69,1.09l-1.13.27c-.56.14-.98-.12-1.11-.66l-3.06-12.81c-.13-.57.12-.95.69-1.09l1.13-.27c.56-.14.97.09,1.11.66l.03.13c.55-.89,1.45-1.55,2.35-1.76,1.26-.3,2.5.24,2.96,2.14l2.66,11.11Z" fill="#204c68"/>
      <path d="m134.63,27.05c.09.55-.17.94-.75,1.03l-1.18.18c-.57.09-.94-.2-1.03-.75l-.02-.13c-.64.85-1.59,1.43-2.51,1.57-1.28.2-2.47-.44-2.78-2.37l-1.5-9.56c-.3-1.93.64-2.91,1.92-3.11.91-.14,2,.11,2.87.72l-.98-6.24c-.09-.57.17-.94.75-1.03l1.17-.19c.57-.09.94.17,1.03.75l2.99,19.12Zm-5.42-1.85c.13.84.47,1.1,1.17.99.71-.11,1.02-.51.88-1.34l-1.2-7.68c-.13-.84-.55-1.15-1.26-1.03-.71.11-.94.5-.81,1.31l1.21,7.76Z" fill="#204c68"/>
      <path d="m143.69,15.47l.63,8.38c.17,2.29-1.03,3.5-3.77,3.71-2.74.21-4.11-.8-4.29-3.09l-.63-8.38c-.17-2.29,1.04-3.5,3.77-3.71,2.74-.21,4.11.8,4.29,3.09Zm-5.05.46l.62,8.23c.06.82.43,1.13,1.11,1.08.71-.05,1.03-.42.97-1.24l-.62-8.23c-.06-.84-.43-1.13-1.14-1.08-.68.05-1,.39-.94,1.24Z" fill="#204c68"/>
      <path d="m160.44,13.56c.9-.71,2-1.06,3.14-.98,1.26.09,2.31.98,2.18,2.93l-.79,11.4c-.04.55-.4.88-.98.83l-1.16-.08c-.58-.04-.9-.41-.86-.96l.72-10.5c.06-.82-.24-1.18-.92-1.23-.71-.05-1.11.29-1.16,1.14l-.72,10.45c-.04.55-.38.88-.96.84l-1.19-.08c-.58-.04-.87-.4-.83-.96l.72-10.5c.06-.82-.24-1.18-.95-1.23-.71-.05-1.08.3-1.14,1.14l-.72,10.45c-.04.55-.4.87-.98.83l-1.16-.08c-.58-.04-.9-.41-.86-.96l.9-13.14c.04-.58.4-.87.98-.83l1.16.08c.58.04.9.38.86.96v.13c.78-.69,1.84-1.04,2.76-.98.84.06,1.58.48,1.95,1.33Z" fill="#204c68"/>
      <path d="m173.06,20.37l.48-2.81c.14-.83-.14-1.2-.85-1.32-.68-.11-1.07.14-1.21.97l-.1.6c-.1.57-.49.83-1.06.73l-1.14-.19c-.57-.1-.86-.47-.76-1.04l.12-.68c.39-2.27,1.85-3.15,4.55-2.69,2.71.46,3.79,1.77,3.41,4.04l-1.81,10.63c-.09.55-.46.83-1.04.74l-1.17-.2c-.57-.1-.83-.49-.73-1.04l.02-.13c-.88.6-1.96.85-2.88.69-1.28-.22-2.21-1.21-1.88-3.13l.45-2.66c.38-2.27,1.85-3.15,4.55-2.69l1.04.18Zm-1.42,2.04c-.68-.11-1.07.17-1.21.97l-.3,1.75c-.14.83.09,1.2.79,1.32.7.12,1.12-.16,1.27-.99l.49-2.87-1.04-.18Zm.99-9.59c-.41.22-.71.23-.99-.14l-.3-.43c-.24-.33-.18-.65.19-.96l3.33-2.92c.32-.29.68-.21.96.16l.69.98c.29.37.25.74-.14.97l-3.74,2.34Z" fill="#204c68"/>
      <path d="m179.95,30.93c-2.69-.68-3.65-2.04-3.09-4.3l.3-1.18c.14-.56.53-.82,1.09-.68l1.15.29c.56.14.79.55.65,1.12l-.28,1.1c-.2.8.05,1.21.74,1.39.67.17,1.08-.08,1.28-.88.26-1.05.17-1.32-.52-2.37l-1.64-2.48c-1.01-1.51-1.25-2.41-.73-4.47.56-2.23,2.06-3,4.75-2.32,2.66.67,3.65,2.06,3.09,4.3l-.29,1.18c-.14.56-.55.79-1.12.65l-1.13-.28c-.56-.14-.82-.53-.68-1.1l.28-1.1c.21-.82-.05-1.21-.72-1.38-.69-.17-1.1.05-1.31.87-.26,1.05-.16,1.3.52,2.37l1.64,2.49c1.01,1.51,1.27,2.42.76,4.47-.56,2.23-2.08,2.99-4.75,2.32Z" fill="#204c68"/>
      <path d="m196.15,25.49c-.18.55-.59.75-1.14.57l-1.12-.38c-.55-.19-.75-.59-.56-1.14l.57-1.71c.27-.8.04-1.21-.63-1.44-.65-.22-1.08-.03-1.35.77l-2.62,7.83c-.26.78-.04,1.21.61,1.43.68.23,1.11.01,1.37-.77l.57-1.71c.19-.55.6-.78,1.14-.59l1.13.38c.55.19.74.61.56,1.16l-.6,1.78c-.74,2.21-2.31,2.82-4.91,1.95-2.6-.88-3.47-2.34-2.73-4.55l2.67-7.95c.73-2.18,2.31-2.82,4.91-1.95,2.6.88,3.48,2.34,2.74,4.52l-.6,1.78Z" fill="#204c68"/>
      <path d="m202.78,29.37l1.12-2.63c.33-.78.14-1.21-.52-1.49-.63-.27-1.07-.11-1.4.67l-.24.56c-.23.54-.67.69-1.2.46l-1.07-.46c-.54-.23-.73-.66-.5-1.19l.27-.63c.9-2.12,2.53-2.63,5.05-1.55,2.53,1.08,3.28,2.61,2.38,4.73l-4.23,9.93c-.22.51-.64.7-1.18.47l-1.09-.47c-.54-.23-.69-.67-.47-1.18l.05-.12c-.99.38-2.11.36-2.96,0-1.19-.51-1.86-1.69-1.1-3.49l1.06-2.48c.9-2.12,2.53-2.63,5.05-1.55l.97.42Zm-1.85,1.65c-.63-.27-1.08-.09-1.4.67l-.7,1.63c-.33.78-.19,1.18.47,1.46.65.28,1.13.11,1.46-.67l1.14-2.68-.97-.42Z" fill="#204c68"/>
      <path d="m214.99,35.17c-.26.49-.7.65-1.21.38l-1.05-.55c-.52-.27-.64-.72-.38-1.21l1.14-2.18c.38-.73.26-1.18-.38-1.51-.63-.33-1.11-.16-1.5.59l-4.84,9.28c-.26.49-.72.64-1.23.37l-1.03-.54c-.52-.27-.66-.73-.4-1.23l6.09-11.67c.27-.51.72-.64,1.23-.37l1.03.54c.52.27.67.71.4,1.23l-.06.12c1-.31,2.11-.21,2.93.22,1.15.6,1.73,1.83.82,3.56l-1.55,2.98Z" fill="#204c68"/>
      <path d="m220.87,39.03l1.51-2.42c.45-.72.33-1.17-.28-1.55-.58-.37-1.04-.28-1.49.44l-.32.52c-.31.49-.77.58-1.26.27l-.98-.62c-.49-.31-.62-.76-.31-1.25l.37-.58c1.22-1.95,2.9-2.2,5.23-.74,2.33,1.46,2.83,3.09,1.62,5.04l-5.72,9.15c-.29.47-.74.59-1.24.28l-1.01-.63c-.49-.31-.58-.77-.29-1.24l.07-.11c-1.04.22-2.14.03-2.92-.46-1.1-.69-1.58-1.96-.54-3.62l1.43-2.29c1.22-1.95,2.9-2.2,5.23-.74l.89.56Zm-2.08,1.34c-.58-.37-1.05-.26-1.49.44l-.94,1.5c-.45.72-.37,1.14.23,1.52.6.38,1.1.29,1.55-.43l1.54-2.47-.89-.56Z" fill="#204c68"/>
      <path d="m224.1,47.11c.99.71,1.17,1.86.46,2.84-.68.94-1.82,1.13-2.81.42-.94-.68-1.13-1.83-.45-2.77.71-.99,1.85-1.17,2.79-.49Z" fill="#204c68"/>
      <path d="m228.95,50.79c.95.76,1.08,1.91.32,2.86-.72.91-1.87,1.04-2.82.28-.91-.72-1.04-1.88-.31-2.79.76-.95,1.91-1.08,2.81-.36Z" fill="#204c68"/>
      <path d="m233.62,54.7c.91.8.99,1.96.19,2.88-.77.88-1.92.95-2.83.15-.87-.77-.95-1.93-.18-2.8.8-.91,1.96-.99,2.83-.22Z" fill="#204c68"/>
    </g>
  </g>
</svg>