<?xml version="1.0" encoding="UTF-8"?><svg id="Layer_2" xmlns="http://www.w3.org/2000/svg" viewBox="0 0 62.5 77.19"><g id="Layer_1-2"><g><path d="M60.12,23.15c-1.47-2.81-3.69-5.24-6.8-7.01-7.58-4.33-17.6-4.68-26.07-4-4.63,.37-8.96,1.6-13.5,2.4C6.89,15.74,1.96,23.1,.56,29.62c-1.82,8.49,1.01,17.49,6.02,24.58,2.54,3.6,5.6,6.79,8.21,10.34,1.85,2.52,3.48,5.23,5.56,7.57s4.73,4.34,7.81,4.91c4.22,.79,8.55-1.23,11.76-4.09s5.59-6.5,8.32-9.83c2.7-3.29,5.76-6.29,8.17-9.8,5.52-8.02,8.47-21.08,3.72-30.15Z" fill="#df5f48"/><path d="M11.33,16.26c2.21,.88,4.41,1.23,6.77,1.43,2.14,.18,4.24-.61,6.4-.96,3.73-.59,7.5-.71,11.21-.34,3.07,.31,7.44,1.24,10.43,0,1.22-.5,2.17-1.47,3.27-2.2,1.2-.8,2.51-1.13,3.83-1.65,1.6-.63,4.86-1.19,5.94-2.97-1.97,.1-4.2,1.16-6.21,1.55-2.13,.42-4.28,.61-6.36,.34-3.01-.38-5.94-1.27-9.02-1.18,1.74,1.1,4.02,1.18,6.05,.22,1.91-.9,3.93-2.95,4.58-5.22-1.47,.06-2.79,.93-4.28,1.26-3.16,.7-6.4,.94-9.26,2.61-.71,.42-3.36,1.96-3.55,2.82,.47-2.11,.97-4.38,1.84-6.37,.61-1.39,3.28-4.06,1.18-5.33-.76-.46-2.01-.32-2.72,.28-1.19,1.01-1.49,3.39-1.9,4.8-.16,.54-1.16,3.25-.87,3.7-1.27-1.96-4.21-2.85-6.46-2.61-1.14,.12-2.25,.54-3.24,1.2-.69,.46-1.84,2.27-2.4,2.45,1.77-.56,3.71-.53,5.45,.15,.42,.16,2.16,.83,2.28,1.3,.24,.93-1,.85-1.59,.71-1.49-.38-2.88-.56-4.15-1.45-2.04-1.44-3.89-3.22-6.1-4.36s-4.93-1.57-7.36-.25l9.47,7.45c-2.96-2.33-8.09-4.23-12.04-2.54,.99,1.22,2.82,2.01,4.14,2.8,1.5,.9,3.05,1.72,4.68,2.37Z" fill="#45a98c"/><ellipse cx="27.04" cy="58.72" rx="1.28" ry="1.79" fill="#faf5b1"/><ellipse cx="34.18" cy="48.85" rx="1.28" ry="1.79" fill="#faf5b1"/><ellipse cx="33.02" cy="37.21" rx="1.28" ry="1.79" fill="#faf5b1"/><ellipse cx="42" cy="55.3" rx="1.79" ry="1.28" transform="translate(-16.75 92.32) rotate(-85)" fill="#faf5b1"/><ellipse cx="45.46" cy="40.51" rx="1.79" ry="1.28" transform="translate(-2.33 78.24) rotate(-80)" fill="#faf5b1"/><ellipse cx="51.75" cy="52.55" rx="1.79" ry="1.28" transform="translate(-8.98 94.39) rotate(-80)" fill="#faf5b1"/><ellipse cx="57.79" cy="38.61" rx="1.79" ry="1.28" transform="translate(5.54 84.43) rotate(-75)" fill="#faf5b1"/><ellipse cx="8.4" cy="24.57" rx="1.79" ry="1.28" transform="translate(-17.55 24.06) rotate(-70)" fill="#faf5b1"/><ellipse cx="37.24" cy="67.29" rx="1.79" ry="1.28" transform="translate(-37.4 85.85) rotate(-75)" fill="#faf5b1"/><ellipse cx="19.81" cy="21.84" rx="1.79" ry="1.28" transform="translate(-6.41 35.33) rotate(-75)" fill="#faf5b1"/><ellipse cx="5.77" cy="36.99" rx="1.79" ry="1.28" transform="translate(-31.66 36.25) rotate(-80)" fill="#faf5b1"/><ellipse cx="23.42" cy="33.37" rx="1.79" ry="1.28" transform="translate(-13.51 50.64) rotate(-80)" fill="#faf5b1"/><ellipse cx="35.96" cy="24.09" rx="1.28" ry="1.79" transform="translate(-1.96 3.23) rotate(-5)" fill="#faf5b1"/><ellipse cx="46.77" cy="28.84" rx="1.28" ry="1.79" transform="translate(-2.34 4.19) rotate(-5)" fill="#faf5b1"/><ellipse cx="17.92" cy="45.19" rx="1.28" ry="1.79" transform="translate(-7.57 3.8) rotate(-10)" fill="#faf5b1"/><ellipse cx="13.65" cy="54.94" rx="1.28" ry="1.79" transform="translate(-13.75 5.4) rotate(-15)" fill="#faf5b1"/><ellipse cx="26.79" cy="71.62" rx="1.28" ry="1.79" transform="translate(-17.62 9.37) rotate(-15)" fill="#faf5b1"/><ellipse cx="50.94" cy="20.49" rx="1.28" ry="1.79" transform="translate(-3.94 18.66) rotate(-20)" fill="#faf5b1"/></g></g></svg>