<?xml version="1.0" encoding="UTF-8"?>
<svg id="b" data-name="Layer 2" xmlns="http://www.w3.org/2000/svg" viewBox="0 0 303.11 249.74">
  <g id="c" data-name="Layer 1">
    <g id="d" data-name="Group 2133">
      <circle id="e" data-name="Ellipse 1563" cx="53.85" cy="103.56" r="53.85" fill="#ded3e8"/>
      <ellipse id="f" data-name="Ellipse 1564" cx="67.8" cy="65.11" rx="46.39" ry="45.99" fill="#ded3e8"/>
      <ellipse id="g" data-name="Ellipse 1565" cx="133.4" cy="79.52" rx="83.17" ry="79.52" fill="#ded3e8"/>
      <ellipse id="h" data-name="Ellipse 1566" cx="101.2" cy="118.56" rx="78.04" ry="78.58" fill="#ded3e8"/>
      <ellipse id="i" data-name="Ellipse 1567" cx="167.3" cy="148.09" rx="58.46" ry="58.09" fill="#ded3e8"/>
      <ellipse id="j" data-name="Ellipse 1568" cx="209.57" cy="70.53" rx="61.87" ry="59.02" fill="#ded3e8"/>
      <ellipse id="k" data-name="Ellipse 1569" cx="225.77" cy="133.35" rx="66.35" ry="60.4" fill="#ded3e8"/>
      <ellipse id="l" data-name="Ellipse 1570" cx="257.49" cy="88.78" rx="45.62" ry="47.84" fill="#ded3e8"/>
    </g>
    <g id="m" data-name="Group 2134">
      <ellipse id="n" data-name="Ellipse 1571" cx="42.79" cy="237.36" rx="10.57" ry="10.06" fill="#ded3e8"/>
      <ellipse id="o" data-name="Ellipse 1572" cx="35.73" cy="241.54" rx="8.62" ry="8.2" fill="#ded3e8"/>
      <ellipse id="p" data-name="Ellipse 1573" cx="37.79" cy="234.09" rx="10.45" ry="9.94" fill="#ded3e8"/>
    </g>
    <g id="q" data-name="Group 2135">
      <ellipse id="r" data-name="Ellipse 1574" cx="19.04" cy="199.09" rx="14.12" ry="13.58" transform="translate(-11.31 1.41) rotate(-3.27)" fill="#ded3e8"/>
      <ellipse id="s" data-name="Ellipse 1575" cx="33.39" cy="195.46" rx="11.92" ry="11.46" transform="translate(-11.08 2.22) rotate(-3.27)" fill="#ded3e8"/>
      <ellipse id="t" data-name="Ellipse 1576" cx="27.64" cy="202.24" rx="13.38" ry="12.87" transform="translate(-11.47 1.9) rotate(-3.27)" fill="#ded3e8"/>
      <ellipse id="u" data-name="Ellipse 1577" cx="23.52" cy="191.74" rx="13.5" ry="12.98" transform="translate(-10.88 1.65) rotate(-3.27)" fill="#ded3e8"/>
    </g>
  </g>
</svg>