<?xml version="1.0" encoding="UTF-8"?><svg id="Layer_2" xmlns="http://www.w3.org/2000/svg" viewBox="0 0 85.33 45.35"><g id="Layer_1-2"><g><path d="M76.43,32.59c3.24-4.52,5.65-9.19,7.15-14.62s2.06-11.11,1.6-16.73c-.04-.46-.14-1-.56-1.19-.49-.21-1,.21-1.36,.6-1.23,1.32-2.56,2.59-3.71,3.98-.85,1.02-1.48,2.29-2.24,3.4-7.23,10.52-15.8,20.13-25.42,28.52-2.71,2.36-13.28,8.99-3.47,8.4,10.1-.6,21.87-3.82,28.01-12.37Z" fill="#3d987d"/><g><path id="Path_11426" d="M.07,.76c-.01,.19-.02,.39-.03,.58s-.01,.39-.02,.58c0,.19,0,.39-.01,.58C0,2.71,0,2.91,0,3.11c0,5.59,1.08,11.13,3.22,16.29,2.06,4.97,5.05,9.51,8.81,13.36,3.77,3.86,8.24,6.96,13.19,9.12,5.16,2.25,10.72,3.43,16.34,3.47,5.68,.06,11.31-1.04,16.56-3.22,5.11-2.13,9.76-5.23,13.69-9.13,3.96-3.93,7.12-8.58,9.31-13.71,2.27-5.33,3.44-11.07,3.43-16.87,0-.2,0-.41,0-.61s0-.41-.01-.61c0-.2-.01-.4-.02-.61C84.49,.4,84.48,.2,84.47,0L.07,.76Z" fill="#46aa8c"/><path id="Path_11427" d="M4.1,.73c0,.06,0,.12,0,.18,0,.06,0,.12,0,.18,0,.06,0,.12,0,.18,0,.06,0,.12-.01,.18,0,5.04,.98,10.03,2.9,14.69,1.86,4.48,4.56,8.56,7.95,12.03,3.4,3.47,7.43,6.25,11.89,8.19,4.65,2.01,9.65,3.07,14.72,3.09,5.11,.04,10.18-.96,14.89-2.93,4.59-1.92,8.77-4.72,12.29-8.23,3.56-3.54,6.39-7.73,8.36-12.34,2.04-4.79,3.08-9.95,3.08-15.16,0-.06,0-.13,0-.19,0-.06,0-.13,0-.19,0-.06,0-.13,0-.19V.04L4.1,.73Z" fill="#fcfbe0"/><path id="Path_11428" d="M6.56,.7v.1s0,.06,0,.09v.2c0,4.71,.91,9.37,2.71,13.72,1.74,4.18,4.26,8,7.43,11.23,3.18,3.24,6.95,5.83,11.11,7.63,4.34,1.88,9.01,2.85,13.74,2.87,4.77,.03,9.5-.9,13.89-2.75,4.28-1.8,8.17-4.41,11.46-7.69,3.31-3.3,5.96-7.21,7.79-11.51,1.9-4.47,2.87-9.28,2.87-14.13V.06L6.56,.7Z" fill="#e05358"/><path id="Ellipse_1424" d="M46.58,22.84c.16-.03,.33-.01,.49,.05,.17,.07,.33,.18,.45,.32,.15,.16,.27,.34,.37,.54,.11,.22,.19,.46,.23,.7,.05,.24,.07,.49,.05,.74-.01,.22-.06,.44-.14,.64-.06,.18-.16,.34-.3,.48-.12,.12-.26,.2-.43,.24-.16,.03-.33,.02-.48-.05-.17-.07-.32-.18-.45-.32-.15-.16-.27-.34-.37-.54-.11-.22-.19-.46-.23-.7-.05-.24-.06-.49-.05-.74,.01-.22,.06-.44,.13-.65,.06-.18,.16-.34,.29-.48,.12-.12,.26-.21,.43-.24Z" fill="#231f20"/><path id="Ellipse_1425" d="M56.22,14.31c.16-.04,.33-.04,.49,.01,.18,.06,.34,.16,.48,.29,.16,.15,.3,.32,.41,.51,.12,.22,.22,.45,.28,.69,.06,.24,.1,.49,.1,.74,0,.22-.03,.44-.1,.65-.05,.18-.14,.35-.27,.5-.11,.13-.25,.22-.42,.27-.16,.04-.33,.04-.49-.02-.18-.06-.34-.16-.48-.29-.16-.15-.3-.32-.41-.51-.12-.21-.22-.45-.28-.69-.06-.24-.1-.49-.1-.74,0-.22,.03-.44,.1-.65,.05-.18,.14-.35,.27-.5,.11-.13,.25-.23,.42-.27Z" fill="#231f20"/><path id="Ellipse_1426" d="M18.37,9.53c.08-.23,.18-.45,.32-.65,.12-.18,.26-.34,.43-.47,.14-.12,.3-.2,.48-.25,.16-.04,.33-.04,.48,.02,.16,.06,.29,.16,.39,.29,.11,.15,.19,.32,.23,.5,.05,.21,.07,.43,.05,.64-.02,.24-.06,.48-.14,.72-.08,.23-.18,.45-.32,.65-.12,.18-.26,.34-.43,.47-.14,.12-.3,.2-.48,.25-.16,.04-.33,.03-.48-.02-.16-.06-.29-.16-.39-.3-.11-.15-.19-.32-.23-.5-.05-.21-.07-.43-.05-.64,.01-.24,.06-.48,.14-.72Z" fill="#231f20"/><path id="Ellipse_1427" d="M29.08,6.28c.05-.24,.12-.48,.23-.7,.09-.2,.21-.38,.36-.54,.12-.14,.28-.25,.44-.32,.15-.07,.32-.09,.48-.05,.16,.03,.31,.12,.42,.24,.13,.14,.23,.3,.29,.47,.08,.2,.12,.42,.13,.64,.02,.25,0,.5-.05,.74-.05,.24-.12,.48-.23,.7-.09,.2-.22,.38-.36,.54-.12,.14-.28,.25-.44,.32-.15,.07-.32,.08-.48,.05-.16-.03-.31-.12-.42-.24-.13-.14-.23-.3-.29-.47-.08-.21-.12-.42-.13-.64-.02-.25,0-.49,.05-.73Z" fill="#231f20"/><path id="Ellipse_1428" d="M23.49,19.95c.04-.24,.12-.48,.23-.7,.09-.2,.22-.38,.36-.53,.12-.14,.27-.24,.44-.32,.15-.07,.32-.08,.48-.05,.16,.04,.3,.12,.42,.24,.13,.14,.23,.3,.29,.47,.08,.21,.12,.42,.13,.64,.02,.25,0,.49-.05,.74-.05,.24-.12,.48-.23,.7-.09,.2-.21,.38-.36,.53-.12,.14-.27,.24-.44,.32-.15,.07-.32,.08-.48,.05-.16-.04-.3-.12-.42-.24-.13-.14-.23-.3-.29-.47-.08-.2-.12-.42-.13-.63-.02-.25,0-.5,.05-.74Z" fill="#231f20"/><path id="Ellipse_1429" d="M34.31,16.04c.03-.25,.09-.49,.19-.72,.08-.2,.19-.39,.33-.56,.12-.15,.26-.27,.42-.35,.15-.08,.31-.1,.47-.08,.16,.02,.32,.1,.44,.21,.14,.13,.25,.28,.33,.45,.09,.2,.15,.41,.18,.63,.03,.25,.03,.5,0,.74-.03,.25-.09,.49-.19,.72-.08,.2-.19,.39-.33,.56-.12,.15-.26,.27-.42,.35-.15,.08-.31,.1-.47,.08-.16-.02-.32-.1-.44-.21-.14-.13-.25-.28-.32-.45-.09-.2-.15-.41-.17-.63-.03-.25-.03-.5,0-.74Z" fill="#231f20"/><path id="Ellipse_1430" d="M50.34,6.01c.17-.01,.33,.03,.48,.12,.16,.1,.3,.23,.4,.38,.13,.18,.23,.38,.3,.58,.08,.24,.13,.48,.14,.73,.02,.25,0,.5-.05,.75-.04,.22-.11,.43-.22,.62-.09,.17-.21,.32-.35,.44-.13,.11-.29,.17-.46,.18-.17,.01-.33-.03-.47-.12-.16-.1-.3-.23-.41-.38-.13-.18-.23-.38-.29-.58-.08-.24-.13-.48-.14-.73-.02-.25,0-.5,.04-.75,.04-.22,.12-.43,.22-.62,.09-.17,.21-.32,.35-.44,.13-.11,.29-.17,.45-.18Z" fill="#231f20"/><path id="Ellipse_1431" d="M63.92,4.51c.16-.06,.33-.07,.5-.03,.18,.05,.35,.13,.5,.25,.17,.13,.32,.3,.44,.48,.14,.2,.25,.43,.33,.66,.08,.23,.13,.48,.15,.73,.02,.22,0,.44-.05,.66-.04,.19-.12,.36-.24,.52-.1,.14-.24,.24-.4,.3-.16,.06-.33,.07-.5,.02-.18-.05-.35-.13-.5-.25-.17-.13-.32-.3-.44-.48-.14-.2-.25-.43-.33-.66-.08-.23-.13-.48-.15-.73-.02-.22,0-.44,.05-.66,.04-.19,.12-.36,.23-.52,.1-.14,.24-.24,.41-.3Z" fill="#231f20"/></g></g></g></svg>