<?xml version="1.0" encoding="UTF-8"?><svg xmlns="http://www.w3.org/2000/svg" viewBox="0 0 19.2 19.2"><g id="a"/><g id="b"><g id="c"><path id="d" d="M18.41,8.5L10.04,.77c-.25-.23-.63-.23-.88,0L.79,8.5c-.12,.11-.19,.27-.19,.43,0,.34,.29,.61,.63,.6h1.11v8.46c0,.34,.29,.61,.63,.6H7.39c.34,0,.62-.26,.63-.6v-4.83h3.15v4.83c0,.34,.29,.61,.63,.6h4.42c.34,0,.62-.26,.63-.6V9.54h1.11c.17,0,.33-.07,.45-.18,.23-.22,.24-.59,.02-.83l-.03-.03Zm-1.56,.43c-.34,0-.62,.26-.63,.6v8.46h-4.41v-4.83c0-.34-.29-.61-.63-.6h-3.16c-.34,0-.62,.26-.63,.6v4.83H2.97V9.54c0-.34-.29-.61-.63-.6H1.23L9.6,1.2l8.37,7.73h-1.12Z" fill="#ecf4f8" stroke="#ecf4f8" stroke-linecap="round" stroke-linejoin="round" stroke-width="1.2"/></g></g></svg>