<svg xmlns="http://www.w3.org/2000/svg" viewBox="0 0 250 250"><g id="Layer_2" data-name="Layer 2"><g id="Layer_1-2" data-name="Layer 1"><rect id="Base-8" width="250" height="250" rx="13.85" fill="#d9eee8"/><path id="Path_6523" data-name="Path 6523" d="M214.48,217.53c1.36,1.5,6.25-1.2,7.52-1.65a64.09,64.09,0,0,1,7.26-2.62c.9-.32,1.71-.79,2.62-1.12.64-.24,1.3-.43,2-.62a8.78,8.78,0,0,0,1.56-.63,3.61,3.61,0,0,0,.91-.53c.39-.33.63-.78.3-1.23a2.63,2.63,0,0,0-1.26-.8,10.59,10.59,0,0,0-5.32-.26c-2.33.47-4.51,1.5-6.81,2.08a20.1,20.1,0,0,0-5.56,2.32,9.07,9.07,0,0,0-2.44,2c-.46.58-1.28,2-.95,2.72A1.38,1.38,0,0,0,214.48,217.53Z" fill="#204c68"/><path id="Path_6525" data-name="Path 6525" d="M139.68,209.37a8.52,8.52,0,0,0,3.09,1.42q4.15,1.26,8.36,2.32c1.56.4,3.56.53,5,1.2,1.11.52,5,1.93,3.56-.84a6.83,6.83,0,0,0-1.6-1.75,13,13,0,0,0-4-2.11,57.14,57.14,0,0,0-10.08-3c-1-.2-4-1.21-4.93-.54C137.89,207,138.76,208.6,139.68,209.37Z" fill="#204c68"/><path id="Path_6527" data-name="Path 6527" d="M206.57,101.61A25.63,25.63,0,0,1,220,117a46.85,46.85,0,0,1,1.42,5.69,54.29,54.29,0,0,1,1.25,9.58c.23,8.95-3,17.46-4.78,26.1a59.33,59.33,0,0,0-1,6.61c-.14,1.52.4,4.09-.17,5.45-.89,2.14-4.29.73-6,1.14-1.5.36-3.52,1.23-3.77-.87-.21-1.7.05-3.68-.35-5.3-.36,1.14-.44,2.44-.84,3.63a3.37,3.37,0,0,1-1.5,2.07,3.72,3.72,0,0,1-1.87.19,7.42,7.42,0,0,0-3.76.41,3.48,3.48,0,0,1-1.54.6,3,3,0,0,1-.89-.23,10,10,0,0,0-3.53-.15c-1.26.05-2.52.11-3.77.18-2.47.12-4.92.26-7.38.39a53.08,53.08,0,0,1-12.9-.73,6.9,6.9,0,0,0-3-.22c-1.17.29-2.17,1.27-3.38,1.18a2.72,2.72,0,0,1-2.22-2.3,8.11,8.11,0,0,1,.34-3.39,13.45,13.45,0,0,1-1.46,4.49,2,2,0,0,1-.72.77,2.11,2.11,0,0,1-.89.14h-1.33a3.58,3.58,0,0,1-1.82-.33,2.35,2.35,0,0,1-.7-.67,13.86,13.86,0,0,1-1.23-3.08q-.7-1.92-1.38-3.84c-.89-2.56-1.73-5.15-2.47-7.76a80.75,80.75,0,0,1-3-15.94c-.74-10,1.12-20.55,6.9-28.8S168.05,98.19,178,99.44a15,15,0,0,1,7,2.65c1.37,1,1.41.9,2.92.1a19.71,19.71,0,0,1,3.44-1.48A21.55,21.55,0,0,1,206.57,101.61Z" fill="#0a0b13" stroke="#0a0b13" stroke-miterlimit="10" stroke-width="0.38"/><path id="Path_6528" data-name="Path 6528" d="M171.2,175.58c-2.24,2.33-5.66,3.8-8.45,5.38a3.83,3.83,0,0,0-1.53,1.26c-1.26,2.14,3.73,3.21,5,3.93a6,6,0,0,1,2.67,2.94c.42,1.43-.23,3,.32,4.57a5,5,0,0,0,2.52,2.79c1.25.6,2.3.2,3.55.4s2.33.76,3.49,1c4.92,1.06,10.08,1.69,15,.51a16.8,16.8,0,0,0,8.79-5.14c.83-1,1.51-3.24,2.49-3.86,1.38-.9,3.4-.41,4.1-2.07.87-2.05,1-4.92-.7-6.57a11.33,11.33,0,0,0-3.76-2.14c-2.54-1-5.23-2.23-6-5.2-.26-1-.47-10.71.55-10.75a84.32,84.32,0,0,1-10.78-.24c-1.73-.15-3.46-.35-5.2-.4a64.65,64.65,0,0,0-7.09.28,9.4,9.4,0,0,0-1.83.27c-.24.07-.45.23-.68.3s-.54,0-.76.19a1.58,1.58,0,0,1-.15.12.63.63,0,0,1-.22.07l-.82.15a3.51,3.51,0,0,1,.42,1.24,8.51,8.51,0,0,0,.49,1.21,12.39,12.39,0,0,1,.44,1.43C173.9,171,173.06,173.65,171.2,175.58Z" fill="#f7d5a7"/><path id="Path_6529" data-name="Path 6529" d="M199.25,163a73.76,73.76,0,0,1-6.81,5.66,17.56,17.56,0,0,1-3.55,2.08,9.89,9.89,0,0,1-9.39-1.2c-.8-.58-1.51-1.27-2.28-1.9a61.35,61.35,0,0,0-5.33-3.52l-.06,0" fill="#b99f7c"/><path id="Path_6530" data-name="Path 6530" d="M157.59,133.42a4.9,4.9,0,0,0-3.38,2c-1.16,1.79-1.11,5.77-.38,7.78a7.38,7.38,0,0,0,1.14,1.91c1.48,1.9,3.48,3.6,5.8,3.69a24,24,0,0,1,.44-11.51C162.1,134.25,159.86,133.09,157.59,133.42Z" fill="#f7d5a7"/><path id="Path_6531" data-name="Path 6531" d="M213.52,133.79a4.89,4.89,0,0,1,3.16,2.32c1,1.9.55,5.85-.37,7.78a7,7,0,0,1-1.32,1.79c-1.66,1.75-3.81,3.25-6.12,3.11a24,24,0,0,0,.67-11.49C209,134.18,211.29,133.24,213.52,133.79Z" fill="#f7d5a7"/><path id="Path_6532" data-name="Path 6532" d="M210.46,125.17c-.68,5.44-.06,11-.21,16.42s-1.2,11.22-4.7,15.44a28.67,28.67,0,0,1-2.73,2.78,87,87,0,0,1-10.38,8.49,17.72,17.72,0,0,1-3.55,1.94,10.47,10.47,0,0,1-9.39-1.13c-.8-.54-1.51-1.18-2.28-1.76-1.66-1.26-3.55-2.2-5.33-3.29-6.34-3.88-11.6-10.32-12.07-17.73a34.45,34.45,0,0,1,.2-5.28l.6-6.85a22.22,22.22,0,0,0,0-6.36c-1-4.9,1.73-10,5.46-13.34a26.47,26.47,0,0,1,20.33-6.44c1.21.14,2.4.37,3.6.59a38,38,0,0,1,6.37,1.58,34.63,34.63,0,0,1,4.61,2.28,26.87,26.87,0,0,1,6.85,5A9.71,9.71,0,0,1,210.46,125.17Z" fill="#f7d5a7"/><path id="Path_6533" data-name="Path 6533" d="M211.76,124.78a20.67,20.67,0,0,1-9.8,3.66,61.17,61.17,0,0,1-10.57.14,70.35,70.35,0,0,1-10.65-.93.62.62,0,0,1-.41-.18.57.57,0,0,1-.11-.33c-.39-2.86.16-6.16.45-9a15.37,15.37,0,0,1,3.17-7.57A39.57,39.57,0,0,0,177,125a3.74,3.74,0,0,1-1.33,2.49,3,3,0,0,1-1.69.32,11.34,11.34,0,0,1-4.25-1l1-4.31-2.92,5.07a3,3,0,0,1-1.12,1.29,2.79,2.79,0,0,1-1.51.18,13.9,13.9,0,0,1-6.05-2.06c-1.34-3.43-.29-7.82,1.74-10.9a25.77,25.77,0,0,1,8.19-7.29,24,24,0,0,1,4.05-2.11,26.68,26.68,0,0,1,9.38-1.28,38.56,38.56,0,0,1,12.09,1.41,41.08,41.08,0,0,1,8.58,4.32,24.79,24.79,0,0,1,6.79,5.39A9.06,9.06,0,0,1,211.76,124.78Z" fill="#0a0b13"/><g id="Group_1240" data-name="Group 1240"><path id="Path_6534" data-name="Path 6534" d="M158.24,134.57a1.58,1.58,0,0,1,1,.42c.22.25,0,.45-.26.39a4.91,4.91,0,0,0-.86-.07,2.51,2.51,0,0,0-1.86.55,5.76,5.76,0,0,0-1,2c0,.1-.1.22-.21.21a.18.18,0,0,1-.15-.13.41.41,0,0,1,0-.22,3.51,3.51,0,0,1,.73-2.09,3.4,3.4,0,0,1,1.82-1.07A2.69,2.69,0,0,1,158.24,134.57Z" fill="#b99f7c" stroke="#b99f7c" stroke-miterlimit="10" stroke-width="0.1"/></g><g id="Group_1241" data-name="Group 1241"><path id="Path_6535" data-name="Path 6535" d="M212.77,134.9a1.61,1.61,0,0,0-1.08.32c-.24.22-.08.44.22.41a5.06,5.06,0,0,1,.87,0,2.53,2.53,0,0,1,1.79.73,5.56,5.56,0,0,1,.84,2.15c0,.1.09.22.19.23a.21.21,0,0,0,.17-.13.5.5,0,0,0,0-.21,3.51,3.51,0,0,0-.53-2.16,3.45,3.45,0,0,0-1.71-1.24A2.94,2.94,0,0,0,212.77,134.9Z" fill="#b99f7c" stroke="#b99f7c" stroke-miterlimit="10" stroke-width="0.1"/></g><path id="Path_6537" data-name="Path 6537" d="M164.65,179.18c3.77-.21,6,15,6.2,15a106,106,0,0,1,15.35-2c2.61-.15,5.23-.21,7.84-.19a42.51,42.51,0,0,1,7.47.58c-.47-.09.76-5.22.88-5.66a29.22,29.22,0,0,1,3.48-8c.12-.19,7.93,2.31,8.69,2.52C221,183.19,226.14,186,229,192.31c2.52,5.6,3.21,12.37,7.7,16.91-3.35-2.19-10.16.26-13.4,1.86-2.74,1.35-7.21,3.27-9.08,5.71,1.39-9.68-3.88-7.73-10.88-6.82s-14.19.58-21.26.21c-5.1-.26-10.19-.6-15.3-.56a25.49,25.49,0,0,0-4.19,0,3.2,3.2,0,0,0-2.14,1.93,3.38,3.38,0,0,0-.23,1.44,3.26,3.26,0,0,1-.31,1.94c-.08-1.92-2.63-2.47-4-3-1.91-.78-3.85-1.5-5.8-2.16a49.58,49.58,0,0,0-9-2.54c-.26,0-2.52-.29-2.59,0a22.32,22.32,0,0,1,2.1-4.87,22.41,22.41,0,0,0,2-4.18c1.1-3.31,2-6.79,4-9.63,4.13-5.75,11.39-7,17.61-9.19A1.56,1.56,0,0,1,164.65,179.18Z" fill="#3574a2"/><path id="Path_6538" data-name="Path 6538" d="M193.5,155.94a1.9,1.9,0,0,0-.39.11l-2.45.89c-.57.2-1.1.46-1.68.65-.32.11-.65.2-1,.29s-.56.22-.84.3a5.59,5.59,0,0,1-2,.21c-.72,0-1.44,0-2.17-.08a11.87,11.87,0,0,1-2-.4c-.5-.13-1-.28-1.49-.46a4.61,4.61,0,0,1-1.33-.57.15.15,0,0,1,0-.19.28.28,0,0,1,.17-.07l2.06-.22a15.82,15.82,0,0,0,1.8-.46,3.28,3.28,0,0,1,1.25,0,2.66,2.66,0,0,0,1,.11,2.15,2.15,0,0,0,.45-.14,6.62,6.62,0,0,1,2.8-.1l2,.21a10.71,10.71,0,0,0,1.87.14l1.56-.14C193.14,156,193.58,155.93,193.5,155.94Z" fill="#db9d95"/><path id="Path_6539" data-name="Path 6539" d="M177.31,156.79a20.82,20.82,0,0,0,1.77,1.49,11,11,0,0,0,4.67,1.7,9.7,9.7,0,0,0,7.11-2.07,9.46,9.46,0,0,0,1-.81,3.6,3.6,0,0,1,1-.86" fill="#db9d95" stroke="#ae847f" stroke-linecap="round" stroke-miterlimit="10" stroke-width="0.41"/><path id="Path_6540" data-name="Path 6540" d="M194.06,155.61c0,.25-.83.71-.95.76a29.6,29.6,0,0,1-3,1,11.8,11.8,0,0,1-1.87.43,22.07,22.07,0,0,1-6.93.2,27.52,27.52,0,0,1-2.68-.65,9.5,9.5,0,0,1-2.49-.84c-.17-.1-.38-.29-.33-.48a8.83,8.83,0,0,1,1.44.24,11.54,11.54,0,0,0,3.66-.25,14.08,14.08,0,0,1,2.38-.53,11.17,11.17,0,0,0,1.18.19c.61,0,1.13-.27,1.73-.25a17.75,17.75,0,0,1,2.07.27,11.47,11.47,0,0,0,5.4-.21.39.39,0,0,1,.28,0A.1.1,0,0,1,194.06,155.61Zm-2.35.79v0a.16.16,0,0,0-.15-.06c-.49,0-1,0-1.47,0a9.89,9.89,0,0,1-1.33-.18,14.2,14.2,0,0,0-2.68-.23c-.62,0-1.19.34-1.79.31-.34,0-.63-.2-1-.23a3.91,3.91,0,0,0-1,.12c-.9.18-1.74.48-2.65.6a5.77,5.77,0,0,1-.83,0c-.1,0-.45-.08-.35.13,0,.05.18.11.24.14a4.63,4.63,0,0,0,.61.17c.24.09.48.13.72.2a4.25,4.25,0,0,0,.61.08c.57.08,1.14.13,1.72.17a26.48,26.48,0,0,0,3.45,0c.85-.06,1.7-.15,2.55-.28.43-.07.85-.15,1.28-.24a4.67,4.67,0,0,0,1-.33A4.92,4.92,0,0,0,191.71,156.4Z" fill="#ae847f"/><path id="Path_6541" data-name="Path 6541" d="M177,130.8a9.15,9.15,0,0,1-2.35-.56,7.9,7.9,0,0,0-3.16-.48,18.12,18.12,0,0,0-3.18.65,12.28,12.28,0,0,0-2.31.77c-.16.09-1.94,1.38-1.92.7,0-.14.34-.35.45-.43a13.89,13.89,0,0,1,2.06-1.41,13.72,13.72,0,0,1,5.27-1.22,20.33,20.33,0,0,1,3.74.05,4.14,4.14,0,0,1,1.64.48C178,129.83,178,130.81,177,130.8Z" fill="#0a0b13"/><g id="Group_1242" data-name="Group 1242"><path id="Path_6542" data-name="Path 6542" d="M186.59,149.4c-.14,0-.3,0-.35-.16s.06-.25.16-.35a3.69,3.69,0,0,1,1.83-.8c1.36-.43.67-1.69.31-2.64a16.07,16.07,0,0,1-1.24-4.3,10.61,10.61,0,0,1,1-5.76c.19-.39,1.39-2.64,2-2.18.4.31-.52,1-.7,1.3a9,9,0,0,0-1,1.89,11,11,0,0,0-.5,6.15,18.47,18.47,0,0,0,1.23,3.38,2.67,2.67,0,0,1,.33,1.68,1.28,1.28,0,0,1-.75.81c-.35.19-.5.37-.88.59A3.86,3.86,0,0,1,186.59,149.4Z" fill="#b99f7c"/></g><path id="Path_6543" data-name="Path 6543" d="M182.67,136.32c0,.31,0,.57,0,.67a15.23,15.23,0,0,1-.39,3.56c0,.14-.34.87-.5.4a3.39,3.39,0,0,1,.12-.95c.05-.37.1-.74.14-1.1a11.11,11.11,0,0,0,.1-2.23,4.53,4.53,0,0,0-.2-1.31c-.09-.22-.07-.4.18-.48C182.67,134.69,182.67,136,182.67,136.32Z" fill="#b99f7c" stroke="#b99f7c" stroke-miterlimit="10" stroke-width="0.16"/><path id="Path_6544" data-name="Path 6544" d="M187.45,146.53s0,0,0,0a.23.23,0,0,1-.25.11.63.63,0,0,1-.27-.1,3.66,3.66,0,0,0-1.66-.33,3.58,3.58,0,0,0-.86.13c-.19,0-.57.3-.76.21-.45-.23.11-.58.35-.66a4.77,4.77,0,0,1,3.16.22,1,1,0,0,1,.24.15A.27.27,0,0,1,187.45,146.53Z" fill="#b99f7c"/><path id="Path_6545" data-name="Path 6545" d="M181.28,148a4.61,4.61,0,0,1,1.47.52c.16.09.54.25.63.4a.24.24,0,0,1-.08.32.28.28,0,0,1-.13,0,5,5,0,0,1-1.43-.22c-.34-.12-.76-.23-.9-.61S181,147.93,181.28,148Z" fill="#b99f7c"/><path id="Path_6546" data-name="Path 6546" d="M179.93,147.62a1.34,1.34,0,0,1,.5-.94c.12-.07.28-.11.37,0s-.28.39-.33.55a.57.57,0,0,0,.09.52c.08.15.1.29-.12.33C180,148.17,179.91,147.93,179.93,147.62Z" fill="#b99f7c" stroke="#b99f7c" stroke-miterlimit="10" stroke-width="0.16"/><path id="Path_6547" data-name="Path 6547" d="M193.3,131.2a9,9,0,0,0,2.35-.56,7.75,7.75,0,0,1,3.16-.48,17.92,17.92,0,0,1,3.18.64,12,12,0,0,1,2.32.78c.16.08,1.94,1.38,1.91.7,0-.15-.34-.35-.44-.43a14.59,14.59,0,0,0-2.07-1.42,13.62,13.62,0,0,0-5.26-1.21,19.47,19.47,0,0,0-3.74.05,4.13,4.13,0,0,0-1.65.47C192.33,130.23,192.24,131.21,193.3,131.2Z" fill="#0a0b13"/><g id="Group_1244" data-name="Group 1244"><g id="Group_1243" data-name="Group 1243"><path id="Path_6548" data-name="Path 6548" d="M202.45,136.12a10.26,10.26,0,0,0-2.67-1.11,6.73,6.73,0,0,0-5.35.88,3.81,3.81,0,0,0-1,1.26c-.09.17-.1.37-.18.55s-.25.44-.37.66-.16.32,0,.46a.55.55,0,0,0,.18.16,8.86,8.86,0,0,0,1.28.8c.34.15.67.31,1,.49a3.32,3.32,0,0,0,1.76.27c.49,0,1-.13,1.45-.19a5.94,5.94,0,0,0,2.21-.65,10,10,0,0,0,1.73-1.23c.38-.35,1.12-.7,1.12-1.3S202.84,136.33,202.45,136.12Z" fill="#fff"/><ellipse id="Ellipse_1058" data-name="Ellipse 1058" cx="197.55" cy="137.67" rx="2.95" ry="2.64" fill="#0a0b13" stroke="#0f0a0a" stroke-miterlimit="10" stroke-width="0.37"/><path id="Path_6549" data-name="Path 6549" d="M201.31,139.24c-.33.2-.66.41-1,.59a9.38,9.38,0,0,1-3.33.83,3.21,3.21,0,0,1-1.07-.07,3.83,3.83,0,0,1-1-.35c-.48-.26-1-.53-1.41-.82s-.77-.4-.78-.84a1.08,1.08,0,0,1,.12-.5c.06-.13.18-.22.25-.34s.17-.38.28-.55a4.45,4.45,0,0,1,.81-1c1.55-1.37,4-1.44,6-1l.55.13c1.06.32,2.53.57,3.16,1.59a.21.21,0,0,1,0,.24,1.07,1.07,0,0,1-.19.18,6.26,6.26,0,0,0-.52.51,12.76,12.76,0,0,1-1.29,1C201.62,139,201.48,139.13,201.31,139.24Z" fill="none" stroke="#0a0b13" stroke-linecap="round" stroke-linejoin="round" stroke-width="0.37"/><path id="Path_6550" data-name="Path 6550" d="M200,135.16c.3,0,.6.07.9.13a13.24,13.24,0,0,1,1.42.3,4.49,4.49,0,0,1,1.29.5c.28.17.54.37.81.57a1.68,1.68,0,0,0,.54.26,2.21,2.21,0,0,1-.36.23l-.2.1a1.61,1.61,0,0,1-.33.06,2.07,2.07,0,0,0-.71.28c-.06,0-.21.26-.14.15a1.57,1.57,0,0,0,.29-.56.88.88,0,0,0-.23-.69,2.21,2.21,0,0,0-.61-.44,8.48,8.48,0,0,0-2-.8" fill="#0a0b13" stroke="#0a0b13" stroke-linecap="round" stroke-miterlimit="10" stroke-width="0.37"/><path id="Path_6551" data-name="Path 6551" d="M192.59,138.89a.87.87,0,0,1,0-.74c.13-.27.39-.41.52-.66a.64.64,0,0,0,.08-.14s0-.11,0-.16l-1.14,1a1.18,1.18,0,0,0-.3.33.38.38,0,0,0,0,.41.64.64,0,0,0,.25.18l1,.48c.5.25,1.06.32,1.56.56l.39.19" fill="#0a0b13" stroke="#0a0b13" stroke-linecap="round" stroke-miterlimit="10" stroke-width="0.37"/><circle id="Ellipse_1059" data-name="Ellipse 1059" cx="196.72" cy="137.26" r="0.69" fill="#d7e7f1"/></g><path id="Path_6552" data-name="Path 6552" d="M193.34,135c2-.85,4.09-1.72,6.29-1.47a13.88,13.88,0,0,1,1.81.39q1.27.36,2.55.78a9.13,9.13,0,0,0-5.35-1.5A9.29,9.29,0,0,0,193.34,135Z" fill="#b99f7c" stroke="#b99f7c" stroke-linecap="round" stroke-linejoin="round" stroke-width="0.32"/></g><g id="Group_1246" data-name="Group 1246"><g id="Group_1245" data-name="Group 1245"><path id="Path_6553" data-name="Path 6553" d="M167.45,136.12a10.26,10.26,0,0,1,2.67-1.11,6.71,6.71,0,0,1,5.34.88,3.5,3.5,0,0,1,1,1.26c.09.17.1.37.19.55s.25.44.37.66.15.32,0,.46a.55.55,0,0,1-.18.16,8.86,8.86,0,0,1-1.28.8c-.34.15-.67.31-1,.49a3.36,3.36,0,0,1-1.77.27c-.48,0-1-.13-1.45-.19a5.94,5.94,0,0,1-2.21-.65,10.37,10.37,0,0,1-1.72-1.23c-.39-.35-1.12-.7-1.12-1.3S167.06,136.33,167.45,136.12Z" fill="#fff"/><ellipse id="Ellipse_1060" data-name="Ellipse 1060" cx="172.35" cy="137.67" rx="2.95" ry="2.64" fill="#0a0b13" stroke="#0f0a0a" stroke-miterlimit="10" stroke-width="0.37"/><path id="Path_6554" data-name="Path 6554" d="M168.59,139.24c.33.2.66.41,1,.59a9.33,9.33,0,0,0,3.32.83,3.27,3.27,0,0,0,1.08-.07,4,4,0,0,0,1-.35c.48-.26.95-.53,1.41-.82.31-.2.77-.4.78-.84a1.23,1.23,0,0,0-.12-.5c-.07-.13-.18-.22-.25-.34s-.18-.38-.29-.55a4.18,4.18,0,0,0-.81-1c-1.54-1.37-4-1.44-5.94-1l-.55.13c-1.06.32-2.53.57-3.16,1.59a.21.21,0,0,0,0,.24.81.81,0,0,0,.19.18,6.14,6.14,0,0,1,.51.51,12.87,12.87,0,0,0,1.3,1C168.27,139,168.42,139.13,168.59,139.24Z" fill="none" stroke="#0a0b13" stroke-linecap="round" stroke-linejoin="round" stroke-width="0.37"/><path id="Path_6555" data-name="Path 6555" d="M169.92,135.16c-.3,0-.6.07-.9.13a13.78,13.78,0,0,0-1.42.3,4.61,4.61,0,0,0-1.29.5c-.28.17-.54.37-.81.57a1.5,1.5,0,0,1-.54.26,3.61,3.61,0,0,0,.36.23l.2.1a1.91,1.91,0,0,0,.33.06,2,2,0,0,1,.72.28c.06,0,.21.26.13.15a1.55,1.55,0,0,1-.28-.56.85.85,0,0,1,.23-.69,2.21,2.21,0,0,1,.61-.44,8.32,8.32,0,0,1,2-.8" fill="#0a0b13" stroke="#0a0b13" stroke-linecap="round" stroke-miterlimit="10" stroke-width="0.37"/><path id="Path_6556" data-name="Path 6556" d="M177.3,138.89a.81.81,0,0,0,0-.74c-.12-.27-.38-.41-.52-.66,0,0-.05-.09-.08-.14a.94.94,0,0,0,0-.16l1.15,1a1.18,1.18,0,0,1,.3.33.4.4,0,0,1,0,.41.72.72,0,0,1-.25.18l-1,.48c-.5.25-1.06.32-1.56.56l-.39.19" fill="#0a0b13" stroke="#0a0b13" stroke-linecap="round" stroke-miterlimit="10" stroke-width="0.37"/><circle id="Ellipse_1061" data-name="Ellipse 1061" cx="171.86" cy="137.26" r="0.69" fill="#d7e7f1"/></g><path id="Path_6557" data-name="Path 6557" d="M176.55,135c-2-.85-4.08-1.72-6.28-1.47a14,14,0,0,0-1.82.39c-.85.24-1.7.5-2.54.78a9.11,9.11,0,0,1,5.34-1.5A9.26,9.26,0,0,1,176.55,135Z" fill="#b99f7c" stroke="#b99f7c" stroke-linecap="round" stroke-linejoin="round" stroke-width="0.32"/></g><g id="Group_1247" data-name="Group 1247"><ellipse id="Ellipse_1062" data-name="Ellipse 1062" cx="222.16" cy="96.46" rx="4.87" ry="4.64" fill="#bed7ea"/><ellipse id="Ellipse_1063" data-name="Ellipse 1063" cx="218.9" cy="98.38" rx="3.97" ry="3.78" transform="translate(-5.45 183.6) rotate(-45)" fill="#bed7ea"/><ellipse id="Ellipse_1064" data-name="Ellipse 1064" cx="219.85" cy="94.95" rx="4.82" ry="4.58" fill="#bed7ea"/></g><g id="Group_1248" data-name="Group 1248"><ellipse id="Ellipse_1065" data-name="Ellipse 1065" cx="211.2" cy="78.75" rx="5.15" ry="4.96" transform="translate(-4.14 12.16) rotate(-3.27)" fill="#bed7ea"/><ellipse id="Ellipse_1066" data-name="Ellipse 1066" cx="219.09" cy="75.69" rx="5.49" ry="5.28" transform="translate(-3.96 12.6) rotate(-3.27)" fill="#bed7ea"/><ellipse id="Ellipse_1067" data-name="Ellipse 1067" cx="216.44" cy="78.82" rx="6.17" ry="5.93" transform="translate(-4.14 12.46) rotate(-3.27)" fill="#bed7ea"/><ellipse id="Ellipse_1068" data-name="Ellipse 1068" cx="214.54" cy="73.98" rx="6.22" ry="5.99" transform="translate(-3.87 12.34) rotate(-3.27)" fill="#bed7ea"/></g><g id="Group_1249" data-name="Group 1249"><ellipse id="Ellipse_1069" data-name="Ellipse 1069" cx="155.82" cy="45.32" rx="18.91" ry="16.03" fill="#bed7ea"/><ellipse id="Ellipse_1070" data-name="Ellipse 1070" cx="158.87" cy="32.08" rx="14.55" ry="12.33" fill="#bed7ea"/><ellipse id="Ellipse_1071" data-name="Ellipse 1071" cx="178.52" cy="34.9" rx="23.28" ry="19.73" fill="#bed7ea"/><ellipse id="Ellipse_1072" data-name="Ellipse 1072" cx="171.99" cy="50.25" rx="24.73" ry="20.97" fill="#bed7ea"/><ellipse id="Ellipse_1073" data-name="Ellipse 1073" cx="188.85" cy="50.25" rx="21.9" ry="18.57" fill="#bed7ea"/><ellipse id="Ellipse_1074" data-name="Ellipse 1074" cx="195.28" cy="39.37" rx="17.46" ry="14.8" fill="#bed7ea"/><ellipse id="Ellipse_1075" data-name="Ellipse 1075" cx="174.8" cy="43.8" rx="30.97" ry="21.55" fill="#bed7ea"/></g><g id="_" data-name=" " style="isolation:isolate"><g style="isolation:isolate"><path d="M182.39,37.6c0,4.94-4.5,6.09-4.5,10v1.36a1.15,1.15,0,0,1-1.26,1.26h-1.29a1.13,1.13,0,0,1-1.23-1.26V48c0-5.65,4-6.48,4-9.93v-.9c0-1.34-.47-2.24-2.09-2.24s-2,.9-2,2.24v1.94a1.1,1.1,0,0,1-1.22,1.22h-1.84a1.13,1.13,0,0,1-1.26-1.22V37.14c0-3.75,1.84-5.58,6.37-5.58s6.41,1.83,6.41,5.58ZM176,53.05A2.47,2.47,0,0,1,176,58a2.47,2.47,0,1,1,0-4.93Z" fill="#3574a2"/></g></g><path id="Path_6558" data-name="Path 6558" d="M120.2,214.56a5,5,0,0,0-.5,1.35,1.74,1.74,0,0,0-.1.78,1.27,1.27,0,0,0,1.39.77c1.21-.1,3.46-.44,3.48-2.06,0-.65-.39-.89-1.19-1.19a3.38,3.38,0,0,0-2.38-.19A1.48,1.48,0,0,0,120.2,214.56Z" fill="#3574a2"/><path id="Path_6561" data-name="Path 6561" d="M95.89,160.09s-.69,3.42-.73,3.7a17.6,17.6,0,0,0,0,4.23,16,16,0,0,0,.61,2.91A15.33,15.33,0,0,0,98,175.41c1,1.39,2.34,2.25,1,4s-4.15,2.7-6.09,3.8a27,27,0,0,1-16.73,3.2A30.65,30.65,0,0,1,56,174.12a5.21,5.21,0,0,1-1.21-2.55c-.25-2.44,2.39-4,4.6-5.1,4.24-2.05,5.47-6.89,5.23-11.39a2.58,2.58,0,0,0-.32-1.19c1.76.7,3.47,1.53,5.24,2.23,1.36.54,2.73,1.08,4.14,1.51C80.64,159.79,88.61,159.29,95.89,160.09Z" fill="#a46c35"/><path id="Path_6562" data-name="Path 6562" d="M64.2,154.6c2.49,3.24,5.47,6,8.09,9.17a13.23,13.23,0,0,0,6.29,3.88,10.9,10.9,0,0,0,6.06-.47,33.75,33.75,0,0,0,5.62-2.7c1.78-1,3.87-1.83,5.35-3.26" fill="#7b5227"/><path id="Path_6563" data-name="Path 6563" d="M56.72,141.47c.56,3.74,2.64,7.08,4.92,10.1,3.48,4.61,7.67,8.42,11.73,12.45a13.7,13.7,0,0,0,6.75,3.3c2.84.39,5.62-.92,8.19-2.2l4.83-2.4c3.54-1.76,7.13-3.55,10-6.23a21.08,21.08,0,0,0,6.61-13.44c.28-3.05-.1-6.23,1-9.09.54-1.37,1.41-2.64,1.59-4.1.36-3-2.24-5.47-4.72-7.2a59.39,59.39,0,0,0-11-6A45.78,45.78,0,0,0,87,113.7a62.59,62.59,0,0,0-7-.69c-2.77-.15-5.49.29-8.2.16s-5.28,1.09-7.62,2.28c-1.42.72-2.94,1.57-3.52,3a6.79,6.79,0,0,0-.19,3.07,11.92,11.92,0,0,1,0,4.61,41,41,0,0,1-1.81,3.93C57.28,133.68,56.14,137.56,56.72,141.47Z" fill="#a46c35"/><path id="Path_6564" data-name="Path 6564" d="M57.08,124a5,5,0,0,0-3.7,1.15c-1.49,1.41-2.21,5.09-1.88,7.09a6.54,6.54,0,0,0,.75,2c1.08,2.06,2.71,4,5,4.6a21.27,21.27,0,0,1,2.67-10.52C61.35,125.68,59.37,124.14,57.08,124Z" fill="#a46c35"/><path id="Path_6565" data-name="Path 6565" d="M114,136a4.94,4.94,0,0,1,2.92,2.55c.8,1.89,0,5.55-1.13,7.25a7.21,7.21,0,0,1-1.49,1.53,12,12,0,0,1-4.27,2.15,5.44,5.44,0,0,1-1.81.43,6.85,6.85,0,0,1-1.45-.61c1.6-.81,2.11-2.8,2.44-4.56C109.82,141.54,108.45,134,114,136Z" fill="#a46c35"/><path id="Path_6566" data-name="Path 6566" d="M60.94,125.84a10.46,10.46,0,0,0,1.38-4c.08-1.07-.71-2.71-.22-3.49.8-1.26,3.73-2,5.09-2.45A23.09,23.09,0,0,1,74,115a15.58,15.58,0,0,1,4.8.6c2.53.8,4.63,2.55,6.66,4.26l3.61,3a3.4,3.4,0,0,0,2,1c1.34,0,2.14-1.56,2.18-2.9s-.37-2.7,0-4q4.69,4.77,9.6,9.33a9.84,9.84,0,0,0,4.8,2.6,4.35,4.35,0,0,0,2.66-.3c.47-.24,1.73-1.3,2-.37a1.7,1.7,0,0,1,0,.71c-.38,2.09-1.48,3.84-2.37,5.74a4.45,4.45,0,0,0-.58,2.13c0,.53.88,1.45.86,1.71.34-3.83,4.71-5.24,6.39-8.65a18.78,18.78,0,0,0,1.78-7.87,11.49,11.49,0,0,1,.27-3,3.13,3.13,0,0,1,1.87-2.2,1.11,1.11,0,0,0,.66-.34.84.84,0,0,0,0-.66,9.1,9.1,0,0,0-4.73-5.59,27.16,27.16,0,0,0-7.15-2.3,7.61,7.61,0,0,0,4.63-7.41c-1.94,1.81-5,1.25-7.63.83a41.48,41.48,0,0,0-14.19.17,9.44,9.44,0,0,1-4.54.18.94.94,0,0,1-.51-.31,1.12,1.12,0,0,1-.11-.84l.41-2.67a13.34,13.34,0,0,0-11.77,2.35,6.14,6.14,0,0,0-4.53-6.23A7.47,7.47,0,0,1,71,99.7c-1.4-1-3.53-.84-5.13-.24a14.61,14.61,0,0,0-4.27,2.84,21.16,21.16,0,0,0-4.72,5.09,20.87,20.87,0,0,0-1.39,3c-1.06,2.77-2,5.76-1.41,8.67.32,1.65,1.21,3,1.6,4.62a.5.5,0,0,0,.08.2A.48.48,0,0,0,56,124a8.22,8.22,0,0,1,3,.81,2.75,2.75,0,0,1,.8,1.05,2.42,2.42,0,0,1,.22.69,2.26,2.26,0,0,1,0,.45,1,1,0,0,0,0,.45,3.92,3.92,0,0,0,.33-.5A12,12,0,0,0,60.94,125.84Z" fill="#0f0a0a" stroke="#000" stroke-linecap="round" stroke-linejoin="round" stroke-width="0.1"/><g id="Group_1251" data-name="Group 1251"><g id="Group_1250" data-name="Group 1250"><path id="Path_6567" data-name="Path 6567" d="M57.48,125.27a1.43,1.43,0,0,1,.93.53c.09.17.09.44-.14.48s-.48-.17-.68-.24a3,3,0,0,0-2,0,2.14,2.14,0,0,0-.95.68c-.28.35-.36.78-.65,1.12a.34.34,0,0,1-.2.13c-.2,0-.17-.27-.14-.38a3.28,3.28,0,0,1,1.75-2.1A3.17,3.17,0,0,1,57.48,125.27Z" fill="#7b5227" stroke="#7b5227" stroke-miterlimit="10" stroke-width="0.07"/></g></g><path id="Path_6568" data-name="Path 6568" d="M88.4,145.28a1.85,1.85,0,0,0,.14-1.11,4.67,4.67,0,0,0-.23-.66c-.09-.26,0-.62.24-.33a2.54,2.54,0,0,1,.37,1,1.94,1.94,0,0,1-.62,2.08,2.39,2.39,0,0,1-1.7.4c-.62-.06-1.2-.34-1.8-.35s-1.21,0-1.81,0a3.61,3.61,0,0,1-.73-.07,5.29,5.29,0,0,1-1.34-.45,8.78,8.78,0,0,0-.85-.33,9.7,9.7,0,0,0-1.49-.51,2.51,2.51,0,0,1-1.49-.77,2.1,2.1,0,0,1-.42-1.59,2.73,2.73,0,0,1,.44-1.2.84.84,0,0,1,.47-.38c.31-.07.43.07.15.28a1.57,1.57,0,0,0-.38.43,2.73,2.73,0,0,0-.3,1,1.33,1.33,0,0,0,.07.9,1.2,1.2,0,0,0,1.14.4,2.83,2.83,0,0,1,1.93.55c.58.4,1,1.07,1.66,1.27a2.6,2.6,0,0,0,1.9,0,2.51,2.51,0,0,1,1.12-.42,3.08,3.08,0,0,1,1.5.2c.51.22,1,.56,1.57.21A1.2,1.2,0,0,0,88.4,145.28Z" fill="#7b5227" stroke="#7b5227" stroke-linecap="round" stroke-linejoin="round" stroke-width="0.12"/><path id="Path_6569" data-name="Path 6569" d="M82.4,134.25a10.16,10.16,0,0,1-1.27,2.9c-.22.36-.62.33-.39-.14s.43-.7.58-1.07a9.15,9.15,0,0,0,.65-4.85,14,14,0,0,0-.62-2.1c-.07-.2-.16-.46.11-.55.8-.24,1.11,2,1.17,2.47A8.73,8.73,0,0,1,82.4,134.25Z" fill="#7b5227"/><path id="Path_6570" data-name="Path 6570" d="M85.74,142.73a.18.18,0,0,1-.06.09.32.32,0,0,1-.3,0c-.15-.06-.23-.23-.34-.35a3.07,3.07,0,0,0-.38-.34,3.24,3.24,0,0,0-.88-.47,3.66,3.66,0,0,0-2-.13,2.3,2.3,0,0,0-.68.24c-.19.1-.34.25-.53.35a.41.41,0,0,1-.34,0,.23.23,0,0,1-.16-.27c.07-.16.44-.28.59-.35s.52-.19.78-.27a4.54,4.54,0,0,1,1.64-.12,4.2,4.2,0,0,1,1.66.66C84.94,141.94,85.81,142.43,85.74,142.73Z" fill="#7b5227" stroke="#7b5227" stroke-linecap="round" stroke-linejoin="round" stroke-width="0.12"/><g id="Group_1253" data-name="Group 1253"><g id="Group_1252" data-name="Group 1252"><path id="Path_6571" data-name="Path 6571" d="M113.14,137a1.47,1.47,0,0,0-1.07.11c-.15.12-.26.37-.06.5s.51,0,.72.06a3,3,0,0,1,1.86.83,2.19,2.19,0,0,1,.6,1c.11.44,0,.86.14,1.29a.34.34,0,0,0,.13.2c.17.1.26-.17.28-.29a3.25,3.25,0,0,0-2.6-3.7Z" fill="#7b5227" stroke="#7b5227" stroke-miterlimit="10" stroke-width="0.07"/></g></g><g id="Group_1254" data-name="Group 1254"><path id="Path_6574" data-name="Path 6574" d="M76.3,151.91c.84-.15,1.67-.35,2.49-.58a4,4,0,0,1,2.53.14c.22.11.43.25.66.34a5,5,0,0,0,1.93.13c2.45,0,4.65,1.75,7.09,1.71-.65-.14-1.2.41-1.67.85a9.76,9.76,0,0,1-9.25,1.89,21.08,21.08,0,0,1-6.43-3.55c-.48-.35-3.26-2.25-1.35-1.64A9.59,9.59,0,0,0,76.3,151.91Z" fill="#b35537"/><path id="Path_6575" data-name="Path 6575" d="M87.62,153.08a16.84,16.84,0,0,0,2.88.56c-.92.4-1.26,1.25-2.06,1.78a8.62,8.62,0,0,1-2.63,1.16,10.54,10.54,0,0,1-5.6-.08A21.2,21.2,0,0,1,73.78,153c-.48-.35-3.26-2.25-1.35-1.64a9.45,9.45,0,0,0,4,.7,23.61,23.61,0,0,0,2.49-.57,3.85,3.85,0,0,1,2.53.14c.23.11.43.25.67.34a5,5,0,0,0,1.93.13A10.62,10.62,0,0,1,87.62,153.08Z" fill="none" stroke="#7b5227" stroke-linecap="round" stroke-miterlimit="10" stroke-width="0.59"/><path id="Path_6576" data-name="Path 6576" d="M90.2,153.84a7.71,7.71,0,0,1-3.27.75,27.92,27.92,0,0,1-4.09,0,14.58,14.58,0,0,1-5.53-1.06c.52.11,1,.27,1.57.34s1.05.07,1.57.11c1.08.09,2.17.17,3.26.18a29.58,29.58,0,0,0,3-.13c.45,0,.89-.1,1.33-.15l1.42-.17c.22,0,1-.26,1.14-.13A1.78,1.78,0,0,1,90.2,153.84Z" fill="#7b5227"/></g><g id="Group_1261" data-name="Group 1261"><path id="Path_6577" data-name="Path 6577" d="M97.89,127a20.48,20.48,0,0,1,2.77.82,11.75,11.75,0,0,1,4.31,2.47c.2.21.4.42.59.64a14.75,14.75,0,0,1,.87,1.25c.16.25.56,1-.1,1a.93.93,0,0,1-.5-.31c-.12-.09-.19-.2-.31-.29a3.75,3.75,0,0,0-.36-.24l-.9-.55c-.28-.16-.6-.3-.9-.44l-.59-.26A24.15,24.15,0,0,0,99.35,130c-1.14-.26-2.3-.42-3.46-.6A7.39,7.39,0,0,1,94,129c-.6-.27-1-.73-.89-1.25a1.33,1.33,0,0,1,1-1,4.53,4.53,0,0,1,1.68-.11A17.57,17.57,0,0,1,97.89,127Z" fill="#0f0a0a" stroke="#0f0a0a" stroke-miterlimit="10" stroke-width="0.1"/><g id="Group_1260" data-name="Group 1260"><g id="Group_1256" data-name="Group 1256"><path id="Path_6578" data-name="Path 6578" d="M104,137.93a23.24,23.24,0,0,1-3.51-2.49,10.37,10.37,0,0,0-3.82-1.67,5.57,5.57,0,0,0-3.27.43,10.73,10.73,0,0,0-1.75,1c-.44.3-1.24.24-1.37.9a3.24,3.24,0,0,0,1.25.38A39.08,39.08,0,0,1,97,137.55a10.59,10.59,0,0,0,3.65.6C101.74,138.06,103,137.49,104,137.93Z" fill="#fff"/><path id="Path_6579" data-name="Path 6579" d="M95.73,137.24c1.28.34,2.54.75,3.62-.19.4-.35,1.08-1.49.71-2s-1.1-.6-1.51-.76a8.59,8.59,0,0,0-1.85-.5,5,5,0,0,0-1.55,0c-.23,0-1.18.22-1.23.49a1.31,1.31,0,0,0-.27,1.6A2.74,2.74,0,0,0,95.73,137.24Z" fill="#0f0a0a" stroke="#0f0a0a" stroke-miterlimit="10" stroke-width="0.12"/><path id="Path_6580" data-name="Path 6580" d="M104.83,136.59a33.81,33.81,0,0,0-4-2.72,12.58,12.58,0,0,0-4.68-1.6,7.18,7.18,0,0,0-4.65.89,5.86,5.86,0,0,1,4.43-1.48,12.79,12.79,0,0,1,5.42,2.19A12.56,12.56,0,0,1,104.83,136.59Z" fill="#7b5227" stroke="#7b5227" stroke-linecap="round" stroke-linejoin="round" stroke-width="0.16"/><circle id="Ellipse_1076" data-name="Ellipse 1076" cx="96.19" cy="135.2" r="0.55" fill="#7b5227" stroke="#7b5227" stroke-linecap="round" stroke-linejoin="round" stroke-width="0.11"/><g id="Group_1255" data-name="Group 1255"><path id="Path_6581" data-name="Path 6581" d="M91.78,136.14a1.06,1.06,0,0,0-.22-.75c-.19-.17-.33-.07-.54,0s-.94.45-.71.61a2.36,2.36,0,0,0,.8.3,2.54,2.54,0,0,0,.55,0A.3.3,0,0,0,91.78,136.14Z" fill="#7b5227"/><path id="Path_6582" data-name="Path 6582" d="M102.12,136.82a.43.43,0,0,0-.24.16,1.12,1.12,0,0,0-.17.46c-.14.69.47.37.89.31a2.68,2.68,0,0,1,1.43.12,6.89,6.89,0,0,1-1.12-.64C102.69,137.08,102.4,136.77,102.12,136.82Z" fill="#7b5227"/></g><path id="Path_6583" data-name="Path 6583" d="M104,137.93a23.24,23.24,0,0,1-3.51-2.49,10.37,10.37,0,0,0-3.82-1.67,5.57,5.57,0,0,0-3.27.43,10.73,10.73,0,0,0-1.75,1c-.44.3-1.24.24-1.37.9a3.24,3.24,0,0,0,1.25.38A39.08,39.08,0,0,1,97,137.55a10.59,10.59,0,0,0,3.65.6C101.74,138.06,103,137.49,104,137.93Z" fill="none" stroke="#0f0a0a" stroke-linecap="round" stroke-linejoin="round" stroke-width="0.46"/><path id="Path_6584" data-name="Path 6584" d="M93.75,134a5.27,5.27,0,0,1,1.46-.45,4.31,4.31,0,0,1,1.6,0,7.53,7.53,0,0,1,4,2.75,8,8,0,0,0,1.41,1.56,1.88,1.88,0,0,0,1.07.4,14.2,14.2,0,0,1-1.2-1.13c-.36-.38-.66-.81-1-1.2A9.38,9.38,0,0,0,98,134" fill="none" stroke="#0f0a0a" stroke-linecap="round" stroke-linejoin="round" stroke-width="0.46"/></g><g id="Group_1259" data-name="Group 1259"><path id="Path_6585" data-name="Path 6585" d="M74.67,122.48a19.79,19.79,0,0,0-2.88-.29,11.78,11.78,0,0,0-4.92.67c-.27.12-.53.23-.78.37-.46.25-.86.55-1.28.83-.24.17-.9.74-.27.94a1.05,1.05,0,0,0,.58-.1c.14-.05.26-.12.4-.16l.42-.09,1-.17c.33,0,.67,0,1-.06l.65,0a22.42,22.42,0,0,1,3.56.31c1.16.18,2.29.48,3.43.75a8,8,0,0,0,1.93.34c.66,0,1.19-.31,1.29-.83a1.32,1.32,0,0,0-.52-1.3,4.65,4.65,0,0,0-1.52-.73A17.19,17.19,0,0,0,74.67,122.48Z" fill="#0f0a0a" stroke="#0f0a0a" stroke-miterlimit="10" stroke-width="0.1"/><g id="Group_1258" data-name="Group 1258"><path id="Path_6586" data-name="Path 6586" d="M64.88,130.27a22.19,22.19,0,0,0,4.19-1,10.46,10.46,0,0,1,4.17-.11,5.51,5.51,0,0,1,2.87,1.64,11.1,11.1,0,0,1,1.25,1.56c.3.45,1.06.69.93,1.35a3.17,3.17,0,0,1-1.3-.12,39.25,39.25,0,0,0-5.48-1.05,10.7,10.7,0,0,1-3.61-.81C67,131.25,66,130.23,64.88,130.27Z" fill="#fff"/><path id="Path_6587" data-name="Path 6587" d="M72.82,132.76c-1.31-.17-2.64-.26-3.28-1.54-.24-.48-.44-1.79.1-2.13a3.87,3.87,0,0,1,1.69-.13,9.31,9.31,0,0,1,1.9.23,5.3,5.3,0,0,1,1.44.58c.2.12,1,.65,1,.92a1.32,1.32,0,0,1-.35,1.58A2.75,2.75,0,0,1,72.82,132.76Z" fill="#0f0a0a" stroke="#0f0a0a" stroke-miterlimit="10" stroke-width="0.12"/><path id="Path_6588" data-name="Path 6588" d="M64.64,128.73a31.48,31.48,0,0,1,4.72-1,12.8,12.8,0,0,1,4.93.28,7.26,7.26,0,0,1,4,2.58,5.9,5.9,0,0,0-3.56-3,12.9,12.9,0,0,0-5.83,0A12.51,12.51,0,0,0,64.64,128.73Z" fill="#7b5227" stroke="#7b5227" stroke-linecap="round" stroke-linejoin="round" stroke-width="0.16"/><circle id="Ellipse_1077" data-name="Ellipse 1077" cx="72.23" cy="130.51" r="0.55" fill="#7b5227" stroke="#7b5227" stroke-linecap="round" stroke-linejoin="round" stroke-width="0.11"/><g id="Group_1257" data-name="Group 1257"><path id="Path_6589" data-name="Path 6589" d="M76.9,133.23a1.1,1.1,0,0,1,.48-.62c.24-.08.34.06.49.23s.7.78.43.83a2.46,2.46,0,0,1-1.38-.19A.31.31,0,0,1,76.9,133.23Z" fill="#7b5227"/><path id="Path_6590" data-name="Path 6590" d="M67.06,130a.43.43,0,0,1,.16.24,1.16,1.16,0,0,1,0,.49c-.13.69-.57.17-.94,0a2.61,2.61,0,0,0-1.38-.43,6.81,6.81,0,0,0,1.28-.18C66.44,130,66.82,129.81,67.06,130Z" fill="#7b5227"/></g><path id="Path_6591" data-name="Path 6591" d="M64.88,130.27a22.19,22.19,0,0,0,4.19-1,10.46,10.46,0,0,1,4.17-.11,5.51,5.51,0,0,1,2.87,1.64,11.1,11.1,0,0,1,1.25,1.56c.3.45,1.06.69.93,1.35a3.17,3.17,0,0,1-1.3-.12,39.25,39.25,0,0,0-5.48-1.05,10.7,10.7,0,0,1-3.61-.81C67,131.25,66,130.23,64.88,130.27Z" fill="none" stroke="#0f0a0a" stroke-linecap="round" stroke-linejoin="round" stroke-width="0.46"/><path id="Path_6592" data-name="Path 6592" d="M75.87,130.54a5.51,5.51,0,0,0-1.19-1,4.25,4.25,0,0,0-1.49-.58,7.56,7.56,0,0,0-4.76,1,8,8,0,0,1-1.89.91,1.81,1.81,0,0,1-1.15,0,13.59,13.59,0,0,0,1.54-.59c.47-.22.91-.5,1.38-.73A9.1,9.1,0,0,1,72,129" fill="none" stroke="#0f0a0a" stroke-linecap="round" stroke-linejoin="round" stroke-width="0.46"/></g></g></g></g><g id="Group_1263" data-name="Group 1263"><ellipse id="Ellipse_1078" data-name="Ellipse 1078" cx="110.11" cy="61.25" rx="8.11" ry="8.26" fill="#bed7ea"/><ellipse id="Ellipse_1079" data-name="Ellipse 1079" cx="116.18" cy="59.87" rx="8.81" ry="8.98" fill="#bed7ea"/><ellipse id="Ellipse_1080" data-name="Ellipse 1080" cx="114.06" cy="64.11" rx="7.21" ry="7.34" fill="#bed7ea"/></g><g id="Group_1264" data-name="Group 1264"><ellipse id="Ellipse_1081" data-name="Ellipse 1081" cx="101.01" cy="83.33" rx="5.7" ry="5.8" fill="#bed7ea"/><ellipse id="Ellipse_1082" data-name="Ellipse 1082" cx="98.89" cy="81.15" rx="4.85" ry="4.95" fill="#bed7ea"/><ellipse id="Ellipse_1083" data-name="Ellipse 1083" cx="97.81" cy="84.33" rx="4.77" ry="4.86" fill="#bed7ea"/><ellipse id="Ellipse_1084" data-name="Ellipse 1084" cx="96.09" cy="82.05" rx="3.73" ry="3.8" fill="#bed7ea"/></g><path d="M17.87,250H29.55c.55-7.09,3-13.89,4-21a47.94,47.94,0,0,1,2-8.94,99.64,99.64,0,0,0,4.16-15.39c.7-4,0-8.08,4.36-9.88,1.8-.74,3.81-1.13,5.29-2.39,2-1.74,2.53-4.62,2.9-7.27.42-3,.77-6.32-.88-8.88s-4.59-3.53-7.47-3.64c-7.74-.28-14.62,5.67-17.87,12.7a20.14,20.14,0,0,0-1.82,7c-.26,2.79-1.37,5.58-1.87,8.36a146.86,146.86,0,0,0-1.8,18c-.33,5.89-2.53,11.76-2.93,17.77C17.31,240.93,18,245.49,17.87,250Z" fill="#a46c35"/><path d="M98.87,246.71c-.54,1.08-1,2.18-1.51,3.29h16c1.26-1.55,2.56-3.08,3.72-4.7,1.9-2.64,3.12-4.7,3.57-8a73.4,73.4,0,0,0,.28-9.14,80.76,80.76,0,0,0,.1-8.38,31,31,0,0,0-1-5.56c-.59-2.07-1.69-4.35-3.78-4.87-1.31-.32-2.89.13-4.31.2h-.46a10.16,10.16,0,0,0-4.48.9c-1.2.58-3.08,1-4,1.9-2.18,2.11-.67,7.48-.17,10,.77,3.87,1.82,7.8,2,11.75.13,2.27-1.41,4-2.41,5.85C101.15,242.19,100,244.44,98.87,246.71Z" fill="#a46c35"/><path d="M20.71,198.72c4.14,2.38,8.33,5,12.46,7.49,1.16.71,6.77,4,7.38,1.82.92-3.21,2.61-6.16,4.05-9.21-.05.17-.11.35-.17.52-2.22,6.26-2.78,13-4.12,19.5-1.19,5.74-7.66,22.08-6.06,31.16H92.13a34.13,34.13,0,0,1-.28-4.51,75.13,75.13,0,0,1,1.58-10.87c1.5-7.73,3.87-15.39,6-22.88-.65,2.32,0,5.1.17,7.46a2,2,0,0,0,.33,1.14c.47.59,1.38.53,2.06.49,6.11-.37,12.45-1.35,18-4.42a9.84,9.84,0,0,1,2.08-.9,6.84,6.84,0,0,1,2.51.11c.32-1.48-.14-2.35-.51-3.76-.26-1-.55-2-.88-3a20.65,20.65,0,0,1-1-4.66c-.31-3.32-.19-6.67-.8-9.95A20.79,20.79,0,0,0,120,189.9a9.23,9.23,0,0,0-2.74-3.92c-1.33-1-2.8-1.76-4.21-2.62-2.53-1.56-5-3.21-7.51-4.82-1.27-.81-2.79-2.58-4.18-3-1.65-.47-3,.8-4.37,1.5A50.92,50.92,0,0,0,92.28,180a22.37,22.37,0,0,1-32-8,14.79,14.79,0,0,0-2.78-4.29,2.6,2.6,0,0,0-3.08-.64l-.53.14a13.66,13.66,0,0,1-4.73-.07,31.88,31.88,0,0,0-8.78.17,20.39,20.39,0,0,0-10.63,6.5c-2.58,2.83-3.85,6.53-5.47,9.93-1.78,3.76-3,7.83-4.45,11.74a3.44,3.44,0,0,0-.32,1.81A2.32,2.32,0,0,0,20.71,198.72Z" fill="#468fc3"/><path d="M143.45,244.81c-.07,1.73-.09,3.46-.08,5.19H158c0-1.42,0-2.85-.07-4.27a61.22,61.22,0,0,1,.23-10.4c.7-5.63-.07-11.12.43-16.77a58.16,58.16,0,0,1,3.08-14.22c1.51-4.3,4.17-8.24,5-12.75.94-5-2.16-9.61-7.63-9.12a14.74,14.74,0,0,0-6.72,2.78c-3,2-5.84,4.59-7.31,7.92a24,24,0,0,0-1.55,6.75,164.21,164.21,0,0,0-1.17,23.67C142.44,230.68,143.5,237.74,143.45,244.81Z" fill="#f7d5a7"/><path d="M212.65,204.34a58.16,58.16,0,0,1,3.08,14.22c.5,5.65-.27,11.14.43,16.77a61.22,61.22,0,0,1,.23,10.4c-.06,1.42-.08,2.85-.07,4.27h14.59c0-1.73,0-3.46-.08-5.19-.05-7.07,1-14.13,1.17-21.22.18-7.59.24-15.5-1.64-22.84-1.39-5.45-3.45-12.18-8.39-15.5a14.74,14.74,0,0,0-6.72-2.78c-5.48-.49-8.57,4.16-7.63,9.12C208.48,196.1,211.14,200,212.65,204.34Z" fill="#f7d5a7"/><path d="M145.13,207.75c5,1.46,10.09,2.94,14.69,5.41a7.61,7.61,0,0,1,.33-1.33,16.2,16.2,0,0,1,1.07-2c-1.19,1.95-.59,5.35-.6,7.54,0,4.08.53,8.15.89,12.19.59,6.83,2.2,13.58,2.19,20.46H209q0-3.67.32-7.33c.73-5.42,2.21-10.67,2.76-16.14.59-5.89,1.15-11.8,1.25-17.72a5.52,5.52,0,0,0,.54,1.45,10.65,10.65,0,0,1,.5,2.15,14.32,14.32,0,0,1,.05,2.27c0,.37-.06.74-.1,1.11a3.35,3.35,0,0,1-.13,1c1.87-2.44,6.34-4.36,9.08-5.71,3.24-1.6,10.05-4.05,13.4-1.86-4.49-4.54-5.18-11.31-7.7-16.91-2.85-6.3-8-9.12-14.43-10.87-.76-.21-8.57-2.71-8.69-2.52a29.22,29.22,0,0,0-3.48,8c-.12.44-1.34,5.57-.88,5.66A42.51,42.51,0,0,0,194,192c-2.61,0-5.23,0-7.84.19a105.7,105.7,0,0,0-15.34,2c-.24.05-2.44-15.19-6.21-15a1.57,1.57,0,0,0-.43.09c-6.22,2.22-13.47,3.43-17.6,9.18-2,2.84-2.91,6.32-4,9.63a30.51,30.51,0,0,1-2.08,4.4c-.39.76-.75,1.52-1.07,2.3a5.54,5.54,0,0,0-.67,2.12A14.55,14.55,0,0,1,145.13,207.75Z" fill="#3574a2"/><path id="Path_6573" data-name="Path 6573" d="M101.36,174.79c-.55-1-.84-2.37-2.25-2.3-1,.06-2,1.27-2.7,1.87a41.33,41.33,0,0,1-8.51,5.51A20.76,20.76,0,0,1,78,182a20.66,20.66,0,0,1-12.53-5.74,32.35,32.35,0,0,1-4.68-5.5c-.68-1-1.32-2-1.92-3.08-.32-.56-1-2.66-1.65-2.79a3.94,3.94,0,0,0-2.57.91,3.25,3.25,0,0,0-1.22,1.3.2.2,0,0,0,0,.17c.06.15.53,0,.66,0a.84.84,0,0,1,.67.38c.32.49.53,1,.82,1.55.69,1.17,1.41,2.32,2.19,3.44a36.91,36.91,0,0,0,5.16,6,25.32,25.32,0,0,0,13.46,6.78,20.68,20.68,0,0,0,7.52-.3,27.43,27.43,0,0,0,9.59-4.78c1.46-1,2.88-2.11,4.32-3.15s2.21-1.89,3.86-1.46C101.74,175.29,101.54,175.12,101.36,174.79Z" fill="#3574a2"/></g></g></svg>