<svg xmlns="http://www.w3.org/2000/svg" xmlns:xlink="http://www.w3.org/1999/xlink" viewBox="0 0 250 250"><defs><clipPath id="clip-path"><rect width="250" height="250" rx="13.85" fill="none"/></clipPath></defs><g id="Layer_2" data-name="Layer 2"><g id="Layer_1-2" data-name="Layer 1"><g id="Module_7" data-name="Module 7"><rect id="Base-13" width="250" height="250" rx="13.85" fill="#eae3f1"/><g id="Module_7_Art" data-name="Module 7 Art"><g clip-path="url(#clip-path)"><g id="Group_2559" data-name="Group 2559"><g id="Group_2552" data-name="Group 2552"><path id="Path_13469" data-name="Path 13469" d="M53.6,136.1c-11.22,0-20.31-2.1-20.31-4.67v18.15c0,2.58,9.1,4.67,20.31,4.67s20.32-2.09,20.32-4.67V131.43C73.92,134,64.83,136.1,53.6,136.1Z" fill="#84b4d8"/><path id="Path_13470" data-name="Path 13470" d="M53.61,144.33a89.15,89.15,0,0,1-10.83-.63,41.83,41.83,0,0,1-7.9-1.63A11.71,11.71,0,0,1,32.36,141c-1.29-.81-1.15.92-1.15,1.79v49.45a7.9,7.9,0,0,0,4.18,7c3,1.65,10,2.81,18.22,2.81s15.26-1.16,18.21-2.81a7.9,7.9,0,0,0,4.18-7V141.45c0-1.29-1.15-.44-1.83-.11a15.62,15.62,0,0,1-2,.77C66.31,144,59.76,144.33,53.61,144.33Z" fill="#90bcdb"/><path id="Path_13471" data-name="Path 13471" d="M72,129.43A26.68,26.68,0,0,0,67.54,128c-.84-.2-1.72-.37-2.64-.52-1.26-.21-2.17-.2-2.18-.7s0-.75,0-1.13v-1.76H44.38v1.79a5.53,5.53,0,0,1,0,1.15c-.08.48-1.18.47-2.4.68-.91.16-1.78.34-2.61.53a26.25,26.25,0,0,0-4.4,1.42c-1.54.67-3.7,1.8-3.7,3.73v3.57c0,.07,0,.14,0,.2.26,2.8,10.17,5,22.37,5a74.19,74.19,0,0,0,14.94-1.31,25.58,25.58,0,0,0,4.77-1.4,9,9,0,0,0,1.56-.84c1.06-.75,1-2.07,1-3.24v-2C76,131.83,74.55,130.51,72,129.43Z" fill="#90bcdb"/><path id="Path_13472" data-name="Path 13472" d="M53.6,117.11c-9.86,0-17.85-1.84-17.85-4.1v16c0,2.26,8,4.1,17.85,4.1s17.86-1.84,17.86-4.1V113C71.46,115.27,63.47,117.11,53.6,117.11Z" fill="#84b4d8"/><path id="Path_13473" data-name="Path 13473" d="M67.54,100.54a24.79,24.79,0,0,0-2.64-1.29c-1.26-.52-2.17-.49-2.18-1.71,0-.94,0-1.87,0-2.81V90.37H44.38v4.44c0,.94.07,1.9,0,2.84-.08,1.2-1.18,1.18-2.4,1.7a21.87,21.87,0,0,0-2.61,1.3,19.6,19.6,0,0,0-4.4,3.5,13.89,13.89,0,0,0-3.7,7.65v11.47c0,.07,0,.14,0,.21.26,2.79,10.17,5,22.37,5A74.19,74.19,0,0,0,68.6,127.2a25.58,25.58,0,0,0,4.77-1.4,8.37,8.37,0,0,0,1.56-.84c1.06-.75,1-2.07,1-3.24V113.3A13.56,13.56,0,0,0,72,104,19.89,19.89,0,0,0,67.54,100.54Z" fill="#90bcdb"/><path id="Path_13474" data-name="Path 13474" d="M53.61,150.39c-12.37,0-22.39-2.3-22.39-5.14V184c0,2.85,10,5.15,22.39,5.15S76,186.81,76,184V145.25C76,148.09,66,150.39,53.61,150.39Z" fill="#cbcdce"/><path id="Path_13475" data-name="Path 13475" d="M44.23,82.69a5.26,5.26,0,0,0,1.59.79,15.36,15.36,0,0,0,3.36.52,52.61,52.61,0,0,0,11.22-.24,6,6,0,0,0,2.23-.66,2,2,0,0,0,.56-.49,73.7,73.7,0,0,0-19.06,0Z" fill="#ab1f23"/><path id="Rectangle_429" data-name="Rectangle 429" d="M44.18,82.59H63a2.88,2.88,0,0,1,2.89,2.88h0v7.1a.68.68,0,0,1-.68.68H42a.68.68,0,0,1-.68-.67v-7.1a2.88,2.88,0,0,1,2.88-2.89Z" fill="#d72028"/><path id="Rectangle_430" data-name="Rectangle 430" d="M42.49,94.4H64.72a1.19,1.19,0,0,1,1.2,1.2h0V96a.27.27,0,0,1-.28.28H41.57a.28.28,0,0,1-.28-.28h0V95.6a1.2,1.2,0,0,1,1.2-1.2Z" fill="#90bcdb"/><path id="Path_13476" data-name="Path 13476" d="M46,168.34c.35-.82,2.51-8.3,3-9.9l13.17-1.51-2.26,4.71,4.9-2.26-15.25,23c.06-.89.92-15.14,1-15.94L46,168.34" fill="#d72028"/></g><g id="Group_2554" data-name="Group 2554"><path id="Path_13477" data-name="Path 13477" d="M19.31,135.64a4.46,4.46,0,0,0,1.31.7,11.38,11.38,0,0,0,2.78.46,40,40,0,0,0,9.28-.21,4.84,4.84,0,0,0,1.85-.59,1.92,1.92,0,0,0,.46-.44,56.29,56.29,0,0,0-15.77,0Z" fill="#f1f3f5"/><path id="Path_13478" data-name="Path 13478" d="M38.51,154.75c-.53-1.2-2.37-1.21-3.26-2.1-1.18-1.19-1.14-3-1.1-4.42,0-.3,0-.68.05-1.1.07-1.43.08-3.36-.9-4.12-1.53-1.19-4.36-.76-6.25-.78s-4.61-.48-6.23.78c-1,.76-1,2.69-.9,4.12,0,.42,0,.8,0,1.1,0,1.45.08,3.23-1.1,4.42-.9.9-2.73.9-3.26,2.1.87,0,7.26-.24,11.45-.35C31.25,154.51,37.64,154.77,38.51,154.75Z" fill="#efa6a8"/><path id="Rectangle_431" data-name="Rectangle 431" d="M20.16,152.86H34a11,11,0,0,1,11,11h0v40.83A3.33,3.33,0,0,1,41.62,208H12.51a3.33,3.33,0,0,1-3.33-3.33h0V163.85A11,11,0,0,1,20.16,152.86Z" fill="#efa6a8"/><path id="Rectangle_432" data-name="Rectangle 432" d="M19.36,135.54h15.4A2.48,2.48,0,0,1,37.25,138v6.48a.58.58,0,0,1-.58.58H17.46a.58.58,0,0,1-.59-.58h0V138A2.49,2.49,0,0,1,19.36,135.54Z" fill="#fff"/><path id="Rectangle_433" data-name="Rectangle 433" d="M17.9,146.11H36.22a1,1,0,0,1,1,1v.37a.24.24,0,0,1-.24.24H17.12a.25.25,0,0,1-.25-.24h0v-.37a1,1,0,0,1,1-1Z" fill="#efa6a8"/><path id="Path_13479" data-name="Path 13479" d="M10.5,158.33a8.53,8.53,0,0,0-1.32,4.56V205c0,1.68,1.63,3,3.64,3H41.3c2,0,3.64-1.36,3.64-3V162.89a8.61,8.61,0,0,0-1.31-4.56Z" fill="#d72028"/><g id="Group_2553" data-name="Group 2553"><path id="Rectangle_434" data-name="Rectangle 434" d="M17.64,164.25H45v37.84H17.64a2.93,2.93,0,0,1-2.93-2.93v-32a2.93,2.93,0,0,1,2.93-2.93Z" fill="#fff" stroke="#fff" stroke-linecap="round" stroke-linejoin="round" stroke-width="0.37"/><rect id="Rectangle_435" data-name="Rectangle 435" x="17.24" y="166.35" width="25.24" height="33.64" fill="#bed7ea"/></g><path id="Rectangle_436" data-name="Rectangle 436" d="M9.46,202.18H9.17V164.34h.29a2.93,2.93,0,0,1,2.93,2.93v32a2.93,2.93,0,0,1-2.93,2.93Z" fill="#fff" stroke="#fff" stroke-linecap="round" stroke-linejoin="round" stroke-width="0.37"/></g><g id="Group_2556" data-name="Group 2556"><path id="Path_13480" data-name="Path 13480" d="M184.52,189.06a52.82,52.82,0,0,0-29.8,0h-6.35v5.57h0c.39,4,9.75,7.21,21.24,7.21s20.86-3.2,21.24-7.21h0v-5.57Z" fill="#d0e3f0"/><path id="Path_13481" data-name="Path 13481" d="M193.61,190.63,199,163.21H140.15l5.43,27.42v.09a2.51,2.51,0,0,0,.22,1l0,.07h0c1.7,3.59,11.69,6.35,23.77,6.35s22.07-2.76,23.76-6.35h0l0-.07a2.51,2.51,0,0,0,.22-1S193.61,190.66,193.61,190.63Z" fill="#d0e3f0"/><path id="Path_13482" data-name="Path 13482" d="M169.57,198.29c-9.2,0-17.19-1.6-21.23-3.95v.43h0c.38,4,9.74,7.21,21.24,7.21s20.85-3.2,21.24-7.21h0v-.46C186.83,196.68,178.81,198.29,169.57,198.29Z" fill="#8da1af" opacity="0.3" style="isolation:isolate"/><path id="Path_13483" data-name="Path 13483" d="M181.48,193.79l.61,1.57c.16.43.38.91.82,1a1.25,1.25,0,0,0,1.24-.62c.8-1.1,1-3.39-.28-4.26a1.75,1.75,0,0,0-1.78.08C181.11,192.07,181.12,192.85,181.48,193.79Z" fill="#6b1012"/><path id="Path_13484" data-name="Path 13484" d="M176.12,201.36c0-.23-.14-.42-.07-.67s-.11-.3-.3-.18-.34.37-.46.07a.48.48,0,0,1,.28-.62l.09,0a2.51,2.51,0,0,1,1-.08c.5.08.34.54.36.86s.47.22.61.46A6.53,6.53,0,0,1,176.12,201.36Z" fill="#3b3d41"/><path id="Path_13485" data-name="Path 13485" d="M187.71,182.77c2.28,1.26,1.25,4.86-.37,6.18s-4.8,1.55-5.92-.53a3,3,0,0,1,.32-2.91,5.91,5.91,0,0,1,4.71-3A2.39,2.39,0,0,1,187.71,182.77Zm-1.54,3.66c.6,0,.78-.53,1-1.09.06-.24.3-.43,0-.65s-.46-.39-.8-.19a.64.64,0,0,1-.5.1c-.87-.16-.4.91-.95,1.06a1,1,0,0,0,.7.66Z" fill="#2f3087"/><path id="Path_13486" data-name="Path 13486" d="M180.19,195a.49.49,0,0,1-.09-.48c0-.09.12-.12.13-.23s-.14-.3-.21-.42a2.29,2.29,0,0,1-.32-1.17,3.32,3.32,0,0,1,.15-1.08c.12-.28.52-.54.75-.75s.4-.48.64-.58.28-.05.38-.14a.6.6,0,0,0,.13-.25c.17-.56.76-.72,1.24-.85.73-.2,1.37-.6,2.07-.84A17.89,17.89,0,0,1,187,188a2.38,2.38,0,0,1,1.89.34,1.32,1.32,0,0,0,.44.13.45.45,0,0,1,.36.24c.08.21-.11.49,0,.67s.17.1.24.17.1.5-.06.71c-.39.52-.34,1.09-.71,1.64a4,4,0,0,0-.38.54,5.31,5.31,0,0,1-.22.6c-.15.26-.44.42-.54.7,0,.13,0,.28-.08.4s-.18.2-.29.32-.1.24-.17.34l-.1.14c-.15.26-.56.27-.78.48a11.1,11.1,0,0,1-.76.91,2.46,2.46,0,0,1-1.06.58c-.35.08-.52.44-.87.56a2,2,0,0,1-1.24,0,4.54,4.54,0,0,1-.82-.14c-.29-.12-.6-.68-.75-1s-.14-.46-.35-.61-.13-.32-.22-.49S180.29,195.08,180.19,195Zm1.83-2.71a.61.61,0,0,0-.28.69c.12.67.88,1.13.83,1.86a3.43,3.43,0,0,0,0,.56.5.5,0,0,0,.27.46.47.47,0,0,0,.49-.12,1.33,1.33,0,0,0,.28-.44c.39-.8.7-2.22-.14-2.88A1.36,1.36,0,0,0,182,192.24Z" fill="#a11e21"/><path id="Path_13487" data-name="Path 13487" d="M186.17,186.43l-.6-.1a1,1,0,0,1-.7-.66c.55-.15.08-1.22,1-1.06a.65.65,0,0,0,.49-.1c.34-.2.57,0,.81.19s.06.41,0,.64C187,185.9,186.77,186.39,186.17,186.43Z" fill="#314261" stroke="#5757a2" stroke-miterlimit="10" stroke-width="0.46"/><path id="Path_13488" data-name="Path 13488" d="M153,183.71c.23.08.44.19.57.24a8.24,8.24,0,0,1,1.4.76,9.37,9.37,0,0,1,2.26,2.27,13.11,13.11,0,0,1,1.62,2.84,26.05,26.05,0,0,1,1.31,5.07c.17,1.11.9,4-.16,4.81a1.6,1.6,0,0,1-1.2.27,15.71,15.71,0,0,1-8-4.48,16.44,16.44,0,0,1-2.55-3.64,17,17,0,0,1-.66-1.72l-.44-1.2c-.16-.45-.52-1.08.25-1.09.24,0,.52,0,.56.34a2.36,2.36,0,0,0,1,1.55,2.51,2.51,0,0,0,2.85.28,1.55,1.55,0,0,0,.46-.66,1,1,0,0,0-.05-.91,2.63,2.63,0,0,1-.29-.61c0-.11-.05-.15.05-.2a2.4,2.4,0,0,1,.6.07c.28.25.46-.07.67-.14.91-.26,1-.6.47-1.37-.12-.16-.31-.32-.18-.53s.28-.53,0-.7a1.35,1.35,0,0,0-.34-.11,3,3,0,0,1-1.18-.67c-.13-.12-.3-.25-.28-.44a.35.35,0,0,1,.41-.3h0a2.52,2.52,0,0,1,.34.15C152.72,183.65,152.87,183.66,153,183.71Z" fill="#d72028"/><path id="Path_13489" data-name="Path 13489" d="M152.75,187.67s0-.1,0-.15l-.23-1.05a11.83,11.83,0,0,1-.31-1.46,4.47,4.47,0,0,0-.47-2.27,1.56,1.56,0,0,0-1.89-.65,2.31,2.31,0,0,0-.85.93l-1.16,1.85a5.11,5.11,0,0,0-.78,1.67c-.05.29-.07.59-.11.89,0,.11-.1.37,0,.47s.56.09.71.1.25.12.32.38a4.27,4.27,0,0,0,.27.67c.18.32.49.52.66.81a1.83,1.83,0,0,0,.8.71,9.61,9.61,0,0,1,1.14.5,2.57,2.57,0,0,0,.77.44,1,1,0,0,0,.87-.3,1.94,1.94,0,0,0,.45-.85,4.07,4.07,0,0,0,.09-2C152.91,188.14,152.81,187.91,152.75,187.67Z" fill="#3c987d"/><path id="Path_13490" data-name="Path 13490" d="M152.55,186.2c-.83.13-1.28-.46-1.92-1C151.49,185.29,151.92,185.93,152.55,186.2Z" fill="#3bb54a"/><path id="Path_13491" data-name="Path 13491" d="M151.22,184.07l-.9,0c-.2,0-.51.24-.52-.13s.33-.24.53-.23c.48,0,.95.1,1.43.15.19,0,.4.12.51-.06a.57.57,0,0,0,0-.46,1.22,1.22,0,0,0-.42-.48,3.7,3.7,0,0,0-1.22-.62,2.07,2.07,0,0,1-1-.44,1.15,1.15,0,0,1-.25-.46c0-.09,0-.47-.08-.52s-.6.33-.62.47c-.07.4-.1.81-.5,1,0,.16,0,.33,0,.49-.45,0-.66-.21-.95-.54a6.32,6.32,0,0,0-2.3-1.93c.24.81.94,1.25,1.45,1.84a3.84,3.84,0,0,1,.58.63.77.77,0,0,1,.06.45c0,.4.35.56.24,1a2.07,2.07,0,0,1-.48.87c-.2.22-.88.52-.92.84a.64.64,0,0,0,.36.67,1.44,1.44,0,0,0,1.28.07,6.26,6.26,0,0,1,1.21-.21,16.4,16.4,0,0,1,3.36,0,1.4,1.4,0,0,0,.5,0,.47.47,0,0,0,.38-.3.49.49,0,0,0-.06-.42,1.47,1.47,0,0,0-.29-.32l-.62-.56C151.64,184.71,151.66,184.05,151.22,184.07Z" fill="#3c987d"/><g id="Group_2555" data-name="Group 2555"><path id="Path_13492" data-name="Path 13492" d="M144.88,180.4a2.25,2.25,0,0,1-.76-1.48c.32-1,4.06,2.44,4,3.46,0,.17,0,.33,0,.49-.45,0-.66-.21-.95-.54A6.32,6.32,0,0,0,144.88,180.4Z" fill="#45a98c"/><path id="Path_13493" data-name="Path 13493" d="M152.18,184a2.14,2.14,0,0,0,.84.59c.43.17,1,.39.6,1.12-.13.21.06.37.18.53.55.77.44,1.11-.47,1.37-.21.07-.39.39-.67.14,0-.7-.61-.71-1-.91-.24-.12-1.19-.38-1.18-.57,0-.84-1-.22-1.35.08s-.21.47-.41.64c-.4.55.11,2.06.72,2.11.11,0,.3,0,.33-.11.28-.73.63-.24.8,0a.76.76,0,0,0,1,.31l.12-.08c.1.09.54-.07.25.31a1.12,1.12,0,0,1-.88.5,2.6,2.6,0,0,1-2.46-1.2c-.19-.34-.22-1.3-.46-1.5s-1.08.27-1.51.22a1.91,1.91,0,0,1-1.1-.6,1.62,1.62,0,0,1-.42-.67c0-.32.2-.66.54-.36a1.38,1.38,0,0,1,.29.46c.47.9,1.22.35,2,.28.25,0,.6.18.71-.17s-.36-.39-.43-.65c-.19-.78.64-.35,1-.56a3.56,3.56,0,0,1,2-.42c.17,0,.47.11.43-.23s-.07-.52-.43-.5l-.9,0c-.2,0-.51.23-.52-.13s.33-.24.53-.23C151,183.8,151.57,183.88,152.18,184Zm.37,2.25c-.63-.27-1.06-.91-1.92-1,.64.56,1.1,1.15,1.92,1Z" fill="#45a98c"/><path id="Path_13494" data-name="Path 13494" d="M150.86,180.28c.62.18,1.29.51,1.71.67.6.23,1.24.65,1.08,1.37-.11.5-.81,1.33-1.33,1.36s-.56-.41-.89-.68-.88,0-1.33.15-.3-.26-.21-.61l-.49.25c-.16,0-.13,0-.15-.15s.31-.5.23-.75-.37-.21-.46-.45a.78.78,0,0,1,0-.54,1.31,1.31,0,0,1,.81-.7A1.92,1.92,0,0,1,150.86,180.28Z" fill="#45a98c"/><path id="Path_13495" data-name="Path 13495" d="M145.75,184.54c-.27-.16-1.38-.74-1-1.22s1.54-.17,1.92-.1a1,1,0,0,1,.8,1.11,1.06,1.06,0,0,1-.12.34c-.12.26-.4.35-.56.57s-.12.46-.39.54c0,0-.4,0-.29-.12C146.49,185.11,146.17,184.81,145.75,184.54Z" fill="#45a98c"/></g><path id="Path_13496" data-name="Path 13496" d="M178.57,194.29a1.87,1.87,0,0,0-1,.17c-.1,0-.2.15-.32.09s-.06-.55,0-.69a2.55,2.55,0,0,1,.5-.58c.18-.18.51-.46.45-.74a1.23,1.23,0,0,0-1.3.64c-.2.29-.31.58-.6.15a2.21,2.21,0,0,0-1.28-.8c-.17-.05-1.2-.25-1.29,0s.25.24.32.3a1.58,1.58,0,0,1,.42.54c-.09-.19-.75-.29-.94-.32a6.05,6.05,0,0,0-1-.05,5.61,5.61,0,0,1-.92-.06c-.26,0-.53-.25-.79-.18.08.28.16.28.4.4a.38.38,0,0,1,.27.43c0-.12,1,.2,1.08.27a1.54,1.54,0,0,0,1.21.46c.34-.06.7-.7,1-.45s.13.55.57.65c.24.06.49,0,.74.07a2.83,2.83,0,0,1,1.19.67,4.05,4.05,0,0,0,1.4.72c-.07-.6.65-.64,1.07-.76a.65.65,0,0,0,.36-.18.25.25,0,0,0,0-.36h0a2,2,0,0,1-1.47-.36Z" fill="#45a98c"/><path id="Path_13497" data-name="Path 13497" d="M178.68,197.49a4,4,0,0,0-2-2.56,6.81,6.81,0,0,0-2.46-.62,23.36,23.36,0,0,0-2.9-.12c-.3,0-.55-.14-.85-.15a.74.74,0,0,0-.62.26,1.52,1.52,0,0,0-.16.4l0,.11c-.17.43-.54.46-.8.75s-.08.75-.29,1.06-.43.15-.56.42a1.44,1.44,0,0,0-.06.71,5.93,5.93,0,0,0,.24.85,4.83,4.83,0,0,1,0,1.14,5.52,5.52,0,0,0,.64,2.1h.81a55.36,55.36,0,0,0,8.44-.61,1.26,1.26,0,0,0,.13-.37c.1-.37.26-.65.38-1A4.21,4.21,0,0,0,178.68,197.49Z" fill="#5757a2"/><path id="Path_13498" data-name="Path 13498" d="M179.6,197.83a.69.69,0,0,0-.18-.24.74.74,0,0,1-.2-.23c-.08-.19.05-.42.06-.62a.84.84,0,0,0-.2-.63c-.16-.18-.31-.13-.5-.18a1.92,1.92,0,0,1-.46-.21,4.76,4.76,0,0,1-.87-.62,2.21,2.21,0,0,0-1.27-.72c-.25,0-.56.08-.78,0s-.22-.37-.41-.48-.47,0-.65.22c-.58.58-1.14-.19-1.66-.43-.78-.36-2.6-.07-2.6,1.05,0,.25.09.3-.12.47s-.36.14-.51.24a1.44,1.44,0,0,0-.56.88c-.1.4.11,1.05-.2,1.33a4.57,4.57,0,0,0-.6.56,1.39,1.39,0,0,0-.19,1.5c.06.14-.18.34-.25.46a1.47,1.47,0,0,0-.17.62,1.59,1.59,0,0,0,.24,1.06c.69,0,1.39,0,2.1,0,1.9,0,3.74-.09,5.5-.26a.77.77,0,0,1,.51-.35.81.81,0,0,1,.71.22c.76-.09,1.5-.19,2.23-.31a2.3,2.3,0,0,0,.37-1.14c0-.54.16-.56.48-1A1.3,1.3,0,0,0,179.6,197.83ZM175,194.9s0,0,0,0a1.25,1.25,0,0,1,.41-.14c.24-.06.63.06.52.4s-.59.17-.82.14A.23.23,0,0,1,175,195,.11.11,0,0,1,175,194.9Zm-2.62.44c.15,0,.21,0,.23,0s-.44.57-.55.7c-.25.3-.58.07-.42-.28A.92.92,0,0,1,172.4,195.34Zm-1.15-.86a.65.65,0,0,1,.38-.13s0,0,0,0h0s0,0,0,0,0,0,0,0a.7.7,0,0,1-.06.35.21.21,0,0,1-.27.12.21.21,0,0,1-.11-.27.18.18,0,0,1,.09-.1ZM170,195.53c.18-.09.43-.2.54,0a.33.33,0,0,1-.31.48c-.29,0-.28.31-.52.37a.52.52,0,0,1,.06-.74.38.38,0,0,1,.23-.11Zm.37,2.28c-.06.2,0,.48-.35.48a.24.24,0,0,1-.26-.21.57.57,0,0,1,.2-.6c.07-.07.25-.25.36-.24a.18.18,0,0,1,.15.11c.05.13-.05.35-.1.46Zm-1.58,1.93c-.14,0-.13-.2-.06-.31.18-.3.2-.75.66-.82a.57.57,0,0,1,.36.08.26.26,0,0,1,.12.19c0,.19-.4.32-.56.41s-.19.52-.52.45Zm1.32,1.49c-.19,0-.34-.28-.52-.21s-.21.39-.35.23,0-.29.1-.38a.44.44,0,0,1,.43-.2c.16,0,.28.19.44.21s.3-.26.52-.3a.18.18,0,0,1,.21.14c0,.14-.66.54-.82.51Zm1.69-2.27c-.05.26-.45.51-.64.62s-.19-.15-.21-.29c0-.36.42-1,.77-.58a.27.27,0,0,1,.08.25Zm0-1.35c-.43-.15.83-1,1-1h0a.52.52,0,0,1,.46.11.38.38,0,0,1,.1.45.57.57,0,0,1-.59.22,1.57,1.57,0,0,0-.53,0c-.16.06-.26.29-.44.23Zm2,3.12a.69.69,0,0,1-.26.25,1.48,1.48,0,0,1-.7.31.6.6,0,0,1-.44-.16h0a.38.38,0,0,1-.11-.24.69.69,0,0,1,.22-.47,1,1,0,0,1,.25-.26c.11-.08.43-.16.4.1a.37.37,0,0,1-.19.23.69.69,0,0,0-.25.19.19.19,0,0,0,0,.27h0a.21.21,0,0,0,.22-.08,2.12,2.12,0,0,0,.11-.21c.17-.27.94-.4.72.07Zm-.29-1.37a.35.35,0,0,1,.18-.46l.06,0c.43-.16.53.21.72.53-.32-.36-.69.51-1,0Zm.43-2.91c.09-.43.21-.75.67-.71.19,0,.31.16.28.28-.13.55-.71.06-1,.43Zm1.81,2.91c0,.13,0,.24-.2.25a.32.32,0,0,1-.23-.34c0-.16.1-.31.28-.28s.14.23.15.37Zm-.86-.83c-.15.09-.16-.18-.2-.32-.1-.49.24-.82.44-1.29.31.42-.13.66-.07,1,.45.14.65-.41,1.12-.4,0,.9-.83.76-1.29,1Zm1.69-2.08c-.16-.55.88-1,1-.32a.32.32,0,0,1-.17.39c-.18.12-.74.22-.83-.07Zm.9,3.41c-.12,0-.27,0-.34.16a.77.77,0,0,0,0,.3c0,.1-.08.21-.18.19s-.11-.16-.08-.25a.81.81,0,0,1,.89-.65c0,.13-.14.22-.26.25Zm.36-1.59c-.08.1-.28,0-.4.11s-.18.22-.28.31-.37,0-.29-.25,0-.53.38-.57c.16,0,.83.09.59.4Z" fill="#3b3d41"/><path id="Path_13499" data-name="Path 13499" d="M190,152.77a.89.89,0,0,1-.41.95c-1.73,1.5-9.48,2.45-17.3,2.11-6.25-.26-10.2-1.45-8.8-2.66,1.11-1,6.07-1.56,11.07-1.35,4,.17,6.53.93,5.64,1.7-.71.61-3.89,1-7.09.87-2.56-.11-4.18-.6-3.61-1.09" fill="none" stroke="#e9b8cf" stroke-linecap="round" stroke-miterlimit="10" stroke-width="0.76"/><g id="Yogurt" style="isolation:isolate"><g style="isolation:isolate"><path d="M158.55,173.36a.38.38,0,0,1,.39.27l.39,1.54.23,1.39h.1l.23-1.39.39-1.54a.38.38,0,0,1,.39-.27h.58c.36,0,.46.29.37.57l-1.29,4v2a.37.37,0,0,1-.4.4h-.64a.37.37,0,0,1-.4-.4v-2l-1.29-4c-.09-.28,0-.57.37-.57Z"/><path d="M165.11,176.1v3c0,.89-.57,1.3-1.62,1.3s-1.62-.41-1.62-1.3v-3c0-.89.57-1.3,1.62-1.3S165.11,175.21,165.11,176.1Zm-2,0v3c0,.25.12.37.34.37s.34-.12.34-.37v-3c0-.25-.12-.37-.34-.37S163.15,175.89,163.15,176.14Z"/><path d="M169.24,181c0,.89-.57,1.3-1.62,1.3H167a.37.37,0,0,1-.4-.4v-.17a.36.36,0,0,1,.4-.4h.67c.22,0,.34-.12.34-.37v-1a1.58,1.58,0,0,1-1.05.45c-.49,0-.91-.32-.91-1.09v-3.46c0-.77.42-1.09.91-1.09a1.57,1.57,0,0,1,1.05.44h0a.36.36,0,0,1,.4-.39h.48a.36.36,0,0,1,.4.39Zm-2-2c0,.25.12.37.34.37s.34-.12.34-.37v-2.76c0-.26-.11-.37-.34-.37s-.34.11-.34.37Z"/><path d="M170.13,175.24a.36.36,0,0,1,.4-.39H171a.35.35,0,0,1,.39.39V179c0,.25.12.37.34.37s.34-.12.34-.37v-3.76a.36.36,0,0,1,.4-.39H173a.35.35,0,0,1,.39.39V180a.36.36,0,0,1-.39.39h-.49a.37.37,0,0,1-.4-.39h0a1.58,1.58,0,0,1-1,.45c-.5,0-.92-.32-.92-1.09Z"/><path d="M177.51,177a.37.37,0,0,1-.4.39h-.49a.37.37,0,0,1-.4-.39v-.8c0-.26-.11-.37-.34-.37s-.33.11-.33.37V180a.37.37,0,0,1-.4.39h-.49a.37.37,0,0,1-.4-.39v-4.76a.36.36,0,0,1,.4-.39h.49a.36.36,0,0,1,.4.39h0a1.54,1.54,0,0,1,1-.44c.5,0,.92.32.92,1.09Z"/><path d="M178.49,174.85v-1.09a.37.37,0,0,1,.4-.4h.49a.36.36,0,0,1,.39.4v1.09h.43a.36.36,0,0,1,.4.39v.18a.37.37,0,0,1-.4.4h-.43v3.23c0,.25.12.37.34.37h.29a.36.36,0,0,1,.39.4V180a.36.36,0,0,1-.39.4h-.29c-1,0-1.62-.41-1.62-1.3v-3.27h-.23a.37.37,0,0,1-.4-.4v-.18a.36.36,0,0,1,.4-.39Z"/></g></g><path id="Path_13500" data-name="Path 13500" d="M193.57,154.21a134,134,0,0,0-47.76,0H135.63v5.57h0c.61,4,15.62,7.21,34,7.21s33.43-3.2,34-7.21h0v-5.57Z" fill="#cadfee"/><path id="Path_13501" data-name="Path 13501" d="M193.57,154.21a134,134,0,0,0-47.76,0H135.63v5.57h0c.61,4,15.62,7.21,34,7.21s33.43-3.2,34-7.21h0v-5.57Z" fill="#8da1af" opacity="0.3" style="isolation:isolate"/><path id="Path_13502" data-name="Path 13502" d="M144.45,160a5.92,5.92,0,0,0-.17,3.31c.68,2.92,3.34,4.8,5.94,4.2a5.14,5.14,0,0,0,3.55-6.11C150.31,161.07,147.16,160.6,144.45,160Z" fill="#2f3087"/><path id="Path_13503" data-name="Path 13503" d="M148.84,161.13l.9.14a1.41,1.41,0,0,1,1,.94c-.82.22-.12,1.75-1.42,1.52a1,1,0,0,0-.74.15c-.51.29-.85,0-1.2-.27s-.09-.59,0-.93C147.67,161.88,148,161.18,148.84,161.13Z" fill="#314261" stroke="#5757a2" stroke-miterlimit="10" stroke-width="0.67"/><ellipse id="Ellipse_1688-2" data-name="Ellipse 1688-2" cx="169.67" cy="154.75" rx="35.74" ry="7.46" fill="#d0e3f0"/><ellipse id="Ellipse_1689-2" data-name="Ellipse 1689-2" cx="169.67" cy="154.75" rx="31.07" ry="6.49" fill="#e5a7c4"/><path id="Path_13504" data-name="Path 13504" d="M185.33,158.62a112.23,112.23,0,0,1-15,.74c-15.27-.65-24.9-3.56-21.5-6.5,2.71-2.35,14.82-3.83,27-3.3,9.78.41,15.94,2.28,13.76,4.15-1.73,1.5-9.48,2.45-17.3,2.12-6.25-.27-10.2-1.46-8.8-2.66,1.11-1,6.07-1.57,11.07-1.35,4,.17,6.53.93,5.64,1.7-.72.61-3.89,1-7.09.86-2.56-.11-4.18-.6-3.61-1.09" fill="none" stroke="#e9b8cf" stroke-linecap="round" stroke-miterlimit="10" stroke-width="0.76"/><path id="Path_13505" data-name="Path 13505" d="M131,132c2.41.09,4.57,2,6.46,3.38A114.61,114.61,0,0,0,153.47,145l5.2,2.72c2.54,1.32,5.06,2.7,7.63,3.9l.43.2a8,8,0,0,0-3.28.92,208.62,208.62,0,0,0-20.75-11.11c-2.35-1.14-4.62-2.16-7-3.15-2.06-.84-4.26-1.65-5.77-3.35C128.59,133.69,128.53,131.89,131,132Z" fill="#adadad"/></g><g id="Group_2558" data-name="Group 2558"><ellipse id="Ellipse_1690-2" data-name="Ellipse 1690-2" cx="105.84" cy="173.55" rx="43.3" ry="9.77" fill="#90bcdb"/><g id="Group_2557" data-name="Group 2557"><circle id="Ellipse_1691-2" data-name="Ellipse 1691-2" cx="110.45" cy="166.63" r="15.61" fill="#ee9cb0"/><ellipse id="Ellipse_1692-2" data-name="Ellipse 1692-2" cx="113.23" cy="172.22" rx="17.84" ry="7.14" transform="translate(-32.15 26.12) rotate(-11.53)" fill="#ee9cb0"/></g><circle id="Ellipse_1693-2" data-name="Ellipse 1693-2" cx="123.14" cy="181.59" r="15.61" fill="#fff1e5"/><circle id="Ellipse_1694-2" data-name="Ellipse 1694-2" cx="90.82" cy="176.06" r="15.61" fill="#6c4f39"/><path id="Path_13506" data-name="Path 13506" d="M107.56,135.75a6.48,6.48,0,0,1,5-7.63,6.57,6.57,0,0,1,2.5,0" fill="none" stroke="#68be63" stroke-linecap="round" stroke-miterlimit="10" stroke-width="1.04"/><circle id="Ellipse_1695-2" data-name="Ellipse 1695-2" cx="108.67" cy="139.39" r="4.16" fill="#d72028"/><ellipse id="Ellipse_1696-2" data-name="Ellipse 1696-2" cx="90.29" cy="181.33" rx="7.14" ry="17.84" transform="translate(-102.24 244.3) rotate(-81.64)" fill="#6c4f39"/><path id="Path_13507" data-name="Path 13507" d="M106.34,183.33c-19,0-35.47-4.1-43.89-10.12a35,35,0,0,0-.45,5.6C62,200.45,81.63,218,105.84,218s43.84-17.55,43.84-39.19a36.2,36.2,0,0,0-.37-5C140.65,179.51,124.65,183.33,106.34,183.33Z" fill="#bed7ea" stroke="#bed7ea" stroke-linecap="round" stroke-linejoin="round" stroke-width="1.04"/><path id="Path_13508" data-name="Path 13508" d="M106.12,181.05c-1.36.4-2.61-1.14-2.65-2.56s.65-2.75,1-4.13.09-3.13-1.17-3.78c-2.14-1.1-6.12,2.64-7.8.46-.87-1.14.54-2.52,1.27-3.28s1.53-2.08.18-2.4a6.46,6.46,0,0,0-3.26.72,30.14,30.14,0,0,0-5.35,3.45c-3.14,2.2-4-.75-2.86-3.36a14.61,14.61,0,0,1,4.68-5.29" fill="none" stroke="#1c1610" stroke-linecap="round" stroke-miterlimit="10" stroke-width="2.08"/><path id="Path_13509" data-name="Path 13509" d="M110,152.65c-3.81.24-5.48,6-6.84,8.84,0-.08,2.77-1.08,3.16-1.39a31.5,31.5,0,0,0,2.79-2.75,9.66,9.66,0,0,1,8.08-2.66,20.55,20.55,0,0,0-5.68,6,11.69,11.69,0,0,0-1.32,4,9.89,9.89,0,0,1-1.62,4c-.11.19,1.28-.2,1.37-.25a11.71,11.71,0,0,0,1.24-1.2c2.38-2.07,5.45-5.26,8.91-4.79a6.34,6.34,0,0,1,4.43,3.13c-1.46.93-3,2.2-4.43,3.27a7.79,7.79,0,0,0-3,5.2c-.1.88.09,2,.91,2.27,1,.37,1.9-.73,2.56-1.58a9.69,9.69,0,0,1,11.63-2.57" fill="none" stroke="#1c1610" stroke-linecap="round" stroke-linejoin="round" stroke-width="2.08"/><path id="Path_13510" data-name="Path 13510" d="M100.21,151.05c.3-.49.78-1,.53-1.56a1.53,1.53,0,0,0-.41-.47c-.86-.79-1-2.62.13-3,.58-.2,1.24.14,1.82-.06,1.81-.63,1.06-4.14,3.68-4a4.3,4.3,0,0,1,1.11.33c1.82.6,2.39-.52,4-.83a3.72,3.72,0,0,1,3.93,2.12,9.51,9.51,0,0,0,.74,1.7,4.57,4.57,0,0,0,2.3,1.34,6.25,6.25,0,0,1,3.31,2.65,3.65,3.65,0,0,1-.35,4.17,3.53,3.53,0,0,1-3.18.76c-1.11-.21-2.15-.72-3.24-1a18.82,18.82,0,0,0-5-.54,12.38,12.38,0,0,0-4.57.47c-1.1.41-3,1.88-4.24,1.32S99.63,152,100.21,151.05Z" fill="#fff1e5"/></g></g></g></g></g></g></g></svg>