<svg xmlns="http://www.w3.org/2000/svg" viewBox="0 0 250 250"><g id="Layer_2" data-name="Layer 2"><g id="Layer_1-2" data-name="Layer 1"><rect id="Base-7" width="250" height="250" rx="13.85" fill="#deb18a"/><path id="Path_3684" data-name="Path 3684" d="M124.89,198.39a151.23,151.23,0,0,0,35.85-3.79c11.31-2.62,22.37-7.48,30.67-15.61,12.66-12.4,17.51-31.67,14-49s-14.76-32.68-29.27-42.87c-14-9.85-32.54-17-49.87-17-16.86,0-35.62,6.75-49.5,16.14-14.68,9.93-26.19,25-30,42.35s.7,36.66,13.14,49.28C68.07,186.12,79,191.17,90.3,194A151.08,151.08,0,0,0,124.89,198.39Zm1.54-128.24v1.27C126.23,70.81,126.21,70.36,126.43,70.15Z" fill="#c05865"/><g id="Group_339" data-name="Group 339"><g id="Group_336" data-name="Group 336"><path id="Path_3685" data-name="Path 3685" d="M174.43,179.79a43.39,43.39,0,0,0,8.11,3c6,1.54,9.42-1.9,13-6.29,11.26-13.7,14-33.37,8.66-50.27s-18.18-30.91-33.7-39.48c-.83-.45-1.83-.52-2.71-.9,4.33,4.75,5.06,12,3.45,18.18s-5.25,11.7-8.84,17-7.29,10.75-9.07,16.93c-3.88,13.51,2.6,28.68,13.73,37.26A42.69,42.69,0,0,0,174.43,179.79Z" fill="#f06f7f"/><g id="Group_335" data-name="Group 335"><circle id="Ellipse_125" data-name="Ellipse 125" cx="180.92" cy="115.09" r="2.12" fill="#f48b93"/><circle id="Ellipse_126" data-name="Ellipse 126" cx="162.05" cy="147.16" r="2.12" fill="#f48b93"/><circle id="Ellipse_127" data-name="Ellipse 127" cx="190.46" cy="142.21" r="2.12" fill="#f48b93"/><circle id="Ellipse_128" data-name="Ellipse 128" cx="167.65" cy="160.66" r="2.12" fill="#f48b93"/><circle id="Ellipse_129" data-name="Ellipse 129" cx="168.42" cy="125.57" r="2.12" fill="#f48b93"/><circle id="Ellipse_130" data-name="Ellipse 130" cx="195.41" cy="161.2" r="2.12" fill="#f48b93"/><circle id="Ellipse_131" data-name="Ellipse 131" cx="180.74" cy="156.17" r="2.12" fill="#f48b93"/><circle id="Ellipse_132" data-name="Ellipse 132" cx="194.17" cy="127.27" r="2.12" fill="#f48b93"/><circle id="Ellipse_133" data-name="Ellipse 133" cx="172.65" cy="138.99" r="2.12" fill="#f48b93"/><circle id="Ellipse_134" data-name="Ellipse 134" cx="177.19" cy="98.95" r="2.12" fill="#f48b93"/><circle id="Ellipse_135" data-name="Ellipse 135" cx="182.64" cy="175.27" r="2.12" fill="#f48b93"/></g></g><g id="Group_338" data-name="Group 338"><path id="Path_3686" data-name="Path 3686" d="M77.54,179.79a43.39,43.39,0,0,1-8.11,3c-5.94,1.54-9.41-1.9-13-6.29-11.26-13.7-14-33.37-8.66-50.27S65.93,95.32,81.45,86.75c.82-.45,1.82-.52,2.7-.9-4.33,4.75-5.06,12-3.44,18.18s5.24,11.7,8.84,17,7.29,10.75,9.06,16.93c3.88,13.51-2.59,28.68-13.73,37.26A42.31,42.31,0,0,1,77.54,179.79Z" fill="#f06f7f"/><g id="Group_337" data-name="Group 337"><circle id="Ellipse_136" data-name="Ellipse 136" cx="71.04" cy="115.09" r="2.12" fill="#f48b93"/><circle id="Ellipse_137" data-name="Ellipse 137" cx="89.92" cy="147.16" r="2.12" fill="#f48b93"/><circle id="Ellipse_138" data-name="Ellipse 138" cx="61.5" cy="142.21" r="2.12" fill="#f48b93"/><circle id="Ellipse_139" data-name="Ellipse 139" cx="84.32" cy="160.66" r="2.12" fill="#f48b93"/><circle id="Ellipse_140" data-name="Ellipse 140" cx="83.55" cy="125.57" r="2.12" fill="#f48b93"/><circle id="Ellipse_141" data-name="Ellipse 141" cx="56.56" cy="161.2" r="2.12" fill="#f48b93"/><circle id="Ellipse_142" data-name="Ellipse 142" cx="71.23" cy="156.17" r="2.12" fill="#f48b93"/><circle id="Ellipse_143" data-name="Ellipse 143" cx="57.8" cy="127.27" r="2.12" fill="#f48b93"/><circle id="Ellipse_144" data-name="Ellipse 144" cx="79.32" cy="138.99" r="2.12" fill="#f48b93"/><circle id="Ellipse_145" data-name="Ellipse 145" cx="74.77" cy="98.95" r="2.12" fill="#f48b93"/><circle id="Ellipse_146" data-name="Ellipse 146" cx="69.33" cy="175.27" r="2.12" fill="#f48b93"/></g></g></g><path id="Path_3687" data-name="Path 3687" d="M67.06,194.54c.25,0,.5,0,.74,0,3,.17,6,0,9,0h93.81c8.26,0,14.94.48,22.41,2.36,6.48,1.64,12.15,1.62,17.86-2.57s9.45-10.93,12.55-17.48c6.61-14,11.82-29.24,10.65-44.69-.73-9.71-4-19.07-8-27.92C215.54,81.39,198.88,61,177.19,48.16s-48.54-17.5-72.73-10.47c-25.31,7.36-45.47,26.3-63,46C30,96.58,18.72,111,16.45,128.15s4.88,34.13,11.88,50c2.92,6.6,6.34,13.75,12.9,16.77a17.09,17.09,0,0,0,4.1,1.26C52.51,197.52,60.4,194.43,67.06,194.54Zm-6.12-75.36.16-.23c11.08-15.87,22.77-33.19,43.37-37C112.86,80.38,122.28,84,118,94c-1.49,3.52-4.13,6.42-6,9.78s-2.72,7.68-.63,10.88,6.9,4.12,10.46,2.51,6-5.13,7.11-8.86,1.23-7.69,1.29-11.59c.4-25.78,27.74-13.93,40.8-4.41a66.82,66.82,0,0,1,23.75,32.42c3.71,11,9.77,63.11-12.7,58.39-8.19-1.72-11.55-8.85-20.19-7.88-9.73,1.08-19.36.9-29.12.9h-.4c-12.46,0-24.93.07-37.4.3-5.12.1-10.26-.34-15,1.62-3.67,1.51-6,4.79-10.26,5.72-3.74.82-8.15-.15-10.3-3.33a14.48,14.48,0,0,1-1.88-5.64c-3.32-17.9-7.75-39.32,3.33-55.64Z" fill="#f48594"/><path id="Path_3688" data-name="Path 3688" d="M202.55,87.81a22.15,22.15,0,0,1-5.49-.81,14,14,0,0,1-7.48-5.6c-.51-.77-3.46-6.36-1.53-6.89A29.85,29.85,0,0,1,178.68,76c-3.17-.17-6.43-1.48-8.22-4.1-2.08-3.06-1.76-7.09-1.35-10.76a33,33,0,0,1-.63,8.29,11.17,11.17,0,0,1-4.43,6.82c-2.6,1.69-5.87,1.79-9,1.85l-10.37.17c-4.7.08-10-.06-13.26-3.39-3.7-3.74-3.89-10.36-3.25-15.58.46,3.9.36,8-1.3,11.55-3.31,7.12-11.31,7.1-18.15,6.87-3.53-.12-7.4-.06-10.88-.5A14.86,14.86,0,0,1,88.51,72c-2.52-3-2-7.31-3-10.88,1.69,5.42-1,12.11-6,14.6-4.2,2.07-14,1.56-15.37-4.45,2.19,9.5-8.77,19.2-17.93,15.87a8.48,8.48,0,0,0-2.7-.28c-.18-5.58,3.78-10.38,7.83-14.22,19.1-18.14,45.35-28.09,71.68-29s52.63,6.94,75.2,20.54a35,35,0,0,1,9.11,7.17c3.12,3.75,4.39,8.45,2.84,13.07a5,5,0,0,1-2.43,3,7.54,7.54,0,0,1-3.49.44Z" fill="#fff"/><path id="Path_3689" data-name="Path 3689" d="M58.14,49.4A154.08,154.08,0,0,1,77.63,30.84c7.1-5.48,16-9.17,24.94-8.34,8.06.75,15.55,5.08,23.65,5.3S142.14,24,150.3,23.49c13.35-.9,25.5,7.42,35.48,16.35C205.72,57.67,222,79.45,234.59,103c7.37,13.75,9.85,31,4.71,45.88-4.75,13.71-10.07,27.25-14.76,41-1.54,4.54-7.33,9.52-9.61,3.2-1.54-4.25,4.83-17,6.11-21.4,4.19-14.45,8.12-29.41,7.18-44.6-.85-13.78-13.19-31.64-22.59-41.36-14.44-15-29.83-29.19-51.46-32.26-9.3-1.31-17.73,2.29-26.7,1.66-11.62-.81-19-2.95-30.46,0-9.52,2.43-18.89,5.32-26.83,11.32C53.55,79.06,36.16,94,25.79,112.73c-8.32,15-6.88,30.38-2,46.2,2.14,6.87,4.31,13.73,7.72,19.83.86,1.55,8.13,24.49,4,24.41l-3.91-.06c-7.07-17.9-14.44-35.73-20.48-53.9-3.52-10.6-4.71-19.37-.47-29.77a187,187,0,0,1,30-49.59C46.12,63.37,52,56.24,58.14,49.4Z" fill="#f8b3bb"/><path d="M43.11,250H215.6a102.72,102.72,0,0,0,5.09-11.5c5.59-14.84,13.37-34.37,6.63-49.83-6.25-14.31-17.62-19.85-31-25.36s-26.67-7.81-41.32-5.62c-12.69,1.9-25.24,6.58-38,5.2-8.22-.89-16-4.26-24.24-5.21-10.89-1.27-23.9,2.32-35.4,7.8a96.36,96.36,0,0,0-17.86,10.93c-20,15.74-9.74,39.07-2.91,58.4A118.68,118.68,0,0,0,43.11,250Z" fill="#f48b93"/></g></g></svg>