<svg xmlns="http://www.w3.org/2000/svg" xmlns:xlink="http://www.w3.org/1999/xlink" viewBox="0 0 250 250"><defs><clipPath id="clip-path"><ellipse cx="187.5" cy="55.23" rx="33.82" ry="33.92" fill="none"/></clipPath></defs><g id="Layer_2" data-name="Layer 2"><g id="Layer_1-2" data-name="Layer 1"><rect id="Base-10" width="250" height="250" rx="13.85" fill="#c4b1d6"/><path d="M0,236.15A13.86,13.86,0,0,0,13.77,250H236.23A13.84,13.84,0,0,0,250,236.25V226.7a5.29,5.29,0,0,0-5.44-5.09H0Z" fill="#3574a2"/><g id="Group_2140" data-name="Group 2140"><g id="Group_2136" data-name="Group 2136"><path id="Path_11585" data-name="Path 11585" d="M140.47,187.77c-1.18-4.61-2.27-9.71,1.43-13.47,1.43-1.45,3.34-.91,5-1.81,1-.53,2.15-1.53,2.43.24a11.88,11.88,0,0,0,.18,1.46,1.12,1.12,0,0,0,1,.88,1.08,1.08,0,0,0,.85-1.14,5.38,5.38,0,0,0-.38-1.52c-.9-3.06,3-.81,4.37-.94a3.62,3.62,0,0,0,2.4-1.13c.45-.6.38-1.44.65-2.12a2.52,2.52,0,0,1,1.79-1.73c2.53-.34,4.39,2.1,6.6,3a9.11,9.11,0,0,0,5.9.11c2-.58,3.76-1.91,5.88-2.31,4.57-.88,8.51.1,11.45,3.77,1.6,2,1.95,4.22,2.44,6.6a53.89,53.89,0,0,1,1.42,8.07,39.8,39.8,0,0,1-1.8,14.5c-1.73,5.3-2.6,10.25-6.71,14.37A18.66,18.66,0,0,1,172.65,220c-4.53.15-8.32-1.52-12.84-2.71a36.27,36.27,0,0,0-14.4-1.11c-3.18.45-6.63,1.16-9.35,3a7.75,7.75,0,0,1-2.8,1.46c-3.81.64-4.84-6.33-6.68-8.31a46.76,46.76,0,0,1-4.77-5.73c-1.88-2.77-3.56-5.65-3.38-9,.2-3.72,3.24-8.09,7.23-6.85,3.58,1.11,7.2,6,11.3,4.36A6.19,6.19,0,0,0,140.47,187.77Z" fill="#a46c35"/></g><g id="Group_2137" data-name="Group 2137"><path id="Path_11586" data-name="Path 11586" d="M156.86,217.06a10.63,10.63,0,0,1,4.33,3c1.33,1.45,2.6,3.3,4.44,4.22a28.34,28.34,0,0,0,5.64,2.1c6.21,1.66,12.17,2.52,18.55,1.24a27.26,27.26,0,0,0,8.64-3.47c2-1.15,3.89-3.88,6.42-4.25,1-.15,1.7.75,2.66.89,0,0,1.15-2.38,1.26-2.73a8.71,8.71,0,0,0,.48-4.17,9.85,9.85,0,0,0-1.92-4c-1-1.55-.21-1.53,1.13-2.7,2.14-1.87,4.6-3.64,5.25-6.91.52-2.61.19-6.89-2.52-8.42a8.39,8.39,0,0,1,0,3,1.75,1.75,0,0,1-2.14,1.26,1.13,1.13,0,0,1-.24-.08,1.63,1.63,0,0,1-.71-1.77c.41-3.11,1.56-6.19.85-9.34A33.67,33.67,0,0,0,203.89,173c-1.18-1.74-2.69-3.22-3.68-5.16a7.68,7.68,0,0,1-.64-6.06c-.32.4-1.21.59-1.57.85a4.54,4.54,0,0,0-1.58,2.33c-.31.89.2,2-.69,2.57-2.79,1.82-4.26-2.27-4.44-4.56-.54.21-2.27.92-2.57,1.12a9.14,9.14,0,0,0-2.59,2.33,8.47,8.47,0,0,0-2,5.9c.39,3.58,2.44,6.53,3.45,9.86.94,3.08,1.6,6.26.25,9.23-1.81,4-6,5.9-7.93,9.77-1.18,2.35-.82,4.84-1,7.41-.34,4.07-1.93,8.09-5.85,9.89-4.57,2.1-9.07.38-13.52-1.15a6.66,6.66,0,0,0-3.73-.61A11.35,11.35,0,0,1,156.86,217.06Z" fill="#0f0a0a" stroke="#0f0a0a" stroke-linecap="round" stroke-linejoin="round" stroke-width="0.52"/></g><path id="Path_11587" data-name="Path 11587" d="M160.48,168.57c-.06,0-.17,0-.34,0-.56.27-.73,1.4-.84,1.93s-.08.78-.48,1.14a16.18,16.18,0,0,0,1.2-1.56C160.19,169.88,160.73,168.77,160.48,168.57Z" fill="#7b5227" stroke="#7b5227" stroke-linecap="round" stroke-linejoin="round" stroke-width="0.39"/><path id="Path_11588" data-name="Path 11588" d="M174.8,183.49a11.43,11.43,0,0,0,1.5-3.69,11.07,11.07,0,0,0,.13-2.44,7.17,7.17,0,0,0-.08-1c-.12-.6-.51-.6-.52,0C175.77,178.74,176.18,181.27,174.8,183.49Z" fill="#7b5227" stroke="#7b5227" stroke-linecap="round" stroke-linejoin="round" stroke-width="0.14"/><path id="Path_11589" data-name="Path 11589" d="M171.62,173.19c-.05.16-.2.14-.08.25,1.25,1.14,3.48,1,4.9.3a7.33,7.33,0,0,1-3.23,0,3.92,3.92,0,0,0-1.73-.49C171.38,173.36,171.45,173.22,171.62,173.19Z" fill="#7b5227" stroke="#7b5227" stroke-linecap="round" stroke-linejoin="round" stroke-width="0.13"/><path id="Path_11590" data-name="Path 11590" d="M174.86,203.5c2.21.59,2.8,3.08,2.52,5.09a5.92,5.92,0,0,1-4.2,4.65,7.68,7.68,0,0,1-6.31-1.13,11,11,0,0,1-4-5.19c-.42-1.08-.54-3,1.05-3.12" fill="none" stroke="#7b5227" stroke-linecap="round" stroke-miterlimit="10" stroke-width="0.61"/><path id="Path_11591" data-name="Path 11591" d="M178.22,176.05a18.54,18.54,0,0,1,.54,6.21,13.4,13.4,0,0,1-.4,2.08c-.08.33-.66,1.16-.28,1.42.59.4,1.4-.86,1.7-1.22a8.62,8.62,0,0,0,2-4.43,17.75,17.75,0,0,0,0-4.37c-.22-1.74-.85-6.82-3.65-6.21-1.25.27-1.48,1.63-1.13,2.67.26.79.47,1.62.74,2.42C178,175.09,178.11,175.57,178.22,176.05Z" fill="#0f0a0a" stroke="#0f0a0a" stroke-miterlimit="10" stroke-width="0.13"/><g id="Group_2138" data-name="Group 2138"><path id="Path_11592" data-name="Path 11592" d="M176.19,207.13a1.92,1.92,0,0,0-.48-1.35c-.2-.16-.57-.22-.68.08s.11.67.16,1a4,4,0,0,1-.48,2.69,2.89,2.89,0,0,1-1.12,1.1c-.53.28-1.12.28-1.63.6a.41.41,0,0,0-.22.23c-.08.26.31.29.47.28a4.45,4.45,0,0,0,3.19-1.83A4.32,4.32,0,0,0,176.19,207.13Z" fill="#7b5227" stroke="#7b5227" stroke-miterlimit="10" stroke-width="0.13"/></g><g id="Group_2139" data-name="Group 2139"><path id="Path_11593" data-name="Path 11593" d="M147.54,173a2.09,2.09,0,0,1,.14-1.08,1.07,1.07,0,0,1,1.34-.59,1.32,1.32,0,0,1,.76.65,6.91,6.91,0,0,1,.6,1.76.72.72,0,0,0,.09.2.16.16,0,0,0,.18.07c.16-.07.14-.65.14-.79a7.9,7.9,0,0,1,.07-1.46,1.26,1.26,0,0,1,1.33-1.17,1.08,1.08,0,0,1,.31.07c1,.21,1.14,1.3,1.13,2.18a10,10,0,0,1-.5,2.76,16.93,16.93,0,0,0-.84,4.68,4,4,0,0,0-1.4-2.15C149.45,176.76,147.78,175,147.54,173Z" fill="#b35537" stroke="#7b5227" stroke-linecap="round" stroke-linejoin="round" stroke-width="0.31"/></g><path id="Path_11594" data-name="Path 11594" d="M172.91,184.47a4,4,0,0,0-.6-3.39,12.12,12.12,0,0,1-1.64-3.15c-.4-1.7.34-3.44,1.06-5a3.93,3.93,0,0,0-2.55,3.7,7.36,7.36,0,0,0,1.82,3.94A7.69,7.69,0,0,1,172.91,184.47Z" fill="#0f0a0a" stroke="#0f0a0a" stroke-miterlimit="10" stroke-width="0.13"/><path id="Path_11595" data-name="Path 11595" d="M160.06,174a1.07,1.07,0,0,0,1,.94,1.6,1.6,0,0,0,1.1-.33,4.32,4.32,0,0,0,.78-.82,2.13,2.13,0,0,1-1.43.66A2.28,2.28,0,0,1,160.06,174Z" fill="#7b5227" stroke="#7b5227" stroke-linecap="round" stroke-linejoin="round" stroke-width="0.13"/><path id="Path_11596" data-name="Path 11596" d="M140.88,189.1l1.85,3.3a36.77,36.77,0,0,0,2.24,3.65,17,17,0,0,0,2.63,3,35.63,35.63,0,0,1-3.4-3.33,18.17,18.17,0,0,1-2.46-4.16c-.17-.4-.33-.82-.47-1.23A9.32,9.32,0,0,0,140.88,189.1Z" fill="#7b5227" stroke="#7b5227" stroke-linecap="round" stroke-linejoin="round" stroke-width="0.14"/></g><path id="Path_11597" data-name="Path 11597" d="M205.65,204.2c-3.82.8-7.52,2-11.28,3-13,3.46-26,1.71-39.16,3.55-4.44.62-8.26,1.26-12.34,3.34-2.31,1.18-9.48,3.57-8.54,7,.71,2.58,4.34,4.22,6.56,5.2,1.72.76,3.62,1.94,5.47,2.28a49.61,49.61,0,0,0,6.22.21q6.34.25,12.71.36,12.72.22,25.44-.14t25.44-1.32c4-.33,8-.6,11.52-2.58,3.84-2.14,6-5.41,8.5-8.89a4.65,4.65,0,0,0,1.24-3.08,4.37,4.37,0,0,0-2.12-2.74,52.94,52.94,0,0,0-12.43-6.21c-5.43-2-10.37-1.39-16-.19Z" fill="#edf4f9"/><g id="Group_2144" data-name="Group 2144"><path id="Path_11598" data-name="Path 11598" d="M120.32,186.14a17.65,17.65,0,0,1,4.83,2.7c1.29,1.1,1.78,1.63,2,3.28a13.12,13.12,0,0,0,1.36,4.5c1.8,3.52,5.3,5.43,7.33,8.68a16.82,16.82,0,0,1,2.5,11.19,14.22,14.22,0,0,1-6.54,10c-4,2.41-8.86,2.6-13.5,2.72-2.7.07-5.34.18-8,0a47,47,0,0,0-5.93-.07,18.11,18.11,0,0,0-3.11.47c-.88.21-1.89.84-2.79.71-1.46-.2-1.92-1.24-2.6-2.32a13.32,13.32,0,0,1-1.76-4.1,55.6,55.6,0,0,1-1.51-14.08,15.51,15.51,0,0,1,1-4.23c.5-1.76.93-3.55,1.4-5.33l2.8-10.67c.8-3.07,1.68-6.28,3.85-8.6,1.19-1.26,2-1,3.25-.36a37.16,37.16,0,0,0,5.25,1.65Q115.29,184,120.32,186.14Z" fill="#bed7ea"/><path id="Path_11599" data-name="Path 11599" d="M94,204.49a21.16,21.16,0,0,0,5.21,1.3c4.31.31,8.15-2.6,11.79-4.5" fill="none" stroke="#cadfee" stroke-miterlimit="10" stroke-width="0.61"/><path id="Path_11600" data-name="Path 11600" d="M131.89,201.43a9.49,9.49,0,0,0-6.73-2.24" fill="none" stroke="#cadfee" stroke-miterlimit="10" stroke-width="0.61"/><path id="Path_11601" data-name="Path 11601" d="M122,186.91a11.19,11.19,0,0,1,3.15,1.92c1.29,1.11,1.78,1.64,2,3.29a13.12,13.12,0,0,0,1.36,4.5,11,11,0,0,0,1.82,2.5l1.2,1.32a7.18,7.18,0,0,1,.65.7,3.13,3.13,0,0,0-1-.71c-1.06-.63-2.09-1.31-3.12-2a10.07,10.07,0,0,1-2.6-2.13c-1.91-2.37-2.87-6.5-3.45-9.42Z" fill="#a6cae1"/><path id="Path_11602" data-name="Path 11602" d="M135.39,205.37c-3.8,8.23-13.16,11.43-21.28,13.32a53.05,53.05,0,0,1-19.85.85" fill="none" stroke="#cadfee" stroke-linecap="round" stroke-miterlimit="10" stroke-width="0.61"/><g id="Group_2143" data-name="Group 2143"><g id="Group_2141" data-name="Group 2141"><circle id="Ellipse_1578" data-name="Ellipse 1578" cx="133.63" cy="212.97" r="1.76" fill="none" stroke="#b0bfc8" stroke-miterlimit="10" stroke-width="0.51"/><circle id="Ellipse_1579" data-name="Ellipse 1579" cx="133.63" cy="212.97" r="1.76" fill="none" stroke="#dfe5e9" stroke-miterlimit="10" stroke-width="0.26"/></g><g id="Group_2142" data-name="Group 2142"><circle id="Ellipse_1580" data-name="Ellipse 1580" cx="118.67" cy="220.68" r="1.76" fill="none" stroke="#b0bfc8" stroke-miterlimit="10" stroke-width="0.51"/><circle id="Ellipse_1581" data-name="Ellipse 1581" cx="118.67" cy="220.68" r="1.76" fill="none" stroke="#dfe5e9" stroke-miterlimit="10" stroke-width="0.26"/><circle id="Ellipse_1582" data-name="Ellipse 1582" cx="98.3" cy="223.03" r="1.76" fill="none" stroke="#b0bfc8" stroke-miterlimit="10" stroke-width="0.51"/><circle id="Ellipse_1583" data-name="Ellipse 1583" cx="98.3" cy="223.03" r="1.76" fill="none" stroke="#dfe5e9" stroke-miterlimit="10" stroke-width="0.26"/></g></g></g><rect id="Rectangle_320" data-name="Rectangle 320" x="30" y="161.27" width="220" height="88.73" fill="none"/><g id="Group_2151" data-name="Group 2151"><ellipse id="Ellipse_1585" data-name="Ellipse 1585" cx="216.44" cy="119.34" rx="8.11" ry="8.13" fill="#ab90c3"/><ellipse id="Ellipse_1586" data-name="Ellipse 1586" cx="221.09" cy="116.84" rx="8.51" ry="8.54" fill="#ab90c3"/><ellipse id="Ellipse_1587" data-name="Ellipse 1587" cx="222.46" cy="120.45" rx="7.87" ry="7.89" fill="#ab90c3"/></g><g id="Group_2152" data-name="Group 2152"><ellipse id="Ellipse_1588" data-name="Ellipse 1588" cx="209.77" cy="144.7" rx="6.35" ry="6.47" fill="#ab90c3"/><ellipse id="Ellipse_1589" data-name="Ellipse 1589" cx="207.4" cy="142.28" rx="5.41" ry="5.51" fill="#ab90c3"/><ellipse id="Ellipse_1590" data-name="Ellipse 1590" cx="206.2" cy="145.82" rx="5.31" ry="5.41" fill="#ab90c3"/><ellipse id="Ellipse_1591" data-name="Ellipse 1591" cx="204.29" cy="143.28" rx="4.16" ry="4.24" fill="#ab90c3"/></g><g id="Group_2167" data-name="Group 2167"><g id="Group_2153" data-name="Group 2153"><ellipse id="Ellipse_1592" data-name="Ellipse 1592" cx="201.26" cy="69.9" rx="27.71" ry="29.13" fill="#ab90c3"/><ellipse id="Ellipse_1593" data-name="Ellipse 1593" cx="156.87" cy="51.12" rx="19.37" ry="20.36" fill="#ab90c3"/><ellipse id="Ellipse_1594" data-name="Ellipse 1594" cx="199.18" cy="49.47" rx="28.19" ry="29.64" fill="#ab90c3"/><ellipse id="Ellipse_1595" data-name="Ellipse 1595" cx="178.35" cy="51.12" rx="32.49" ry="34.16" fill="#ab90c3"/><ellipse id="Ellipse_1596" data-name="Ellipse 1596" cx="210.65" cy="58.85" rx="26.85" ry="26.85" fill="#ab90c3"/><ellipse id="Ellipse_1597" data-name="Ellipse 1597" cx="160.3" cy="67.22" rx="20.44" ry="20.08" fill="#ab90c3"/><ellipse id="Ellipse_1598" data-name="Ellipse 1598" cx="181.54" cy="75" rx="27.33" ry="24.74" fill="#ab90c3"/></g><g id="Group_2166" data-name="Group 2166"><ellipse id="Ellipse_1599" data-name="Ellipse 1599" cx="187.5" cy="57.68" rx="27.06" ry="27.13" fill="#2c3032"/><g id="Group_2163" data-name="Group 2163"><g clip-path="url(#clip-path)"><g id="Group_2162" data-name="Group 2162"><path id="Path_11619" data-name="Path 11619" d="M198.91,78s0,2.46,0,2.66a12.64,12.64,0,0,0,.55,2.93,11.3,11.3,0,0,0,.82,1.93,3.43,3.43,0,0,0,2.08,1.9c.58.14,1.18.14,1.75.32a1.6,1.6,0,0,1,1.17,1.93,1.5,1.5,0,0,1-.27.57c-.57.7-1.57,1.15-2.24,1.83-.86.87-1.91,1.51-2.84,2.31a19,19,0,0,1-11.12,4.47A20.63,20.63,0,0,1,179.08,97a46.4,46.4,0,0,1-4.39-2.64,44.83,44.83,0,0,0-4.76-2.12c-.75-.33-1.59-.76-1.79-1.55-.25-1,.63-1.89,1.57-2.2s2-.25,2.94-.48c4.24-1,4.87-5.54,3.95-9.21a2,2,0,0,0-.39-.78c1.32.25,2.61.59,3.92.84,1,.19,2,.38,3.07.48C188.33,79.85,193.77,78.43,198.91,78Z" fill="#a46c35"/><path id="Path_11620" data-name="Path 11620" d="M176.28,78.48c2.16,1.9,4.59,3.43,6.83,5.25A9.32,9.32,0,0,0,188,85.56a7.79,7.79,0,0,0,4.13-1.14,24.43,24.43,0,0,0,3.52-2.63,17.31,17.31,0,0,0,3.25-3" fill="#7b5227"/><path id="Path_11621" data-name="Path 11621" d="M169.34,70.42a16.13,16.13,0,0,0,4.76,6.32,83.42,83.42,0,0,0,9.79,7,9.65,9.65,0,0,0,5.1,1.37c2-.12,3.75-1.4,5.36-2.63l3-2.31a29.27,29.27,0,0,0,6.09-5.67,14.83,14.83,0,0,0,2.75-10.17c-.22-2.15-.92-4.29-.53-6.42a13.1,13.1,0,0,0,.54-3.05c-.16-2.12-2.29-3.48-4.23-4.33a41.29,41.29,0,0,0-8.4-2.68,31.41,31.41,0,0,0-7.1-.72,42.31,42.31,0,0,0-4.9.47c-1.93.27-3.75.94-5.64,1.21a11.15,11.15,0,0,0-5,2.6A4.7,4.7,0,0,0,169,54a4.72,4.72,0,0,0,.29,2.14,8.49,8.49,0,0,1,.65,3.18,29.69,29.69,0,0,1-.72,3A15.37,15.37,0,0,0,169.34,70.42Z" fill="#a46c35"/><path id="Path_11622" data-name="Path 11622" d="M167.22,58.29a3.5,3.5,0,0,0-2.4,1.3c-.84,1.17-.83,3.81-.34,5.15a4.56,4.56,0,0,0,.79,1.28,5.91,5.91,0,0,0,4,2.51,15,15,0,0,1,.42-7.63C170.4,58.89,168.83,58.1,167.22,58.29Z" fill="#a46c35"/><path id="Path_11623" data-name="Path 11623" d="M208.18,58.88a3.5,3.5,0,0,1,2.36,1.37c.81,1.2.73,3.84.2,5.16a4.83,4.83,0,0,1-.83,1.26,8.32,8.32,0,0,1-2.65,2.06,4.15,4.15,0,0,1-1.19.55,5.71,5.71,0,0,1-1.09-.23c1-.78,1.08-2.22,1.07-3.48C206,63.3,204.06,58.26,208.18,58.88Z" fill="#a46c35"/><path id="Path_11624" data-name="Path 11624" d="M170.14,59.06a7.31,7.31,0,0,0,.41-3c-.09-.75-.86-1.78-.62-2.38.38-1,2.3-1.9,3.19-2.38a16.22,16.22,0,0,1,4.54-1.53,10.81,10.81,0,0,1,3.4-.24,14.53,14.53,0,0,1,5.18,2l2.91,1.61a2.39,2.39,0,0,0,1.55.44c.92-.19,1.27-1.37,1.11-2.3a13.13,13.13,0,0,1-.56-2.76q3.88,2.65,7.9,5.14a6.94,6.94,0,0,0,3.67,1.15,3.08,3.08,0,0,0,1.8-.57c.29-.22,1-1.13,1.35-.53a1,1,0,0,1,.09.49,16.18,16.18,0,0,1-.86,4.29,3.26,3.26,0,0,0-.11,1.55c.09.36.81.88.83,1.06-.29-2.69,2.54-4.25,3.24-6.84a13.23,13.23,0,0,0,.17-5.67,8.24,8.24,0,0,1-.22-2.1,2.19,2.19,0,0,1,1-1.77c.16-.09.34-.16.41-.33a.58.58,0,0,0-.07-.46,6.46,6.46,0,0,0-4-3.22,19,19,0,0,0-5.26-.62,5.37,5.37,0,0,0,2.2-5.75c-1.1,1.52-3.29,1.54-5.16,1.6a29.07,29.07,0,0,0-9.78,2,6.72,6.72,0,0,1-3.11.74.73.73,0,0,1-.4-.15.78.78,0,0,1-.18-.57l-.08-1.9a9.36,9.36,0,0,0-7.81,3.22,4.32,4.32,0,0,0-4-3.69,5.23,5.23,0,0,1,.7,3.91,4.07,4.07,0,0,0-3.58.53,10.69,10.69,0,0,0-2.57,2.54,14.91,14.91,0,0,0-2.56,4.15,13.88,13.88,0,0,0-.55,2.29,11.29,11.29,0,0,0,.19,6.18c.45,1.1,1.25,1.92,1.73,3a.26.26,0,0,0,.28.18,5.88,5.88,0,0,1,2.21.15,1.87,1.87,0,0,1,.69.62,1.48,1.48,0,0,1,.25.44,1.76,1.76,0,0,1,0,.31.78.78,0,0,0,.07.31,2.59,2.59,0,0,0,.17-.38C170,59.78,170.1,59.21,170.14,59.06Z" fill="#0f0a0a" stroke="#000" stroke-linecap="round" stroke-linejoin="round" stroke-width="0.07"/><g id="Group_2154" data-name="Group 2154"><path id="Path_11625" data-name="Path 11625" d="M167.67,59.13a1,1,0,0,1,.72.24c.09.11.12.29,0,.35s-.35,0-.5-.07a2.09,2.09,0,0,0-1.4.28,1.5,1.5,0,0,0-.57.6c-.14.28-.14.59-.3.86a.18.18,0,0,1-.12.12c-.13,0-.15-.16-.15-.24a2.3,2.3,0,0,1,.93-1.69A2.24,2.24,0,0,1,167.67,59.13Z" fill="#7b5227" stroke="#7b5227" stroke-miterlimit="10" stroke-width="0.05"/></g><path id="Path_11626" data-name="Path 11626" d="M191.74,68.78a1.33,1.33,0,0,0-.06-.79,2.22,2.22,0,0,0-.25-.42c-.09-.17-.08-.43.12-.26a1.52,1.52,0,0,1,.39.61,1.38,1.38,0,0,1-.14,1.53,1.7,1.7,0,0,1-1.12.5c-.44,0-.88-.08-1.3,0l-1.24.26a2.94,2.94,0,0,1-.51.05,3.64,3.64,0,0,1-1-.13c-.2-.06-.43-.07-.64-.11a6.77,6.77,0,0,0-1.1-.15,1.84,1.84,0,0,1-1.13-.34,1.45,1.45,0,0,1-.5-1,2.1,2.1,0,0,1,.14-.9.59.59,0,0,1,.28-.32c.2-.1.3,0,.14.17a1.13,1.13,0,0,0-.21.35,2.13,2.13,0,0,0-.08.71,1,1,0,0,0,.18.62.82.82,0,0,0,.84.12,2,2,0,0,1,1.4.12c.46.2.82.61,1.32.65a1.79,1.79,0,0,0,1.32-.22,1.73,1.73,0,0,1,.72-.44,2.12,2.12,0,0,1,1.06-.07c.38.09.8.25,1.12-.07A.91.91,0,0,0,191.74,68.78Z" fill="#7b5227" stroke="#7b5227" stroke-linecap="round" stroke-linejoin="round" stroke-width="0.08"/><path id="Path_11627" data-name="Path 11627" d="M186.1,62a7.27,7.27,0,0,1-.48,2.17c-.11.28-.39.31-.29,0s.2-.54.26-.82a6.5,6.5,0,0,0-.21-3.44,9.43,9.43,0,0,0-.72-1.37c-.07-.13-.17-.3,0-.39.52-.28,1,1.26,1.14,1.55A6.39,6.39,0,0,1,186.1,62Z" fill="#7b5227"/><path id="Path_11628" data-name="Path 11628" d="M189.55,67.37a.09.09,0,0,1,0,.07.21.21,0,0,1-.2.06c-.12,0-.2-.13-.28-.19l-.31-.19a2.25,2.25,0,0,0-.67-.2,2.59,2.59,0,0,0-1.38.17,2.13,2.13,0,0,0-.44.26c-.11.1-.2.22-.32.31a.25.25,0,0,1-.23.07.15.15,0,0,1-.14-.17c0-.11.26-.24.36-.31a3.1,3.1,0,0,1,.5-.29,2.83,2.83,0,0,1,1.11-.31,3.1,3.1,0,0,1,1.24.23C188.89,66.94,189.57,67.15,189.55,67.37Z" fill="#7b5227" stroke="#7b5227" stroke-linecap="round" stroke-linejoin="round" stroke-width="0.08"/><g id="Group_2155" data-name="Group 2155"><path id="Path_11629" data-name="Path 11629" d="M207.71,59.71a1,1,0,0,0-.72.22c-.09.1-.13.29,0,.35s.36,0,.5-.06a2.15,2.15,0,0,1,1.4.32,1.56,1.56,0,0,1,.55.62c.13.28.12.59.27.87a.2.2,0,0,0,.12.12c.13.05.16-.16.15-.24a2.29,2.29,0,0,0-2.29-2.2Z" fill="#7b5227" stroke="#7b5227" stroke-miterlimit="10" stroke-width="0.05"/></g><path id="Path_11630" data-name="Path 11630" d="M184.27,75a17.33,17.33,0,0,0,1.65-.74,2.74,2.74,0,0,1,1.76-.24c.17,0,.34.11.51.15a3.64,3.64,0,0,0,1.35-.18c1.69-.32,3.44.58,5.13.23-.47,0-.78.44-1,.81a6.88,6.88,0,0,1-6.14,2.56A15,15,0,0,1,182.57,76c-.38-.17-2.56-1.11-1.16-.95A6.73,6.73,0,0,0,184.27,75Z" fill="#b35537"/><path id="Path_11631" data-name="Path 11631" d="M192.26,74.27a11.81,11.81,0,0,0,2.06,0c-.58.4-.7,1-1.18,1.51a6.61,6.61,0,0,1-1.66,1.16,7.53,7.53,0,0,1-3.88.7,15,15,0,0,1-4.93-1.59c-.38-.17-2.55-1.11-1.15-1a6.73,6.73,0,0,0,2.86,0,16.11,16.11,0,0,0,1.64-.74,2.78,2.78,0,0,1,1.77-.24c.17,0,.33.11.5.15a3.62,3.62,0,0,0,1.35-.18A7.48,7.48,0,0,1,192.26,74.27Z" fill="none" stroke="#7b5227" stroke-linecap="round" stroke-miterlimit="10" stroke-width="0.42"/><path id="Path_11632" data-name="Path 11632" d="M194.14,74.45a5.38,5.38,0,0,1-2.16,1,19.36,19.36,0,0,1-2.83.54,10.35,10.35,0,0,1-4,0c.37,0,.76,0,1.13,0s.73-.09,1.1-.13c.76-.09,1.52-.18,2.28-.32a20.23,20.23,0,0,0,2-.5c.3-.08.6-.18.9-.28l1-.31c.15,0,.63-.31.77-.24A1.79,1.79,0,0,1,194.14,74.45Z" fill="#7b5227"/><path id="Path_11633" data-name="Path 11633" d="M195.83,54.88a13.67,13.67,0,0,1,2,.19,8.15,8.15,0,0,1,3.31,1.13,4.41,4.41,0,0,1,.49.36c.28.23.52.5.77.75s.53.63.07.68a.7.7,0,0,1-.39-.15c-.09,0-.16-.11-.26-.16l-.27-.11-.7-.26a5.38,5.38,0,0,0-.69-.18l-.44-.1a15.05,15.05,0,0,0-2.5-.27c-.82,0-1.65,0-2.48.05a5.24,5.24,0,0,1-1.37,0c-.46-.1-.78-.37-.78-.74a.94.94,0,0,1,.53-.83,3.26,3.26,0,0,1,1.15-.3A13.15,13.15,0,0,1,195.83,54.88Z" fill="#0f0a0a" stroke="#0f0a0a" stroke-miterlimit="10" stroke-width="0.07"/><g id="Group_2161" data-name="Group 2161"><g id="Group_2157" data-name="Group 2157"><path id="Path_11634" data-name="Path 11634" d="M201.53,61.59a16.69,16.69,0,0,1-2.76-1.25,7.41,7.41,0,0,0-2.86-.64,3.89,3.89,0,0,0-2.2.75,6.68,6.68,0,0,0-1.07.91c-.27.27-.83.33-.83.8a2,2,0,0,0,.91.09,28.64,28.64,0,0,1,3.93,0,7.34,7.34,0,0,0,2.6-.08C200,62,200.8,61.41,201.53,61.59Z" fill="#fff"/><path id="Path_11635" data-name="Path 11635" d="M195.71,62.23c.93.06,1.86.18,2.48-.62.23-.3.55-1.17.22-1.48a2.71,2.71,0,0,0-1.15-.32,6,6,0,0,0-1.34-.09,3.22,3.22,0,0,0-1.07.2c-.16,0-.79.31-.79.5a.92.92,0,0,0,0,1.13A1.9,1.9,0,0,0,195.71,62.23Z" fill="#0f0a0a" stroke="#0f0a0a" stroke-miterlimit="10" stroke-width="0.09"/><path id="Path_11636" data-name="Path 11636" d="M201.91,60.55a23.83,23.83,0,0,0-3.12-1.34,9,9,0,0,0-3.45-.47A5.1,5.1,0,0,0,192.25,60a4.17,4.17,0,0,1,2.86-1.62,9.06,9.06,0,0,1,4,.79A8.67,8.67,0,0,1,201.91,60.55Z" fill="#7b5227" stroke="#7b5227" stroke-linecap="round" stroke-linejoin="round" stroke-width="0.11"/><circle id="Ellipse_1600" data-name="Ellipse 1600" cx="195.75" cy="60.76" r="0.38" fill="#7b5227" stroke="#7b5227" stroke-linecap="round" stroke-linejoin="round" stroke-width="0.08"/><g id="Group_2156" data-name="Group 2156"><path id="Path_11637" data-name="Path 11637" d="M192.84,62a.74.74,0,0,0-.26-.5c-.15-.09-.24,0-.36.09s-.6.45-.41.52a1.5,1.5,0,0,0,.59.1,1.74,1.74,0,0,0,.39,0A.33.33,0,0,0,192.84,62Z" fill="#7b5227"/><path id="Path_11638" data-name="Path 11638" d="M200.08,61.08a.29.29,0,0,0-.15.14,1,1,0,0,0-.06.34c0,.5.38.19.66.1a1.81,1.81,0,0,1,1-.11,5.44,5.44,0,0,1-.86-.29C200.5,61.18,200.26,61,200.08,61.08Z" fill="#7b5227"/></g><path id="Path_11639" data-name="Path 11639" d="M201.53,61.59a16.69,16.69,0,0,1-2.76-1.25,7.41,7.41,0,0,0-2.86-.64,3.89,3.89,0,0,0-2.2.75,6.68,6.68,0,0,0-1.07.91c-.27.27-.83.33-.83.8a2,2,0,0,0,.91.09,28.64,28.64,0,0,1,3.93,0,7.34,7.34,0,0,0,2.6-.08C200,62,200.8,61.41,201.53,61.59Z" fill="none" stroke="#0f0a0a" stroke-linecap="round" stroke-linejoin="round" stroke-width="0.32"/><path id="Path_11640" data-name="Path 11640" d="M193.91,60.29a3.75,3.75,0,0,1,1-.5,2.83,2.83,0,0,1,1.11-.2,5.34,5.34,0,0,1,3.15,1.35,5.38,5.38,0,0,0,1.18.89,1.31,1.31,0,0,0,.8.13,9,9,0,0,1-1-.62c-.3-.21-.56-.47-.86-.69a6.48,6.48,0,0,0-2.43-.92" fill="none" stroke="#0f0a0a" stroke-linecap="round" stroke-linejoin="round" stroke-width="0.32"/></g><g id="Group_2160" data-name="Group 2160"><path id="Path_11641" data-name="Path 11641" d="M179.17,54.88a13.67,13.67,0,0,0-2,.19,8.1,8.1,0,0,0-3.31,1.13,4.41,4.41,0,0,0-.49.36c-.28.23-.52.5-.77.75s-.53.63-.07.68a.7.7,0,0,0,.39-.15c.09,0,.16-.11.26-.16l.27-.11.7-.26a5.38,5.38,0,0,1,.69-.18l.44-.1a15.05,15.05,0,0,1,2.5-.27c.82,0,1.65,0,2.48.05a5.24,5.24,0,0,0,1.37,0c.46-.1.78-.37.78-.74a1,1,0,0,0-.53-.83,3.26,3.26,0,0,0-1.15-.3A13.15,13.15,0,0,0,179.17,54.88Z" fill="#0f0a0a" stroke="#0f0a0a" stroke-miterlimit="10" stroke-width="0.07"/><g id="Group_2159" data-name="Group 2159"><path id="Path_11642" data-name="Path 11642" d="M173.46,61.59a16.42,16.42,0,0,0,2.77-1.25,7.41,7.41,0,0,1,2.86-.64,3.89,3.89,0,0,1,2.2.75,7.15,7.15,0,0,1,1.07.91c.27.27.82.33.83.8a2,2,0,0,1-.91.09,28.64,28.64,0,0,0-3.93,0,7.34,7.34,0,0,1-2.6-.08C175,62,174.2,61.41,173.46,61.59Z" fill="#fff"/><path id="Path_11643" data-name="Path 11643" d="M179.28,62.23c-.92.06-1.86.18-2.47-.62-.23-.3-.55-1.17-.22-1.48a2.71,2.71,0,0,1,1.15-.32,6,6,0,0,1,1.34-.09,3.22,3.22,0,0,1,1.07.2c.16,0,.79.31.79.5a.92.92,0,0,1,0,1.13A1.92,1.92,0,0,1,179.28,62.23Z" fill="#0f0a0a" stroke="#0f0a0a" stroke-miterlimit="10" stroke-width="0.09"/><path id="Path_11644" data-name="Path 11644" d="M173.09,60.55a23.26,23.26,0,0,1,3.12-1.34,9,9,0,0,1,3.45-.47,5.09,5.09,0,0,1,3.1,1.24,4.19,4.19,0,0,0-2.87-1.62,9,9,0,0,0-4,.79A8.72,8.72,0,0,0,173.09,60.55Z" fill="#7b5227" stroke="#7b5227" stroke-linecap="round" stroke-linejoin="round" stroke-width="0.11"/><circle id="Ellipse_1601" data-name="Ellipse 1601" cx="178.57" cy="60.76" r="0.38" fill="#7b5227" stroke="#7b5227" stroke-linecap="round" stroke-linejoin="round" stroke-width="0.08"/><g id="Group_2158" data-name="Group 2158"><path id="Path_11645" data-name="Path 11645" d="M182.16,62a.74.74,0,0,1,.26-.5c.15-.09.24,0,.36.09s.59.45.41.52a1.5,1.5,0,0,1-.59.1,1.74,1.74,0,0,1-.39,0A.33.33,0,0,1,182.16,62Z" fill="#7b5227"/><path id="Path_11646" data-name="Path 11646" d="M174.92,61.08a.29.29,0,0,1,.15.14.8.8,0,0,1,.05.34c0,.5-.37.19-.65.1a1.84,1.84,0,0,0-1-.11,4.83,4.83,0,0,0,.86-.29C174.5,61.18,174.74,61,174.92,61.08Z" fill="#7b5227"/></g><path id="Path_11647" data-name="Path 11647" d="M173.46,61.59a16.42,16.42,0,0,0,2.77-1.25,7.41,7.41,0,0,1,2.86-.64,3.89,3.89,0,0,1,2.2.75,7.15,7.15,0,0,1,1.07.91c.27.27.82.33.83.8a2,2,0,0,1-.91.09,28.64,28.64,0,0,0-3.93,0,7.34,7.34,0,0,1-2.6-.08C175,62,174.2,61.41,173.46,61.59Z" fill="none" stroke="#0f0a0a" stroke-linecap="round" stroke-linejoin="round" stroke-width="0.32"/><path id="Path_11648" data-name="Path 11648" d="M181.09,60.29a3.75,3.75,0,0,0-1-.5,2.83,2.83,0,0,0-1.11-.2,5.34,5.34,0,0,0-3.15,1.35,5.21,5.21,0,0,1-1.19.89,1.27,1.27,0,0,1-.79.13,9,9,0,0,0,1-.62c.3-.21.56-.47.86-.69a6.48,6.48,0,0,1,2.43-.92" fill="none" stroke="#0f0a0a" stroke-linecap="round" stroke-linejoin="round" stroke-width="0.32"/></g></g></g><path id="Path_11649" data-name="Path 11649" d="M167.63,59.22a1,1,0,0,1,.71.25c.09.1.12.29,0,.35s-.36,0-.5-.08a2.11,2.11,0,0,0-1.41.29,1.5,1.5,0,0,0-.57.6,8.75,8.75,0,0,1-.3.86.18.18,0,0,1-.12.12c-.13,0-.15-.16-.15-.24a2.32,2.32,0,0,1,.93-1.7A2.27,2.27,0,0,1,167.63,59.22Z" fill="#7b5227" stroke="#7b5227" stroke-miterlimit="10" stroke-width="0.07"/></g></g></g><g id="Group_2165" data-name="Group 2165"><path id="Path_11650" data-name="Path 11650" d="M200.53,80.12H174.47a3.68,3.68,0,0,0-3.67,3.68v.93a33.76,33.76,0,0,0,33.4,0V83.8A3.69,3.69,0,0,0,200.53,80.12Z" fill="#b1c0c9"/><path id="Path_11651" data-name="Path 11651" d="M205.57,55c-.45-3.92-8.37-7-18.07-7s-17.62,3.13-18.07,7a1.63,1.63,0,0,0,0,.31V72.82a2.64,2.64,0,0,0,0,.29c.38,4,8.33,7.11,18.08,7.11s17.7-3.16,18.08-7.11a2.64,2.64,0,0,0,0-.29V55.28A1.63,1.63,0,0,0,205.57,55Z" fill="#859097" opacity="0.25" style="isolation:isolate"/><path id="Path_11652" data-name="Path 11652" d="M203.21,53.76a3.91,3.91,0,0,1,1.12,2.64,1.82,1.82,0,0,1-1.87,1.78h0A2,2,0,0,1,201,56.73c-.23-.68-.27-1.41-.44-2.11-.52-2.1-2.14-3.15-3.95-4C198.86,50.16,201.76,52.06,203.21,53.76Z" fill="#e0e6e9"/><path id="Path_11653" data-name="Path 11653" d="M215,50.57h-.17a28.18,28.18,0,0,0-54.58,0H160a3.27,3.27,0,0,0-3.25,3.26v7.76A3.27,3.27,0,0,0,160,64.85h.17a28.19,28.19,0,0,0,54.58,0H215a3.27,3.27,0,0,0,3.25-3.26V53.83A3.27,3.27,0,0,0,215,50.57ZM205.6,72.84a2.64,2.64,0,0,1,0,.29c-.38,4-8.33,7.11-18.08,7.11s-17.7-3.16-18.08-7.11a2.64,2.64,0,0,1,0-.29V55.3a1.71,1.71,0,0,1,0-.31c.45-3.92,8.37-7,18.07-7s17.62,3.12,18.07,7a1.71,1.71,0,0,1,0,.31Z" fill="#b1c0c9"/><g id="Group_2164" data-name="Group 2164" opacity="0.5"><path id="Path_11654" data-name="Path 11654" d="M203.59,35a28.37,28.37,0,0,1,11.9,23,43.85,43.85,0,0,1-.28,4.86,27.42,27.42,0,0,0,.48-5.2,28.15,28.15,0,0,0-20.14-27A31.07,31.07,0,0,1,203.59,35Z" fill="#859097"/><path id="Path_11655" data-name="Path 11655" d="M200.74,77.53a38,38,0,0,1-11.31-.12c-6.92-1-14.28-4.12-17.31-10.87-1.34-3-1.75-7.59-1.5-10.84s1.67-9.33,4.49-11.43c1.84-1.37,4.38-1.4,6.31-2.62A10.62,10.62,0,0,0,185,37a18.19,18.19,0,0,1,3-5.15c1.72-1.78,4-2,6.43-1.44a28.08,28.08,0,0,0-34.9,27.29h0A28.09,28.09,0,0,0,187.63,85.8h0a28,28,0,0,0,22.63-11.49c-1.56,2.13-6.92,2.77-9.35,3.19Z" fill="#859097"/></g><path id="Path_11656" data-name="Path 11656" d="M205.57,55c-.45-3.92-8.37-7.05-18.07-7.05S169.88,51,169.43,55a1.63,1.63,0,0,0,0,.31V72.81a2.83,2.83,0,0,0,0,.29c.38,4,8.33,7.11,18.08,7.11s17.7-3.16,18.08-7.11a2.83,2.83,0,0,0,0-.29V55.27A1.63,1.63,0,0,0,205.57,55Z" fill="none" stroke="#2c3032" stroke-miterlimit="10" stroke-width="0.81"/></g></g></g><path d="M115.47,218.48A52.75,52.75,0,0,1,114.13,250h8.09a59.92,59.92,0,0,0,1.45-7.76,61.53,61.53,0,0,0-.72-18.91c-1.16-5.93-3.7-11.34-4.6-17.31-1.69-11.22-.27-23.06,5.7-32.86a24.92,24.92,0,0,1,4.65-5.72c2-1.82,4.65-3.09,6.86-4.73,1.58-1.19-.09-3.8-1.59-4.4-2.46-1-4.5.58-6.53,1.65a20,20,0,0,0-7.52,6.25c-8.25,11.75-10.13,26.68-7.76,40.54C112.87,210.89,114.41,214.48,115.47,218.48Z" fill="#e9eaea"/><path d="M0,236.15A13.85,13.85,0,0,0,13.85,250H99.79a52,52,0,0,0-.37-8.39,60.36,60.36,0,0,1-.3-10.06c.57-11.25,3.93-22.51,7.72-33.09,1.45-4.05,7.43-14.62,2.65-18.14-2.29-1.69-6.39-1.57-9.08-1.56-3,0-6.08.32-9.12.53-15.73,1.07-31.27,4.34-47.14,5.24-14.77.84-29.46-.15-44.15-.67Z" fill="#edf4f9"/><g id="Group_2145" data-name="Group 2145"><path id="Path_11605" data-name="Path 11605" d="M138.89,179.59c0-1.23.5-2.23.31-3.42-.44-2.7-1.29-5.9.22-8.29,1.4-2.21,4.52-3.88,6.83-4.91a15.23,15.23,0,0,1,7.08-1.59,20.49,20.49,0,0,1,7,1.71,19.77,19.77,0,0,1,4,2.33,12.85,12.85,0,0,1,1.4,1c.56.54,1,1.21,1.53,1.79a2.46,2.46,0,0,1,.74,2.18c-.23.9-1.18,1.57-1.84,2.17a35.78,35.78,0,0,1-4.88,3.7A36.72,36.72,0,0,1,150,181a34.93,34.93,0,0,1-9.56.88C139.24,181.8,138.92,180.59,138.89,179.59Z" fill="#d7e7f1"/><path id="Path_11606" data-name="Path 11606" d="M140.37,175.94a2.81,2.81,0,0,1-1.45-1.56,8.25,8.25,0,0,1,.53-6.54c1.4-2.2,4.52-3.88,6.83-4.91a17.71,17.71,0,0,1,16.92,1c.67.42,2.19,1.19,2.17,2.13a1,1,0,0,1-.41.68,31,31,0,0,1-15.28,8.44C147.28,175.7,142.72,176.92,140.37,175.94Z" fill="#d7e7f1"/><path id="Path_11607" data-name="Path 11607" d="M139.22,180.89a1.13,1.13,0,0,0,.72.93,6.66,6.66,0,0,0,2.81.21,26.34,26.34,0,0,0,2.94-.28,40.19,40.19,0,0,0,5.62-1.31l2.49-.74s-.1,0-.13,0-.95.18-1.21.22l-1.57.26-3.12.56a42.57,42.57,0,0,1-6.27.74c-.51,0-1,0-1.52,0a1.11,1.11,0,0,1-.51-.1A.47.47,0,0,1,139.22,180.89Z" fill="#bed7ea" stroke="#bed7ea" stroke-linecap="round" stroke-linejoin="round" stroke-width="0.26"/><path id="Path_11608" data-name="Path 11608" d="M140.4,175.9a2.81,2.81,0,0,1-1.45-1.56c.05-.08-.43-1.4-.45-1.62-.28-3.67,2.47-5.39,5.27-6.9a15,15,0,0,1,4.52-1.54,27,27,0,0,1,4.22-.1c.27,0,.59,0,.7-.27a.49.49,0,0,0-.23-.59.8.8,0,0,0-.34-.11c-.11,0-.2.06-.31,0a1.3,1.3,0,0,1,.68-.74,8.13,8.13,0,0,1,3.82-.35,16.12,16.12,0,0,1,3.9.69,18.89,18.89,0,0,1,2.81,1.21c.75.38,1.87,1.05,1.86,2a1.1,1.1,0,0,1-.41.68,31.1,31.1,0,0,1-15.29,8.43C147.31,175.66,142.75,176.87,140.4,175.9Z" fill="#f2f7fc"/><path id="Path_11609" data-name="Path 11609" d="M145.32,180a37,37,0,0,0,21.93-10.2A41,41,0,0,1,145.32,180Z" fill="#bed7ea" stroke="#bed7ea" stroke-linecap="round" stroke-linejoin="round" stroke-width="0.35"/><path id="Path_11610" data-name="Path 11610" d="M159.84,173.28a44.21,44.21,0,0,1-9.7,4.16,26.55,26.55,0,0,1-5.38.91,20.7,20.7,0,0,1-2.84,0,5.32,5.32,0,0,1-2.1-.62,21.78,21.78,0,0,0,2.8.29,32.9,32.9,0,0,0,4-.11c1.25-.16,2.53-.46,3.73-.72A30.87,30.87,0,0,0,159,173.9,2.38,2.38,0,0,0,159.84,173.28Z" fill="#bed7ea" stroke="#bed7ea" stroke-linecap="round" stroke-linejoin="round" stroke-width="0.35"/><path id="Path_11611" data-name="Path 11611" d="M161.07,171.44l-.12-.06a.24.24,0,0,1,0-.3,4.63,4.63,0,0,1,.92-.54q.47-.3.9-.63a17.15,17.15,0,0,0,1.65-1.42,6.2,6.2,0,0,1,.84-.86,3.51,3.51,0,0,1-.58.94,8.84,8.84,0,0,1-.74.88,8.4,8.4,0,0,1-2.61,1.93A.67.67,0,0,1,161.07,171.44Z" fill="#f2f7fc"/><path id="Path_11612" data-name="Path 11612" d="M141.89,166.48c.35.42,1.29.38.94,1.54a1.1,1.1,0,0,0,0,.87.92.92,0,0,0,1.45-.72c0-.21-.05-.42,0-.63,0-.81,1.43-.85,2-1a10,10,0,0,0,2.34-1.28c.55-.39.7-.64,1.37-.25.35.2.67.53,1.08.39a1.34,1.34,0,0,0,.73-.85.49.49,0,0,0-.06-.51c-.3-.28-.83.08-1.13-.23s.1-1-.11-1.39c-.46-.93-2.75-.75-5.13.4-1.18.57-2.79,1.47-3.37,2.73C141.69,166,141.73,166.3,141.89,166.48Z" fill="#468fc3"/><ellipse id="Ellipse_1584" data-name="Ellipse 1584" cx="145.66" cy="163.53" rx="3.43" ry="1.42" transform="translate(-56.74 79.91) rotate(-25.86)" fill="#f2f7fc"/></g><g id="Group_2146" data-name="Group 2146"><path id="Path_11614" data-name="Path 11614" d="M117.87,178.87a4.86,4.86,0,0,1-.92.27,15.24,15.24,0,0,0,3.29-5.31c.93-2.54,1.35-5.65,3.4-7.75,1.53-1.57,3.76-2.3,5.79-3.14a14.52,14.52,0,0,0,3.72-2c.65-.54,1.84-2.58.16-1.92-.94.37-2.19,1.14-3.18,1.52s-1.78.57-2.44-.4a18,18,0,0,1,5.32-2.47c1.1-.29,2.1,0,3.06-.68,1.26-.84,2.19-2.08,3.5-2.88a3.31,3.31,0,0,1,1.59,1,4.25,4.25,0,0,0,2.34,1.28c.71.12.91.79,1.29,1.29.74,1,1.61,1.72,2.25,2.74a2.93,2.93,0,0,1-3.07-1.08c-.28-.34-.35-.78-.83-.87a.4.4,0,0,0-.45.34v0c-.06.54.26.61.62,1a7.69,7.69,0,0,1,1.15,1.33.87.87,0,0,1-.17,1.23.92.92,0,0,1-.24.13c-.6-1.63-1.75-2.48-3-3.59-.31-.27-.62-.12-1,.06a7.11,7.11,0,0,1-1.22.72,4.64,4.64,0,0,0-1.68.83c-.56.4-.89.6-1,1.34-.08.41-.32.57-.69.8-2.11,1.27-3.72,1.74-5.83,3.41C125.09,169.66,123.11,175.68,117.87,178.87Z" fill="#e0e2e1"/><path id="Path_11615" data-name="Path 11615" d="M139.6,162a2.29,2.29,0,0,1-.8-2.2L140,159c.36-.22.68-.33,1-.07,1.29,1.1,2.45,2,3,3.6a1,1,0,0,0-.43,1.24A4.57,4.57,0,0,1,144,165a2.58,2.58,0,0,1-2.27-1.2A12.4,12.4,0,0,0,139.6,162Z" fill="#dddede"/><path id="Path_11616" data-name="Path 11616" d="M144,165a5.76,5.76,0,0,0-.35-1.21.94.94,0,0,1,.46-1.24.91.91,0,0,0,.49-1.18.67.67,0,0,0-.11-.18,8.58,8.58,0,0,0-1.15-1.33c-.37-.38-.68-.46-.62-1a.39.39,0,0,1,.42-.36h0c.48.09.55.53.83.86a2.87,2.87,0,0,0,3.07,1.08c.59,1.38.58,1.93-.54,3.07A5.47,5.47,0,0,1,144,165Z" fill="#e7e7e7"/></g><g id="Group_2148" data-name="Group 2148"><path id="Path_11617" data-name="Path 11617" d="M139.69,154.15c-1.35.74-2.18,2.08-3.47,2.94a2.17,2.17,0,0,1-2.17.39,6.39,6.39,0,0,1,2.19-2.07c.74-.86,2.18-1.55.87-3C138.25,152.61,138.88,153.51,139.69,154.15Z" fill="#d5d6d6"/><path id="Path_11618" data-name="Path 11618" d="M137.11,152.45c1.31,1.41-.13,2.1-.87,3a4.25,4.25,0,0,1-1.13-1.3c-.42-.73-.14-1.05.38-1.56S136.57,151.62,137.11,152.45Z" fill="#468fc3"/></g></g></g></svg>