<svg xmlns="http://www.w3.org/2000/svg" xmlns:xlink="http://www.w3.org/1999/xlink" viewBox="0 0 250 250"><defs><clipPath id="clip-path"><path d="M13.85,0h222.3A13.85,13.85,0,0,1,250,13.85h0v222.3A13.85,13.85,0,0,1,236.15,250H13.85A13.85,13.85,0,0,1,0,236.15V13.85A13.85,13.85,0,0,1,13.85,0Z" fill="none"/></clipPath></defs><g id="Layer_2" data-name="Layer 2"><g id="Layer_1-2" data-name="Layer 1"><g id="Module_3" data-name="Module 3"><rect id="Base-9" width="250" height="250" rx="13.85" fill="#fbfae1"/><g id="Module_3_Art" data-name="Module 3 Art"><g clip-path="url(#clip-path)"><g id="Group_1789" data-name="Group 1789"><g id="Group_1782" data-name="Group 1782"><g id="Group_1724" data-name="Group 1724"><path id="Path_9601" data-name="Path 9601" d="M174.79,110a71.49,71.49,0,0,0,.57-11.88,11.41,11.41,0,0,0-1.48-6.1c-2.36-3.46-7.92-5.7-11.57-7.54q-5.22-2.61-10.55-5" fill="none" stroke="#b4ded3" stroke-linecap="round" stroke-miterlimit="10" stroke-width="4.03"/><path id="Path_9602" data-name="Path 9602" d="M173.33,96.33a1.51,1.51,0,0,1,1.23-.85,4.89,4.89,0,0,1,2.25,0c1,.3.8,1.17-.21,1.22l-1.63.09c-.55,0-1.47.21-1.71-.45-.39-1.07,1.17-1.67,1.82-2.06.47-.28,1.45-.89,2-.55.87.5-.45,1.38-.93,1.62a2.94,2.94,0,0,1-2.32.49c-1.31-.32-1.27-1.19-.67-2.23a4,4,0,0,1,2.28-1.84c.34-.1.78-.12,1,.18s-.07.78-.39,1a5.29,5.29,0,0,1-3.31,1.18c-1,0-1.05-.92-.79-1.74a4,4,0,0,1,.87-1.48c.39-.42,2.94-2,2.5-.53A3.39,3.39,0,0,1,174,92.16a6.55,6.55,0,0,1-2.63.43.67.67,0,0,1-.37,0,.51.51,0,0,1-.17-.35,4.12,4.12,0,0,1,.85-2.55A2.63,2.63,0,0,1,173,88.37a1,1,0,0,1,.82.06.62.62,0,0,1,.28.73c-.15.34-.48.3-.73.48a4.77,4.77,0,0,0-.77.85,8.9,8.9,0,0,1-1.15.87,1.43,1.43,0,0,1-.67.34,1,1,0,0,1-.9-.67,3.09,3.09,0,0,1,.73-2.89c.5-.52,1.37-.93,1.56.08" fill="none" stroke="#b4ded3" stroke-linecap="round" stroke-linejoin="round" stroke-width="2.02"/></g><g id="Rectangle_294" data-name="Rectangle 294"><path id="Path_10165" data-name="Path 10165" d="M185.86,197.56V107.21l7.11,1.67a2.28,2.28,0,0,1,0,.26v86.49a2.28,2.28,0,0,1,0,.26Z" fill="#45a98c"/><path id="Path_10166" data-name="Path 10166" d="M187.36,109.11v86.56l4.13-1V110.07l-4.13-1m-3-3.79,9.63,2.26a.3.3,0,0,1,.19.16,1.33,1.33,0,0,1,.16.34,2.66,2.66,0,0,1,.1.49,3.64,3.64,0,0,1,0,.57v86.49a3.77,3.77,0,0,1,0,.58,2.73,2.73,0,0,1-.1.48,1.58,1.58,0,0,1-.16.35.38.38,0,0,1-.19.16l-9.63,2.25Z" fill="#45a98c"/></g><g id="Rectangle_294-2" data-name="Rectangle 294-2"><path id="Path_10167" data-name="Path 10167" d="M184.12,198.44h0l-55.67-1.74a1,1,0,0,1-.37-.09,1.31,1.31,0,0,1-.33-.25,1.47,1.47,0,0,1-.24-.4,1.32,1.32,0,0,1-.09-.48V109.3a1.33,1.33,0,0,1,.09-.49,1.28,1.28,0,0,1,.24-.39,1.15,1.15,0,0,1,.33-.26,1,1,0,0,1,.37-.09l55.67-1.74h0a1.09,1.09,0,0,1,.39.08,1,1,0,0,1,.35.23,1.14,1.14,0,0,1,.25.39,1.29,1.29,0,0,1,.1.48v89.75a1.26,1.26,0,0,1-.35.87,1.13,1.13,0,0,1-.36.24A1.22,1.22,0,0,1,184.12,198.44Z" fill="#faf5b1"/><path id="Path_10168" data-name="Path 10168" d="M184.12,107.34h0l-55.64,1.74h0a.41.41,0,0,0-.05.09.27.27,0,0,0,0,.12v86.18a.28.28,0,0,0,0,.13.22.22,0,0,0,.05.08h0l55.64,1.74h0l0,0a.36.36,0,0,0,0-.1V107.51a.36.36,0,0,0,0-.1.1.1,0,0,0,0,0h0m0-2a1.87,1.87,0,0,1,.77.16,2,2,0,0,1,.69.46,2,2,0,0,1,.46.7,2.18,2.18,0,0,1,.17.87v89.75a2.21,2.21,0,0,1-.17.87,2,2,0,0,1-.46.7,2.14,2.14,0,0,1-.69.46,2,2,0,0,1-.84.15l-55.67-1.74a1.91,1.91,0,0,1-.78-.19A2.18,2.18,0,0,1,127,197a2.28,2.28,0,0,1-.43-.7,2.24,2.24,0,0,1-.15-.85V109.3a2.19,2.19,0,0,1,.15-.84,2.28,2.28,0,0,1,.43-.7,1.92,1.92,0,0,1,.64-.49,1.76,1.76,0,0,1,.78-.19l55.67-1.74Z" fill="#45a98c"/></g><path id="Rectangle_295" data-name="Rectangle 295" d="M168.26,173.43l1.72,0a2.8,2.8,0,0,1,2,.91,3.14,3.14,0,0,1,.62,1,3.23,3.23,0,0,1,.23,1.19h0a3.13,3.13,0,0,1-.23,1.17,2.94,2.94,0,0,1-.62.95,2.75,2.75,0,0,1-2,.85l-1.72,0a2.68,2.68,0,0,1-1.11-.25,3.12,3.12,0,0,1-.91-.66,3.06,3.06,0,0,1-.61-1,3.38,3.38,0,0,1-.22-1.18h0a3.07,3.07,0,0,1,.22-1.16,2.85,2.85,0,0,1,1.52-1.58A2.65,2.65,0,0,1,168.26,173.43Z" fill="#1f3a1d"/><g id="Group_1683" data-name="Group 1683"><path id="Path_8706" data-name="Path 8706" d="M169.77,190.54h.11a.14.14,0,0,0,.12-.12.24.24,0,0,0,0-.12l-.08,0-.06.06-.05.07Z" fill="#d72028"/><path id="Path_8707" data-name="Path 8707" d="M173.31,187.42l.1,0,.08-.05.06-.08a.49.49,0,0,0,0-.11l0-.1a.18.18,0,0,0-.05-.07.2.2,0,0,0-.07-.06l-.1,0h-.11a.18.18,0,0,0-.07.05.12.12,0,0,0,0,.08.3.3,0,0,0,0,.1v.1a.16.16,0,0,0,0,.09.12.12,0,0,0,.06.06A.24.24,0,0,0,173.31,187.42Z" fill="#d72028"/><path id="Path_8708" data-name="Path 8708" d="M171.34,188.61l-.09,0-.08,0a.16.16,0,0,0-.06.08.36.36,0,0,0,0,.11v.05l0,.05,0,0h0l.1-.05.09-.06a.27.27,0,0,0,.07-.08.19.19,0,0,0,0-.1s0,0,0,0,0,0,0,0l-.06,0Z" fill="#d72028"/><path id="Path_8709" data-name="Path 8709" d="M172.23,188a.18.18,0,0,0-.08.07.3.3,0,0,0,0,.1,580539018114,580539018114,0,0,1,0,.22.13.13,0,0,1,.07-.06l.09,0a.15.15,0,0,0,.06,0,.12.12,0,0,0,0-.1.08.08,0,0,0,0,0l0-.05s0,0-.05,0Z" fill="#d72028"/><path id="Path_8710" data-name="Path 8710" d="M151.57,166.1l.08.06.1.06.1,0,.11,0,.26.13.26.11.28.11a1.43,1.43,0,0,0,.27.09s0,0,0,0l0,0,0,0h0l.36.1.36.11.36.11a2.29,2.29,0,0,0,.36.07,2.38,2.38,0,0,0,.8,0c.26,0,.53-.12.78-.18a4.05,4.05,0,0,1,.77-.16,1.78,1.78,0,0,1,.76,0,2.62,2.62,0,0,1,1,.6,7.51,7.51,0,0,1,.93,1c.29.38.57.78.82,1.16s.47.75.66,1l.76,1.17c.25.39.51.78.76,1.18s.5.8.73,1.2.47.81.68,1.23a3.28,3.28,0,0,0,.75.95,7.11,7.11,0,0,0,1,.76c.38.23.77.44,1.15.65s.75.4,1.07.6l8.8,5.45c.17.1.33.2.5.32a4.11,4.11,0,0,1,.45.38,2,2,0,0,1,.36.45,1.6,1.6,0,0,1,.19.53,1.93,1.93,0,0,1,0,.24l0,.23-.06.22-.06.22a1.55,1.55,0,0,1-.06.23,1,1,0,0,1-.1.21,1.33,1.33,0,0,1-.14.19l-.18.15-.17.09-.18.06-.18.05-.19,0-.18,0-.17,0-.18,0-.18,0-.4.05-.4,0-.4,0-.4,0a7,7,0,0,0-.8.14,7.75,7.75,0,0,0-.78.24,7.22,7.22,0,0,0-1.45.71,3.38,3.38,0,0,0-.63.5,7.54,7.54,0,0,0-.55.58l-.51.62a7.57,7.57,0,0,1-.53.6,2.42,2.42,0,0,1-.57.44,3.66,3.66,0,0,1-.68.29c-.24.07-.48.13-.73.18s-.48.08-.71.1a8.69,8.69,0,0,1-1.53,0,9.72,9.72,0,0,1-1.53-.22,12.23,12.23,0,0,1-1.49-.45,12.64,12.64,0,0,1-1.41-.63c-.34-.18-.67-.37-1-.58s-.64-.42-1-.65-.61-.47-.91-.72-.59-.5-.87-.76l-.44-.42-.44-.42-.42-.44-.42-.44c-.11-.12-.22-.25-.32-.38s-.21-.29-.32-.44-.21-.29-.32-.42a2,2,0,0,0-.32-.33,2.11,2.11,0,0,0-.31-.21.17.17,0,0,0-.18,0,1.3,1.3,0,0,0-.19.22c-.1.14-.2.27-.31.4l-.34.38-.35.38-.37.35-.39.34c-.26.23-.54.45-.83.66s-.57.39-.87.57a10.1,10.1,0,0,1-.92.49,8.09,8.09,0,0,1-1,.4c-.33.12-.67.23-1,.32a9.05,9.05,0,0,1-1,.24c-.35.07-.69.12-1,.17s-.7.06-1.06.08a13,13,0,0,1-1.53,0,11.54,11.54,0,0,1-1.53-.23,9.74,9.74,0,0,1-1.49-.43,9.39,9.39,0,0,1-1.4-.66l-.34-.2-.32-.22a3.81,3.81,0,0,1-.32-.24l-.3-.26-.27-.27-.24-.29-.24-.29-.24-.28-.18-.2a1.63,1.63,0,0,0-.17-.2l-.17-.2c0-.07-.11-.13-.17-.2l-.09-.1-.09-.1-.09-.11a1,1,0,0,0-.08-.11,1.56,1.56,0,0,1-.14-.33,1.37,1.37,0,0,1-.07-.34,2.11,2.11,0,0,1,0-.35c0-.12,0-.24,0-.36a2.87,2.87,0,0,1,0-.31l.09-.31c0-.1.06-.2.08-.3a1.51,1.51,0,0,0,0-.3c-.08-.77-.14-1.55-.2-2.33s-.1-1.56-.12-2.34,0-1.56,0-2.34,0-1.55.1-2.33a21.4,21.4,0,0,1,.47-3.18,14.68,14.68,0,0,1,1-3,10.58,10.58,0,0,1,1.63-2.54,9,9,0,0,1,2.42-2c.28-.15.57-.3.86-.42a8.16,8.16,0,0,1,.9-.33,9.91,9.91,0,0,1,1.88-.36h1.21l.4,0,.5-.1.49-.11.5-.1a4.38,4.38,0,0,1,.51,0,4.44,4.44,0,0,1,.63,0,3.2,3.2,0,0,1,.61.15,3,3,0,0,1,.57.27,2.69,2.69,0,0,1,.5.39,2.6,2.6,0,0,1,.41.53,3.32,3.32,0,0,1,.29.6,4.84,4.84,0,0,1,.19.65c0,.22.09.45.13.67s0,.19,0,.3,0,.2,0,.3a2.34,2.34,0,0,0,.05.3,1,1,0,0,0,.12.26,1,1,0,0,0,.17.18l.24.15.24.14Z" fill="#d72028"/></g><path id="Path_8711" data-name="Path 8711" d="M173.47,189.08l.47-.11.48-.11.47-.11.47-.14a7,7,0,0,0,1-.38,9.27,9.27,0,0,0,1-.53,8.11,8.11,0,0,0,.89-.65,7,7,0,0,0,.76-.78l-.55.37c-.18.12-.37.23-.56.34a6.36,6.36,0,0,1-.58.3,6.44,6.44,0,0,1-.61.24,4.56,4.56,0,0,1-.64.14,3.5,3.5,0,0,1-.65,0,2.77,2.77,0,0,1-.64-.11,2.3,2.3,0,0,1-.6-.27l-.25-.17-.26-.17a1.3,1.3,0,0,0-.26-.14,1,1,0,0,0-.29-.08.83.83,0,0,0-.41.07,1.24,1.24,0,0,0-.35.23,3,3,0,0,0-.3.32,3.28,3.28,0,0,0-.27.38l-.27.4-.29.39-.29.39c-.1.13-.19.26-.28.4l-.3.38-.33.37a2.57,2.57,0,0,0-.26.41,1.21,1.21,0,0,0-.11.49c.14-.14.28-.27.41-.38a3.47,3.47,0,0,1,.4-.3l.44-.27c.15-.09.32-.17.5-.26l.51-.23.52-.18c.18-.05.35-.11.53-.15Z" fill="#df4c52"/><path id="Path_8712" data-name="Path 8712" d="M165.74,164.55l.16-.11.17-.11.16-.1.17-.1q.57-.33,1.2-.63a12.42,12.42,0,0,1,1.3-.56,10.43,10.43,0,0,1,1.35-.39,6,6,0,0,1,1.34-.14h.07l.07,0,.07,0,.06.05a.2.2,0,0,1,0,.08v.1l0,.09a.22.22,0,0,1-.05.08l-.07.06-.08.05-.08,0-.09,0a3.83,3.83,0,0,0-.69.37,5,5,0,0,0-.6.52,5.15,5.15,0,0,0-.53.61c-.16.22-.3.45-.44.68s-.25.48-.36.73-.21.5-.3.75-.18.52-.26.78l-.24.78-.18.58-.18.58-.18.58-.17.58c0,.12-.09.24-.14.36a1.49,1.49,0,0,1-.18.3.86.86,0,0,1-.26.2,1.07,1.07,0,0,1-.36.1h-.3a1.51,1.51,0,0,1-.3,0l-.3,0-.3-.06a4.77,4.77,0,0,1-.57-.2,4.58,4.58,0,0,1-.54-.28c-.18-.1-.35-.21-.52-.32l-.49-.37c-.29-.24-.57-.48-.83-.74s-.52-.54-.77-.83-.47-.59-.68-.89a8.45,8.45,0,0,1-.6-.95l-.12-.19c-.05-.07-.1-.14-.14-.21a1.09,1.09,0,0,1-.09-.23.33.33,0,0,1,0-.22.61.61,0,0,1,.33-.28,2.21,2.21,0,0,1,.57-.17l.6-.09.45-.05.77-.1.78-.08c.26,0,.52-.06.77-.11a5.06,5.06,0,0,0,.77-.18l.21-.08.21-.1.2-.11Z" fill="#d72028"/><path id="Path_8713" data-name="Path 8713" d="M145.58,160.84c-.36,0-.71,0-1.06,0l-1.06,0c-.36,0-.7,0-1.06.09s-.69.08-1,.14-.88.16-1.31.27-.86.24-1.28.39a11.23,11.23,0,0,0-1.25.5c-.41.18-.81.39-1.2.61a11.14,11.14,0,0,0-2,1.44,11.54,11.54,0,0,0-1.66,1.83,11.69,11.69,0,0,0-1.24,2.17,13.12,13.12,0,0,0-1.05,6.34,15.6,15.6,0,0,0,.76,3.7,22.17,22.17,0,0,0,1.52,3.5,32.11,32.11,0,0,0,2,3.27c.35.52.7.67,1,.6a1.62,1.62,0,0,0,.87-.8,5.49,5.49,0,0,0,.55-1.46,3.78,3.78,0,0,0,.11-1.38,5.73,5.73,0,0,0-.21-.84,7.92,7.92,0,0,0-.33-.8c-.12-.26-.24-.52-.37-.78s-.24-.53-.35-.79a8.87,8.87,0,0,1-.44-1.5,11.88,11.88,0,0,1-.23-1.57c-.05-.52-.07-1.05-.08-1.59s0-1.06,0-1.59c0-.38,0-.82,0-1.29a7.59,7.59,0,0,1,.2-1.42,3.42,3.42,0,0,1,.51-1.23,1.81,1.81,0,0,1,1-.75l.35-.08.36,0,.36,0,.37-.05a2,2,0,0,0,.35-.08,2.09,2.09,0,0,0,.35-.13,1.57,1.57,0,0,0,.3-.2,1.32,1.32,0,0,0,.25-.28,1.1,1.1,0,0,0,.19-.86,2.49,2.49,0,0,0-.35-.78,6,6,0,0,1-.46-.77,1.31,1.31,0,0,1-.11-.85.6.6,0,0,1,.43-.48,1.64,1.64,0,0,1,.73,0,7.19,7.19,0,0,1,.79.24c.25.09.47.18.61.22l.22.06.24,0,.23,0a.78.78,0,0,0,.22,0l.2,0a1.52,1.52,0,0,1,.2-.06.69.69,0,0,1,.2,0,.44.44,0,0,1,.2,0,1.66,1.66,0,0,1,.31.12l.3.14.29.15.3.12.38.13.39.12.39.1a2.57,2.57,0,0,0,.4,0,4.09,4.09,0,0,0,.7,0,4.33,4.33,0,0,0,.7-.09,5.63,5.63,0,0,0,.68-.17c.22-.07.45-.15.66-.24a1.67,1.67,0,0,0,.23-.12.8.8,0,0,0,.21-.15.77.77,0,0,0,.17-.19.6.6,0,0,0,0-.49.65.65,0,0,0-.11-.22l-.18-.18-.22-.13-.23-.09-.23-.07-.23-.07-.22-.1a1.07,1.07,0,0,1-.22-.15,1.33,1.33,0,0,1-.14-.19,1.43,1.43,0,0,1-.08-.22,2,2,0,0,1,0-.26.62.62,0,0,0,0-.23.31.31,0,0,0-.08-.15.33.33,0,0,0-.14-.1.68.68,0,0,0-.23-.05l-.32,0-.33,0-.33,0Z" fill="#df4c52"/><path id="Path_8714" data-name="Path 8714" d="M164.7,169h.22a.26.26,0,0,0,.15,0,.14.14,0,0,0,.08-.07.37.37,0,0,0,0-.11,1,1,0,0,0,0-.14c-.09-.26-.18-.52-.28-.79l-.28-.78c-.1-.26-.2-.52-.31-.78s-.22-.51-.34-.76a.36.36,0,0,1,0-.09.36.36,0,0,1,0-.09l-.06-.08-.08-.06a.41.41,0,0,0,0-.11.42.42,0,0,0,0-.1.41.41,0,0,0,0-.09l-.07-.09h0l-.05-.09c-.16-.3-.32-.6-.49-.89s-.35-.57-.55-.85a8,8,0,0,0-.61-.8,6.81,6.81,0,0,0-.7-.72l-.21-.17c-.07-.06-.14-.1-.21-.15a2.11,2.11,0,0,1-.22-.14l-.23-.14v-.08a.16.16,0,0,1,0-.07l.05,0,.09,0a.43.43,0,0,1,.16,0,.38.38,0,0,1,.13.06l.12.08a.52.52,0,0,0,.11.1l.3.28.3.27.3.27.3.27.06.05.06,0h.07l.06,0a.16.16,0,0,0,0-.07.15.15,0,0,0,0-.07.17.17,0,0,0,0-.07l0-.07a2.75,2.75,0,0,1-.19-.28l-.16-.3a1.49,1.49,0,0,0-.18-.3,1.44,1.44,0,0,0-.22-.27.39.39,0,0,1-.08-.1.11.11,0,0,1,0-.08.12.12,0,0,1,0-.05.31.31,0,0,1,.13,0l.24.38.24.37.23.38.24.38.18.31.18.31.18.32.17.31a.3.3,0,0,1,0,.1.56.56,0,0,1,0,.21.19.19,0,0,1,0,.08.73.73,0,0,0-.1.28.58.58,0,0,0,0,.26.92.92,0,0,0,.09.23,1.59,1.59,0,0,0,.13.22,3.35,3.35,0,0,1,.27.45c.08.15.16.31.23.47l.21.48c.06.16.13.32.2.48l.4,1c.14.32.27.64.4,1s.27.65.4,1,.27.64.4,1l0,.07,0,.08a.64.64,0,0,1,0,.07v.07a.15.15,0,0,0,0,.11l.06.1a.13.13,0,0,1,0,.09.08.08,0,0,1-.05.07.14.14,0,0,1-.09,0,.33.33,0,0,1-.1-.06l-.08-.1-.06-.09c-.08-.15-.18-.28-.27-.42l-.3-.39-.31-.38c-.11-.12-.21-.25-.32-.38v0h0v0Z" fill="#df4c52"/><path id="Path_8715" data-name="Path 8715" d="M161.77,160.4l-.13,0a.09.09,0,0,0-.06.06.11.11,0,0,0,0,.08.39.39,0,0,0,.08.1,2.75,2.75,0,0,1,.22.26,2.91,2.91,0,0,1,.17.3l.17.3a2.2,2.2,0,0,0,.18.28.15.15,0,0,1,0,.07.19.19,0,0,1,0,.07s0,.05,0,.07a.43.43,0,0,1,0,.07l-.07,0h-.06l-.07,0-.06-.05-.3-.27-.3-.27-.3-.27L161,161l-.11-.1-.11-.08-.14-.06a.38.38,0,0,0-.15,0l-.09,0-.06,0a.08.08,0,0,0,0,.06.11.11,0,0,0,0,.08h-.1l-.11,0a.19.19,0,0,1-.09,0,.13.13,0,0,1-.06-.07.14.14,0,0,1,0-.09.31.31,0,0,1,.05-.1l.07-.08.08-.08a2.6,2.6,0,0,1,.36-.3,2.42,2.42,0,0,1,.39-.21,2.09,2.09,0,0,1,.43-.11,2.32,2.32,0,0,1,.46,0l.11,0,.11,0,.1.06.09.09a.53.53,0,0,1,0,.15l-.1.11-.11.08Z" fill="#45a98c"/><path id="Path_8716" data-name="Path 8716" d="M148.07,160.25l.06-.08Z" fill="#7b8b43"/><path id="Path_8717" data-name="Path 8717" d="M146.88,164.55s0,0,0-.05l0,0h0a.1.1,0,0,1,.05,0,.05.05,0,0,1,0,0l0,0h0Z" fill="#c06b73"/><path id="Path_8718" data-name="Path 8718" d="M167.05,192.17v0h0v0h.05Z" fill="#e8d4ac"/><path id="Path_8719" data-name="Path 8719" d="M146.52,162.74a2.68,2.68,0,0,1-.07.27.88.88,0,0,1-.11.24.83.83,0,0,1-.16.21,1.8,1.8,0,0,1-.2.18.31.31,0,0,1-.1.05h-.07a.07.07,0,0,1,0-.06.18.18,0,0,1,0-.1.54.54,0,0,0,0-.15.12.12,0,0,0-.06-.06.15.15,0,0,0-.09,0l-.1.06-.09.08-.09.07-.1.06-.11,0a2.68,2.68,0,0,1,.07-.27.88.88,0,0,1,.11-.24,1.07,1.07,0,0,1,.15-.22,1.2,1.2,0,0,1,.21-.17l.07-.06.06-.07,0-.09,0-.09a.2.2,0,0,1,0-.08.13.13,0,0,1,.06-.07l.07,0a.14.14,0,0,1,.09,0,.12.12,0,0,1,.07.05v.06l0,.07a.17.17,0,0,0,0,.07v.1a0,0,0,0,1,0,0s0,0,0,.06a.64.64,0,0,0,0,.07.43.43,0,0,0,0,0l0,.06.06,0h.06l.05,0,0,0,0,0,0,0,.05,0Z" fill="#c06b73"/><path id="Path_8720" data-name="Path 8720" d="M178.67,186.63h-.06v0Z" fill="#c06b73"/><path id="Path_8721" data-name="Path 8721" d="M160.85,187.58h0v0h-.06v0h0v0h0Z" fill="#e8d4ac"/><g id="Group_1684" data-name="Group 1684"><path id="Path_8722" data-name="Path 8722" d="M182.17,175.81c0-.27,0-.55-.07-.81s-.06-.54-.1-.8-.08-.54-.13-.8l-.15-.8a11.78,11.78,0,0,0-.33-1.2,11.19,11.19,0,0,0-.44-1.14c-.16-.38-.34-.75-.53-1.1s-.39-.72-.6-1.06-.46-.74-.72-1.09a10,10,0,0,0-.8-1,11.13,11.13,0,0,0-1.86-1.77c-.41-.3-.83-.61-1.27-.87a7.33,7.33,0,0,0-1.34-.68,4.29,4.29,0,0,0-1.42-.3,3.58,3.58,0,0,0-1.48.25,4.69,4.69,0,0,0-1,.56,5.45,5.45,0,0,0-.87.79,6.5,6.5,0,0,0-.68,1,6.41,6.41,0,0,0-.5,1.1q-.1.3-.18.6c-.06.2-.1.41-.14.61s-.06.42-.08.63a6.2,6.2,0,0,0-.06.62c0,.11,0,.21,0,.32s0,.2,0,.31,0,.21,0,.31v.46a.86.86,0,0,0,0,.16v.15s0,.1,0,.15l0,0a.06.06,0,0,1,0,0l0,0,0,0a.55.55,0,0,1-.18-.19.85.85,0,0,1-.13-.25c0-.09-.07-.18-.1-.27s-.05-.17-.08-.24l-.16-.38-.15-.38-.15-.38-.15-.39c-.09-.25-.19-.5-.29-.74l-.3-.75c-.1-.24-.2-.49-.31-.73s-.21-.49-.33-.73a.08.08,0,0,0,0,0s0,0,0-.06v-.11l-.1-.09-.06-.11a671007512847.4,671007512847.4,0,0,1-.1-.24c-.17-.36-.35-.72-.52-1.07s-.36-.7-.55-1.05l-.57-1c-.2-.34-.4-.68-.62-1,0,0,0-.05,0-.08l0-.09-.07-.07a.12.12,0,0,0-.08,0,.58.58,0,0,1-.05.14l-.09.11-.11.08-.13.08.24.37.24.38.23.38.24.38.18.31.18.31c.06.11.12.21.17.32l.18.31a.42.42,0,0,1,0,.1.41.41,0,0,1,0,.11.34.34,0,0,1,0,.1l0,.09a.52.52,0,0,0-.1.27.75.75,0,0,0,0,.26,2.44,2.44,0,0,0,.1.24l.14.21a3.35,3.35,0,0,1,.27.45c.08.15.16.31.23.47s.14.32.2.48l.2.48.26.6c.09.2.17.4.25.6s.17.4.25.6l.25.6.13.31.13.31.12.31.13.31s0,.1.07.18a1.86,1.86,0,0,1,.1.25,1,1,0,0,1,.06.25c0,.07,0,.12,0,.13s-.06,0-.11,0l-.14-.13-.12-.14a.44.44,0,0,1-.08-.11,1.4,1.4,0,0,1-.1-.16.83.83,0,0,1-.09-.16,1.4,1.4,0,0,0-.1-.16l-.1-.15-.24-.33-.26-.31a2.55,2.55,0,0,0-.26-.3l-.28-.3-.55-.55c-.19-.18-.39-.35-.59-.51a6.5,6.5,0,0,0-.63-.44,6.29,6.29,0,0,0-.67-.37,4.76,4.76,0,0,0-2.17-.43,5.06,5.06,0,0,0-2,.56,6.89,6.89,0,0,0-1.77,1.31,8.19,8.19,0,0,0-1.35,1.86,8.33,8.33,0,0,0-.53,1.18,10.15,10.15,0,0,0-.38,1.22,11.08,11.08,0,0,0-.22,1.26,11.73,11.73,0,0,0-.1,1.31c0,.51,0,1,0,1.52s.09,1,.18,1.5a14.62,14.62,0,0,0,.32,1.46,11.55,11.55,0,0,0,.51,1.43c.27.63.58,1.27.92,1.9s.71,1.25,1.11,1.86a21.17,21.17,0,0,0,1.27,1.72,17.14,17.14,0,0,0,1.42,1.53l.6.54c.2.18.41.35.62.51s.42.33.64.48.44.3.67.45.7.41,1.06.59a11.82,11.82,0,0,0,1.1.48,9.93,9.93,0,0,0,1.14.35,8.25,8.25,0,0,0,1.19.21,5.48,5.48,0,0,0,.7,0,3.33,3.33,0,0,0,1.34-.26,3.34,3.34,0,0,0,.62-.33,6.21,6.21,0,0,0,1.36-1.3,6.69,6.69,0,0,0,.84-1.53,11.3,11.3,0,0,0,.5-1.72c.14-.6.25-1.23.36-1.88a.86.86,0,0,1,.06-.23.12.12,0,0,1,.08-.1.14.14,0,0,1,.12,0,.8.8,0,0,1,.17.15,13.92,13.92,0,0,0,1,1,9.31,9.31,0,0,0,1.2.89,5.89,5.89,0,0,0,1.32.62,3.65,3.65,0,0,0,1.39.18,3.56,3.56,0,0,0,2.22-1,6.28,6.28,0,0,0,1.45-2.15,13.93,13.93,0,0,0,.84-2.66,24.16,24.16,0,0,0,.39-2.53l.06-.73c0-.24,0-.49,0-.74s0-.49,0-.73S182.19,176.06,182.17,175.81Zm-13.39,1.66,0,.17-.06.17c0,.06-.05.11-.07.16l-.1.15a1,1,0,0,1-.25.22.56.56,0,0,1-.28,0,.64.64,0,0,1-.27-.11,1,1,0,0,1-.23-.26,2.06,2.06,0,0,1-.24-.64,2.36,2.36,0,0,1-.05-.7,2.78,2.78,0,0,1,.12-.69,2.47,2.47,0,0,1,.3-.61l.08-.13.08-.12s.05-.09.07-.14,0-.1.05-.15a.13.13,0,0,1,0-.06.11.11,0,0,1,0-.05s0,0,0,0l.05,0a.09.09,0,0,1,.07,0l0,0,0,.06,0,.06c.08.16.15.32.22.49l.18.53c.05.19.1.37.13.55s.06.36.08.53,0,.09,0,.14v.13a.57.57,0,0,1,0,.13.56.56,0,0,0,0,.13Zm2.66-.7-.1.11-.13.08L171,177l-.19,0a.94.94,0,0,1-.58-.17,1.72,1.72,0,0,1-.45-.48,3.22,3.22,0,0,1-.49-1.24,1.77,1.77,0,0,0,0-.2c0-.06,0-.12,0-.2s0-.12-.05-.2a1.29,1.29,0,0,1,0-.19l0-.05v-.05a0,0,0,0,1,0,0,.08.08,0,0,1,0,0l.05,0h0s0,0,0,0l0,0a1.38,1.38,0,0,0,.33.2l.35.11.35.11a1.74,1.74,0,0,1,.33.18,2.27,2.27,0,0,1,.28.26,2,2,0,0,1,.42.64,1.63,1.63,0,0,1,.13.37l0,.2v.18a1.24,1.24,0,0,1,0,.16.83.83,0,0,1-.07.13Zm7.93,8.7,0,0,0,0,0,0,0,0,0,0,0,0,0,0Zm.24-.18Z" fill="#fffef8"/></g><path id="Path_8724" data-name="Path 8724" d="M151.67,166.35a5.52,5.52,0,0,0,.55.26,4.58,4.58,0,0,0,.58.22c.19.07.39.13.58.18s.39.11.59.15a7.09,7.09,0,0,0,.78.14,7.22,7.22,0,0,0,.8.08,7.15,7.15,0,0,0,.8,0c.27,0,.54,0,.8-.06s.28,0,.41-.06l.4-.07.4-.1.4-.1a1.53,1.53,0,0,1,.36-.07h1.14a.61.61,0,0,0,.19,0,.15.15,0,0,0,.09-.06.13.13,0,0,0,0-.12,1.46,1.46,0,0,0-.07-.19l-.15-.28-.16-.28-.16-.28-.15-.29c-.1-.2-.19-.4-.29-.61s-.19-.41-.29-.61-.2-.4-.32-.6-.23-.39-.35-.57a8.19,8.19,0,0,0-.55-.73,7.57,7.57,0,0,0-.61-.66,6.28,6.28,0,0,0-.67-.59,7.25,7.25,0,0,0-.73-.5l-.58-.33c-.19-.11-.39-.2-.58-.29a4.6,4.6,0,0,0-.61-.25c-.21-.08-.41-.14-.62-.2a5.67,5.67,0,0,0-1.16-.15,4.44,4.44,0,0,0-1.09.12,4.86,4.86,0,0,0-1,.4,5.36,5.36,0,0,0-1,.69l-.12.13-.11.15a.43.43,0,0,1-.12.11.18.18,0,0,1-.14,0,.42.42,0,0,1-.16,0l-.15-.1-.16-.1a.51.51,0,0,0-.16-.09.24.24,0,0,1-.15-.13.57.57,0,0,1,0-.18.49.49,0,0,0,0-.17.17.17,0,0,0-.1-.12l-.07,0h-.06l-.07,0-.06,0a.12.12,0,0,1,0,0l0,.06,0,.06,0,.07-.14.24,0,.08a.2.2,0,0,0,0,.08l0,.08v.09a.17.17,0,0,0,0,.1l0,.06.07,0,.1,0a.27.27,0,0,0,.1-.06l.07-.06.08,0a.28.28,0,0,1,.13,0,.88.88,0,0,0,.23.07l.23.05a.49.49,0,0,1,.35.32,1.8,1.8,0,0,1,.1.4c0,.13,0,.27,0,.41l0,.41a2.76,2.76,0,0,0,.06.4,3,3,0,0,0,.12.43,4.08,4.08,0,0,0,.19.42c.07.14.14.27.22.4s.16.26.25.39a4,4,0,0,0,.4.52,3.92,3.92,0,0,0,.46.45,4.91,4.91,0,0,0,.51.39A5.14,5.14,0,0,0,151.67,166.35Z" fill="#45a98c"/><path id="Path_8725" data-name="Path 8725" d="M144.77,164.09l-.54-.17a3.54,3.54,0,0,1-.62-.3,1.35,1.35,0,0,1-.46-.43.75.75,0,0,1-.09-.6.9.9,0,0,1,.13-.32.45.45,0,0,1,.2-.16.87.87,0,0,1,.26-.08l.31,0,.44,0,.5,0a2.67,2.67,0,0,0,.48-.08,1.13,1.13,0,0,0,.39-.17,1.47,1.47,0,0,0,.29-.32,2.22,2.22,0,0,0,.25-.42c.08-.15.15-.3.22-.45s.13-.28.2-.4.18-.3.26-.45.19-.3.28-.46.18-.3.28-.44l.28-.45a2.32,2.32,0,0,0,.14-.23l.15-.24a1.12,1.12,0,0,1,.18-.2.72.72,0,0,1,.21-.12l.14,0h.3l.14,0,.83.13H150l.07,0a.11.11,0,0,1,.07,0,.12.12,0,0,1,.05.05.3.3,0,0,1,0,.08.28.28,0,0,1,0,.09s0,.06,0,.08a.2.2,0,0,1,0,.08.18.18,0,0,1-.05.07l-.06.06-.07.06-.07,0c-.2.15-.4.3-.6.47a10.33,10.33,0,0,0-1.06,1.1c-.17.2-.32.41-.47.62l-.18.28c-.05.1-.1.21-.14.31a1.39,1.39,0,0,0-.1.33,1,1,0,0,0,0,.34.66.66,0,0,0,0,.14.53.53,0,0,0,0,.12.54.54,0,0,0,.05.11l.08.1.1.09.1.09a.39.39,0,0,1,.08.1.33.33,0,0,1,0,.14,1.08,1.08,0,0,1,0,.31,1.55,1.55,0,0,1-.07.31,2.44,2.44,0,0,1-.14.28,2.27,2.27,0,0,1-.18.25,1.32,1.32,0,0,1-.49.31,2.41,2.41,0,0,1-.65.12,3.86,3.86,0,0,1-.76,0A7.37,7.37,0,0,1,144.77,164.09Z" fill="#fffef8"/><path id="Path_8726" data-name="Path 8726" d="M150.18,157.7l0,.05s0,0,0,.05a.43.43,0,0,1,0,0,.2.2,0,0,0,0,.07l-.08,0L150,158l-.17.08-.1.05-.16.09-.15.1-.15.11-.13.12-.11.11-.12.1a.57.57,0,0,1-.13.08l-.14,0a.19.19,0,0,1-.13,0,.09.09,0,0,1,0-.08l0-.12a.69.69,0,0,0,0-.13v-.17a.17.17,0,0,1,0-.07.1.1,0,0,1,.05-.06l.12-.09.13-.11a.69.69,0,0,0,.11-.13.32.32,0,0,0,.08-.12l0-.06s0,0,0,0,0,0,0,0,0,0,0,0h-.24l0,0-.07,0-.06-.05s0,0,0,0l.21-.05.22,0h.22l.21,0,.18,0,.2,0a.71.71,0,0,1,.18.08A.41.41,0,0,1,150.18,157.7Z" fill="#45a98c"/><path id="Path_9603" data-name="Path 9603" d="M181.81,133.51a33.53,33.53,0,0,1-1.25,5,29.35,29.35,0,0,1-2,4.67,25.45,25.45,0,0,1-2.82,4.17,21.45,21.45,0,0,1-7.19,5.66,24.64,24.64,0,0,1-3.91,1.5,27.08,27.08,0,0,1-4.1.83,27.46,27.46,0,0,1-4.15.19,32.88,32.88,0,0,1-4.1-.38,38.84,38.84,0,0,1-4-.87c-1.31-.36-2.61-.79-3.9-1.27s-2.53-1-3.76-1.59l-1.32-.62c-.44-.2-.89-.4-1.34-.57a10.83,10.83,0,0,0-1.36-.45,8.37,8.37,0,0,0-1.4-.24,5.78,5.78,0,0,0-1.44.07,5.58,5.58,0,0,0-1.38.45,4.48,4.48,0,0,0-1.16.81,3.63,3.63,0,0,0-.8,1.18,19.11,19.11,0,0,1-.29-4.14,20.68,20.68,0,0,1,1.94-8,18.59,18.59,0,0,1,2.14-3.52,19.18,19.18,0,0,1,6.25-5.22,18.38,18.38,0,0,1,3.78-1.5,17.62,17.62,0,0,1,4-.62,23.9,23.9,0,0,1,2.93.09c1,.08,2,.2,2.94.33s2,.26,2.94.36a26.92,26.92,0,0,0,3,.16,24.35,24.35,0,0,0,6.29-.87,25,25,0,0,0,6-2.5,24.12,24.12,0,0,0,5.18-4,22.64,22.64,0,0,0,3.91-5.5c.13.56.24,1.1.32,1.66s.15,1.1.2,1.64.11,1.1.17,1.66.11,1.12.19,1.69c.06.82.09,1.64.11,2.46s0,1.64,0,2.47-.09,1.64-.17,2.46S182,132.7,181.81,133.51Z" fill="#45a98c"/><path id="Path_9604" data-name="Path 9604" d="M157.06,156.29h-.73c-.67,0-1.34-.06-2-.12s-1.36-.15-2.05-.26-1.39-.23-2.09-.38-1.4-.33-2.11-.52-1.26-.36-1.9-.57-1.28-.43-1.93-.67-1.31-.5-2-.78-1.32-.57-2-.88l-.14-.06L140,152l-.13-.06-.14-.06-1.14-.53c-.38-.17-.76-.34-1.15-.48a10.54,10.54,0,0,0-1.17-.37,8,8,0,0,0-1.19-.2h-.39a4.9,4.9,0,0,0-1.08.12,4.32,4.32,0,0,0-1.06.38,3.4,3.4,0,0,0-.91.64,2.9,2.9,0,0,0-.63.92.72.72,0,0,1-.11.19.71.71,0,0,1-.15.15.66.66,0,0,1-.19.09.64.64,0,0,1-.2,0h-.09a.58.58,0,0,1-.21-.07.8.8,0,0,1-.19-.13,1.33,1.33,0,0,1-.14-.19,1.13,1.13,0,0,1-.08-.24c-.12-.7-.21-1.41-.26-2.12s-.06-1.44,0-2.16.09-1.45.18-2.16.23-1.44.4-2.15a21,21,0,0,1,.62-2.09,20.54,20.54,0,0,1,.83-2,17.21,17.21,0,0,1,1-1.89,17,17,0,0,1,1.2-1.75,21,21,0,0,1,1.37-1.6c.5-.51,1-1,1.56-1.45a19.81,19.81,0,0,1,7.51-3.93,18.32,18.32,0,0,1,4.14-.64h.43c.5,0,1,0,1.48,0s1,.06,1.48.1,1,.1,1.46.17l1.45.18,1.37.18c.45.05.91.11,1.38.15s.92.08,1.38.11.93,0,1.39,0h.23a24.08,24.08,0,0,0,12-3.48,23.33,23.33,0,0,0,4.84-3.9,21.13,21.13,0,0,0,3.56-5.08.83.83,0,0,1,.13-.18.7.7,0,0,1,.16-.14.82.82,0,0,1,.19-.09.78.78,0,0,1,.21,0h.09a.86.86,0,0,1,.23.06.64.64,0,0,1,.19.13.65.65,0,0,1,.15.18.6.6,0,0,1,.09.22c.1.38.17.75.24,1.13s.13.74.18,1.11.09.74.13,1.11.07.73.11,1.09c0,.19,0,.37.05.56l.06.58.06.57c0,.19,0,.39.08.58v.06c.06.89.1,1.76.11,2.63s0,1.72,0,2.56-.09,1.66-.18,2.47-.19,1.61-.33,2.39-.33,1.74-.55,2.61-.47,1.71-.75,2.54-.6,1.65-1,2.44-.72,1.55-1.12,2.29-.9,1.55-1.41,2.3a24.22,24.22,0,0,1-1.58,2.08,23.49,23.49,0,0,1-1.74,1.86,22.56,22.56,0,0,1-1.9,1.62c-.54.41-1.1.8-1.68,1.16s-1.19.7-1.8,1-1.26.6-1.91.86-1.33.49-2,.7-1.3.37-2,.51-1.33.27-2,.36-1.36.17-2,.22S157.76,156.29,157.06,156.29Zm-22.35-7.6h.49a8.81,8.81,0,0,1,1.35.21c.44.11.87.25,1.3.4s.84.33,1.26.52l1.23.57.13.06.13.06.13.06.14.07c1.35.63,2.7,1.19,4,1.68s2.65.9,3.94,1.24a35.6,35.6,0,0,0,3.83.78,30.8,30.8,0,0,0,3.71.33h.7a27.36,27.36,0,0,0,4-.3,24.26,24.26,0,0,0,3.84-.88,22.75,22.75,0,0,0,3.55-1.44,20.4,20.4,0,0,0,6.47-5.13,25.24,25.24,0,0,0,2.72-3.93,29.79,29.79,0,0,0,2.05-4.58,30.3,30.3,0,0,0,1.3-5.06c.13-.74.23-1.49.31-2.27s.14-1.56.17-2.37,0-1.61,0-2.44-.05-1.67-.1-2.52c0-.2-.06-.4-.08-.59l-.06-.59c0-.2,0-.39-.06-.58s0-.38-.06-.57,0-.37,0-.55,0-.36-.06-.54l-.06-.54c0-.18,0-.35-.07-.53a22.12,22.12,0,0,1-1.66,2.31,22.65,22.65,0,0,1-1.94,2.1,24.53,24.53,0,0,1-2.2,1.88,23.45,23.45,0,0,1-2.44,1.62c-.47.28-1,.54-1.45.79s-1,.48-1.5.7-1,.41-1.54.6-1,.34-1.58.5-1.06.27-1.6.39-1.07.21-1.6.29-1.07.14-1.61.18-1.07.07-1.6.08H160c-.49,0-1,0-1.45,0l-1.44-.11c-.48,0-.95-.1-1.42-.16l-1.4-.18-1.41-.18-1.41-.16c-.48,0-1-.08-1.42-.11s-.95,0-1.41,0h-.4a16.87,16.87,0,0,0-3.87.6,18.38,18.38,0,0,0-9.63,6.45,18.4,18.4,0,0,0-1.87,3,20.09,20.09,0,0,0-1.28,3.28,19.36,19.36,0,0,0-.68,3.47,19.82,19.82,0,0,0,0,3.53l.22-.18.23-.18.25-.16a2.2,2.2,0,0,1,.26-.15,5.79,5.79,0,0,1,.67-.31,5.88,5.88,0,0,1,.71-.23c.25-.06.5-.1.75-.14a6.6,6.6,0,0,1,.77,0Z" fill="#36866e"/><g id="Path_8728" data-name="Path 8728"><path id="Path_9605" data-name="Path 9605" d="M162.74,117l.39.32c.12.12.24.24.35.37a3.91,3.91,0,0,1,.3.41,3.3,3.3,0,0,1,.26.45.37.37,0,0,1,0-.18,1.18,1.18,0,0,1,.07-.2c0-.07.07-.14.1-.2a1.46,1.46,0,0,0,.09-.16,3.81,3.81,0,0,1,.77-1,3.72,3.72,0,0,1,.48-.41,5.84,5.84,0,0,1,.53-.33,4.35,4.35,0,0,1,.59-.25l.62-.19a6.18,6.18,0,0,1,.62-.12c.21,0,.42-.06.63-.08l.63,0,.62,0h2.57l1.32,0,1.33,0,1.33,0a1.43,1.43,0,0,1,.62.11,1.54,1.54,0,0,1,.52.35,1.72,1.72,0,0,1,.34.53,1.61,1.61,0,0,1,.13.65v23.13a1.65,1.65,0,0,1-.13.66,1.9,1.9,0,0,1-.34.54,1.73,1.73,0,0,1-.52.36,1.44,1.44,0,0,1-.62.14l-40.36.31a1.45,1.45,0,0,1-.59-.13,1.52,1.52,0,0,1-.48-.35,1.65,1.65,0,0,1-.33-.52,1.68,1.68,0,0,1-.12-.63V117.89a1.68,1.68,0,0,1,.45-1.16,1.44,1.44,0,0,1,.48-.37,1.31,1.31,0,0,1,.59-.14l10-.26,2.36-.07,2.38-.06,2.38-.06,2.39-.07c.54,0,1.11,0,1.67,0s1.14,0,1.7,0a9.38,9.38,0,0,1,1.67.27,6.85,6.85,0,0,1,1.57.62l.15.09.14.09.15.1Z" fill="#1f3a1d"/><path id="Path_9606" data-name="Path 9606" d="M176.35,142.59l-40.36.28a2.13,2.13,0,0,1-.93-.2,2.44,2.44,0,0,1-.77-.54,2.69,2.69,0,0,1-.51-.82,2.61,2.61,0,0,1-.18-1V117.9a2.69,2.69,0,0,1,.18-1,2.73,2.73,0,0,1,.51-.83,2.53,2.53,0,0,1,.77-.57,2.28,2.28,0,0,1,.93-.23l10-.27,3.16-.08,3.17-.09.79,0,.8,0,.8,0,.8,0h1.07c.5,0,1,0,1.51,0a13.1,13.1,0,0,1,1.53.1,9.53,9.53,0,0,1,1.5.32,6.77,6.77,0,0,1,1.44.61l.18.11.18.11.17.11.16.11.16.13.16.13.16.14.14.14a4.31,4.31,0,0,1,.39-.46,5.81,5.81,0,0,1,.43-.43,5.46,5.46,0,0,1,.48-.36,4.63,4.63,0,0,1,.51-.31h0a5,5,0,0,1,.75-.32c.24-.08.49-.15.74-.21a6.38,6.38,0,0,1,.69-.13l.6-.08.3,0,.31,0h3.24l.47,0h.88l.44,0h.44l.44,0h.44l.45,0h.45a2.37,2.37,0,0,1,1,.18,2.44,2.44,0,0,1,.8.55,2.56,2.56,0,0,1,.55.83,2.82,2.82,0,0,1,.2,1V140a2.78,2.78,0,0,1-.2,1,2.54,2.54,0,0,1-.55.85,2.42,2.42,0,0,1-.8.58A2.46,2.46,0,0,1,176.35,142.59ZM136,117.16a.54.54,0,0,0-.25.06.71.71,0,0,0-.34.37.86.86,0,0,0-.05.27v22.43a.81.81,0,0,0,.05.27.64.64,0,0,0,.14.22.62.62,0,0,0,.2.15.7.7,0,0,0,.25,0l40.36-.34a.75.75,0,0,0,.26,0,.6.6,0,0,0,.22-.16.91.91,0,0,0,.15-.23.86.86,0,0,0,.05-.27V116.82a.87.87,0,0,0-.05-.28,1.07,1.07,0,0,0-.15-.22.55.55,0,0,0-.22-.14.47.47,0,0,0-.26-.05h-.88l-.45,0h-.87l-.44,0h-.45l-.44,0h-3.66l-.28,0-.27,0-.64.08a4.23,4.23,0,0,0-.56.12,4.13,4.13,0,0,0-.5.15l-.44.19a3.54,3.54,0,0,0-.41.26,3.79,3.79,0,0,0-.38.32,2.91,2.91,0,0,0-.33.37,2.7,2.7,0,0,0-.25.4l0,0v0l0,0v0l0,0,0,0,0,0,0,0a.86.86,0,0,1,0,.28,1.23,1.23,0,0,1-.12.26.76.76,0,0,1-.19.21,1,1,0,0,1-.24.15l-.08,0-.08,0H164a1,1,0,0,1-.24,0,.67.67,0,0,1-.23-.1,1,1,0,0,1-.19-.16.86.86,0,0,1-.15-.22,2.9,2.9,0,0,0-.19-.34,2.34,2.34,0,0,0-.24-.31,2.68,2.68,0,0,0-.28-.3l-.32-.27-.11-.08-.12-.08-.13-.08-.13-.07a5.47,5.47,0,0,0-1.17-.49,7.48,7.48,0,0,0-1.25-.25q-.65-.08-1.32-.09c-.44,0-.9,0-1.36,0h-1.07l-.8,0-.8,0-.8,0-.79,0-3.17.08-3.15.08Z" fill="#45a98c"/></g><path id="Apple_Juice" data-name="Apple Juice" d="M140.88,132h.53a.47.47,0,0,0,.17,0,.4.4,0,0,0,.12-.1.33.33,0,0,0,.07-.16.61.61,0,0,0,0-.19l-.85-6a.61.61,0,0,0,0-.18.25.25,0,0,0-.08-.1l-.1-.07h-.14l-1.32,0a.32.32,0,0,0-.14,0,.24.24,0,0,0-.11.06.44.44,0,0,0-.08.11,1.16,1.16,0,0,0,0,.18l-.84,6a.34.34,0,0,0,0,.2.47.47,0,0,0,.06.15.29.29,0,0,0,.12.1.32.32,0,0,0,.17,0h.53l.12,0,.1,0a.31.31,0,0,0,.09-.11.47.47,0,0,0,0-.17l.11-1h1.06l.11.95a.47.47,0,0,0,0,.16.44.44,0,0,0,.08.11l.11.05Zm-1.28-3.41.24-2.53h.09l.25,2.53.11,1.07-.82,0Zm4.4,2a1,1,0,0,1,0,.17.21.21,0,0,1-.06.1.23.23,0,0,1-.1.07.32.32,0,0,1-.14,0l-.13,0a.26.26,0,0,1-.1-.07.24.24,0,0,1-.06-.11.42.42,0,0,1,0-.16v-2.7a.43.43,0,0,1,0-.16l.06-.11.1-.07.14,0a.27.27,0,0,1,.13,0,.17.17,0,0,1,.1.06.24.24,0,0,1,.06.11.44.44,0,0,1,0,.16Zm-1.79,2.9a.78.78,0,0,0,0,.16.35.35,0,0,0,.07.12l.11.08.16,0H143l.15,0a.26.26,0,0,0,.11-.07.37.37,0,0,0,.07-.12.45.45,0,0,0,0-.16v-1.91a1.18,1.18,0,0,0,.21.18l.24.14.25.08.25,0a.87.87,0,0,0,.32-.06.66.66,0,0,0,.27-.19,1.06,1.06,0,0,0,.18-.33,1.32,1.32,0,0,0,.06-.48v-3.4a1.35,1.35,0,0,0-.06-.49.92.92,0,0,0-.18-.32.58.58,0,0,0-.27-.19.7.7,0,0,0-.32,0l-.25,0a1.25,1.25,0,0,0-.25.09l-.24.14a1.9,1.9,0,0,0-.21.19h0a.45.45,0,0,0,0-.16.26.26,0,0,0-.07-.11.28.28,0,0,0-.11-.08l-.15,0h-.44a.41.41,0,0,0-.16,0l-.11.07a.75.75,0,0,0-.07.12,1,1,0,0,0,0,.17Zm5.45-3a.44.44,0,0,1,0,.16.24.24,0,0,1-.06.11.18.18,0,0,1-.1.07.27.27,0,0,1-.13,0,.32.32,0,0,1-.14,0l-.1-.07a.24.24,0,0,1-.06-.11.78.78,0,0,1,0-.16v-2.71a1,1,0,0,1,0-.17.21.21,0,0,1,.06-.1.17.17,0,0,1,.1-.07.32.32,0,0,1,.14,0l.13,0a.24.24,0,0,1,.1.06.3.3,0,0,1,.06.11.5.5,0,0,1,0,.17Zm-1.79,2.91a1,1,0,0,0,0,.16.75.75,0,0,0,.07.12.41.41,0,0,0,.11.07.3.3,0,0,0,.16,0h.44a.41.41,0,0,0,.16,0,.28.28,0,0,0,.11-.08.35.35,0,0,0,.07-.12.41.41,0,0,0,0-.16v-1.91a1.44,1.44,0,0,0,.46.31.81.81,0,0,0,.25.08,1.15,1.15,0,0,0,.26,0,.91.91,0,0,0,.32-.06.83.83,0,0,0,.26-.19.93.93,0,0,0,.18-.34,1.59,1.59,0,0,0,.07-.48v-3.41a1.59,1.59,0,0,0-.07-.48.89.89,0,0,0-.18-.33.68.68,0,0,0-.26-.18,1,1,0,0,0-.32-.06,1.17,1.17,0,0,0-.26,0,1.25,1.25,0,0,0-.25.09,1,1,0,0,0-.24.14l-.22.19h0a.78.78,0,0,0,0-.16.35.35,0,0,0-.07-.12.26.26,0,0,0-.11-.07.41.41,0,0,0-.16,0h-.44a.41.41,0,0,0-.16,0l-.11.08a.35.35,0,0,0-.07.12.41.41,0,0,0,0,.16Zm4.86-8.84a.88.88,0,0,0,0-.16.54.54,0,0,0-.07-.13l-.11-.07a.44.44,0,0,0-.16,0h-.45a.4.4,0,0,0-.15,0,.21.21,0,0,0-.11.08.24.24,0,0,0-.07.12.47.47,0,0,0,0,.17v6.84a.45.45,0,0,0,0,.16.24.24,0,0,0,.07.12.28.28,0,0,0,.11.08.39.39,0,0,0,.15,0h.45a.45.45,0,0,0,.16,0l.11-.08a.75.75,0,0,0,.07-.12,1,1,0,0,0,0-.17Zm3.71,3a1.56,1.56,0,0,0-.1-.57.93.93,0,0,0-.29-.39,1.21,1.21,0,0,0-.47-.23,2.77,2.77,0,0,0-1.28,0,1.05,1.05,0,0,0-.47.24.9.9,0,0,0-.29.4,1.59,1.59,0,0,0-.1.57v3a1.59,1.59,0,0,0,.1.57.9.9,0,0,0,.29.4,1.21,1.21,0,0,0,.47.23,2.73,2.73,0,0,0,.64.07,2.3,2.3,0,0,0,.64-.09,1.24,1.24,0,0,0,.47-.24,1,1,0,0,0,.29-.4,1.59,1.59,0,0,0,.1-.57v-.16a.88.88,0,0,0,0-.17.25.25,0,0,0-.08-.12.28.28,0,0,0-.11-.08l-.16,0h-.45l-.15,0-.12.08a.54.54,0,0,0-.07.13.44.44,0,0,0,0,.16v.13a.88.88,0,0,1,0,.16.39.39,0,0,1-.06.11l-.1.07-.14,0a.3.3,0,0,1-.13,0,.17.17,0,0,1-.1-.06.24.24,0,0,1-.06-.11.44.44,0,0,1,0-.16v-1l1.38,0a.58.58,0,0,0,.18,0,.3.3,0,0,0,.13-.09.38.38,0,0,0,.09-.15.58.58,0,0,0,0-.19Zm-1.81.07a.44.44,0,0,1,0-.16.34.34,0,0,1,.06-.12.17.17,0,0,1,.1-.06.31.31,0,0,1,.13,0l.14,0a.21.21,0,0,1,.1.06.3.3,0,0,1,.06.11,1,1,0,0,1,0,.17v1h-.63Zm8-2.5a.51.51,0,0,0,0-.17.37.37,0,0,0-.07-.12.24.24,0,0,0-.12-.07.4.4,0,0,0-.15,0h-.6a.41.41,0,0,0-.16,0,.36.36,0,0,0-.12.08.33.33,0,0,0-.07.13.47.47,0,0,0,0,.17v5.08a.57.57,0,0,1,0,.18.29.29,0,0,1-.08.14.45.45,0,0,1-.14.1.71.71,0,0,1-.2,0,.45.45,0,0,1-.2,0,.26.26,0,0,1-.14-.09.42.42,0,0,1-.09-.14.57.57,0,0,1,0-.18v-.78a.44.44,0,0,0,0-.16.54.54,0,0,0-.07-.13.37.37,0,0,0-.12-.07.29.29,0,0,0-.16,0h-.6a.47.47,0,0,0-.16,0l-.11.08a.33.33,0,0,0-.07.13.47.47,0,0,0,0,.17v.77a2,2,0,0,0,.12.68,1.21,1.21,0,0,0,.34.47,1.39,1.39,0,0,0,.56.27,3.34,3.34,0,0,0,1.54,0,1.57,1.57,0,0,0,.56-.29,1.15,1.15,0,0,0,.34-.48,1.6,1.6,0,0,0,.12-.68Zm.73,5.52a1.35,1.35,0,0,0,.06.49.92.92,0,0,0,.19.33.71.71,0,0,0,.27.18.88.88,0,0,0,.33.06,1.07,1.07,0,0,0,.25,0,1.34,1.34,0,0,0,.26-.09,1.2,1.2,0,0,0,.24-.15,1,1,0,0,0,.22-.19h0a.41.41,0,0,0,0,.16.24.24,0,0,0,.07.12.25.25,0,0,0,.12.08.39.39,0,0,0,.15,0H164l.16,0,.12-.08a.75.75,0,0,0,.07-.12,1,1,0,0,0,0-.17V126.5a.47.47,0,0,0,0-.17.75.75,0,0,0-.07-.12.37.37,0,0,0-.12-.07.3.3,0,0,0-.16,0h-.46a.4.4,0,0,0-.15,0,.36.36,0,0,0-.12.08.37.37,0,0,0-.07.12.51.51,0,0,0,0,.17v3.73a.41.41,0,0,1,0,.16.27.27,0,0,1-.06.12.26.26,0,0,1-.1.07l-.14,0a.36.36,0,0,1-.14,0,.27.27,0,0,1-.1-.06l-.06-.11a.88.88,0,0,1,0-.16v-3.74a.44.44,0,0,0,0-.16.75.75,0,0,0-.07-.12.37.37,0,0,0-.12-.07.45.45,0,0,0-.16,0h-.45a.45.45,0,0,0-.16,0l-.11.08a.32.32,0,0,0-.08.12.88.88,0,0,0,0,.16Zm5-4.16a.3.3,0,0,0,0-.16.54.54,0,0,0-.07-.13.37.37,0,0,0-.12-.07.45.45,0,0,0-.16,0h-.46a.4.4,0,0,0-.15,0,.36.36,0,0,0-.12.08.24.24,0,0,0-.07.13.47.47,0,0,0,0,.17v4.71a.51.51,0,0,0,0,.17.29.29,0,0,0,.07.12.25.25,0,0,0,.12.08l.15,0H166l.16,0,.12-.08a.54.54,0,0,0,.07-.13.33.33,0,0,0,0-.17Zm-1.3-1.68a1,1,0,0,0,0,.3.7.7,0,0,0,.15.23.71.71,0,0,0,.22.15.64.64,0,0,0,.28,0,.92.92,0,0,0,.28-.05.82.82,0,0,0,.22-.16.79.79,0,0,0,.14-.23,1,1,0,0,0,0-.3.94.94,0,0,0,0-.3.59.59,0,0,0-.14-.23.54.54,0,0,0-.22-.15.92.92,0,0,0-.28,0,.64.64,0,0,0-.28.06.6.6,0,0,0-.22.16.61.61,0,0,0-.15.23,1,1,0,0,0,0,.3Zm5.09,2.47a1.42,1.42,0,0,0-.1-.58,1,1,0,0,0-.29-.4,1.26,1.26,0,0,0-.48-.23,2.46,2.46,0,0,0-.66-.06,2.37,2.37,0,0,0-.65.09,1.35,1.35,0,0,0-.48.24,1,1,0,0,0-.29.41,1.45,1.45,0,0,0-.1.58v3a1.42,1.42,0,0,0,.1.58.9.9,0,0,0,.29.4,1.19,1.19,0,0,0,.48.23,2,2,0,0,0,.65.07,2.5,2.5,0,0,0,.66-.09,1.15,1.15,0,0,0,.48-.24,1,1,0,0,0,.29-.41,1.42,1.42,0,0,0,.1-.58v-.65a.88.88,0,0,0,0-.17.25.25,0,0,0-.08-.12.28.28,0,0,0-.11-.08.31.31,0,0,0-.16,0h-.46a.41.41,0,0,0-.16,0,.36.36,0,0,0-.12.08.33.33,0,0,0-.07.13.47.47,0,0,0,0,.17v.61a.88.88,0,0,1,0,.16.34.34,0,0,1-.06.12l-.1.07-.14,0a.32.32,0,0,1-.14,0,.21.21,0,0,1-.1-.06.24.24,0,0,1-.06-.11.5.5,0,0,1,0-.16v-3a.41.41,0,0,1,0-.16.23.23,0,0,1,.06-.12l.1-.07a.32.32,0,0,1,.14,0,.36.36,0,0,1,.14,0,.27.27,0,0,1,.1.06.39.39,0,0,1,.06.11.88.88,0,0,1,0,.16v.61a.47.47,0,0,0,0,.17.24.24,0,0,0,.07.12.25.25,0,0,0,.12.08.41.41,0,0,0,.16,0h.46l.16,0a.26.26,0,0,0,.11-.07.35.35,0,0,0,.08-.13,1,1,0,0,0,0-.17Zm3.82-.07a1.61,1.61,0,0,0-.1-.58,1,1,0,0,0-.3-.4,1.26,1.26,0,0,0-.48-.23,2.46,2.46,0,0,0-.66-.06,2.5,2.5,0,0,0-.66.09,1.28,1.28,0,0,0-.48.24,1,1,0,0,0-.29.41,1.48,1.48,0,0,0-.1.58v3a1.34,1.34,0,0,0,.1.59,1,1,0,0,0,.29.4,1.42,1.42,0,0,0,.48.23,2.46,2.46,0,0,0,.66.06,3,3,0,0,0,.66-.08,1.3,1.3,0,0,0,.48-.25,1.17,1.17,0,0,0,.3-.4,1.7,1.7,0,0,0,.1-.59v-.17a.41.41,0,0,0,0-.16.35.35,0,0,0-.08-.13.24.24,0,0,0-.12-.07.4.4,0,0,0-.15,0h-.47a.45.45,0,0,0-.16,0,.28.28,0,0,0-.12.08.27.27,0,0,0-.07.13.45.45,0,0,0,0,.16v.13a.33.33,0,0,1,0,.17.24.24,0,0,1-.06.11.23.23,0,0,1-.1.07.32.32,0,0,1-.14,0,.22.22,0,0,1-.14,0,.21.21,0,0,1-.1-.06.41.41,0,0,1-.07-.11.43.43,0,0,1,0-.16v-1l1.41,0a.58.58,0,0,0,.19,0,.52.52,0,0,0,.24-.24.75.75,0,0,0,0-.2Zm-1.87.07a.78.78,0,0,1,0-.16.24.24,0,0,1,.07-.12.2.2,0,0,1,.09-.07.26.26,0,0,1,.15,0,.2.2,0,0,1,.13,0,.17.17,0,0,1,.1.06.41.41,0,0,1,.07.11.88.88,0,0,1,0,.16v1h-.65Z" fill="#faf5b1"/></g><g id="Group_1788" data-name="Group 1788"><path id="Path_10169" data-name="Path 10169" d="M138.88,183.2c.08-.14-.14-.56-.33-.7-1.1-.81-.87-1.63-.44-2.8.61-1.66.44-3.31-1.91-3.54-.77-.07-1.6-.19-1.78-1-.73-3.28-4.19-3.44-6.16-5.31-1.43-1.37-4-1.56-6.28-1.54a2.39,2.39,0,0,1-2.51-1.59c1.27.09,2.19-.62,3.33-.23a1.71,1.71,0,0,0,2.2-.61c1-2.2,3.49-3.06,4.45-5.3.41-1,.1-2,1-3,2.09-2.33,2.47-8.45.62-11-1.46-2-1.33-5.38-4.64-5.88-3.48-.53-1.71-5-4.6-6a.43.43,0,0,1-.23-.14c-.85-1.76-3.24-2.55-3.23-4.8a2.31,2.31,0,0,0-1.43-2.34,2.12,2.12,0,0,1-1.27-1.68c-.13-2.49-2.05-3.4-3.88-3.93a2.35,2.35,0,0,1-2-2.68h0c0-.26.64-.33.13-.78-2-1.79-2.78-5-6.1-5.44-.55-.07-1-1-1.44-1.55a4.15,4.15,0,0,0-2.33-1.76,7.56,7.56,0,0,1-3.86-2.78c3-2,4.4-5.07,6.24-7.87,1.36-2.07,2.7-3.88,2.32-6.47a3,3,0,0,1,.65-2.54c1-1.13.77-2.21,0-3.45-1.4-2.27-.89-3.36,1.76-3.92,1.14-.24,2.33-.25,3.49-.39,2.95-.37,5.2-1.5,6.52-4.5.9-2,1.56-4.16,2.31-6.23,1.34-3.71,1.83-7.41-2.44-9.83-.2-.11-.2-.52-.38-.7-2.23-2-3.7-4.85-7.07-5.58-3-.65-5.92-2.4-8.72.48a1.85,1.85,0,0,1-2,.47,2,2,0,0,0-2.54,1.18l0,.14c-.57,1.26-1.05,1.16-2.37.3-2-1.27-3.68-2.7-5.47-4.12-.86-.68-1.55-1.82-2.93-2.11-4-.86-8.09-1.87-12.08-3s-8.06,1.35-12.12.16c-.73-.21-1.12.57-1.43,1.07-1.16,1.87-1.88.73-2.65-.32h0V47.92c.63-.32.68-1.2.35-1.31-2.42-.87-3.33-4-6.19-4.14-2-2.35-5.09-1.27-7.55-2.32-1-.42-3.37.1-3.52,1.31-.44,3.56-4,3.35-5.79,5.25-2.35,2.48-4.46,8.35-2.78,11.43a13.26,13.26,0,0,1,.51,1.23c1,2.33,1,5.21,3.53,6.64,3.23,1.8,1.83,5.4,1.34,7-.64,2.2-1.6,4.38-2.09,6.8-.93,4.54.54,8.83.69,13.23,0,.21.27.46.48.6,1.34.94,1.47,2.36,1.53,3.8h0c0,1,.85,1,1.43,1.33,1.16.72,2.15,2.23,1.6,3.1-.88,1.41-.73,3.42-2.42,4.34-1.58,0-3.17,1.3-2.84,2.29.64,1.91-.7,2.06-1.51,2.79h0c-2.64.55-3.76,3.2-6,4.29l-.58.41h0c-3,.82-4.72,3.56-7.26,5.07s-2,5.32-5.35,6c-.35.07,0,.81.1,1.24a1,1,0,0,1-.24,1.23c-1.69,1.17-1.75,3.37-3,4.78-1.73,1.87-.28,4.69-1.81,6.46-1.8,2.1.43,5-1.73,7-.41.37.33,1.36.84,1.5,2.9.8,2.27,2.66,1.6,4.65a26.71,26.71,0,0,0-.41,2.66c-.51,2.45,1.29,4.77.19,7.36-.43,1,1,2,2.3,1.94a2.64,2.64,0,0,1,2.75,1.94c.68,2.34,1.87,2.74,3.86,1.7,1.26,1.84,2.81,3.22,5.19,3.23a2,2,0,0,1,1.87,1.36c1.76,4.84,4.23,9.4,5.62,14.39h0c-.6,3.47.46,6.79,1.27,10.06.28,1.15-.1,3.2,2,3.56,0,.39.08.77.11,1.16-.13.34.07.43.35.44,1.79,1.64,2.58,4.8,6,3.89a5.67,5.67,0,0,1,.59-1,5.67,5.67,0,0,0-.59,1c1.56,0,1.06,2.68,2.74,2.36,6-1.17,12.16-1.09,17.94-3.3,5.25,1.15,8.12-2.66,11.58-5.4,1.81-1.44,1.55-3.35,2.05-5.13l1.68-.07c1.26.12,2.51.7,3.78,0a15.8,15.8,0,0,0,6-.68h0c2,1.09,2.62,2.34,2.5,4.87a.49.49,0,0,0,.32.58c2.14,1.23,4.23,2.57,6.85,2.48,2.32,1.2,4.7.17,7,.11,6.64-.17,13.35.3,19.88-1.37,1.55-.4,3.29-.5,4.24-2.12l2.82-1.26c.29.12.45,0,.54-.28l.08-.06c1.83.2,1.93-2.75,4-2.17.52-2.39,3.17-3.38,3.56-6.09C139.51,187.71,137.61,185.54,138.88,183.2Z" fill="#d9a67d"/><path id="Path_10170" data-name="Path 10170" d="M59.54,84.47c-.79-2.34-.17-5.18-2.49-7.08,1.24-1.29,2.35.5,3.39.15,1.32-.43.35-2.27,1.58-3,0,0,1.84,2.06,2,2.26,1.4,2,1.23,4.38.52,6.63-.4,1.25-1.35,1.4-2.56,1.47C61.51,84.93,59.75,85.09,59.54,84.47Z" fill="#955f3e"/><path id="Path_10171" data-name="Path 10171" d="M134.67,188c1.7,1.78.47,3.62.12,5.44h0a4.26,4.26,0,0,0-3.17,5l-.08.05-.55.29L128.19,200c-.08-.05-.23-.1-.23-.14.1-1.32,1.3-3.26-1-3.48-1.28-.13-4-.35-3.2,2.72a.61.61,0,0,1-.43.74.76.76,0,0,1-.16,0c-2.34-.14-4.31,1.26-6.45,1.6-3,.45-6.16,1.18-9-.79a.84.84,0,0,0-.77-.07c-1.8,1.44-3.33.15-5-.42-3-1.05-4.51-.07-5,3.19-2.62.1-4.71-1.25-6.85-2.48a.49.49,0,0,1-.32-.58c.12-2.53-.54-3.78-2.5-4.87.11-.84-.79-.9-1.07-1.4a1.32,1.32,0,0,1,.53-1.79l.1,0c1-.57,1,.37,1,1a2.28,2.28,0,0,0,1.94,2.26c1.19.12.64-1.26,1-1.91.53-1,1.09-1.36,2.16-.82a4.77,4.77,0,0,0,1.8.55,2.13,2.13,0,0,0,2.11-1.38c.26-.87-.61-1.39-1.48-1.55-1.87-.35-1.87-.34-1.8-2.48-1.31.2-2.77,1.65-3.89-.31-.42-.72-.86,0-1.24.35-.74.76-1,.58-.87-.47.19-1.94-1.82.18-2.23-1.2s2.33-.45,1.37-2.19a18.89,18.89,0,0,0-2.57-3.47c-.79-.9-.51-1.66.2-1.94.4-.16,1.43-2,1.92.06.79,1.4,1,1.45,2.24.42s2.74-1.82,4,.2c.49.82,1.15.44,1.61.09a9.6,9.6,0,0,1,6.65-2c-.87-2.31-.15-3.21,2.13-2.88a13.06,13.06,0,0,0,1.29.35c1.45.08,4.37-2,3.84-2.54-1.09-1-1-1.75.24-2.18s1.76.38,2.1,1.51c.24.81,1.56,1.57,1.74,1.08.82-2.32,2.8-1.81,4.42-2.2.67-.16,1.21-.47,1.24-1.21,0-.91-.71-.84-1.3-1-.84-.25-1.86-.38-1.77-1.64l3.16.06c.15.1.43.18.44.28.26,3.43,3.4,3.07,5.45,4,.87.42,1.8.37,1.21,1.68-1.57-.47-2.74-.83-3.43,1.53-1.16,4,2.7,1.32,3.45,2.81v-4.33c.65.32,2.69-.73,1.37,1.52-.38.65.5,1.25,1.12,1.1,1.87-.43,3.32-.49,3.4,2.06,0,.24.87.45,2.08,1-2.07.08-2.93,1.18-4.2,1.49-.43.11-.88.38-.77.93a.76.76,0,0,0,1.08.49c1.76-1.1,3.33.7,5.07.22,1.21-.34,1.89,1.1,1.48,1.59-1,1.2,0,2.7-.93,3.76-.55-.73-.73-1.86-2-1.75-.48,0-1.06-.59-1.44,0a1.2,1.2,0,0,0,.23,1.69h0C132.42,187.49,133.17,189,134.67,188Zm-28.79-4.37,0,0c-.29-1,1.07-2-.1-2.94-.85-.65-1.89-.24-2.85-.32.3,1.66-2.34,1.55-2,3.26-1.63,1-2.88,2.77-5.17,2.41-.36,0-.72.54-.68,1a1.28,1.28,0,0,0,.36.6c1.85-1,3.43.85,5.45.36,2.49-.61,3.75-2.15,5-4l.17-.16-.27-.32ZM91.4,183.1c-1,.18-2.18-.55-2.83.72-.12.25,0,.9.14,1,1.14.38,1.43-1.25,2.51-1.12.54.83,1.71,2.22,2,1.88,1.23-1.36,3.14-.43,4.2-1.5.65-.66,2.07-1.51,1.08-2.68s-1.88.27-2.51.72A6.67,6.67,0,0,1,91.4,183.1Zm18.32-4.37-.21-.12.22.11c.31,2.19,2.73,2.91,3.55,2.31,1.75-1.27,2.71-.26,4.24.35-1.33-.73,1-2.16-.71-2.5s-3.38-.75-4.36,1.51l-1.81-5C110,176.85,110.78,178,109.72,178.73Zm18.54,10.35c-1.07.12-1.89-.36-1.95-1.39-.09-1.46,1.47.27,1.73-.77-.82-2.52-2.17-4.4-5-5a2.17,2.17,0,0,0-2.77,1.33,2.43,2.43,0,0,0-.12.8c0,.68,1.11,1.33.22,1.74-2.38,1.1-1.59,3.11-1.2,4.67a2,2,0,0,1-1.07,2.54,44.12,44.12,0,0,0,6.87-1.95c1.15-.47,3.2.35,3.32-2,.63-.2,1.58.44,1.9-.74C129.19,187.85,128.46,187.81,128.26,189.08Zm-12.63-4.85c.84,2.36-2.17,1.13-1.83,2.52a2.29,2.29,0,0,0,2.39,1.57,2.09,2.09,0,0,0,1.64-2.17C117.76,185,116.35,185.34,115.63,184.23Zm-15.88,5.15c1.1.93,2,1.86,3.41.91.48-.32.76-1,.29-1.38-1.27-.93-2.41-.13-3.7.47ZM87,180.73a1.5,1.5,0,0,0,1.57,1.08c.08,0,.27-.31.23-.38A1.39,1.39,0,0,0,87,180.73Z" fill="#bd865e"/><path id="Path_10172" data-name="Path 10172" d="M47.51,171c.53.14,1.39.61,1.05.91-1.59,1.39-1.4,3.72-2.75,5a3.58,3.58,0,0,0-1.12,2.28,18.64,18.64,0,0,0,.25,6.45c-.65.69-3.57.1-1.77,2.7l-1.65.14c-.91-.36-2.26,1.4-2.87-.68-.16-.55-1-.41-1.33.11-.63,1-1.2,2.27-.06,2.9,2.66,1.5,1.64,2.86.1,4.26-.64.59,0,1.16-.21,1.74-.37,1.2.29,2.91-2.75,2.92,3.56,1.42,1.75,1.85.72,2.4-2.06-.37-1.69-2.42-2-3.57-.81-3.27-1.87-6.58-1.27-10.06,1.3-.5,1.1-3,3.22-2.41-.64-1.49-.06-2.82.53-4.15,1.48-.16.91-1.32,1-2.13a6.35,6.35,0,0,1,3.86-3.42c.89-.36,2.08-.7,2.14-2C43.92,172.69,45.17,171.06,47.51,171Z" fill="#d9a67d"/><path id="Path_10173" data-name="Path 10173" d="M67.74,201.47a5,5,0,0,1,1.44-2.54c1.72-1.9,1.22-5.69-.9-7.35.51-.77,2.52.1,2-1.29s.85-3.8-2-3.94h0c.23-1.51-1.14-2.59-1.07-4.12,0-.51-.78-1.09.3-1.37.74-.19,1.55-.8,2.16.21.17.3.11.92.31,1,3.17,1.27,3.09,3.06,1.12,5.45a1.36,1.36,0,0,0,.61,1.8,2.06,2.06,0,0,0,.35.12c1.41.27.63-.76.75-1.35.36-1.77,2.77-1.34,3.34-3,.48.2,1.16.2,1.3.83.3,1.4,0,2.84.31,4.29s-1,2.17-2.17,2.95a3.67,3.67,0,0,0-1.32,2.42c-.07.6,1,.54,1.6.54-.5,1.77-.24,3.68-2,5.12-3.47,2.75-6.33,6.56-11.58,5.4.12-.33.26-1,.35-.94,2.13.2,3-2,4.78-2.44C68.86,203,67.93,202.13,67.74,201.47Z" fill="#bd865e"/><path id="Path_10174" data-name="Path 10174" d="M97,203.37c.48-3.26,2-4.24,5-3.19,1.63.57,3.16,1.86,5,.42a.84.84,0,0,1,.77.07c2.84,2,6,1.24,9,.78,2.14-.33,4.11-1.73,6.45-1.6a.59.59,0,0,0,.6-.61.39.39,0,0,0,0-.15c-.78-3.07,1.93-2.85,3.21-2.73,2.26.22,1.07,2.17,1,3.49,0,0,.15.09.23.13-1,1.63-2.7,1.73-4.24,2.12-6.54,1.68-13.24,1.2-19.88,1.38C101.73,203.53,99.35,204.56,97,203.37Z" fill="#955f3e"/><path id="Path_10175" data-name="Path 10175" d="M40.52,95.34c1-1.5-1.18-1-1.15-2,.48-.43,1.09-.15,1.65-.2,1.56-.25,3-1.22,4.84-.67-1.1,1.23.23,3.21-1.78,4.35-1,.55.82,4.45,2.12,4.39,2.15-.09,2,1.13,1.62,2.57.89-.11.85-1.28,1.69-1.41s2.06,1.24,2.47,1.88a2.52,2.52,0,0,1,.37,2.15,2,2,0,0,1-2.49,1.24l-.07,0c-.65-.33-.75-.92-1.12-1.47a1.85,1.85,0,0,0-1.17-.93c-1.26-.48-2.66-.53-3.84-1.24a.48.48,0,0,0-.68.09.47.47,0,0,0-.11.26c-.63,2.75-2.68,2-4.5,1.89,1.68-.91,1.53-2.92,2.42-4.33.55-.88-.45-2.39-1.6-3.1-.59-.36-1.48-.32-1.43-1.33a2.25,2.25,0,0,0,2.7-1.7A3.11,3.11,0,0,0,40.52,95.34Z" fill="#bd865e"/><path id="Path_10176" data-name="Path 10176" d="M67.74,201.47c.19.66,1.12,1.48-.33,1.83-1.79.42-2.66,2.63-4.78,2.44-.09,0-.24.61-.36.94-5.78,2.2-12,2.13-17.94,3.3-1.68.32-1.18-2.3-2.74-2.36a5.57,5.57,0,0,1,3.35-2.94l2.11.22c.93,2.32,2.9.4,3.94.93,2.38,1.21,4.31.06,6.41-.34,2.5-1.08,5-2.14,7.5-3.27A7.44,7.44,0,0,1,67.74,201.47Z" fill="#955f3e"/><path id="Path_10177" data-name="Path 10177" d="M77.58,196.08c1.35-3.14,1.61-6.47,2.1-9.8.24-1.6-.48-4.85,2.76-5.37.3,5.11-.64,10.15-1.08,15.21C80.09,196.77,78.84,196.19,77.58,196.08Z" fill="#bd865e"/><path id="Path_10178" data-name="Path 10178" d="M48.13,48.49c.56-.85,2.19,2.47,2.2-.56h0c1,0,.92.94,1.41,1.37s.76,1.39,1.65,1.06.3-1.08.48-1.57c.64-1.76,2.28-.41,3.38-.88v1.68c-1.23,1.54-1.23,1.54.88,2.49-1.27,2.21-3,2.53-5.11,1.3-1.37-1-2.22-2.73-4.2-3C48.07,50.23,48.08,49.23,48.13,48.49Z" fill="#bd865e"/><path id="Path_10179" data-name="Path 10179" d="M28,115.61l-.57.42Z" fill="#d9a67d"/><path id="Path_10180" data-name="Path 10180" d="M73.32,160.57c.56.25,1.43,0,.81,1.31-1,2-.71,4.09,1.5,5.4,1.69,1,1.59,2.91,2.22,4.43a1.21,1.21,0,0,1-1,1.41,1,1,0,0,1-1.26-.74v0c-.08-2.94-3-4.2-3.88-6.63C71,163.9,71.93,160.67,73.32,160.57Z" fill="#bd865e"/><path id="Path_10181" data-name="Path 10181" d="M96.56,111.13a1.83,1.83,0,0,1,2,1.06c.91,1.62-.26,4,2.09,5.18.28.13-.66,1.09-1.32,1.41-1.28-1.46-2.71-2.61-4.84-2.2l0,0c-.2-1.58,1.87-3,.19-4.82C94.27,111.36,95.82,111.21,96.56,111.13Z" fill="#bd865e"/><path id="Path_10182" data-name="Path 10182" d="M57.93,147.26a6.24,6.24,0,0,0-2.54,4.11c-.17.82-.72,1.46-1.23,1.31a4.32,4.32,0,0,1-2.8-2.17c-.47-.95.42-.91.93-1.21C56,147.15,56,147.14,57.93,147.26Z" fill="#bd865e"/><path id="Path_10183" data-name="Path 10183" d="M72.54,175.54a2.33,2.33,0,0,0-.53-.07c-2.94.25-3.39-1.27-2.62-3.66-.08-1.68,1.15-2.65,2.13-3.85C71.42,170.59,73.14,172.9,72.54,175.54Z" fill="#bd865e"/><path id="Path_10184" data-name="Path 10184" d="M30.08,121.9c1.82,2-.91,2.63-1.23,4.07-.65-1.28-2.54-1.86-1.9-3.7.32-.9,1.09-.06,1.61-.26Z" fill="#d9a67d"/><path id="Path_10185" data-name="Path 10185" d="M89.12,162.91a2.67,2.67,0,0,0,.22-.36s-.11-.1-.17-.15c-.14-.85.07-1.52,1.06-1.42.6.06.84.62.89,1.21a1.65,1.65,0,0,1-.91,1.83C89.33,164.36,89.39,163.38,89.12,162.91Z" fill="#d9a67d"/><path id="Path_10186" data-name="Path 10186" d="M48.15,139.49c-.12,1.29,1.38.78,1.81,1.59-.88.92-2.34.36-3.41,1.95.21-1.84.08-3.06,1.59-3.54Z" fill="#bd865e"/><path id="Path_10187" data-name="Path 10187" d="M94.45,116.59l1.65,1.81-3.68-.27a1.92,1.92,0,0,1,2-1.52Z" fill="#bd865e"/><path id="Path_10188" data-name="Path 10188" d="M61.75,156.4c-1.12-.36-2.33,1.31-3.5-.2,1.27-.8,2.43-1.15,3.53.16Z" fill="#bd865e"/><path id="Path_10189" data-name="Path 10189" d="M108.08,150.38l.24-.24c0,.05,0,.12,0,.15a.85.85,0,0,1-.19.1Z" fill="#bd865e"/><path id="Path_10190" data-name="Path 10190" d="M42.69,138.39l-.13.23.14-.21Z" fill="#bd865e"/><path id="Path_10191" data-name="Path 10191" d="M61.79,156.36l.22.26-.26-.22Z" fill="#bd865e"/><path id="Path_10192" data-name="Path 10192" d="M73.75,99.71A9.39,9.39,0,0,1,64.09,98L64,98l-2.19-3.17c.21-3.43,2.08-5.27,5.38-5.46a14.71,14.71,0,0,1,8.3,2c2,1.1,2.42,2.79,2.63,4.71a2.26,2.26,0,0,1-1.76,2.65l-.28,0C75.19,98.83,74.28,98.79,73.75,99.71Z" fill="#955f3e"/><path id="Path_10193" data-name="Path 10193" d="M49.68,83.36c.12-.84.06-1.89.19-2.43a4.09,4.09,0,0,1,1.75-2.64,2.28,2.28,0,0,1,2.92.47,3.2,3.2,0,0,1,.29,2.4,5.67,5.67,0,0,0-.11,2.46A2.37,2.37,0,0,0,55.86,85c.59.33,1.2.15,1.77.35,1.26.44,0,1.77-.59,2.19L53.52,90c-.83.56-2.19,1.16-2.75,2a9.31,9.31,0,0,0-.81,2.4,7.67,7.67,0,0,0,.78,6.73,2.84,2.84,0,0,1,.4.82.81.81,0,0,1-.24.83c-.57.43-1.11-.45-1.56-.16-.29.18-.15,1.06-.33,1.37a.79.79,0,0,1-1.06.34h0c-.58-.46.31-1.53.07-2.21s-1.05-.86-1.79-.83c-1.3.06-3.08-3.84-2.12-4.39,2-1.15.69-3.12,1.79-4.36-1.85-.55-3.29.42-4.85.67.07-.35,0-.89.23-1,2.44-1.49,2.53-3.35,1-5.51.59.19,1.14-.13,1.71-.18a11,11,0,0,0,1.9-.22,11.73,11.73,0,0,0,3.39-1.79A1.59,1.59,0,0,0,49.68,83.36Z" fill="#955f3e"/><path id="Path_10194" data-name="Path 10194" d="M48.13,48.49c-.05.74-.06,1.74.68,1.85,2,.31,2.83,2,4.2,3-.16,1.71-2.6.95-2.82,2.59-.59.16-.68.57-.86,1.14-.66,2-2.72,2.58-4.13,1-.73-.8-1.71-.91-2.41-1.58-.38-2.8-.87-3.14-3.41-2.16a20.38,20.38,0,0,0-2.12,1.12c-1.06,0-2-.05-1.58-1.58,2.42.08,3.58-1,3.91-3.5.13-.92.6-1.85.72-2.91.2-1.7,1.16-2.41,2.76-1.07s3,2.42,5.07,2Z" fill="#955f3e"/><path id="Path_10195" data-name="Path 10195" d="M94.76,97.79c-.06,1,1.8.77,1,2s-2.19,1.1-3.46,1c-.75-.06-1.65-.36-1.39-1.26.48-1.7-.33-3.18-.53-4.75-.09-.67-.24-1.62.51-1.49,2.89.52,6-.77,8.72,1.14a2.14,2.14,0,0,1,.79,2.4c-.18,1-1,1.14-1.81,1.29C97.27,98.31,96.14,97.13,94.76,97.79Z" fill="#bd865e"/><path id="Path_10196" data-name="Path 10196" d="M117.38,158l-1.66.08c-1.7.47-1.23-1.47-2.11-1.91,1-1.43-.06-1.22-1-1.52-1.66-.51-3.78-1-2.44-3.65a1.33,1.33,0,0,0-.22-1.53c-.92-1-1.53-1.78.62-1.43a.84.84,0,0,0,1.06-.55.8.8,0,0,0,0-.31c0-.58-.65-.65-1-.56-1.3.29-1.9-.69-2.61-1.38-1.71-1.67,2.65-.65,1.1-2.44-.5-.58-2.88-.95-.68-2.39a1.41,1.41,0,0,1,.24-.13c1.06-.43,1.1-1.18.42-1.9s-1.45-.12-1.8.42c-.6.92-1,1.94-1.46,0-.11-.48-.4-.44-.8-.35-.69.14-1.24,1.92-2.07.3-.36-.72,2-3.64,2.54-3.28,1.29.83,1.67,0,1.92-.85.2-.64.28-1.67-.09-2.06-.59-.63-1.48,0-2.19.28-3.36,1.5-5.56,1.1-7-1.91-.74-1.51.37-3.11,2-4,1-.54,1.4-.62.32-1.93s-3-3.43-1-5.7a2.43,2.43,0,0,1-.08-.53c-1.29-1.45-2.71-2.6-4.83-2.2-.18-1.57,1.87-3,.19-4.8-.4-.43,1.15-.59,1.89-.65a4.24,4.24,0,0,0-2.42-2.47c-1.09-.51-2.29-.39-3-1.51s-.38-2.29-.13-3.46-1.24-.59-1.91-.94a13.36,13.36,0,0,0-2.32-.75h0c-2.1,1.33-.73,3.6-1.43,5.31a5.21,5.21,0,0,0,2.3-1.18,5.21,5.21,0,0,1-2.3,1.18c-1.27,1-2.88,1.76-3.36,3.52C79,110,76.24,109,73,109.08a37.1,37.1,0,0,1-5.27.2,18.54,18.54,0,0,1-4.41-1.18L51.76,104c.05,1.12.42,2.46-.63,3.23-.84.63-1.43-.08-2-.82-1.18-1.68-3.76-1.36-5.51-2.41a.49.49,0,0,0-.69.08.42.42,0,0,0-.1.26c-.63,2.75-2.69,2-4.51,1.89-1.58,0-3.17,1.3-2.84,2.3.63,1.91-.7,2-1.51,2.78-.18,2-2,2.56-3.1,3.8-.55.65-2.65,1.86.32,2,1,0,.59,1.83,1.49,1.9-1.78.67-3.43,1.16-4.17,3.05l1.53-.11c.53-.47,1.53-.66,1.67-.23.34,1,1.08,2.34.18,3.29-2.18,2.31,1.46,3.8.67,5.86,2.82.06,1.24,3.55,3.41,4.35.78.28.63,1.71.39,2.76-.48,2-.71,4.13.85,5.92.83,1.05,1.62,1.41,2.28-.18A2.55,2.55,0,0,1,42,141.85c-1.2,1.6-.92,3.57-2.33,5a2.53,2.53,0,0,0-.1,2.61,11.75,11.75,0,0,1-.06,9.61c-.72,1.78,1.16,1.06,1.64,1.8,1.06,1.62,3.64,1.39,4.89-.07a2.11,2.11,0,0,1,2.6-.8c1.42.85,3.69.59,4.1,2.88a4,4,0,0,0,3.94,3,4,4,0,0,1,3.55,2.1c.7,1.37,1.52,1.83,2.7,1.45,2.13-.69,2,2.19,3.62,2.1,1-1.17,1.87.26,2.82.23-.07-1.68,1.15-2.64,2.13-3.85-.1,2.63,1.62,4.94,1,7.59.76,1.11,1.94,1.85,2.53,3.15s1.87,1.3,3.08,1.16a5.38,5.38,0,0,1,4.29,1.05c.3,5.12-.63,10.15-1.07,15.22a16.05,16.05,0,0,0,6-.69c.1-.83-.8-.9-1.08-1.4a1.3,1.3,0,0,1,.54-1.78l.09-.05c1-.57,1,.37,1,1a2.28,2.28,0,0,0,2,2.26c1.18.12.63-1.25,1-1.9.53-1,1.09-1.37,2.16-.83a4.77,4.77,0,0,0,1.8.55,2.13,2.13,0,0,0,2.11-1.38c.26-.86-.61-1.39-1.48-1.55-1.87-.35-1.87-.34-1.8-2.47-1.31.2-2.77,1.64-3.89-.32-.41-.71-.86,0-1.24.36-.74.75-1,.57-.86-.47.18-1.95-1.83.17-2.24-1.2s2.33-.45,1.37-2.2a19.24,19.24,0,0,0-2.56-3.46c-.8-.9-.52-1.67.2-2,.4-.16,1.42-2,1.91.06a6.65,6.65,0,0,1,3.76-3.23c-1.9-1.4-1.73-3.72.64-4.72,1.25-.53,2.36-1.27,3.61-1.76a5.11,5.11,0,0,0,1-.43c.87-.6.72,2.08,1.6.58.73-1.25-.88-1.58-1.52-2.15-2.53-2.26-2.36-3.66.74-5.26a12.24,12.24,0,0,0,1.39-1c-1.47-3.41-4.37-2.08-6.81-1.88-.35,0-.86.47-1.1,0-.85-1.69-2.75-2.2-3.85-3.58l-.07.08c-.15,3,1.73,5,3.47,7.07-.14-.85.06-1.52,1.06-1.42.59.06.83.61.89,1.21a1.65,1.65,0,0,1-.91,1.82c-.88.34-.82-.63-1.09-1.11-1.39.18-2.62.32-3.65-1.17a2.55,2.55,0,0,0-3-.46c.2-2.71-1.9-5-1.27-7.87.22-1-1-.79-1.64-.78s-.83.53-.54,1.11c.7,1.42-.5,3.07.66,4.5a1.12,1.12,0,0,1-.36,1.54,1.26,1.26,0,0,1-.42.16c-1.21,0-.56-.94-.5-1.59a2.64,2.64,0,0,0-.85-2.44c-.93-.7-.82-1.39-.6-2.35s.38-2-1-2-.57,1.15-.73,1.79c-.45,1.86,1.82,3.58.33,5.54-3.28-4.41-4.41-4.2-8.27,2.2-1.13-1.71-2.2-3.22.69-4.12a2.46,2.46,0,0,0,1.88-2.89c-.29-1.45-1.27-.82-2.28-.42-.39.15-1.3-1-2-1.61-2.32,1.74-2.32,1.74-7.22,1.57-.07-1,1.65-1.44.84-2.71-.33-.52.22-1,.93-.74a1.51,1.51,0,0,0,1.91-.6c.46-1.08,2-1.78,1.64-2.95-.38-1.35-2.06-.75-3-1.24-2.58-1.36-5-.82-7.6-.2a2.42,2.42,0,0,1-2.1-1,3.24,3.24,0,0,1,.51-3.09c.4-.59,1.82-.82,1.07-1.8-.47-.62-1.5-.23-2.31,0a15.12,15.12,0,0,1-2.13.27c-.12,1.29,1.38.78,1.82,1.59-.88.93-2.34.37-3.41,2,.21-1.83.08-3.06,1.59-3.54.69-1.22,2.35-1.74,2-3.8-.14-.91,2.11-.92,3-.88,1.2,0,1.57,1.64,1.78,2.84a3.18,3.18,0,0,1-.27,1.18c.7,1,2.14-1.8,2.49.7.14,1,0,2.41,1.72,3.17-.6-1.56-.35-2.36,1-3.36a5.69,5.69,0,0,0,1.86-5.28c-.14-1.2,0-2.2,1.7-1.67.47.15,2.68-.83,3.61-1.36a1,1,0,0,1,.23-.13c1.11-.38.86,2.32,2.72,1,1.29-.9,1.76.75,2.09,1.88s.4,1.21,3.06,1.47c-.67-1-1.35-1.92-1.89-2.9-1.26-2.32,1-3.94,1.36-6,.16-1,1.81,0,2.56.37a1.62,1.62,0,0,0,1.72.13c.81-.55-.18-1.07-.34-1.48-.74-2-.32-3,1.63-4.08s2.93-1.2,5.3.48c1.67,1.18,3.6.2,5.34,0,3-.31,4.91,1.46,4,4.15a2.85,2.85,0,0,0,.19,2.51c1.37,2.7,2.54,5.49,3.79,8.25l-.09.09c0,.17,0,.33,0,.5.09,1.32,2.2,1.63,1.64,3.28,1.64.81,2.3,2,1.53,3.83-.14.33-.44.83-.32,1,2.1,2.84-1.13,2.93-2.15,3.59-1.57,1-1.33-1.44-2.31-1.88-1.09.9-.77,1.81,0,2.73,1.77.55,1,3.1,2.86,3.54,0,1.27-1.85,0-1.66,1.19s1.33.75,2,.71c1.46-.08,2.6,0,3,1.78a1.21,1.21,0,0,0,1.51.78,1.14,1.14,0,0,0,.51-.32c1.21-1.32,2.3-.15,3.43,0,2.14.23,1.1,1.56.9,2.61-.09.49.23,1.22.51,1,1.86-1.3,3.26.65,4.74.57C116.83,161.6,117.55,159.83,117.38,158Zm-44.06,2.58c.56.25,1.43,0,.81,1.31-1,2-.71,4.09,1.5,5.4,1.69,1,1.59,2.91,2.22,4.43a1.21,1.21,0,0,1-1,1.41,1,1,0,0,1-1.26-.74v0c-.08-2.94-3-4.2-3.88-6.63-.7-1.82.22-5.05,1.61-5.15Zm-11.53-4.2.22.25-.26-.22c-1.12-.36-2.33,1.31-3.5-.2,1.28-.8,2.44-1.15,3.54.16Zm-9.5-7.07c3.67-2.15,3.66-2.16,5.64-2a6.24,6.24,0,0,0-2.54,4.11c-.17.82-.72,1.46-1.23,1.31a4.32,4.32,0,0,1-2.8-2.17c-.47-.95.42-.91.93-1.21Zm-6.87-13.16-2.14.52a2.28,2.28,0,0,1,2.14-1.58c2.18-1,2.31.75,2.79,2.25-1.06-.3-2.52.79-2.79-1.19Zm42.4-30.37a1.12,1.12,0,0,0,.09-.36,1.19,1.19,0,0,1-.09.36Zm4.6,12.37a1.91,1.91,0,0,1,2-1.53l1.63,1.8Zm15.86,32.15-.19.1h0l.23-.24c0,.05,0,.12,0,.15Z" fill="#955f3e"/><path id="Path_10197" data-name="Path 10197" d="M134.67,188c-1.5.95-2.25-.51-3.22-1.08a1.2,1.2,0,0,1-.25-1.69h0c.38-.62,1,0,1.44,0,1.31-.1,1.49,1,2,1.75l0,0a3.24,3.24,0,0,0,0,.44Z" fill="#955f3e"/><path id="Path_10198" data-name="Path 10198" d="M61.82,94.78,64,98C61.85,97.88,60.94,97,61.82,94.78Z" fill="#bd865e"/><path id="Path_10199" data-name="Path 10199" d="M120.65,164a4.81,4.81,0,0,0-.07-.53c-1.66-.7-3.07-.63-3.9,1.26-.4.92-1.23.9-2,.94l.07,1,3.16.07c-.37-2.19,1.08-1.36,2.09-1.26.59,0,1.19.35,1.77,0C121.39,165,121.69,164,120.65,164Z" fill="#955f3e"/><path id="Path_10200" data-name="Path 10200" d="M110.29,79l.71.25-.15.19c-.21-.12-.41-.25-.61-.38Z" fill="#bd865e"/><path id="Path_10201" data-name="Path 10201" d="M76.88,57.29l-.19.05a1.42,1.42,0,0,1,0-.22s.11,0,.18,0Z" fill="#bd865e"/><path id="Path_10202" data-name="Path 10202" d="M138.88,183.2c.08-.14-.14-.56-.33-.7-1.1-.81-.87-1.63-.44-2.8.61-1.66.44-3.31-1.91-3.54-.77-.07-1.6-.19-1.78-1-.73-3.28-4.19-3.44-6.16-5.31-1.43-1.37-4-1.56-6.28-1.54a2.39,2.39,0,0,1-2.51-1.59c1.27.09,2.19-.62,3.33-.23a1.71,1.71,0,0,0,2.2-.61c1-2.2,3.49-3.06,4.45-5.3.41-1,.1-2,1-3,2.09-2.33,2.47-8.45.62-11-1.45-2-1.33-5.38-4.63-5.88-3.49-.53-1.72-5-4.61-6a.43.43,0,0,1-.23-.14c-.85-1.76-3.24-2.55-3.23-4.8a2.31,2.31,0,0,0-1.43-2.34,2.12,2.12,0,0,1-1.27-1.68c-.13-2.49-2.05-3.4-3.88-3.93a2.35,2.35,0,0,1-2-2.68h0c0-.26.64-.33.13-.78-2-1.79-2.78-5-6.1-5.44-.55-.07-1-1-1.44-1.55a4.15,4.15,0,0,0-2.33-1.76,7.56,7.56,0,0,1-3.86-2.78c3-2,4.4-5.07,6.24-7.87,1.36-2.07,2.7-3.88,2.32-6.47a3,3,0,0,1,.65-2.54c1-1.13.77-2.21,0-3.45-1.4-2.27-.89-3.36,1.76-3.92,1.14-.24,2.33-.25,3.5-.39,3-.37,5.19-1.5,6.51-4.5.9-2,1.56-4.16,2.31-6.23,1.34-3.71,1.83-7.41-2.44-9.83-.2-.11-.2-.52-.38-.7-2.23-2-3.7-4.85-7.07-5.58-3-.65-5.92-2.4-8.72.48a1.85,1.85,0,0,1-2,.47,2,2,0,0,0-2.54,1.18l0,.14c-.57,1.26-1.05,1.16-2.37.3-2-1.27-3.68-2.7-5.47-4.12-.86-.68-1.55-1.82-2.93-2.11-4-.86-8.09-1.87-12.08-3s-8.06,1.35-12.12.16c-.73-.21-1.12.57-1.43,1.07-1.16,1.87-1.88.73-2.65-.32-1.22,1.54-1.22,1.54.88,2.49-1.27,2.21-3,2.53-5.11,1.3-.17,1.7-2.6.94-2.82,2.58l.13.14c1.81.4,3.64.36,5.23,1.9,1,1,2.29-.59,2.64-1.54a2.33,2.33,0,0,1,2.6-1.6c1.23.34.59,1.39.14,2.35a2.67,2.67,0,0,0,.28,2.45c.61.65,1.7.34,2.46-.3,1.6-1.31,4.55,0,5.42-2.8,0-.09.43-.16.43-.15.94,2.47,1.82-.24,2.73-.09,1,1.26-.84,2.12-.33,3.47,1.11-.46,2.48-1.4,3,.67,1-1.46,2.34-.08,3.54-.42,1.46-.4,3.19-.39,1.69,2.15a7.38,7.38,0,0,0-.7,3.92c.07,1.44.57,3,2.62,2.47s2.33,2.46,4.25,2.22c3.62-2.34,5.37-1.91,7.76,1.4a3.8,3.8,0,0,0,3.24,1.06,2.48,2.48,0,0,1,2.36.63c-.08,1.36-1.74-.45-1.68.85,0,.77.74,1.24,1.46,1.44,1.16.33.77,1,.75,1.88-.07,2.38-1.31,4.59-.75,7.06.16.69-.36,1.92-1.42,1s-2.42.13-3.37-1.15c-.24-.32-1,1.62-1.78,2.41s-.58,2-.09,3.14c-1.26-.61-1.75-2.3-3.23-2.08a3.68,3.68,0,0,0-3,2.07c-.45.88-3.89,0-4.69-1a6.84,6.84,0,0,1-2.34-1.79,4.73,4.73,0,0,0-2.19-1.6,31.35,31.35,0,0,0-6.21-1.89c-2.44-.47-5.53-1.1-7.88-.14-.94.38-1.72.92-2.67,1.27a21.4,21.4,0,0,0-3,1.36c-2.36,1.3-5.27,3-5.93,5.74a14.15,14.15,0,0,0,7.78,16.25A26.62,26.62,0,0,0,67,110.52a39.58,39.58,0,0,0,8.63.5,18,18,0,0,0,9.73-3.7c.7-1.71-.67-4,1.43-5.31a14.6,14.6,0,0,1,2.32.75c.67.35,2.13-.1,1.91.94a3.34,3.34,0,0,1-1.16,2.21c-.81.64-1.61,1.29-2.38,2a6.84,6.84,0,0,0-1.89,1.9c-.18.37-.57,1.48-.31,1.88s.67.45.82,0c.67-1.8,2.4-2.33,3.8-3.15,2.18-1.27,6.08.33,6.71,2.58a1.83,1.83,0,0,1,2,1.06c.91,1.62-.26,4,2.09,5.18.28.13-.66,1.09-1.31,1.41a3.21,3.21,0,0,0,.07.53c3,.25,4.12,3,5.54,4.86,1.24,1.65,2.84,3.12,3.7,5.07.1.22.09.59.46.44,2.79-1.14,1.86,1.13,1.94,2.23a4.85,4.85,0,0,0,1.35,3c2.67,3.06,5.89,5.71,6.82,10.12.23,1.07,2.35,2.33,4,2.8.9.26,2.3.08,1.21,1.71-.24.36-.26.65.13.89,3.1,1.95-.38,2.94-.87,4.12-.34.81-2.44,1.43-3.19-1.1-.84,3.45-.84,3.45,2.28,3.34,0-.78-1-.08-1.06-1,.69,0,1.38,0,2.07,0a1.49,1.49,0,0,1,1.52,1.3c.24,1-.69.83-1.22,1s-.65.56-.76,1,0,.68,0,1c-.57,1.38-1.11,2.79-2.71,3.33a4.51,4.51,0,0,1,.07.53c1,0,.74,1,1.09,1.44-.59.39-1.18.07-1.77,0-1-.1-2.46-.92-2.09,1.27.15.09.43.17.43.27.26,3.43,3.4,3.07,5.45,4,.87.41,1.8.37,1.22,1.68.66.33,2.71-.72,1.38,1.53-.38.65.5,1.25,1.12,1.1,1.87-.43,3.33-.49,3.4,2.06,0,.23.87.45,2.08,1-2.06.08-2.93,1.17-4.2,1.49-.42.11-.88.38-.77.93a.76.76,0,0,0,.92.55l.17-.06c1.75-1.1,3.32.7,5.07.22,1.2-.34,1.89,1.1,1.48,1.59-1,1.2,0,2.7-.94,3.76l0,0a3.11,3.11,0,0,0,0,.43l.16-.12-.16.12-.09.59c1.7,1.77.48,3.61.12,5.44a4.23,4.23,0,0,0-3.15,5c1.82.2,1.93-2.75,4-2.17.52-2.39,3.17-3.38,3.56-6.09C139.51,187.71,137.61,185.54,138.88,183.2ZM76.69,57.34a1.42,1.42,0,0,1,0-.22s.11,0,.17,0l.06.22Zm23.44,7.24a1.26,1.26,0,0,1,.09-1.23c1.59-1,1-2.38.62-3.55-.51-1.45.74-1.94,1.22-1.65,1,.6,2.72-1.13,3.39,1.59.31,1.29,1.47,4.54,4.46,4.57.7,0,.67.54.76,1.14.21,1.48.3,3.06,1.73,4.06.4.27.67,1,.28,1.15-2.36,1.12-.28,1.87.22,2.65,1.59,2.49,1.46,2.82-1.55,3.5.19,1-1.15,1.21-1,2.15l.7.26a1.25,1.25,0,0,1-.15.19c-.21-.12-.4-.26-.6-.39-1.39-.39-2.6-1.79-4.27-.68a.69.69,0,0,1-1-.24.5.5,0,0,1-.09-.24c-.17-.67.31-1,.82-1.21,1.64-.73,3.38-.22,5.07-.38-.94-1.15-3.39-1.81-.92-4,.87-.76-.61-1.9-.92-2.86s-1.45-.12-2.26.07c.15,1.08,1.62,1.07,1.5,2.35-1.91.06-3.58-1.7-5.64-.9-.44.18-.36-.69-.57-1-1.07-1.63-.52-3.82-1.88-5.37ZM84,99.2c-.1.34-.33.68-.73.54-.14,0-.2-.48-.19-.73s.1-.72.57-.7a.67.67,0,0,1,.36.87Zm3.82-.92c.19.73,1.94-.2,1.44,1.27-.27.8-1.19.7-1.84.92-1.4.48-.89-1-1.4-1.44a1.82,1.82,0,0,1-.29-.45c-2.55-1.66-5.42-2.94-6.69-6-.23-.54-.94-1-.27-1.59,1-.84,1,.69,1.17.64,1.87-.54,3.21,1.2,5,1L88,94.77c2.7.17,1.37,1.24.48,2.2l-.54.53a2,2,0,0,0-.1.78Zm7.91,1.5c-.88,1.27-2.19,1.1-3.46,1-.75-.07-1.65-.36-1.39-1.27.48-1.7-.33-3.17-.53-4.74-.09-.67-.23-1.63.51-1.49,2.89.52,6-.77,8.72,1.14a2.12,2.12,0,0,1,.79,2.4c-.18,1-1,1.13-1.81,1.28-1.28.23-2.4-1-3.78-.3-.07,1,1.79.77,1,2Zm39.36,87.4h0Z" fill="#d9a67d"/><path id="Path_10203" data-name="Path 10203" d="M60.1,102.45l-.21-.27.26.22Z" fill="#bd865e"/><path id="Path_10204" data-name="Path 10204" d="M134.79,193.44l.22.13-.21-.14Z" fill="#bd865e"/><path id="Path_10205" data-name="Path 10205" d="M47.51,171c-2.34.08-3.59,1.71-4.84,3.36-3.05-1.69-6.27-.18-9.4-.37-5.11-.31-4.72-.47-6.86-5.38-1-2.38.87-3.08.59-4.73a10,10,0,0,1,.25-5.37c.23-.58.44-1.21,1.4-1.35.67.77.25,1.82.46,2.72.17.69.48,1,1.06.33h0c1.27.29,1.95-.6,3-1.93-.36,4.42-2.07,8.15-.78,12,.37.76,2.3-1.6,2.17,1.1,0,.4,2.64.6,4.2-.1,2.68-1.21,5.74-.62,8.55-1.36Z" fill="#955f3e"/><path id="Path_10206" data-name="Path 10206" d="M53,182.75c2.54-1.14,3.5,2,5.68,1.82.48,0-.3.7-.27,1.28.15,2.3,1.12,4.6.13,7S55,197,53,196.11c-1.27-.57-2.13-2.23-3-3.54-.66-1,.61-1.25,1-1.84s1.93-1.41-.1-2.06c-.52-.16-.44-.41.61-1.36C54,185.05,54,185.05,53,182.75Z" fill="#d9a67d"/><path id="Path_10207" data-name="Path 10207" d="M56.86,178c-2.54.9-5.44-.39-7.86,1.58a14.24,14.24,0,0,0,2.55-5.44c.87,0,.84.44.93.77.17.65-.37,1.76.54,1.87,1.19.15,1.79-1.08,2.42-1.9s.06-1.06-.79-1.58c-1.16-.72-.51-2.24-.13-3.4a3,3,0,0,1,2.41-2c.38-.1.73.11.61.59-.4,1.54.92,1.79,1.77,2.27s1.9,1.34,1.24,2.36c-.88,1.38-1-1.28-2.32-.37.27,2.41,1.83,5.29-1.14,7.5-.5-.05-.11-.59-.13-.92S57.36,178.54,56.86,178Z" fill="#d9a67d"/><path id="Path_10208" data-name="Path 10208" d="M29.6,143.31c1,1.5,3.91.14,4.33,2.78a6.17,6.17,0,0,0-7.49,3.31c-.09.2-.42.29-.65.43l0,0c-1.66-1.69-1.76-3.81-1.63-6l.52-.58c3.86,2.1.26-2.42,2.21-2.1.08,1.27.92,1.4,2.21,1.1.86-.2.93.05.5,1l-.24-.22Z" fill="#955f3e"/><path id="Path_10209" data-name="Path 10209" d="M32,135.78c-.88,1.52-1.41,3.26-3.53,2.12-.82-.44-1.92.2-2.63,1-.5.53-1.15.88-1.47.07a1.36,1.36,0,0,1,.5-1.87l0,0C27.23,135.19,29.83,137.24,32,135.78Z" fill="#955f3e"/><path id="Path_10210" data-name="Path 10210" d="M36.67,179.81c-.13.81.44,2-1,2.13V182c0-.36-.23-.45-.52-.48-.14-2.81-3.73-1.93-4.56-4.49,1.54,1,2.88,1,4.1-.55C35.21,177.87,34.87,179.58,36.67,179.81Z" fill="#955f3e"/><path id="Path_10211" data-name="Path 10211" d="M16.08,147.38c0-1.9-.19-3.69,2-4.49a1.22,1.22,0,0,1,1.49.24,1,1,0,0,1,0,1C18.52,145.21,18.15,147.06,16.08,147.38Z" fill="#d9a67d"/><path id="Path_10212" data-name="Path 10212" d="M41.52,188.48l1.65-.14c.58.3,1.57.23,1.34,1.31a1.38,1.38,0,0,1-1.61,1.1c-1,0-2,0-3,0C39.71,189.36,41.49,189.55,41.52,188.48Z" fill="#955f3e"/><path id="Path_10213" data-name="Path 10213" d="M24.7,143.28l-.52.58a2.13,2.13,0,0,1-.46-.27c-.6-.59-1.59-1.08-.64-2.12.41-.45.85-1,1.55-.53C25.62,141.66,25.08,142.49,24.7,143.28Z" fill="#d9a67d"/><path id="Path_10214" data-name="Path 10214" d="M15.44,154.21c.28.13.76.22.81.41.13.59-.42.57-.81.66v-1.07Z" fill="#d9a67d"/><g id="Group_1783" data-name="Group 1783"><path id="Path_10215" data-name="Path 10215" d="M17.08,135.13Z" fill="#bd865e"/><path id="Path_10216" data-name="Path 10216" d="M61.77,186.9Z" fill="#bd865e"/><path id="Path_10217" data-name="Path 10217" d="M35.63,181.94v0l0,0Z" fill="#bd865e"/><path id="Path_10218" data-name="Path 10218" d="M33.93,118.47c-.4.18-.81.34-1.2.5A2.14,2.14,0,0,0,33.93,118.47Z" fill="#955f3e"/><path id="Path_10219" data-name="Path 10219" d="M23.61,156.37v0h0Z" fill="#bd865e"/><path id="Path_10220" data-name="Path 10220" d="M66.57,171.58c-1.65.08-1.5-2.79-3.62-2.1-1.18.38-2-.09-2.7-1.46a4,4,0,0,0-3.55-2.09,4,4,0,0,1-3.94-3.06c-.41-2.29-2.68-2-4.1-2.87a2.09,2.09,0,0,0-2.6.8c-1.26,1.45-3.83,1.68-4.89.06-.48-.74-2.37,0-1.64-1.79a11.75,11.75,0,0,0,.06-9.61,2.52,2.52,0,0,1,.1-2.61c1.4-1.42,1.13-3.4,2.33-5a2.54,2.54,0,0,0-2.48,1.81c-.66,1.59-1.45,1.23-2.29.18h0c-1.55-1.78-1.32-3.86-.85-5.92.25-1,.4-2.47-.38-2.76-2.17-.79-.59-4.28-3.41-4.35.79-2-2.85-3.54-.67-5.85.9-1,.16-2.26-.18-3.29-.14-.43-1.14-.25-1.68.22,1.82,2-.91,2.64-1.23,4.07-.65-1.27-2.54-1.86-1.9-3.7.32-.9,1.09-.06,1.61-.26.74-1.88,2.39-2.37,4.17-3.05-.9-.06-.53-1.87-1.48-1.9-3-.09-.88-1.29-.33-1.94,1.06-1.25,2.92-1.83,3.1-3.8-2.63.55-3.76,3.2-6,4.29l-.58.41h0c.14.4.49.85-.1,1.15-1.38.71-3.88,1-1.1,3.17.2.16.18.93-.3.72-1.58-.68-1.24.41-1.05,1.12s-.13,1.12-.7,1.53-1.73.6-.27,1.66c1,.7,1.3.47,2-.18-.55,1.68,1.24,4.23-2.1,4.8-.73.13-.67,1.18-.65,1.92h0c-.59.27-1.28.39-1.62,1.05-2.14-.67-3.15,1-4.4,2.15-.36.55,2.09,1.09,0,1.63h0c-1.35,2.38-3.78,3.6-6.46,5.69,2.23-.24,3.16.35,2.87,2-.24,1.33.71.89,1.33.95l.33-.17-.18.32c-.52,2.48-1.75,5,.18,7.39.25.31.2.85.29,1.28.28.14.77.23.81.42.13.59-.42.57-.81.66-.73,1-1.34,1.74.11,2.8,1.13.84.82,3.33,3.47,2.84a9.19,9.19,0,0,0-1.39,6.9h0c.73.28,1.08-1.16,1.76-.5s-.27,1.44-.2,2.2c1.26,1.83,2.81,3.21,5.19,3.22a2,2,0,0,1,1.87,1.36c1.77,4.84,4.23,9.41,5.62,14.39,1.3-.5,1.1-3,3.22-2.41-.64-1.48-.06-2.8.52-4.13l-.49-.45c-.15-2.82-3.74-1.94-4.57-4.49,1.54,1,2.89,1,4.1-.55.56,1.4.22,3.1,2,3.34a6.3,6.3,0,0,1,3.85-3.42c.89-.36,2.08-.7,2.15-2.06-3-1.68-6.27-.17-9.4-.36-5.11-.31-4.72-.47-6.86-5.38-1-2.38.86-3.09.58-4.74a9.91,9.91,0,0,1,.26-5.37c.23-.57.43-1.21,1.4-1.35.67.78.25,1.83.46,2.73.16.68.47,1,1.05.34h0c1.26.29,1.95-.6,3-1.94-.37,4.43-2.08,8.16-.79,12,.37.77,2.3-1.6,2.18,1.1,0,.4,2.63.6,4.2-.1,2.68-1.2,5.73-.61,8.54-1.35.06.35.12.69.17,1,.54.13,1.4.6,1.06.9-1.59,1.39-1.4,3.73-2.75,5a3.58,3.58,0,0,0-1.12,2.29,18.36,18.36,0,0,0,.25,6.44c-.65.69-3.57.1-1.78,2.7.59.3,1.58.24,1.35,1.31a1.38,1.38,0,0,1-1.61,1.1c-1,0-2,0-3,0-.19-1.37,1.58-1.18,1.62-2.26-.91-.36-2.26,1.4-2.87-.67-.16-.55-1-.42-1.33.11-.64.94-1.2,2.26-.07,2.9,2.67,1.5,1.65,2.85.11,4.26-.65.59,0,1.16-.21,1.74-.37,1.2.29,2.91-2.76,2.91,3.56,1.43,1.76,1.85.73,2.4l.11,1.16.35.44c1.78,1.63,2.58,4.8,6,3.89A5.52,5.52,0,0,1,45,204.67c-.28-1.7-1.34-3.06-1.45-5-.18-3.33,3.14-3.57,4.14-5.79.47-1.06,1.14.43,1.45,1.06s-1.5,2.44,1,1.58c0,.25.22.56.13.74-.59,1.18-.23,2.5.73,2.79s2.34-.33,3.32-1.22c1.63-1.46,3.71-2.38,4.81-4.49.39-.73,1.52-.81,2.44-1,1.59-.3,3.28-.79,1.58-2.9-.45-.55,1-2.76-1.5-1.74-.4.16.35-1.18.15-1.85-1.77.23-2.31-.42-1.59-2.12.45-1.07,1.18-2.06,1.1-3.32,0-.47.17-1,.75-.86,1.12.28,2.17.11,2.37-1.06a10.5,10.5,0,0,0-.23-3.66c0-.29-1.84.16-.72-1.08a2,2,0,0,1,1.73-.5c.72.23.37,1.07.32,1.66a7.88,7.88,0,0,1-.35,1.35C68,176.1,68.21,175.14,66.57,171.58ZM24.92,137.05c2.31-1.86,4.91.19,7.1-1.27-.88,1.52-1.41,3.26-3.53,2.12-.82-.44-1.91.2-2.63,1-.49.53-1.15.88-1.47.07a1.37,1.37,0,0,1,.5-1.87Zm-1.62-4.17a.58.58,0,0,0,.09-.63A.58.58,0,0,1,23.3,132.88Zm-3.71,11.23c-1.07,1.1-1.44,2.95-3.51,3.27,0-1.9-.19-3.69,2-4.49a1.22,1.22,0,0,1,1.49.24,1,1,0,0,1,0,1Zm5.54,8.24c-.66.32.14,1.44.42,2.15a18.53,18.53,0,0,1,.05,5,2.47,2.47,0,0,1-3.24,1.3,2.62,2.62,0,0,1-.51-.3c-.41-.23-1-.6-.66-1.26s.77.11,1,.06c.93-.13,1.23-.63,1.35-1.49.15-1-.3-1.33-1.32-1.58-.33-.09-1.68-.55-1.9-.37l-.27.22.23-.25c.11-.53-.31-1.32.87-1.24s2.14-.77,3-2.13a5.72,5.72,0,0,1-4.14-1.21c0-.89.7-.5.94-.74a4.11,4.11,0,0,1,3.73-.7,3.44,3.44,0,0,0,1.06,0C25.59,150.66,26.57,151.64,25.13,152.35Zm1.31-2.95c-.09.2-.42.29-.64.43-1.65-1.69-1.75-3.8-1.62-6a1.86,1.86,0,0,1-.45-.27c-.6-.59-1.6-1.08-.65-2.12.41-.45.85-1,1.55-.53,1,.72.45,1.55.07,2.34,3.86,2.1.26-2.42,2.21-2.1.08,1.27.92,1.4,2.21,1.1.86-.2.93.05.5,1l0,0c1,1.5,3.9.14,4.33,2.78A6.17,6.17,0,0,0,26.44,149.4Zm32.09,43.41c-1,2.33-3.55,4.2-5.57,3.3-1.27-.57-2.13-2.23-3-3.54-.65-1,.62-1.25,1.06-1.84s1.93-1.41-.1-2.06c-.52-.16-.44-.41.61-1.36C54,185.06,54,185.06,53,182.76c2.54-1.15,3.5,2,5.68,1.82.48,0-.3.7-.27,1.27.15,2.3,1.12,4.6.13,7Zm2-19.63c-.88,1.37-1-1.29-2.33-.38.28,2.41,1.84,5.29-1.13,7.5-.5-.05-.11-.59-.13-.92s.4-.83-.1-1.38c-2.54.9-5.45-.38-7.86,1.58a14.47,14.47,0,0,0,2.55-5.44c.87,0,.84.44.93.77.17.65-.37,1.76.53,1.87,1.19.15,1.8-1.08,2.43-1.89s.06-1.06-.79-1.59c-1.16-.71-.51-2.23-.13-3.4A3,3,0,0,1,56.93,168c.37-.1.73.11.61.59-.4,1.53.92,1.78,1.77,2.27s1.89,1.34,1.24,2.36Z" fill="#bd865e"/></g><path id="Path_10221" data-name="Path 10221" d="M14.82,145.38l.33-.17-.18.33Z" fill="#d9a67d"/><path id="Path_10222" data-name="Path 10222" d="M35.12,181.51c.29,0,.53.12.52.48Z" fill="#955f3e"/><path id="Path_10223" data-name="Path 10223" d="M20.37,155.85l-.27.22.23-.25Z" fill="#955f3e"/><path id="Path_10224" data-name="Path 10224" d="M30.17,160.19l-.21-.12.2.13Z" fill="#955f3e"/><path id="Path_10225" data-name="Path 10225" d="M128.25,189.07c-.12,2.3-2.17,1.48-3.32,2a44.12,44.12,0,0,1-6.87,1.95,2,2,0,0,0,1.07-2.54c-.39-1.56-1.18-3.56,1.2-4.67.89-.41-.27-1.06-.22-1.74a2.18,2.18,0,0,1,2.1-2.25,2.14,2.14,0,0,1,.79.12c2.87.62,4.22,2.51,5,5-.26,1-1.82-.69-1.73.77.06,1,.88,1.51,1.95,1.39Z" fill="#d9a67d"/><path id="Path_10226" data-name="Path 10226" d="M106,184.11c-1.28,1.81-2.54,3.35-5,4-2,.49-3.6-1.34-5.46-.36a1.36,1.36,0,0,1-.36-.6c0-.5.33-1.09.68-1,2.3.36,3.55-1.41,5.18-2.41,1.63,1,3.28-.57,4.92,0l0,0A1.57,1.57,0,0,0,106,184.11Z" fill="#955f3e"/><path id="Path_10227" data-name="Path 10227" d="M109.72,178.73c1.06-.72.27-1.88.92-3.33l1.81,5c1-2.26,2.79-1.83,4.36-1.51s-.62,1.77.71,2.5c-1.53-.61-2.49-1.62-4.24-.35-.82.6-3.24-.12-3.55-2.31Z" fill="#d9a67d"/><path id="Path_10228" data-name="Path 10228" d="M91.4,183.1a6.68,6.68,0,0,0,4.6-1c.63-.45,1.57-1.85,2.51-.71s-.43,2-1.08,2.68c-1.06,1.07-3,.14-4.2,1.5-.3.34-1.47-1.05-2-1.88Z" fill="#955f3e"/><path id="Path_10229" data-name="Path 10229" d="M105.89,183.66c-1.64-.57-3.28,1-4.92,0-.37-1.71,2.28-1.6,2-3.26,1,.08,2-.33,2.84.32C107,181.62,105.61,182.68,105.89,183.66Z" fill="#d9a67d"/><path id="Path_10230" data-name="Path 10230" d="M125,172.73v4.32c-.74-1.48-4.6,1.15-3.44-2.81.69-2.35,1.86-2,3.43-1.52Z" fill="#d9a67d"/><path id="Path_10231" data-name="Path 10231" d="M115.63,184.23c.72,1.11,2.13.76,2.2,1.92a2.08,2.08,0,0,1-1.64,2.17,2.29,2.29,0,0,1-2.39-1.57C113.46,185.36,116.47,186.59,115.63,184.23Z" fill="#d9a67d"/><path id="Path_10232" data-name="Path 10232" d="M99.75,189.38c1.29-.6,2.43-1.4,3.7-.47.47.35.19,1.06-.29,1.38C101.79,191.24,100.85,190.31,99.75,189.38Z" fill="#955f3e"/><path id="Path_10233" data-name="Path 10233" d="M91.4,183.1l-.18.55c-1.08-.13-1.37,1.5-2.51,1.12-.14-.05-.26-.7-.14-1C89.22,182.55,90.44,183.28,91.4,183.1Z" fill="#d9a67d"/><path id="Path_10234" data-name="Path 10234" d="M128.26,189.08c.2-1.27.93-1.23,1.88-.75-.31,1.18-1.26.54-1.9.74Z" fill="#d9a67d"/><path id="Path_10235" data-name="Path 10235" d="M109.73,178.72l-.22-.11.21.12Z" fill="#d9a67d"/><path id="Path_10236" data-name="Path 10236" d="M106,184.11a1.58,1.58,0,0,1-.1-.48,2.69,2.69,0,0,1,.27.32A1.29,1.29,0,0,1,106,184.11Z" fill="#d9a67d"/><path id="Path_10237" data-name="Path 10237" d="M48.13,48.49c-2.11.4-3.6-.79-5.06-2s-2.56-.63-2.76,1.07c-.12,1.06-.59,2-.72,2.91C39.25,52.92,38.1,54,35.68,54c-.84-1.87-.64-1.65.74-2.9.83-.75,2.4-1.59,2.16-2.84C38.11,45.8,39.82,45,41.2,44s3.1-1.13,4.28.77C46.27,46.09,47.24,47.26,48.13,48.49Z" fill="#bd865e"/><path id="Path_10238" data-name="Path 10238" d="M40.32,59c0,1.34-1.51.95-2.08,1.62-.81,1-1.81.62-2.67.24s-.47-1.25-.48-1.93.24-1.07,1-.88a3.49,3.49,0,0,0,3-.34C40.09,57.05,39.84,58.47,40.32,59Z" fill="#bd865e"/><path id="Path_10239" data-name="Path 10239" d="M37.26,55.53a20.38,20.38,0,0,1,2.12-1.12c2.54-1,3-.64,3.41,2.16a5,5,0,0,0-3.65-.25,1.23,1.23,0,0,1-1.7-.36A1.16,1.16,0,0,1,37.26,55.53Z" fill="#bd865e"/><path id="Path_10240" data-name="Path 10240" d="M57.59,46.6c-2.42-.87-3.33-4-6.19-4.13-2-2.36-5.09-1.27-7.55-2.33-1-.42-3.37.1-3.52,1.31-.44,3.56-4,3.35-5.79,5.25-2.35,2.48-4.46,8.35-2.78,11.43a13.33,13.33,0,0,1,.52,1.23c.95,2.33,1,5.21,3.52,6.64,3.24,1.8,1.83,5.4,1.35,7-.65,2.2-1.6,4.38-2.1,6.8-.93,4.54.54,8.83.69,13.23,0,.21.27.46.48.6,1.34.94,1.47,2.36,1.53,3.8a2.23,2.23,0,0,0,2.7-1.67,3.47,3.47,0,0,0,.06-.45l-.72-.21.14-.21.59.41c1-1.5-1.18-1-1.15-2,.48-.44,1.09-.15,1.65-.21.07-.35,0-.89.23-1,2.44-1.49,2.53-3.35,1-5.51a6.55,6.55,0,0,1-.49-.58c1.81-1.89,1.54-3-.75-4.56-.87-.58-1.12-3.62-.41-4.73,1.55-2.42.3-3.79-.82-5.55C39.36,70.6,38,69.84,39,69s1.51.59,2.1,1.15c2.12,2,2.14,2,3.34-.38.5-1,2-.15,2.17-1.22.18-1.43-1.55-.82-2.12-1.65a9.57,9.57,0,0,0-2-1.84,9,9,0,0,0-1.77-.72c2.38-1.4,4,.8,5.74.48.08-1.26-1.42-.9-1.83-1.8,1.28-1.49,2.66-2.33,4.55-.92-.2-.82-1.63-2.1.79-1.91,1.19.09.82-.94.78-1.54a20.28,20.28,0,0,0-.49-2.56L50.18,56c-.59.16-.67.57-.86,1.14-.65,2-2.71,2.58-4.12,1-.73-.81-1.72-.92-2.41-1.59a5,5,0,0,0-3.65-.25A1.23,1.23,0,0,1,37.43,56a1.33,1.33,0,0,1-.17-.43c-1.07,0-2.06-.06-1.59-1.58-.83-1.87-.64-1.66.74-2.9.84-.75,2.4-1.59,2.16-2.84C38.11,45.8,39.82,45,41.2,44s3.1-1.13,4.27.77c.8,1.29,1.77,2.46,2.66,3.69h0c.56-.86,2.19,2.46,2.19-.56,1,0,.93.94,1.41,1.36s.76,1.39,1.65,1.06.3-1.08.48-1.56c.64-1.76,2.28-.41,3.38-.88C57.88,47.59,57.92,46.72,57.59,46.6ZM36.06,58a3.47,3.47,0,0,0,3-.34c1-.62.76.8,1.24,1.29,0,1.34-1.52.95-2.08,1.62-.82,1-1.81.62-2.67.24s-.47-1.25-.48-1.93.24-1.07,1-.88ZM50.24,47.74a1.08,1.08,0,0,1,.08.19l-.22-.23s.12,0,.14,0Z" fill="#d9a67d"/><path id="Path_10241" data-name="Path 10241" d="M50.33,47.93l-.23-.23s.12,0,.14,0a.52.52,0,0,1,.08.19Z" fill="#bd865e"/><path id="Path_10242" data-name="Path 10242" d="M57.4,205.49c-2.1.4-4,1.55-6.41.34-1-.53-3,1.39-3.94-.93a2.38,2.38,0,0,1,.05-.26c2.54.09,3.81-2.34,5.95-3h0c0,1.59.46,2.67,2.3,2.89A2.52,2.52,0,0,1,57.4,205.49Z" fill="#bd865e"/><path id="Path_10243" data-name="Path 10243" d="M78.15,179.85c-1.21.14-2.5.12-3.08-1.15s-1.77-2-2.53-3.16a2.33,2.33,0,0,0-.53-.07c-2.94.25-3.39-1.27-2.62-3.66-1,0-1.78-1.4-2.82-.23,1.64,3.56,1.42,4.52-1.43,5.73A8,8,0,0,0,65.5,176c0-.58.4-1.43-.33-1.66a2,2,0,0,0-1.73.5c-1.11,1.24.67.8.73,1.09a10.66,10.66,0,0,1,.22,3.65c-.2,1.17-1.24,1.34-2.37,1.07-.58-.14-.78.39-.75.86.08,1.26-.64,2.25-1.1,3.32-.71,1.7-.18,2.34,1.59,2.12.2.67-.55,2-.15,1.84,2.53-1,1,1.2,1.5,1.75,1.7,2.11,0,2.59-1.58,2.89-.91.18-2.05.25-2.43,1-1.1,2.1-3.19,3-4.81,4.49-1,.89-2.25,1.54-3.32,1.22s-1.32-1.61-.74-2.79c.09-.18-.08-.49-.13-.75-2.52.87-.74-1-1-1.57s-1-2.12-1.45-1.07c-1,2.23-4.32,2.47-4.13,5.79.1,1.93,1.17,3.28,1.44,5l2.11.22a1.11,1.11,0,0,1,.05-.25c2.54.08,3.8-2.34,5.94-3,0,1.59.46,2.67,2.3,2.89a2.54,2.54,0,0,1,2.06,1c2.5-1.08,5-2.14,7.5-3.26a7.41,7.41,0,0,1,2.84-.76,4.86,4.86,0,0,1,1.44-2.53c1.72-1.9,1.22-5.69-.9-7.35.51-.78,2.52.1,2-1.3s.85-3.8-2-3.94c.23-1.5-1.13-2.58-1.06-4.1,0-.51-.78-1.09.3-1.36.74-.2,1.55-.8,2.15.2.18.3.11.92.31,1,3.18,1.27,3.1,3.06,1.13,5.45a1.34,1.34,0,0,0,.61,1.8,1.45,1.45,0,0,0,.35.12c1.4.28.62-.76.75-1.35.36-1.77,2.77-1.34,3.33-3,.49.2,1.16.19,1.3.82.3,1.4,0,2.84.32,4.29s-1,2.17-2.17,2.95a3.67,3.67,0,0,0-1.32,2.42c-.07.6,1,.54,1.6.54l1.67-.08c1.35-3.14,1.61-6.46,2.11-9.8.23-1.6-.48-4.85,2.75-5.37A5.38,5.38,0,0,0,78.15,179.85Zm-16.2,7a.65.65,0,0,1-.17.08l.21-.21s0,.11,0,.13Zm.65,10.49.24,0h0l-.24,0Zm2.9-.5c-.67,1-.43-.83-1.06-.42s-1.06.58-1.59.87c-1.55-1.5,0-1.9.93-2.44.52-.31,1.13.11,1.41.51s.51,1.17.3,1.47Z" fill="#d9a67d"/><path id="Path_10244" data-name="Path 10244" d="M61.77,186.9l.22-.22s0,.11,0,.13l-.18.09Z" fill="#bd865e"/><path id="Path_10245" data-name="Path 10245" d="M68.3,186.35l-.12.23.13-.22Z" fill="#bd865e"/><path id="Path_10246" data-name="Path 10246" d="M53.05,201.62l.12-.2-.13.2Z" fill="#bd865e"/><path id="Path_10247" data-name="Path 10247" d="M27.41,116c-3,.82-4.72,3.56-7.26,5.07s-2,5.31-5.35,6c-.35.07,0,.81.1,1.23s.19.94-.24,1.23c-1.69,1.17-1.75,3.38-3,4.78-1.73,1.87-.28,4.69-1.81,6.47-1.81,2.09.43,5-1.73,7-.41.38.33,1.36.84,1.51,2.9.8,2.26,2.65,1.6,4.65a23.72,23.72,0,0,0-.41,2.66c-.51,2.44,1.29,4.76.18,7.35-.42,1,1,2,2.31,1.95a2.64,2.64,0,0,1,2.75,1.94c.68,2.34,1.86,2.73,3.86,1.7-.08-.76.9-1.52.2-2.2s-1,.78-1.77.5l-.13.23a1.71,1.71,0,0,1,.13-.23,9.19,9.19,0,0,1,1.39-6.9c-2.65.49-2.34-2-3.47-2.84-1.44-1.06-.84-1.84-.11-2.8-.14-.07-.33-.12-.49-.19.16.07.35.12.49.19h0v-1.11h0c-.09-.43,0-1-.28-1.27-1.94-2.43-.71-4.91-.19-7.38l-.15-.16c-.62-.06-1.57.39-1.33-.95.29-1.63-.63-2.22-2.87-2,2.68-2.1,5.11-3.31,6.46-5.68l-.19-.13.19.11c2.1-.54-.35-1.08,0-1.63,1.26-1.15,2.26-2.82,4.41-2.14.34-.67,1-.79,1.62-1.06,0-.74-.08-1.79.65-1.92,3.34-.56,1.55-3.12,2.1-4.8-.68.65-1,.88-2,.18-1.46-1.06-.25-1.29.28-1.66s.91-.73.7-1.52-.53-1.8,1.05-1.13c.48.21.5-.56.3-.72-2.78-2.18-.28-2.46,1.1-3.16C27.89,116.89,27.54,116.44,27.41,116Z" fill="#d9a67d"/><path id="Path_10248" data-name="Path 10248" d="M17.63,167.83l-.13.23.13-.24Z" fill="#bd865e"/><path id="Path_10249" data-name="Path 10249" d="M17.07,136.77l-.19-.13.2.11Z" fill="#bd865e"/><path id="Path_10250" data-name="Path 10250" d="M17.08,135.12l-.2-.11.2.12Z" fill="#bd865e"/><path id="Path_10251" data-name="Path 10251" d="M71.43,143.29c.3,2.2.41,4.07-2.44,4.51-1.25.19-1.92,1.35-1.92,3-1.75-3.46-1.71-3.38,1.4-5A16.56,16.56,0,0,0,71.43,143.29Z" fill="#955f3e"/><path id="Path_10252" data-name="Path 10252" d="M93.29,150.45c.53,1.35,3.12-.43,2.69,2a3.32,3.32,0,0,1-3.12,2.85c-.73.06-1.51.07-1.6-1-.05-.71-.15-1.3,1-1.34C93.89,152.91,92.74,151.39,93.29,150.45Z" fill="#955f3e"/><path id="Path_10253" data-name="Path 10253" d="M84.07,152.06c-1.32-.34-.41,2.29-1.44,1.38s-1.28-2.56-1.68-3.94c-.16-.55.69-.7.91-.33.63,1.06,2.22,1.33,2.3,2.81Z" fill="#d9a67d"/><path id="Path_10254" data-name="Path 10254" d="M71,138.93c-1.8,0-3.56,0-3.71-2.48,0-.58-.09-1.1.63-1.2a.69.69,0,0,1,.81.54.61.61,0,0,1,0,.27c-.34,1.86,2.18,1.41,2.26,2.88Z" fill="#955f3e"/><path id="Path_10255" data-name="Path 10255" d="M75.22,141.73a4.74,4.74,0,0,1,.49.4c-1.07,1.54-.3,2.25,1.15,2.75.13.05.2.74.06,1-.33.58-.52-.13-.8-.17-2.07-.34-2.3-1.63-1.76-3.34A.85.85,0,0,1,75.22,141.73Z" fill="#955f3e"/><path id="Path_10256" data-name="Path 10256" d="M102.4,158.21c.07,1-.73.89-1.3.85s-1.46.44-1.28-.75c.1-.71.19-1.61,1.05-1.71C101.93,156.47,102.05,157.51,102.4,158.21Z" fill="#955f3e"/><path id="Path_10257" data-name="Path 10257" d="M65.58,152a7.09,7.09,0,0,1-.8,0c-.75-.07-1.71.22-1.86-1a.93.93,0,0,1,.65-1.15l.13,0c1.13-.21,1.3.64,1.56,1.41.09.25.21.49.32.73Z" fill="#955f3e"/><path id="Path_10258" data-name="Path 10258" d="M93.92,173.81c-.27.45-.49,1-1.14.84a.43.43,0,0,1-.2-.37c.27-.64.88-.35,1.35-.46Z" fill="#d9a67d"/><g id="Group_1784" data-name="Group 1784"><path id="Path_10259" data-name="Path 10259" d="M123.79,155.84h-2.07c0,.88,1.09.19,1,1-3.11.11-3.11.11-2.27-3.34.75,2.53,2.85,1.91,3.19,1.1.49-1.18,4-2.17.87-4.12-.39-.24-.38-.53-.13-.89,1.1-1.63-.31-1.45-1.21-1.71-1.69-.47-3.8-1.73-4-2.8-.93-4.41-4.15-7.06-6.82-10.12a4.85,4.85,0,0,1-1.35-3c-.09-1.1.85-3.38-1.94-2.24-.37.15-.36-.22-.46-.43-.86-2-2.46-3.42-3.7-5.08-1.43-1.9-2.52-4.61-5.54-4.85-2,2.27-.19,4.3,1,5.7s.7,1.38-.32,1.93c-1.59.85-2.7,2.45-2,4,1.48,3,3.68,3.41,7,1.9.72-.31,1.6-.9,2.2-.27a2.57,2.57,0,0,1,.09,2.06c-.25.84-.63,1.68-1.92.85-.56-.36-2.9,2.56-2.54,3.28.83,1.61,1.38-.17,2.07-.3.41-.09.69-.14.8.35.48,2,.85.94,1.45,0,.36-.54,1.08-1.19,1.8-.42s.65,1.46-.41,1.9a.92.92,0,0,0-.24.13c-2.2,1.44.17,1.8.67,2.39,1.56,1.8-2.81.77-1.1,2.44.71.69,1.31,1.67,2.61,1.38.4-.09,1,0,1.05.56a.86.86,0,0,1-.8.9.78.78,0,0,1-.3,0c-2.15-.35-1.54.44-.62,1.43a1.33,1.33,0,0,1,.22,1.53c-1.34,2.67.78,3.14,2.44,3.65,1,.3,2,.09,1,1.52.88.44.41,2.38,2.11,1.91l1.66-.08c.17,1.84-.55,3.61-2.3,3.72-1.47.09-2.87-1.87-4.74-.57-.27.19-.6-.54-.5-1,.2-1.05,1.24-2.38-.9-2.61-1.14-.12-2.22-1.29-3.43,0a1.21,1.21,0,0,1-1.7.06,1.23,1.23,0,0,1-.32-.52c-.44-1.81-1.58-1.86-3-1.78-.72,0-1.87.42-2-.71s1.64.08,1.65-1.19c-1.81-.44-1.08-3-2.85-3.54-.75-.92-1.08-1.83,0-2.73,1,.44.75,2.88,2.31,1.88,1-.66,4.25-.75,2.16-3.59-.13-.16.17-.66.32-1,.76-1.8.11-3-1.53-3.84.54-1.64-1.55-1.95-1.65-3.27h0c-.08-.11-.16-.24-.23-.36l.2-.14.09-.09c-1.25-2.76-2.42-5.55-3.79-8.25A2.85,2.85,0,0,1,94.9,126c.9-2.69-1.06-4.46-4-4.15-1.75.19-3.67,1.16-5.35,0-2.37-1.68-3.36-1.54-5.3-.48s-2.36,2.12-1.62,4.08c.16.41,1.15.93.34,1.48a1.64,1.64,0,0,1-1.73-.13c-.75-.39-2.4-1.39-2.55-.37-.33,2-2.62,3.67-1.36,6,.53,1,1.22,1.88,1.89,2.9-2.66-.26-2.71-.25-3.07-1.47s-.8-2.78-2.08-1.88c-1.86,1.3-1.61-1.38-2.72-1a1.12,1.12,0,0,0-.24.13c-.92.53-3.13,1.51-3.61,1.36-1.7-.53-1.83.47-1.69,1.67a5.69,5.69,0,0,1-1.86,5.28c-1.35,1-1.6,1.8-1,3.37-1.72-.77-1.58-2.14-1.73-3.18-.35-2.5-1.79.33-2.49-.7a3,3,0,0,0,.27-1.17c-.2-1.2-.58-2.8-1.78-2.85-.92,0-3.17,0-3,.88.31,2.06-1.34,2.58-2,3.8h0a15.51,15.51,0,0,0,2.13-.27c.8-.21,1.83-.6,2.31,0,.74,1-.67,1.21-1.08,1.8a3.24,3.24,0,0,0-.51,3.09,2.43,2.43,0,0,0,2.1,1c2.58-.62,5-1.16,7.6.2.93.49,2.62-.11,3,1.24.33,1.17-1.18,1.87-1.64,2.95a1.5,1.5,0,0,1-1.91.6c-.7-.26-1.25.22-.93.74.8,1.27-.9,1.72-.84,2.71,4.9.17,4.9.17,7.22-1.58h0c.67.58,1.59,1.77,2,1.62,1-.4,2-1,2.28.42A2.46,2.46,0,0,1,68,156.94c-2.89.9-1.82,2.41-.69,4.12,3.86-6.4,5-6.62,8.27-2.2,1.49-2-.78-3.68-.33-5.54.16-.64-.79-1.81.73-1.79s1.23,1.21,1,2c-.23,1-.33,1.66.59,2.36a2.64,2.64,0,0,1,.85,2.44c-.06.65-.71,1.6.5,1.59a1.13,1.13,0,0,0,.94-1.28,1.26,1.26,0,0,0-.16-.42c-1.16-1.43,0-3.08-.66-4.5-.29-.59-.25-1.1.54-1.11s1.87-.22,1.64.78c-.63,2.84,1.47,5.16,1.27,7.87a2.58,2.58,0,0,1,3,.45c1,1.5,2.25,1.36,3.64,1.18.08-.11.15-.23.22-.35s-.11-.1-.17-.16c-1.74-2.07-3.62-4.07-3.47-7.07l-.21-.27.28.2c1.1,1.38,3,1.88,3.85,3.57.25.5.75.05,1.1,0,2.44-.19,5.34-1.53,6.81,1.89a12.24,12.24,0,0,1-1.39,1c-3.1,1.6-3.27,3-.74,5.26.65.57,2.26.9,1.52,2.15-.88,1.5-.73-1.19-1.6-.58a5.11,5.11,0,0,1-1,.43c-1.25.48-2.36,1.23-3.61,1.76-2.36,1-2.54,3.32-.64,4.72,2.65.06.44,1.12-.09,1.66a26.12,26.12,0,0,0,3.31,0c.76-.1,2,.64,2.17-.43s0-2.47-1.55-2.82a2.91,2.91,0,0,1-.34-2.37c1.69,2,4.6-.05,6.28,2.19.07.09.84-.22,1.16-.49s-.09-.57-.26-.84c-1-1.45-.83-1.34.38-2.6a6.3,6.3,0,0,0,1-2.64c.18-.67.45-1.21,1.18-1.3s1.72.29,1.81.9c.52,3.69,3,2,4.76,1.7.74-.13,1.4-.83,2.24-.36,1.64.92,1.12-.64,1.41-1.22s-.39-1.88,1.13-1.12c.81,0,1.64,0,2-.95.82-1.89,2.24-2,3.9-1.26,1.6-.53,2.14-1.94,2.71-3.32h0c0-.33,0-.67,0-1s.22-.87.75-1,1.47.06,1.23-1A1.49,1.49,0,0,0,123.79,155.84ZM55.92,141.79h0a.64.64,0,0,0-.27.07.64.64,0,0,1,.27-.07Zm.46,1,.28-.31-.28.31Zm4.08-1.5-.18-.46Zm7.5-6a.69.69,0,0,1,.81.54.82.82,0,0,1,0,.27c-.35,1.85,2.16,1.41,2.25,2.87-1.79,0-3.55,0-3.7-2.48,0-.58-.09-1.1.63-1.19ZM65,141.65c-.13,0-.27,0-.4-.06.12,0,.26,0,.4.06Zm0-.29v0Zm-.08-.28h0Zm-.19-.19Zm-.34-.06h0l0,0Zm.21.75-.08,0,.08,0Zm-.13-.05-.07,0,.07,0Zm-.11-.07-.06-.07.06.07Zm-.12-.51,0,.05a1.34,1.34,0,0,0,0,.2,1.34,1.34,0,0,1,0-.2l0-.05Zm0,.4s0-.08,0-.12a.65.65,0,0,0,0,.13ZM64.78,152c-.75-.07-1.71.21-1.87-1a1,1,0,0,1,.66-1.16l.13,0c1.13-.21,1.3.65,1.56,1.41a6.73,6.73,0,0,0,.32.73,7.06,7.06,0,0,1-.8,0Zm-.28-8.19.54-2.17c1.12.06,2.5-.18,3,1.1.27.72-.37,1.48-1.33,1.6-.35-1.68-1.54,0-2.19-.52ZM69,147.79c-1.25.19-1.91,1.35-1.92,3-1.75-3.46-1.71-3.38,1.4-5a15.8,15.8,0,0,0,3-2.58c.3,2.21.41,4.08-2.44,4.52Zm7.93-1.92c-.33.58-.52-.13-.8-.18-2.07-.33-2.3-1.62-1.76-3.33a.88.88,0,0,1,.87-.64c.13.11.5.39.49.4-1.08,1.54-.3,2.25,1.14,2.76.13.05.2.74.06,1Zm5.71,7.56c-1-.87-1.28-2.55-1.68-3.94-.16-.55.69-.7.91-.33.63,1.07,2.22,1.33,2.3,2.81h0l-.09.09c-1.32-.34-.41,2.29-1.44,1.37Zm1.65-.82.07.18h0c0-.06,0-.11-.07-.17Zm.22.06,0,0,0,0Zm1.31-12.75c-.82-.24-.53-1-.6-1.53a2.07,2.07,0,0,1-2.32-1.69c-.1-.33.62-1.2,1.09-1.32,2.52-.64,1,1.75,1.77,2.47.67.45.6,1.2.71,1.86a1,1,0,0,1-.65.22Zm3.75-2.08h0c-.29,1.17-.94.82-1,0,0-2.35-.89-4.51-1.14-6.77-.15-1.3,1.39-1.53,2.6-1.4l.07-.07c-.31-.9-1.28-1.82.12-2.68.41-.24.49-1,1.27-.61.62.32.5.74.47,1.33-.08,1.95,1.73,4.25-1.13,5.68a1.17,1.17,0,0,0,.13.95c2.59,2.46-.21,2.67-1.44,3.54ZM96,152.39a3.35,3.35,0,0,1-3.13,2.86c-.72.06-1.51.06-1.59-1-.05-.71-.16-1.31,1-1.34,1.62,0,.47-1.57,1-2.5.53,1.35,3.11-.43,2.69,2Zm-2.07,21.43c-.26.44-.48,1-1.13.83a.46.46,0,0,1-.2-.38c.26-.63.87-.35,1.33-.45Zm7.19-14.76c-.5,0-1.46.44-1.28-.76.09-.71.19-1.6,1.05-1.71,1.06-.13,1.18.91,1.53,1.62.07,1-.73.89-1.3.85Zm16.79-2.8-2.16.07h0c1.1-2,.54-2.83-1.71-2.75-.65,0-1.58.38-1.83-.55-.1-.37.47-.91.74-1.37.6-1,1.15-.36,1.72.05a2.5,2.5,0,0,0,.74.3c3.5,1,3.5,1,2.5,4.25Z" fill="#bd865e"/><path id="Path_10260" data-name="Path 10260" d="M87,180.73a1.5,1.5,0,0,0,1.57,1.08c.08,0,.27-.31.23-.38A1.39,1.39,0,0,0,87,180.73Z" fill="#bd865e"/><path id="Path_10261" data-name="Path 10261" d="M82.48,161.29v0h0Z" fill="#bd865e"/></g><path id="Path_10262" data-name="Path 10262" d="M100.45,140.57l-.12.22.14-.2Z" fill="#955f3e"/><path id="Path_10263" data-name="Path 10263" d="M98.79,136.81c0,.16,0,.33,0,.5a2.92,2.92,0,0,1-.24-.37Z" fill="#955f3e"/><path id="Path_10264" data-name="Path 10264" d="M85.7,155.33l-.21-.27.29.2Z" fill="#955f3e"/><path id="Path_10265" data-name="Path 10265" d="M117.89,156.26l-2.16.08c1.1-2,.54-2.84-1.71-2.75-.66,0-1.59.38-1.83-.55-.1-.37.46-.92.73-1.38.61-1,1.16-.35,1.73.05a2.5,2.5,0,0,0,.74.3C118.89,153,118.89,153,117.89,156.26Z" fill="#955f3e"/><path id="Path_10266" data-name="Path 10266" d="M66,107.36c1.07.09,1.75.46,1.66,1.49a1.25,1.25,0,0,1-.74,1.23c-.52-2.16-3.06,1.45-3.19-1C63.69,108.1,65.05,107.53,66,107.36Z" fill="#955f3e"/><path id="Path_10267" data-name="Path 10267" d="M74.34,107.51l.27.34-.48.37c-.06-.13-.19-.28-.17-.41S74.18,107.63,74.34,107.51Z" fill="#d9a67d"/><g id="Group_1785" data-name="Group 1785"><path id="Path_10268" data-name="Path 10268" d="M93.92,173.82Z" fill="#d9a67d"/><path id="Path_10269" data-name="Path 10269" d="M116.48,168.31c-.84-.25-1.85-.38-1.77-1.65l-.07-1c-1.52-.76-.87.61-1.13,1.13s.23,2.14-1.4,1.22c-.84-.48-1.5.23-2.24.36-1.8.33-4.25,2-4.77-1.7-.09-.61-1-1-1.81-.9s-1,.64-1.18,1.3a6.17,6.17,0,0,1-1,2.64c-1.21,1.26-1.33,1.16-.38,2.6.18.27.7.48.26.84s-1.09.58-1.16.49c-1.68-2.24-4.59-.19-6.28-2.19a3,3,0,0,0,.34,2.37c1.56.35,1.65,1.84,1.55,2.82s-1.41.33-2.17.43a26.1,26.1,0,0,1-3.31,0c.54-.55,2.74-1.6.09-1.67a6.72,6.72,0,0,0-3.76,3.23c.8,1.4,1,1.46,2.25.43s2.74-1.82,4,.2c.49.82,1.15.44,1.61.09a9.59,9.59,0,0,1,6.65-2c-.87-2.31-.15-3.21,2.12-2.88.44.06.86.33,1.3.35,1.44.08,4.37-2,3.84-2.54-1.09-1-1-1.75.24-2.18s1.76.38,2.1,1.51c.24.81,1.56,1.57,1.73,1.08.83-2.32,2.8-1.81,4.42-2.2.68-.16,1.21-.47,1.25-1.21C117.83,168.41,117.07,168.48,116.48,168.31Z" fill="#d9a67d"/></g><path id="Path_10270" data-name="Path 10270" d="M48.69,65.92a4.63,4.63,0,0,1,.54-3.83c.84.71,1.25,1.94,2.76.28,1.66-1.82,3.28-.53,4,3.06,1.11-.13.39-3,2.5-1.67.82.51,1.13,1,0,1.48-2.25,1-2,2.4-.54,4.39-3.79-.67-7.06,2.76-10.78.14.64-1.16,2,.28,2.72-1-.06-.72-1.86-1-1.27-2.29h0c.4-.18.42-.37,0-.55Z" fill="#d9a67d"/><path id="Path_10271" data-name="Path 10271" d="M74.37,67.46c-2.49-1.47-2.88-4.3-5.49-6C73.36,62,74.93,63.83,74.37,67.46Z" fill="#d9a67d"/><path id="Path_10272" data-name="Path 10272" d="M48.28,81.78c-2.34.11-1.65-2.38-3-2.93.2-.36,0-.95.58-1.09.37-.1,3.69,2.46,3.71,2.77C49.64,81.69,49,81.87,48.28,81.78Z" fill="#d9a67d"/><path id="Path_10273" data-name="Path 10273" d="M112.89,73.31c-.49-.78-2.57-1.53-.21-2.65.39-.19.11-.88-.28-1.15-1.44-1-1.53-2.58-1.74-4.06-.08-.6,0-1.13-.75-1.14-3,0-4.15-3.28-4.47-4.57-.66-2.72-2.39-1-3.39-1.59-.48-.29-1.73.2-1.21,1.65.41,1.17,1,2.58-.63,3.55a1.28,1.28,0,0,0-.09,1.23c1.36,1.55.82,3.74,1.88,5.37.22.34.13,1.2.58,1,2.06-.8,3.72,1,5.64.9.12-1.28-1.35-1.27-1.5-2.36.8-.18,2-1,2.26-.07s1.78,2.11.92,2.86c-2.48,2.15,0,2.81.92,4l0,0,.56.56h0C114.37,76.13,114.49,75.8,112.89,73.31Z" fill="#bd865e"/><path id="Path_10274" data-name="Path 10274" d="M111.37,76.83l-.57-.57Z" fill="#d9a67d"/><path id="Path_10275" data-name="Path 10275" d="M86.54,97.45l-.66.64a1.05,1.05,0,0,1,.36-1.19Z" fill="#d9a67d"/><g id="Group_1786" data-name="Group 1786"><path id="Path_10276" data-name="Path 10276" d="M25.79,149.83v0h0Z" fill="#955f3e"/><path id="Path_10277" data-name="Path 10277" d="M25.13,152.35c1.44-.7.46-1.69.66-2.5a3.44,3.44,0,0,1-1.06,0,4.11,4.11,0,0,0-3.73.7c-.24.24-1-.15-.94.74a5.72,5.72,0,0,0,4.14,1.21c-.16,0-.67,1-.81,1.11a3.26,3.26,0,0,1-1.1.85c-.64.25-2.39,0-2.13,1.23.1.52.74.69,1.27.75,1.53.17,3.1,2.57.81,2.9-.27,0-.69-.68-1-.07s.24,1,.65,1.27a2.47,2.47,0,0,0,3.46-.49,2.62,2.62,0,0,0,.3-.51,18.94,18.94,0,0,0-.05-5C25.27,153.79,24.47,152.67,25.13,152.35Z" fill="#955f3e"/></g><path id="Path_10278" data-name="Path 10278" d="M29.6,143.31l-.22-.24.24.22Z" fill="#bd865e"/><path id="Path_10279" data-name="Path 10279" d="M89.56,137.85l-.23-.13.23.13Z" fill="#bd865e"/><path id="Path_10280" data-name="Path 10280" d="M90.69,130.17l.23.31-.31-.22Z" fill="#bd865e"/><path id="Path_10281" data-name="Path 10281" d="M90.87,133.37c2.86-1.43,1-3.73,1.13-5.68,0-.59.16-1-.47-1.34s-.86.38-1.26.62c-1.41.86-.44,1.77-.13,2.68l-.07.07.54.54.08-.09.23.31-.32-.22-.53-.54c-1.22-.13-2.75.1-2.6,1.4.25,2.26,1.13,4.42,1.14,6.77,0,.78.66,1.13,1,0l-.23-.13.23.13c1.23-.87,4-1.08,1.44-3.53A1.21,1.21,0,0,1,90.87,133.37Z" fill="#d9a67d"/><path id="Path_10282" data-name="Path 10282" d="M85.75,137.84l-.56.56Z" fill="#bd865e"/><g id="Group_1787" data-name="Group 1787"><path id="Path_10283" data-name="Path 10283" d="M50.71,84.83A1.35,1.35,0,0,0,52,86.16a2.54,2.54,0,0,0-.48-1.71l-.53.2C50.84,84.72,50.71,84.78,50.71,84.83Z" fill="#bd865e"/><path id="Path_10284" data-name="Path 10284" d="M99.44,76.19C98.72,76,98,75.53,98,74.75c0-1.3,1.6.51,1.69-.85a2.47,2.47,0,0,0-2.36-.62,3.84,3.84,0,0,1-3.24-1.07c-2.38-3.3-4.14-3.73-7.76-1.39-1.92.23-2.13-2.76-4.25-2.23s-2.55-1-2.62-2.46a7.34,7.34,0,0,1,.7-3.92c1.49-2.55-.23-2.56-1.69-2.16-1.21.34-2.55-1-3.54.42-.5-2.07-1.87-1.12-3-.67-.51-1.35,1.28-2.21.33-3.46-.9-.16-1.79,2.55-2.73.08,0,0-.4.06-.43.15-.87,2.75-3.81,1.48-5.42,2.8-.77.63-1.85,1-2.47.3a2.69,2.69,0,0,1-.27-2.45c.45-1,1.09-2-.14-2.35a2.34,2.34,0,0,0-2.61,1.6c-.35,1-1.6,2.54-2.63,1.54-1.59-1.53-3.42-1.5-5.23-1.9a20.28,20.28,0,0,1,.49,2.56c0,.6.4,1.63-.78,1.54-2.42-.2-1,1.09-.79,1.91.83.69,1.23,1.92,2.75.26,1.66-1.82,3.27-.53,4,3.05,1.11-.12.39-3,2.5-1.66.82.51,1.13,1,0,1.48-2.25,1-2,2.4-.55,4.39-3.78-.67-7,2.76-10.77.13.64-1.15,2,.29,2.72-1-.06-.71-1.86-1-1.27-2.28.39-.19.42-.37,0-.55a4.65,4.65,0,0,1,.53-3.81c-1.88-1.39-3.26-.56-4.53.93.42.9,1.9.54,1.83,1.79.68,0,1.09.36,1.08,1.09,0-.73-.4-1-1.1-1.1a1.15,1.15,0,0,0,.28.83,1.15,1.15,0,0,1-.28-.83c-1.73.33-3.34-1.87-5.72-.47a8.57,8.57,0,0,1,1.77.73,9.34,9.34,0,0,1,2,1.84c.57.82,2.3.22,2.11,1.64-.14,1.07-1.67.21-2.17,1.22-1.2,2.43-1.22,2.39-3.33.39C40.53,69.61,40,68.26,39,69s.33,1.59.72,2.2c1.12,1.77,2.36,3.14.81,5.55-.71,1.12-.46,4.16.42,4.74,2.28,1.52,2.56,2.67.74,4.55a7.12,7.12,0,0,0,.49.58c.89.29,1.76-.53,2.65,0a3.66,3.66,0,0,1,1.28.36,3.61,3.61,0,0,0-1.28-.36c.17,0,.41,1.58.78,1.79.82.47,1.1-.86,1.92-.79.46,0,.55.34.83.6a1,1,0,0,0,1.22.21c.83-.27,1.29-1,2.19-1.2.41-.06.86,0,.93-.58a1.41,1.41,0,0,0-.25-.84,7.25,7.25,0,0,1-.47-.75,3.37,3.37,0,0,1-.2-1.33c0-.46.17-1.17-.28-1.43-1.41-.81-.24-1.71-.18-2.45s1.12-.41,1.63-.24c1.81.6-.14,1.32-.12,1.35.91,1.08,1.3,2.36,2.13,3.49,1.09,1.48,3.13,1.06,4.38,2.52a3.08,3.08,0,0,0,.64.66.74.74,0,0,0,.85,0c.37-.34.23-1.83,0-2.23a6.32,6.32,0,0,0-1-1.12c-.89-.91-.71-2.34-1-3.53a5.81,5.81,0,0,0-1.81-3.35c1.24-1.29,2.34.5,3.38.16,1.32-.44.36-2.28,1.59-3,1,1.74,2.8,3.26,3,5.38.1,1.12-.78,2.26-.17,3.13s2.09,1.21,3.24,1.33l6.19.64a14.92,14.92,0,0,1,2.5.15c.61.19,1,.75,1.67.76a7.16,7.16,0,0,0,3.46,3.53c.79,1.06,4.23,1.94,4.68,1.06a3.71,3.71,0,0,1,3-2.08c1.47-.22,2,1.47,3.22,2.08-.49-1.15-.58-2.45.09-3.14s1.55-2.72,1.78-2.41c1,1.29,2.38.29,3.37,1.15s1.58-.3,1.42-1c-.56-2.46.68-4.68.75-7C100.21,77.22,100.6,76.52,99.44,76.19ZM48.28,81.78c-2.34.11-1.65-2.38-3-2.93.2-.36,0-.95.58-1.09.37-.1,3.69,2.46,3.71,2.77C49.64,81.69,49,81.87,48.28,81.78Zm1.34,5.79.47.06ZM74.32,67l-.11.05c-1.57.57-3.74-5.4-5.34-5.6,1.6.2,3.44.58,4.58,1.82a3.82,3.82,0,0,1,.9,1.71c.12.52.53,1.7,0,2Zm7.62,16-.38-.13a2,2,0,0,1,.7.29c-.1,0-.2-.11-.32-.16Zm.45.24.12.06s0,0,0,0l-.15-.09Zm5-12.38a.32.32,0,0,0-.16,0,.32.32,0,0,1,.16,0Zm-1.33,2.43a3.39,3.39,0,0,1-.18-.39,2.64,2.64,0,0,0,.18.38Zm.45-.92c.2-.24.41-.44.58-.67-.16.23-.38.43-.57.67ZM89,84.24c.54-.74,1-1.52,1.51-2.31-.47.79-1,1.57-1.51,2.3Z" fill="#bd865e"/></g><circle id="Ellipse_1348" data-name="Ellipse 1348" cx="61.91" cy="81.83" r="3.31" fill="#1d130e"/><circle id="Ellipse_1349" data-name="Ellipse 1349" cx="81.59" cy="85.07" r="3.31" fill="#1d130e"/><path id="Path_10285" data-name="Path 10285" d="M46.89,112.75c-1.23-.18-1.87,1.48-1.83,2.74s.18,2.81-.86,3.5c-.78.52-1.82.22-2.74.39s-1.72,1.51-.91,2a3.65,3.65,0,0,0,4.09-1c.84.1,1.27,1.18,1,2a4.46,4.46,0,0,1-1.57,2,4.49,4.49,0,0,0-1.58,2c-.5,1.68,1.31,3.43,3,3.15a3.83,3.83,0,0,0,2.86-3.83,10.68,10.68,0,0,1,0-2.65c.24-.85,1.27-1.56,2-1s.46,1.45.53,2.24a3.12,3.12,0,0,0,3.55,2.62,3.27,3.27,0,0,0,1-.36,11.44,11.44,0,0,0,1.86-2,2.45,2.45,0,0,1,2.4-1c.86.27,1.17,1.76.32,2.09.58.88,2,.6,2.75-.12a27.66,27.66,0,0,1,2.09-2.37,3.08,3.08,0,0,1,3.47-.07c1.08.74.71,1.52,1.28,2.48a1,1,0,0,0,1.2.48c.54-.25.56-1,.36-1.6a3.91,3.91,0,0,1-.47-1.71A2.26,2.26,0,0,1,72,121.16a3.94,3.94,0,0,0,1.57-1.26c.34-.6.13-1.56-.54-1.65s-1.09.63-1.41,1.22a1.64,1.64,0,0,1-1.31,1,10.15,10.15,0,0,1-.28-1.12c-1,0-1.76.88-2.79,1.07a2.37,2.37,0,0,1-2.65-1.22c-.45-1.11.3-2.36,1.18-3.18-.66-1.09-2.32-.52-3.28.3s-2.17,1.85-3.3,1.3c-.95-.47-1.12-1.74-1.31-2.8S57,112.5,56,112.62s-1.39,1.55-1.42,2.65-.24,2.5-1.3,2.76c-.47-.7-1.26-2.58-2-2.94s-.66.21-1.15.07c-.67-.19-.71,0-1.5-.57S48,112.91,46.89,112.75Z" fill="#bd865e"/><path id="Path_10286" data-name="Path 10286" d="M54.56,120.16c-1.73.22-4.4-2.16-5.47-3.26-.45-.44-1-.93-1.65-.77a1.29,1.29,0,0,0-.78,1.44c.06.49.48,1.18-.28,1.33a6.26,6.26,0,0,1-.75,0,.63.63,0,0,0-.58.4c-.1.41,1,1.1,1.16,1.59a3,3,0,0,1-.12,2.45c-.26.52-1.29,1.85,0,2,1.07.08,1.32-2.93,1.9-3.65a4,4,0,0,1,2.38-1.37c1.6.07,2,2.63,3.64,2.47,1-.1,1.54-1.28,2.46-1.76s2,.15,2.94-.11c1.44-.38-.38-1.53-.77-2-.6-.68-1.61-2.17-2.56-1C55.47,118.66,56.12,120,54.56,120.16Z" fill="#d9a67d"/><path id="Path_10287" data-name="Path 10287" d="M110.13,78.14c-1.49.19-3.74-.06-4.15.21a.69.69,0,0,1-1-.25.5.5,0,0,1-.09-.24c-.17-.66.31-1,.82-1.2,1.64-.73,3.38-.23,5-.4C112.09,77.54,111.37,78,110.13,78.14Z" fill="#bd865e"/><path id="Path_10288" data-name="Path 10288" d="M87.23,86.33c.57-.13,1.46-1.67,1.8-2.13s.8-1.75,1.56-1.77c.59,0,.78,1,.68,1.5C91,85.53,88.51,86,87.23,86.33Z" fill="#d9a67d"/><path id="Path_10289" data-name="Path 10289" d="M65.09,141.59l.06,0a2.7,2.7,0,0,1,1.2,0,2.31,2.31,0,0,1,1.89,1.13,1.5,1.5,0,0,1-.81,1.67,1.17,1.17,0,0,1-1,0c-.23-.11-.42-.3-.65-.4s-.86.19-1.17,0-.28-.93-.22-1.24A1.72,1.72,0,0,1,65.09,141.59Z" fill="#955f3e"/><path id="Path_10290" data-name="Path 10290" d="M45.42,135.08a4.08,4.08,0,0,0-.7.11,1.94,1.94,0,0,0-.62.33c-.22.18-1.12,1.13-.64,1.36a.38.38,0,0,0,.36,0,3.4,3.4,0,0,0,.3-.23,1.49,1.49,0,0,1,.63-.31,4.54,4.54,0,0,0,.66-.16c.28,2,1.74.89,2.8,1.18C47.73,135.83,47.6,134.12,45.42,135.08Z" fill="#d9a67d"/><path id="Path_10291" data-name="Path 10291" d="M62.82,197.35a.76.76,0,0,1-.22-.18,1.18,1.18,0,0,1-.18-1.52,5.32,5.32,0,0,1,1.36-.84c.52-.32,1.13.1,1.41.5s.51,1.18.31,1.48c-.35.52-.4.2-.6-.15s-.26-.22-.57-.07a2.8,2.8,0,0,0-.74.49c-.19.16-.39.36-.63.33A.37.37,0,0,1,62.82,197.35Z" fill="#bd865e"/><path id="Path_10292" data-name="Path 10292" d="M85.74,137.85c-.76-.72.75-3.11-1.76-2.46-.48.12-1.19,1-1.1,1.32a2.42,2.42,0,0,0,.75,1.25,1.78,1.78,0,0,0,.65.35c.25.08.61,0,.79.22s.11.57.16.82a.8.8,0,0,0,.57.58,1,1,0,0,0,.64-.21C86.34,139.05,86.41,138.31,85.74,137.85Z" fill="#955f3e"/><path id="Path_10293" data-name="Path 10293" d="M87.81,98.28a1.47,1.47,0,0,1,.43-1.35c.31-.35.82-.48,1.12-.82a.77.77,0,0,0,0-1c-.3-.28-.81-.21-1.17-.28a3.75,3.75,0,0,1-1.4-.83l-1.92-1.34c-.48,1.72,1.69,2.6,1.34,4.27l.31.55-.66.64a.5.5,0,0,0-.16.49A1.82,1.82,0,0,0,86,99c.51.45,0,1.92,1.4,1.44.65-.22,1.57-.12,1.84-.92C89.75,98.08,88,99,87.81,98.28Z" fill="#955f3e"/><path id="Path_10294" data-name="Path 10294" d="M87.4,102.71A14.31,14.31,0,0,1,84,109.4c-1.92,2-4.73,2.49-7.42,2.83a35,35,0,0,1-16.88-2.29c-3.42-1.33-6.87-2.71-8.9-6-1.85-3-1.9-6.1-1.19-9.38A12.29,12.29,0,0,1,55,87.08a15.27,15.27,0,0,1,4.81-2.18c2-.5,4-1.48,6-2a14.69,14.69,0,0,1,9.9.84c3.65,1.69,5.5,4.87,8.13,7.62A13,13,0,0,1,87.4,102.71Z" fill="#d9a67d"/><path id="Path_10295" data-name="Path 10295" d="M77.91,95.9c-.43,2.21-2.48,2.89-4.34,3.5-2.3.75-4.56,1.12-6.77-.24-2-1.23-5-3.61-4.48-6.26.54-2.8,4.47-4.39,8.77-3.56S78.44,93.11,77.91,95.9Z" fill="#6c4328"/><path id="Path_10296" data-name="Path 10296" d="M76.94,105.15a2.74,2.74,0,0,1-2.58,2,4.71,4.71,0,0,1-3.45-1.22A5.44,5.44,0,0,1,69.27,103a10.29,10.29,0,0,1-.06-3.23l-.24,0a10.75,10.75,0,0,1-1,3.06,5.4,5.4,0,0,1-2.45,2.3,4.74,4.74,0,0,1-3.66.12A2.76,2.76,0,0,1,60,102.53" fill="none" stroke="#6c4328" stroke-linecap="round" stroke-linejoin="round" stroke-width="0.92" stroke-dasharray="0.64 0.92"/></g></g></g></g></g></g></g></svg>