<?xml version="1.0" encoding="UTF-8"?>
<svg id="b" data-name="Layer 2" xmlns="http://www.w3.org/2000/svg" xmlns:xlink="http://www.w3.org/1999/xlink" viewBox="0 0 250 250">
  <defs>
    <clipPath id="g">
      <rect y="0" width="250" height="250" rx="13.85" ry="13.85" fill="none"/>
    </clipPath>
  </defs>
  <g id="c" data-name="Layer 1">
    <g id="d" data-name="Module 7">
      <rect id="e" data-name="Base-13" width="250" height="250" rx="13.85" ry="13.85" fill="#e9e1ef"/>
      <g id="f" data-name="Module 7 Art">
        <g clip-path="url(#g)">
          <g id="h" data-name="Group 2559">
            <g id="i" data-name="Group 2552">
              <path id="j" data-name="Path 13469" d="m53.6,136.1c-11.22,0-20.32-2.09-20.32-4.67v18.16c0,2.58,9.1,4.67,20.32,4.67s20.32-2.09,20.32-4.67v-18.16c0,2.58-9.1,4.67-20.32,4.67Z" fill="#82b3d7"/>
              <path id="k" data-name="Path 13470" d="m53.61,144.33c-3.62.01-7.23-.2-10.82-.63-2.68-.28-5.33-.83-7.9-1.63-.88-.26-1.73-.63-2.52-1.09-1.29-.81-1.15.92-1.15,1.79v49.45c0,2.91,1.6,5.59,4.18,6.96,2.95,1.65,9.99,2.81,18.22,2.81s15.27-1.16,18.22-2.81c2.57-1.37,4.18-4.05,4.18-6.96v-50.77c0-1.29-1.15-.43-1.83-.11-.63.3-1.29.56-1.96.77-5.9,1.92-12.45,2.22-18.6,2.22Z" fill="#8fbad9"/>
              <path id="l" data-name="Path 13471" d="m72.01,129.43c-1.45-.6-2.94-1.07-4.47-1.41-.84-.19-1.72-.37-2.64-.52-1.26-.21-2.17-.2-2.18-.69,0-.38,0-.76,0-1.13v-1.76h-18.34v1.79c.03.38.03.76,0,1.15-.08.49-1.19.48-2.4.69-.91.16-1.78.33-2.61.53-1.51.34-2.98.82-4.41,1.42-1.54.67-3.7,1.8-3.7,3.73v3.57c0,.07.01.14.02.21.26,2.79,10.17,5.04,22.37,5.04,5.01.07,10.01-.37,14.94-1.32,1.63-.31,3.23-.78,4.77-1.4.55-.22,1.07-.5,1.56-.84,1.05-.75,1.02-2.07,1.02-3.24v-2.06c0-1.34-1.39-2.66-3.93-3.75Z" fill="#8fbad9"/>
              <path id="m" data-name="Path 13472" d="m53.6,117.11c-9.86,0-17.85-1.84-17.85-4.1v15.96c0,2.27,7.99,4.1,17.85,4.1s17.85-1.84,17.85-4.1v-15.96c0,2.27-7.99,4.1-17.85,4.1Z" fill="#82b3d7"/>
              <path id="n" data-name="Path 13473" d="m67.54,100.54c-.85-.49-1.73-.92-2.64-1.29-1.26-.52-2.17-.49-2.18-1.72,0-.93,0-1.87,0-2.8v-4.36h-18.34v4.44c0,.94.06,1.9,0,2.84-.08,1.21-1.19,1.18-2.4,1.7-.9.38-1.77.82-2.61,1.31-1.63.94-3.12,2.12-4.41,3.5-2,2.1-3.3,4.77-3.7,7.65v11.47c0,.07.01.14.02.21.26,2.79,10.17,5.03,22.37,5.03,5.01.07,10.01-.37,14.94-1.31,1.63-.31,3.23-.78,4.78-1.4.55-.22,1.07-.5,1.56-.84,1.05-.75,1.02-2.07,1.02-3.24v-8.43c-.07-3.48-1.48-6.8-3.93-9.28-1.31-1.37-2.82-2.54-4.48-3.47Z" fill="#8fbad9"/>
              <path id="o" data-name="Path 13474" d="m53.61,150.39c-12.37,0-22.39-2.3-22.39-5.15v38.72c0,2.84,10.03,5.15,22.39,5.15s22.39-2.3,22.39-5.15v-38.72c0,2.84-10.03,5.15-22.39,5.15Z" fill="#c9cbcd"/>
              <path id="p" data-name="Path 13475" d="m44.23,82.69c.48.35,1.02.61,1.58.78,1.1.3,2.23.48,3.37.52,3.74.33,7.5.25,11.21-.23.78-.07,1.54-.3,2.23-.66.21-.13.4-.3.55-.49-6.33-.83-12.73-.84-19.06-.02.03.03.07.07.11.1Z" fill="#a91f23"/>
              <path id="q" data-name="Rectangle 429" d="m44.18,82.59h18.86c1.59,0,2.89,1.29,2.89,2.88h0v7.1c0,.37-.3.68-.67.68h-23.28c-.37,0-.67-.3-.68-.67v-7.1c0-1.59,1.29-2.89,2.88-2.89,0,0,0,0,0,0Z" fill="#d62028"/>
              <path id="r" data-name="Rectangle 430" d="m42.49,94.4h22.23c.66,0,1.2.54,1.2,1.2h0v.36c0,.15-.13.28-.28.28h-24.07c-.15,0-.28-.13-.28-.28,0,0,0,0,0,0v-.35c0-.66.54-1.2,1.2-1.2h0Z" fill="#8fbad9"/>
              <path id="s" data-name="Path 13476" d="m45.95,168.34c.35-.82,2.51-8.3,2.97-9.9l13.18-1.51-2.26,4.71,4.89-2.26-15.25,22.96c.06-.88.92-15.13,1-15.94l-4.47,1.93" fill="#d62028"/>
            </g>
            <g id="t" data-name="Group 2554">
              <path id="u" data-name="Path 13477" d="m19.31,135.64c.39.31.84.54,1.31.7.91.27,1.84.43,2.79.46,3.09.29,6.2.22,9.28-.21.65-.07,1.28-.27,1.85-.59.18-.12.33-.27.46-.44-5.23-.74-10.54-.75-15.77-.01.03.03.06.06.09.09Z" fill="#eff2f4"/>
              <path id="v" data-name="Path 13478" d="m38.51,154.75c-.53-1.2-2.37-1.21-3.26-2.11-1.18-1.18-1.14-2.97-1.1-4.42,0-.29.03-.67.06-1.09.07-1.43.08-3.36-.9-4.12-1.53-1.19-4.36-.76-6.25-.79-1.99-.03-4.61-.47-6.23.79-.98.76-.97,2.69-.9,4.12.02.42.05.8.06,1.09.04,1.45.08,3.23-1.1,4.42-.9.9-2.73.91-3.26,2.11.87.02,7.26-.24,11.45-.36,4.19.12,10.58.37,11.45.36Z" fill="#eda4a7"/>
              <path id="w" data-name="Rectangle 431" d="m20.16,152.86h13.79c6.07,0,10.99,4.92,10.99,10.99h0v40.83c0,1.84-1.49,3.33-3.33,3.33H12.51c-1.84,0-3.33-1.49-3.33-3.33h0v-40.84c0-6.07,4.92-10.99,10.99-10.99Z" fill="#eda4a7"/>
              <path id="x" data-name="Rectangle 432" d="m19.36,135.54h15.41c1.37,0,2.48,1.11,2.48,2.48v6.48c0,.32-.26.58-.58.58h-19.21c-.32,0-.58-.26-.58-.58h0v-6.48c0-1.37,1.11-2.48,2.48-2.48Z" fill="#fff"/>
              <path id="y" data-name="Rectangle 433" d="m17.9,146.11h18.31c.57,0,1.03.46,1.03,1.03v.37c0,.13-.11.24-.24.24h-19.89c-.13,0-.24-.11-.24-.24t0,0v-.37c0-.57.46-1.03,1.03-1.03,0,0,0,0,0,0Z" fill="#eda4a7"/>
              <path id="z" data-name="Path 13479" d="m10.5,158.33c-.86,1.37-1.31,2.95-1.32,4.56v42.09c0,1.68,1.63,3.04,3.65,3.04h28.47c2.01,0,3.65-1.36,3.65-3.04v-42.09c0-1.61-.46-3.19-1.32-4.56H10.5Z" fill="#d62028"/>
              <g id="aa" data-name="Group 2553">
                <path id="ab" data-name="Rectangle 434" d="m17.64,164.25h27.36v37.84h-27.36c-1.62,0-2.93-1.31-2.93-2.93v-31.98c0-1.62,1.31-2.93,2.93-2.93h0Z" fill="#fff" stroke="#fff" stroke-linecap="round" stroke-linejoin="round" stroke-width=".37"/>
                <rect id="ac" data-name="Rectangle 435" x="17.24" y="166.35" width="25.24" height="33.64" fill="#bcd6e9"/>
              </g>
              <path id="ad" data-name="Rectangle 436" d="m9.46,202.18h-.28v-37.84h.28c1.62,0,2.93,1.31,2.93,2.93v31.98c0,1.62-1.31,2.93-2.93,2.93h0Z" fill="#fff" stroke="#fff" stroke-linecap="round" stroke-linejoin="round" stroke-width=".37"/>
            </g>
            <g id="ae" data-name="Group 2556">
              <path id="af" data-name="Path 13480" d="m184.52,189.06c-9.73-2.86-20.07-2.86-29.8,0h-6.35v5.58h.01c.38,4.01,9.74,7.21,21.24,7.21s20.86-3.2,21.24-7.21h.01v-5.58h-6.35Z" fill="#cee1ee"/>
              <path id="ag" data-name="Path 13481" d="m193.61,190.63l5.43-27.42h-58.9l5.43,27.42v.09c0,.35.08.69.22,1.01v.07h.03c1.7,3.59,11.69,6.34,23.77,6.34s22.07-2.76,23.77-6.34h.02v-.07c.16-.32.23-.66.24-1.01,0-.03,0-.06,0-.09Z" fill="#cee1ee"/>
              <path id="ah" data-name="Path 13482" d="m169.57,198.29c-9.2,0-17.19-1.6-21.23-3.95v.43h.01c.38,4.01,9.74,7.21,21.24,7.21s20.86-3.21,21.24-7.21h.01v-.46c-4.02,2.36-12.04,3.98-21.28,3.98Z" fill="#8b9fad" isolation="isolate" opacity=".3"/>
              <path id="ai" data-name="Path 13483" d="m181.48,193.79l.61,1.57c.17.43.38.91.82,1.03.5.06.99-.18,1.24-.62.8-1.1,1.02-3.39-.28-4.26-.56-.3-1.24-.27-1.78.08-.98.48-.97,1.26-.61,2.2Z" fill="#6c1012"/>
              <path id="aj" data-name="Path 13484" d="m176.12,201.36c.03-.22-.14-.41-.07-.66.08-.27-.11-.3-.3-.18-.16.1-.34.36-.47.07-.09-.25.04-.52.29-.61.03-.01.06-.02.09-.02.33-.1.68-.12,1.02-.08.5.08.34.54.36.87.02.42.47.22.61.45-.5.13-1.01.19-1.52.18Z" fill="#3b3d41"/>
              <path id="ak" data-name="Path 13485" d="m187.71,182.77c2.28,1.26,1.25,4.86-.38,6.18-1.6,1.3-4.8,1.55-5.92-.53-.41-.96-.28-2.06.32-2.91.96-1.74,2.73-2.88,4.71-3.03.44-.02.87.08,1.26.29Zm-1.54,3.66c.59-.04.78-.53.94-1.09.07-.23.3-.42,0-.65-.24-.18-.47-.39-.81-.19-.15.1-.32.13-.49.1-.88-.16-.41.91-.95,1.06.1.33.37.58.7.66.17.04.34.06.6.11Z" fill="#303086"/>
              <path id="al" data-name="Path 13486" d="m180.19,194.95c-.11-.13-.15-.31-.09-.48.03-.09.12-.12.13-.23,0-.15-.13-.31-.21-.42-.21-.35-.32-.76-.32-1.17,0-.37.04-.73.15-1.08.13-.29.53-.54.76-.75.19-.18.4-.48.64-.58.13-.05.28-.05.38-.14.06-.07.11-.16.13-.25.17-.56.77-.72,1.24-.85.73-.2,1.37-.6,2.07-.84.64-.09,1.29-.14,1.93-.14.65-.16,1.34-.03,1.89.34.14.07.28.11.43.12.15.02.29.11.36.24.08.22-.11.49.04.67.06.08.16.1.23.16.2.17.1.5-.06.71-.39.52-.34,1.09-.72,1.64-.14.17-.27.35-.38.55-.09.19-.11.41-.22.6-.15.26-.44.42-.54.7-.05.13-.04.27-.08.4-.05.18-.18.2-.29.31s-.1.24-.17.34l-.1.14c-.16.25-.56.26-.78.48-.28.28-.46.65-.77.91-.3.28-.66.47-1.06.58-.35.08-.51.45-.87.56-.4.13-.84.13-1.23-.01-.28-.02-.55-.07-.82-.14-.29-.12-.59-.68-.75-.95-.12-.21-.14-.47-.36-.62s-.13-.31-.22-.49c-.07-.14-.26-.21-.36-.33Zm1.83-2.71c-.24.14-.35.42-.28.69.12.67.88,1.13.83,1.86-.03.19-.05.38-.05.56,0,.19.1.37.27.46.17.06.36,0,.49-.12.12-.13.22-.28.29-.44.39-.8.7-2.22-.14-2.88-.41-.3-.95-.35-1.4-.13Z" fill="#a01e21"/>
              <path id="am" data-name="Path 13487" d="m186.17,186.43c-.26-.04-.43-.07-.6-.1-.33-.08-.6-.33-.7-.66.55-.15.08-1.22.95-1.06.17.03.35,0,.49-.1.34-.2.57,0,.81.19.29.22.06.41,0,.65-.17.55-.35,1.04-.95,1.08Z" fill="#314261" stroke="#5757a1" stroke-miterlimit="10" stroke-width=".46"/>
              <path id="an" data-name="Path 13488" d="m153.01,183.71c.23.08.44.19.57.25.49.2.96.46,1.4.76.88.62,1.64,1.39,2.26,2.27.66.87,1.2,1.83,1.62,2.84.61,1.64,1.04,3.34,1.31,5.07.18,1.11.9,4.01-.16,4.81-.35.24-.78.34-1.2.26-3.04-.67-5.81-2.23-7.97-4.47-1.01-1.09-1.87-2.32-2.55-3.65-.25-.56-.47-1.13-.66-1.72l-.44-1.2c-.17-.45-.53-1.08.24-1.09.25,0,.52.04.56.34.12.64.49,1.2,1.03,1.55.8.67,1.93.78,2.84.28.21-.18.37-.4.47-.66.12-.3.1-.63-.05-.91-.12-.19-.22-.39-.3-.61-.03-.11-.05-.16.05-.2.2,0,.41.01.61.07.28.25.46-.07.67-.14.91-.27,1.02-.61.47-1.38-.12-.16-.31-.32-.18-.52.15-.25.28-.53-.03-.7-.11-.05-.22-.09-.34-.12-.44-.13-.85-.35-1.18-.67-.13-.12-.3-.25-.28-.44.03-.2.21-.33.41-.3.02,0,.04,0,.05.01.12.04.23.1.34.15.15.05.3.06.45.11Z" fill="#d62028"/>
              <path id="ao" data-name="Path 13489" d="m152.75,187.67s-.02-.1-.04-.15l-.23-1.04c-.14-.48-.24-.97-.32-1.46.05-.79-.11-1.57-.47-2.27-.39-.64-1.18-.92-1.89-.66-.36.23-.66.55-.85.93l-1.15,1.85c-.36.51-.63,1.07-.78,1.67-.06.29-.07.59-.11.89-.02.11-.11.38-.03.47.1.13.56.09.71.1.29.02.25.12.32.38.06.23.16.46.27.67.18.32.48.52.66.82.19.31.47.56.8.71.39.14.77.31,1.14.51.23.19.49.34.77.44.32.05.65-.07.87-.31.22-.24.37-.53.45-.84.19-.64.22-1.31.09-1.96-.05-.26-.14-.49-.21-.73Z" fill="#3b967d"/>
              <path id="ap" data-name="Path 13490" d="m152.55,186.2c-.82.13-1.28-.46-1.92-1.02.86.1,1.29.75,1.92,1.02Z" fill="#39b34a"/>
              <path id="aq" data-name="Path 13491" d="m151.22,184.07c-.3.02-.6.02-.9.04-.2.02-.51.23-.53-.14-.02-.31.33-.24.53-.23.48.04.95.09,1.43.15.19.02.4.12.51-.06.06-.15.06-.32,0-.46-.1-.19-.24-.36-.42-.48-.36-.28-.78-.49-1.22-.61-.38-.05-.73-.2-1.03-.44-.12-.13-.2-.29-.24-.46-.03-.09-.02-.47-.08-.52-.14-.12-.6.33-.62.47-.07.4-.1.81-.51,1.05,0,.16-.01.33-.02.49-.45.05-.66-.21-.95-.54-.59-.82-1.39-1.49-2.3-1.93.24.81.94,1.25,1.46,1.84.22.19.41.4.58.63.06.14.09.29.06.44.01.41.34.57.23.99-.09.32-.25.62-.48.87-.2.22-.88.52-.92.84-.04.28.1.55.35.67.39.22.87.25,1.29.07.4-.11.8-.18,1.21-.21,1.12-.11,2.24-.1,3.36.03.17.03.33.03.5,0,.17-.03.31-.14.38-.3.04-.14.02-.3-.06-.42-.08-.12-.18-.23-.29-.32-.21-.19-.41-.38-.62-.56-.28-.25-.27-.91-.71-.88Z" fill="#3b967d"/>
              <g id="ar" data-name="Group 2555">
                <path id="as" data-name="Path 13492" d="m144.88,180.4c-.43-.38-.7-.91-.75-1.48.32-1.05,4.06,2.43,4.02,3.46,0,.16-.01.33-.02.49-.45.05-.66-.21-.95-.54-.6-.82-1.39-1.49-2.3-1.93Z" fill="#46a98a"/>
                <path id="at" data-name="Path 13493" d="m152.18,183.95c.23.26.51.46.83.59.44.17,1.06.39.6,1.12-.13.21.06.36.18.52.55.77.44,1.11-.47,1.38-.21.06-.39.38-.67.14.04-.7-.61-.71-1.01-.91-.23-.12-1.19-.38-1.18-.57.04-.84-1.02-.22-1.34.08-.19.18-.21.47-.41.64-.4.55.11,2.06.72,2.11.11.01.3-.04.33-.11.28-.73.63-.24.8,0,.2.37.66.5,1.03.3.04-.02.08-.05.12-.08.1.09.54-.07.25.31-.2.3-.52.48-.88.5-.98.1-1.94-.37-2.46-1.21-.19-.33-.22-1.3-.46-1.49-.31-.26-1.08.27-1.51.22-.43-.06-.82-.28-1.1-.6-.2-.18-.34-.41-.42-.67-.03-.32.2-.66.54-.36.12.14.22.29.29.47.47.9,1.21.35,1.97.28.25-.02.6.17.71-.17.1-.32-.36-.39-.43-.65-.19-.78.64-.35.98-.57.62-.33,1.32-.48,2.02-.42.17,0,.47.11.43-.23-.03-.22-.07-.52-.43-.5-.3.02-.6.02-.9.04-.2.02-.51.23-.53-.14-.02-.31.33-.24.53-.23.62.04,1.24.12,1.86.19Zm.36,2.25c-.62-.27-1.06-.91-1.92-1.02.64.56,1.09,1.14,1.91,1.02h0Z" fill="#46a98a"/>
                <path id="au" data-name="Path 13494" d="m150.86,180.28c.62.18,1.29.51,1.72.67.6.23,1.23.65,1.07,1.37-.11.49-.81,1.33-1.33,1.35-.58.03-.56-.41-.89-.68-.46-.37-.88-.02-1.32.15-.61.22-.3-.26-.21-.61-.16.09-.32.17-.48.25-.16,0-.14.01-.15-.15-.03-.24.31-.5.22-.74-.07-.21-.37-.22-.45-.46-.05-.18-.03-.37.05-.53.15-.34.45-.6.81-.7.33-.06.66-.03.98.08Z" fill="#46a98a"/>
                <path id="av" data-name="Path 13495" d="m145.75,184.54c-.27-.16-1.38-.74-1-1.22.28-.36,1.54-.17,1.92-.1.53.08.89.58.81,1.11-.02.12-.06.23-.12.33-.12.26-.4.35-.56.58-.13.18-.12.45-.39.54-.04.01-.4.04-.29-.12.38-.55.06-.85-.36-1.12Z" fill="#46a98a"/>
              </g>
              <path id="aw" data-name="Path 13496" d="m178.57,194.29c-.33-.03-.66.03-.96.18-.1.03-.2.15-.32.08-.2-.11-.06-.55.02-.69.14-.22.3-.41.5-.58.18-.18.51-.46.45-.74-.52-.18-1.04.24-1.31.64-.19.29-.31.58-.6.15-.32-.41-.77-.69-1.28-.8-.18-.05-1.2-.25-1.29,0-.04.13.24.24.32.3.18.15.32.34.42.55-.09-.19-.75-.29-.94-.32-.32-.04-.64-.06-.96-.05-.31,0-.62-.01-.93-.05-.26-.04-.52-.25-.79-.19.08.28.16.28.4.4.18.06.3.24.27.43.01-.12.99.2,1.08.27.32.32.76.49,1.21.46.34-.05.7-.7.97-.44.24.23.13.54.57.65.24.06.49.03.74.07.45.12.85.35,1.19.67.42.33.89.58,1.4.73-.06-.6.66-.64,1.07-.76.14-.02.26-.09.36-.18.1-.1.1-.26,0-.36h0c-.31,0-.62-.02-.92-.08-.19-.08-.37-.18-.55-.29-.04-.02-.08-.03-.12-.04Z" fill="#46a98a"/>
              <path id="ax" data-name="Path 13497" d="m178.68,197.49c-.28-1.1-1.01-2.03-2.02-2.56-.77-.36-1.61-.57-2.46-.62-.96-.1-1.93-.14-2.9-.11-.3,0-.55-.15-.85-.15-.24-.02-.46.08-.62.26-.08.12-.13.26-.16.4-.01.04-.02.07-.04.11-.17.43-.53.45-.79.75s-.08.75-.29,1.06c-.15.22-.43.15-.57.42-.08.23-.1.47-.05.71.06.29.14.57.23.85.04.38.04.76,0,1.14.08.73.29,1.44.64,2.09.27,0,.54,0,.81,0,2.83,0,5.65-.2,8.44-.61.06-.12.1-.24.13-.37.1-.37.26-.65.38-1.01.26-.76.3-1.58.11-2.37Z" fill="#5757a1"/>
              <path id="ay" data-name="Path 13498" d="m179.6,197.83c-.04-.09-.1-.17-.18-.24-.08-.06-.15-.14-.19-.23-.08-.19.05-.42.06-.62.02-.23-.05-.46-.2-.63-.16-.17-.31-.13-.51-.18-.16-.05-.31-.12-.45-.21-.31-.17-.61-.38-.87-.62-.33-.38-.78-.64-1.27-.73-.24-.02-.56.09-.78-.05-.19-.11-.22-.37-.41-.48-.24-.14-.47.05-.64.22-.58.58-1.15-.19-1.67-.43-.78-.36-2.59-.07-2.6,1.05,0,.25.09.3-.12.47-.13.11-.36.14-.51.25-.29.21-.49.53-.56.88-.09.39.11,1.04-.2,1.33-.22.17-.42.35-.6.56-.35.42-.43,1.01-.19,1.5.06.14-.18.34-.24.46-.1.19-.16.4-.18.61-.04.37.04.75.24,1.06.69.02,1.39.04,2.1.04,1.9,0,3.75-.09,5.5-.25.11-.19.3-.31.51-.35.26-.05.52.04.71.23.76-.09,1.51-.19,2.23-.31.22-.34.35-.73.38-1.14.01-.54.16-.56.48-.96.26-.35.32-.81.18-1.22Zm-4.58-2.93s.03-.03.04-.04c.13-.07.27-.11.41-.14.24-.06.63.06.51.4-.09.29-.58.17-.81.14-.13-.02-.21-.15-.19-.27,0-.03.02-.06.04-.09Zm-2.62.44c.15-.02.21,0,.23.06.04.16-.43.57-.54.7-.26.3-.59.07-.43-.28.15-.27.43-.45.74-.48Zm-1.15-.86c.11-.08.24-.12.38-.12.01-.03.01-.02.01,0h.01s-.01.02-.01,0c-.03,0,.01.03-.03.03,0,.12-.01.24-.07.35-.04.11-.16.16-.27.12-.11-.04-.16-.16-.12-.27.02-.04.05-.08.09-.1h0Zm-1.22,1.05c.19-.08.44-.2.55,0,.08.16.02.36-.14.44-.05.03-.11.04-.17.04-.29,0-.29.32-.52.37-.19-.22-.17-.55.05-.74.07-.06.14-.1.23-.12h0Zm.38,2.29c-.07.2-.01.48-.35.47-.13.01-.25-.08-.27-.21-.06-.22.02-.46.2-.6.07-.06.25-.25.36-.23.07,0,.13.05.15.11.05.13-.05.35-.1.46h0Zm-1.58,1.93c-.14-.03-.13-.21-.06-.31.19-.3.2-.75.67-.82.12-.02.25.01.35.08.09.07.13.13.12.19,0,.19-.4.32-.56.41-.2.12-.19.52-.52.45h0Zm1.32,1.49c-.19-.03-.34-.28-.52-.21-.12.04-.21.39-.36.23-.1-.11.05-.29.11-.38.09-.15.26-.22.43-.2.16.04.27.19.43.21.3.05.3-.26.52-.3.09-.02.18.04.21.14.03.14-.66.54-.82.51h0Zm1.69-2.27c-.05.26-.45.51-.64.62s-.19-.15-.21-.29c-.05-.36.42-.98.77-.58.06.07.09.16.07.25h0Zm0-1.35c-.43-.15.83-.97.96-1h.04c.16-.04.34,0,.46.1.13.11.17.29.1.45-.14.18-.37.27-.59.22-.18-.04-.36-.04-.54,0-.15.06-.26.29-.44.22h0Zm2.04,3.12c-.06.11-.15.19-.26.25-.2.16-.44.27-.7.31-.16,0-.32-.05-.44-.16h-.01c-.07-.07-.1-.16-.11-.25.01-.18.09-.34.22-.47.07-.1.15-.18.25-.26.11-.08.43-.16.4.1-.02.1-.1.19-.19.24-.1.04-.18.11-.25.19-.06.08-.05.2.03.26,0,0,0,0,.01,0,.08.02.17,0,.21-.08.04-.07.08-.14.12-.21.16-.27.94-.4.72.07h0Zm-.29-1.36c-.08-.18,0-.38.18-.46.02,0,.04-.01.06-.02.43-.16.54.21.72.52-.32-.36-.69.51-.96-.05h0Zm.43-2.92c.09-.42.21-.75.67-.71.19.02.31.16.28.28-.13.55-.71.06-.95.42h0Zm1.81,2.91c0,.13-.03.25-.2.25-.15-.04-.25-.19-.23-.34.02-.16.09-.31.28-.28.2.03.14.23.15.37h0Zm-.86-.83c-.15.09-.17-.18-.2-.32-.1-.49.24-.82.44-1.29.31.42-.13.66-.07.98.45.14.65-.41,1.11-.4-.03.89-.83.76-1.29,1.03h0Zm1.69-2.08c-.17-.55.88-1.03.99-.32.05.15-.02.32-.16.39-.18.12-.75.22-.83-.07h0Zm.9,3.41c-.13.03-.28.05-.34.17-.03.1-.04.2-.03.29,0,.1-.08.22-.18.19s-.11-.16-.08-.25c.08-.42.47-.7.89-.65.01.13-.13.22-.26.25h0Zm.36-1.59c-.08.11-.28.05-.4.11-.16.08-.18.22-.29.32-.24.23-.37.04-.29-.26.05-.21.04-.53.38-.57.16-.02.83.1.59.4h0Z" fill="#3b3d41"/>
              <path id="az" data-name="Path 13499" d="m190.03,152.77c.07.37-.09.75-.41.95-1.74,1.5-9.49,2.45-17.3,2.12-6.26-.27-10.2-1.46-8.81-2.66,1.11-.96,6.07-1.57,11.07-1.35,4,.17,6.53.93,5.64,1.7-.71.61-3.89,1-7.09.87-2.56-.11-4.18-.6-3.61-1.09" fill="none" stroke="#e8b6cd" stroke-linecap="round" stroke-miterlimit="10" stroke-width=".76"/>
              <path id="ba" data-name="Path 13500" d="m193.57,154.21c-15.79-2.86-31.97-2.86-47.76,0h-10.18v5.58h.02c.61,4.01,15.62,7.21,34.04,7.21s33.43-3.21,34.04-7.21h.02v-5.58h-10.18Z" fill="#c9ddec"/>
              <path id="bb" data-name="Path 13501" d="m193.57,154.21c-15.79-2.86-31.97-2.86-47.76,0h-10.18v5.58h.02c.61,4.01,15.62,7.21,34.04,7.21s33.43-3.21,34.04-7.21h.02v-5.58h-10.18Z" fill="#8b9fad" isolation="isolate" opacity=".3"/>
              <path id="bc" data-name="Path 13502" d="m144.45,160.04c-.38,1.06-.44,2.21-.18,3.31.68,2.92,3.34,4.8,5.95,4.2,2.62-.77,4.18-3.46,3.54-6.11-3.46-.36-6.6-.84-9.31-1.4Z" fill="#303086"/>
              <path id="bd" data-name="Path 13503" d="m148.84,161.13c.39.06.65.1.9.15.49.11.89.46,1.05.94-.82.22-.12,1.75-1.43,1.52-.26-.05-.52,0-.74.15-.51.29-.85-.01-1.2-.27-.43-.32-.09-.59.01-.92.24-.8.52-1.5,1.41-1.56Z" fill="#314261" stroke="#5757a1" stroke-miterlimit="10" stroke-width=".67"/>
              <ellipse id="be" data-name="Ellipse 1688-2" cx="169.67" cy="154.75" rx="35.74" ry="7.46" fill="#cee1ee"/>
              <ellipse id="bf" data-name="Ellipse 1689-2" cx="169.67" cy="154.75" rx="31.07" ry="6.49" fill="#e3a5c2"/>
              <path id="bg" data-name="Path 13504" d="m185.33,158.62c-4.98.58-9.99.83-15.01.75-15.27-.65-24.89-3.56-21.5-6.5,2.72-2.35,14.82-3.83,27.04-3.31,9.77.42,15.93,2.28,13.76,4.16-1.74,1.5-9.49,2.45-17.3,2.12-6.26-.27-10.2-1.46-8.81-2.66,1.11-.96,6.07-1.57,11.07-1.35,4,.17,6.53.93,5.64,1.7-.71.61-3.89,1-7.09.87-2.56-.11-4.18-.6-3.61-1.09" fill="none" stroke="#e8b6cd" stroke-linecap="round" stroke-miterlimit="10" stroke-width=".76"/>
              <path id="bh" data-name="Path 13505" d="m130.95,131.99c2.41.09,4.57,1.97,6.46,3.39,5.09,3.64,10.46,6.87,16.07,9.64,1.74.91,3.47,1.82,5.2,2.72,2.54,1.32,5.06,2.7,7.63,3.9.14.07.28.14.43.21-1.15.07-2.27.38-3.28.92-6.7-4.09-13.63-7.8-20.75-11.11-2.35-1.14-4.62-2.16-7.04-3.15-2.06-.84-4.26-1.65-5.77-3.35-1.29-1.45-1.36-3.25,1.06-3.16Z" fill="#ababac"/>
            </g>
            <g id="bi" data-name="Group 2558">
              <ellipse id="bj" data-name="Ellipse 1690-2" cx="105.84" cy="173.55" rx="43.3" ry="9.77" fill="#8fbad9"/>
              <g id="bk" data-name="Group 2557">
                <circle id="bl" data-name="Ellipse 1691-2" cx="110.45" cy="166.63" r="15.61" fill="#ec9aae"/>
                <ellipse id="bm" data-name="Ellipse 1692-2" cx="113.23" cy="172.22" rx="17.84" ry="7.14" transform="translate(-32.15 26.12) rotate(-11.53)" fill="#ec9aae"/>
              </g>
              <circle id="bn" data-name="Ellipse 1693-2" cx="123.14" cy="181.59" r="15.61" fill="#fff0e3"/>
              <circle id="bo" data-name="Ellipse 1694-2" cx="90.82" cy="176.06" r="15.61" fill="#6c4e38"/>
              <path id="bp" data-name="Path 13506" d="m107.56,135.75c-.71-3.5,1.54-6.91,5.04-7.62.82-.17,1.67-.17,2.49-.02" fill="none" stroke="#68bc63" stroke-linecap="round" stroke-miterlimit="10" stroke-width="1.04"/>
              <circle id="bq" data-name="Ellipse 1695-2" cx="108.67" cy="139.39" r="4.16" fill="#d62028"/>
              <ellipse id="br" data-name="Ellipse 1696-2" cx="90.29" cy="181.33" rx="7.14" ry="17.84" transform="translate(-102.24 244.3) rotate(-81.64)" fill="#6c4e38"/>
              <path id="bs" data-name="Path 13507" d="m106.34,183.33c-18.97,0-35.47-4.09-43.89-10.12-.3,1.85-.45,3.72-.45,5.6,0,21.65,19.63,39.19,43.84,39.19s43.84-17.55,43.84-39.19c0-1.67-.13-3.33-.37-4.98-8.66,5.68-24.66,9.5-42.97,9.5Z" fill="#bcd6e9" stroke="#bcd6e9" stroke-linecap="round" stroke-linejoin="round" stroke-width="1.04"/>
              <path id="bt" data-name="Path 13508" d="m106.12,181.05c-1.36.4-2.61-1.14-2.65-2.56s.64-2.75.96-4.13.09-3.12-1.17-3.77c-2.14-1.11-6.12,2.64-7.8.45-.87-1.14.53-2.51,1.27-3.28.84-.88,1.53-2.08.18-2.4-1.13-.05-2.26.2-3.26.72-1.9.95-3.69,2.11-5.34,3.44-3.14,2.2-4.04-.75-2.87-3.35,1.1-2.12,2.71-3.94,4.68-5.29" fill="none" stroke="#1c1610" stroke-linecap="round" stroke-miterlimit="10" stroke-width="2.08"/>
              <path id="bu" data-name="Path 13509" d="m109.99,152.65c-3.82.24-5.48,5.98-6.84,8.85.04-.09,2.77-1.08,3.16-1.39.98-.86,1.91-1.78,2.79-2.75,2.14-2.09,5.12-3.07,8.08-2.66-2.29,1.6-4.22,3.65-5.68,6.03-.68,1.25-1.13,2.61-1.32,4.01-.24,1.44-.79,2.81-1.61,4.02-.11.19,1.27-.2,1.37-.26.44-.37.86-.77,1.24-1.2,2.38-2.07,5.45-5.26,8.92-4.78,1.87.33,3.5,1.48,4.43,3.13-1.46.93-3.01,2.19-4.43,3.27-1.65,1.26-2.72,3.14-2.98,5.2-.1.88.08,1.97.91,2.27,1.01.37,1.89-.73,2.56-1.58,2.83-3.42,7.62-4.48,11.62-2.57" fill="none" stroke="#1c1610" stroke-linecap="round" stroke-linejoin="round" stroke-width="2.08"/>
              <path id="bv" data-name="Path 13510" d="m100.21,151.05c.3-.49.78-1.04.54-1.56-.11-.18-.25-.34-.41-.46-.86-.79-.95-2.62.13-2.98.58-.2,1.24.14,1.82-.06,1.81-.63,1.06-4.14,3.68-3.96.38.06.76.17,1.11.33,1.82.6,2.39-.52,3.96-.83,1.63-.24,3.23.62,3.93,2.12.19.59.44,1.16.74,1.7.62.66,1.42,1.13,2.3,1.34,1.38.46,2.55,1.4,3.31,2.64.77,1.32.63,2.99-.34,4.17-.87.76-2.06,1.04-3.18.76-1.11-.21-2.15-.72-3.24-1.03-1.62-.39-3.29-.58-4.96-.54-1.54-.13-3.1.03-4.58.48-1.1.41-3.02,1.88-4.24,1.31-1.11-.52-1.14-2.49-.56-3.43Z" fill="#fff0e3"/>
            </g>
          </g>
        </g>
      </g>
    </g>
    <g id="bw" data-name="Yogurt" isolation="isolate">
      <g isolation="isolate">
        <path d="m160.55,173.36c.16,0,.33.07.39.27l.39,1.53.23,1.39h.1l.23-1.39.39-1.53c.06-.2.23-.27.39-.27h.58c.36,0,.46.29.37.56l-1.29,4.05v2.02c0,.25-.15.4-.4.4h-.64c-.25,0-.4-.15-.4-.4v-2.02l-1.29-4.05c-.09-.27,0-.56.37-.56h.58Z"/>
        <path d="m167.11,176.1v3.04c0,.89-.57,1.3-1.62,1.3s-1.62-.41-1.62-1.3v-3.04c0-.89.57-1.3,1.62-1.3s1.62.41,1.62,1.3Zm-1.96.04v2.96c0,.25.12.37.34.37s.34-.12.34-.37v-2.96c0-.25-.12-.37-.34-.37s-.34.12-.34.37Z"/>
        <path d="m171.24,181.03c0,.89-.57,1.3-1.62,1.3h-.67c-.25,0-.4-.15-.4-.4v-.17c0-.25.15-.4.4-.4h.67c.22,0,.34-.12.34-.37v-1c-.29.28-.69.45-1.05.45-.49,0-.91-.32-.91-1.09v-3.46c0-.77.42-1.09.91-1.09.36,0,.76.17,1.05.45h0c0-.25.15-.4.4-.4h.48c.25,0,.4.15.4.39v5.79Zm-1.96-2.03c0,.25.12.37.34.37s.34-.12.34-.37v-2.77c0-.25-.11-.37-.34-.37s-.34.12-.34.37v2.77Z"/>
        <path d="m172.13,175.24c0-.24.15-.39.4-.39h.49c.25,0,.4.15.4.39v3.77c0,.25.12.37.34.37s.34-.12.34-.37v-3.77c0-.24.15-.39.4-.39h.48c.25,0,.4.15.4.39v4.76c0,.24-.15.39-.4.39h-.48c-.25,0-.4-.15-.4-.39h0c-.29.27-.69.44-1.05.44-.49,0-.91-.32-.91-1.09v-4.12Z"/>
        <path d="m179.51,177.04c0,.24-.15.39-.4.39h-.48c-.25,0-.4-.15-.4-.39v-.81c0-.25-.12-.37-.34-.37s-.34.12-.34.37v3.76c0,.24-.15.39-.4.39h-.49c-.25,0-.4-.15-.4-.39v-4.76c0-.24.15-.39.4-.39h.49c.25,0,.4.15.4.39h0c.29-.27.69-.44,1.05-.44.5,0,.91.32.91,1.09v1.16Z"/>
      </g>
    </g>
  </g>
</svg>