<svg xmlns="http://www.w3.org/2000/svg" viewBox="0 0 250 250"><g id="Layer_2" data-name="Layer 2"><g id="Layer_1-2" data-name="Layer 1"><rect id="Base-12" width="250" height="250" rx="13.85" fill="#fbf8c8"/><path d="M79.33,6.94A51.63,51.63,0,0,1,75.77,0H13.85A13.85,13.85,0,0,0,0,13.85V151.79c1.86.62,3.72,1.2,5.62,1.72,28.33,7.7,46.55-15.23,45.6-42-.3-8.3-1.63-15.87,2-23.46S62.68,74.22,66,66.6c2.59-5.93-.44-12.63.32-18.78,1.8-14.6,24.38-7.22,23.24-24.09C89.09,16.51,82.9,12.61,79.33,6.94Z" fill="#f6d4a6"/><path d="M91.66,250h14.77l-3.2-31.19a5.65,5.65,0,0,0-6.2-5l-3.38.34a5.66,5.66,0,0,0-5,6.21Z" fill="#deb18a"/><path d="M185.38,250V179.6a5.65,5.65,0,0,0-5.65-5.65h-3.4a5.65,5.65,0,0,0-5.65,5.65V250Z" fill="#deb18a"/><path d="M146.15,250V201.6A5.65,5.65,0,0,0,140.5,196h-3.4a5.65,5.65,0,0,0-5.65,5.65V250Z" fill="#deb18a"/><g id="Group_1171" data-name="Group 1171"><rect id="Rectangle_220" data-name="Rectangle 220" x="209.91" y="151.95" width="14.7" height="87.9" rx="5.66" fill="#deb18a"/><path id="Path_6142" data-name="Path 6142" d="M216.91,9.86c-13.37,0-24.22,12.87-24.22,28.75v137.8h48.44V38.61C241.13,22.73,230.29,9.86,216.91,9.86Z" fill="#efa6a8"/><path id="Path_6143" data-name="Path 6143" d="M198.83,24.06c-1.87-2.87,2.38-6.79,4.3-8.33a20.48,20.48,0,0,1,6.7-3.55,18.11,18.11,0,0,1,19.74,5.23,3.6,3.6,0,0,1,.67,1c.39,1.05-.22,1.16-1,1.54-2.55,1.26.56,6.25.49,8.27a12,12,0,0,0,.9,5.45,6.52,6.52,0,0,0,1.3,2c.53.53,1.32.91,1,1.82a3.27,3.27,0,0,1-.66.9c-.41.49-1.64,5.17-.37,4.93.49-.09.38-.94.57-1.3a2.42,2.42,0,0,1,2.12-1.25,1.77,1.77,0,0,1,1.52,1.6c.15,3.12.29,6.28-1,9.24-.75,1.76-1.65,4-1.06,5.37.74,1.79,0,2.64-.76,3.67s-1,2.2-1.69,2.9c-2.45,2.72.58,2.25,1.51,2.9,1.16.8,1.77-.19,1.71-1a6.63,6.63,0,0,1,.9-3.1,4.54,4.54,0,0,0,.43-1.53c0-.4-.38-.89.28-1.13a1,1,0,0,1,1.21.58,2.13,2.13,0,0,1,0,1.45c-.14.47-.35.92-.46,1.4a11,11,0,0,0,.31,3.92,10.39,10.39,0,0,1-1.28,6.41,2.66,2.66,0,0,0-.3,2.34c.47,1,1.8.53,2.17,1.14s-.28.88-.4,1.32a6.11,6.11,0,0,0,0,1.48c0,1.19.38,2.45-.53,3.51-1,.41-1.76.64-1.28-1,.32-1.1.83-2.42.49-3.38-.48-1.38-2.07-.64-3.14-.68s-2.55-.51-2.9.93c-.3,1.24.39,2.08,1.82,2.1,1.06,0,1.75.41,1.8,1.66a7.59,7.59,0,0,0,2,4.86c.74.84,1.32,1.87-.46,2.47-.81.27-2.14.65-1.92,1.7.3,1.43,2.08.27,3,1.1a2.6,2.6,0,0,1,.72,1.65,5.5,5.5,0,0,1-2,4.72,2.18,2.18,0,0,0-.72,3,2.12,2.12,0,0,0,.59.64,2.51,2.51,0,0,1,.92,1.81,36.25,36.25,0,0,1-1.25,12.39c-.23.76-.84,1.41-.94,2.21-.16,1.24.62,1,1.12,1.72a1,1,0,0,1,.05,1c-.65,1.23-.08,2.13.53,3.32a1.18,1.18,0,0,1-.14,1.52c-1.7,1.26-.78,2.7-.45,4.16.2.87.57,1.25,1.45,1s1.28-.61.91-1.52c-.17-.43-.07-1.6.38-1.86,1-.6,1.16,1.83.88,2.38-.91,1.79-.49,3.6-.32,5.42.07.73.56,1.51-.23,2.15-.48-.27-1.14-.67-1.46-.11a23.34,23.34,0,0,1-2,3.55c-.48.6.09,1.37,1,1.24s1.87-.24,2.6.59a2.55,2.55,0,0,1,.16,2.06l-.36,1c-1.67,1.41-1.43,2.76.12,4.08v.57c0,.7-1,.9-.62,1.83a12.39,12.39,0,0,1,1.26,3.64,18.48,18.48,0,0,1-.6,5.44c-.67,3.12-.93,6.3-2.16,9.28-.38.92-.85,2.68-1.77,3.21-1.25.71-3.5-.62-4.45-1.5.2-.86-.68-2-1.6-1.73s-1.07,2.07-1.61,2.69l-.12.13c-1.67-.7-.66-2.41-1.31-3.5q.12-.18.24-.39c1-1.29,1.57-2.66.84-4.3a1.8,1.8,0,0,0-.28-1.7c1-1,1-2.29,1-3.52.3-7.26.11-14.53-.08-21.79,0-1.74.59-3.51.32-5.11-.53-3.2.4-6.36-.21-9.52-.66-3.34.22-6.68.16-10-.09-6,.17-12.05.07-18.09,0-1.87.45-3.82-.6-5.48-1.2-1.9-1.36-3.4.42-5.1.85-.82.37-2.27.22-3.42-.11-.86-.05-1.7-.09-2.55-.12-2.31.5-4.58.54-6.9a7.86,7.86,0,0,0-.49-3.36c-.37-.8-.65-1-.22-1.94a8.22,8.22,0,0,0,.89-2.86c.2-2-.2-3.94.05-5.9.61-4.68-.77-9.53.06-14.34a13.7,13.7,0,0,0,.23-4.9c-1-4.79-.41-9.62-.74-14.43-.19-2.73-2-6-4.6-7-1-.39-1.86-.28-1.77.94.19,2.63-2.35,2.87-3.54,4.27a.48.48,0,0,1-.68,0,.44.44,0,0,1-.12-.4c.21-1.56-1-2.73-1-4.26,0-1.31-.68-2-2.14-1.69a6.65,6.65,0,0,1-3.91-.52,7,7,0,0,0-6.6.48c-1.67,1.17-3.28,3.77-3,5.86.07.47,0,1.05-.39,1.26a.84.84,0,0,1-1-.36Zm31.48,105a.51.51,0,0,0-.32.05c-1.62.68-.83,4.33-.43,5.49.27.77.7.69,1.22.23C231.75,134,231.58,129.21,230.31,129ZM230,152.32c.4.3,1.15,1.21,1.94.35.93-1,.22-2.12-.6-2.84-.58-.5-1.51-1.28-2.26-.47C228,150.43,228.85,151.35,230,152.32Zm5.34,10.14c.32-.72,1.45-2.1.87-2.94a1.19,1.19,0,0,0-1.69-.07l0,0c-.46.49-.28,1.36-.61,1.92a.58.58,0,0,0-.08.22c-.08.5-.78,1-.16,1.47S234.79,163,235.32,162.46ZM230.37,84.1c.41.44.83.48,1.22.08a1.23,1.23,0,0,0,.13-1.71l-.12-.12c-.38-.42-.94-.73-1.4-.28-.72.69-.09,1.39.17,2Z" fill="#e7797d"/><path id="Path_6144" data-name="Path 6144" d="M195.8,76.06c.08-4.27,1-8.47,1-12.71a47.67,47.67,0,0,1,1.45-13.14,3.39,3.39,0,0,1,.63-1.36,1.2,1.2,0,0,1,1.36-.38c.72.34.67,1.37.5,2.15-.89,4.05-2,8.14-2,12.32-.27,2.37-.73,4.63-.92,7a44.69,44.69,0,0,0-.08,7.76c.69,7.1,1.84,14,.54,21.16-.21,1.15-.64,2.19-.79,3.35-.17,1.32-.3,2.64-.41,4q-.32,3.87-.29,7.75a2.21,2.21,0,0,1-.16,1.08.77.77,0,0,1-.91.45c-.33-.12-.46-.5-.58-.79a14.5,14.5,0,0,1-.84-4.79,19.52,19.52,0,0,1,.39-4.94,16.73,16.73,0,0,0,.73-4.66c-.09-1.7-.34-3.39-.31-5.09.06-3.24,1.1-6.4,1.2-9.63a60,60,0,0,0-.43-6.43C195.8,78.12,195.78,77.09,195.8,76.06Z" fill="#e7797d"/><path id="Path_6145" data-name="Path 6145" d="M238.11,138.68l.18,5.27c-.72-.83-1.63-.72-2.59-.59s-1.52-.64-1-1.24a24.23,24.23,0,0,0,2-3.55C237,138,237.63,138.41,238.11,138.68Z" fill="#efa6a8"/><path id="Path_6146" data-name="Path 6146" d="M230,152.32c-1.12-1-1.94-1.89-.92-3,.75-.8,1.69,0,2.26.47.82.72,1.53,1.82.6,2.84C231.13,153.53,230.39,152.62,230,152.32Z" fill="#efa6a8"/><path id="Path_6147" data-name="Path 6147" d="M230.37,84.1c-.26-.64-.89-1.34-.17-2,.46-.45,1-.14,1.4.28a1.22,1.22,0,0,1,.11,1.71l-.12.12C231.19,84.58,230.78,84.54,230.37,84.1Z" fill="#efa6a8"/><path id="Path_6148" data-name="Path 6148" d="M238.77,148.78c-.61.66-.34,1.53-.56,2.29-1.55-1.32-1.78-2.67-.11-4.08A3,3,0,0,1,238.77,148.78Z" fill="#efa6a8"/><path id="Path_6149" data-name="Path 6149" d="M238.23,151.65a3.1,3.1,0,0,1,0,2.39C236.93,153.23,237.59,152.44,238.23,151.65Z" fill="#efa6a8"/><path id="Path_6150" data-name="Path 6150" d="M238.13,153.94a.74.74,0,0,1,.3,1A.81.81,0,0,1,238.13,153.94Z" fill="#efa6a8"/><path id="Path_6151" data-name="Path 6151" d="M237.33,94c0,.23,0,.45,0,.68C237.34,94.46,237.34,94.23,237.33,94Z" fill="#efa6a8"/><path id="Path_6152" data-name="Path 6152" d="M237.38,93.29c0,.25,0,.5,0,.75Z" fill="#efa6a8"/><path id="Path_6153" data-name="Path 6153" d="M236,34.36c-.54,0-1-1.23-1.27-1.57a6.84,6.84,0,0,0-1.8-1.59c-1.09-.64-1.88-3.07-1.26-4.91a2,2,0,0,0-.25-2.31c-1-1.14.64-5.51,1.66-2.08.41,1.36,4.16,12,3.08,12.43A.41.41,0,0,1,236,34.36Z" fill="#e7797d"/><path id="Path_6154" data-name="Path 6154" d="M212.17,162.89c-.46.53-.87.72-1.35.42-.85-.51-1.67-1.26-1.32-2.27,1.38-4,.74-8.15.83-12.24,0-.32-.12-.69.26-.73a1.59,1.59,0,0,1,1.1.27,3.33,3.33,0,0,1,1.06,3.42c-.87,3.08-.35,6.15-.36,9.22A3.55,3.55,0,0,1,212.17,162.89Z" fill="#d72028"/><path id="Path_6155" data-name="Path 6155" d="M225.41,141.55a1.39,1.39,0,0,1-1.68-1,.29.29,0,0,1,0-.09,15.77,15.77,0,0,1-.35-4.11c0-.82.76-1.13,1.56-.78S226,141,225.41,141.55Z" fill="#d72028"/><path id="Path_6156" data-name="Path 6156" d="M198.29,97.7c1.33,2.24,1.08,4.79.69,7-.69,4-.26,7.9-.41,11.85-.17,4.48-.26,9-.31,13.45,0,2.62.2,5.43-.28,7.83-.78,3.94-.1,7.76-.34,11.62-.3,4.69-.16,9.41-.15,14.12,0,1.9,1.84,3.27,1.65,5.29,0,.4.52.53.93.48a8.86,8.86,0,0,1,4,.64c.84.31,1.76.95,2.67.8a1.71,1.71,0,0,1,.87,0,.58.58,0,0,1,.41.67c-.09.27-.43.37-.71.41a16.49,16.49,0,0,1-7-.42,5.32,5.32,0,0,1-3.11-1.82,6.78,6.78,0,0,1-1.16-3.36c-.44-5-1.67-10-.86-15.09.64-4,.14-8.14,0-12.22-.06-1.34-.1-2.68-.16-4-.06-1.13.16-2.26.17-3.41,0-.25,0-.51,0-.77v0a.73.73,0,0,0-.25-1l-.07,0c.75-1.17-.14-3-.29-4.29a21.67,21.67,0,0,1,0-4.83,15.12,15.12,0,0,1,.65-3.32c.39-1,1.25-2,1.21-3.21,0-.87-.67-1.51-.9-2.35a13.44,13.44,0,0,1-.08-6.58,13.24,13.24,0,0,1,1.53-3.83A8,8,0,0,0,198.29,97.7Z" fill="#df4c52"/><path id="Path_6157" data-name="Path 6157" d="M195.26,123.77l0,.7C194.81,124.25,194.9,124,195.26,123.77Z" fill="#e7797d"/><path id="Path_6158" data-name="Path 6158" d="M195.64,104.09l0,.68Z" fill="#e7797d"/><path id="Path_6159" data-name="Path 6159" d="M241.25,131.24l.23.34-.22.07,0-.41Z" fill="#f6d2d4"/><g id="Group_1170" data-name="Group 1170"><path id="Path_6160" data-name="Path 6160" d="M197.7,57h0" fill="#df4c52" stroke="#d7e7f1" stroke-linecap="round" stroke-miterlimit="10" stroke-width="0.54" stroke-dasharray="1.08"/><path id="Path_6161" data-name="Path 6161" d="M197.48,60h0v0" fill="#df4c52" stroke="#d7e7f1" stroke-linecap="round" stroke-miterlimit="10" stroke-width="0.54" stroke-dasharray="1.08"/><path id="Path_6162" data-name="Path 6162" d="M228.1,44.82a13.68,13.68,0,0,0,.23-4.9c-1-4.78-.41-9.62-.74-14.42-.19-2.74-2-6-4.6-7-1-.39-1.86-.28-1.77.94.19,2.63-2.35,2.86-3.54,4.27a.48.48,0,0,1-.8-.42c.21-1.56-1-2.73-1-4.26,0-1.31-.68-2-2.14-1.69a6.66,6.66,0,0,1-3.91-.52c-4.38-1.68-8.12.2-9.41,4.73C200,23,199,24,198.7,25.54a13.07,13.07,0,0,0,0,4.75,35.41,35.41,0,0,1,.13,4.94c.16,9.77-1.66,19.55-2,29.35q-.33,8.86-.06,17.72.14,4.44.42,8.86a28,28,0,0,0,.33,4.39c0,.17.71,2.37.81,2.1.8-2.17.15-4.5.72-6.7,1.15-4.46,0-9,.59-13.47.5-4-.29-8.38,2.38-12,.25-.34.37-.78,0-1.06,0-.47-1.15-.54-.82-1.31s1.61-.34,2.2-.34c.27-1.62-4.81-2.59-2.52-4.62a3.4,3.4,0,0,1,.69-.41,1.15,1.15,0,0,0,.56-.55c.21-.59-.78-1.88-1-2.45a10.2,10.2,0,0,1-.45-2.9c0-1.85.28-3.68.39-5.52a9.63,9.63,0,0,0-.16-2.08c-.33-2.29.77-3.18,2.86-2.33.66.26,1.23.38,1.68-.24,1.3-1.82.76-4.09,1.38-6.1.23-.77-1.73-.78-2.7.16-.69.67-.61,2.51-2.22,1.81s-.73-2-.51-3.07a2.67,2.67,0,0,0,0-1.63c-1.69-3-.14-6-.1-9,0-2.58,2-4.35,3.9-5.6,2.75-1.75,9.77.84,9.77,3.95,0,3.3,2,4.76,3.42,6.9,1.32,2,1,2.51-1.28,2.8-1.24.16-2.54.81-2.45,2.13.15,2.12-.25,4.42,1.21,6.3a2.64,2.64,0,0,1,.55,2.63,1.41,1.41,0,0,0-.11.46c.44,3.56-.72,6.78-2.15,9.94-.13.27-.26.73-.13.89,1.74,2.12.18,4.16-.05,6.24a18.18,18.18,0,0,0,.65,6c.18.84.71,1.77-.43,2.22s-1.59-.44-2.14-1.09a3.16,3.16,0,0,1-.47-1.06c-.2-.54-.4-1.13-1.12-.83a1.16,1.16,0,0,0-.67,1.48.93.93,0,0,1,.05.1,6.34,6.34,0,0,0,2.82,3.36c2,1.17,3,2.62,2.09,5a6.45,6.45,0,0,0-.1,1.86c-.12,1.53.06,3.12-1.67,4.09-.78.43-.75,1.49-.78,2.36,0,1.27-.47,1.74-1.77,1-1-.56-2.37-1.2-3.18,0s-.18,2.49.9,3.53c1.87,1.81,2,4.15,1.52,6.5-.2.9-.46,1.71.15,2.44.75.9,1.36,0,2-.29,1.07-.48,1.7,0,1.8,1.08a36.77,36.77,0,0,1-.42,8.89c-.31,1.9-2.39,1.92-3.37,3.2s-2.36,2-.33,3.69c1.05.87.39,2.72.84,4.16a11.86,11.86,0,0,0,3.44,4.86c1,1,1,1.15-.3,1.55-2.88.87-2.81.89-1.43,3.73.65,1.33.93,2.85,2.84,3,.54,0,.7.54.56,1.08a2.93,2.93,0,0,0-.24,1.37c.66,2.13,1.2,3.85-2.27,2.64-.92-.32-1.08,1.11-.81,2s.84,1.28,1,2.11c.35,2-.32,3.07-2,2.6-1.89-.5-2,.58-2.14,1.79-.47,3.77-.8,7.55-1.37,11.29-.25,1.69.08,4-2.75,4.08-.53,0-.71.55-.61,1.08a1.62,1.62,0,0,0,1.52,1.52,19.15,19.15,0,0,1,3.67.69c.84.28,1.88.86,1.4,2.05s-1.29.8-2.16.35a13.49,13.49,0,0,0-2.22-.75c-.71-.24-1.48-.42-1.68.58s.45,1.17,1.24,1.36a2.78,2.78,0,0,1,1.74,1.58,3,3,0,0,1-.11,2.77,12,12,0,0,1,3.54.85,25.23,25.23,0,0,1,3.35,1.82c.85.51,2,1.51,2.95,1.37.49-.07,1-.47,1.54-.54a6.87,6.87,0,0,1,1.87,0c1.54.23,4.5.85,5.74-.55-1.68-.7-.66-2.41-1.32-3.5-2,.42-4.14,2.67-6.06-.32-.38-.59-1.33-.31-2-.26-1.68.13-2.59-.57-2.49-2.28a41.66,41.66,0,0,0-.69-11.79c-.21-1,.75-1.87.31-3-.21-.5-.47-1.35.44-1.52.58-.11,1.05.49,1.12,1a4.74,4.74,0,0,0,1.42,2.35,3.41,3.41,0,0,1,.45,3.74,11.2,11.2,0,0,0-1,5.9c.14,1,.62,1.7,1.58,1.7,1.19,0,.6-1,.65-1.63.17-1.94,1.73-3.2,2.39-5,.88-2.34.7-4.57.71-6.79,0-2.58,1.62-4.86,1.06-7.49a1,1,0,0,1,.81-1.19H224c.66-.05.92.48,1.11,1,1.08,2.92.87,5.95.68,8.94a44.27,44.27,0,0,0,.24,10.16c1-1,1-2.29,1-3.52.3-7.27.12-14.53-.07-21.79,0-1.74.58-3.52.32-5.11-.53-3.2.4-6.37-.22-9.52-.65-3.35.22-6.69.17-10-.1-6,.17-12,.06-18.08,0-1.88.46-3.83-.6-5.49-1.2-1.9-1.35-3.4.42-5.1.85-.81.37-2.27.23-3.42-.11-.86-.05-1.7-.1-2.54-.19-3.76,1.59-7.6-.41-11.29a.8.8,0,0,1,.12-.67c1.82-2.8.68-6,1.07-9C228.65,54.49,227.28,49.64,228.1,44.82ZM212.75,151.76c-.87,3.08-.35,6.15-.37,9.22a3.46,3.46,0,0,1-.21,1.91c-.46.53-.87.72-1.35.42-.85-.51-1.67-1.26-1.32-2.27,1.38-4,.74-8.15.83-12.24,0-.32-.12-.69.26-.73a1.59,1.59,0,0,1,1.1.27A3.33,3.33,0,0,1,212.75,151.76Zm12.66-10.21a1.39,1.39,0,0,1-1.68-1,.29.29,0,0,1,0-.09,15.77,15.77,0,0,1-.35-4.11c0-.82.76-1.13,1.56-.77s1.11,5.48.49,6Z" fill="#df4c52"/></g><path id="Path_6163" data-name="Path 6163" d="M205.55,153.32a.74.74,0,0,1-1,.26l-.07-.05c-.65-.45-1.35-.94-1.23-1.83a16.86,16.86,0,0,1,.66-2.2,1.24,1.24,0,0,1,1.42-.94c1,.17.63.94.34,1.45C205,151.13,206,152.29,205.55,153.32Z" fill="#df4c52"/><path id="Path_6164" data-name="Path 6164" d="M207.9,171.58l-.12.1c-.42.23-1.2-.24-1.59-.41a18.36,18.36,0,0,0-4.27-1.78,7.21,7.21,0,0,0-1.8-.11c-.31,0-1,0-1-.47.19-2-1.64-3.39-1.65-5.29,0-4.71-.15-9.43.15-14.12.25-3.86-.44-7.68.35-11.62a45.78,45.78,0,0,0,.28-7.83c0-4.49.13-9,.3-13.45.16-3.95-.28-7.88.41-11.86a12.82,12.82,0,0,0,.11-4.54c-.23-1.19-1-2.16-1.06-3.41-.25-2.66,1-5.2,1.34-7.8.5-3.82-.26-7.69.22-11.51.51-4-.29-8.38,2.38-12,.25-.33.37-.78,0-1-.6-.44-1.33-1.07-.52-1.63.43-.3.79-.1,1.2-.21s.59-.66,0-.91-1-.21-1.52-.67a3.07,3.07,0,0,1-1.06-1.38,2.27,2.27,0,0,1,.5-2.16c.24-.26.54-.47.76-.75.51-.68-.09-1.43-.3-2.12a10.58,10.58,0,0,1-.41-2.79c0-1.84.28-3.66.39-5.48a9.76,9.76,0,0,0-.15-2.09c-.34-2.28.76-3.17,2.85-2.33.66.27,1.23.38,1.68-.24,1.3-1.82.77-4.09,1.38-6.1.24-.76-1.73-.78-2.7.16-.69.68-.61,2.52-2.22,1.82s-.72-2-.51-3.08a2.57,2.57,0,0,0,0-1.62c-1.68-3-.14-6-.09-9,0-2.57,1.95-4.35,3.9-5.6,2.74-1.75,9.76.85,9.76,4,0,3.3,2,4.76,3.42,6.9,1.32,2,1,2.51-1.28,2.8-1.24.16-2.54.81-2.45,2.12.15,2.12-.25,4.43,1.22,6.3a2.7,2.7,0,0,1,.55,2.64,1,1,0,0,0-.11.45c.43,3.57-.73,6.78-2.16,10-.13.27-.26.73-.12.89,1.73,2.11.17,4.16-.05,6.24a18.2,18.2,0,0,0,.64,6c.19.83.71,1.76-.43,2.22-1,.39-1.59-.45-2.14-1.1a3.42,3.42,0,0,1-.47-1.05c-.19-.54-.4-1.14-1.12-.83a1.13,1.13,0,0,0-.66,1.47.3.3,0,0,0,0,.1,6.36,6.36,0,0,0,2.82,3.37c2,1.17,3.05,2.61,2.09,5a6.9,6.9,0,0,0-.1,1.87c-.12,1.53.06,3.12-1.67,4.08-.78.43-.75,1.5-.78,2.37,0,1.26-.47,1.74-1.77,1-1-.56-2.37-1.2-3.18,0s-.18,2.49.9,3.53c1.88,1.81,2,4.15,1.53,6.5-.2.89-.47,1.71.14,2.43.75.9,1.36,0,2-.28,1.07-.48,1.7,0,1.8,1.08a35.71,35.71,0,0,1-.42,8.88c-.31,1.91-2.39,1.93-3.37,3.2s-2.36,2-.33,3.69c1.05.88.39,2.72.84,4.16a12,12,0,0,0,3.44,4.87c1,1,1,1.15-.3,1.54-2.88.87-2.81.89-1.43,3.73.65,1.34.93,2.86,2.84,3,.54,0,.7.54.56,1.09a2.91,2.91,0,0,0-.24,1.36c.66,2.14,1.2,3.86-2.27,2.64-.92-.32-1.08,1.11-.81,2s.84,1.29,1,2.11c.35,2-.32,3.07-2,2.61-1.89-.51-2,.58-2.14,1.79-.46,3.76-.8,7.54-1.37,11.29-.25,1.69.08,4-2.75,4.08-.53,0-.71.55-.61,1.08a1.62,1.62,0,0,0,1.52,1.52,17.73,17.73,0,0,1,3.67.69c.84.28,1.88.85,1.4,2s-1.29.8-2.16.34a14.38,14.38,0,0,0-2.21-.75c-.72-.23-1.49-.42-1.69.59s.45,1.17,1.24,1.35c1.61.39,2.39,2.28,2.16,3.79A1,1,0,0,1,207.9,171.58Zm-2.35-18.26c.48-1-.55-2.19.1-3.32.29-.5.65-1.27-.33-1.45a1.25,1.25,0,0,0-1.42.95,14.26,14.26,0,0,0-.66,2.2c-.12.89.58,1.38,1.22,1.83a.75.75,0,0,0,1-.14.43.43,0,0,0,0-.07Z" fill="#d72028"/><path id="Path_6165" data-name="Path 6165" d="M217,175.13a1.59,1.59,0,0,0-.42-.19,4.84,4.84,0,0,1-1.32-.47c-.34-.25-.62-.64-1-.91a9.87,9.87,0,0,0-5.13-2.12,5.89,5.89,0,0,0-1.26-.08l-.14,0c-.38.08-.61.42-1,.45-.79.06-1.46-.59-2.26-.5-1.78.21-3.35-.8-5.31-.62s-3-2.63-3.14-4.43c-.44-5-1.67-10-.86-15.09.9-5.67.57-11.58.35-17.26a7.57,7.57,0,0,1,.29-2.27c.46-2-.86-4.09.11-6a3,3,0,0,0,.45-1.46c-.06-.62-.62-1.06-.92-1.6a2.82,2.82,0,0,1-.1-2.24c.29-.89.84-1.66,1.16-2.54a5.85,5.85,0,0,0,.35-2.84,7.9,7.9,0,0,0-1.22-2.77c0-.08-.11-.18-.21-.18a.19.19,0,0,0-.16.11.54.54,0,0,0,0,.21c0,.42-.09.83-.14,1.25a9.77,9.77,0,0,0,.06,1.08c.07.23.15.44.24.66.38,1.12-.47,2.18-.78,3.22a12.76,12.76,0,0,0-.46,3.42V122c0,2.59.17,5.18.26,7.76.15,4.54-.21,9.08-.46,13.6-.15,2.64-.26,5.29-.34,7.93-.07,2.26.1,4.58-.07,6.8a21.64,21.64,0,0,0,.36,7.44A12.16,12.16,0,0,0,195.4,169c.32.5.67,1,.94,1.5s.1,1.28.71,1.6,1.55.13,2.13.32c2.07.67,3.67,2.8,5.88,1.64a7.22,7.22,0,0,1,7.46.62,11,11,0,0,0,2.16,1.48,2.28,2.28,0,0,0,1.29.14c.31-.06,1.21-.33,1.24-.72A.48.48,0,0,0,217,175.13Z" fill="#e7797d"/><path id="Path_6166" data-name="Path 6166" d="M225.57,171.42a4.41,4.41,0,0,1-3,1.46,3.67,3.67,0,0,1-3.1-1.44c-.26-.43-.2-.79-.77-1a4.15,4.15,0,0,0-1.49.08c-1.68.13-2.59-.58-2.48-2.28a42.46,42.46,0,0,0-.69-11.8c-.22-.95.74-1.87.3-3-.21-.5-.46-1.36.44-1.53.58-.1,1.05.49,1.12,1a4.8,4.8,0,0,0,1.42,2.36,3.4,3.4,0,0,1,.46,3.73,11,11,0,0,0-1,5.9c.14,1,.61,1.71,1.57,1.7,1.19,0,.61-1,.66-1.63.16-1.93,1.73-3.19,2.39-4.95.87-2.35.7-4.57.71-6.8,0-2.58,1.62-4.86,1.05-7.49a1,1,0,0,1,.81-1.19H224c.66,0,.92.48,1.12,1,1.07,2.91.86,5.94.68,8.94a59,59,0,0,0-.12,6.91,8.1,8.1,0,0,0,.38,2.72,10.44,10.44,0,0,1,.83,3.06,5.67,5.67,0,0,1-1,3.76C225.79,171.17,225.68,171.3,225.57,171.42Z" fill="#d72028"/></g><path id="Path_6167" data-name="Path 6167" d="M177.68,31.86c-13.37,0-24.22,12.87-24.22,28.75v137.8H201.9V60.61C201.9,44.73,191.06,31.86,177.68,31.86Z" fill="#fcd1b7"/><path id="Path_6168" data-name="Path 6168" d="M159.6,46.06c-1.87-2.87,2.38-6.79,4.3-8.33a20.48,20.48,0,0,1,6.7-3.55,18.11,18.11,0,0,1,19.74,5.23,3.52,3.52,0,0,1,.67,1c.39,1-.22,1.15-1,1.53-2.55,1.26.56,6.25.49,8.27a12,12,0,0,0,.9,5.45,6.52,6.52,0,0,0,1.3,2c.53.53,1.31.92,1,1.82a3.27,3.27,0,0,1-.66.9c-.42.49-1.64,5.17-.37,4.93.49-.09.38-.94.57-1.3a2.42,2.42,0,0,1,2.12-1.25,1.77,1.77,0,0,1,1.52,1.6c.15,3.12.29,6.28-1,9.24-.75,1.76-1.65,4-1.06,5.37.74,1.79,0,2.64-.76,3.67s-1.05,2.2-1.69,2.9c-2.45,2.72.58,2.25,1.51,2.9,1.15.8,1.77-.19,1.71-1a6.63,6.63,0,0,1,.9-3.1,4.78,4.78,0,0,0,.43-1.53c0-.4-.38-.89.28-1.13a1,1,0,0,1,1.21.58,2.1,2.1,0,0,1,0,1.44c-.14.48-.35.93-.46,1.4a10.85,10.85,0,0,0,.31,3.93,10.42,10.42,0,0,1-1.28,6.4,2.68,2.68,0,0,0-.3,2.35c.47,1,1.8.53,2.17,1.14s-.28.88-.4,1.32a6.1,6.1,0,0,0,0,1.48c0,1.18.38,2.45-.53,3.51-1,.41-1.76.64-1.28-1,.32-1.1.83-2.42.49-3.38-.48-1.39-2.07-.64-3.14-.68s-2.55-.51-2.89.93c-.3,1.24.37,2.08,1.81,2.1,1.06,0,1.75.41,1.8,1.66a7.61,7.61,0,0,0,2,4.86c.74.84,1.32,1.86-.46,2.47-.81.27-2.14.65-1.92,1.7.3,1.42,2.08.27,2.95,1.1a2.6,2.6,0,0,1,.72,1.65,5.5,5.5,0,0,1-2,4.72,2.18,2.18,0,0,0-.72,3,2.12,2.12,0,0,0,.59.64,2.49,2.49,0,0,1,.92,1.81,36.25,36.25,0,0,1-1.25,12.39c-.23.76-.84,1.41-.94,2.21-.16,1.24.62,1,1.12,1.72a1,1,0,0,1,0,1c-.65,1.22-.08,2.13.53,3.32a1.19,1.19,0,0,1-.14,1.52c-1.7,1.26-.78,2.7-.45,4.16.2.87.57,1.25,1.45,1s1.28-.62.91-1.52c-.17-.43-.07-1.6.38-1.86,1-.6,1.16,1.83.88,2.38-.91,1.78-.49,3.6-.32,5.42.07.73.56,1.51-.23,2.15-.48-.27-1.14-.67-1.46-.11a23.34,23.34,0,0,1-2,3.55c-.48.6.09,1.36,1,1.24s1.87-.24,2.6.58a2.58,2.58,0,0,1,.16,2.07l-.36,1c-1.67,1.41-1.43,2.76.12,4.08v.57c0,.7-1,.9-.62,1.83a12.39,12.39,0,0,1,1.26,3.64,18.48,18.48,0,0,1-.6,5.44c-.67,3.12-.93,6.3-2.16,9.28-.38.92-.85,2.68-1.77,3.2-1.25.72-3.5-.61-4.45-1.49.2-.86-.68-2-1.6-1.73s-1.07,2.07-1.61,2.69l-.12.13c-1.67-.7-.66-2.41-1.31-3.5l.24-.39c1-1.3,1.57-2.66.84-4.3a1.8,1.8,0,0,0-.28-1.7c1-1,1-2.29,1-3.52.3-7.26.11-14.53-.08-21.79,0-1.74.59-3.51.32-5.11-.53-3.2.4-6.36-.21-9.52-.66-3.34.22-6.68.16-10-.09-6,.18-12,.07-18.09,0-1.87.46-3.82-.59-5.48-1.2-1.9-1.36-3.4.41-5.1.86-.82.37-2.27.23-3.42-.11-.86-.05-1.7-.1-2.55-.11-2.31.5-4.58.55-6.9a8,8,0,0,0-.49-3.36c-.37-.8-.65-1-.22-1.94a8.22,8.22,0,0,0,.89-2.86c.2-2-.21-3.94.05-5.9.61-4.68-.77-9.53.06-14.35a13.68,13.68,0,0,0,.22-4.9c-1-4.78-.4-9.62-.74-14.42-.19-2.73-2-6-4.59-7-1-.39-1.87-.28-1.78.94.19,2.63-2.35,2.86-3.53,4.27a.48.48,0,0,1-.81-.42c.22-1.56-1-2.73-1-4.26,0-1.31-.69-2-2.15-1.69a6.63,6.63,0,0,1-3.9-.52,7.05,7.05,0,0,0-6.61.48c-1.67,1.17-3.28,3.77-3,5.86.07.47,0,1-.39,1.26a.83.83,0,0,1-1-.36Zm31.48,105a.64.64,0,0,0-.33.05c-1.61.68-.83,4.33-.42,5.49.27.77.7.69,1.22.24C192.52,156,192.35,151.21,191.08,151Zm-.33,23.28c.4.3,1.15,1.21,1.94.35.93-1,.22-2.12-.6-2.84-.57-.5-1.51-1.27-2.26-.47-1,1.08-.21,2,.92,3Zm5.34,10.14c.32-.72,1.46-2.1.87-2.94a1.19,1.19,0,0,0-1.69-.07l0,0c-.46.49-.28,1.36-.61,1.92a.58.58,0,0,0-.08.22c-.08.5-.78,1-.16,1.47s1.17-.08,1.7-.62Zm-5-78.36c.42.44.83.48,1.22.08a1.22,1.22,0,0,0,.14-1.71l-.12-.12c-.38-.42-.94-.72-1.4-.28C190.25,104.76,190.88,105.46,191.13,106.1Z" fill="#fab98f"/><path id="Path_6169" data-name="Path 6169" d="M156.57,98.06c.08-4.27,1-8.47,1.05-12.71a47.67,47.67,0,0,1,1.45-13.14,3.32,3.32,0,0,1,.63-1.36,1.2,1.2,0,0,1,1.36-.38c.72.34.67,1.37.5,2.16-.89,4-2.05,8.13-2.05,12.31-.27,2.37-.73,4.63-.92,7a44.7,44.7,0,0,0-.08,7.76c.69,7.1,1.84,14,.54,21.16-.21,1.15-.64,2.19-.79,3.35-.17,1.32-.3,2.64-.41,4q-.32,3.87-.29,7.75a2.27,2.27,0,0,1-.16,1.09.78.78,0,0,1-.91.44c-.33-.12-.46-.5-.58-.79a14.46,14.46,0,0,1-.84-4.79,20,20,0,0,1,.38-4.94,16.38,16.38,0,0,0,.74-4.66c-.1-1.7-.34-3.39-.3-5.09.05-3.24,1.09-6.39,1.2-9.63a60.21,60.21,0,0,0-.44-6.43C156.57,100.12,156.55,99.09,156.57,98.06Z" fill="#fab98f"/><path id="Path_6170" data-name="Path 6170" d="M198.88,160.68l.18,5.27c-.72-.83-1.64-.72-2.59-.59s-1.52-.64-1-1.24a23.72,23.72,0,0,0,2-3.55C197.73,160,198.4,160.41,198.88,160.68Z" fill="#fcd1b7"/><path id="Path_6171" data-name="Path 6171" d="M190.75,174.32c-1.13-1-1.94-1.88-.92-3,.75-.8,1.69,0,2.26.47.82.72,1.53,1.82.6,2.84C191.89,175.53,191.16,174.62,190.75,174.32Z" fill="#fcd1b7"/><path id="Path_6172" data-name="Path 6172" d="M191.13,106.1c-.25-.64-.88-1.34-.16-2,.46-.44,1-.14,1.4.28a1.22,1.22,0,0,1,.1,1.72.43.43,0,0,1-.12.11C192,106.58,191.55,106.54,191.13,106.1Z" fill="#fcd1b7"/><path id="Path_6173" data-name="Path 6173" d="M199.54,170.78c-.61.66-.34,1.53-.56,2.29-1.55-1.32-1.78-2.67-.11-4.08A3,3,0,0,1,199.54,170.78Z" fill="#fcd1b7"/><path id="Path_6174" data-name="Path 6174" d="M199,173.65a3.1,3.1,0,0,1,0,2.39C197.7,175.23,198.36,174.44,199,173.65Z" fill="#fcd1b7"/><path id="Path_6175" data-name="Path 6175" d="M198.9,175.94a.75.75,0,0,1,.3,1A.81.81,0,0,1,198.9,175.94Z" fill="#fcd1b7"/><path id="Path_6176" data-name="Path 6176" d="M198.1,116c0,.23,0,.46,0,.68C198.11,116.47,198.11,116.24,198.1,116Z" fill="#fcd1b7"/><path id="Path_6177" data-name="Path 6177" d="M198.15,115.29c0,.25,0,.5-.05.76Z" fill="#fcd1b7"/><path id="Path_6178" data-name="Path 6178" d="M196.76,56.36c-.54,0-1-1.23-1.28-1.57a6.54,6.54,0,0,0-1.8-1.59c-1.08-.64-1.87-3.07-1.25-4.91a2,2,0,0,0-.25-2.31c-1-1.14.64-5.51,1.66-2.08.41,1.36,4.16,12,3.08,12.43A.41.41,0,0,1,196.76,56.36Z" fill="#fab98f"/><path id="Path_6179" data-name="Path 6179" d="M172.93,184.89c-.45.53-.86.72-1.34.43-.85-.52-1.67-1.27-1.32-2.27,1.38-4,.74-8.16.83-12.25,0-.32-.12-.69.26-.73a1.59,1.59,0,0,1,1.1.27,3.33,3.33,0,0,1,1.06,3.42c-.87,3.08-.35,6.15-.36,9.22A3.46,3.46,0,0,1,172.93,184.89Z" fill="#f68b4a"/><path id="Path_6180" data-name="Path 6180" d="M186.18,163.55a1.39,1.39,0,0,1-1.68-1,.31.31,0,0,1,0-.08,15.77,15.77,0,0,1-.35-4.11c0-.83.76-1.13,1.56-.78S186.8,163,186.18,163.55Z" fill="#f68b4a"/><path id="Path_6181" data-name="Path 6181" d="M159.06,119.7c1.33,2.24,1.08,4.8.69,7-.69,4-.26,7.9-.41,11.85-.17,4.48-.26,9-.3,13.45,0,2.62.19,5.43-.29,7.83-.78,3.94-.1,7.76-.34,11.62-.3,4.69-.16,9.41-.15,14.12,0,1.9,1.84,3.27,1.65,5.29,0,.4.52.53.93.49a8.72,8.72,0,0,1,4,.63c.84.31,1.76.95,2.67.8a1.83,1.83,0,0,1,.87,0,.58.58,0,0,1,.41.67c-.1.27-.43.37-.71.41a16.65,16.65,0,0,1-7-.41,5.38,5.38,0,0,1-3.11-1.83,6.78,6.78,0,0,1-1.16-3.36c-.44-5-1.67-10-.86-15.08.64-4,.14-8.15,0-12.22-.06-1.34-.1-2.68-.16-4-.06-1.14.16-2.27.17-3.41,0-.26,0-.52,0-.78v0a.72.72,0,0,0-.25-1l-.07,0c.75-1.17-.14-3-.29-4.28a21.67,21.67,0,0,1,0-4.83,14.9,14.9,0,0,1,.65-3.32c.39-1.05,1.25-2,1.21-3.21,0-.88-.67-1.52-.9-2.36a13.82,13.82,0,0,1,1.44-10.41A7.89,7.89,0,0,0,159.06,119.7Z" fill="#f8a26d"/><path id="Path_6182" data-name="Path 6182" d="M156,145.77l0,.7C155.58,146.25,155.67,146,156,145.77Z" fill="#fab98f"/><path id="Path_6183" data-name="Path 6183" d="M156.41,126.1l0,.67Z" fill="#fab98f"/><path id="Path_6184" data-name="Path 6184" d="M202,153.24l.23.34-.22.07,0-.41Z" fill="#fae5d7"/><g id="Group_1172" data-name="Group 1172"><path id="Path_6185" data-name="Path 6185" d="M158.47,79h0" fill="#f8a26d" stroke="#f47525" stroke-linecap="round" stroke-miterlimit="10" stroke-width="0.54" stroke-dasharray="1.08"/><path id="Path_6186" data-name="Path 6186" d="M158.25,82h0v0" fill="#f8a26d" stroke="#f47525" stroke-linecap="round" stroke-miterlimit="10" stroke-width="0.54" stroke-dasharray="1.08"/><path id="Path_6187" data-name="Path 6187" d="M188.87,66.82a13.68,13.68,0,0,0,.23-4.9c-.95-4.78-.41-9.62-.74-14.42-.19-2.74-2-6-4.6-7-1-.39-1.86-.28-1.77.94.19,2.63-2.35,2.86-3.54,4.27a.48.48,0,0,1-.8-.42c.21-1.56-1.05-2.73-1-4.26,0-1.31-.68-2-2.14-1.69a6.65,6.65,0,0,1-3.91-.52c-4.38-1.68-8.12.2-9.41,4.73-.41,1.45-1.38,2.44-1.69,4a13.07,13.07,0,0,0,0,4.75,35.41,35.41,0,0,1,.13,4.94c.16,9.77-1.66,19.55-2,29.35q-.33,8.86-.06,17.72.13,4.44.42,8.86a28,28,0,0,0,.33,4.39c0,.17.71,2.37.81,2.1.8-2.17.15-4.5.72-6.7,1.15-4.46,0-9,.59-13.47.5-4-.29-8.38,2.38-12,.25-.34.37-.78,0-1.06,0-.47-1.15-.54-.82-1.31s1.61-.34,2.2-.34c.27-1.62-4.81-2.59-2.52-4.62a3.4,3.4,0,0,1,.69-.41,1.15,1.15,0,0,0,.56-.55c.21-.59-.78-1.88-1-2.45a10.2,10.2,0,0,1-.45-2.9c0-1.85.28-3.68.39-5.52a9.63,9.63,0,0,0-.16-2.08c-.33-2.28.76-3.18,2.86-2.33.66.26,1.23.38,1.67-.24,1.3-1.82.77-4.09,1.39-6.1.23-.77-1.73-.78-2.7.16-.69.67-.61,2.51-2.22,1.81s-.73-2-.51-3.07a2.67,2.67,0,0,0,0-1.63c-1.69-3-.14-6-.1-9,0-2.58,1.95-4.35,3.9-5.6,2.75-1.75,9.77.84,9.77,4,0,3.3,2,4.76,3.42,6.9,1.31,2,1,2.51-1.28,2.8-1.24.16-2.54.81-2.45,2.13.15,2.12-.25,4.42,1.21,6.3a2.64,2.64,0,0,1,.55,2.63,1.41,1.41,0,0,0-.11.46c.44,3.56-.72,6.78-2.15,9.94-.13.27-.26.73-.13.89,1.74,2.12.18,4.16,0,6.24a18.18,18.18,0,0,0,.65,6c.18.84.71,1.77-.43,2.22s-1.59-.44-2.14-1.09a3.16,3.16,0,0,1-.47-1.06c-.2-.54-.4-1.13-1.12-.83a1.15,1.15,0,0,0-.67,1.48.93.93,0,0,1,.05.1,6.34,6.34,0,0,0,2.82,3.36c2,1.17,3,2.62,2.09,5a6.45,6.45,0,0,0-.1,1.86c-.12,1.53.06,3.12-1.67,4.08-.78.43-.75,1.5-.78,2.37,0,1.26-.47,1.74-1.77,1-1-.56-2.37-1.2-3.18,0s-.18,2.49.9,3.53c1.87,1.81,2,4.15,1.52,6.5-.19.9-.46,1.71.14,2.44.76.89,1.37,0,2-.29,1.07-.48,1.7,0,1.8,1.08a36.67,36.67,0,0,1-.42,8.88c-.31,1.91-2.39,1.93-3.37,3.2s-2.36,2-.34,3.7c1.06.87.4,2.71.85,4.15a11.89,11.89,0,0,0,3.44,4.87c1,1,1,1.15-.3,1.55-2.88.86-2.81.88-1.43,3.73.65,1.33.93,2.85,2.84,3,.54,0,.7.53.56,1.08a2.88,2.88,0,0,0-.25,1.37c.67,2.13,1.21,3.85-2.26,2.64-.92-.33-1.08,1.11-.81,2s.84,1.28,1,2.1c.35,2-.32,3.07-2,2.61-1.89-.51-2,.58-2.14,1.79-.47,3.77-.8,7.55-1.37,11.29-.25,1.69.08,4-2.75,4.08-.53,0-.71.55-.61,1.08a1.62,1.62,0,0,0,1.52,1.52,18.41,18.41,0,0,1,3.67.69c.84.28,1.88.85,1.4,2.05s-1.29.8-2.16.34a14.49,14.49,0,0,0-2.22-.75c-.71-.23-1.48-.41-1.68.59s.45,1.17,1.24,1.36a2.78,2.78,0,0,1,1.74,1.58,3,3,0,0,1-.11,2.77,12,12,0,0,1,3.54.85,25.23,25.23,0,0,1,3.35,1.82c.85.51,2,1.51,3,1.37.49-.07,1-.47,1.54-.54a6.87,6.87,0,0,1,1.87,0c1.54.23,4.5.84,5.74-.55-1.68-.7-.66-2.41-1.31-3.5-2,.42-4.14,2.67-6.07-.32-.38-.59-1.33-.32-2-.26-1.68.13-2.59-.58-2.49-2.28a41.62,41.62,0,0,0-.69-11.79c-.21-1,.75-1.88.3-3-.2-.5-.46-1.36.45-1.52.58-.11,1.05.48,1.12,1a4.72,4.72,0,0,0,1.42,2.36,3.4,3.4,0,0,1,.45,3.73,11.2,11.2,0,0,0-1,5.9c.14,1,.62,1.71,1.58,1.71,1.19,0,.6-1,.65-1.63.17-1.94,1.73-3.19,2.39-5,.88-2.34.7-4.57.71-6.79,0-2.58,1.62-4.86,1.06-7.49a1,1,0,0,1,.81-1.19h.08c.66-.05.92.48,1.12,1,1.07,2.92.86,5.95.67,8.95a44.18,44.18,0,0,0,.24,10.15c1-1,1-2.29,1-3.52.3-7.27.12-14.53-.07-21.79-.05-1.74.58-3.52.32-5.11-.53-3.2.4-6.36-.22-9.52-.65-3.35.22-6.68.17-10-.1-6,.17-12.06.06-18.09,0-1.88.46-3.82-.59-5.49-1.2-1.9-1.36-3.4.42-5.1.85-.81.37-2.27.22-3.41-.11-.86,0-1.7-.09-2.55-.19-3.76,1.58-7.59-.41-11.29a.83.83,0,0,1,.11-.67c1.83-2.79.69-6,1.07-9C189.42,76.49,188.05,71.64,188.87,66.82ZM173.52,173.76c-.87,3.08-.35,6.15-.37,9.22a3.46,3.46,0,0,1-.22,1.91c-.45.53-.86.72-1.34.42-.85-.51-1.67-1.26-1.32-2.27,1.38-4,.74-8.15.83-12.24,0-.32-.12-.69.26-.73a1.59,1.59,0,0,1,1.1.27A3.33,3.33,0,0,1,173.52,173.76Zm12.66-10.21a1.38,1.38,0,0,1-1.68-1,.24.24,0,0,1,0-.08,15.77,15.77,0,0,1-.35-4.11c0-.83.76-1.13,1.56-.78s1.11,5.48.49,6Z" fill="#f8a26d"/></g><path id="Path_6188" data-name="Path 6188" d="M166.32,175.32a.74.74,0,0,1-1,.26.18.18,0,0,1-.07-.05c-.65-.45-1.35-.94-1.23-1.83a16.86,16.86,0,0,1,.66-2.2,1.25,1.25,0,0,1,1.42-.95c1,.18.63.95.34,1.45C165.77,173.13,166.79,174.29,166.32,175.32Z" fill="#f8a26d"/><path id="Path_6189" data-name="Path 6189" d="M168.67,193.58l-.13.1c-.41.24-1.2-.24-1.58-.41a18.55,18.55,0,0,0-4.27-1.78,7.24,7.24,0,0,0-1.8-.11c-.31,0-1,0-1-.47.19-2-1.64-3.39-1.65-5.29,0-4.71-.15-9.43.15-14.12.24-3.86-.44-7.68.35-11.62a45.78,45.78,0,0,0,.28-7.83c0-4.49.13-9,.3-13.45.16-3.95-.28-7.88.41-11.85a12.89,12.89,0,0,0,.11-4.55c-.23-1.18-1-2.15-1.06-3.41-.25-2.66,1-5.2,1.34-7.8.5-3.82-.27-7.68.22-11.51.51-4-.29-8.38,2.38-12,.25-.34.37-.79,0-1.06-.6-.44-1.32-1.07-.51-1.63.43-.3.79-.1,1.2-.21s.59-.66,0-.91-1-.21-1.52-.67a3.16,3.16,0,0,1-1.07-1.38,2.3,2.3,0,0,1,.5-2.15c.25-.27.55-.47.77-.76.51-.68-.09-1.43-.3-2.12a10.46,10.46,0,0,1-.41-2.79c0-1.83.28-3.65.39-5.48a9.77,9.77,0,0,0-.16-2.09c-.33-2.28.77-3.17,2.86-2.33.66.27,1.23.38,1.68-.24,1.3-1.82.77-4.08,1.38-6.1.23-.76-1.73-.78-2.7.17-.69.67-.61,2.51-2.22,1.81s-.73-2-.51-3.07a2.59,2.59,0,0,0,0-1.63c-1.69-3-.14-6-.1-9,0-2.58,1.95-4.36,3.9-5.61,2.75-1.75,9.77.85,9.77,4,0,3.3,2,4.76,3.42,6.9,1.32,2,1,2.51-1.28,2.8-1.24.16-2.54.81-2.45,2.12.15,2.13-.25,4.43,1.22,6.3a2.71,2.71,0,0,1,.55,2.64,1,1,0,0,0-.11.45c.43,3.57-.73,6.78-2.16,10-.13.27-.26.73-.13.89,1.74,2.11.18,4.16,0,6.24a18.2,18.2,0,0,0,.64,6c.18.83.71,1.76-.43,2.22s-1.59-.45-2.14-1.09a3.34,3.34,0,0,1-.47-1.06c-.19-.54-.4-1.14-1.12-.83a1.13,1.13,0,0,0-.66,1.47.3.3,0,0,0,0,.1,6.4,6.4,0,0,0,2.82,3.37c2,1.17,3,2.61,2.09,5a6.9,6.9,0,0,0-.1,1.87c-.12,1.53.06,3.12-1.67,4.08-.78.43-.75,1.49-.78,2.37,0,1.26-.47,1.74-1.77,1-1-.55-2.37-1.2-3.18,0s-.18,2.49.9,3.53c1.87,1.81,2,4.15,1.52,6.5-.19.89-.46,1.71.15,2.43.75.9,1.36,0,2-.28,1.07-.48,1.7,0,1.8,1.08a36.69,36.69,0,0,1-.42,8.88c-.31,1.91-2.39,1.93-3.37,3.2s-2.36,2-.33,3.69c1,.88.39,2.72.84,4.16a12,12,0,0,0,3.44,4.87c1,1,1,1.15-.3,1.54-2.88.87-2.81.89-1.43,3.73.65,1.34.93,2.86,2.84,3,.54,0,.7.54.56,1.09s-.37,1-.24,1.36c.66,2.14,1.2,3.86-2.27,2.64-.92-.32-1.08,1.11-.81,2s.84,1.29,1,2.11c.35,2-.32,3.07-2,2.61-1.89-.51-2,.58-2.14,1.79-.46,3.76-.8,7.54-1.37,11.29-.25,1.69.08,4-2.75,4.08-.53,0-.71.55-.61,1.08a1.62,1.62,0,0,0,1.52,1.52,17.73,17.73,0,0,1,3.67.69c.84.28,1.88.85,1.4,2s-1.29.8-2.16.34a14.49,14.49,0,0,0-2.22-.75c-.71-.23-1.48-.42-1.68.59s.45,1.17,1.24,1.35c1.61.39,2.39,2.28,2.16,3.78A1.14,1.14,0,0,1,168.67,193.58Zm-2.35-18.26c.48-1-.55-2.19.1-3.31.29-.5.65-1.28-.33-1.45a1.23,1.23,0,0,0-1.42.94,14.26,14.26,0,0,0-.66,2.2c-.12.89.58,1.38,1.22,1.83a.75.75,0,0,0,1.05-.14.43.43,0,0,0,0-.07Z" fill="#f68b4a"/><path id="Path_6190" data-name="Path 6190" d="M177.77,197.14a1.35,1.35,0,0,0-.42-.2,4.84,4.84,0,0,1-1.32-.47c-.34-.25-.63-.64-1-.91a9.9,9.9,0,0,0-5.13-2.12,5.89,5.89,0,0,0-1.26-.08l-.14,0c-.38.08-.61.42-1,.45-.79.06-1.46-.6-2.26-.5-1.79.22-3.35-.8-5.31-.62s-3-2.63-3.14-4.43c-.44-5-1.67-10-.87-15.09.91-5.67.58-11.58.36-17.25a7.64,7.64,0,0,1,.29-2.28c.45-2-.86-4.09.11-6a3,3,0,0,0,.45-1.46c-.06-.62-.62-1.06-.92-1.6a2.86,2.86,0,0,1-.11-2.24c.3-.89.85-1.66,1.17-2.54a5.85,5.85,0,0,0,.35-2.84,7.9,7.9,0,0,0-1.22-2.77c-.05-.08-.11-.18-.21-.18a.19.19,0,0,0-.16.11.54.54,0,0,0-.05.21c0,.42-.09.83-.14,1.25a9.77,9.77,0,0,0,.06,1.08,6.42,6.42,0,0,0,.24.66c.38,1.12-.47,2.18-.78,3.22a12.37,12.37,0,0,0-.46,3.42V144c0,2.59.17,5.18.26,7.76.14,4.54-.21,9.09-.47,13.6-.14,2.64-.25,5.29-.33,7.93-.07,2.26.1,4.58-.07,6.8a21.64,21.64,0,0,0,.36,7.44,12.16,12.16,0,0,0,1.52,3.39,16.43,16.43,0,0,1,.94,1.5c.29.55.1,1.28.71,1.6a21.43,21.43,0,0,0,2.13.32c2.07.68,3.67,2.8,5.88,1.64a7.22,7.22,0,0,1,7.46.62,11,11,0,0,0,2.16,1.48,2.24,2.24,0,0,0,1.28.14c.32-.06,1.22-.33,1.25-.72A.49.49,0,0,0,177.77,197.14Z" fill="#fab98f"/><path id="Path_6191" data-name="Path 6191" d="M186.34,193.42a4.41,4.41,0,0,1-3.05,1.46,3.67,3.67,0,0,1-3.1-1.44c-.26-.43-.2-.79-.77-1a4.15,4.15,0,0,0-1.49.08c-1.68.13-2.59-.58-2.48-2.28a42.46,42.46,0,0,0-.69-11.8c-.22-.95.74-1.87.3-3-.2-.5-.46-1.36.44-1.53.58-.1,1.05.49,1.12,1a4.8,4.8,0,0,0,1.42,2.36,3.38,3.38,0,0,1,.45,3.73,11.2,11.2,0,0,0-1,5.9c.14,1,.62,1.71,1.58,1.71,1.19,0,.6-1,.65-1.63.17-1.94,1.73-3.19,2.39-5,.88-2.34.7-4.57.71-6.79,0-2.58,1.63-4.86,1.06-7.49a1,1,0,0,1,.81-1.19h.08c.66,0,.92.48,1.12,1,1.07,2.92.86,5.95.68,8.95a56.76,56.76,0,0,0-.12,6.9,8.13,8.13,0,0,0,.38,2.73,10.46,10.46,0,0,1,.83,3.05,5.64,5.64,0,0,1-1,3.76C186.56,193.17,186.45,193.3,186.34,193.42Z" fill="#f68b4a"/><path id="Path_6192" data-name="Path 6192" d="M138.45,53.86c-13.38,0-24.22,12.87-24.22,28.75v137.8h48.44V82.61C162.67,66.73,151.83,53.86,138.45,53.86Z" fill="#dae8f1"/><path id="Path_6193" data-name="Path 6193" d="M120.37,68.06c-1.87-2.87,2.38-6.79,4.3-8.33a20.48,20.48,0,0,1,6.7-3.55,18.11,18.11,0,0,1,19.74,5.23,3.6,3.6,0,0,1,.67,1c.39,1-.22,1.16-1,1.54-2.55,1.26.56,6.25.49,8.27a12,12,0,0,0,.9,5.45,6.52,6.52,0,0,0,1.3,2c.53.53,1.31.91,1,1.82a3.27,3.27,0,0,1-.66.9c-.42.49-1.64,5.17-.37,4.93.49-.09.38-.94.57-1.3a2.42,2.42,0,0,1,2.12-1.25,1.77,1.77,0,0,1,1.52,1.6c.15,3.12.29,6.28-1,9.24-.75,1.76-1.65,4-1.06,5.37.74,1.79,0,2.64-.76,3.67s-1.05,2.2-1.69,2.9c-2.45,2.72.58,2.25,1.51,2.9,1.16.8,1.77-.19,1.71-1a6.63,6.63,0,0,1,.9-3.1,4.78,4.78,0,0,0,.43-1.53c0-.4-.38-.89.28-1.13a1,1,0,0,1,1.21.58,2.07,2.07,0,0,1,0,1.45c-.13.47-.34.92-.45,1.4a10.81,10.81,0,0,0,.31,3.92,10.46,10.46,0,0,1-1.28,6.41,2.66,2.66,0,0,0-.3,2.34c.47,1,1.8.53,2.17,1.14s-.28.88-.4,1.32a6.11,6.11,0,0,0,0,1.48c0,1.19.38,2.45-.53,3.51-1,.41-1.76.64-1.28-1,.32-1.1.83-2.42.49-3.38-.48-1.38-2.07-.64-3.14-.68s-2.55-.51-2.9.93c-.3,1.24.38,2.08,1.82,2.1,1.06,0,1.75.41,1.8,1.66a7.64,7.64,0,0,0,2,4.86c.74.85,1.32,1.87-.46,2.47-.81.28-2.14.65-1.92,1.71.3,1.42,2.08.26,3,1.09a2.62,2.62,0,0,1,.72,1.65,5.5,5.5,0,0,1-2,4.73,2.18,2.18,0,0,0-.72,3,2.21,2.21,0,0,0,.59.63,2.53,2.53,0,0,1,.92,1.81,36.25,36.25,0,0,1-1.25,12.39,14.66,14.66,0,0,0-.94,2.21c-.16,1.24.62,1,1.12,1.72a1,1,0,0,1,.05,1c-.65,1.23-.08,2.13.53,3.32A1.18,1.18,0,0,1,157,171c-1.7,1.26-.78,2.71-.45,4.16.2.87.57,1.25,1.45,1s1.28-.61.91-1.52c-.17-.43-.07-1.59.38-1.86,1-.6,1.16,1.83.88,2.38-.91,1.79-.49,3.6-.31,5.42.07.74.55,1.51-.23,2.15-.48-.27-1.15-.67-1.47-.11a22.87,22.87,0,0,1-2,3.55c-.48.6.09,1.37,1,1.24s1.87-.24,2.59.59A2.58,2.58,0,0,1,160,190l-.36,1c-1.67,1.41-1.43,2.76.12,4.08v.57c0,.7-1,.9-.61,1.83a12.66,12.66,0,0,1,1.25,3.64,18.44,18.44,0,0,1-.6,5.44c-.67,3.12-.93,6.3-2.16,9.28-.38.92-.85,2.68-1.77,3.2-1.25.72-3.49-.61-4.44-1.49.19-.87-.69-2.06-1.6-1.73s-1.08,2.07-1.62,2.68l-.12.14c-1.67-.7-.65-2.41-1.31-3.5l.24-.39c1-1.3,1.57-2.66.84-4.3a1.8,1.8,0,0,0-.28-1.7c1-1,1-2.29,1-3.52.3-7.26.11-14.53-.08-21.79,0-1.74.59-3.51.32-5.11-.53-3.2.4-6.36-.21-9.52-.65-3.34.22-6.68.17-10-.1-6,.17-12,.06-18.09,0-1.87.46-3.82-.6-5.48-1.2-1.9-1.35-3.4.42-5.1.85-.82.37-2.27.22-3.42-.11-.86,0-1.71-.09-2.55-.12-2.31.5-4.59.54-6.9a7.85,7.85,0,0,0-.48-3.36c-.38-.8-.66-1-.22-1.94a8.66,8.66,0,0,0,.89-2.86c.2-2-.21-3.94,0-5.9.6-4.68-.77-9.53.06-14.35a13.91,13.91,0,0,0,.22-4.9c-.95-4.78-.41-9.62-.74-14.42-.19-2.74-2-6-4.59-7-1-.39-1.87-.28-1.78.94.19,2.63-2.35,2.86-3.54,4.27a.47.47,0,0,1-.67,0,.48.48,0,0,1-.13-.41c.21-1.56-1-2.73-1-4.26,0-1.31-.68-2-2.14-1.69a6.62,6.62,0,0,1-3.9-.52,7,7,0,0,0-6.61.48c-1.67,1.17-3.28,3.77-3,5.86.07.46,0,1-.39,1.26a.83.83,0,0,1-1-.36Zm31.48,105a.64.64,0,0,0-.33.05c-1.61.68-.83,4.33-.42,5.49.27.77.7.69,1.22.24,1-.86.8-5.61-.47-5.78Zm-.33,23.28c.4.3,1.15,1.21,1.94.35.93-1,.22-2.12-.6-2.84-.58-.5-1.51-1.27-2.27-.47C149.58,194.44,150.39,195.35,151.52,196.32Zm5.34,10.14c.32-.72,1.45-2.1.87-2.94a1.19,1.19,0,0,0-1.69-.07l0,0c-.46.49-.28,1.36-.61,1.92a.58.58,0,0,0-.08.22c-.08.5-.78,1-.16,1.47s1.16-.08,1.7-.62Zm-5-78.36c.42.44.83.49,1.22.08a1.21,1.21,0,0,0,.13-1.71l-.11-.12c-.39-.42-.94-.72-1.4-.28-.72.69-.09,1.39.16,2Z" fill="#b6d2e6"/><path id="Path_6194" data-name="Path 6194" d="M117.34,120.06c.08-4.27,1-8.47,1-12.71a47.67,47.67,0,0,1,1.45-13.14,3.32,3.32,0,0,1,.63-1.36,1.2,1.2,0,0,1,1.36-.38c.72.34.67,1.37.5,2.16-.89,4-2,8.13-2,12.31-.27,2.37-.73,4.63-.92,7a44.7,44.7,0,0,0-.08,7.76c.69,7.1,1.84,14,.54,21.16-.21,1.15-.64,2.19-.79,3.35-.17,1.32-.3,2.64-.41,4q-.32,3.87-.29,7.75a2.4,2.4,0,0,1-.16,1.09.78.78,0,0,1-.91.44c-.33-.12-.46-.5-.58-.79a14.46,14.46,0,0,1-.84-4.79,20,20,0,0,1,.38-4.94,16.74,16.74,0,0,0,.74-4.66c-.1-1.7-.34-3.39-.31-5.09.06-3.24,1.1-6.39,1.2-9.63a60.19,60.19,0,0,0-.43-6.43C117.34,122.12,117.32,121.09,117.34,120.06Z" fill="#b6d2e6"/><path id="Path_6195" data-name="Path 6195" d="M159.65,182.68l.18,5.27c-.72-.83-1.64-.72-2.59-.59s-1.52-.64-1-1.24a23.72,23.72,0,0,0,2-3.55C158.5,182,159.17,182.41,159.65,182.68Z" fill="#dae8f1"/><path id="Path_6196" data-name="Path 6196" d="M151.52,196.32c-1.13-1-1.94-1.88-.93-3,.76-.8,1.69,0,2.27.47.82.72,1.53,1.82.6,2.84C152.67,197.53,151.93,196.62,151.52,196.32Z" fill="#dae8f1"/><path id="Path_6197" data-name="Path 6197" d="M151.9,128.1c-.25-.64-.88-1.34-.16-2,.46-.44,1-.14,1.4.28a1.21,1.21,0,0,1,.1,1.71.34.34,0,0,1-.12.12C152.73,128.59,152.32,128.54,151.9,128.1Z" fill="#dae8f1"/><path id="Path_6198" data-name="Path 6198" d="M160.31,192.78c-.62.66-.34,1.53-.56,2.29-1.55-1.32-1.78-2.67-.11-4.08A3,3,0,0,1,160.31,192.78Z" fill="#dae8f1"/><path id="Path_6199" data-name="Path 6199" d="M159.77,195.65a3.1,3.1,0,0,1,0,2.39C158.47,197.23,159.13,196.44,159.77,195.65Z" fill="#dae8f1"/><path id="Path_6200" data-name="Path 6200" d="M159.67,197.94a.74.74,0,0,1,.3,1A.78.78,0,0,1,159.67,197.94Z" fill="#dae8f1"/><path id="Path_6201" data-name="Path 6201" d="M158.87,138c0,.23,0,.46,0,.68C158.88,138.47,158.88,138.24,158.87,138Z" fill="#dae8f1"/><path id="Path_6202" data-name="Path 6202" d="M158.91,137.29c0,.25,0,.5,0,.76Z" fill="#dae8f1"/><path id="Path_6203" data-name="Path 6203" d="M157.53,78.36c-.54,0-1-1.23-1.28-1.57a6.84,6.84,0,0,0-1.8-1.59c-1.08-.64-1.88-3.07-1.25-4.9A2,2,0,0,0,153,68c-1-1.14.64-5.51,1.66-2.08.41,1.36,4.16,12,3.08,12.43A.41.41,0,0,1,157.53,78.36Z" fill="#b6d2e6"/><path id="Path_6204" data-name="Path 6204" d="M133.7,206.89c-.45.53-.86.72-1.34.43-.85-.52-1.67-1.27-1.32-2.27,1.38-4,.74-8.16.83-12.25,0-.32-.12-.69.26-.73a1.59,1.59,0,0,1,1.1.27,3.33,3.33,0,0,1,1.06,3.42c-.87,3.08-.35,6.15-.37,9.22A3.46,3.46,0,0,1,133.7,206.89Z" fill="#6aa5cf"/><path id="Path_6205" data-name="Path 6205" d="M147,185.55a1.41,1.41,0,0,1-1.69-1s0-.05,0-.08a15.77,15.77,0,0,1-.35-4.11c0-.82.76-1.13,1.56-.78S147.57,185,147,185.55Z" fill="#6aa5cf"/><path id="Path_6206" data-name="Path 6206" d="M119.83,141.7c1.33,2.24,1.08,4.8.69,7.05-.69,4-.26,7.91-.41,11.85-.17,4.48-.26,9-.31,13.45,0,2.62.2,5.43-.28,7.83-.78,3.94-.1,7.76-.34,11.62-.3,4.69-.16,9.41-.15,14.12,0,1.9,1.84,3.27,1.65,5.29,0,.4.52.53.93.48a8.86,8.86,0,0,1,4,.64c.84.31,1.75.95,2.67.8a1.83,1.83,0,0,1,.87,0,.58.58,0,0,1,.41.67c-.09.27-.43.37-.72.41a16.46,16.46,0,0,1-7-.42,5.32,5.32,0,0,1-3.11-1.82,6.78,6.78,0,0,1-1.16-3.36c-.44-5-1.67-10-.87-15.08.65-4,.15-8.15,0-12.22-.06-1.34-.1-2.68-.17-4,0-1.14.17-2.27.18-3.41,0-.26,0-.52,0-.78v0a.72.72,0,0,0-.24-1l-.08,0c.75-1.17-.14-3-.29-4.28a21.67,21.67,0,0,1,0-4.83,14.36,14.36,0,0,1,.65-3.32c.39-1.05,1.25-2,1.21-3.21,0-.88-.67-1.51-.9-2.36a13.44,13.44,0,0,1-.08-6.58,13.24,13.24,0,0,1,1.53-3.83A8,8,0,0,0,119.83,141.7Z" fill="#90bcdb"/><path id="Path_6207" data-name="Path 6207" d="M116.8,167.77l0,.7C116.35,168.25,116.44,168,116.8,167.77Z" fill="#b6d2e6"/><path id="Path_6208" data-name="Path 6208" d="M117.18,148.1l0,.67Z" fill="#b6d2e6"/><path id="Path_6209" data-name="Path 6209" d="M162.79,175.24l.23.34-.22.07,0-.41Z" fill="#6ca6d0"/><g id="Group_1174" data-name="Group 1174"><path id="Path_6210" data-name="Path 6210" d="M119.24,101h0" fill="#90bcdb" stroke="#468fc3" stroke-linecap="round" stroke-miterlimit="10" stroke-width="0.54" stroke-dasharray="1.08"/><path id="Path_6211" data-name="Path 6211" d="M119,104h0v0" fill="#90bcdb" stroke="#468fc3" stroke-linecap="round" stroke-miterlimit="10" stroke-width="0.54" stroke-dasharray="1.08"/><path id="Path_6212" data-name="Path 6212" d="M149.64,88.82a13.68,13.68,0,0,0,.23-4.9c-1-4.78-.41-9.62-.74-14.42-.19-2.74-2-6-4.6-7-1-.39-1.86-.28-1.77.94.19,2.63-2.35,2.86-3.54,4.27a.49.49,0,0,1-.68,0,.47.47,0,0,1-.12-.41c.21-1.56-1-2.73-1-4.26,0-1.31-.68-2-2.14-1.69a6.65,6.65,0,0,1-3.91-.52c-4.38-1.68-8.12.2-9.41,4.73-.41,1.45-1.38,2.44-1.69,4a12.86,12.86,0,0,0,0,4.75,35.41,35.41,0,0,1,.13,4.94c.15,9.77-1.66,19.56-2,29.35q-.33,8.86-.06,17.73.13,4.42.42,8.85a28,28,0,0,0,.32,4.39c0,.17.71,2.37.82,2.1.8-2.17.15-4.5.72-6.7,1.15-4.46,0-9,.59-13.47.5-4-.29-8.38,2.38-12,.25-.34.37-.78,0-1.06,0-.47-1.15-.54-.82-1.31s1.61-.34,2.2-.34c.27-1.62-4.81-2.59-2.53-4.62a3.77,3.77,0,0,1,.7-.41,1.19,1.19,0,0,0,.56-.55c.21-.59-.78-1.88-1-2.45a10.2,10.2,0,0,1-.45-2.9c0-1.85.28-3.68.39-5.52a9.63,9.63,0,0,0-.16-2.08c-.33-2.28.76-3.18,2.86-2.33.66.26,1.23.38,1.67-.24,1.31-1.82.77-4.09,1.39-6.1.23-.77-1.73-.78-2.7.16-.69.67-.6,2.51-2.22,1.81s-.72-2-.5-3.07a2.67,2.67,0,0,0,0-1.63c-1.68-3-.13-6-.09-8.95,0-2.58,2-4.35,3.9-5.6,2.75-1.75,9.77.84,9.76,4,0,3.3,2,4.76,3.42,6.9,1.32,2,1,2.51-1.28,2.8-1.23.16-2.54.81-2.45,2.13.15,2.12-.25,4.42,1.22,6.3A2.68,2.68,0,0,1,137.9,87a1,1,0,0,0-.11.45c.43,3.57-.73,6.79-2.16,10-.12.27-.26.73-.12.89,1.74,2.12.17,4.16,0,6.24a18.44,18.44,0,0,0,.64,6c.19.84.71,1.77-.43,2.22-1,.4-1.58-.44-2.14-1.09a3.73,3.73,0,0,1-.47-1.06c-.19-.54-.4-1.14-1.12-.83a1.13,1.13,0,0,0-.66,1.47.49.49,0,0,0,0,.11,6.47,6.47,0,0,0,2.82,3.36c2,1.17,3.05,2.62,2.1,5a6.45,6.45,0,0,0-.11,1.86c-.12,1.53.06,3.12-1.67,4.08-.77.43-.75,1.5-.78,2.37-.05,1.26-.47,1.74-1.77,1-1-.56-2.37-1.2-3.18,0s-.18,2.49.9,3.53c1.88,1.81,2,4.15,1.53,6.5-.2.9-.47,1.71.14,2.43.75.9,1.37,0,2-.28,1.08-.48,1.7,0,1.8,1.08a35.69,35.69,0,0,1-.42,8.88c-.31,1.91-2.39,1.93-3.37,3.21s-2.36,2-.33,3.69c1.05.87.39,2.72.84,4.16a12,12,0,0,0,3.44,4.86c1,1,1,1.15-.3,1.55-2.88.87-2.81.89-1.42,3.73.64,1.33.92,2.85,2.83,3,.54,0,.7.54.56,1.08a2.93,2.93,0,0,0-.24,1.37c.66,2.13,1.2,3.85-2.27,2.64-.91-.32-1.08,1.11-.8,2s.83,1.29,1,2.11c.34,2-.33,3.07-2,2.61-1.89-.51-2,.58-2.14,1.79-.46,3.76-.8,7.54-1.36,11.28-.26,1.69.07,4-2.75,4.08-.54,0-.72.56-.61,1.09a1.61,1.61,0,0,0,1.51,1.51,19.15,19.15,0,0,1,3.67.69c.85.29,1.88.86,1.4,2.05s-1.29.8-2.15.35a14.49,14.49,0,0,0-2.22-.75c-.71-.24-1.48-.42-1.68.58s.45,1.17,1.23,1.36a2.78,2.78,0,0,1,1.75,1.58,3,3,0,0,1-.11,2.77,12,12,0,0,1,3.54.85,25.23,25.23,0,0,1,3.35,1.82c.84.51,2,1.51,3,1.37.49-.07,1-.47,1.54-.54a6.52,6.52,0,0,1,1.87.06c1.54.22,4.5.84,5.73-.56-1.67-.7-.66-2.41-1.31-3.5-2,.42-4.14,2.67-6.06-.32-.38-.59-1.34-.31-2-.26-1.67.13-2.58-.57-2.48-2.28a42,42,0,0,0-.69-11.79c-.21-1,.74-1.87.3-3-.2-.5-.46-1.36.45-1.52.58-.11,1,.49,1.12,1a4.74,4.74,0,0,0,1.42,2.35,3.43,3.43,0,0,1,.45,3.74,11.1,11.1,0,0,0-1,5.9c.14,1,.61,1.7,1.57,1.7,1.2,0,.61-1,.66-1.63.16-1.93,1.73-3.19,2.39-5,.88-2.35.7-4.57.71-6.8,0-2.58,1.62-4.86,1.06-7.49a1,1,0,0,1,.81-1.19h.07c.67-.05.92.48,1.12,1,1.08,2.91.86,5.94.68,8.94a44.18,44.18,0,0,0,.24,10.15c1-1,1-2.29,1-3.52.3-7.26.11-14.53-.08-21.79,0-1.74.59-3.51.32-5.11-.53-3.2.4-6.36-.21-9.52-.66-3.34.22-6.68.16-10-.09-6,.18-12.05.07-18.09,0-1.87.46-3.82-.6-5.48-1.2-1.9-1.36-3.4.42-5.1.85-.82.37-2.27.22-3.42-.11-.86-.05-1.7-.09-2.55-.19-3.75,1.59-7.59-.41-11.28a.86.86,0,0,1,.11-.68c1.83-2.79.69-6,1.08-9C150.19,98.49,148.82,93.64,149.64,88.82ZM134.29,195.76c-.87,3.08-.35,6.15-.37,9.22a3.46,3.46,0,0,1-.22,1.91c-.45.53-.86.72-1.34.43-.85-.52-1.67-1.27-1.32-2.28,1.38-4,.74-8.15.83-12.24,0-.32-.12-.69.26-.73a1.59,1.59,0,0,1,1.1.27,3.33,3.33,0,0,1,1.06,3.42ZM147,185.55a1.41,1.41,0,0,1-1.69-1s0-.06,0-.09a15.77,15.77,0,0,1-.35-4.11c0-.82.76-1.13,1.56-.77s1.11,5.48.49,6Z" fill="#90bcdb"/></g><path id="Path_6213" data-name="Path 6213" d="M127.09,197.32a.74.74,0,0,1-1,.26l-.07-.05c-.65-.45-1.35-.94-1.23-1.83a16.86,16.86,0,0,1,.66-2.2,1.24,1.24,0,0,1,1.42-.94c1,.17.63.94.34,1.45C126.54,195.13,127.56,196.3,127.09,197.32Z" fill="#90bcdb"/><path id="Path_6214" data-name="Path 6214" d="M129.44,215.58l-.13.1c-.42.24-1.2-.24-1.59-.41a18.29,18.29,0,0,0-4.26-1.78,7.24,7.24,0,0,0-1.8-.11c-.31,0-1,0-1-.47.19-2-1.65-3.39-1.65-5.29,0-4.71-.15-9.43.15-14.12.24-3.86-.44-7.68.35-11.62a45.78,45.78,0,0,0,.28-7.83c0-4.49.13-9,.3-13.45.16-3.95-.28-7.88.41-11.85a12.89,12.89,0,0,0,.11-4.55c-.23-1.18-.95-2.16-1.06-3.41-.25-2.66,1-5.2,1.34-7.8.5-3.82-.27-7.68.22-11.51.5-4-.29-8.38,2.38-12,.25-.34.37-.79,0-1.06-.6-.44-1.32-1.07-.51-1.63.43-.3.79-.1,1.2-.21s.59-.66,0-.91-1-.21-1.52-.67a3.16,3.16,0,0,1-1.07-1.38,2.3,2.3,0,0,1,.5-2.15c.25-.27.55-.47.77-.76.51-.68-.09-1.43-.3-2.12a10.46,10.46,0,0,1-.41-2.79c0-1.83.28-3.65.39-5.48a9.17,9.17,0,0,0-.16-2.09c-.33-2.28.77-3.17,2.86-2.33.66.27,1.23.39,1.68-.24,1.3-1.82.77-4.08,1.38-6.1.23-.76-1.73-.77-2.69.17-.69.67-.61,2.51-2.22,1.81s-.73-2-.51-3.07a2.6,2.6,0,0,0,0-1.63c-1.68-3-.13-6-.09-9,0-2.58,2-4.35,3.9-5.6,2.75-1.76,9.77.84,9.76,4,0,3.3,2,4.76,3.42,6.9,1.32,2,1,2.51-1.28,2.8-1.23.16-2.53.81-2.44,2.12.14,2.12-.25,4.43,1.21,6.3A2.7,2.7,0,0,1,137.9,87a1.15,1.15,0,0,0-.11.45c.44,3.57-.73,6.78-2.16,9.94-.12.27-.25.74-.12.9,1.74,2.11.18,4.16,0,6.24a18.5,18.5,0,0,0,.64,6c.19.83.71,1.76-.43,2.22-1,.4-1.58-.45-2.13-1.1a3.39,3.39,0,0,1-.48-1.06c-.19-.53-.4-1.13-1.11-.82a1.14,1.14,0,0,0-.67,1.47,1,1,0,0,0,0,.1,6.46,6.46,0,0,0,2.83,3.37c2,1.17,3,2.61,2.09,5a6.9,6.9,0,0,0-.11,1.87c-.11,1.53.07,3.12-1.67,4.08-.77.43-.74,1.49-.78,2.37-.05,1.26-.47,1.74-1.76,1-1-.56-2.37-1.2-3.18,0s-.18,2.48.9,3.53c1.87,1.8,2,4.14,1.52,6.5-.2.9-.46,1.71.14,2.43.75.9,1.37,0,2-.28,1.07-.48,1.7,0,1.79,1.07a36.25,36.25,0,0,1-.41,8.89c-.32,1.91-2.39,1.92-3.37,3.2s-2.36,2-.34,3.7c1.06.87.39,2.71.85,4.15a11.87,11.87,0,0,0,3.43,4.87c1,1,1,1.15-.3,1.54-2.87.87-2.8.89-1.42,3.74.65,1.33.92,2.85,2.84,3,.53,0,.7.53.56,1.08a2.93,2.93,0,0,0-.25,1.37c.67,2.13,1.21,3.85-2.26,2.64-.92-.32-1.08,1.11-.81,2s.84,1.28,1,2.11c.34,2-.32,3.06-2,2.6-1.9-.5-2,.58-2.15,1.79-.46,3.77-.8,7.55-1.36,11.29-.26,1.69.07,4-2.75,4.08-.54,0-.71.55-.61,1.08a1.62,1.62,0,0,0,1.51,1.52,18.15,18.15,0,0,1,3.67.69c.85.28,1.88.86,1.4,2s-1.28.8-2.15.34a14.49,14.49,0,0,0-2.22-.75c-.71-.23-1.48-.41-1.68.59s.45,1.17,1.24,1.36c1.61.38,2.39,2.28,2.16,3.78A1.06,1.06,0,0,1,129.44,215.58Zm-2.35-18.26c.48-1-.55-2.19.1-3.31.29-.5.65-1.28-.33-1.45a1.23,1.23,0,0,0-1.42.94,14.26,14.26,0,0,0-.66,2.2c-.13.89.58,1.38,1.22,1.83a.74.74,0,0,0,1-.14.18.18,0,0,0,0-.07Z" fill="#6aa5cf"/><path id="Path_6215" data-name="Path 6215" d="M138.54,219.14a1.35,1.35,0,0,0-.42-.2,4.84,4.84,0,0,1-1.32-.47c-.34-.25-.63-.64-1-.91a9.9,9.9,0,0,0-5.13-2.12,5.31,5.31,0,0,0-1.26-.07l-.14,0c-.38.08-.61.42-1,.45-.79.06-1.46-.6-2.26-.5-1.79.22-3.35-.8-5.31-.62s-3-2.63-3.14-4.43c-.44-5-1.67-10-.87-15.09.91-5.67.58-11.58.36-17.26a7.61,7.61,0,0,1,.29-2.27c.45-2-.86-4.09.11-6a3,3,0,0,0,.45-1.46c-.06-.62-.62-1.06-.92-1.6a2.82,2.82,0,0,1-.1-2.24c.29-.89.84-1.66,1.17-2.54a6.1,6.1,0,0,0,.35-2.84,8.09,8.09,0,0,0-1.22-2.77c-.05-.08-.12-.18-.21-.18a.2.2,0,0,0-.17.11.8.8,0,0,0,0,.21c0,.42-.08.83-.13,1.25a7.82,7.82,0,0,0,.06,1.08,3.71,3.71,0,0,0,.24.66c.37,1.12-.48,2.18-.79,3.22a12.36,12.36,0,0,0-.45,3.42V166c0,2.59.17,5.18.25,7.76.15,4.54-.21,9.09-.46,13.6-.15,2.64-.25,5.29-.33,7.93-.07,2.26.1,4.58-.08,6.8a21.4,21.4,0,0,0,.37,7.44,12.42,12.42,0,0,0,1.51,3.39c.32.49.67,1,1,1.5s.1,1.28.7,1.59a19.6,19.6,0,0,0,2.13.33c2.07.67,3.67,2.8,5.89,1.63a7.2,7.2,0,0,1,7.46.63,11.4,11.4,0,0,0,2.15,1.48,2.29,2.29,0,0,0,1.29.14c.31-.06,1.22-.33,1.25-.73A.49.49,0,0,0,138.54,219.14Z" fill="#b6d2e6"/><path id="Path_6216" data-name="Path 6216" d="M147.11,215.42a4.41,4.41,0,0,1-3.06,1.46,3.66,3.66,0,0,1-3.09-1.44c-.26-.43-.2-.79-.77-1a4.39,4.39,0,0,0-1.49.08c-1.68.13-2.59-.58-2.48-2.28a42.46,42.46,0,0,0-.69-11.8c-.22-.95.74-1.87.3-3-.2-.5-.46-1.36.44-1.53.58-.1,1,.49,1.12,1a4.8,4.8,0,0,0,1.42,2.36,3.38,3.38,0,0,1,.45,3.73,11.2,11.2,0,0,0-1,5.9c.14,1,.62,1.71,1.58,1.71,1.2,0,.6-1,.65-1.63.17-1.94,1.73-3.19,2.39-5,.88-2.34.7-4.57.71-6.79,0-2.58,1.63-4.86,1.06-7.49a1,1,0,0,1,.81-1.19h.08c.66,0,.92.48,1.12,1,1.07,2.92.86,5.95.68,8.95a56.76,56.76,0,0,0-.12,6.9,8.13,8.13,0,0,0,.38,2.73,10.46,10.46,0,0,1,.83,3.05,5.64,5.64,0,0,1-1,3.76C147.33,215.17,147.22,215.3,147.11,215.42Z" fill="#6aa5cf"/><path id="Path_6218" data-name="Path 6218" d="M54.15,66.85c6.87-2,13-1.56,8.64,6.86-3.15,6.12-11.56,13.43-6.21,21.12-12-1-21.18-7.11-30.1-14.64-1.51-1.28-3.83-3.92-1.93-5.9,1.53-1.59,6.51-1.65,8.65-2.07C40.16,70.85,47.19,68.83,54.15,66.85Z" fill="#a3756f"/><g id="Group_1176" data-name="Group 1176"><path id="Path_6219" data-name="Path 6219" d="M73.38,31.92a25.53,25.53,0,0,0-8.67,2.2c-.95.41-3.22,1.11-3.8,2A1.3,1.3,0,0,0,61.19,38a1.21,1.21,0,0,0,.71.26,28,28,0,0,0,8.27-.54c2-.48,4.48-.93,5.49-3C76.43,33.1,75.09,31.81,73.38,31.92Z" fill="#b79d7b"/><path id="Path_6220" data-name="Path 6220" d="M52.67,31.74c.37-2.35,2.17-5.14,3.9-5.92.58-.27,1.86-.51,2.3.15.61.92-.64,1.42-1.16,2-1.13,1.26-1.92,2.15-1.76,4,.1,1.23,1.16,3.72-1.11,3.37C53.48,35.1,52.48,33,52.67,31.74Z" fill="#b79d7b"/></g><g id="Group_1177" data-name="Group 1177"><path id="Path_6221" data-name="Path 6221" d="M60.44,62.44l.11-.06c1.83-.91,4.69-1.94,6.5-.44C75.62,69,59.68,74.22,54.86,74.79c-9.49,1.12-18.45-.11-27.8-1.36a2.25,2.25,0,0,0-1.61.19c-2.34,1.7,2.94,5.43,4.11,6.23,6.7,4.62,14.9,5.85,22.2,9.19,3.78,1.73,6.4,2.86,5.19,7.36-.89,3.33-3.33,5.11-6.38,6.3-2.22.86-4,.31-6.06-.79-6.68-3.58-12.64-9.57-18.26-14.64-2.68-2.41-5.37-4.84-7.9-7.4-1.88-1.91-4.43-4.75-3.81-7.67.5-2.36,3.58-2.55,5.62-2.68a211.76,211.76,0,0,0,24.63-2.58,59.64,59.64,0,0,0,8.66-2A62,62,0,0,0,60.44,62.44Z" fill="#db9d95"/></g><path id="Path_6222" data-name="Path 6222" d="M69.91,87.9c-6.52-11.56-18.38-12-30.38-13-4.14-.34-8.27-.89-12.48-1.45a2.22,2.22,0,0,0-1.6.19c-2.35,1.7,2.94,5.43,4.11,6.23,6.7,4.61,14.9,5.85,22.19,9.19,4.58,2.1,6.91,8,11.86,9.67C70.13,100.94,72.69,92.85,69.91,87.9Z" fill="#dfaca5"/><path id="Path_6223" data-name="Path 6223" d="M80.47,72.63C67.16,74,57.69,87.91,59.32,103.71L73.4,240.78l48.19-4.95L107.5,98.76C105.88,83,93.78,71.26,80.47,72.63Z" fill="#daeac0"/><path id="Path_6224" data-name="Path 6224" d="M63.93,88.6c-2.14-2.66,1.68-7,3.43-8.72a20.33,20.33,0,0,1,6.3-4.22A17.59,17.59,0,0,1,89,75.6a19,19,0,0,1,4.79,3.25,3.53,3.53,0,0,1,.77,1c.5,1-.1,1.17-.81,1.62-2.42,1.52,1.19,6.16,1.32,8.18a12,12,0,0,0,1.46,5.33,6.64,6.64,0,0,0,1.48,1.81c.59.47,1.4.78,1.17,1.71a3.36,3.36,0,0,1-.56,1c-.37.52-1.11,5.3.13,4.94.48-.15.28-1,.43-1.36a2.44,2.44,0,0,1,2-1.46,1.77,1.77,0,0,1,1.67,1.43c.47,3.1.93,6.22,0,9.3-.57,1.83-1.23,4.1-.51,5.45.92,1.71.26,2.63-.37,3.73s-.83,2.29-1.39,3.06c-2.16,3,.8,2.18,1.8,2.73,1.23.68,1.74-.37,1.6-1.17a6.66,6.66,0,0,1,.58-3.18,4.61,4.61,0,0,0,.27-1.56c0-.4-.47-.85.16-1.16a1,1,0,0,1,1.27.46,2.08,2.08,0,0,1,.18,1.43c-.09.48-.25,1-.31,1.44a10.87,10.87,0,0,0,.71,3.87,10.36,10.36,0,0,1-.62,6.5,2.7,2.7,0,0,0-.07,2.37c.58.94,1.85.34,2.28.91s-.19.9-.26,1.35a6,6,0,0,0,.11,1.47c.11,1.19.63,2.4-.17,3.55-1,.51-1.68.82-1.37-.85.21-1.13.57-2.49.14-3.41-.62-1.33-2.12-.43-3.2-.36s-2.58-.25-2.78,1.22c-.18,1.26.59,2,2,1.9,1.06-.1,1.78.23,2,1.47a7.59,7.59,0,0,0,2.53,4.63c.82.76,1.5,1.72-.21,2.5-.78.36-2.07.87-1.74,1.89.45,1.39,2.09.05,3,.79a2.58,2.58,0,0,1,.89,1.57,5.49,5.49,0,0,1-1.46,4.9,2.17,2.17,0,0,0-.41,3.06,2.11,2.11,0,0,0,.65.57,2.52,2.52,0,0,1,1.1,1.71,35.9,35.9,0,0,1,0,12.45,15,15,0,0,0-.71,2.3c0,1.24.71.89,1.3,1.59a1,1,0,0,1,.15,1c-.53,1.29.14,2.13.86,3.25a1.17,1.17,0,0,1,0,1.52c-1.57,1.43-.5,2.77,0,4.19.29.84.7,1.18,1.55.85s1.21-.74.76-1.61c-.22-.41-.24-1.58.18-1.88,1-.71,1.34,1.7,1.12,2.27-.72,1.87-.12,3.63.24,5.43.14.72.7,1.44,0,2.16-.5-.22-1.21-.55-1.46,0a24.73,24.73,0,0,1-1.62,3.73c-.42.65.22,1.35,1.16,1.13s1.84-.43,2.64.32a2.54,2.54,0,0,1,.38,2l-.26,1c-1.52,1.57-1.15,2.89.53,4l.07.57c.09.7-.87,1-.42,1.89a12.32,12.32,0,0,1,1.61,3.49,18.24,18.24,0,0,1,0,5.47c-.34,3.17-.28,6.37-1.2,9.45-.28,1-.57,2.75-1.43,3.37-1.17.84-3.54-.25-4.57-1,.1-.88-.9-2-1.77-1.56s-.86,2.17-1.33,2.84l-.1.14c-1.74-.52-.9-2.33-1.66-3.34.06-.13.13-.27.19-.41.84-1.39,1.29-2.81.4-4.36a1.77,1.77,0,0,0-.45-1.67c.88-1.08.72-2.37.64-3.6-.45-7.26-1.37-14.47-2.3-21.67-.22-1.73.22-3.56-.2-5.12-.85-3.12-.25-6.37-1.19-9.44-1-3.27-.46-6.68-.86-10-.71-6-1.06-12-1.78-18-.22-1.87.06-3.85-1.15-5.4-1.39-1.77-1.7-3.25-.1-5.12.76-.9.13-2.29-.13-3.42-.2-.84-.22-1.69-.35-2.52-.36-2.29,0-4.62-.17-6.92a7.85,7.85,0,0,0-.83-3.29c-.45-.76-.75-.95-.41-1.91a8.46,8.46,0,0,0,.59-2.93c0-2-.61-3.9-.55-5.88.12-4.72-1.74-9.4-1.41-14.28a13.65,13.65,0,0,0-.28-4.89c-1.43-4.66-1.38-9.53-2.21-14.27-.46-2.7-2.6-5.74-5.28-6.47-1.05-.28-1.88-.09-1.67,1.12.46,2.59-2.05,3.09-3.08,4.61a.49.49,0,0,1-.68,0,.5.5,0,0,1-.17-.38c.06-1.58-1.31-2.61-1.45-4.14-.12-1.3-.89-1.94-2.3-1.46a6.62,6.62,0,0,1-3.94-.12,7,7,0,0,0-6.52,1.15c-1.54,1.34-2.88,4.09-2.35,6.13.12.46.14,1-.26,1.3a.82.82,0,0,1-1-.25ZM106,189.82a.53.53,0,0,0-.32.08c-1.53.84-.38,4.4.14,5.5.35.74.77.61,1.23.11.89-.95.23-5.65-1-5.69ZM108,213c.43.26,1.26,1.09,1.95.15.83-1.11,0-2.13-.88-2.76-.62-.45-1.63-1.12-2.3-.24-.9,1.17,0,2,1.23,2.85Zm6.34,9.54c.25-.75,1.23-2.24.57-3a1.2,1.2,0,0,0-1.7.1l0,0c-.41.53-.14,1.38-.41,2a.86.86,0,0,0-.06.23c0,.5-.67,1.1,0,1.47s1.14-.2,1.62-.79Zm-12.94-77.44c.46.4.88.4,1.22,0a1.22,1.22,0,0,0,0-1.72l-.13-.11c-.42-.38-1-.62-1.42-.14-.65.76.05,1.4.37,2Z" fill="#c7e1a1"/><path id="Path_6225" data-name="Path 6225" d="M66.23,140.65c-.35-4.26.17-8.53-.25-12.76a47.91,47.91,0,0,1,.1-13.21,3.26,3.26,0,0,1,.49-1.42,1.2,1.2,0,0,1,1.31-.52c.76.26.8,1.3.71,2.1-.46,4.11-1.2,8.3-.78,12.45,0,2.39-.25,4.69-.19,7.09a44.54,44.54,0,0,0,.71,7.73c1.42,7,3.27,13.74,2.7,21-.09,1.17-.41,2.25-.44,3.42s0,2.65,0,4q.07,3.87.5,7.73a2.27,2.27,0,0,1,0,1.1.78.78,0,0,1-.86.54c-.33-.08-.5-.45-.65-.73a14.62,14.62,0,0,1-1.33-4.67,19.61,19.61,0,0,1-.12-5,16.55,16.55,0,0,0,.25-4.71c-.26-1.68-.68-3.34-.82-5-.28-3.22.43-6.47.21-9.7q-.39-3.19-1.09-6.35C66.45,142.69,66.32,141.67,66.23,140.65Z" fill="#c7e1a1"/><path id="Path_6226" data-name="Path 6226" d="M114.73,198.61l.72,5.22c-.8-.75-1.7-.54-2.64-.32s-1.58-.48-1.17-1.13a22.86,22.86,0,0,0,1.62-3.73C113.51,198.06,114.22,198.39,114.73,198.61Z" fill="#daeac0"/><path id="Path_6227" data-name="Path 6227" d="M108,213c-1.23-.86-2.13-1.68-1.23-2.85.67-.88,1.68-.21,2.3.23.89.64,1.71,1.65.89,2.77C109.29,214.1,108.47,213.27,108,213Z" fill="#daeac0"/><path id="Path_6228" data-name="Path 6228" d="M101.44,145.11c-.32-.61-1-1.25-.37-2,.41-.49,1-.24,1.42.14a1.21,1.21,0,0,1,.28,1.69.69.69,0,0,1-.11.13C102.32,145.5,101.9,145.5,101.44,145.11Z" fill="#daeac0"/><path id="Path_6229" data-name="Path 6229" d="M116.42,208.59c-.55.72-.19,1.56-.33,2.33-1.67-1.15-2-2.47-.53-4A3,3,0,0,1,116.42,208.59Z" fill="#daeac0"/><path id="Path_6230" data-name="Path 6230" d="M116.17,211.49a3.15,3.15,0,0,1,.21,2.39C115,213.2,115.61,212.35,116.17,211.49Z" fill="#daeac0"/><path id="Path_6231" data-name="Path 6231" d="M116.31,213.78a.76.76,0,0,1,.4,1A.79.79,0,0,1,116.31,213.78Z" fill="#daeac0"/><path id="Path_6232" data-name="Path 6232" d="M109.39,154.25l.08.68Z" fill="#daeac0"/><path id="Path_6233" data-name="Path 6233" d="M109.35,153.53c0,.25,0,.5,0,.76Z" fill="#daeac0"/><path id="Path_6234" data-name="Path 6234" d="M102,95.05c-.54,0-1.12-1.12-1.42-1.43a7,7,0,0,0-2-1.4c-1.14-.53-2.18-2.86-1.75-4.75a2,2,0,0,0-.48-2.28c-1.1-1,.07-5.54,1.44-2.24.54,1.32,5.36,11.5,4.33,12.06A.38.38,0,0,1,102,95.05Z" fill="#c7e1a1"/><path id="Path_6235" data-name="Path 6235" d="M91.39,225.35c-.4.57-.78.8-1.3.56-.89-.43-1.78-1.09-1.54-2.13,1-4.14-.1-8.18-.43-12.26,0-.32-.19-.68.19-.76a1.61,1.61,0,0,1,1.12.16,3.34,3.34,0,0,1,1.4,3.3c-.55,3.15.28,6.15.58,9.21A3.48,3.48,0,0,1,91.39,225.35Z" fill="#a2ce62"/><path id="Path_6236" data-name="Path 6236" d="M102.38,202.76a1.38,1.38,0,0,1-1.77-.85l0-.07a16.08,16.08,0,0,1-.76-4.06c-.06-.82.64-1.2,1.47-.93C102,197.07,103,202.19,102.38,202.76Z" fill="#a2ce62"/><path id="Path_6237" data-name="Path 6237" d="M70.93,161.92c1.55,2.08,1.56,4.65,1.4,6.93-.28,4,.55,7.9.81,11.84.28,4.47.65,8.94,1.07,13.41.24,2.61.75,5.38.52,7.82-.38,4,.69,7.73.84,11.59.18,4.7.81,9.38,1.3,14.06.2,1.9,2.16,3.07,2.18,5.09,0,.4.57.48,1,.39a8.64,8.64,0,0,1,4,.23c.87.22,1.84.77,2.73.52a1.86,1.86,0,0,1,.87-.11.57.57,0,0,1,.48.62c-.06.29-.39.41-.67.49a16.82,16.82,0,0,1-7,.3,5.42,5.42,0,0,1-3.29-1.5,6.88,6.88,0,0,1-1.5-3.22c-1-4.94-2.68-9.81-2.4-14.92.23-4.08-.68-8.12-1.26-12.16-.18-1.32-.36-2.65-.57-4-.17-1.12-.06-2.27-.17-3.41,0-.25,0-.51-.07-.77v0a.72.72,0,0,0-.35-1l-.07,0c.63-1.25-.45-2.93-.73-4.24a22,22,0,0,1-.47-4.8,14.15,14.15,0,0,1,.31-3.37c.28-1.08,1-2.08.87-3.31-.12-.87-.82-1.44-1.14-2.25a13.6,13.6,0,0,1-.75-6.54,13.75,13.75,0,0,1,1.12-4A7.89,7.89,0,0,0,70.93,161.92Z" fill="#b5d781"/><path id="Path_6238" data-name="Path 6238" d="M70.58,188.16l.09.69C70.17,188.68,70.24,188.44,70.58,188.16Z" fill="#c7e1a1"/><path id="Path_6239" data-name="Path 6239" d="M69,168.55l.09.67Z" fill="#c7e1a1"/><path id="Path_6240" data-name="Path 6240" d="M117.09,190.89l.27.31-.21.09-.08-.4Z" fill="#ecf5e1"/><g id="Group_1178" data-name="Group 1178"><path id="Path_6241" data-name="Path 6241" d="M66.18,121.51h0" fill="#b5d781" stroke="#8cc540" stroke-linecap="round" stroke-miterlimit="10" stroke-width="0.54" stroke-dasharray="1.08"/><path id="Path_6242" data-name="Path 6242" d="M66.27,124.53h0v0" fill="#b5d781" stroke="#8cc540" stroke-linecap="round" stroke-miterlimit="10" stroke-width="0.54" stroke-dasharray="1.08"/><path id="Path_6243" data-name="Path 6243" d="M95.18,106.27a13.7,13.7,0,0,0-.28-4.9c-1.44-4.66-1.39-9.52-2.21-14.27-.47-2.7-2.6-5.74-5.28-6.46-1-.29-1.89-.09-1.67,1.11.46,2.6-2,3.09-3.08,4.61a.49.49,0,0,1-.68.06.52.52,0,0,1-.17-.39c.06-1.58-1.31-2.61-1.45-4.13-.12-1.31-.89-2-2.3-1.47a6.62,6.62,0,0,1-3.94-.12c-4.54-1.22-8.06,1-8.88,5.67C65,87.47,64.12,88.55,64,90.09a13.19,13.19,0,0,0,.46,4.72,35.33,35.33,0,0,1,.64,4.9c1.15,9.7.35,19.63,1,29.41q.57,8.85,1.75,17.64c.39,2.92.84,5.85,1.33,8.76a28,28,0,0,0,.77,4.34c0,.16,1,2.28,1,2,.57-2.24-.32-4.5,0-6.74.7-4.55-.9-9-.79-13.46.1-4-1.14-8.3,1.15-12.17.21-.36.28-.82-.12-1.05-.05-.47-1.2-.42-1-1.22s1.57-.5,2.15-.57c.1-1.63-5-2.08-3-4.33a3.82,3.82,0,0,1,.64-.48,1,1,0,0,0,.5-.61c.15-.6-1-1.78-1.21-2.33a10.35,10.35,0,0,1-.74-2.84c-.23-1.83-.1-3.69-.17-5.53a10.38,10.38,0,0,0-.38-2.06c-.56-2.23.44-3.23,2.6-2.61.68.2,1.26.26,1.64-.41,1.12-1.94.35-4.14.76-6.21.15-.78-1.8-.6-2.67.44-.62.74-.35,2.56-2,2s-.92-1.87-.82-3a2.66,2.66,0,0,0-.21-1.62c-2-2.79-.75-5.93-1-8.9-.23-2.56,1.5-4.52,3.31-6,2.56-2,9.8-.16,10.12,2.93.33,3.29,2.46,4.53,4.1,6.52,1.51,1.83,1.25,2.39-1,2.92-1.21.28-2.44,1.06-2.21,2.36.36,2.09.2,4.43,1.85,6.15a2.69,2.69,0,0,1,.82,2.56,1.06,1.06,0,0,0-.07.46c.8,3.5,0,6.82-1.13,10.11-.09.29-.18.76,0,.9,2,1.93.6,4.12.59,6.22a18.48,18.48,0,0,0,1.25,5.91c.27.81.89,1.68-.2,2.25-.94.5-1.62-.28-2.23-.87a3.35,3.35,0,0,1-.58-1c-.25-.52-.51-1.09-1.2-.71a1.13,1.13,0,0,0-.51,1.53.31.31,0,0,0,0,.1,6.42,6.42,0,0,0,3.15,3.06c2.12,1,3.3,2.29,2.6,4.77a6.89,6.89,0,0,0,.08,1.87c0,1.53.39,3.1-1.24,4.23-.73.51-.59,1.56-.54,2.43.09,1.27-.28,1.78-1.65,1.2-1.07-.45-2.48-.94-3.16.36s.08,2.49,1.26,3.42c2,1.61,2.45,3.92,2.18,6.32-.1.91-.28,1.74.39,2.4.84.82,1.36-.12,2-.49,1-.59,1.69-.18,1.9.89a36.2,36.2,0,0,1,.5,8.88c-.11,1.93-2.18,2.16-3,3.53s-2.14,2.25,0,3.71c1.14.76.67,2.66,1.26,4a12,12,0,0,0,3.92,4.49c1.1.9,1.12,1-.14,1.57-2.78,1.16-2.7,1.17-1,3.86.78,1.25,1.21,2.74,3.13,2.67.54,0,.75.46.67,1a2.82,2.82,0,0,0-.1,1.38c.87,2.06,1.59,3.71-2,2.86-.94-.22-1,1.22-.6,2s1,1.2,1.19,2c.55,2,0,3.09-1.76,2.8-1.94-.31-1.93.78-2,2-.08,3.79,0,7.59-.2,11.37-.08,1.7.48,4-2.32,4.34-.53.07-.65.62-.5,1.14A1.6,1.6,0,0,0,85,226.1a18.51,18.51,0,0,1,3.72.32c.87.19,2,.65,1.6,1.89s-1.2.93-2.1.56a16.16,16.16,0,0,0-2.29-.52c-.73-.15-1.51-.26-1.61.76s.57,1.12,1.37,1.22a2.84,2.84,0,0,1,1.9,1.4,3,3,0,0,1,.17,2.76,12.17,12.17,0,0,1,3.6.49,24.67,24.67,0,0,1,3.52,1.47c.89.42,2.14,1.3,3.08,1.06.48-.12.94-.57,1.47-.7a6.56,6.56,0,0,1,1.87-.13c1.56.06,4.56.37,5.65-1.14-1.74-.53-.9-2.33-1.66-3.34-2,.62-3.85,3.08-6.07.3-.44-.55-1.36-.18-2-.06-1.65.3-2.63-.3-2.7-2a41.94,41.94,0,0,0-1.89-11.66c-.31-.93.55-1.94,0-3-.25-.48-.6-1.3.29-1.56.57-.17,1.09.37,1.22.9a4.73,4.73,0,0,0,1.65,2.19,3.42,3.42,0,0,1,.84,3.67,11.13,11.13,0,0,0-.39,6c.25,1,.79,1.64,1.74,1.54,1.19-.13.5-1.1.49-1.69,0-1.94,1.4-3.36,1.87-5.18.64-2.42.23-4.61,0-6.83-.25-2.56,1.12-5,.29-7.56a1,1,0,0,1,.69-1.26l.07,0c.65-.12,1,.38,1.21.9,1.37,2.79,1.47,5.82,1.59,8.82a44.47,44.47,0,0,0,1.28,10.08c.88-1.08.72-2.38.64-3.61-.44-7.25-1.37-14.46-2.3-21.66-.22-1.73.23-3.56-.2-5.12-.85-3.13-.25-6.37-1.18-9.45-1-3.26-.47-6.67-.87-10-.7-6-1.06-12-1.78-18-.22-1.87.06-3.86-1.15-5.4-1.39-1.77-1.7-3.25-.1-5.12.76-.9.14-2.29-.13-3.42-.2-.84-.22-1.69-.35-2.52-.58-3.72.8-7.72-1.56-11.19a.81.81,0,0,1,0-.68c1.53-3,.07-6.07.15-9.07C96.71,115.83,94.85,111.14,95.18,106.27ZM90.83,214.21c-.55,3.15.28,6.15.58,9.21a3.52,3.52,0,0,1,0,1.93c-.4.57-.78.8-1.3.55-.89-.42-1.78-1.09-1.54-2.12,1-4.14-.1-8.19-.43-12.26,0-.32-.19-.68.19-.76a1.61,1.61,0,0,1,1.12.16A3.32,3.32,0,0,1,90.83,214.21Zm11.55-11.45a1.38,1.38,0,0,1-1.77-.85l0-.07a16.08,16.08,0,0,1-.76-4.06c-.06-.82.64-1.2,1.47-.93.68.22,1.66,5.34,1.09,5.91Z" fill="#b5d781"/></g><path id="Path_6244" data-name="Path 6244" d="M83.83,216.5a.73.73,0,0,1-1,.36l-.07,0c-.69-.38-1.44-.8-1.4-1.69a13.45,13.45,0,0,1,.43-2.26,1.25,1.25,0,0,1,1.31-1.09c1,.08.72.88.48,1.41C83.06,214.38,84.2,215.43,83.83,216.5Z" fill="#b5d781"/><path id="Path_6245" data-name="Path 6245" d="M88,234.42a.68.68,0,0,1-.12.12c-.39.28-1.22-.11-1.62-.25A18.47,18.47,0,0,0,81.88,233a7.23,7.23,0,0,0-1.8.07c-.31.05-1,.14-1-.37,0-2-2-3.2-2.18-5.09-.49-4.68-1.11-9.36-1.3-14.06-.15-3.86-1.22-7.59-.84-11.59.23-2.44-.28-5.21-.52-7.82-.41-4.47-.79-8.94-1.07-13.41-.25-3.94-1.09-7.81-.81-11.84a12.81,12.81,0,0,0-.36-4.53c-.34-1.15-1.16-2-1.4-3.28-.51-2.63.48-5.28.55-7.9.1-3.86-1.06-7.62-1-11.47.1-4-1.14-8.3,1.15-12.17.21-.36.28-.82-.12-1.05-.63-.37-1.42-.93-.67-1.57.39-.34.78-.18,1.17-.33s.52-.72-.06-.91a4.7,4.7,0,0,1-1.59-.51,3.16,3.16,0,0,1-1.2-1.26,2.31,2.31,0,0,1,.28-2.2,10.7,10.7,0,0,0,.68-.83c.44-.73-.24-1.41-.52-2.07a10.38,10.38,0,0,1-.68-2.74c-.23-1.82-.1-3.66-.18-5.49a9.58,9.58,0,0,0-.37-2.06c-.56-2.24.44-3.24,2.6-2.61.68.2,1.26.25,1.64-.41,1.11-1.94.35-4.15.76-6.21.15-.78-1.8-.6-2.67.44-.62.74-.35,2.56-2,2s-.92-1.87-.82-3a2.63,2.63,0,0,0-.21-1.61c-2-2.79-.75-5.94-1-8.9-.23-2.56,1.5-4.53,3.31-6,2.55-2,9.8-.17,10.12,2.93.33,3.29,2.46,4.53,4.1,6.52,1.51,1.82,1.24,2.39-1,2.91-1.21.29-2.44,1.07-2.21,2.37.36,2.09.2,4.42,1.85,6.14a2.69,2.69,0,0,1,.81,2.57,1.19,1.19,0,0,0-.06.46c.8,3.5,0,6.82-1.13,10.11-.09.28-.18.76,0,.9,2,1.93.6,4.12.59,6.21a18.48,18.48,0,0,0,1.25,5.92c.27.81.89,1.68-.2,2.25-.94.49-1.62-.28-2.23-.87a3.28,3.28,0,0,1-.58-1c-.25-.51-.51-1.08-1.2-.71a1.14,1.14,0,0,0-.51,1.54.93.93,0,0,0,0,.1,6.42,6.42,0,0,0,3.15,3.06c2.12,1,3.3,2.29,2.6,4.77a6.82,6.82,0,0,0,.08,1.86c0,1.54.38,3.1-1.24,4.24-.73.51-.59,1.56-.54,2.43.08,1.26-.29,1.78-1.65,1.2-1.07-.45-2.48-.95-3.16.36s.08,2.49,1.26,3.42c2,1.61,2.45,3.92,2.18,6.31-.1.91-.29,1.75.39,2.41.84.82,1.36-.13,2-.49,1-.59,1.69-.18,1.9.89a36.2,36.2,0,0,1,.5,8.88c-.12,1.93-2.18,2.16-3,3.53s-2.14,2.25,0,3.71c1.14.76.67,2.66,1.26,4.05a11.92,11.92,0,0,0,3.92,4.48c1.1.9,1.12,1.05-.15,1.57-2.77,1.16-2.7,1.17-1,3.86.78,1.26,1.21,2.75,3.13,2.68.54,0,.75.46.66,1a3.07,3.07,0,0,0-.1,1.38c.88,2.05,1.6,3.71-2,2.86-1-.23-1,1.21-.6,2.05s1,1.19,1.19,2c.55,1.95,0,3.09-1.76,2.8-1.94-.31-1.93.78-2,2-.08,3.79,0,7.59-.2,11.37-.08,1.7.48,3.95-2.32,4.34-.53.07-.65.62-.5,1.14A1.61,1.61,0,0,0,85,226.11a18.51,18.51,0,0,1,3.72.31c.87.2,2,.66,1.6,1.9s-1.2.92-2.1.56a14.89,14.89,0,0,0-2.29-.52c-.73-.16-1.51-.26-1.61.76s.57,1.11,1.37,1.22c1.64.22,2.61,2,2.53,3.54A1,1,0,0,1,88,234.42Zm-4.2-17.92c.36-1.07-.78-2.12-.25-3.31.24-.53.52-1.33-.48-1.4a1.23,1.23,0,0,0-1.31,1.08,14.55,14.55,0,0,0-.44,2.26c0,.9.72,1.31,1.4,1.69a.75.75,0,0,0,1-.24.2.2,0,0,0,0-.08Z" fill="#a2ce62"/><path id="Path_6246" data-name="Path 6246" d="M97.45,237a1.52,1.52,0,0,0-.44-.15,4.87,4.87,0,0,1-1.35-.34c-.37-.21-.69-.56-1.06-.8a9.91,9.91,0,0,0-5.31-1.58,5.88,5.88,0,0,0-1.26.05l-.14,0c-.37.12-.57.48-1,.56-.78.14-1.52-.45-2.3-.27-1.76.4-3.42-.45-5.35-.08s-3.24-2.31-3.58-4.08c-.94-4.94-2.68-9.81-2.4-14.92.33-5.74-.61-11.58-1.4-17.2a7.71,7.71,0,0,1,0-2.3c.26-2-1.27-4-.5-6a2.91,2.91,0,0,0,.3-1.5c-.13-.61-.72-1-1.08-1.5a2.84,2.84,0,0,1-.33-2.22c.2-.92.67-1.74.9-2.64a6,6,0,0,0,.06-2.86,8.14,8.14,0,0,0-1.5-2.64c-.06-.07-.13-.16-.23-.16a.19.19,0,0,0-.15.14.66.66,0,0,0,0,.21c0,.42,0,.83,0,1.25s.1.72.17,1.08c.09.21.19.42.3.62.49,1.08-.24,2.22-.44,3.28a12.17,12.17,0,0,0-.1,3.46v.08c.23,2.58.7,5.13,1,7.69.61,4.5.72,9.06.93,13.58.12,2.64.29,5.28.48,7.92.16,2.26.57,4.55.62,6.78a21.66,21.66,0,0,0,1.13,7.36,12.14,12.14,0,0,0,1.85,3.22c.36.46.77.9,1.09,1.39s.23,1.27.87,1.51a19.23,19.23,0,0,0,2.15.11c2.12.46,3.93,2.41,6,1a7.21,7.21,0,0,1,7.48-.14,10.92,10.92,0,0,0,2.3,1.25,2.21,2.21,0,0,0,1.3,0c.3-.09,1.17-.45,1.16-.85A.48.48,0,0,0,97.45,237Z" fill="#c7e1a1"/><path id="Path_6247" data-name="Path 6247" d="M105.6,232.46a4.4,4.4,0,0,1-2.89,1.76,3.65,3.65,0,0,1-3.23-1.11c-.3-.4-.27-.77-.86-.88a4.4,4.4,0,0,0-1.48.23c-1.65.3-2.63-.31-2.7-2a41.88,41.88,0,0,0-1.89-11.66c-.31-.93.55-1.94,0-3-.26-.48-.6-1.3.28-1.57.57-.16,1.09.38,1.22.9a4.75,4.75,0,0,0,1.65,2.2,3.41,3.41,0,0,1,.84,3.67,11.13,11.13,0,0,0-.39,6c.25,1,.79,1.63,1.74,1.53,1.19-.12.5-1.1.49-1.69,0-1.94,1.4-3.35,1.87-5.17.64-2.42.23-4.62,0-6.83-.26-2.57,1.12-5,.29-7.56a1,1,0,0,1,.69-1.27l.07,0c.65-.11,1,.39,1.22.9,1.36,2.79,1.46,5.83,1.59,8.83a58.76,58.76,0,0,0,.59,6.88,7.92,7.92,0,0,0,.65,2.67,10.56,10.56,0,0,1,1.14,3,5.59,5.59,0,0,1-.62,3.84C105.79,232.19,105.7,232.33,105.6,232.46Z" fill="#a2ce62"/><path d="M123.08,250c-.73-2.75-1.86-5.22-5.52-6.29A24.62,24.62,0,0,0,99.22,246Q95.54,247.89,92,250Z" fill="#f6d4a6"/></g></g></svg>